<?xml version="1.0" encoding="UTF-8" standalone="no"?>
<!-- Created with Inkscape (http://www.inkscape.org/) -->

<svg
   xmlns:dc="http://purl.org/dc/elements/1.1/"
   xmlns:cc="http://creativecommons.org/ns#"
   xmlns:rdf="http://www.w3.org/1999/02/22-rdf-syntax-ns#"
   xmlns:svg="http://www.w3.org/2000/svg"
   xmlns="http://www.w3.org/2000/svg"
   xmlns:sodipodi="http://sodipodi.sourceforge.net/DTD/sodipodi-0.dtd"
   xmlns:inkscape="http://www.inkscape.org/namespaces/inkscape"
   width="210mm"
   height="297mm"
   viewBox="0 0 210 297"
   version="1.1"
   id="svg8"
   inkscape:version="0.92.4 (5da689c313, 2019-01-14)"
   sodipodi:docname="JEPHTA.svg"
   inkscape:export-filename="C:\MJT\LAB\GRAPHIC DESIGN\2.MJ\JEPHTA_Big_Blue.png"
   inkscape:export-xdpi="167.57799"
   inkscape:export-ydpi="167.57799">
  <defs
     id="defs2" />
  <sodipodi:namedview
     id="base"
     pagecolor="#ffffff"
     bordercolor="#666666"
     borderopacity="1.0"
     inkscape:pageopacity="0.0"
     inkscape:pageshadow="2"
     inkscape:zoom="0.49497475"
     inkscape:cx="725.43299"
     inkscape:cy="531.41752"
     inkscape:document-units="mm"
     inkscape:current-layer="layer2"
     showgrid="false"
     inkscape:window-width="1366"
     inkscape:window-height="745"
     inkscape:window-x="-8"
     inkscape:window-y="-8"
     inkscape:window-maximized="1" />
  <metadata
     id="metadata5">
    <rdf:RDF>
      <cc:Work
         rdf:about="">
        <dc:format>image/svg+xml</dc:format>
        <dc:type
           rdf:resource="http://purl.org/dc/dcmitype/StillImage" />
        <dc:title></dc:title>
      </cc:Work>
    </rdf:RDF>
  </metadata>
  <g
     inkscape:groupmode="layer"
     id="layer2"
     inkscape:label="Backdrop">
    <text
       xml:space="preserve"
       style="font-style:normal;font-weight:normal;font-size:122.89637756px;line-height:1.25;font-family:sans-serif;letter-spacing:0px;word-spacing:0px;fill:#000000;fill-opacity:1;stroke:none;stroke-width:3.07240939"
       x="-2.7888105"
       y="144.1261"
       id="text850"
       transform="scale(0.86171054,1.1604825)"><tspan
         sodipodi:role="line"
         id="tspan848"
         x="-2.7888105"
         y="144.1261"
         style="stroke-width:3.07240939;fill:#000028;fill-opacity:1">יִפְתָּח</tspan></text>
  </g>
  <g
     inkscape:groupmode="layer"
     id="layer3"
     inkscape:label="Symbols" />
  <g
     inkscape:label="Name"
     inkscape:groupmode="layer"
     id="layer1">
    <path
       style="font-style:normal;font-weight:normal;font-size:13.03492451px;line-height:1.25;font-family:sans-serif;letter-spacing:0px;word-spacing:0px;fill:#beb41e;fill-opacity:1;stroke:#000000;stroke-width:2.74393704;stroke-opacity:1;stroke-miterlimit:4;stroke-dasharray:none"
       d="M 108.18164 441.41797 L 108.18164 579.46875 C 108.18164 586.90255 108.03553 591.91238 107.74219 594.49805 C 107.44885 597.08371 106.34811 599.26532 104.44141 601.04297 C 102.5347 602.82062 99.93092 603.70898 96.630859 603.70898 C 95.38417 603.70898 93.366796 603.58811 90.580078 603.3457 L 90.580078 637.64648 L 113.79102 637.64648 C 124.05787 637.64648 131.72116 636.79841 136.78125 635.10156 C 141.91468 633.32392 145.94943 630.1714 148.88281 625.64648 C 151.88953 621.12157 153.57473 616.07144 153.94141 610.49609 C 154.30808 604.83994 154.49219 592.19546 154.49219 572.56055 L 154.49219 441.41797 L 108.18164 441.41797 z M 172.64258 441.41797 L 172.64258 441.42383 L 172.64258 475.26367 L 249.86328 475.26367 L 266.36328 475.26367 L 312.67578 475.26367 L 317.41602 475.26367 C 320.81361 475.6822 323.20735 476.59405 324.55469 478.02148 C 326.46139 480.04154 327.41602 484.40475 327.41602 491.11133 L 327.41602 507.23242 C 327.41602 514.50461 326.57146 519.31104 324.88477 521.6543 C 323.2714 523.91676 320.33935 525.04883 316.08594 525.04883 C 315.13259 525.04883 313.99581 525.00854 312.67578 524.92773 L 312.67578 524.76172 L 266.36328 524.76172 L 266.36328 637.64648 L 312.67578 637.64648 L 312.67578 558.62109 L 325.10547 558.62109 C 335.22565 558.62109 343.40132 557.08611 349.63477 554.01562 C 355.94155 550.94519 360.26852 546.54164 362.61523 540.80469 C 364.96194 535.06774 366.13672 525.93839 366.13672 513.41406 L 366.13672 496.32422 C 366.13672 484.0423 365.51231 474.99158 364.26562 469.17383 C 363.09232 463.27527 360.78267 458.26544 357.33594 454.14453 C 353.96254 450.02362 348.86505 446.87306 342.04492 444.69141 C 336.80136 442.99583 329.76343 441.96788 320.97656 441.58984 L 320.97656 441.42383 L 313.53516 441.42383 C 313.35463 441.42337 313.18761 441.41797 313.00586 441.41797 L 266.36328 441.41797 L 266.36328 441.42383 L 249.86328 441.42383 L 249.86328 441.41797 L 172.64258 441.41797 z M 379.44531 441.41797 L 379.44531 637.64648 L 425.75781 637.64648 L 425.75781 555.22852 L 425.75781 511.5957 L 425.75781 441.41797 L 379.44531 441.41797 z M 439.61719 441.41797 L 439.61719 511.5957 L 439.61719 555.22852 L 439.61719 637.64648 L 485.92773 637.64648 L 485.92773 441.41797 L 439.61719 441.41797 z M 496.48828 441.41797 L 496.48828 480.6875 L 523.87891 480.6875 L 597.68945 480.6875 L 607.71875 480.6875 L 647.50781 480.6875 L 647.50781 488.12305 C 647.63176 487.12716 647.72506 486.30543 647.85156 485.29492 C 650.19827 517.93898 652.54397 545.37121 654.89062 567.5918 L 663.70703 637.64648 L 705.93164 637.64648 L 679.42188 441.41797 L 647.50781 441.41797 L 612.42969 441.41797 L 597.68945 441.41797 L 496.48828 441.41797 z M 523.87891 516.93359 L 523.87891 637.64648 L 570.18945 637.64648 L 570.18945 516.93359 L 523.87891 516.93359 z M 603.37109 516.93359 L 588.89062 637.64648 L 632.36133 637.64648 L 639.05078 567.5918 C 639.86305 555.56561 641.53974 538.60149 644.03906 516.93359 L 603.37109 516.93359 z M 172.64258 524.76172 L 172.64258 637.64648 L 252.94336 637.64648 L 252.94336 598.37695 L 218.95312 598.37695 L 218.95312 555.22852 L 247.88281 555.22852 L 247.88281 524.76172 L 172.64258 524.76172 z "
       transform="scale(0.26458333)"
       id="text817" />
    <flowRoot
       xml:space="preserve"
       id="flowRoot819"
       style="fill:black;fill-opacity:1;stroke:none;font-family:sans-serif;font-style:normal;font-weight:normal;font-size:40px;line-height:1.25;letter-spacing:0px;word-spacing:0px"><flowRegion
         id="flowRegion821"><rect
           id="rect823"
           width="90.913727"
           height="82.832512"
           x="56.568542"
           y="562.8952" /></flowRegion><flowPara
         id="flowPara825"></flowPara></flowRoot>  </g>
</svg>
