<?xml version="1.0" encoding="UTF-8" standalone="no"?>
<!-- Created with Inkscape (http://www.inkscape.org/) -->

<svg
   width="210mm"
   height="297mm"
   viewBox="0 0 210 297"
   version="1.1"
   id="svg1"
   xml:space="preserve"
   sodipodi:docname="Jephta Logo v3.svg"
   inkscape:version="1.3.2 (091e20e, 2023-11-25, custom)"
   xmlns:inkscape="http://www.inkscape.org/namespaces/inkscape"
   xmlns:sodipodi="http://sodipodi.sourceforge.net/DTD/sodipodi-0.dtd"
   xmlns:xlink="http://www.w3.org/1999/xlink"
   xmlns="http://www.w3.org/2000/svg"
   xmlns:svg="http://www.w3.org/2000/svg"><sodipodi:namedview
     id="namedview1"
     pagecolor="#505050"
     bordercolor="#eeeeee"
     borderopacity="1"
     inkscape:showpageshadow="0"
     inkscape:pageopacity="0"
     inkscape:pagecheckerboard="0"
     inkscape:deskcolor="#505050"
     inkscape:document-units="mm"
     inkscape:zoom="2.1845909"
     inkscape:cx="428.68438"
     inkscape:cy="530.76299"
     inkscape:window-width="1920"
     inkscape:window-height="1051"
     inkscape:window-x="-9"
     inkscape:window-y="-9"
     inkscape:window-maximized="1"
     inkscape:current-layer="layer1" /><defs
     id="defs1"><linearGradient
       id="linearGradient1"
       inkscape:collect="always"><stop
         style="stop-color:#ffc300;stop-opacity:1;"
         offset="0"
         id="stop1" /><stop
         style="stop-color:#fffc00;stop-opacity:1;"
         offset="0.49719101"
         id="stop2" /><stop
         style="stop-color:#ffc300;stop-opacity:1;"
         offset="1"
         id="stop3" /></linearGradient><linearGradient
       inkscape:collect="always"
       xlink:href="#linearGradient1"
       id="linearGradient2"
       x1="81.033524"
       y1="95.642151"
       x2="134.54893"
       y2="185.2661"
       gradientUnits="userSpaceOnUse" /></defs><g
     inkscape:label="Layer 1"
     inkscape:groupmode="layer"
     id="layer1"><path
       id="path6"
       style="fill:url(#linearGradient2);fill-rule:evenodd;stroke:none;stroke-width:0.348881;stroke-linecap:round;stroke-linejoin:bevel;stroke-dashoffset:3.77953;paint-order:stroke fill markers;fill-opacity:1"
       d="M 90.177499,93.608033 79.943502,103.84472 v 47.9167 h 9.027835 l 1.30197,-1.41769 v -45.89765 h 35.520303 v 9.99064 l 1.75562,2.20317 h 8.57418 V 103.84472 93.608033 Z m 37.264681,33.471927 -1.64857,1.93845 v 21.84005 25.11925 H 90.273307 v -12.5662 l -0.999186,-1.21003 h -9.330619 v 13.83063 10.78365 l 45.566978,0 10.61293,-10.78365 v -14.58169 -34.37046 z"
       sodipodi:nodetypes="cccccccccccccccccccccccccccc" /><g
       id="g14"
       transform="translate(0,3.1379215)"><path
         style="fill:#ffffff;fill-rule:evenodd;stroke:none;stroke-width:0.236906;stroke-linecap:round;stroke-linejoin:bevel;stroke-dashoffset:3.77953;paint-order:stroke fill markers"
         d="m 93.741881,156.42568 c 0,-4.03356 0.02369,-7.33374 0.05265,-7.33374 0.02896,0 1.139349,1.18666 2.46753,2.63702 l 2.41488,2.63703 1.125224,-0.0357 1.125225,-0.0357 3.58423,-5.73536 c 1.97133,-3.15445 3.61936,-5.73536 3.6623,-5.73536 0.043,0 1.62175,2.59502 3.50848,5.7667 l 3.4304,5.7667 h 1.14242 1.14244 l 2.41083,-2.63263 c 1.32597,-1.44794 2.43454,-2.63262 2.4635,-2.63262 0.029,0 0.0527,3.30018 0.0527,7.33374 v 7.33373 H 108.03327 93.741881 Z"
         id="path7" /><path
         style="fill:#ffffff;fill-rule:evenodd;stroke:none;stroke-width:0.236906;stroke-linecap:round;stroke-linejoin:bevel;stroke-dashoffset:3.77953;paint-order:stroke fill markers"
         d="m 100.88881,134.22198 c 3.87505,-3.9129 7.09007,-7.11436 7.14447,-7.11436 0.0544,0 3.26941,3.20146 7.14446,7.11436 l 7.04556,7.11435 h -5.18176 -5.18175 l -1.91325,-1.91027 -1.91326,-1.91027 -1.91326,1.91027 -1.91325,1.91027 h -5.181753 -5.181752 z"
         id="path8" /><path
         style="fill:#ffffff;fill-rule:evenodd;stroke:none;stroke-width:0.236906;stroke-linecap:round;stroke-linejoin:bevel;stroke-dashoffset:3.77953;paint-order:stroke fill markers"
         d="m 94.133884,125.4123 c 0.789724,-0.95366 13.804006,-15.02384 13.896366,-15.02384 0.0926,0 13.12978,14.08846 13.90225,15.02337 0.15987,0.19349 -0.19567,0.20824 -5.02094,0.20824 h -5.19301 l -1.78887,-1.94313 c -0.98387,-1.06872 -1.83887,-1.94313 -1.89998,-1.94313 -0.0611,0 -0.91477,0.87441 -1.89701,1.94313 l -1.78587,1.94313 h -5.192497 c -4.820272,0 -5.180159,-0.0149 -5.020439,-0.20777 z"
         id="path9" /></g><rect
       style="fill:#0014ff;fill-opacity:1;fill-rule:evenodd;stroke:none;stroke-width:0.177998;stroke-linecap:round;stroke-linejoin:bevel;stroke-dashoffset:3.77953;paint-order:stroke fill markers"
       id="rect11"
       width="10.34006"
       height="5.571218"
       x="79.943504"
       y="154.11531" /><rect
       style="fill:#0014ff;fill-opacity:1;fill-rule:evenodd;stroke:none;stroke-width:0.177868;stroke-linecap:round;stroke-linejoin:bevel;stroke-dashoffset:3.77953;paint-order:stroke fill markers"
       id="rect14"
       width="10.324922"
       height="5.571218"
       x="125.79848"
       y="118.69492" /><path
       d="m 79.943502,93.608033 v 7.256917 l 7.256922,-7.256917 z"
       style="fill:#ffffff;stroke:none;stroke-width:0.264583px"
       id="path17" /><path
       d="m 136.12341,186.81576 v -7.25696 l -7.25692,7.25696 z"
       style="fill:#ffffff;stroke:none;stroke-width:0.264583px"
       id="path18" /></g></svg>
