<?xml version="1.0" encoding="UTF-8" standalone="no"?>
<!-- Created with Inkscape (http://www.inkscape.org/) -->

<svg
   width="385.63513mm"
   height="385.63513mm"
   viewBox="0 0 385.63513 385.63514"
   version="1.1"
   id="svg1"
   xml:space="preserve"
   inkscape:export-filename="Arduino_Icon.svg"
   inkscape:export-xdpi="96"
   inkscape:export-ydpi="96"
   xmlns:inkscape="http://www.inkscape.org/namespaces/inkscape"
   xmlns:sodipodi="http://sodipodi.sourceforge.net/DTD/sodipodi-0.dtd"
   xmlns="http://www.w3.org/2000/svg"
   xmlns:svg="http://www.w3.org/2000/svg"><sodipodi:namedview
     id="namedview1"
     pagecolor="#505050"
     bordercolor="#eeeeee"
     borderopacity="1"
     inkscape:showpageshadow="0"
     inkscape:pageopacity="0"
     inkscape:pagecheckerboard="0"
     inkscape:deskcolor="#505050"
     inkscape:document-units="mm" /><defs
     id="defs1"><filter
       inkscape:collect="always"
       style="color-interpolation-filters:sRGB"
       id="filter19"
       x="-0.020660948"
       y="-0.020660948"
       width="1.0413219"
       height="1.0413219"><feGaussianBlur
         inkscape:collect="always"
         stdDeviation="1.7319121"
         id="feGaussianBlur19" /></filter><filter
       inkscape:collect="always"
       style="color-interpolation-filters:sRGB"
       id="filter20"
       x="-0.056660946"
       y="-0.056660946"
       width="1.1133219"
       height="1.1133219"><feGaussianBlur
         inkscape:collect="always"
         stdDeviation="6.9276483"
         id="feGaussianBlur20" /></filter></defs><g
     inkscape:label="Layer 1"
     inkscape:groupmode="layer"
     id="layer1"
     transform="translate(87.749196,33.583449)"><g
       id="g11"
       style="stroke:#beb419;stroke-opacity:1;filter:url(#filter20)"><circle
         style="opacity:1;fill:none;stroke:#beb419;stroke-width:6;stroke-linecap:round;stroke-linejoin:round;stroke-dasharray:none;stroke-opacity:1;paint-order:stroke markers fill"
         id="path11"
         cx="105.06837"
         cy="159.23412"
         r="173.19121" /><path
         style="fill:none;stroke:#beb419;stroke-width:6;stroke-linecap:round;stroke-linejoin:round;stroke-dasharray:none;stroke-opacity:1;paint-order:stroke markers fill"
         d="M 32.059299,218.47712 C 13.92416,216.9168 -1.9434954,208.11665 -12.644097,193.68475 c -3.86614,-5.21426 -6.576962,-10.6306 -8.867788,-17.71819 -0.993688,-3.07438 -2.025164,-5.85328 -2.292168,-6.17535 -0.314118,-0.37891 -0.317291,-4.25226 -0.009,-10.97444 0.405776,-8.84743 0.671373,-11.05497 1.79006,-14.87839 2.754649,-9.41476 7.902504,-18.16839 14.8167486,-25.19503 C 5.2443023,106.0904 20.081077,100.07773 39.62086,99.766463 c 3.7172,-0.05922 12.918408,1.764217 19.025788,3.770397 14.463948,4.75119 28.024812,15.19554 40.335911,31.06604 3.414331,4.40149 5.208231,5.52566 7.244151,4.53963 0.78513,-0.38025 2.64091,-2.15046 4.12395,-3.93381 15.82985,-19.03531 25.30102,-26.19914 42.61515,-32.23336 l 6.62554,-2.3091 9.72734,-0.24269 c 7.48262,-0.18668 10.76514,-0.0621 14.22462,0.53994 30.91582,5.38005 53.16622,33.53381 50.12571,63.42475 -1.38047,13.57134 -6.30727,24.67027 -15.45403,34.8143 -1.92614,2.13614 -3.50205,4.10031 -3.50205,4.36483 0,0.26452 -0.26143,0.48095 -0.58094,0.48095 -0.31954,0 -2.73831,1.45 -5.37504,3.22224 -8.15544,5.48148 -16.48832,8.89968 -25.44716,10.4386 -5.98293,1.02772 -16.48087,1.04394 -22.2813,0.0344 -9.71814,-1.69137 -20.06064,-6.17058 -29.06866,-12.58928 -5.11884,-3.64746 -14.13229,-12.3647 -18.75905,-18.14259 -4.96782,-6.20379 -6.26247,-7.40645 -7.973,-7.40645 -2.16331,0 -3.19621,0.87171 -7.862195,6.63529 -5.408498,6.68075 -12.859988,14.00627 -18.793229,18.47552 -13.413269,10.10363 -30.447567,15.14327 -46.513078,13.76103 z m 16.041814,-19.17963 c 16.057425,-3.81808 30.707224,-16.05235 42.059778,-35.12476 l 2.802093,-4.70754 -1.564804,-2.77503 c -9.696315,-17.19544 -23.240177,-30.0108 -37.252957,-35.24917 -21.922121,-8.1951 -46.1314846,0.89753 -55.9153793,21.00088 -2.9919506,6.14767 -3.7190944,9.45432 -3.7296751,16.96049 -0.010848,7.68895 1.0492554,12.14624 4.3728772,18.38628 6.1910541,11.62358 18.4093402,20.16392 31.7883642,22.21942 4.181922,0.6425 13.314055,0.27042 17.439703,-0.71057 z m 134.255977,0.062 c 21.78474,-4.7558 36.41268,-25.67553 32.64864,-46.69149 -2.85282,-15.9282 -15.43031,-28.86851 -32.11403,-33.04035 -6.0899,-1.52281 -15.50803,-1.50481 -21.77699,0.0416 -5.42511,1.33828 -14.27872,5.58331 -18.76475,8.99711 -9.29691,7.0748 -17.43372,16.6427 -23.84866,28.04311 l -1.5724,2.79443 3.20123,5.27922 c 4.52927,7.46934 8.69725,12.80907 14.48975,18.56336 9.58101,9.51778 19.55001,14.87052 31.11415,16.70637 3.6964,0.58681 12.42699,0.22263 16.62306,-0.6934 z"
         id="path5" /><path
         style="fill:none;stroke:#beb419;stroke-width:6;stroke-linecap:round;stroke-linejoin:round;stroke-dasharray:none;stroke-opacity:1;paint-order:stroke markers fill"
         d="m 19.667359,159.23412 v -5.98606 h 19.454674 19.454675 v 5.98606 5.98605 H 39.122033 19.667359 Z"
         id="path6" /><path
         style="fill:none;stroke:#beb419;stroke-width:6;stroke-linecap:round;stroke-linejoin:round;stroke-dasharray:none;stroke-opacity:1;paint-order:stroke markers fill"
         d="m 164.33032,171.95448 v -6.73431 h -6.73431 -6.73431 v -5.97158 -5.97157 l 6.6096,-0.13919 6.6096,-0.13919 0.13919,-6.6096 0.13919,-6.6096 h 5.95709 5.9571 l 0.13919,6.6096 0.13919,6.6096 6.6096,0.13919 6.6096,0.13919 v 5.97157 5.97158 h -6.73431 -6.73431 v 6.73431 6.73431 h -5.98606 -5.98605 z"
         id="path7" /></g><g
       id="g16"
       style="stroke:#beb419;stroke-opacity:1;filter:url(#filter19)"><circle
         style="opacity:1;fill:none;stroke:#beb419;stroke-width:6;stroke-linecap:round;stroke-linejoin:round;stroke-dasharray:none;stroke-opacity:1;paint-order:stroke markers fill"
         id="circle14"
         cx="105.06837"
         cy="159.23412"
         r="173.19121" /><path
         style="fill:none;stroke:#beb419;stroke-width:6;stroke-linecap:round;stroke-linejoin:round;stroke-dasharray:none;stroke-opacity:1;paint-order:stroke markers fill"
         d="M 32.059299,218.47712 C 13.92416,216.9168 -1.9434954,208.11665 -12.644097,193.68475 c -3.86614,-5.21426 -6.576962,-10.6306 -8.867788,-17.71819 -0.993688,-3.07438 -2.025164,-5.85328 -2.292168,-6.17535 -0.314118,-0.37891 -0.317291,-4.25226 -0.009,-10.97444 0.405776,-8.84743 0.671373,-11.05497 1.79006,-14.87839 2.754649,-9.41476 7.902504,-18.16839 14.8167486,-25.19503 C 5.2443023,106.0904 20.081077,100.07773 39.62086,99.766463 c 3.7172,-0.05922 12.918408,1.764217 19.025788,3.770397 14.463948,4.75119 28.024812,15.19554 40.335911,31.06604 3.414331,4.40149 5.208231,5.52566 7.244151,4.53963 0.78513,-0.38025 2.64091,-2.15046 4.12395,-3.93381 15.82985,-19.03531 25.30102,-26.19914 42.61515,-32.23336 l 6.62554,-2.3091 9.72734,-0.24269 c 7.48262,-0.18668 10.76514,-0.0621 14.22462,0.53994 30.91582,5.38005 53.16622,33.53381 50.12571,63.42475 -1.38047,13.57134 -6.30727,24.67027 -15.45403,34.8143 -1.92614,2.13614 -3.50205,4.10031 -3.50205,4.36483 0,0.26452 -0.26143,0.48095 -0.58094,0.48095 -0.31954,0 -2.73831,1.45 -5.37504,3.22224 -8.15544,5.48148 -16.48832,8.89968 -25.44716,10.4386 -5.98293,1.02772 -16.48087,1.04394 -22.2813,0.0344 -9.71814,-1.69137 -20.06064,-6.17058 -29.06866,-12.58928 -5.11884,-3.64746 -14.13229,-12.3647 -18.75905,-18.14259 -4.96782,-6.20379 -6.26247,-7.40645 -7.973,-7.40645 -2.16331,0 -3.19621,0.87171 -7.862195,6.63529 -5.408498,6.68075 -12.859988,14.00627 -18.793229,18.47552 -13.413269,10.10363 -30.447567,15.14327 -46.513078,13.76103 z m 16.041814,-19.17963 c 16.057425,-3.81808 30.707224,-16.05235 42.059778,-35.12476 l 2.802093,-4.70754 -1.564804,-2.77503 c -9.696315,-17.19544 -23.240177,-30.0108 -37.252957,-35.24917 -21.922121,-8.1951 -46.1314846,0.89753 -55.9153793,21.00088 -2.9919506,6.14767 -3.7190944,9.45432 -3.7296751,16.96049 -0.010848,7.68895 1.0492554,12.14624 4.3728772,18.38628 6.1910541,11.62358 18.4093402,20.16392 31.7883642,22.21942 4.181922,0.6425 13.314055,0.27042 17.439703,-0.71057 z m 134.255977,0.062 c 21.78474,-4.7558 36.41268,-25.67553 32.64864,-46.69149 -2.85282,-15.9282 -15.43031,-28.86851 -32.11403,-33.04035 -6.0899,-1.52281 -15.50803,-1.50481 -21.77699,0.0416 -5.42511,1.33828 -14.27872,5.58331 -18.76475,8.99711 -9.29691,7.0748 -17.43372,16.6427 -23.84866,28.04311 l -1.5724,2.79443 3.20123,5.27922 c 4.52927,7.46934 8.69725,12.80907 14.48975,18.56336 9.58101,9.51778 19.55001,14.87052 31.11415,16.70637 3.6964,0.58681 12.42699,0.22263 16.62306,-0.6934 z"
         id="path14" /><path
         style="fill:none;stroke:#beb419;stroke-width:6;stroke-linecap:round;stroke-linejoin:round;stroke-dasharray:none;stroke-opacity:1;paint-order:stroke markers fill"
         d="m 19.667359,159.23412 v -5.98606 h 19.454674 19.454675 v 5.98606 5.98605 H 39.122033 19.667359 Z"
         id="path15" /><path
         style="fill:none;stroke:#beb419;stroke-width:6;stroke-linecap:round;stroke-linejoin:round;stroke-dasharray:none;stroke-opacity:1;paint-order:stroke markers fill"
         d="m 164.33032,171.95448 v -6.73431 h -6.73431 -6.73431 v -5.97158 -5.97157 l 6.6096,-0.13919 6.6096,-0.13919 0.13919,-6.6096 0.13919,-6.6096 h 5.95709 5.9571 l 0.13919,6.6096 0.13919,6.6096 6.6096,0.13919 6.6096,0.13919 v 5.97157 5.97158 h -6.73431 -6.73431 v 6.73431 6.73431 h -5.98606 -5.98605 z"
         id="path16" /></g><g
       id="g19"><circle
         style="opacity:1;fill:none;stroke:#beb419;stroke-width:6;stroke-linecap:round;stroke-linejoin:round;stroke-dasharray:none;stroke-opacity:1;paint-order:stroke markers fill"
         id="circle16"
         cx="105.06837"
         cy="159.23412"
         r="173.19121" /><path
         style="fill:none;stroke:#beb419;stroke-width:6;stroke-linecap:round;stroke-linejoin:round;stroke-dasharray:none;paint-order:stroke markers fill"
         d="M 32.059299,218.47712 C 13.92416,216.9168 -1.9434954,208.11665 -12.644097,193.68475 c -3.86614,-5.21426 -6.576962,-10.6306 -8.867788,-17.71819 -0.993688,-3.07438 -2.025164,-5.85328 -2.292168,-6.17535 -0.314118,-0.37891 -0.317291,-4.25226 -0.009,-10.97444 0.405776,-8.84743 0.671373,-11.05497 1.79006,-14.87839 2.754649,-9.41476 7.902504,-18.16839 14.8167486,-25.19503 C 5.2443023,106.0904 20.081077,100.07773 39.62086,99.766463 c 3.7172,-0.05922 12.918408,1.764217 19.025788,3.770397 14.463948,4.75119 28.024812,15.19554 40.335911,31.06604 3.414331,4.40149 5.208231,5.52566 7.244151,4.53963 0.78513,-0.38025 2.64091,-2.15046 4.12395,-3.93381 15.82985,-19.03531 25.30102,-26.19914 42.61515,-32.23336 l 6.62554,-2.3091 9.72734,-0.24269 c 7.48262,-0.18668 10.76514,-0.0621 14.22462,0.53994 30.91582,5.38005 53.16622,33.53381 50.12571,63.42475 -1.38047,13.57134 -6.30727,24.67027 -15.45403,34.8143 -1.92614,2.13614 -3.50205,4.10031 -3.50205,4.36483 0,0.26452 -0.26143,0.48095 -0.58094,0.48095 -0.31954,0 -2.73831,1.45 -5.37504,3.22224 -8.15544,5.48148 -16.48832,8.89968 -25.44716,10.4386 -5.98293,1.02772 -16.48087,1.04394 -22.2813,0.0344 -9.71814,-1.69137 -20.06064,-6.17058 -29.06866,-12.58928 -5.11884,-3.64746 -14.13229,-12.3647 -18.75905,-18.14259 -4.96782,-6.20379 -6.26247,-7.40645 -7.973,-7.40645 -2.16331,0 -3.19621,0.87171 -7.862195,6.63529 -5.408498,6.68075 -12.859988,14.00627 -18.793229,18.47552 -13.413269,10.10363 -30.447567,15.14327 -46.513078,13.76103 z m 16.041814,-19.17963 c 16.057425,-3.81808 30.707224,-16.05235 42.059778,-35.12476 l 2.802093,-4.70754 -1.564804,-2.77503 c -9.696315,-17.19544 -23.240177,-30.0108 -37.252957,-35.24917 -21.922121,-8.1951 -46.1314846,0.89753 -55.9153793,21.00088 -2.9919506,6.14767 -3.7190944,9.45432 -3.7296751,16.96049 -0.010848,7.68895 1.0492554,12.14624 4.3728772,18.38628 6.1910541,11.62358 18.4093402,20.16392 31.7883642,22.21942 4.181922,0.6425 13.314055,0.27042 17.439703,-0.71057 z m 134.255977,0.062 c 21.78474,-4.7558 36.41268,-25.67553 32.64864,-46.69149 -2.85282,-15.9282 -15.43031,-28.86851 -32.11403,-33.04035 -6.0899,-1.52281 -15.50803,-1.50481 -21.77699,0.0416 -5.42511,1.33828 -14.27872,5.58331 -18.76475,8.99711 -9.29691,7.0748 -17.43372,16.6427 -23.84866,28.04311 l -1.5724,2.79443 3.20123,5.27922 c 4.52927,7.46934 8.69725,12.80907 14.48975,18.56336 9.58101,9.51778 19.55001,14.87052 31.11415,16.70637 3.6964,0.58681 12.42699,0.22263 16.62306,-0.6934 z"
         id="path17" /><path
         style="fill:none;stroke:#beb419;stroke-width:6;stroke-linecap:round;stroke-linejoin:round;stroke-dasharray:none;paint-order:stroke markers fill"
         d="m 19.667359,159.23412 v -5.98606 h 19.454674 19.454675 v 5.98606 5.98605 H 39.122033 19.667359 Z"
         id="path18" /><path
         style="fill:none;stroke:#beb419;stroke-width:6;stroke-linecap:round;stroke-linejoin:round;stroke-dasharray:none;paint-order:stroke markers fill"
         d="m 164.33032,171.95448 v -6.73431 h -6.73431 -6.73431 v -5.97158 -5.97157 l 6.6096,-0.13919 6.6096,-0.13919 0.13919,-6.6096 0.13919,-6.6096 h 5.95709 5.9571 l 0.13919,6.6096 0.13919,6.6096 6.6096,0.13919 6.6096,0.13919 v 5.97157 5.97158 h -6.73431 -6.73431 v 6.73431 6.73431 h -5.98606 -5.98605 z"
         id="path19" /></g></g></svg>
