<?xml version="1.0" encoding="UTF-8" standalone="no"?>
<!-- Created with Inkscape (http://www.inkscape.org/) -->

<svg
   width="194.38008mm"
   height="194.50403mm"
   viewBox="0 0 194.38008 194.50403"
   version="1.1"
   id="svg1"
   xml:space="preserve"
   xmlns:inkscape="http://www.inkscape.org/namespaces/inkscape"
   xmlns:sodipodi="http://sodipodi.sourceforge.net/DTD/sodipodi-0.dtd"
   xmlns="http://www.w3.org/2000/svg"
   xmlns:svg="http://www.w3.org/2000/svg"><sodipodi:namedview
     id="namedview1"
     pagecolor="#505050"
     bordercolor="#eeeeee"
     borderopacity="1"
     inkscape:showpageshadow="0"
     inkscape:pageopacity="0"
     inkscape:pagecheckerboard="0"
     inkscape:deskcolor="#505050"
     inkscape:document-units="mm" /><defs
     id="defs1"><filter
       inkscape:collect="always"
       style="color-interpolation-filters:sRGB"
       id="filter4"
       x="-0.044969761"
       y="-0.044935558"
       width="1.0899375"
       height="1.0898697"><feGaussianBlur
         inkscape:collect="always"
         stdDeviation="10.296585"
         id="feGaussianBlur4" /></filter><filter
       inkscape:collect="always"
       style="color-interpolation-filters:sRGB"
       id="filter5"
       x="-0.061152028"
       y="-0.0611062"
       width="1.1223021"
       height="1.122211"><feGaussianBlur
         inkscape:collect="always"
         stdDeviation="14.710334"
         id="feGaussianBlur5" /></filter></defs><g
     inkscape:label="Layer 1"
     inkscape:groupmode="layer"
     id="layer1"
     transform="translate(-7.7632467,-51.248103)"><path
       id="path5"
       style="mix-blend-mode:normal;fill:none;stroke:#beb41e;stroke-width:9.44882;stroke-linecap:round;stroke-linejoin:round;stroke-dasharray:none;stroke-opacity:1;paint-order:markers fill stroke;filter:url(#filter5)"
       d="M 336.15039,0.72656251 C 305.37279,-0.04534248 274.31828,3.5517355 243.79297,11.677735 130.8218,41.751268 41.751268,130.8218 11.677735,243.79297 -15.149219,344.56838 7.8742113,452.84474 73.400392,534.07032 c 13.401519,16.61238 40.240648,42.69975 56.369138,54.78906 52.19931,39.12659 113.40323,62.05033 176.5918,66.14063 79.10707,5.1207 155.74832,-17.92876 220.54688,-66.32813 16.02028,-11.96588 49.93704,-45.93062 62.03516,-62.12305 43.76482,-58.57592 66.14984,-124.87411 66.36133,-196.53711 0.0865,-29.29697 -1.64123,-46.39936 -7.37696,-73.00976 C 637.73196,209.69943 613.6421,160.02673 581.99219,121.04492 569.30759,105.42183 542.16425,79.189632 526.65235,67.562501 470.22907,25.269773 403.86111,2.4247535 336.15039,0.72656251 Z M 91.925782,178.5 l 82.537108,0.51172 c 78.57903,0.4882 83.12808,0.64659 94.83789,3.28125 32.3797,7.28528 51.43042,25.26611 56.42383,53.25586 5.88435,32.98363 -4.54203,59.3988 -29.5332,74.82422 l -7.52539,4.64453 8.22266,3.47071 c 21.72006,9.16353 36.81574,27.11436 42.4707,50.50586 2.51071,10.38546 2.15445,35.00534 -0.65625,45.31445 -5.79952,21.2715 -21.14045,39.31973 -42.21289,49.66211 -13.65,6.69944 -27.32111,10.58413 -43.97071,12.49219 -6.07975,0.69675 -44.70081,1.27134 -85.82422,1.27734 l -74.769528,0.01 V 328.125 Z m 305.552738,15.70703 h 60.85156 60.85157 v 16.83204 16.83203 h -60.85157 -60.85156 v -16.83203 z m -239.52344,36.25196 v 34.3789 34.37891 l 39.8125,-0.39258 c 38.79179,-0.38268 39.98814,-0.4709 46.66602,-3.48828 13.31206,-6.01503 19.4142,-17.73314 18.05468,-34.66992 -1.33141,-16.58663 -11.68061,-26.11184 -31.38086,-28.88086 -4.98465,-0.70064 -23.48311,-1.28668 -41.10742,-1.30078 z m 300.85352,19.93945 c 11.34239,-0.11939 22.59627,0.69879 29.08008,2.50391 23.92435,6.66065 43.72288,21.04855 56.8164,41.28906 12.91962,19.9717 18.39291,38.58533 19.42579,66.06445 l 0.71679,19.09571 h -77.9375 -77.9375 l 0.81445,6.15039 c 3.95881,29.90027 17.78312,43.84522 46.07422,46.47461 18.69998,1.73797 38.97055,-6.71083 47.69141,-19.87696 2.18664,-3.3012 3.97656,-6.48421 3.97656,-7.07421 0,-0.59001 12.00653,-1.07422 26.68164,-1.07422 h 26.68165 l -0.83985,3.56054 c -1.59541,6.76235 -13.6356,29.47725 -19.15234,36.13086 -12.22366,14.74268 -29.72273,25.25856 -50.20313,30.16993 -12.56716,3.0137 -35.44433,4.29163 -48.06836,2.68554 -25.09541,-3.19277 -46.54537,-13.16346 -62.14844,-28.88867 -14.28327,-14.39511 -24.77778,-34.91527 -28.85547,-56.42383 -2.35517,-12.42286 -2.71736,-38.67502 -0.6914,-50.11328 7.64965,-43.18873 36.74812,-75.73967 78.26562,-87.55274 6.83695,-1.94532 18.26699,-3.0017 29.60938,-3.12109 z m 0.0742,44.79688 c -25.18122,0 -43.36375,14.03716 -48.29688,37.28711 -0.80066,3.77354 -1.45508,7.12432 -1.45508,7.44531 0,0.321 21.3412,0.58203 47.42579,0.58203 h 47.42773 l -0.69726,-4.20703 c -2.08615,-12.58478 -11.18117,-28.93395 -18.93555,-34.04102 -5.50618,-3.62638 -17.90458,-7.0664 -25.46875,-7.0664 z m -300.92774,49.19922 v 40.90429 40.9043 l 41.75586,-0.54102 c 38.9508,-0.50587 42.34849,-0.73844 50.61719,-3.44921 6.50597,-2.13289 10.32878,-4.3698 14.37109,-8.41211 8.11735,-8.11737 10.20731,-14.73383 9.53321,-30.18164 -0.61905,-14.18598 -2.82659,-19.99969 -10.32032,-27.18165 -10.47515,-10.03936 -22.31195,-12.0188 -71.9707,-12.0332 z"
       transform="matrix(0.26458333,0,0,0.26458333,18.16877,61.673958)" /><path
       id="path1"
       style="mix-blend-mode:normal;fill:none;stroke:#beb41e;stroke-width:9.44882;stroke-linecap:round;stroke-linejoin:round;stroke-dasharray:none;stroke-opacity:1;paint-order:markers fill stroke;filter:url(#filter4)"
       d="M 336.15039,0.72656251 C 305.37279,-0.04534248 274.31828,3.5517355 243.79297,11.677735 130.8218,41.751268 41.751268,130.8218 11.677735,243.79297 -15.149219,344.56838 7.8742113,452.84474 73.400392,534.07032 c 13.401519,16.61238 40.240648,42.69975 56.369138,54.78906 52.19931,39.12659 113.40323,62.05033 176.5918,66.14063 79.10707,5.1207 155.74832,-17.92876 220.54688,-66.32813 16.02028,-11.96588 49.93704,-45.93062 62.03516,-62.12305 43.76482,-58.57592 66.14984,-124.87411 66.36133,-196.53711 0.0865,-29.29697 -1.64123,-46.39936 -7.37696,-73.00976 C 637.73196,209.69943 613.6421,160.02673 581.99219,121.04492 569.30759,105.42183 542.16425,79.189632 526.65235,67.562501 470.22907,25.269773 403.86111,2.4247535 336.15039,0.72656251 Z M 91.925782,178.5 l 82.537108,0.51172 c 78.57903,0.4882 83.12808,0.64659 94.83789,3.28125 32.3797,7.28528 51.43042,25.26611 56.42383,53.25586 5.88435,32.98363 -4.54203,59.3988 -29.5332,74.82422 l -7.52539,4.64453 8.22266,3.47071 c 21.72006,9.16353 36.81574,27.11436 42.4707,50.50586 2.51071,10.38546 2.15445,35.00534 -0.65625,45.31445 -5.79952,21.2715 -21.14045,39.31973 -42.21289,49.66211 -13.65,6.69944 -27.32111,10.58413 -43.97071,12.49219 -6.07975,0.69675 -44.70081,1.27134 -85.82422,1.27734 l -74.769528,0.01 V 328.125 Z m 305.552738,15.70703 h 60.85156 60.85157 v 16.83204 16.83203 h -60.85157 -60.85156 v -16.83203 z m -239.52344,36.25196 v 34.3789 34.37891 l 39.8125,-0.39258 c 38.79179,-0.38268 39.98814,-0.4709 46.66602,-3.48828 13.31206,-6.01503 19.4142,-17.73314 18.05468,-34.66992 -1.33141,-16.58663 -11.68061,-26.11184 -31.38086,-28.88086 -4.98465,-0.70064 -23.48311,-1.28668 -41.10742,-1.30078 z m 300.85352,19.93945 c 11.34239,-0.11939 22.59627,0.69879 29.08008,2.50391 23.92435,6.66065 43.72288,21.04855 56.8164,41.28906 12.91962,19.9717 18.39291,38.58533 19.42579,66.06445 l 0.71679,19.09571 h -77.9375 -77.9375 l 0.81445,6.15039 c 3.95881,29.90027 17.78312,43.84522 46.07422,46.47461 18.69998,1.73797 38.97055,-6.71083 47.69141,-19.87696 2.18664,-3.3012 3.97656,-6.48421 3.97656,-7.07421 0,-0.59001 12.00653,-1.07422 26.68164,-1.07422 h 26.68165 l -0.83985,3.56054 c -1.59541,6.76235 -13.6356,29.47725 -19.15234,36.13086 -12.22366,14.74268 -29.72273,25.25856 -50.20313,30.16993 -12.56716,3.0137 -35.44433,4.29163 -48.06836,2.68554 -25.09541,-3.19277 -46.54537,-13.16346 -62.14844,-28.88867 -14.28327,-14.39511 -24.77778,-34.91527 -28.85547,-56.42383 -2.35517,-12.42286 -2.71736,-38.67502 -0.6914,-50.11328 7.64965,-43.18873 36.74812,-75.73967 78.26562,-87.55274 6.83695,-1.94532 18.26699,-3.0017 29.60938,-3.12109 z m 0.0742,44.79688 c -25.18122,0 -43.36375,14.03716 -48.29688,37.28711 -0.80066,3.77354 -1.45508,7.12432 -1.45508,7.44531 0,0.321 21.3412,0.58203 47.42579,0.58203 h 47.42773 l -0.69726,-4.20703 c -2.08615,-12.58478 -11.18117,-28.93395 -18.93555,-34.04102 -5.50618,-3.62638 -17.90458,-7.0664 -25.46875,-7.0664 z m -300.92774,49.19922 v 40.90429 40.9043 l 41.75586,-0.54102 c 38.9508,-0.50587 42.34849,-0.73844 50.61719,-3.44921 6.50597,-2.13289 10.32878,-4.3698 14.37109,-8.41211 8.11735,-8.11737 10.20731,-14.73383 9.53321,-30.18164 -0.61905,-14.18598 -2.82659,-19.99969 -10.32032,-27.18165 -10.47515,-10.03936 -22.31195,-12.0188 -71.9707,-12.0332 z"
       transform="matrix(0.26458333,0,0,0.26458333,18.16877,61.673958)" /><path
       id="path4"
       style="fill:none;stroke:#beb41e;stroke-width:9.44882;stroke-linecap:round;stroke-linejoin:round;stroke-dasharray:none;stroke-opacity:1;paint-order:markers fill stroke"
       d="M 336.15039,0.72656251 C 305.37279,-0.04534248 274.31828,3.5517355 243.79297,11.677735 130.8218,41.751268 41.751268,130.8218 11.677735,243.79297 -15.149219,344.56838 7.8742113,452.84474 73.400392,534.07032 c 13.401519,16.61238 40.240648,42.69975 56.369138,54.78906 52.19931,39.12659 113.40323,62.05033 176.5918,66.14063 79.10707,5.1207 155.74832,-17.92876 220.54688,-66.32813 16.02028,-11.96588 49.93704,-45.93062 62.03516,-62.12305 43.76482,-58.57592 66.14984,-124.87411 66.36133,-196.53711 0.0865,-29.29697 -1.64123,-46.39936 -7.37696,-73.00976 C 637.73196,209.69943 613.6421,160.02673 581.99219,121.04492 569.30759,105.42183 542.16425,79.189632 526.65235,67.562501 470.22907,25.269773 403.86111,2.4247535 336.15039,0.72656251 Z M 91.925782,178.5 l 82.537108,0.51172 c 78.57903,0.4882 83.12808,0.64659 94.83789,3.28125 32.3797,7.28528 51.43042,25.26611 56.42383,53.25586 5.88435,32.98363 -4.54203,59.3988 -29.5332,74.82422 l -7.52539,4.64453 8.22266,3.47071 c 21.72006,9.16353 36.81574,27.11436 42.4707,50.50586 2.51071,10.38546 2.15445,35.00534 -0.65625,45.31445 -5.79952,21.2715 -21.14045,39.31973 -42.21289,49.66211 -13.65,6.69944 -27.32111,10.58413 -43.97071,12.49219 -6.07975,0.69675 -44.70081,1.27134 -85.82422,1.27734 l -74.769528,0.01 V 328.125 Z m 305.552738,15.70703 h 60.85156 60.85157 v 16.83204 16.83203 h -60.85157 -60.85156 v -16.83203 z m -239.52344,36.25196 v 34.3789 34.37891 l 39.8125,-0.39258 c 38.79179,-0.38268 39.98814,-0.4709 46.66602,-3.48828 13.31206,-6.01503 19.4142,-17.73314 18.05468,-34.66992 -1.33141,-16.58663 -11.68061,-26.11184 -31.38086,-28.88086 -4.98465,-0.70064 -23.48311,-1.28668 -41.10742,-1.30078 z m 300.85352,19.93945 c 11.34239,-0.11939 22.59627,0.69879 29.08008,2.50391 23.92435,6.66065 43.72288,21.04855 56.8164,41.28906 12.91962,19.9717 18.39291,38.58533 19.42579,66.06445 l 0.71679,19.09571 h -77.9375 -77.9375 l 0.81445,6.15039 c 3.95881,29.90027 17.78312,43.84522 46.07422,46.47461 18.69998,1.73797 38.97055,-6.71083 47.69141,-19.87696 2.18664,-3.3012 3.97656,-6.48421 3.97656,-7.07421 0,-0.59001 12.00653,-1.07422 26.68164,-1.07422 h 26.68165 l -0.83985,3.56054 c -1.59541,6.76235 -13.6356,29.47725 -19.15234,36.13086 -12.22366,14.74268 -29.72273,25.25856 -50.20313,30.16993 -12.56716,3.0137 -35.44433,4.29163 -48.06836,2.68554 -25.09541,-3.19277 -46.54537,-13.16346 -62.14844,-28.88867 -14.28327,-14.39511 -24.77778,-34.91527 -28.85547,-56.42383 -2.35517,-12.42286 -2.71736,-38.67502 -0.6914,-50.11328 7.64965,-43.18873 36.74812,-75.73967 78.26562,-87.55274 6.83695,-1.94532 18.26699,-3.0017 29.60938,-3.12109 z m 0.0742,44.79688 c -25.18122,0 -43.36375,14.03716 -48.29688,37.28711 -0.80066,3.77354 -1.45508,7.12432 -1.45508,7.44531 0,0.321 21.3412,0.58203 47.42579,0.58203 h 47.42773 l -0.69726,-4.20703 c -2.08615,-12.58478 -11.18117,-28.93395 -18.93555,-34.04102 -5.50618,-3.62638 -17.90458,-7.0664 -25.46875,-7.0664 z m -300.92774,49.19922 v 40.90429 40.9043 l 41.75586,-0.54102 c 38.9508,-0.50587 42.34849,-0.73844 50.61719,-3.44921 6.50597,-2.13289 10.32878,-4.3698 14.37109,-8.41211 8.11735,-8.11737 10.20731,-14.73383 9.53321,-30.18164 -0.61905,-14.18598 -2.82659,-19.99969 -10.32032,-27.18165 -10.47515,-10.03936 -22.31195,-12.0188 -71.9707,-12.0332 z"
       transform="matrix(0.26458333,0,0,0.26458333,18.16877,61.673958)" /></g></svg>
