<?xml version="1.0" encoding="UTF-8" standalone="no"?>
<!-- Created with Inkscape (http://www.inkscape.org/) -->

<svg
   width="111.78161mm"
   height="95.461494mm"
   viewBox="0 0 111.78161 95.461494"
   version="1.1"
   id="svg1"
   xml:space="preserve"
   xmlns="http://www.w3.org/2000/svg"
   xmlns:svg="http://www.w3.org/2000/svg"><defs
     id="defs1"><filter
       style="color-interpolation-filters:sRGB"
       id="filter45"
       x="-0.0737284"
       y="-0.090617763"
       width="1.1477099"
       height="1.1812359"><feGaussianBlur
         stdDeviation="9.3658036"
         id="feGaussianBlur45" /></filter><filter
       style="color-interpolation-filters:sRGB"
       id="filter46"
       x="-0.13901879"
       y="-0.17086436"
       width="1.2782907"
       height="1.3417291"><feGaussianBlur
         stdDeviation="18.356975"
         id="feGaussianBlur46" /></filter></defs><g
     id="layer2"
     transform="translate(-90.987431,-132.8784)"><path
       id="path34"
       style="mix-blend-mode:normal;fill:none;stroke:#beb41e;stroke-width:3.77953;stroke-linejoin:round;stroke-dasharray:none;stroke-opacity:1;paint-order:stroke markers fill;filter:url(#filter46)"
       d="m 668.81837,548.16407 c -0.0639,-2.1e-4 -0.11404,0.0237 -0.14649,0.0703 -0.16967,0.24384 -2.00421,1.80631 -4.07812,3.47266 -2.0739,1.66635 -3.87624,3.15051 -4.00586,3.29883 -0.18425,0.21083 -4.67987,3.87507 -8.25,6.72461 -0.25924,0.20692 -1.31852,1.11083 -2.35547,2.00976 -1.03696,0.89894 -2.02817,1.63457 -2.20117,1.63477 -0.17302,2.1e-4 -1.92806,-0.95307 -3.90039,-2.11914 -1.97232,-1.16607 -4.9059,-2.66011 -6.51953,-3.32032 -1.61363,-0.6602 -3.35848,-1.3983 -3.87696,-1.63867 -3.31457,-1.53666 -11.19428,-2.34553 -13.66992,-1.40429 l -1.24023,0.4707 0.94726,1.29687 c 0.5211,0.71267 1.43701,1.86245 2.03516,2.55664 0.59814,0.69419 1.72424,2.05561 2.50195,3.02344 0.77772,0.96782 2.15517,2.64474 3.0625,3.72852 0.90734,1.08377 2.39345,2.88555 3.30078,4.0039 0.90734,1.11835 2.11243,2.54751 2.67969,3.17578 0.9159,1.01442 1.04116,2.48243 0.21094,2.48243 -0.16934,0 -0.83697,0.48085 -1.48242,1.06836 -4.00304,3.64369 -6.58506,5.30099 -6.59766,4.23437 -0.002,-0.19443 -1.01116,-1.54229 -2.24023,-2.99414 -1.22908,-1.45185 -2.97548,-3.5509 -3.88282,-4.66602 -0.90733,-1.11511 -2.24732,-2.68515 -2.97656,-3.48828 -0.72925,-0.80313 -1.6751,-2.04295 -2.10352,-2.75586 -0.4284,-0.71291 -0.91784,-1.29687 -1.08593,-1.29687 -0.16808,0 -0.89671,-0.85206 -1.61914,-1.89453 l -1.3125,-1.89649 -0.99024,2.01368 c -0.87247,1.77515 -0.99023,2.85474 -0.99023,9.1289 0,4.61293 0.1897,7.34847 0.53711,7.77735 0.29473,0.36386 0.68775,1.58017 0.87304,2.70312 0.1853,1.12295 0.63129,2.60711 0.99219,3.29883 0.36089,0.69172 0.65816,1.54485 0.66016,1.89453 0.002,0.34968 0.34869,1.36294 0.77148,2.25391 0.4228,0.89098 0.68659,1.67814 0.58789,1.74804 -0.30804,0.21805 -9.07137,7.44129 -10.3125,8.5 -0.64809,0.55284 -2.87531,2.38226 -4.94922,4.06641 -2.0739,1.68414 -3.98294,3.28688 -4.24218,3.56055 -0.25924,0.27368 -2.06158,1.75842 -4.00586,3.29882 -1.94429,1.54041 -3.64187,2.93082 -3.77149,3.0918 -0.12962,0.161 -1.59983,1.3845 -3.26758,2.71875 -3.06967,2.45583 -5.50821,4.47524 -9.36132,7.75 -1.16701,0.99184 -3.62975,2.9961 -5.47071,4.45313 -3.28233,2.59782 -4.03237,3.33099 -4.04687,3.95312 -0.007,0.30097 3.79897,5.14999 5.08008,6.47266 0.3491,0.36042 0.97981,1.18132 1.40234,1.82617 0.74234,1.13296 0.72119,1.21585 -0.66797,2.41016 -2.52881,2.17409 -4.16111,3.52604 -7.74219,6.41992 -1.92478,1.55543 -3.71146,3.05249 -3.9707,3.32617 -0.25923,0.27367 -2.0506,1.75784 -3.98047,3.29883 -1.92987,1.541 -4.03263,3.28257 -4.67383,3.87109 l -1.16601,1.07031 1.18554,1.28711 c 0.65204,0.70768 4.6449,5.20996 8.87305,10.00586 4.22817,4.79592 8.03918,9.09933 8.46875,9.5625 0.74769,0.80616 0.83213,0.79544 1.97852,-0.23632 1.25161,-1.12646 3.27161,-2.8158 8.40429,-7.0293 1.68505,-1.38329 3.16921,-2.63165 3.29883,-2.77539 0.12962,-0.14376 1.93195,-1.62894 4.00586,-3.29883 2.07391,-1.6699 4.05349,-3.30644 4.39844,-3.63867 0.69411,-0.66852 1.41019,-0.39009 2.35351,0.91797 0.34322,0.47592 1.40445,1.78122 2.35743,2.90039 0.95297,1.11917 2.45899,2.91617 3.34765,3.99414 1.76106,2.13623 2.01772,2.25561 2.94727,1.36328 0.34257,-0.32884 2.31867,-1.9721 4.39258,-3.65234 2.0739,-1.68026 3.87624,-3.16892 4.00586,-3.30665 0.12962,-0.13773 1.9339,-1.62189 4.00781,-3.29882 2.07391,-1.67694 3.87624,-3.1814 4.00586,-3.3418 0.12962,-0.16041 1.59984,-1.38256 3.26758,-2.7168 1.66774,-1.33425 3.97957,-3.21744 5.13672,-4.18554 1.15714,-0.96812 2.99918,-2.50282 4.09375,-3.41016 1.09457,-0.90733 2.49118,-2.07333 3.10351,-2.5918 3.94041,-3.33643 4.89222,-3.56339 7.28516,-1.73828 1.48953,1.13607 3.06295,2.17316 12.95508,8.54883 2.19292,1.41338 4.05813,2.74041 4.14453,2.94727 0.0864,0.20685 0.35642,0.375 0.59961,0.375 0.38947,0 3.61264,1.95146 4.89843,2.96484 0.43497,0.34281 11.22662,7.41565 21.91797,14.36523 2.46277,1.60085 4.79669,3.13595 5.18555,3.41211 0.38886,0.27616 2.90695,1.93676 5.59766,3.68946 l 4.89257,3.18554 1.23633,-1.04492 c 0.67939,-0.57438 2.24464,-1.89891 3.47852,-2.94531 1.23388,-1.04639 2.61133,-2.12074 3.0625,-2.38672 0.50717,-0.29899 0.64103,-0.62181 0.34961,-0.8457 -0.25924,-0.19918 -1.84261,-2.05891 -3.51953,-4.13282 -1.67694,-2.0739 -3.16306,-3.87624 -3.30078,-4.00586 -0.21475,-0.2021 -5.44266,-6.60795 -6.8418,-8.38281 -0.26254,-0.33305 -0.73807,-0.89802 -1.05664,-1.2539 -0.31858,-0.35587 -1.64743,-1.97659 -2.95313,-3.60352 -1.30569,-1.62692 -3.16665,-3.90535 -4.13476,-5.0625 -3.89862,-4.65988 -5.13076,-6.14736 -6.70899,-8.09375 -0.90733,-1.11899 -2.46129,-2.98631 -3.45312,-4.15039 -0.99184,-1.16407 -2.9961,-3.62193 -4.45313,-5.46289 -1.45704,-1.84095 -2.77664,-3.45437 -2.93359,-3.58399 -0.15694,-0.12962 -1.49547,-1.74261 -2.97266,-3.58593 -2.42169,-3.02192 -3.31163,-4.89844 -2.32422,-4.89844 0.19888,0 1.45354,-0.95453 2.78711,-2.12109 1.33357,-1.16657 2.68466,-2.1211 3.00196,-2.1211 0.31731,0 1.02406,0.49184 1.57226,1.0918 1.92787,2.10987 5.24426,6.10153 5.64649,6.79687 0.22368,0.38668 0.75332,1.06727 1.17773,1.51368 0.94348,0.99236 4.44893,5.16956 4.78906,5.70703 0.32792,0.51817 3.34032,4.18078 4.23242,5.14648 0.38885,0.42094 2.07893,2.4526 3.75586,4.51367 1.67693,2.06108 3.1611,3.85281 3.29883,3.98243 0.22641,0.21306 5.68802,6.90741 6.84375,8.38867 0.26254,0.33649 0.80296,0.97284 1.20117,1.41406 0.3982,0.44122 1.98907,2.38561 3.53516,4.32031 1.54608,1.9347 3.12872,3.86367 3.51758,4.28516 0.38886,0.42148 1.66156,1.95516 2.82812,3.41015 1.16658,1.45499 2.26997,2.65733 2.45313,2.66993 1.01048,0.0694 4.0859,-3.81183 5.02539,-6.3418 0.5776,-1.55544 1.3725,-3.45451 1.76758,-4.2207 1.11428,-2.1609 1.35119,-5.51184 0.51953,-7.3711 -0.92253,-2.06241 -3.16797,-9.23367 -3.16797,-10.11914 0,-0.37285 -0.17506,-0.67773 -0.39062,-0.67773 -0.21556,0 -0.62667,-0.9002 -0.91211,-2.00196 -1.1347,-4.3799 -2.21338,-7.66718 -2.56641,-7.8164 -0.20444,-0.0864 -0.37014,-0.40459 -0.36914,-0.70703 0.003,-0.67623 -2.29119,-8.29329 -2.79102,-9.26953 -0.19909,-0.38886 -0.94018,-2.61609 -1.64843,-4.94922 -0.70824,-2.33315 -1.45859,-4.56749 -1.66602,-4.96485 -0.20742,-0.39737 -0.53404,-1.45859 -0.72656,-2.35742 -0.19251,-0.89882 -0.5223,-1.84864 -0.73242,-2.11133 -0.21012,-0.26268 -0.63924,-1.53537 -0.95508,-2.82812 -0.31584,-1.29274 -0.73194,-2.56304 -0.92383,-2.82227 -0.19189,-0.25924 -0.50387,-1.21375 -0.69336,-2.12109 -0.18949,-0.90733 -0.51644,-1.86427 -0.72656,-2.12695 -0.21012,-0.26268 -0.64119,-1.53539 -0.95703,-2.82813 -0.31584,-1.29275 -0.79836,-2.63736 -1.07422,-2.98828 -0.38657,-0.49175 0.11803,-1.19649 2.20312,-3.07617 2.63738,-2.37758 2.68355,-2.46297 1.85742,-3.36914 -0.46608,-0.51124 -2.21765,-2.62727 -3.89257,-4.70118 -1.67493,-2.0739 -3.26231,-4.0155 -3.52735,-4.3164 -0.26504,-0.30091 -1.22353,-1.446 -2.13086,-2.54492 -0.90734,-1.09893 -2.33536,-2.76201 -3.17187,-3.69532 -0.83651,-0.93331 -1.52525,-1.82585 -1.53125,-1.98242 -0.006,-0.15658 -0.48703,-0.8145 -1.07031,-1.46289 -1.11062,-1.23457 -2.81768,-3.27537 -7.01368,-8.38672 -1.38329,-1.68505 -2.62536,-3.16921 -2.75976,-3.29883 -0.21517,-0.20752 -5.76606,-7.01389 -6.72656,-8.24804 -1.33906,-1.72054 -2.51395,-2.83448 -2.96094,-2.83594 z m -222.50586,4.41602 -5.16016,4.31445 c -2.83834,2.37297 -5.45549,4.59968 -5.81641,4.94922 -0.55662,0.53907 0.15828,1.56795 4.71289,6.77539 2.95331,3.37661 5.54148,6.14991 5.75,6.16211 0.34336,0.02 3.02383,-2.16942 9.43946,-7.70899 l 2.27734,-1.96875 -3.91406,-4.45898 c -2.15295,-2.45298 -4.67372,-5.27038 -5.60156,-6.26172 z m 12.52539,14.20898 c -0.27862,0 -8.66253,6.89611 -11.41016,9.38477 -0.1916,0.17354 0.23133,0.95818 0.94141,1.74414 3.95436,4.37698 10.4061,11.82492 11.42578,13.1914 0.64809,0.86852 1.44544,1.5848 1.77148,1.5918 0.45061,0.009 8.27454,-6.35543 11.62305,-9.45508 0.25314,-0.23433 -0.43146,-1.34492 -1.65039,-2.67969 -1.14515,-1.25399 -3.45947,-3.83539 -5.14453,-5.73632 -6.08323,-6.86262 -7.19102,-8.04102 -7.55664,-8.04102 z m 15.26562,17.05078 -2.79492,2.39258 c -1.53667,1.31602 -4.11999,3.43712 -5.74023,4.71484 -1.62024,1.27773 -2.94532,2.46542 -2.94532,2.63867 0,0.17326 1.00691,1.40421 2.23828,2.73633 1.23138,1.33212 2.95454,3.23976 3.82813,4.23828 0.87359,0.99853 2.35775,2.67225 3.29883,3.71875 0.94108,1.0465 3.09034,3.46948 4.77539,5.38477 1.68505,1.9153 3.56134,4.02777 4.16992,4.69531 0.60857,0.66754 2.12548,2.38083 3.37109,3.80664 1.24561,1.42581 2.76253,3.14169 3.3711,3.8125 0.60858,0.67081 2.38012,2.67572 3.93554,4.45508 1.55544,1.77937 3.1463,3.56857 3.53516,3.97656 0.38885,0.40799 2.08448,2.31469 3.76953,4.23633 1.68505,1.92164 3.38263,3.84209 3.77149,4.26758 0.58167,0.63647 4.25128,4.75872 7.54101,8.4707 0.38885,0.43877 1.87302,2.13454 3.29883,3.76954 1.42582,1.63498 2.9217,3.31308 3.32227,3.72851 0.40056,0.41543 3.15591,3.51272 6.125,6.88281 2.96908,3.3701 5.62676,6.33842 5.90625,6.59766 0.27948,0.25923 2.5082,2.79534 4.95117,5.63477 2.44297,2.83941 4.75958,5.50227 5.14844,5.91796 0.38885,0.41569 2.08643,2.31867 3.77148,4.22852 1.68505,1.90985 4.04377,4.54925 5.24219,5.86523 1.19843,1.316 2.78929,3.12576 3.53515,4.02149 0.74587,0.89574 1.99182,2.28624 2.76954,3.08984 0.7777,0.80359 2.04923,2.19093 2.82617,3.08399 3.9942,4.59112 12.2217,13.90953 12.46289,14.11523 0.30845,0.26307 9.92084,11.11257 12.08008,13.63477 0.76062,0.88848 1.70098,1.95488 2.08984,2.36914 0.38886,0.41426 2.08643,2.32445 3.77148,4.24609 1.68505,1.92164 3.38068,3.83239 3.76954,4.2461 0.38886,0.41372 2.08643,2.31663 3.77148,4.22851 1.68505,1.91188 4.04377,4.55514 5.24219,5.875 1.19843,1.31985 2.78928,3.13666 3.53515,4.03711 0.74586,0.90046 1.67561,1.9724 2.06446,2.38086 1.07812,1.13246 7.19399,7.9986 9.00195,10.10547 0.88121,1.02691 1.91973,2.21067 2.30859,2.63086 0.38886,0.42018 2.08644,2.31463 3.77149,4.21094 1.68505,1.89629 4.04376,4.53061 5.24219,5.85351 1.19842,1.3229 2.78929,3.14251 3.53515,4.04297 0.74586,0.90045 1.6756,1.96831 2.06446,2.375 0.38886,0.40669 2.06175,2.2606 3.71875,4.11914 l 3.01367,3.37891 1.29101,-1.04102 c 0.7101,-0.5733 3.31513,-2.73086 5.78907,-4.79297 l 4.49804,-3.74804 -1.43554,-1.67188 c -0.78906,-0.91914 -2.31773,-2.62639 -3.39844,-3.79297 -1.08071,-1.16657 -5.02546,-5.61905 -8.76563,-9.89648 -3.74016,-4.27743 -6.92742,-7.88405 -7.08203,-8.01367 -0.15462,-0.12962 -2.69242,-2.99319 -5.64062,-6.36329 -2.9482,-3.37009 -5.6939,-6.46782 -6.09961,-6.88281 -0.80153,-0.81987 -0.99986,-1.04337 -8.94922,-10.08594 -2.96267,-3.37009 -5.51013,-6.23366 -5.66211,-6.36328 -0.30845,-0.26307 -9.92084,-11.11257 -12.08008,-13.63476 -0.76062,-0.88848 -1.70098,-1.95528 -2.08984,-2.3711 -0.38885,-0.41581 -3.14767,-3.49962 -6.12891,-6.85351 -2.98125,-3.3539 -5.73809,-6.4377 -6.12695,-6.85352 -0.38886,-0.41581 -1.32434,-1.48458 -2.08008,-2.37304 -0.75573,-0.88848 -2.24184,-2.57774 -3.30078,-3.75586 -1.05893,-1.17812 -2.55474,-2.87571 -3.32617,-3.77149 -0.77143,-0.89578 -4.1377,-4.70393 -7.48047,-8.46289 -3.34277,-3.75896 -7.3797,-8.30924 -8.96875,-10.11133 -1.58904,-1.80209 -4.90248,-5.52292 -7.36524,-8.26758 -4.06851,-4.53419 -9.26746,-10.37917 -11.24609,-12.64648 -1.55511,-1.78201 -5.98309,-6.80129 -6.90039,-7.82031 -4.20802,-4.6746 -7.89485,-8.82851 -9.23828,-10.41016 -0.88078,-1.03695 -1.72209,-1.99147 -1.86914,-2.12109 -0.36902,-0.32527 -8.12219,-9.047 -11.28321,-12.69336 -1.42582,-1.64473 -2.81307,-3.22528 -3.08398,-3.51367 -0.27091,-0.28841 -2.47162,-2.75262 -4.89063,-5.47461 -2.41899,-2.72201 -5.06912,-5.69033 -5.88867,-6.59766 -0.81956,-0.90734 -3.91288,-4.40725 -6.875,-7.77734 -2.96212,-3.3701 -5.53466,-6.23565 -5.7168,-6.36719 -0.18215,-0.13154 -0.94785,-1.01496 -1.70117,-1.96289 z m -0.4082,4.71875 c 0.40794,0.0355 0.85303,0.33999 1.29492,0.89453 0.49925,0.62652 2.21537,2.60347 3.81445,4.39258 6.12064,6.84792 11.39135,12.78745 14.69141,16.55664 1.55543,1.77656 3.99411,4.5233 5.41992,6.10352 1.42581,1.58022 3.9712,4.44302 5.65625,6.36328 1.68505,1.92026 3.38264,3.83626 3.77149,4.25586 0.38886,0.4196 2.08448,2.33422 3.76953,4.25586 1.68505,1.92164 3.38262,3.83293 3.77148,4.24609 0.38886,0.41315 1.97973,2.20982 3.53516,3.99414 1.55543,1.78432 3.1463,3.58247 3.53515,3.99414 0.38886,0.41166 2.08449,2.32225 3.76954,4.2461 1.68504,1.92385 3.38262,3.84692 3.77148,4.27343 0.38885,0.42651 1.34645,1.4951 2.12695,2.375 0.78052,0.8799 3.02353,3.40194 4.98633,5.60547 1.96281,2.20352 4.18892,4.72818 4.94531,5.60938 0.75641,0.8812 1.70296,1.94048 2.10352,2.35547 0.40057,0.41499 3.15458,3.5127 6.12109,6.88281 2.96651,3.3701 5.50497,6.23366 5.64063,6.36328 0.41945,0.40078 11.00779,12.34383 12.25586,13.82422 0.6481,0.76873 1.49591,1.74462 1.88476,2.16797 0.38886,0.42336 3.14572,3.51329 6.12696,6.86719 2.98123,3.35389 5.73809,6.43964 6.12695,6.85546 0.38885,0.41581 1.3263,1.48263 2.08203,2.3711 0.75574,0.88848 2.2399,2.58101 3.29883,3.76172 1.05894,1.18071 3.30519,3.70478 4.99023,5.60937 1.68505,1.90459 3.92987,4.43872 4.99024,5.63086 5.38821,6.05773 7.26427,8.17568 9.85547,11.12695 1.55543,1.77158 3.14629,3.56844 3.53515,3.99219 1.18576,1.29214 4.31742,4.81027 7.54297,8.47657 1.68505,1.91528 3.56136,4.02777 4.16992,4.69531 0.60858,0.66753 2.12549,2.38083 3.3711,3.80664 1.24561,1.42582 2.76251,3.14169 3.37109,3.8125 0.60858,0.67081 2.38012,2.67572 3.93555,4.45508 1.55543,1.77935 3.14434,3.56857 3.5332,3.97656 0.38886,0.40799 2.08644,2.30981 3.77149,4.22656 1.68506,1.91675 3.54959,4.01928 4.14258,4.67188 0.59297,0.65261 1.0159,1.5009 0.9414,1.88476 -0.0745,0.38386 -0.36167,0.77304 -0.63867,0.86524 -0.55223,0.18383 -1.20684,-0.50062 -9.12305,-9.51368 -2.9619,-3.37229 -5.51013,-6.23561 -5.66211,-6.36523 -0.35078,-0.29917 -10.71149,-11.95959 -12.28515,-13.82617 -0.6481,-0.76874 -1.49591,-1.74992 -1.88477,-2.17969 -0.38886,-0.42977 -1.55484,-1.73243 -2.5918,-2.89648 -3.7423,-4.20104 -8.17532,-9.16803 -9.26171,-10.37891 -3.26975,-3.64438 -7.02988,-7.91989 -8.23047,-9.35742 -0.7489,-0.8967 -1.99768,-2.29839 -2.77539,-3.11328 -0.77771,-0.8149 -2.68676,-2.93409 -4.24219,-4.71094 -1.55543,-1.77685 -3.88936,-4.42319 -5.18555,-5.88086 -1.2962,-1.45767 -3.62816,-4.09496 -5.18359,-5.85938 -1.55544,-1.76441 -3.15555,-3.54845 -3.55469,-3.96484 -0.96837,-1.01021 -7.47998,-8.35157 -9.21094,-10.38476 -0.75641,-0.88848 -1.69317,-1.96254 -2.08203,-2.38477 -0.38886,-0.42223 -1.55679,-1.71876 -2.59375,-2.88281 -1.03695,-1.16407 -3.36892,-3.78061 -5.18359,-5.81446 -1.81467,-2.03385 -3.617,-4.06298 -4.00586,-4.50781 -4.57133,-5.22929 -5.72345,-6.53661 -6.67188,-7.58203 -0.60857,-0.67081 -2.37815,-2.68016 -3.93359,-4.46484 -1.55543,-1.78471 -3.99607,-4.54146 -5.42188,-6.12696 -1.4258,-1.58549 -3.75778,-4.21288 -5.18359,-5.83789 -1.42581,-1.62502 -2.81347,-3.19768 -3.08398,-3.49414 -1.33847,-1.46692 -8.21419,-9.22256 -9.43165,-10.63867 -0.76384,-0.88848 -1.70684,-1.95528 -2.0957,-2.37109 -1.31017,-1.40102 -11.53733,-12.90582 -12.72656,-14.31641 -0.6481,-0.76873 -1.49786,-1.74267 -1.88672,-2.16602 -0.38886,-0.42336 -3.14572,-3.51524 -6.12695,-6.86914 -2.98124,-3.35389 -5.7381,-6.4377 -6.12696,-6.85351 -0.38885,-0.41582 -1.3263,-1.48262 -2.08203,-2.3711 -0.75574,-0.88847 -2.2399,-2.58101 -3.29883,-3.76172 -1.05893,-1.18071 -3.23717,-3.62133 -4.83984,-5.42187 -1.60267,-1.80053 -3.87821,-4.33271 -5.05664,-5.62891 -2.30373,-2.53393 -2.61098,-3.39394 -1.38281,-3.86523 0.12664,-0.0486 0.25855,-0.0665 0.39453,-0.0547 z m -5.60352,4.41016 c 0.96675,0.0931 3.15549,2.37377 8.67188,8.67969 1.68505,1.92621 3.38067,3.84603 3.76953,4.26562 0.38886,0.4196 2.08644,2.33422 3.77148,4.25586 1.68505,1.92165 3.38264,3.8338 3.77149,4.24805 0.38886,0.41426 1.33657,1.48066 2.10742,2.36914 0.77085,0.88847 3.00958,3.41757 4.97461,5.62109 1.96503,2.20353 4.19709,4.71888 4.96094,5.58984 1.83843,2.09626 2.67239,3.03201 6.53515,7.3418 1.79293,2.00042 3.65443,4.13883 4.13672,4.75195 0.4823,0.61314 1.56085,1.83264 2.39649,2.71094 0.83563,0.8783 2.15469,2.32423 2.93164,3.21094 6.60207,7.53488 12.23428,13.90658 12.46289,14.10156 0.35079,0.29917 10.70953,11.95959 12.2832,13.82617 0.64809,0.76873 1.49786,1.74267 1.88672,2.16602 0.38886,0.42336 3.14571,3.51524 6.12695,6.86914 2.98124,3.3539 5.7381,6.44379 6.12696,6.86719 1.54458,1.68177 6.54647,7.37324 7.83007,8.91016 0.7489,0.8967 1.99769,2.29643 2.7754,3.11132 0.77771,0.8149 2.68675,2.93605 4.24218,4.71289 1.55543,1.77685 3.88936,4.42319 5.18555,5.88086 1.29619,1.45767 3.62817,4.09952 5.18359,5.8711 1.55543,1.77158 3.1463,3.56845 3.53516,3.99218 1.18576,1.29214 4.31546,4.81027 7.54102,8.47657 1.68504,1.9153 3.56329,4.02778 4.17187,4.69531 0.60858,0.66753 2.12549,2.38083 3.37109,3.80664 1.24562,1.42581 2.76252,3.14469 3.3711,3.81836 0.60857,0.67367 2.48487,2.77781 4.16992,4.67578 1.68505,1.89797 3.27762,3.67901 3.53906,3.95899 0.26144,0.27998 1.85231,2.10063 3.53516,4.04492 1.68284,1.94429 3.17956,3.63991 3.32617,3.76953 0.26145,0.23115 6.69851,7.45673 10.73438,12.04883 1.12509,1.28017 3.274,3.70557 4.77539,5.39062 8.80274,9.87962 9.36849,10.59484 8.875,11.18946 -0.2716,0.32726 -0.66427,0.5957 -0.87305,0.5957 -0.20879,0 -2.6708,-2.59972 -5.4707,-5.77539 -2.79991,-3.17567 -5.21646,-5.88015 -5.3711,-6.00977 -0.15465,-0.12962 -2.03716,-2.25012 -4.18359,-4.71289 -4.49176,-5.15374 -9.36129,-10.62958 -10.43359,-11.73242 -0.40571,-0.41725 -3.14945,-3.51467 -6.09766,-6.88477 -2.9482,-3.37009 -5.48203,-6.23366 -5.63086,-6.36328 -0.31143,-0.27124 -10.00448,-11.21711 -12.07422,-13.63476 -0.76062,-0.88847 -1.70098,-1.95528 -2.08984,-2.3711 -0.38885,-0.41582 -3.14767,-3.50157 -6.12891,-6.85547 -2.98125,-3.35389 -5.73809,-6.44378 -6.12695,-6.86718 -1.54458,-1.68177 -6.54647,-7.37324 -7.83008,-8.91016 -0.7489,-0.8967 -1.99768,-2.29839 -2.77539,-3.11328 -0.77772,-0.8149 -2.68676,-2.9341 -4.24219,-4.71094 -1.55543,-1.77685 -3.8874,-4.42319 -5.18359,-5.88086 -1.29619,-1.45767 -3.63012,-4.09496 -5.18555,-5.85937 -1.55543,-1.76442 -3.15875,-3.54846 -3.56445,-3.96485 -0.40571,-0.41639 -3.1541,-3.51466 -6.10743,-6.88476 -2.95331,-3.3701 -5.59101,-6.35739 -5.86132,-6.63867 -0.27031,-0.28127 -1.58422,-1.76543 -2.91993,-3.29883 -1.3357,-1.53339 -2.92657,-3.32882 -3.53515,-3.99024 -1.11548,-1.21232 -6.19605,-6.91181 -7.78906,-8.73828 -0.47269,-0.54196 -2.02537,-2.32398 -3.45118,-3.95898 -1.4258,-1.63499 -2.91881,-3.31309 -3.3164,-3.72852 -0.39759,-0.41543 -2.30663,-2.5582 -4.24219,-4.76172 -1.93556,-2.20353 -4.39755,-4.96038 -5.4707,-6.12695 -1.07315,-1.16657 -2.55368,-2.8622 -3.29102,-3.76953 -0.73735,-0.90734 -1.46301,-1.7571 -1.61328,-1.88672 -0.31208,-0.2692 -7.10461,-7.90216 -9.19531,-10.33399 -0.76384,-0.88846 -1.70685,-1.95722 -2.09571,-2.37304 -1.31017,-1.40101 -11.53733,-12.90387 -12.72656,-14.31446 -0.64809,-0.76872 -1.4959,-1.73839 -1.88476,-2.15429 -3.48117,-3.72325 -7.09453,-8.22034 -6.95118,-8.65039 0.12905,-0.38714 0.31447,-0.59938 0.63672,-0.56836 z m 177.92969,15.29883 c 0.93705,0 4.66797,4.60201 4.66797,5.75781 0,0.39578 -0.74092,1.2251 -1.64648,1.8418 -0.90556,0.61669 -1.64839,1.28017 -1.65039,1.4746 -0.005,0.57862 -0.65993,0.35109 -1.44141,-0.5 -1.49011,-1.62282 -3.74609,-4.71777 -3.74609,-5.13867 0,-0.53255 3.22494,-3.43554 3.8164,-3.43554 z m -14.59961,12.26953 c 1.01764,-0.0184 4.6543,3.96635 4.6543,5.09961 0,0.49128 -0.77551,1.55647 -1.72461,2.36718 -0.9491,0.8107 -1.88466,1.47461 -2.08008,1.47461 -0.38807,0 -4.17722,-4.60345 -4.53515,-5.50976 -0.27486,-0.69597 2.64297,-3.41284 3.68554,-3.43164 z m -13.99804,11.77343 c 0.44377,-0.0966 0.74127,-0.01 0.74804,0.34961 0.004,0.19443 0.85343,1.2898 1.88672,2.43555 1.0333,1.14575 1.87891,2.34879 1.87891,2.67188 0,0.32308 -0.8265,1.24151 -1.83594,2.04101 -2.24651,1.77927 -2.55331,1.79082 -3.79102,0.15625 -0.53981,-0.7129 -1.40397,-1.79117 -1.91992,-2.39648 -0.51595,-0.60531 -0.9375,-1.48158 -0.9375,-1.94727 0,-1.09129 2.63937,-3.0208 3.97071,-3.31055 z m -14.72266,11.54297 2.31055,2.59375 c 1.27134,1.42581 2.31204,2.87015 2.3125,3.21094 4.6e-4,0.34079 -0.66648,1.19055 -1.48243,1.88672 -0.81594,0.69617 -1.74648,1.42206 -2.06835,1.61328 -0.75439,0.44817 -5.06123,-4.52293 -4.84961,-5.59765 0.084,-0.42665 0.9683,-1.43647 1.96484,-2.24219 z m -14.69922,12.20313 c 0.38334,-0.007 0.84455,0.4625 1.94141,1.65039 1.01477,1.099 2.19068,2.52495 2.61328,3.16992 0.73274,1.1183 0.71697,1.20919 -0.33399,1.94531 -0.60612,0.42455 -1.48566,1.15559 -1.95507,1.625 -1.27576,1.27576 -1.83979,1.02802 -4.03516,-1.76953 -2.30286,-2.93453 -2.42926,-3.58754 -0.89063,-4.5957 0.61172,-0.40082 1.48135,-1.1005 1.9336,-1.55273 0.2933,-0.29331 0.49655,-0.46841 0.72656,-0.47266 z m -14.28516,12.07226 c 0.46297,0 2.37732,2.02049 3.9336,4.1504 l 1.14062,1.55859 -1.87695,1.60547 c -1.0318,0.88284 -2.19318,1.6007 -2.58203,1.5957 -0.69997,-0.009 -4.71485,-4.69481 -4.71485,-5.50391 0,-0.4809 3.52094,-3.40625 4.09961,-3.40625 z m -39.87695,7.8379 -2.96875,2.31445 c -1.63233,1.27196 -3.18021,2.55113 -3.43945,2.84375 -0.25924,0.29262 -2.06157,1.78241 -4.00586,3.31055 -1.94429,1.52814 -3.63991,2.91079 -3.76953,3.07226 -0.12962,0.16147 -1.60179,1.3845 -3.26953,2.71875 -1.66775,1.33424 -3.97762,3.21939 -5.13477,4.1875 -4.75535,3.9785 -6.15473,5.13678 -8.10156,6.70899 -1.12354,0.90733 -2.38766,1.96661 -2.8086,2.35546 -0.42094,0.38886 -2.45063,2.07893 -4.51172,3.75586 -2.06107,1.67693 -3.85475,3.16932 -3.98437,3.31641 -0.19627,0.22271 -6.31138,5.1974 -8.38867,6.82422 -0.33649,0.26353 -0.97284,0.80823 -1.41407,1.20898 -0.44121,0.40075 -1.96872,1.67266 -3.39453,2.82618 -1.42581,1.15351 -2.83498,2.3099 -3.13281,2.57031 -0.29783,0.2604 -1.34054,1.109 -2.31641,1.88672 -0.97585,0.77771 -2.64172,2.20687 -3.70117,3.17578 -1.05946,0.96892 -2.05435,1.76458 -2.21093,1.76758 -0.15657,0.003 -0.81451,0.48311 -1.4629,1.0664 -1.23457,1.11061 -3.27537,2.81768 -8.38671,7.01367 -1.68505,1.38329 -3.16921,2.63165 -3.29883,2.77539 -0.12962,0.14375 -1.93195,1.62467 -4.00586,3.29102 -2.07391,1.66635 -3.87819,3.14652 -4.00781,3.28906 -0.12962,0.14254 -1.40037,1.20924 -2.82618,2.3711 -1.4258,1.16186 -3.23009,2.69729 -4.00781,3.41015 -0.77771,0.71285 -1.54068,1.29588 -1.69726,1.29688 -0.15657,0.001 -0.80751,0.47922 -1.44532,1.0625 -2.15859,1.97406 -6.15817,5.29998 -6.86523,5.70898 -0.38668,0.22369 -1.0665,0.75528 -1.50977,1.17969 -1.24963,1.19646 -3.23426,2.86733 -7.33593,6.17773 -2.07391,1.67382 -3.87624,3.16347 -4.00586,3.31055 -0.12962,0.14709 -1.93196,1.63947 -4.00586,3.31641 -2.0739,1.67693 -3.98295,3.27242 -4.24219,3.54492 -0.25924,0.2725 -1.53194,1.3269 -2.82813,2.3418 -1.29618,1.0149 -2.46413,1.97364 -2.59375,2.13086 -0.12962,0.15721 -1.50707,1.30608 -3.0625,2.55273 -2.62179,2.10131 -5.80496,4.72437 -8.67578,7.15234 l -1.1875,1.00391 2.81055,3.39063 c 4.94841,5.96989 8.37821,10.14141 11.9707,14.5625 1.92744,2.37199 3.62502,4.31154 3.77149,4.31054 0.14646,-0.001 0.90197,-0.58597 1.67968,-1.29883 0.77772,-0.71284 2.58006,-2.24785 4.00586,-3.4121 1.42582,-1.16426 2.82801,-2.32945 3.11524,-2.58985 0.28723,-0.26041 3.23461,-2.70183 6.55078,-5.42383 6.84263,-5.61664 12.63809,-10.43127 14.37305,-11.94336 0.64809,-0.56484 2.76861,-2.29877 4.71289,-3.85156 1.94429,-1.55278 3.74662,-3.04663 4.00586,-3.32031 0.25924,-0.27367 2.06352,-1.75842 4.00781,-3.29883 1.94429,-1.54041 3.63992,-2.93848 3.76953,-3.10742 0.12962,-0.16895 1.53418,-1.3363 3.11914,-2.59375 1.58495,-1.25745 4.23511,-3.42112 5.89063,-4.8086 3.7221,-3.11944 4.0165,-3.36094 8.66601,-7.13867 2.07391,-1.68505 3.98296,-3.28883 4.24219,-3.5625 0.25924,-0.27368 2.06157,-1.75784 4.00586,-3.29883 1.94429,-1.54099 3.74857,-3.02515 4.00781,-3.29882 0.25924,-0.27368 2.05358,-1.7598 3.98828,-3.30078 1.9347,-1.541 3.86081,-3.11897 4.28125,-3.50782 0.42044,-0.38886 1.70113,-1.4807 2.84571,-2.42578 4.82012,-3.97998 8.24775,-6.794 8.81445,-7.23633 0.33305,-0.25995 0.86268,-0.68708 1.17773,-0.94922 0.31505,-0.26214 1.84323,-1.53483 3.39454,-2.82812 1.5513,-1.29329 3.09642,-2.56303 3.43359,-2.82227 0.33717,-0.25924 0.87879,-0.70711 1.20312,-0.99414 0.32433,-0.28704 1.85424,-1.54768 3.40039,-2.80273 1.54615,-1.25506 3.05374,-2.50477 3.35157,-2.77735 0.29783,-0.27257 1.34107,-1.13244 2.3164,-1.91015 0.97533,-0.77772 2.66037,-2.15712 3.74414,-3.06445 1.08378,-0.90733 2.88819,-2.39149 4.01172,-3.29883 1.12353,-0.90733 2.38766,-1.96662 2.8086,-2.35547 0.42093,-0.38886 2.45258,-2.08089 4.51367,-3.75781 2.06107,-1.67694 3.8528,-3.16932 3.98242,-3.31641 0.12962,-0.14708 1.93195,-1.63053 4.00586,-3.29688 2.07391,-1.66633 3.87819,-3.14591 4.00781,-3.28906 0.12962,-0.14314 0.91359,-0.81777 1.74219,-1.49804 l 1.50586,-1.23633 -8.26758,-9.36133 c -4.54682,-5.14841 -8.87368,-9.98155 -9.61523,-10.74219 z m 10.94727,15.68945 2.02734,2.25781 c 2.92474,3.25875 3.00897,3.81212 0.87109,5.66016 -2.09514,1.81113 -2.59648,1.89106 -3.5332,0.57031 -0.38128,-0.53758 -1.3643,-1.7365 -2.18359,-2.66406 -0.8193,-0.92756 -1.3887,-1.91841 -1.26563,-2.20313 0.12307,-0.28471 1.09282,-1.2169 2.1543,-2.07031 z m -14.37305,12.29492 c 0.26909,0 0.97303,0.68873 1.56445,1.53125 0.59142,0.84253 1.30641,1.74467 1.58789,2.00391 1.85741,1.71064 1.85142,2.08673 -0.0547,3.7832 -2.21263,1.96927 -3.19396,2.05128 -4.30079,0.35742 -0.45965,-0.70342 -1.31319,-1.79516 -1.89648,-2.42578 -0.58328,-0.63063 -1.06055,-1.41492 -1.06055,-1.74414 0,-0.65851 3.37878,-3.50586 4.16016,-3.50586 z m -14.36719,11.87109 c 0.3129,0.0709 0.5407,0.41885 0.91211,0.97266 0.39118,0.58329 1.37057,1.78852 2.17578,2.67774 0.8052,0.8892 1.4629,1.84373 1.46289,2.12109 -10e-6,0.27736 -0.73153,1.08592 -1.625,1.79883 -0.89348,0.7129 -2.00513,1.28693 -2.47265,1.27343 -1.1444,-0.033 -4.353,-3.72219 -4.3711,-5.02539 -0.008,-0.57307 0.25017,-1.2648 0.57422,-1.53906 2.06305,-1.74611 2.82226,-2.3975 3.34375,-2.2793 z m -14.44922,12.36524 c 0.22487,0.0635 0.43697,0.18858 0.58399,0.35937 0.29403,0.34157 1.27099,1.4689 2.16992,2.50586 0.89893,1.03695 1.63456,2.13429 1.63476,2.43946 2.1e-4,0.30518 -0.79141,1.20731 -1.75781,2.0039 -0.9664,0.79659 -1.99203,1.44922 -2.28125,1.44922 -0.80787,0 -4.44747,-4.53596 -4.41797,-5.50586 0.0253,-0.83344 1.98332,-2.69587 3.41211,-3.24414 0.19416,-0.0745 0.43139,-0.0713 0.65625,-0.008 z m -14.66015,11.88672 c 0.19272,-0.0222 0.35489,0.002 0.47265,0.084 1.01793,0.70653 3.96485,4.70617 3.96485,5.38086 0,0.3962 -0.68873,1.23867 -1.53125,1.8711 -0.84253,0.63242 -1.76904,1.28893 -2.0586,1.45898 -0.55102,0.32359 -4.54089,-3.95119 -4.8164,-5.16016 -0.23736,-1.0415 2.61966,-3.47962 3.96875,-3.63476 z m -14.67774,11.97656 c 1.10444,0.0259 5.05276,4.92285 4.67383,5.79688 -0.12945,0.2986 -0.83444,1.01819 -1.56836,1.59961 -2.20296,1.74522 -2.50488,1.6897 -4.73828,-0.8711 -1.16212,-1.33248 -2.1893,-2.62696 -2.2832,-2.87695 -0.27889,-0.7425 2.86677,-3.67304 3.91601,-3.64844 z m -14.52539,11.76953 c 0.53204,-0.009 4.88867,4.99339 4.88867,5.61328 0,0.18096 -0.58396,0.87219 -1.29687,1.53711 -1.49039,1.39008 -3.41293,2.47376 -3.42383,1.92969 -0.004,-0.20354 -0.95859,-1.4282 -2.12109,-2.72266 -1.16251,-1.29446 -2.11329,-2.55888 -2.11329,-2.80859 0,-0.59124 3.37561,-3.53703 4.06641,-3.54883 z m -14.36328,12.2461 c 0.44059,0 1.24338,0.58201 1.7832,1.29492 0.53982,0.71291 1.40396,1.79314 1.91992,2.39844 1.31946,1.54798 1.19105,2.0731 -0.91992,3.76953 -1.8026,1.44861 -2.84808,1.86388 -2.86328,1.13867 -0.004,-0.19443 -0.95858,-1.41257 -2.12109,-2.70703 -1.16251,-1.29447 -2.11328,-2.4985 -2.11328,-2.67578 0,-0.60116 3.50856,-3.21875 4.31445,-3.21875 z m 207.69141,7.62304 c -0.81894,10e-4 -11.26718,8.29645 -11.39258,9.08594 -0.0313,0.1973 2.91168,2.32227 6.54102,4.72266 l 6.59961,4.36523 1.17773,-0.85547 c 3.79682,-2.75521 3.9138,-2.92516 3.09375,-4.44922 -0.90271,-1.67768 -5.69771,-11.98892 -5.97266,-12.84375 -0.006,-0.0177 -0.0204,-0.0254 -0.0469,-0.0254 z m -222.21094,4.21875 c 0.56107,0.0788 1.12882,0.49233 1.69922,1.23828 0.54513,0.71291 1.4636,1.88131 2.03906,2.59766 0.57545,0.71635 1.04492,1.49394 1.04492,1.72656 0,0.23261 -0.82424,1.07802 -1.83203,1.87891 -1.00779,0.8009 -2.06707,1.45131 -2.35547,1.44531 -0.51527,-0.0106 -2.93912,-2.6852 -3.78516,-4.17773 -0.23708,-0.41825 -0.66025,-0.91284 -0.9414,-1.09766 -0.32615,-0.21441 -0.10897,-0.6403 0.60156,-1.17773 0.61249,-0.46327 1.45603,-1.21431 1.87305,-1.66797 0.5421,-0.58975 1.09517,-0.84441 1.65625,-0.76563 z m 229.29883,11.27344 -1.83203,1.4707 c -1.00742,0.80958 -1.72636,1.64333 -1.59766,1.85157 0.32995,0.53386 4.41725,3.25586 4.88867,3.25586 0.2145,0 0.6558,0.31817 0.97852,0.70703 0.59399,0.71571 1.63354,1.00483 1.27148,0.35351 -0.10808,-0.19442 -0.98711,-1.99233 -1.95312,-3.99609 z m -243.9375,0.46875 c 0.73159,-0.0347 5.06624,5.08822 5.02734,5.94141 -0.0101,0.22193 -0.95404,1.09301 -2.09961,1.93554 -1.14556,0.84252 -2.15348,1.53321 -2.23828,1.53321 -0.29907,0 -3.42838,-3.92098 -4.0625,-5.08985 -0.606,-1.11705 -0.53964,-1.27385 1.17773,-2.74414 1.00149,-0.85739 1.99005,-1.56617 2.19532,-1.57617 z"
       transform="scale(0.26458333)" /><path
       id="path40"
       style="fill:none;stroke:#beb41e;stroke-width:3.77953;stroke-linejoin:round;stroke-dasharray:none;stroke-opacity:1;paint-order:stroke markers fill;filter:url(#filter45)"
       d="m 668.81837,548.16407 c -0.0639,-2.1e-4 -0.11404,0.0237 -0.14649,0.0703 -0.16967,0.24384 -2.00421,1.80631 -4.07812,3.47266 -2.0739,1.66635 -3.87624,3.15051 -4.00586,3.29883 -0.18425,0.21083 -4.67987,3.87507 -8.25,6.72461 -0.25924,0.20692 -1.31852,1.11083 -2.35547,2.00976 -1.03696,0.89894 -2.02817,1.63457 -2.20117,1.63477 -0.17302,2.1e-4 -1.92806,-0.95307 -3.90039,-2.11914 -1.97232,-1.16607 -4.9059,-2.66011 -6.51953,-3.32032 -1.61363,-0.6602 -3.35848,-1.3983 -3.87696,-1.63867 -3.31457,-1.53666 -11.19428,-2.34553 -13.66992,-1.40429 l -1.24023,0.4707 0.94726,1.29687 c 0.5211,0.71267 1.43701,1.86245 2.03516,2.55664 0.59814,0.69419 1.72424,2.05561 2.50195,3.02344 0.77772,0.96782 2.15517,2.64474 3.0625,3.72852 0.90734,1.08377 2.39345,2.88555 3.30078,4.0039 0.90734,1.11835 2.11243,2.54751 2.67969,3.17578 0.9159,1.01442 1.04116,2.48243 0.21094,2.48243 -0.16934,0 -0.83697,0.48085 -1.48242,1.06836 -4.00304,3.64369 -6.58506,5.30099 -6.59766,4.23437 -0.002,-0.19443 -1.01116,-1.54229 -2.24023,-2.99414 -1.22908,-1.45185 -2.97548,-3.5509 -3.88282,-4.66602 -0.90733,-1.11511 -2.24732,-2.68515 -2.97656,-3.48828 -0.72925,-0.80313 -1.6751,-2.04295 -2.10352,-2.75586 -0.4284,-0.71291 -0.91784,-1.29687 -1.08593,-1.29687 -0.16808,0 -0.89671,-0.85206 -1.61914,-1.89453 l -1.3125,-1.89649 -0.99024,2.01368 c -0.87247,1.77515 -0.99023,2.85474 -0.99023,9.1289 0,4.61293 0.1897,7.34847 0.53711,7.77735 0.29473,0.36386 0.68775,1.58017 0.87304,2.70312 0.1853,1.12295 0.63129,2.60711 0.99219,3.29883 0.36089,0.69172 0.65816,1.54485 0.66016,1.89453 0.002,0.34968 0.34869,1.36294 0.77148,2.25391 0.4228,0.89098 0.68659,1.67814 0.58789,1.74804 -0.30804,0.21805 -9.07137,7.44129 -10.3125,8.5 -0.64809,0.55284 -2.87531,2.38226 -4.94922,4.06641 -2.0739,1.68414 -3.98294,3.28688 -4.24218,3.56055 -0.25924,0.27368 -2.06158,1.75842 -4.00586,3.29882 -1.94429,1.54041 -3.64187,2.93082 -3.77149,3.0918 -0.12962,0.161 -1.59983,1.3845 -3.26758,2.71875 -3.06967,2.45583 -5.50821,4.47524 -9.36132,7.75 -1.16701,0.99184 -3.62975,2.9961 -5.47071,4.45313 -3.28233,2.59782 -4.03237,3.33099 -4.04687,3.95312 -0.007,0.30097 3.79897,5.14999 5.08008,6.47266 0.3491,0.36042 0.97981,1.18132 1.40234,1.82617 0.74234,1.13296 0.72119,1.21585 -0.66797,2.41016 -2.52881,2.17409 -4.16111,3.52604 -7.74219,6.41992 -1.92478,1.55543 -3.71146,3.05249 -3.9707,3.32617 -0.25923,0.27367 -2.0506,1.75784 -3.98047,3.29883 -1.92987,1.541 -4.03263,3.28257 -4.67383,3.87109 l -1.16601,1.07031 1.18554,1.28711 c 0.65204,0.70768 4.6449,5.20996 8.87305,10.00586 4.22817,4.79592 8.03918,9.09933 8.46875,9.5625 0.74769,0.80616 0.83213,0.79544 1.97852,-0.23632 1.25161,-1.12646 3.27161,-2.8158 8.40429,-7.0293 1.68505,-1.38329 3.16921,-2.63165 3.29883,-2.77539 0.12962,-0.14376 1.93195,-1.62894 4.00586,-3.29883 2.07391,-1.6699 4.05349,-3.30644 4.39844,-3.63867 0.69411,-0.66852 1.41019,-0.39009 2.35351,0.91797 0.34322,0.47592 1.40445,1.78122 2.35743,2.90039 0.95297,1.11917 2.45899,2.91617 3.34765,3.99414 1.76106,2.13623 2.01772,2.25561 2.94727,1.36328 0.34257,-0.32884 2.31867,-1.9721 4.39258,-3.65234 2.0739,-1.68026 3.87624,-3.16892 4.00586,-3.30665 0.12962,-0.13773 1.9339,-1.62189 4.00781,-3.29882 2.07391,-1.67694 3.87624,-3.1814 4.00586,-3.3418 0.12962,-0.16041 1.59984,-1.38256 3.26758,-2.7168 1.66774,-1.33425 3.97957,-3.21744 5.13672,-4.18554 1.15714,-0.96812 2.99918,-2.50282 4.09375,-3.41016 1.09457,-0.90733 2.49118,-2.07333 3.10351,-2.5918 3.94041,-3.33643 4.89222,-3.56339 7.28516,-1.73828 1.48953,1.13607 3.06295,2.17316 12.95508,8.54883 2.19292,1.41338 4.05813,2.74041 4.14453,2.94727 0.0864,0.20685 0.35642,0.375 0.59961,0.375 0.38947,0 3.61264,1.95146 4.89843,2.96484 0.43497,0.34281 11.22662,7.41565 21.91797,14.36523 2.46277,1.60085 4.79669,3.13595 5.18555,3.41211 0.38886,0.27616 2.90695,1.93676 5.59766,3.68946 l 4.89257,3.18554 1.23633,-1.04492 c 0.67939,-0.57438 2.24464,-1.89891 3.47852,-2.94531 1.23388,-1.04639 2.61133,-2.12074 3.0625,-2.38672 0.50717,-0.29899 0.64103,-0.62181 0.34961,-0.8457 -0.25924,-0.19918 -1.84261,-2.05891 -3.51953,-4.13282 -1.67694,-2.0739 -3.16306,-3.87624 -3.30078,-4.00586 -0.21475,-0.2021 -5.44266,-6.60795 -6.8418,-8.38281 -0.26254,-0.33305 -0.73807,-0.89802 -1.05664,-1.2539 -0.31858,-0.35587 -1.64743,-1.97659 -2.95313,-3.60352 -1.30569,-1.62692 -3.16665,-3.90535 -4.13476,-5.0625 -3.89862,-4.65988 -5.13076,-6.14736 -6.70899,-8.09375 -0.90733,-1.11899 -2.46129,-2.98631 -3.45312,-4.15039 -0.99184,-1.16407 -2.9961,-3.62193 -4.45313,-5.46289 -1.45704,-1.84095 -2.77664,-3.45437 -2.93359,-3.58399 -0.15694,-0.12962 -1.49547,-1.74261 -2.97266,-3.58593 -2.42169,-3.02192 -3.31163,-4.89844 -2.32422,-4.89844 0.19888,0 1.45354,-0.95453 2.78711,-2.12109 1.33357,-1.16657 2.68466,-2.1211 3.00196,-2.1211 0.31731,0 1.02406,0.49184 1.57226,1.0918 1.92787,2.10987 5.24426,6.10153 5.64649,6.79687 0.22368,0.38668 0.75332,1.06727 1.17773,1.51368 0.94348,0.99236 4.44893,5.16956 4.78906,5.70703 0.32792,0.51817 3.34032,4.18078 4.23242,5.14648 0.38885,0.42094 2.07893,2.4526 3.75586,4.51367 1.67693,2.06108 3.1611,3.85281 3.29883,3.98243 0.22641,0.21306 5.68802,6.90741 6.84375,8.38867 0.26254,0.33649 0.80296,0.97284 1.20117,1.41406 0.3982,0.44122 1.98907,2.38561 3.53516,4.32031 1.54608,1.9347 3.12872,3.86367 3.51758,4.28516 0.38886,0.42148 1.66156,1.95516 2.82812,3.41015 1.16658,1.45499 2.26997,2.65733 2.45313,2.66993 1.01048,0.0694 4.0859,-3.81183 5.02539,-6.3418 0.5776,-1.55544 1.3725,-3.45451 1.76758,-4.2207 1.11428,-2.1609 1.35119,-5.51184 0.51953,-7.3711 -0.92253,-2.06241 -3.16797,-9.23367 -3.16797,-10.11914 0,-0.37285 -0.17506,-0.67773 -0.39062,-0.67773 -0.21556,0 -0.62667,-0.9002 -0.91211,-2.00196 -1.1347,-4.3799 -2.21338,-7.66718 -2.56641,-7.8164 -0.20444,-0.0864 -0.37014,-0.40459 -0.36914,-0.70703 0.003,-0.67623 -2.29119,-8.29329 -2.79102,-9.26953 -0.19909,-0.38886 -0.94018,-2.61609 -1.64843,-4.94922 -0.70824,-2.33315 -1.45859,-4.56749 -1.66602,-4.96485 -0.20742,-0.39737 -0.53404,-1.45859 -0.72656,-2.35742 -0.19251,-0.89882 -0.5223,-1.84864 -0.73242,-2.11133 -0.21012,-0.26268 -0.63924,-1.53537 -0.95508,-2.82812 -0.31584,-1.29274 -0.73194,-2.56304 -0.92383,-2.82227 -0.19189,-0.25924 -0.50387,-1.21375 -0.69336,-2.12109 -0.18949,-0.90733 -0.51644,-1.86427 -0.72656,-2.12695 -0.21012,-0.26268 -0.64119,-1.53539 -0.95703,-2.82813 -0.31584,-1.29275 -0.79836,-2.63736 -1.07422,-2.98828 -0.38657,-0.49175 0.11803,-1.19649 2.20312,-3.07617 2.63738,-2.37758 2.68355,-2.46297 1.85742,-3.36914 -0.46608,-0.51124 -2.21765,-2.62727 -3.89257,-4.70118 -1.67493,-2.0739 -3.26231,-4.0155 -3.52735,-4.3164 -0.26504,-0.30091 -1.22353,-1.446 -2.13086,-2.54492 -0.90734,-1.09893 -2.33536,-2.76201 -3.17187,-3.69532 -0.83651,-0.93331 -1.52525,-1.82585 -1.53125,-1.98242 -0.006,-0.15658 -0.48703,-0.8145 -1.07031,-1.46289 -1.11062,-1.23457 -2.81768,-3.27537 -7.01368,-8.38672 -1.38329,-1.68505 -2.62536,-3.16921 -2.75976,-3.29883 -0.21517,-0.20752 -5.76606,-7.01389 -6.72656,-8.24804 -1.33906,-1.72054 -2.51395,-2.83448 -2.96094,-2.83594 z m -222.50586,4.41602 -5.16016,4.31445 c -2.83834,2.37297 -5.45549,4.59968 -5.81641,4.94922 -0.55662,0.53907 0.15828,1.56795 4.71289,6.77539 2.95331,3.37661 5.54148,6.14991 5.75,6.16211 0.34336,0.02 3.02383,-2.16942 9.43946,-7.70899 l 2.27734,-1.96875 -3.91406,-4.45898 c -2.15295,-2.45298 -4.67372,-5.27038 -5.60156,-6.26172 z m 12.52539,14.20898 c -0.27862,0 -8.66253,6.89611 -11.41016,9.38477 -0.1916,0.17354 0.23133,0.95818 0.94141,1.74414 3.95436,4.37698 10.4061,11.82492 11.42578,13.1914 0.64809,0.86852 1.44544,1.5848 1.77148,1.5918 0.45061,0.009 8.27454,-6.35543 11.62305,-9.45508 0.25314,-0.23433 -0.43146,-1.34492 -1.65039,-2.67969 -1.14515,-1.25399 -3.45947,-3.83539 -5.14453,-5.73632 -6.08323,-6.86262 -7.19102,-8.04102 -7.55664,-8.04102 z m 15.26562,17.05078 -2.79492,2.39258 c -1.53667,1.31602 -4.11999,3.43712 -5.74023,4.71484 -1.62024,1.27773 -2.94532,2.46542 -2.94532,2.63867 0,0.17326 1.00691,1.40421 2.23828,2.73633 1.23138,1.33212 2.95454,3.23976 3.82813,4.23828 0.87359,0.99853 2.35775,2.67225 3.29883,3.71875 0.94108,1.0465 3.09034,3.46948 4.77539,5.38477 1.68505,1.9153 3.56134,4.02777 4.16992,4.69531 0.60857,0.66754 2.12548,2.38083 3.37109,3.80664 1.24561,1.42581 2.76253,3.14169 3.3711,3.8125 0.60858,0.67081 2.38012,2.67572 3.93554,4.45508 1.55544,1.77937 3.1463,3.56857 3.53516,3.97656 0.38885,0.40799 2.08448,2.31469 3.76953,4.23633 1.68505,1.92164 3.38263,3.84209 3.77149,4.26758 0.58167,0.63647 4.25128,4.75872 7.54101,8.4707 0.38885,0.43877 1.87302,2.13454 3.29883,3.76954 1.42582,1.63498 2.9217,3.31308 3.32227,3.72851 0.40056,0.41543 3.15591,3.51272 6.125,6.88281 2.96908,3.3701 5.62676,6.33842 5.90625,6.59766 0.27948,0.25923 2.5082,2.79534 4.95117,5.63477 2.44297,2.83941 4.75958,5.50227 5.14844,5.91796 0.38885,0.41569 2.08643,2.31867 3.77148,4.22852 1.68505,1.90985 4.04377,4.54925 5.24219,5.86523 1.19843,1.316 2.78929,3.12576 3.53515,4.02149 0.74587,0.89574 1.99182,2.28624 2.76954,3.08984 0.7777,0.80359 2.04923,2.19093 2.82617,3.08399 3.9942,4.59112 12.2217,13.90953 12.46289,14.11523 0.30845,0.26307 9.92084,11.11257 12.08008,13.63477 0.76062,0.88848 1.70098,1.95488 2.08984,2.36914 0.38886,0.41426 2.08643,2.32445 3.77148,4.24609 1.68505,1.92164 3.38068,3.83239 3.76954,4.2461 0.38886,0.41372 2.08643,2.31663 3.77148,4.22851 1.68505,1.91188 4.04377,4.55514 5.24219,5.875 1.19843,1.31985 2.78928,3.13666 3.53515,4.03711 0.74586,0.90046 1.67561,1.9724 2.06446,2.38086 1.07812,1.13246 7.19399,7.9986 9.00195,10.10547 0.88121,1.02691 1.91973,2.21067 2.30859,2.63086 0.38886,0.42018 2.08644,2.31463 3.77149,4.21094 1.68505,1.89629 4.04376,4.53061 5.24219,5.85351 1.19842,1.3229 2.78929,3.14251 3.53515,4.04297 0.74586,0.90045 1.6756,1.96831 2.06446,2.375 0.38886,0.40669 2.06175,2.2606 3.71875,4.11914 l 3.01367,3.37891 1.29101,-1.04102 c 0.7101,-0.5733 3.31513,-2.73086 5.78907,-4.79297 l 4.49804,-3.74804 -1.43554,-1.67188 c -0.78906,-0.91914 -2.31773,-2.62639 -3.39844,-3.79297 -1.08071,-1.16657 -5.02546,-5.61905 -8.76563,-9.89648 -3.74016,-4.27743 -6.92742,-7.88405 -7.08203,-8.01367 -0.15462,-0.12962 -2.69242,-2.99319 -5.64062,-6.36329 -2.9482,-3.37009 -5.6939,-6.46782 -6.09961,-6.88281 -0.80153,-0.81987 -0.99986,-1.04337 -8.94922,-10.08594 -2.96267,-3.37009 -5.51013,-6.23366 -5.66211,-6.36328 -0.30845,-0.26307 -9.92084,-11.11257 -12.08008,-13.63476 -0.76062,-0.88848 -1.70098,-1.95528 -2.08984,-2.3711 -0.38885,-0.41581 -3.14767,-3.49962 -6.12891,-6.85351 -2.98125,-3.3539 -5.73809,-6.4377 -6.12695,-6.85352 -0.38886,-0.41581 -1.32434,-1.48458 -2.08008,-2.37304 -0.75573,-0.88848 -2.24184,-2.57774 -3.30078,-3.75586 -1.05893,-1.17812 -2.55474,-2.87571 -3.32617,-3.77149 -0.77143,-0.89578 -4.1377,-4.70393 -7.48047,-8.46289 -3.34277,-3.75896 -7.3797,-8.30924 -8.96875,-10.11133 -1.58904,-1.80209 -4.90248,-5.52292 -7.36524,-8.26758 -4.06851,-4.53419 -9.26746,-10.37917 -11.24609,-12.64648 -1.55511,-1.78201 -5.98309,-6.80129 -6.90039,-7.82031 -4.20802,-4.6746 -7.89485,-8.82851 -9.23828,-10.41016 -0.88078,-1.03695 -1.72209,-1.99147 -1.86914,-2.12109 -0.36902,-0.32527 -8.12219,-9.047 -11.28321,-12.69336 -1.42582,-1.64473 -2.81307,-3.22528 -3.08398,-3.51367 -0.27091,-0.28841 -2.47162,-2.75262 -4.89063,-5.47461 -2.41899,-2.72201 -5.06912,-5.69033 -5.88867,-6.59766 -0.81956,-0.90734 -3.91288,-4.40725 -6.875,-7.77734 -2.96212,-3.3701 -5.53466,-6.23565 -5.7168,-6.36719 -0.18215,-0.13154 -0.94785,-1.01496 -1.70117,-1.96289 z m -0.4082,4.71875 c 0.40794,0.0355 0.85303,0.33999 1.29492,0.89453 0.49925,0.62652 2.21537,2.60347 3.81445,4.39258 6.12064,6.84792 11.39135,12.78745 14.69141,16.55664 1.55543,1.77656 3.99411,4.5233 5.41992,6.10352 1.42581,1.58022 3.9712,4.44302 5.65625,6.36328 1.68505,1.92026 3.38264,3.83626 3.77149,4.25586 0.38886,0.4196 2.08448,2.33422 3.76953,4.25586 1.68505,1.92164 3.38262,3.83293 3.77148,4.24609 0.38886,0.41315 1.97973,2.20982 3.53516,3.99414 1.55543,1.78432 3.1463,3.58247 3.53515,3.99414 0.38886,0.41166 2.08449,2.32225 3.76954,4.2461 1.68504,1.92385 3.38262,3.84692 3.77148,4.27343 0.38885,0.42651 1.34645,1.4951 2.12695,2.375 0.78052,0.8799 3.02353,3.40194 4.98633,5.60547 1.96281,2.20352 4.18892,4.72818 4.94531,5.60938 0.75641,0.8812 1.70296,1.94048 2.10352,2.35547 0.40057,0.41499 3.15458,3.5127 6.12109,6.88281 2.96651,3.3701 5.50497,6.23366 5.64063,6.36328 0.41945,0.40078 11.00779,12.34383 12.25586,13.82422 0.6481,0.76873 1.49591,1.74462 1.88476,2.16797 0.38886,0.42336 3.14572,3.51329 6.12696,6.86719 2.98123,3.35389 5.73809,6.43964 6.12695,6.85546 0.38885,0.41581 1.3263,1.48263 2.08203,2.3711 0.75574,0.88848 2.2399,2.58101 3.29883,3.76172 1.05894,1.18071 3.30519,3.70478 4.99023,5.60937 1.68505,1.90459 3.92987,4.43872 4.99024,5.63086 5.38821,6.05773 7.26427,8.17568 9.85547,11.12695 1.55543,1.77158 3.14629,3.56844 3.53515,3.99219 1.18576,1.29214 4.31742,4.81027 7.54297,8.47657 1.68505,1.91528 3.56136,4.02777 4.16992,4.69531 0.60858,0.66753 2.12549,2.38083 3.3711,3.80664 1.24561,1.42582 2.76251,3.14169 3.37109,3.8125 0.60858,0.67081 2.38012,2.67572 3.93555,4.45508 1.55543,1.77935 3.14434,3.56857 3.5332,3.97656 0.38886,0.40799 2.08644,2.30981 3.77149,4.22656 1.68506,1.91675 3.54959,4.01928 4.14258,4.67188 0.59297,0.65261 1.0159,1.5009 0.9414,1.88476 -0.0745,0.38386 -0.36167,0.77304 -0.63867,0.86524 -0.55223,0.18383 -1.20684,-0.50062 -9.12305,-9.51368 -2.9619,-3.37229 -5.51013,-6.23561 -5.66211,-6.36523 -0.35078,-0.29917 -10.71149,-11.95959 -12.28515,-13.82617 -0.6481,-0.76874 -1.49591,-1.74992 -1.88477,-2.17969 -0.38886,-0.42977 -1.55484,-1.73243 -2.5918,-2.89648 -3.7423,-4.20104 -8.17532,-9.16803 -9.26171,-10.37891 -3.26975,-3.64438 -7.02988,-7.91989 -8.23047,-9.35742 -0.7489,-0.8967 -1.99768,-2.29839 -2.77539,-3.11328 -0.77771,-0.8149 -2.68676,-2.93409 -4.24219,-4.71094 -1.55543,-1.77685 -3.88936,-4.42319 -5.18555,-5.88086 -1.2962,-1.45767 -3.62816,-4.09496 -5.18359,-5.85938 -1.55544,-1.76441 -3.15555,-3.54845 -3.55469,-3.96484 -0.96837,-1.01021 -7.47998,-8.35157 -9.21094,-10.38476 -0.75641,-0.88848 -1.69317,-1.96254 -2.08203,-2.38477 -0.38886,-0.42223 -1.55679,-1.71876 -2.59375,-2.88281 -1.03695,-1.16407 -3.36892,-3.78061 -5.18359,-5.81446 -1.81467,-2.03385 -3.617,-4.06298 -4.00586,-4.50781 -4.57133,-5.22929 -5.72345,-6.53661 -6.67188,-7.58203 -0.60857,-0.67081 -2.37815,-2.68016 -3.93359,-4.46484 -1.55543,-1.78471 -3.99607,-4.54146 -5.42188,-6.12696 -1.4258,-1.58549 -3.75778,-4.21288 -5.18359,-5.83789 -1.42581,-1.62502 -2.81347,-3.19768 -3.08398,-3.49414 -1.33847,-1.46692 -8.21419,-9.22256 -9.43165,-10.63867 -0.76384,-0.88848 -1.70684,-1.95528 -2.0957,-2.37109 -1.31017,-1.40102 -11.53733,-12.90582 -12.72656,-14.31641 -0.6481,-0.76873 -1.49786,-1.74267 -1.88672,-2.16602 -0.38886,-0.42336 -3.14572,-3.51524 -6.12695,-6.86914 -2.98124,-3.35389 -5.7381,-6.4377 -6.12696,-6.85351 -0.38885,-0.41582 -1.3263,-1.48262 -2.08203,-2.3711 -0.75574,-0.88847 -2.2399,-2.58101 -3.29883,-3.76172 -1.05893,-1.18071 -3.23717,-3.62133 -4.83984,-5.42187 -1.60267,-1.80053 -3.87821,-4.33271 -5.05664,-5.62891 -2.30373,-2.53393 -2.61098,-3.39394 -1.38281,-3.86523 0.12664,-0.0486 0.25855,-0.0665 0.39453,-0.0547 z m -5.60352,4.41016 c 0.96675,0.0931 3.15549,2.37377 8.67188,8.67969 1.68505,1.92621 3.38067,3.84603 3.76953,4.26562 0.38886,0.4196 2.08644,2.33422 3.77148,4.25586 1.68505,1.92165 3.38264,3.8338 3.77149,4.24805 0.38886,0.41426 1.33657,1.48066 2.10742,2.36914 0.77085,0.88847 3.00958,3.41757 4.97461,5.62109 1.96503,2.20353 4.19709,4.71888 4.96094,5.58984 1.83843,2.09626 2.67239,3.03201 6.53515,7.3418 1.79293,2.00042 3.65443,4.13883 4.13672,4.75195 0.4823,0.61314 1.56085,1.83264 2.39649,2.71094 0.83563,0.8783 2.15469,2.32423 2.93164,3.21094 6.60207,7.53488 12.23428,13.90658 12.46289,14.10156 0.35079,0.29917 10.70953,11.95959 12.2832,13.82617 0.64809,0.76873 1.49786,1.74267 1.88672,2.16602 0.38886,0.42336 3.14571,3.51524 6.12695,6.86914 2.98124,3.3539 5.7381,6.44379 6.12696,6.86719 1.54458,1.68177 6.54647,7.37324 7.83007,8.91016 0.7489,0.8967 1.99769,2.29643 2.7754,3.11132 0.77771,0.8149 2.68675,2.93605 4.24218,4.71289 1.55543,1.77685 3.88936,4.42319 5.18555,5.88086 1.29619,1.45767 3.62817,4.09952 5.18359,5.8711 1.55543,1.77158 3.1463,3.56845 3.53516,3.99218 1.18576,1.29214 4.31546,4.81027 7.54102,8.47657 1.68504,1.9153 3.56329,4.02778 4.17187,4.69531 0.60858,0.66753 2.12549,2.38083 3.37109,3.80664 1.24562,1.42581 2.76252,3.14469 3.3711,3.81836 0.60857,0.67367 2.48487,2.77781 4.16992,4.67578 1.68505,1.89797 3.27762,3.67901 3.53906,3.95899 0.26144,0.27998 1.85231,2.10063 3.53516,4.04492 1.68284,1.94429 3.17956,3.63991 3.32617,3.76953 0.26145,0.23115 6.69851,7.45673 10.73438,12.04883 1.12509,1.28017 3.274,3.70557 4.77539,5.39062 8.80274,9.87962 9.36849,10.59484 8.875,11.18946 -0.2716,0.32726 -0.66427,0.5957 -0.87305,0.5957 -0.20879,0 -2.6708,-2.59972 -5.4707,-5.77539 -2.79991,-3.17567 -5.21646,-5.88015 -5.3711,-6.00977 -0.15465,-0.12962 -2.03716,-2.25012 -4.18359,-4.71289 -4.49176,-5.15374 -9.36129,-10.62958 -10.43359,-11.73242 -0.40571,-0.41725 -3.14945,-3.51467 -6.09766,-6.88477 -2.9482,-3.37009 -5.48203,-6.23366 -5.63086,-6.36328 -0.31143,-0.27124 -10.00448,-11.21711 -12.07422,-13.63476 -0.76062,-0.88847 -1.70098,-1.95528 -2.08984,-2.3711 -0.38885,-0.41582 -3.14767,-3.50157 -6.12891,-6.85547 -2.98125,-3.35389 -5.73809,-6.44378 -6.12695,-6.86718 -1.54458,-1.68177 -6.54647,-7.37324 -7.83008,-8.91016 -0.7489,-0.8967 -1.99768,-2.29839 -2.77539,-3.11328 -0.77772,-0.8149 -2.68676,-2.9341 -4.24219,-4.71094 -1.55543,-1.77685 -3.8874,-4.42319 -5.18359,-5.88086 -1.29619,-1.45767 -3.63012,-4.09496 -5.18555,-5.85937 -1.55543,-1.76442 -3.15875,-3.54846 -3.56445,-3.96485 -0.40571,-0.41639 -3.1541,-3.51466 -6.10743,-6.88476 -2.95331,-3.3701 -5.59101,-6.35739 -5.86132,-6.63867 -0.27031,-0.28127 -1.58422,-1.76543 -2.91993,-3.29883 -1.3357,-1.53339 -2.92657,-3.32882 -3.53515,-3.99024 -1.11548,-1.21232 -6.19605,-6.91181 -7.78906,-8.73828 -0.47269,-0.54196 -2.02537,-2.32398 -3.45118,-3.95898 -1.4258,-1.63499 -2.91881,-3.31309 -3.3164,-3.72852 -0.39759,-0.41543 -2.30663,-2.5582 -4.24219,-4.76172 -1.93556,-2.20353 -4.39755,-4.96038 -5.4707,-6.12695 -1.07315,-1.16657 -2.55368,-2.8622 -3.29102,-3.76953 -0.73735,-0.90734 -1.46301,-1.7571 -1.61328,-1.88672 -0.31208,-0.2692 -7.10461,-7.90216 -9.19531,-10.33399 -0.76384,-0.88846 -1.70685,-1.95722 -2.09571,-2.37304 -1.31017,-1.40101 -11.53733,-12.90387 -12.72656,-14.31446 -0.64809,-0.76872 -1.4959,-1.73839 -1.88476,-2.15429 -3.48117,-3.72325 -7.09453,-8.22034 -6.95118,-8.65039 0.12905,-0.38714 0.31447,-0.59938 0.63672,-0.56836 z m 177.92969,15.29883 c 0.93705,0 4.66797,4.60201 4.66797,5.75781 0,0.39578 -0.74092,1.2251 -1.64648,1.8418 -0.90556,0.61669 -1.64839,1.28017 -1.65039,1.4746 -0.005,0.57862 -0.65993,0.35109 -1.44141,-0.5 -1.49011,-1.62282 -3.74609,-4.71777 -3.74609,-5.13867 0,-0.53255 3.22494,-3.43554 3.8164,-3.43554 z m -14.59961,12.26953 c 1.01764,-0.0184 4.6543,3.96635 4.6543,5.09961 0,0.49128 -0.77551,1.55647 -1.72461,2.36718 -0.9491,0.8107 -1.88466,1.47461 -2.08008,1.47461 -0.38807,0 -4.17722,-4.60345 -4.53515,-5.50976 -0.27486,-0.69597 2.64297,-3.41284 3.68554,-3.43164 z m -13.99804,11.77343 c 0.44377,-0.0966 0.74127,-0.01 0.74804,0.34961 0.004,0.19443 0.85343,1.2898 1.88672,2.43555 1.0333,1.14575 1.87891,2.34879 1.87891,2.67188 0,0.32308 -0.8265,1.24151 -1.83594,2.04101 -2.24651,1.77927 -2.55331,1.79082 -3.79102,0.15625 -0.53981,-0.7129 -1.40397,-1.79117 -1.91992,-2.39648 -0.51595,-0.60531 -0.9375,-1.48158 -0.9375,-1.94727 0,-1.09129 2.63937,-3.0208 3.97071,-3.31055 z m -14.72266,11.54297 2.31055,2.59375 c 1.27134,1.42581 2.31204,2.87015 2.3125,3.21094 4.6e-4,0.34079 -0.66648,1.19055 -1.48243,1.88672 -0.81594,0.69617 -1.74648,1.42206 -2.06835,1.61328 -0.75439,0.44817 -5.06123,-4.52293 -4.84961,-5.59765 0.084,-0.42665 0.9683,-1.43647 1.96484,-2.24219 z m -14.69922,12.20313 c 0.38334,-0.007 0.84455,0.4625 1.94141,1.65039 1.01477,1.099 2.19068,2.52495 2.61328,3.16992 0.73274,1.1183 0.71697,1.20919 -0.33399,1.94531 -0.60612,0.42455 -1.48566,1.15559 -1.95507,1.625 -1.27576,1.27576 -1.83979,1.02802 -4.03516,-1.76953 -2.30286,-2.93453 -2.42926,-3.58754 -0.89063,-4.5957 0.61172,-0.40082 1.48135,-1.1005 1.9336,-1.55273 0.2933,-0.29331 0.49655,-0.46841 0.72656,-0.47266 z m -14.28516,12.07226 c 0.46297,0 2.37732,2.02049 3.9336,4.1504 l 1.14062,1.55859 -1.87695,1.60547 c -1.0318,0.88284 -2.19318,1.6007 -2.58203,1.5957 -0.69997,-0.009 -4.71485,-4.69481 -4.71485,-5.50391 0,-0.4809 3.52094,-3.40625 4.09961,-3.40625 z m -39.87695,7.8379 -2.96875,2.31445 c -1.63233,1.27196 -3.18021,2.55113 -3.43945,2.84375 -0.25924,0.29262 -2.06157,1.78241 -4.00586,3.31055 -1.94429,1.52814 -3.63991,2.91079 -3.76953,3.07226 -0.12962,0.16147 -1.60179,1.3845 -3.26953,2.71875 -1.66775,1.33424 -3.97762,3.21939 -5.13477,4.1875 -4.75535,3.9785 -6.15473,5.13678 -8.10156,6.70899 -1.12354,0.90733 -2.38766,1.96661 -2.8086,2.35546 -0.42094,0.38886 -2.45063,2.07893 -4.51172,3.75586 -2.06107,1.67693 -3.85475,3.16932 -3.98437,3.31641 -0.19627,0.22271 -6.31138,5.1974 -8.38867,6.82422 -0.33649,0.26353 -0.97284,0.80823 -1.41407,1.20898 -0.44121,0.40075 -1.96872,1.67266 -3.39453,2.82618 -1.42581,1.15351 -2.83498,2.3099 -3.13281,2.57031 -0.29783,0.2604 -1.34054,1.109 -2.31641,1.88672 -0.97585,0.77771 -2.64172,2.20687 -3.70117,3.17578 -1.05946,0.96892 -2.05435,1.76458 -2.21093,1.76758 -0.15657,0.003 -0.81451,0.48311 -1.4629,1.0664 -1.23457,1.11061 -3.27537,2.81768 -8.38671,7.01367 -1.68505,1.38329 -3.16921,2.63165 -3.29883,2.77539 -0.12962,0.14375 -1.93195,1.62467 -4.00586,3.29102 -2.07391,1.66635 -3.87819,3.14652 -4.00781,3.28906 -0.12962,0.14254 -1.40037,1.20924 -2.82618,2.3711 -1.4258,1.16186 -3.23009,2.69729 -4.00781,3.41015 -0.77771,0.71285 -1.54068,1.29588 -1.69726,1.29688 -0.15657,0.001 -0.80751,0.47922 -1.44532,1.0625 -2.15859,1.97406 -6.15817,5.29998 -6.86523,5.70898 -0.38668,0.22369 -1.0665,0.75528 -1.50977,1.17969 -1.24963,1.19646 -3.23426,2.86733 -7.33593,6.17773 -2.07391,1.67382 -3.87624,3.16347 -4.00586,3.31055 -0.12962,0.14709 -1.93196,1.63947 -4.00586,3.31641 -2.0739,1.67693 -3.98295,3.27242 -4.24219,3.54492 -0.25924,0.2725 -1.53194,1.3269 -2.82813,2.3418 -1.29618,1.0149 -2.46413,1.97364 -2.59375,2.13086 -0.12962,0.15721 -1.50707,1.30608 -3.0625,2.55273 -2.62179,2.10131 -5.80496,4.72437 -8.67578,7.15234 l -1.1875,1.00391 2.81055,3.39063 c 4.94841,5.96989 8.37821,10.14141 11.9707,14.5625 1.92744,2.37199 3.62502,4.31154 3.77149,4.31054 0.14646,-0.001 0.90197,-0.58597 1.67968,-1.29883 0.77772,-0.71284 2.58006,-2.24785 4.00586,-3.4121 1.42582,-1.16426 2.82801,-2.32945 3.11524,-2.58985 0.28723,-0.26041 3.23461,-2.70183 6.55078,-5.42383 6.84263,-5.61664 12.63809,-10.43127 14.37305,-11.94336 0.64809,-0.56484 2.76861,-2.29877 4.71289,-3.85156 1.94429,-1.55278 3.74662,-3.04663 4.00586,-3.32031 0.25924,-0.27367 2.06352,-1.75842 4.00781,-3.29883 1.94429,-1.54041 3.63992,-2.93848 3.76953,-3.10742 0.12962,-0.16895 1.53418,-1.3363 3.11914,-2.59375 1.58495,-1.25745 4.23511,-3.42112 5.89063,-4.8086 3.7221,-3.11944 4.0165,-3.36094 8.66601,-7.13867 2.07391,-1.68505 3.98296,-3.28883 4.24219,-3.5625 0.25924,-0.27368 2.06157,-1.75784 4.00586,-3.29883 1.94429,-1.54099 3.74857,-3.02515 4.00781,-3.29882 0.25924,-0.27368 2.05358,-1.7598 3.98828,-3.30078 1.9347,-1.541 3.86081,-3.11897 4.28125,-3.50782 0.42044,-0.38886 1.70113,-1.4807 2.84571,-2.42578 4.82012,-3.97998 8.24775,-6.794 8.81445,-7.23633 0.33305,-0.25995 0.86268,-0.68708 1.17773,-0.94922 0.31505,-0.26214 1.84323,-1.53483 3.39454,-2.82812 1.5513,-1.29329 3.09642,-2.56303 3.43359,-2.82227 0.33717,-0.25924 0.87879,-0.70711 1.20312,-0.99414 0.32433,-0.28704 1.85424,-1.54768 3.40039,-2.80273 1.54615,-1.25506 3.05374,-2.50477 3.35157,-2.77735 0.29783,-0.27257 1.34107,-1.13244 2.3164,-1.91015 0.97533,-0.77772 2.66037,-2.15712 3.74414,-3.06445 1.08378,-0.90733 2.88819,-2.39149 4.01172,-3.29883 1.12353,-0.90733 2.38766,-1.96662 2.8086,-2.35547 0.42093,-0.38886 2.45258,-2.08089 4.51367,-3.75781 2.06107,-1.67694 3.8528,-3.16932 3.98242,-3.31641 0.12962,-0.14708 1.93195,-1.63053 4.00586,-3.29688 2.07391,-1.66633 3.87819,-3.14591 4.00781,-3.28906 0.12962,-0.14314 0.91359,-0.81777 1.74219,-1.49804 l 1.50586,-1.23633 -8.26758,-9.36133 c -4.54682,-5.14841 -8.87368,-9.98155 -9.61523,-10.74219 z m 10.94727,15.68945 2.02734,2.25781 c 2.92474,3.25875 3.00897,3.81212 0.87109,5.66016 -2.09514,1.81113 -2.59648,1.89106 -3.5332,0.57031 -0.38128,-0.53758 -1.3643,-1.7365 -2.18359,-2.66406 -0.8193,-0.92756 -1.3887,-1.91841 -1.26563,-2.20313 0.12307,-0.28471 1.09282,-1.2169 2.1543,-2.07031 z m -14.37305,12.29492 c 0.26909,0 0.97303,0.68873 1.56445,1.53125 0.59142,0.84253 1.30641,1.74467 1.58789,2.00391 1.85741,1.71064 1.85142,2.08673 -0.0547,3.7832 -2.21263,1.96927 -3.19396,2.05128 -4.30079,0.35742 -0.45965,-0.70342 -1.31319,-1.79516 -1.89648,-2.42578 -0.58328,-0.63063 -1.06055,-1.41492 -1.06055,-1.74414 0,-0.65851 3.37878,-3.50586 4.16016,-3.50586 z m -14.36719,11.87109 c 0.3129,0.0709 0.5407,0.41885 0.91211,0.97266 0.39118,0.58329 1.37057,1.78852 2.17578,2.67774 0.8052,0.8892 1.4629,1.84373 1.46289,2.12109 -10e-6,0.27736 -0.73153,1.08592 -1.625,1.79883 -0.89348,0.7129 -2.00513,1.28693 -2.47265,1.27343 -1.1444,-0.033 -4.353,-3.72219 -4.3711,-5.02539 -0.008,-0.57307 0.25017,-1.2648 0.57422,-1.53906 2.06305,-1.74611 2.82226,-2.3975 3.34375,-2.2793 z m -14.44922,12.36524 c 0.22487,0.0635 0.43697,0.18858 0.58399,0.35937 0.29403,0.34157 1.27099,1.4689 2.16992,2.50586 0.89893,1.03695 1.63456,2.13429 1.63476,2.43946 2.1e-4,0.30518 -0.79141,1.20731 -1.75781,2.0039 -0.9664,0.79659 -1.99203,1.44922 -2.28125,1.44922 -0.80787,0 -4.44747,-4.53596 -4.41797,-5.50586 0.0253,-0.83344 1.98332,-2.69587 3.41211,-3.24414 0.19416,-0.0745 0.43139,-0.0713 0.65625,-0.008 z m -14.66015,11.88672 c 0.19272,-0.0222 0.35489,0.002 0.47265,0.084 1.01793,0.70653 3.96485,4.70617 3.96485,5.38086 0,0.3962 -0.68873,1.23867 -1.53125,1.8711 -0.84253,0.63242 -1.76904,1.28893 -2.0586,1.45898 -0.55102,0.32359 -4.54089,-3.95119 -4.8164,-5.16016 -0.23736,-1.0415 2.61966,-3.47962 3.96875,-3.63476 z m -14.67774,11.97656 c 1.10444,0.0259 5.05276,4.92285 4.67383,5.79688 -0.12945,0.2986 -0.83444,1.01819 -1.56836,1.59961 -2.20296,1.74522 -2.50488,1.6897 -4.73828,-0.8711 -1.16212,-1.33248 -2.1893,-2.62696 -2.2832,-2.87695 -0.27889,-0.7425 2.86677,-3.67304 3.91601,-3.64844 z m -14.52539,11.76953 c 0.53204,-0.009 4.88867,4.99339 4.88867,5.61328 0,0.18096 -0.58396,0.87219 -1.29687,1.53711 -1.49039,1.39008 -3.41293,2.47376 -3.42383,1.92969 -0.004,-0.20354 -0.95859,-1.4282 -2.12109,-2.72266 -1.16251,-1.29446 -2.11329,-2.55888 -2.11329,-2.80859 0,-0.59124 3.37561,-3.53703 4.06641,-3.54883 z m -14.36328,12.2461 c 0.44059,0 1.24338,0.58201 1.7832,1.29492 0.53982,0.71291 1.40396,1.79314 1.91992,2.39844 1.31946,1.54798 1.19105,2.0731 -0.91992,3.76953 -1.8026,1.44861 -2.84808,1.86388 -2.86328,1.13867 -0.004,-0.19443 -0.95858,-1.41257 -2.12109,-2.70703 -1.16251,-1.29447 -2.11328,-2.4985 -2.11328,-2.67578 0,-0.60116 3.50856,-3.21875 4.31445,-3.21875 z m 207.69141,7.62304 c -0.81894,10e-4 -11.26718,8.29645 -11.39258,9.08594 -0.0313,0.1973 2.91168,2.32227 6.54102,4.72266 l 6.59961,4.36523 1.17773,-0.85547 c 3.79682,-2.75521 3.9138,-2.92516 3.09375,-4.44922 -0.90271,-1.67768 -5.69771,-11.98892 -5.97266,-12.84375 -0.006,-0.0177 -0.0204,-0.0254 -0.0469,-0.0254 z m -222.21094,4.21875 c 0.56107,0.0788 1.12882,0.49233 1.69922,1.23828 0.54513,0.71291 1.4636,1.88131 2.03906,2.59766 0.57545,0.71635 1.04492,1.49394 1.04492,1.72656 0,0.23261 -0.82424,1.07802 -1.83203,1.87891 -1.00779,0.8009 -2.06707,1.45131 -2.35547,1.44531 -0.51527,-0.0106 -2.93912,-2.6852 -3.78516,-4.17773 -0.23708,-0.41825 -0.66025,-0.91284 -0.9414,-1.09766 -0.32615,-0.21441 -0.10897,-0.6403 0.60156,-1.17773 0.61249,-0.46327 1.45603,-1.21431 1.87305,-1.66797 0.5421,-0.58975 1.09517,-0.84441 1.65625,-0.76563 z m 229.29883,11.27344 -1.83203,1.4707 c -1.00742,0.80958 -1.72636,1.64333 -1.59766,1.85157 0.32995,0.53386 4.41725,3.25586 4.88867,3.25586 0.2145,0 0.6558,0.31817 0.97852,0.70703 0.59399,0.71571 1.63354,1.00483 1.27148,0.35351 -0.10808,-0.19442 -0.98711,-1.99233 -1.95312,-3.99609 z m -243.9375,0.46875 c 0.73159,-0.0347 5.06624,5.08822 5.02734,5.94141 -0.0101,0.22193 -0.95404,1.09301 -2.09961,1.93554 -1.14556,0.84252 -2.15348,1.53321 -2.23828,1.53321 -0.29907,0 -3.42838,-3.92098 -4.0625,-5.08985 -0.606,-1.11705 -0.53964,-1.27385 1.17773,-2.74414 1.00149,-0.85739 1.99005,-1.56617 2.19532,-1.57617 z"
       transform="scale(0.26458333)" /><path
       id="path43"
       style="fill:none;stroke:#beb41e;stroke-width:3.77953;stroke-linejoin:round;stroke-dasharray:none;stroke-opacity:1;paint-order:stroke markers fill"
       d="m 668.81837,548.16407 c -0.0639,-2.1e-4 -0.11404,0.0237 -0.14649,0.0703 -0.16967,0.24384 -2.00421,1.80631 -4.07812,3.47266 -2.0739,1.66635 -3.87624,3.15051 -4.00586,3.29883 -0.18425,0.21083 -4.67987,3.87507 -8.25,6.72461 -0.25924,0.20692 -1.31852,1.11083 -2.35547,2.00976 -1.03696,0.89894 -2.02817,1.63457 -2.20117,1.63477 -0.17302,2.1e-4 -1.92806,-0.95307 -3.90039,-2.11914 -1.97232,-1.16607 -4.9059,-2.66011 -6.51953,-3.32032 -1.61363,-0.6602 -3.35848,-1.3983 -3.87696,-1.63867 -3.31457,-1.53666 -11.19428,-2.34553 -13.66992,-1.40429 l -1.24023,0.4707 0.94726,1.29687 c 0.5211,0.71267 1.43701,1.86245 2.03516,2.55664 0.59814,0.69419 1.72424,2.05561 2.50195,3.02344 0.77772,0.96782 2.15517,2.64474 3.0625,3.72852 0.90734,1.08377 2.39345,2.88555 3.30078,4.0039 0.90734,1.11835 2.11243,2.54751 2.67969,3.17578 0.9159,1.01442 1.04116,2.48243 0.21094,2.48243 -0.16934,0 -0.83697,0.48085 -1.48242,1.06836 -4.00304,3.64369 -6.58506,5.30099 -6.59766,4.23437 -0.002,-0.19443 -1.01116,-1.54229 -2.24023,-2.99414 -1.22908,-1.45185 -2.97548,-3.5509 -3.88282,-4.66602 -0.90733,-1.11511 -2.24732,-2.68515 -2.97656,-3.48828 -0.72925,-0.80313 -1.6751,-2.04295 -2.10352,-2.75586 -0.4284,-0.71291 -0.91784,-1.29687 -1.08593,-1.29687 -0.16808,0 -0.89671,-0.85206 -1.61914,-1.89453 l -1.3125,-1.89649 -0.99024,2.01368 c -0.87247,1.77515 -0.99023,2.85474 -0.99023,9.1289 0,4.61293 0.1897,7.34847 0.53711,7.77735 0.29473,0.36386 0.68775,1.58017 0.87304,2.70312 0.1853,1.12295 0.63129,2.60711 0.99219,3.29883 0.36089,0.69172 0.65816,1.54485 0.66016,1.89453 0.002,0.34968 0.34869,1.36294 0.77148,2.25391 0.4228,0.89098 0.68659,1.67814 0.58789,1.74804 -0.30804,0.21805 -9.07137,7.44129 -10.3125,8.5 -0.64809,0.55284 -2.87531,2.38226 -4.94922,4.06641 -2.0739,1.68414 -3.98294,3.28688 -4.24218,3.56055 -0.25924,0.27368 -2.06158,1.75842 -4.00586,3.29882 -1.94429,1.54041 -3.64187,2.93082 -3.77149,3.0918 -0.12962,0.161 -1.59983,1.3845 -3.26758,2.71875 -3.06967,2.45583 -5.50821,4.47524 -9.36132,7.75 -1.16701,0.99184 -3.62975,2.9961 -5.47071,4.45313 -3.28233,2.59782 -4.03237,3.33099 -4.04687,3.95312 -0.007,0.30097 3.79897,5.14999 5.08008,6.47266 0.3491,0.36042 0.97981,1.18132 1.40234,1.82617 0.74234,1.13296 0.72119,1.21585 -0.66797,2.41016 -2.52881,2.17409 -4.16111,3.52604 -7.74219,6.41992 -1.92478,1.55543 -3.71146,3.05249 -3.9707,3.32617 -0.25923,0.27367 -2.0506,1.75784 -3.98047,3.29883 -1.92987,1.541 -4.03263,3.28257 -4.67383,3.87109 l -1.16601,1.07031 1.18554,1.28711 c 0.65204,0.70768 4.6449,5.20996 8.87305,10.00586 4.22817,4.79592 8.03918,9.09933 8.46875,9.5625 0.74769,0.80616 0.83213,0.79544 1.97852,-0.23632 1.25161,-1.12646 3.27161,-2.8158 8.40429,-7.0293 1.68505,-1.38329 3.16921,-2.63165 3.29883,-2.77539 0.12962,-0.14376 1.93195,-1.62894 4.00586,-3.29883 2.07391,-1.6699 4.05349,-3.30644 4.39844,-3.63867 0.69411,-0.66852 1.41019,-0.39009 2.35351,0.91797 0.34322,0.47592 1.40445,1.78122 2.35743,2.90039 0.95297,1.11917 2.45899,2.91617 3.34765,3.99414 1.76106,2.13623 2.01772,2.25561 2.94727,1.36328 0.34257,-0.32884 2.31867,-1.9721 4.39258,-3.65234 2.0739,-1.68026 3.87624,-3.16892 4.00586,-3.30665 0.12962,-0.13773 1.9339,-1.62189 4.00781,-3.29882 2.07391,-1.67694 3.87624,-3.1814 4.00586,-3.3418 0.12962,-0.16041 1.59984,-1.38256 3.26758,-2.7168 1.66774,-1.33425 3.97957,-3.21744 5.13672,-4.18554 1.15714,-0.96812 2.99918,-2.50282 4.09375,-3.41016 1.09457,-0.90733 2.49118,-2.07333 3.10351,-2.5918 3.94041,-3.33643 4.89222,-3.56339 7.28516,-1.73828 1.48953,1.13607 3.06295,2.17316 12.95508,8.54883 2.19292,1.41338 4.05813,2.74041 4.14453,2.94727 0.0864,0.20685 0.35642,0.375 0.59961,0.375 0.38947,0 3.61264,1.95146 4.89843,2.96484 0.43497,0.34281 11.22662,7.41565 21.91797,14.36523 2.46277,1.60085 4.79669,3.13595 5.18555,3.41211 0.38886,0.27616 2.90695,1.93676 5.59766,3.68946 l 4.89257,3.18554 1.23633,-1.04492 c 0.67939,-0.57438 2.24464,-1.89891 3.47852,-2.94531 1.23388,-1.04639 2.61133,-2.12074 3.0625,-2.38672 0.50717,-0.29899 0.64103,-0.62181 0.34961,-0.8457 -0.25924,-0.19918 -1.84261,-2.05891 -3.51953,-4.13282 -1.67694,-2.0739 -3.16306,-3.87624 -3.30078,-4.00586 -0.21475,-0.2021 -5.44266,-6.60795 -6.8418,-8.38281 -0.26254,-0.33305 -0.73807,-0.89802 -1.05664,-1.2539 -0.31858,-0.35587 -1.64743,-1.97659 -2.95313,-3.60352 -1.30569,-1.62692 -3.16665,-3.90535 -4.13476,-5.0625 -3.89862,-4.65988 -5.13076,-6.14736 -6.70899,-8.09375 -0.90733,-1.11899 -2.46129,-2.98631 -3.45312,-4.15039 -0.99184,-1.16407 -2.9961,-3.62193 -4.45313,-5.46289 -1.45704,-1.84095 -2.77664,-3.45437 -2.93359,-3.58399 -0.15694,-0.12962 -1.49547,-1.74261 -2.97266,-3.58593 -2.42169,-3.02192 -3.31163,-4.89844 -2.32422,-4.89844 0.19888,0 1.45354,-0.95453 2.78711,-2.12109 1.33357,-1.16657 2.68466,-2.1211 3.00196,-2.1211 0.31731,0 1.02406,0.49184 1.57226,1.0918 1.92787,2.10987 5.24426,6.10153 5.64649,6.79687 0.22368,0.38668 0.75332,1.06727 1.17773,1.51368 0.94348,0.99236 4.44893,5.16956 4.78906,5.70703 0.32792,0.51817 3.34032,4.18078 4.23242,5.14648 0.38885,0.42094 2.07893,2.4526 3.75586,4.51367 1.67693,2.06108 3.1611,3.85281 3.29883,3.98243 0.22641,0.21306 5.68802,6.90741 6.84375,8.38867 0.26254,0.33649 0.80296,0.97284 1.20117,1.41406 0.3982,0.44122 1.98907,2.38561 3.53516,4.32031 1.54608,1.9347 3.12872,3.86367 3.51758,4.28516 0.38886,0.42148 1.66156,1.95516 2.82812,3.41015 1.16658,1.45499 2.26997,2.65733 2.45313,2.66993 1.01048,0.0694 4.0859,-3.81183 5.02539,-6.3418 0.5776,-1.55544 1.3725,-3.45451 1.76758,-4.2207 1.11428,-2.1609 1.35119,-5.51184 0.51953,-7.3711 -0.92253,-2.06241 -3.16797,-9.23367 -3.16797,-10.11914 0,-0.37285 -0.17506,-0.67773 -0.39062,-0.67773 -0.21556,0 -0.62667,-0.9002 -0.91211,-2.00196 -1.1347,-4.3799 -2.21338,-7.66718 -2.56641,-7.8164 -0.20444,-0.0864 -0.37014,-0.40459 -0.36914,-0.70703 0.003,-0.67623 -2.29119,-8.29329 -2.79102,-9.26953 -0.19909,-0.38886 -0.94018,-2.61609 -1.64843,-4.94922 -0.70824,-2.33315 -1.45859,-4.56749 -1.66602,-4.96485 -0.20742,-0.39737 -0.53404,-1.45859 -0.72656,-2.35742 -0.19251,-0.89882 -0.5223,-1.84864 -0.73242,-2.11133 -0.21012,-0.26268 -0.63924,-1.53537 -0.95508,-2.82812 -0.31584,-1.29274 -0.73194,-2.56304 -0.92383,-2.82227 -0.19189,-0.25924 -0.50387,-1.21375 -0.69336,-2.12109 -0.18949,-0.90733 -0.51644,-1.86427 -0.72656,-2.12695 -0.21012,-0.26268 -0.64119,-1.53539 -0.95703,-2.82813 -0.31584,-1.29275 -0.79836,-2.63736 -1.07422,-2.98828 -0.38657,-0.49175 0.11803,-1.19649 2.20312,-3.07617 2.63738,-2.37758 2.68355,-2.46297 1.85742,-3.36914 -0.46608,-0.51124 -2.21765,-2.62727 -3.89257,-4.70118 -1.67493,-2.0739 -3.26231,-4.0155 -3.52735,-4.3164 -0.26504,-0.30091 -1.22353,-1.446 -2.13086,-2.54492 -0.90734,-1.09893 -2.33536,-2.76201 -3.17187,-3.69532 -0.83651,-0.93331 -1.52525,-1.82585 -1.53125,-1.98242 -0.006,-0.15658 -0.48703,-0.8145 -1.07031,-1.46289 -1.11062,-1.23457 -2.81768,-3.27537 -7.01368,-8.38672 -1.38329,-1.68505 -2.62536,-3.16921 -2.75976,-3.29883 -0.21517,-0.20752 -5.76606,-7.01389 -6.72656,-8.24804 -1.33906,-1.72054 -2.51395,-2.83448 -2.96094,-2.83594 z m -222.50586,4.41602 -5.16016,4.31445 c -2.83834,2.37297 -5.45549,4.59968 -5.81641,4.94922 -0.55662,0.53907 0.15828,1.56795 4.71289,6.77539 2.95331,3.37661 5.54148,6.14991 5.75,6.16211 0.34336,0.02 3.02383,-2.16942 9.43946,-7.70899 l 2.27734,-1.96875 -3.91406,-4.45898 c -2.15295,-2.45298 -4.67372,-5.27038 -5.60156,-6.26172 z m 12.52539,14.20898 c -0.27862,0 -8.66253,6.89611 -11.41016,9.38477 -0.1916,0.17354 0.23133,0.95818 0.94141,1.74414 3.95436,4.37698 10.4061,11.82492 11.42578,13.1914 0.64809,0.86852 1.44544,1.5848 1.77148,1.5918 0.45061,0.009 8.27454,-6.35543 11.62305,-9.45508 0.25314,-0.23433 -0.43146,-1.34492 -1.65039,-2.67969 -1.14515,-1.25399 -3.45947,-3.83539 -5.14453,-5.73632 -6.08323,-6.86262 -7.19102,-8.04102 -7.55664,-8.04102 z m 15.26562,17.05078 -2.79492,2.39258 c -1.53667,1.31602 -4.11999,3.43712 -5.74023,4.71484 -1.62024,1.27773 -2.94532,2.46542 -2.94532,2.63867 0,0.17326 1.00691,1.40421 2.23828,2.73633 1.23138,1.33212 2.95454,3.23976 3.82813,4.23828 0.87359,0.99853 2.35775,2.67225 3.29883,3.71875 0.94108,1.0465 3.09034,3.46948 4.77539,5.38477 1.68505,1.9153 3.56134,4.02777 4.16992,4.69531 0.60857,0.66754 2.12548,2.38083 3.37109,3.80664 1.24561,1.42581 2.76253,3.14169 3.3711,3.8125 0.60858,0.67081 2.38012,2.67572 3.93554,4.45508 1.55544,1.77937 3.1463,3.56857 3.53516,3.97656 0.38885,0.40799 2.08448,2.31469 3.76953,4.23633 1.68505,1.92164 3.38263,3.84209 3.77149,4.26758 0.58167,0.63647 4.25128,4.75872 7.54101,8.4707 0.38885,0.43877 1.87302,2.13454 3.29883,3.76954 1.42582,1.63498 2.9217,3.31308 3.32227,3.72851 0.40056,0.41543 3.15591,3.51272 6.125,6.88281 2.96908,3.3701 5.62676,6.33842 5.90625,6.59766 0.27948,0.25923 2.5082,2.79534 4.95117,5.63477 2.44297,2.83941 4.75958,5.50227 5.14844,5.91796 0.38885,0.41569 2.08643,2.31867 3.77148,4.22852 1.68505,1.90985 4.04377,4.54925 5.24219,5.86523 1.19843,1.316 2.78929,3.12576 3.53515,4.02149 0.74587,0.89574 1.99182,2.28624 2.76954,3.08984 0.7777,0.80359 2.04923,2.19093 2.82617,3.08399 3.9942,4.59112 12.2217,13.90953 12.46289,14.11523 0.30845,0.26307 9.92084,11.11257 12.08008,13.63477 0.76062,0.88848 1.70098,1.95488 2.08984,2.36914 0.38886,0.41426 2.08643,2.32445 3.77148,4.24609 1.68505,1.92164 3.38068,3.83239 3.76954,4.2461 0.38886,0.41372 2.08643,2.31663 3.77148,4.22851 1.68505,1.91188 4.04377,4.55514 5.24219,5.875 1.19843,1.31985 2.78928,3.13666 3.53515,4.03711 0.74586,0.90046 1.67561,1.9724 2.06446,2.38086 1.07812,1.13246 7.19399,7.9986 9.00195,10.10547 0.88121,1.02691 1.91973,2.21067 2.30859,2.63086 0.38886,0.42018 2.08644,2.31463 3.77149,4.21094 1.68505,1.89629 4.04376,4.53061 5.24219,5.85351 1.19842,1.3229 2.78929,3.14251 3.53515,4.04297 0.74586,0.90045 1.6756,1.96831 2.06446,2.375 0.38886,0.40669 2.06175,2.2606 3.71875,4.11914 l 3.01367,3.37891 1.29101,-1.04102 c 0.7101,-0.5733 3.31513,-2.73086 5.78907,-4.79297 l 4.49804,-3.74804 -1.43554,-1.67188 c -0.78906,-0.91914 -2.31773,-2.62639 -3.39844,-3.79297 -1.08071,-1.16657 -5.02546,-5.61905 -8.76563,-9.89648 -3.74016,-4.27743 -6.92742,-7.88405 -7.08203,-8.01367 -0.15462,-0.12962 -2.69242,-2.99319 -5.64062,-6.36329 -2.9482,-3.37009 -5.6939,-6.46782 -6.09961,-6.88281 -0.80153,-0.81987 -0.99986,-1.04337 -8.94922,-10.08594 -2.96267,-3.37009 -5.51013,-6.23366 -5.66211,-6.36328 -0.30845,-0.26307 -9.92084,-11.11257 -12.08008,-13.63476 -0.76062,-0.88848 -1.70098,-1.95528 -2.08984,-2.3711 -0.38885,-0.41581 -3.14767,-3.49962 -6.12891,-6.85351 -2.98125,-3.3539 -5.73809,-6.4377 -6.12695,-6.85352 -0.38886,-0.41581 -1.32434,-1.48458 -2.08008,-2.37304 -0.75573,-0.88848 -2.24184,-2.57774 -3.30078,-3.75586 -1.05893,-1.17812 -2.55474,-2.87571 -3.32617,-3.77149 -0.77143,-0.89578 -4.1377,-4.70393 -7.48047,-8.46289 -3.34277,-3.75896 -7.3797,-8.30924 -8.96875,-10.11133 -1.58904,-1.80209 -4.90248,-5.52292 -7.36524,-8.26758 -4.06851,-4.53419 -9.26746,-10.37917 -11.24609,-12.64648 -1.55511,-1.78201 -5.98309,-6.80129 -6.90039,-7.82031 -4.20802,-4.6746 -7.89485,-8.82851 -9.23828,-10.41016 -0.88078,-1.03695 -1.72209,-1.99147 -1.86914,-2.12109 -0.36902,-0.32527 -8.12219,-9.047 -11.28321,-12.69336 -1.42582,-1.64473 -2.81307,-3.22528 -3.08398,-3.51367 -0.27091,-0.28841 -2.47162,-2.75262 -4.89063,-5.47461 -2.41899,-2.72201 -5.06912,-5.69033 -5.88867,-6.59766 -0.81956,-0.90734 -3.91288,-4.40725 -6.875,-7.77734 -2.96212,-3.3701 -5.53466,-6.23565 -5.7168,-6.36719 -0.18215,-0.13154 -0.94785,-1.01496 -1.70117,-1.96289 z m -0.4082,4.71875 c 0.40794,0.0355 0.85303,0.33999 1.29492,0.89453 0.49925,0.62652 2.21537,2.60347 3.81445,4.39258 6.12064,6.84792 11.39135,12.78745 14.69141,16.55664 1.55543,1.77656 3.99411,4.5233 5.41992,6.10352 1.42581,1.58022 3.9712,4.44302 5.65625,6.36328 1.68505,1.92026 3.38264,3.83626 3.77149,4.25586 0.38886,0.4196 2.08448,2.33422 3.76953,4.25586 1.68505,1.92164 3.38262,3.83293 3.77148,4.24609 0.38886,0.41315 1.97973,2.20982 3.53516,3.99414 1.55543,1.78432 3.1463,3.58247 3.53515,3.99414 0.38886,0.41166 2.08449,2.32225 3.76954,4.2461 1.68504,1.92385 3.38262,3.84692 3.77148,4.27343 0.38885,0.42651 1.34645,1.4951 2.12695,2.375 0.78052,0.8799 3.02353,3.40194 4.98633,5.60547 1.96281,2.20352 4.18892,4.72818 4.94531,5.60938 0.75641,0.8812 1.70296,1.94048 2.10352,2.35547 0.40057,0.41499 3.15458,3.5127 6.12109,6.88281 2.96651,3.3701 5.50497,6.23366 5.64063,6.36328 0.41945,0.40078 11.00779,12.34383 12.25586,13.82422 0.6481,0.76873 1.49591,1.74462 1.88476,2.16797 0.38886,0.42336 3.14572,3.51329 6.12696,6.86719 2.98123,3.35389 5.73809,6.43964 6.12695,6.85546 0.38885,0.41581 1.3263,1.48263 2.08203,2.3711 0.75574,0.88848 2.2399,2.58101 3.29883,3.76172 1.05894,1.18071 3.30519,3.70478 4.99023,5.60937 1.68505,1.90459 3.92987,4.43872 4.99024,5.63086 5.38821,6.05773 7.26427,8.17568 9.85547,11.12695 1.55543,1.77158 3.14629,3.56844 3.53515,3.99219 1.18576,1.29214 4.31742,4.81027 7.54297,8.47657 1.68505,1.91528 3.56136,4.02777 4.16992,4.69531 0.60858,0.66753 2.12549,2.38083 3.3711,3.80664 1.24561,1.42582 2.76251,3.14169 3.37109,3.8125 0.60858,0.67081 2.38012,2.67572 3.93555,4.45508 1.55543,1.77935 3.14434,3.56857 3.5332,3.97656 0.38886,0.40799 2.08644,2.30981 3.77149,4.22656 1.68506,1.91675 3.54959,4.01928 4.14258,4.67188 0.59297,0.65261 1.0159,1.5009 0.9414,1.88476 -0.0745,0.38386 -0.36167,0.77304 -0.63867,0.86524 -0.55223,0.18383 -1.20684,-0.50062 -9.12305,-9.51368 -2.9619,-3.37229 -5.51013,-6.23561 -5.66211,-6.36523 -0.35078,-0.29917 -10.71149,-11.95959 -12.28515,-13.82617 -0.6481,-0.76874 -1.49591,-1.74992 -1.88477,-2.17969 -0.38886,-0.42977 -1.55484,-1.73243 -2.5918,-2.89648 -3.7423,-4.20104 -8.17532,-9.16803 -9.26171,-10.37891 -3.26975,-3.64438 -7.02988,-7.91989 -8.23047,-9.35742 -0.7489,-0.8967 -1.99768,-2.29839 -2.77539,-3.11328 -0.77771,-0.8149 -2.68676,-2.93409 -4.24219,-4.71094 -1.55543,-1.77685 -3.88936,-4.42319 -5.18555,-5.88086 -1.2962,-1.45767 -3.62816,-4.09496 -5.18359,-5.85938 -1.55544,-1.76441 -3.15555,-3.54845 -3.55469,-3.96484 -0.96837,-1.01021 -7.47998,-8.35157 -9.21094,-10.38476 -0.75641,-0.88848 -1.69317,-1.96254 -2.08203,-2.38477 -0.38886,-0.42223 -1.55679,-1.71876 -2.59375,-2.88281 -1.03695,-1.16407 -3.36892,-3.78061 -5.18359,-5.81446 -1.81467,-2.03385 -3.617,-4.06298 -4.00586,-4.50781 -4.57133,-5.22929 -5.72345,-6.53661 -6.67188,-7.58203 -0.60857,-0.67081 -2.37815,-2.68016 -3.93359,-4.46484 -1.55543,-1.78471 -3.99607,-4.54146 -5.42188,-6.12696 -1.4258,-1.58549 -3.75778,-4.21288 -5.18359,-5.83789 -1.42581,-1.62502 -2.81347,-3.19768 -3.08398,-3.49414 -1.33847,-1.46692 -8.21419,-9.22256 -9.43165,-10.63867 -0.76384,-0.88848 -1.70684,-1.95528 -2.0957,-2.37109 -1.31017,-1.40102 -11.53733,-12.90582 -12.72656,-14.31641 -0.6481,-0.76873 -1.49786,-1.74267 -1.88672,-2.16602 -0.38886,-0.42336 -3.14572,-3.51524 -6.12695,-6.86914 -2.98124,-3.35389 -5.7381,-6.4377 -6.12696,-6.85351 -0.38885,-0.41582 -1.3263,-1.48262 -2.08203,-2.3711 -0.75574,-0.88847 -2.2399,-2.58101 -3.29883,-3.76172 -1.05893,-1.18071 -3.23717,-3.62133 -4.83984,-5.42187 -1.60267,-1.80053 -3.87821,-4.33271 -5.05664,-5.62891 -2.30373,-2.53393 -2.61098,-3.39394 -1.38281,-3.86523 0.12664,-0.0486 0.25855,-0.0665 0.39453,-0.0547 z m -5.60352,4.41016 c 0.96675,0.0931 3.15549,2.37377 8.67188,8.67969 1.68505,1.92621 3.38067,3.84603 3.76953,4.26562 0.38886,0.4196 2.08644,2.33422 3.77148,4.25586 1.68505,1.92165 3.38264,3.8338 3.77149,4.24805 0.38886,0.41426 1.33657,1.48066 2.10742,2.36914 0.77085,0.88847 3.00958,3.41757 4.97461,5.62109 1.96503,2.20353 4.19709,4.71888 4.96094,5.58984 1.83843,2.09626 2.67239,3.03201 6.53515,7.3418 1.79293,2.00042 3.65443,4.13883 4.13672,4.75195 0.4823,0.61314 1.56085,1.83264 2.39649,2.71094 0.83563,0.8783 2.15469,2.32423 2.93164,3.21094 6.60207,7.53488 12.23428,13.90658 12.46289,14.10156 0.35079,0.29917 10.70953,11.95959 12.2832,13.82617 0.64809,0.76873 1.49786,1.74267 1.88672,2.16602 0.38886,0.42336 3.14571,3.51524 6.12695,6.86914 2.98124,3.3539 5.7381,6.44379 6.12696,6.86719 1.54458,1.68177 6.54647,7.37324 7.83007,8.91016 0.7489,0.8967 1.99769,2.29643 2.7754,3.11132 0.77771,0.8149 2.68675,2.93605 4.24218,4.71289 1.55543,1.77685 3.88936,4.42319 5.18555,5.88086 1.29619,1.45767 3.62817,4.09952 5.18359,5.8711 1.55543,1.77158 3.1463,3.56845 3.53516,3.99218 1.18576,1.29214 4.31546,4.81027 7.54102,8.47657 1.68504,1.9153 3.56329,4.02778 4.17187,4.69531 0.60858,0.66753 2.12549,2.38083 3.37109,3.80664 1.24562,1.42581 2.76252,3.14469 3.3711,3.81836 0.60857,0.67367 2.48487,2.77781 4.16992,4.67578 1.68505,1.89797 3.27762,3.67901 3.53906,3.95899 0.26144,0.27998 1.85231,2.10063 3.53516,4.04492 1.68284,1.94429 3.17956,3.63991 3.32617,3.76953 0.26145,0.23115 6.69851,7.45673 10.73438,12.04883 1.12509,1.28017 3.274,3.70557 4.77539,5.39062 8.80274,9.87962 9.36849,10.59484 8.875,11.18946 -0.2716,0.32726 -0.66427,0.5957 -0.87305,0.5957 -0.20879,0 -2.6708,-2.59972 -5.4707,-5.77539 -2.79991,-3.17567 -5.21646,-5.88015 -5.3711,-6.00977 -0.15465,-0.12962 -2.03716,-2.25012 -4.18359,-4.71289 -4.49176,-5.15374 -9.36129,-10.62958 -10.43359,-11.73242 -0.40571,-0.41725 -3.14945,-3.51467 -6.09766,-6.88477 -2.9482,-3.37009 -5.48203,-6.23366 -5.63086,-6.36328 -0.31143,-0.27124 -10.00448,-11.21711 -12.07422,-13.63476 -0.76062,-0.88847 -1.70098,-1.95528 -2.08984,-2.3711 -0.38885,-0.41582 -3.14767,-3.50157 -6.12891,-6.85547 -2.98125,-3.35389 -5.73809,-6.44378 -6.12695,-6.86718 -1.54458,-1.68177 -6.54647,-7.37324 -7.83008,-8.91016 -0.7489,-0.8967 -1.99768,-2.29839 -2.77539,-3.11328 -0.77772,-0.8149 -2.68676,-2.9341 -4.24219,-4.71094 -1.55543,-1.77685 -3.8874,-4.42319 -5.18359,-5.88086 -1.29619,-1.45767 -3.63012,-4.09496 -5.18555,-5.85937 -1.55543,-1.76442 -3.15875,-3.54846 -3.56445,-3.96485 -0.40571,-0.41639 -3.1541,-3.51466 -6.10743,-6.88476 -2.95331,-3.3701 -5.59101,-6.35739 -5.86132,-6.63867 -0.27031,-0.28127 -1.58422,-1.76543 -2.91993,-3.29883 -1.3357,-1.53339 -2.92657,-3.32882 -3.53515,-3.99024 -1.11548,-1.21232 -6.19605,-6.91181 -7.78906,-8.73828 -0.47269,-0.54196 -2.02537,-2.32398 -3.45118,-3.95898 -1.4258,-1.63499 -2.91881,-3.31309 -3.3164,-3.72852 -0.39759,-0.41543 -2.30663,-2.5582 -4.24219,-4.76172 -1.93556,-2.20353 -4.39755,-4.96038 -5.4707,-6.12695 -1.07315,-1.16657 -2.55368,-2.8622 -3.29102,-3.76953 -0.73735,-0.90734 -1.46301,-1.7571 -1.61328,-1.88672 -0.31208,-0.2692 -7.10461,-7.90216 -9.19531,-10.33399 -0.76384,-0.88846 -1.70685,-1.95722 -2.09571,-2.37304 -1.31017,-1.40101 -11.53733,-12.90387 -12.72656,-14.31446 -0.64809,-0.76872 -1.4959,-1.73839 -1.88476,-2.15429 -3.48117,-3.72325 -7.09453,-8.22034 -6.95118,-8.65039 0.12905,-0.38714 0.31447,-0.59938 0.63672,-0.56836 z m 177.92969,15.29883 c 0.93705,0 4.66797,4.60201 4.66797,5.75781 0,0.39578 -0.74092,1.2251 -1.64648,1.8418 -0.90556,0.61669 -1.64839,1.28017 -1.65039,1.4746 -0.005,0.57862 -0.65993,0.35109 -1.44141,-0.5 -1.49011,-1.62282 -3.74609,-4.71777 -3.74609,-5.13867 0,-0.53255 3.22494,-3.43554 3.8164,-3.43554 z m -14.59961,12.26953 c 1.01764,-0.0184 4.6543,3.96635 4.6543,5.09961 0,0.49128 -0.77551,1.55647 -1.72461,2.36718 -0.9491,0.8107 -1.88466,1.47461 -2.08008,1.47461 -0.38807,0 -4.17722,-4.60345 -4.53515,-5.50976 -0.27486,-0.69597 2.64297,-3.41284 3.68554,-3.43164 z m -13.99804,11.77343 c 0.44377,-0.0966 0.74127,-0.01 0.74804,0.34961 0.004,0.19443 0.85343,1.2898 1.88672,2.43555 1.0333,1.14575 1.87891,2.34879 1.87891,2.67188 0,0.32308 -0.8265,1.24151 -1.83594,2.04101 -2.24651,1.77927 -2.55331,1.79082 -3.79102,0.15625 -0.53981,-0.7129 -1.40397,-1.79117 -1.91992,-2.39648 -0.51595,-0.60531 -0.9375,-1.48158 -0.9375,-1.94727 0,-1.09129 2.63937,-3.0208 3.97071,-3.31055 z m -14.72266,11.54297 2.31055,2.59375 c 1.27134,1.42581 2.31204,2.87015 2.3125,3.21094 4.6e-4,0.34079 -0.66648,1.19055 -1.48243,1.88672 -0.81594,0.69617 -1.74648,1.42206 -2.06835,1.61328 -0.75439,0.44817 -5.06123,-4.52293 -4.84961,-5.59765 0.084,-0.42665 0.9683,-1.43647 1.96484,-2.24219 z m -14.69922,12.20313 c 0.38334,-0.007 0.84455,0.4625 1.94141,1.65039 1.01477,1.099 2.19068,2.52495 2.61328,3.16992 0.73274,1.1183 0.71697,1.20919 -0.33399,1.94531 -0.60612,0.42455 -1.48566,1.15559 -1.95507,1.625 -1.27576,1.27576 -1.83979,1.02802 -4.03516,-1.76953 -2.30286,-2.93453 -2.42926,-3.58754 -0.89063,-4.5957 0.61172,-0.40082 1.48135,-1.1005 1.9336,-1.55273 0.2933,-0.29331 0.49655,-0.46841 0.72656,-0.47266 z m -14.28516,12.07226 c 0.46297,0 2.37732,2.02049 3.9336,4.1504 l 1.14062,1.55859 -1.87695,1.60547 c -1.0318,0.88284 -2.19318,1.6007 -2.58203,1.5957 -0.69997,-0.009 -4.71485,-4.69481 -4.71485,-5.50391 0,-0.4809 3.52094,-3.40625 4.09961,-3.40625 z m -39.87695,7.8379 -2.96875,2.31445 c -1.63233,1.27196 -3.18021,2.55113 -3.43945,2.84375 -0.25924,0.29262 -2.06157,1.78241 -4.00586,3.31055 -1.94429,1.52814 -3.63991,2.91079 -3.76953,3.07226 -0.12962,0.16147 -1.60179,1.3845 -3.26953,2.71875 -1.66775,1.33424 -3.97762,3.21939 -5.13477,4.1875 -4.75535,3.9785 -6.15473,5.13678 -8.10156,6.70899 -1.12354,0.90733 -2.38766,1.96661 -2.8086,2.35546 -0.42094,0.38886 -2.45063,2.07893 -4.51172,3.75586 -2.06107,1.67693 -3.85475,3.16932 -3.98437,3.31641 -0.19627,0.22271 -6.31138,5.1974 -8.38867,6.82422 -0.33649,0.26353 -0.97284,0.80823 -1.41407,1.20898 -0.44121,0.40075 -1.96872,1.67266 -3.39453,2.82618 -1.42581,1.15351 -2.83498,2.3099 -3.13281,2.57031 -0.29783,0.2604 -1.34054,1.109 -2.31641,1.88672 -0.97585,0.77771 -2.64172,2.20687 -3.70117,3.17578 -1.05946,0.96892 -2.05435,1.76458 -2.21093,1.76758 -0.15657,0.003 -0.81451,0.48311 -1.4629,1.0664 -1.23457,1.11061 -3.27537,2.81768 -8.38671,7.01367 -1.68505,1.38329 -3.16921,2.63165 -3.29883,2.77539 -0.12962,0.14375 -1.93195,1.62467 -4.00586,3.29102 -2.07391,1.66635 -3.87819,3.14652 -4.00781,3.28906 -0.12962,0.14254 -1.40037,1.20924 -2.82618,2.3711 -1.4258,1.16186 -3.23009,2.69729 -4.00781,3.41015 -0.77771,0.71285 -1.54068,1.29588 -1.69726,1.29688 -0.15657,0.001 -0.80751,0.47922 -1.44532,1.0625 -2.15859,1.97406 -6.15817,5.29998 -6.86523,5.70898 -0.38668,0.22369 -1.0665,0.75528 -1.50977,1.17969 -1.24963,1.19646 -3.23426,2.86733 -7.33593,6.17773 -2.07391,1.67382 -3.87624,3.16347 -4.00586,3.31055 -0.12962,0.14709 -1.93196,1.63947 -4.00586,3.31641 -2.0739,1.67693 -3.98295,3.27242 -4.24219,3.54492 -0.25924,0.2725 -1.53194,1.3269 -2.82813,2.3418 -1.29618,1.0149 -2.46413,1.97364 -2.59375,2.13086 -0.12962,0.15721 -1.50707,1.30608 -3.0625,2.55273 -2.62179,2.10131 -5.80496,4.72437 -8.67578,7.15234 l -1.1875,1.00391 2.81055,3.39063 c 4.94841,5.96989 8.37821,10.14141 11.9707,14.5625 1.92744,2.37199 3.62502,4.31154 3.77149,4.31054 0.14646,-0.001 0.90197,-0.58597 1.67968,-1.29883 0.77772,-0.71284 2.58006,-2.24785 4.00586,-3.4121 1.42582,-1.16426 2.82801,-2.32945 3.11524,-2.58985 0.28723,-0.26041 3.23461,-2.70183 6.55078,-5.42383 6.84263,-5.61664 12.63809,-10.43127 14.37305,-11.94336 0.64809,-0.56484 2.76861,-2.29877 4.71289,-3.85156 1.94429,-1.55278 3.74662,-3.04663 4.00586,-3.32031 0.25924,-0.27367 2.06352,-1.75842 4.00781,-3.29883 1.94429,-1.54041 3.63992,-2.93848 3.76953,-3.10742 0.12962,-0.16895 1.53418,-1.3363 3.11914,-2.59375 1.58495,-1.25745 4.23511,-3.42112 5.89063,-4.8086 3.7221,-3.11944 4.0165,-3.36094 8.66601,-7.13867 2.07391,-1.68505 3.98296,-3.28883 4.24219,-3.5625 0.25924,-0.27368 2.06157,-1.75784 4.00586,-3.29883 1.94429,-1.54099 3.74857,-3.02515 4.00781,-3.29882 0.25924,-0.27368 2.05358,-1.7598 3.98828,-3.30078 1.9347,-1.541 3.86081,-3.11897 4.28125,-3.50782 0.42044,-0.38886 1.70113,-1.4807 2.84571,-2.42578 4.82012,-3.97998 8.24775,-6.794 8.81445,-7.23633 0.33305,-0.25995 0.86268,-0.68708 1.17773,-0.94922 0.31505,-0.26214 1.84323,-1.53483 3.39454,-2.82812 1.5513,-1.29329 3.09642,-2.56303 3.43359,-2.82227 0.33717,-0.25924 0.87879,-0.70711 1.20312,-0.99414 0.32433,-0.28704 1.85424,-1.54768 3.40039,-2.80273 1.54615,-1.25506 3.05374,-2.50477 3.35157,-2.77735 0.29783,-0.27257 1.34107,-1.13244 2.3164,-1.91015 0.97533,-0.77772 2.66037,-2.15712 3.74414,-3.06445 1.08378,-0.90733 2.88819,-2.39149 4.01172,-3.29883 1.12353,-0.90733 2.38766,-1.96662 2.8086,-2.35547 0.42093,-0.38886 2.45258,-2.08089 4.51367,-3.75781 2.06107,-1.67694 3.8528,-3.16932 3.98242,-3.31641 0.12962,-0.14708 1.93195,-1.63053 4.00586,-3.29688 2.07391,-1.66633 3.87819,-3.14591 4.00781,-3.28906 0.12962,-0.14314 0.91359,-0.81777 1.74219,-1.49804 l 1.50586,-1.23633 -8.26758,-9.36133 c -4.54682,-5.14841 -8.87368,-9.98155 -9.61523,-10.74219 z m 10.94727,15.68945 2.02734,2.25781 c 2.92474,3.25875 3.00897,3.81212 0.87109,5.66016 -2.09514,1.81113 -2.59648,1.89106 -3.5332,0.57031 -0.38128,-0.53758 -1.3643,-1.7365 -2.18359,-2.66406 -0.8193,-0.92756 -1.3887,-1.91841 -1.26563,-2.20313 0.12307,-0.28471 1.09282,-1.2169 2.1543,-2.07031 z m -14.37305,12.29492 c 0.26909,0 0.97303,0.68873 1.56445,1.53125 0.59142,0.84253 1.30641,1.74467 1.58789,2.00391 1.85741,1.71064 1.85142,2.08673 -0.0547,3.7832 -2.21263,1.96927 -3.19396,2.05128 -4.30079,0.35742 -0.45965,-0.70342 -1.31319,-1.79516 -1.89648,-2.42578 -0.58328,-0.63063 -1.06055,-1.41492 -1.06055,-1.74414 0,-0.65851 3.37878,-3.50586 4.16016,-3.50586 z m -14.36719,11.87109 c 0.3129,0.0709 0.5407,0.41885 0.91211,0.97266 0.39118,0.58329 1.37057,1.78852 2.17578,2.67774 0.8052,0.8892 1.4629,1.84373 1.46289,2.12109 -10e-6,0.27736 -0.73153,1.08592 -1.625,1.79883 -0.89348,0.7129 -2.00513,1.28693 -2.47265,1.27343 -1.1444,-0.033 -4.353,-3.72219 -4.3711,-5.02539 -0.008,-0.57307 0.25017,-1.2648 0.57422,-1.53906 2.06305,-1.74611 2.82226,-2.3975 3.34375,-2.2793 z m -14.44922,12.36524 c 0.22487,0.0635 0.43697,0.18858 0.58399,0.35937 0.29403,0.34157 1.27099,1.4689 2.16992,2.50586 0.89893,1.03695 1.63456,2.13429 1.63476,2.43946 2.1e-4,0.30518 -0.79141,1.20731 -1.75781,2.0039 -0.9664,0.79659 -1.99203,1.44922 -2.28125,1.44922 -0.80787,0 -4.44747,-4.53596 -4.41797,-5.50586 0.0253,-0.83344 1.98332,-2.69587 3.41211,-3.24414 0.19416,-0.0745 0.43139,-0.0713 0.65625,-0.008 z m -14.66015,11.88672 c 0.19272,-0.0222 0.35489,0.002 0.47265,0.084 1.01793,0.70653 3.96485,4.70617 3.96485,5.38086 0,0.3962 -0.68873,1.23867 -1.53125,1.8711 -0.84253,0.63242 -1.76904,1.28893 -2.0586,1.45898 -0.55102,0.32359 -4.54089,-3.95119 -4.8164,-5.16016 -0.23736,-1.0415 2.61966,-3.47962 3.96875,-3.63476 z m -14.67774,11.97656 c 1.10444,0.0259 5.05276,4.92285 4.67383,5.79688 -0.12945,0.2986 -0.83444,1.01819 -1.56836,1.59961 -2.20296,1.74522 -2.50488,1.6897 -4.73828,-0.8711 -1.16212,-1.33248 -2.1893,-2.62696 -2.2832,-2.87695 -0.27889,-0.7425 2.86677,-3.67304 3.91601,-3.64844 z m -14.52539,11.76953 c 0.53204,-0.009 4.88867,4.99339 4.88867,5.61328 0,0.18096 -0.58396,0.87219 -1.29687,1.53711 -1.49039,1.39008 -3.41293,2.47376 -3.42383,1.92969 -0.004,-0.20354 -0.95859,-1.4282 -2.12109,-2.72266 -1.16251,-1.29446 -2.11329,-2.55888 -2.11329,-2.80859 0,-0.59124 3.37561,-3.53703 4.06641,-3.54883 z m -14.36328,12.2461 c 0.44059,0 1.24338,0.58201 1.7832,1.29492 0.53982,0.71291 1.40396,1.79314 1.91992,2.39844 1.31946,1.54798 1.19105,2.0731 -0.91992,3.76953 -1.8026,1.44861 -2.84808,1.86388 -2.86328,1.13867 -0.004,-0.19443 -0.95858,-1.41257 -2.12109,-2.70703 -1.16251,-1.29447 -2.11328,-2.4985 -2.11328,-2.67578 0,-0.60116 3.50856,-3.21875 4.31445,-3.21875 z m 207.69141,7.62304 c -0.81894,10e-4 -11.26718,8.29645 -11.39258,9.08594 -0.0313,0.1973 2.91168,2.32227 6.54102,4.72266 l 6.59961,4.36523 1.17773,-0.85547 c 3.79682,-2.75521 3.9138,-2.92516 3.09375,-4.44922 -0.90271,-1.67768 -5.69771,-11.98892 -5.97266,-12.84375 -0.006,-0.0177 -0.0204,-0.0254 -0.0469,-0.0254 z m -222.21094,4.21875 c 0.56107,0.0788 1.12882,0.49233 1.69922,1.23828 0.54513,0.71291 1.4636,1.88131 2.03906,2.59766 0.57545,0.71635 1.04492,1.49394 1.04492,1.72656 0,0.23261 -0.82424,1.07802 -1.83203,1.87891 -1.00779,0.8009 -2.06707,1.45131 -2.35547,1.44531 -0.51527,-0.0106 -2.93912,-2.6852 -3.78516,-4.17773 -0.23708,-0.41825 -0.66025,-0.91284 -0.9414,-1.09766 -0.32615,-0.21441 -0.10897,-0.6403 0.60156,-1.17773 0.61249,-0.46327 1.45603,-1.21431 1.87305,-1.66797 0.5421,-0.58975 1.09517,-0.84441 1.65625,-0.76563 z m 229.29883,11.27344 -1.83203,1.4707 c -1.00742,0.80958 -1.72636,1.64333 -1.59766,1.85157 0.32995,0.53386 4.41725,3.25586 4.88867,3.25586 0.2145,0 0.6558,0.31817 0.97852,0.70703 0.59399,0.71571 1.63354,1.00483 1.27148,0.35351 -0.10808,-0.19442 -0.98711,-1.99233 -1.95312,-3.99609 z m -243.9375,0.46875 c 0.73159,-0.0347 5.06624,5.08822 5.02734,5.94141 -0.0101,0.22193 -0.95404,1.09301 -2.09961,1.93554 -1.14556,0.84252 -2.15348,1.53321 -2.23828,1.53321 -0.29907,0 -3.42838,-3.92098 -4.0625,-5.08985 -0.606,-1.11705 -0.53964,-1.27385 1.17773,-2.74414 1.00149,-0.85739 1.99005,-1.56617 2.19532,-1.57617 z"
       transform="scale(0.26458333)" /></g></svg>
