<?xml version="1.0" encoding="UTF-8" standalone="no"?>
<!-- Created with Inkscape (http://www.inkscape.org/) -->

<svg
   width="544.07001mm"
   height="613.59534mm"
   viewBox="0 0 544.07001 613.59534"
   version="1.1"
   id="svg1"
   xml:space="preserve"
   inkscape:export-filename="CSS_Icon.png"
   inkscape:export-xdpi="96"
   inkscape:export-ydpi="96"
   xmlns:inkscape="http://www.inkscape.org/namespaces/inkscape"
   xmlns:sodipodi="http://sodipodi.sourceforge.net/DTD/sodipodi-0.dtd"
   xmlns="http://www.w3.org/2000/svg"
   xmlns:svg="http://www.w3.org/2000/svg"><sodipodi:namedview
     id="namedview1"
     pagecolor="#505050"
     bordercolor="#eeeeee"
     borderopacity="1"
     inkscape:showpageshadow="0"
     inkscape:pageopacity="0"
     inkscape:pagecheckerboard="0"
     inkscape:deskcolor="#505050"
     inkscape:document-units="mm" /><defs
     id="defs1"><filter
       inkscape:collect="always"
       style="color-interpolation-filters:sRGB"
       id="filter29"
       x="-0.016733509"
       y="-0.014728678"
       width="1.033467"
       height="1.0294935"><feGaussianBlur
         inkscape:collect="always"
         stdDeviation="10.306245"
         id="feGaussianBlur29" /></filter><filter
       inkscape:collect="always"
       style="color-interpolation-filters:sRGB"
       id="filter30"
       x="-0.032754392"
       y="-0.028830109"
       width="1.0655087"
       height="1.0576963"><feGaussianBlur
         inkscape:collect="always"
         stdDeviation="23.189052"
         id="feGaussianBlur30" /></filter></defs><g
     inkscape:label="Layer 1"
     inkscape:groupmode="layer"
     id="layer1"
     transform="translate(167.37425,170.86603)"><g
       id="g30"
       inkscape:groupmode="layer"
       inkscape:label="CSS Icon"><path
         id="path21"
         style="fill:none;stroke:#beb419;stroke-width:15.1181;stroke-linecap:round;stroke-linejoin:round;stroke-dasharray:none;paint-order:stroke markers fill;filter:url(#filter30)"
         d="m -569.38282,-582.58009 v 16.56836 c 0,9.11285 1.69177,33.29405 3.75977,53.73438 2.06799,20.44032 8.00359,85.52454 13.18945,144.63086 9.19279,104.77571 20.07209,227.19316 43.39648,488.31055 26.08817,292.05789 34.55937,387.08441 45.2129,507.16407 6.16392,69.47586 15.53213,174.68079 20.8164,233.78712 17.88158,200.01145 32.13756,359.75285 39.68946,444.69925 4.13624,46.526 7.91594,84.8701 8.39843,85.209 0.4825,0.3389 39.05586,11.1844 85.71875,24.1015 46.6629,12.9171 106.05273,29.4047 131.97657,36.6406 25.92382,7.2359 165.064694,45.8974 309.20117,85.9141 144.13649,40.0166 262.91423,72.3401 263.95118,71.8301 1.03696,-0.51 178.35672,-49.7382 394.04297,-109.3965 215.68629,-59.6582 392.44159,-108.6388 392.78909,-108.8438 0.9242,-0.5456 14.3334,-144.4727 29.5449,-317.1074 7.3096,-82.95623 16.6381,-187.31139 20.7285,-231.90037 4.0904,-44.58899 13.4245,-148.94609 20.7422,-231.90235 7.3176,-82.95624 18.3187,-206.82477 24.4473,-275.26367 6.1286,-68.43891 17.1764,-192.30743 24.5508,-275.263678 7.3742,-82.956251 16.7282,-187.311412 20.7871,-231.900392 4.0588,-44.58899 13.3215,-148.94415 20.5839,-231.9004 7.2626,-82.95624 13.9192,-157.19355 14.7911,-164.9707 l 1.5839,-14.14063 H 395.56836 Z m 965.31056,162.14258 h 394.47657 394.47849 l -2.3164,19.79688 c -1.2733,10.88801 -26.9469,296.37907 -57.0527,634.42579 -30.1058,338.04672 -63.0618,707.7394 -73.2363,821.53714 -10.1747,113.7977 -19.9061,208.1882 -21.625,209.7558 -1.7189,1.5675 -142.2659,41.3004 -312.32622,88.295 -170.06031,46.9946 -312.16949,86.3433 -315.79883,87.4433 -6.19109,1.8765 -6.59856,-5.6456 -6.60156,-121.7461 l -0.004,-123.7441 -117.83203,-32.7442 C 213.2819,1144.5735 100.63489,1113.2885 27.763672,1093.0606 l -132.494142,-36.7774 -2.52148,-30.4043 c -3.023,-36.44072 -27.5658,-313.94562 -29.78907,-336.82616 l -1.5625,-16.07617 122.982426,0.99219 122.982424,0.99414 8.27539,86.72656 c 4.55128,47.69985 8.39123,91.01783 8.53516,96.26172 0.23661,8.62266 2.87593,10.2074 27.59961,16.56446 15.03582,3.86605 73.15297,19.49539 129.14844,34.73242 55.99547,15.23706 104.78082,27.72079 108.41015,27.74219 6.19796,0.0365 6.59766,-11.52746 6.59766,-190.35938 V 556.23438 l -272.43555,-0.96679 -272.43555,-0.96875 -10.0918,-109.35157 C -164.58545,384.80398 -169.25331,330.082 -169.40625,323.3418 l -0.27735,-12.25586 H 113.12305 395.92774 V 188.53711 65.988282 H 102.16406 -191.59961 l -2.20899,-17.91211 c -1.21435,-9.851055 -5.64108,-57.7866408 -9.83789,-106.523438 -4.1968,-48.736794 -8.6461,-95.822624 -9.88672,-104.636724 l -2.25586,-16.02539 H 90.070314 395.92774 v -120.66406 z m 22.625,22.625 v 109.35157 109.35156 h 291.9961 291.99416 l -1.6934,12.25391 c -0.93125,6.74019 -5.87949,59.76657 -10.99607,117.835938 -18.35894,208.361322 -36.18221,408.662602 -43.45117,488.310552 -9.48292,103.90659 -31.09872,347.31897 -43.53125,490.19727 -5.32361,61.18023 -10.43772,114.99401 -11.36524,119.58591 -1.2373,6.1253 -5.94453,9.4534 -17.67383,12.4981 -8.79324,2.2826 -85.55774,23.4442 -170.58789,47.0254 -85.03016,23.5811 -183.87161,50.9198 -219.64649,60.7519 l -65.04492,17.877 v 112.7129 c 0,105.5906 0.41581,112.5857 6.59766,110.7187 3.62933,-1.096 62.59429,-17.4434 131.0332,-36.3281 271.46852,-74.9076 448.8599,-125.0775 451.6211,-127.7266 4.0327,-3.869 11.584,-82.4351 59.3008,-616.98435 22.9513,-257.11241 52.706,-589.487753 66.1211,-738.61134 13.4152,-149.12355 24.3906,-275.11259 24.3906,-279.97656 v -8.84376 H 788.08595 Z M 90.376954,-156.48633 c -220.608534,0 -278.917944,0.98674 -278.931644,4.71484 -0.0369,10.06764 15.85661,185.973175 17.20508,190.421881 1.12568,3.713661 58.84018,4.712844 272.09766,4.714844 l 270.66992,0.0039 -1.0625,-99.927735 -1.0625,-99.92774 z m 301.779296,0 v 99.925782 c 0,96.156475 0.2758,99.92383 7.26954,99.92383 3.99728,0 10.60329,4.242968 14.68164,9.427734 l 7.41601,9.425782 h 156.88477 c 146.87104,0 156.89105,0.422042 156.96485,6.599609 0.12369,10.349879 -19.641,236.054863 -21.13282,241.328133 -1.03724,3.6664 -33.69696,4.71289 -147.02539,4.71289 H 421.52344 l -7.41601,9.42578 c -4.07835,5.18476 -10.68436,9.42773 -14.68164,9.42773 -6.99374,0 -7.26954,3.76736 -7.26954,99.92383 0,96.15647 0.2758,99.92578 7.26954,99.92578 3.99728,0 10.60329,4.24102 14.68164,9.42578 l 7.41601,9.42774 h 136.14649 c 74.88062,0 136.12416,0.42293 136.09766,0.94141 -0.0265,0.51848 -2.52382,27.24508 -5.55078,59.39062 -3.02698,32.14555 -9.18568,101.71501 -13.68555,154.59961 -4.59159,53.96245 -10.01487,98.01169 -12.35938,100.38672 -2.29767,2.3276 -18.60031,7.98209 -36.22851,12.56641 -36.8804,9.59098 -162.37498,43.28757 -190.67774,51.19922 -13.299,3.71753 -20.64672,8.2176 -24.16992,14.80078 -2.78426,5.20241 -8.18425,10.45102 -12,11.66211 -6.51927,2.06911 -6.93946,8.58015 -6.93946,107.96675 0,98.9765 0.42445,105.6395 6.59961,103.7715 3.62934,-1.0978 110.69868,-30.8758 237.93165,-66.1738 127.23297,-35.298 231.83919,-64.7171 232.45703,-65.375 0.61783,-0.658 18.35512,-195.48305 39.41602,-432.94531 21.06093,-237.46227 44.99105,-505.521454 53.17773,-595.6855586 8.18666,-90.1641074 14.88477,-164.4014114 14.88477,-164.9707014 0,-0.56929 -131.50469,-1.03516 -292.23243,-1.03516 z M 418.55274,84.841798 V 188.53711 292.23243 h 135.52344 c 76.55153,0 136.44053,-1.48146 137.62891,-3.4043 1.67749,-2.71424 12.49908,-115.64092 18.19336,-189.845707 l 1.08593,-14.140625 H 564.76759 Z m -565.13673,248.869142 1.59961,12.25391 c 0.88008,6.74019 4.1771,42.79859 7.32813,80.12891 3.15102,37.33031 6.71597,75.86307 7.92187,85.62695 l 2.19336,17.75195 27.00586,1.29492 c 14.853203,0.71204 127.118048,1.63089 249.47852,2.04297 l 222.47461,0.75 V 433.63477 333.71094 H 112.41602 Z M 655.56837,556.1836 c -14.98262,0 -15.42156,0.32086 -9.47071,6.89649 3.43229,3.79263 6.24024,8.0356 6.24024,9.42773 0,1.39213 -52.60149,2.53125 -116.89258,2.53125 H 418.55274 v 167.79688 c 0,92.28882 1.25091,167.79883 2.7793,167.79883 1.52839,0 51.58832,-13.09638 111.24414,-29.10352 75.70599,-20.3138 109.00619,-30.84974 110.25781,-34.88086 0.98627,-3.17649 6.89994,-63.46766 13.14258,-133.98047 6.24263,-70.51281 12.24087,-134.56855 13.32813,-142.3457 l 1.97656,-14.14063 z M -51.464844,696.39845 c -34.334467,0.0561 -61.653766,0.65397 -61.650396,1.95312 0.0346,13.8311 30.204878,338.02123 31.585942,339.40233 0.990569,0.9906 100.764662,29.4478 221.718748,63.2383 120.9541,33.7905 222.03653,61.627 224.62891,61.8594 3.66037,0.3281 4.71485,-21.4124 4.71485,-97.3086 0,-53.752 0.8994,-100.07721 2,-102.94533 1.53617,-4.00323 -25.40134,-12.50164 -115.94922,-36.58008 -64.87322,-17.25105 -123.33518,-33.56761 -129.91407,-36.25781 -20.56964,-8.41122 -22.77598,-15.8724 -31.054684,-105.01954 -4.215294,-45.39132 -8.70073,-83.57023 -9.968751,-84.84179 -2.176166,-2.18224 -78.8872184,-3.59344 -136.111329,-3.5 z"
         transform="scale(0.26458333)" /><path
         id="path28"
         style="fill:none;stroke:#beb419;stroke-width:15.1181;stroke-linecap:round;stroke-linejoin:round;stroke-dasharray:none;paint-order:stroke markers fill;filter:url(#filter29)"
         d="m -569.38282,-582.58009 v 16.56836 c 0,9.11285 1.69177,33.29405 3.75977,53.73438 2.06799,20.44032 8.00359,85.52454 13.18945,144.63086 9.19279,104.77571 20.07209,227.19316 43.39648,488.31055 26.08817,292.05789 34.55937,387.08441 45.2129,507.16407 6.16392,69.47586 15.53213,174.68079 20.8164,233.78712 17.88158,200.01145 32.13756,359.75285 39.68946,444.69925 4.13624,46.526 7.91594,84.8701 8.39843,85.209 0.4825,0.3389 39.05586,11.1844 85.71875,24.1015 46.6629,12.9171 106.05273,29.4047 131.97657,36.6406 25.92382,7.2359 165.064694,45.8974 309.20117,85.9141 144.13649,40.0166 262.91423,72.3401 263.95118,71.8301 1.03696,-0.51 178.35672,-49.7382 394.04297,-109.3965 215.68629,-59.6582 392.44159,-108.6388 392.78909,-108.8438 0.9242,-0.5456 14.3334,-144.4727 29.5449,-317.1074 7.3096,-82.95623 16.6381,-187.31139 20.7285,-231.90037 4.0904,-44.58899 13.4245,-148.94609 20.7422,-231.90235 7.3176,-82.95624 18.3187,-206.82477 24.4473,-275.26367 6.1286,-68.43891 17.1764,-192.30743 24.5508,-275.263678 7.3742,-82.956251 16.7282,-187.311412 20.7871,-231.900392 4.0588,-44.58899 13.3215,-148.94415 20.5839,-231.9004 7.2626,-82.95624 13.9192,-157.19355 14.7911,-164.9707 l 1.5839,-14.14063 H 395.56836 Z m 965.31056,162.14258 h 394.47657 394.47849 l -2.3164,19.79688 c -1.2733,10.88801 -26.9469,296.37907 -57.0527,634.42579 -30.1058,338.04672 -63.0618,707.7394 -73.2363,821.53714 -10.1747,113.7977 -19.9061,208.1882 -21.625,209.7558 -1.7189,1.5675 -142.2659,41.3004 -312.32622,88.295 -170.06031,46.9946 -312.16949,86.3433 -315.79883,87.4433 -6.19109,1.8765 -6.59856,-5.6456 -6.60156,-121.7461 l -0.004,-123.7441 -117.83203,-32.7442 C 213.2819,1144.5735 100.63489,1113.2885 27.763672,1093.0606 l -132.494142,-36.7774 -2.52148,-30.4043 c -3.023,-36.44072 -27.5658,-313.94562 -29.78907,-336.82616 l -1.5625,-16.07617 122.982426,0.99219 122.982424,0.99414 8.27539,86.72656 c 4.55128,47.69985 8.39123,91.01783 8.53516,96.26172 0.23661,8.62266 2.87593,10.2074 27.59961,16.56446 15.03582,3.86605 73.15297,19.49539 129.14844,34.73242 55.99547,15.23706 104.78082,27.72079 108.41015,27.74219 6.19796,0.0365 6.59766,-11.52746 6.59766,-190.35938 V 556.23438 l -272.43555,-0.96679 -272.43555,-0.96875 -10.0918,-109.35157 C -164.58545,384.80398 -169.25331,330.082 -169.40625,323.3418 l -0.27735,-12.25586 H 113.12305 395.92774 V 188.53711 65.988282 H 102.16406 -191.59961 l -2.20899,-17.91211 c -1.21435,-9.851055 -5.64108,-57.7866408 -9.83789,-106.523438 -4.1968,-48.736794 -8.6461,-95.822624 -9.88672,-104.636724 l -2.25586,-16.02539 H 90.070314 395.92774 v -120.66406 z m 22.625,22.625 v 109.35157 109.35156 h 291.9961 291.99416 l -1.6934,12.25391 c -0.93125,6.74019 -5.87949,59.76657 -10.99607,117.835938 -18.35894,208.361322 -36.18221,408.662602 -43.45117,488.310552 -9.48292,103.90659 -31.09872,347.31897 -43.53125,490.19727 -5.32361,61.18023 -10.43772,114.99401 -11.36524,119.58591 -1.2373,6.1253 -5.94453,9.4534 -17.67383,12.4981 -8.79324,2.2826 -85.55774,23.4442 -170.58789,47.0254 -85.03016,23.5811 -183.87161,50.9198 -219.64649,60.7519 l -65.04492,17.877 v 112.7129 c 0,105.5906 0.41581,112.5857 6.59766,110.7187 3.62933,-1.096 62.59429,-17.4434 131.0332,-36.3281 271.46852,-74.9076 448.8599,-125.0775 451.6211,-127.7266 4.0327,-3.869 11.584,-82.4351 59.3008,-616.98435 22.9513,-257.11241 52.706,-589.487753 66.1211,-738.61134 13.4152,-149.12355 24.3906,-275.11259 24.3906,-279.97656 v -8.84376 H 788.08595 Z M 90.376954,-156.48633 c -220.608534,0 -278.917944,0.98674 -278.931644,4.71484 -0.0369,10.06764 15.85661,185.973175 17.20508,190.421881 1.12568,3.713661 58.84018,4.712844 272.09766,4.714844 l 270.66992,0.0039 -1.0625,-99.927735 -1.0625,-99.92774 z m 301.779296,0 v 99.925782 c 0,96.156475 0.2758,99.92383 7.26954,99.92383 3.99728,0 10.60329,4.242968 14.68164,9.427734 l 7.41601,9.425782 h 156.88477 c 146.87104,0 156.89105,0.422042 156.96485,6.599609 0.12369,10.349879 -19.641,236.054863 -21.13282,241.328133 -1.03724,3.6664 -33.69696,4.71289 -147.02539,4.71289 H 421.52344 l -7.41601,9.42578 c -4.07835,5.18476 -10.68436,9.42773 -14.68164,9.42773 -6.99374,0 -7.26954,3.76736 -7.26954,99.92383 0,96.15647 0.2758,99.92578 7.26954,99.92578 3.99728,0 10.60329,4.24102 14.68164,9.42578 l 7.41601,9.42774 h 136.14649 c 74.88062,0 136.12416,0.42293 136.09766,0.94141 -0.0265,0.51848 -2.52382,27.24508 -5.55078,59.39062 -3.02698,32.14555 -9.18568,101.71501 -13.68555,154.59961 -4.59159,53.96245 -10.01487,98.01169 -12.35938,100.38672 -2.29767,2.3276 -18.60031,7.98209 -36.22851,12.56641 -36.8804,9.59098 -162.37498,43.28757 -190.67774,51.19922 -13.299,3.71753 -20.64672,8.2176 -24.16992,14.80078 -2.78426,5.20241 -8.18425,10.45102 -12,11.66211 -6.51927,2.06911 -6.93946,8.58015 -6.93946,107.96675 0,98.9765 0.42445,105.6395 6.59961,103.7715 3.62934,-1.0978 110.69868,-30.8758 237.93165,-66.1738 127.23297,-35.298 231.83919,-64.7171 232.45703,-65.375 0.61783,-0.658 18.35512,-195.48305 39.41602,-432.94531 21.06093,-237.46227 44.99105,-505.521454 53.17773,-595.6855586 8.18666,-90.1641074 14.88477,-164.4014114 14.88477,-164.9707014 0,-0.56929 -131.50469,-1.03516 -292.23243,-1.03516 z M 418.55274,84.841798 V 188.53711 292.23243 h 135.52344 c 76.55153,0 136.44053,-1.48146 137.62891,-3.4043 1.67749,-2.71424 12.49908,-115.64092 18.19336,-189.845707 l 1.08593,-14.140625 H 564.76759 Z m -565.13673,248.869142 1.59961,12.25391 c 0.88008,6.74019 4.1771,42.79859 7.32813,80.12891 3.15102,37.33031 6.71597,75.86307 7.92187,85.62695 l 2.19336,17.75195 27.00586,1.29492 c 14.853203,0.71204 127.118048,1.63089 249.47852,2.04297 l 222.47461,0.75 V 433.63477 333.71094 H 112.41602 Z M 655.56837,556.1836 c -14.98262,0 -15.42156,0.32086 -9.47071,6.89649 3.43229,3.79263 6.24024,8.0356 6.24024,9.42773 0,1.39213 -52.60149,2.53125 -116.89258,2.53125 H 418.55274 v 167.79688 c 0,92.28882 1.25091,167.79883 2.7793,167.79883 1.52839,0 51.58832,-13.09638 111.24414,-29.10352 75.70599,-20.3138 109.00619,-30.84974 110.25781,-34.88086 0.98627,-3.17649 6.89994,-63.46766 13.14258,-133.98047 6.24263,-70.51281 12.24087,-134.56855 13.32813,-142.3457 l 1.97656,-14.14063 z M -51.464844,696.39845 c -34.334467,0.0561 -61.653766,0.65397 -61.650396,1.95312 0.0346,13.8311 30.204878,338.02123 31.585942,339.40233 0.990569,0.9906 100.764662,29.4478 221.718748,63.2383 120.9541,33.7905 222.03653,61.627 224.62891,61.8594 3.66037,0.3281 4.71485,-21.4124 4.71485,-97.3086 0,-53.752 0.8994,-100.07721 2,-102.94533 1.53617,-4.00323 -25.40134,-12.50164 -115.94922,-36.58008 -64.87322,-17.25105 -123.33518,-33.56761 -129.91407,-36.25781 -20.56964,-8.41122 -22.77598,-15.8724 -31.054684,-105.01954 -4.215294,-45.39132 -8.70073,-83.57023 -9.968751,-84.84179 -2.176166,-2.18224 -78.8872184,-3.59344 -136.111329,-3.5 z"
         transform="scale(0.26458333)" /><path
         id="path29"
         style="fill:none;stroke:#beb419;stroke-width:15.1181;stroke-linecap:round;stroke-linejoin:round;stroke-dasharray:none;paint-order:stroke markers fill"
         d="m -569.38282,-582.58009 v 16.56836 c 0,9.11285 1.69177,33.29405 3.75977,53.73438 2.06799,20.44032 8.00359,85.52454 13.18945,144.63086 9.19279,104.77571 20.07209,227.19316 43.39648,488.31055 26.08817,292.05789 34.55937,387.08441 45.2129,507.16407 6.16392,69.47586 15.53213,174.68079 20.8164,233.78712 17.88158,200.01145 32.13756,359.75285 39.68946,444.69925 4.13624,46.526 7.91594,84.8701 8.39843,85.209 0.4825,0.3389 39.05586,11.1844 85.71875,24.1015 46.6629,12.9171 106.05273,29.4047 131.97657,36.6406 25.92382,7.2359 165.064694,45.8974 309.20117,85.9141 144.13649,40.0166 262.91423,72.3401 263.95118,71.8301 1.03696,-0.51 178.35672,-49.7382 394.04297,-109.3965 215.68629,-59.6582 392.44159,-108.6388 392.78909,-108.8438 0.9242,-0.5456 14.3334,-144.4727 29.5449,-317.1074 7.3096,-82.95623 16.6381,-187.31139 20.7285,-231.90037 4.0904,-44.58899 13.4245,-148.94609 20.7422,-231.90235 7.3176,-82.95624 18.3187,-206.82477 24.4473,-275.26367 6.1286,-68.43891 17.1764,-192.30743 24.5508,-275.263678 7.3742,-82.956251 16.7282,-187.311412 20.7871,-231.900392 4.0588,-44.58899 13.3215,-148.94415 20.5839,-231.9004 7.2626,-82.95624 13.9192,-157.19355 14.7911,-164.9707 l 1.5839,-14.14063 H 395.56836 Z m 965.31056,162.14258 h 394.47657 394.47849 l -2.3164,19.79688 c -1.2733,10.88801 -26.9469,296.37907 -57.0527,634.42579 -30.1058,338.04672 -63.0618,707.7394 -73.2363,821.53714 -10.1747,113.7977 -19.9061,208.1882 -21.625,209.7558 -1.7189,1.5675 -142.2659,41.3004 -312.32622,88.295 -170.06031,46.9946 -312.16949,86.3433 -315.79883,87.4433 -6.19109,1.8765 -6.59856,-5.6456 -6.60156,-121.7461 l -0.004,-123.7441 -117.83203,-32.7442 C 213.2819,1144.5735 100.63489,1113.2885 27.763672,1093.0606 l -132.494142,-36.7774 -2.52148,-30.4043 c -3.023,-36.44072 -27.5658,-313.94562 -29.78907,-336.82616 l -1.5625,-16.07617 122.982426,0.99219 122.982424,0.99414 8.27539,86.72656 c 4.55128,47.69985 8.39123,91.01783 8.53516,96.26172 0.23661,8.62266 2.87593,10.2074 27.59961,16.56446 15.03582,3.86605 73.15297,19.49539 129.14844,34.73242 55.99547,15.23706 104.78082,27.72079 108.41015,27.74219 6.19796,0.0365 6.59766,-11.52746 6.59766,-190.35938 V 556.23438 l -272.43555,-0.96679 -272.43555,-0.96875 -10.0918,-109.35157 C -164.58545,384.80398 -169.25331,330.082 -169.40625,323.3418 l -0.27735,-12.25586 H 113.12305 395.92774 V 188.53711 65.988282 H 102.16406 -191.59961 l -2.20899,-17.91211 c -1.21435,-9.851055 -5.64108,-57.7866408 -9.83789,-106.523438 -4.1968,-48.736794 -8.6461,-95.822624 -9.88672,-104.636724 l -2.25586,-16.02539 H 90.070314 395.92774 v -120.66406 z m 22.625,22.625 v 109.35157 109.35156 h 291.9961 291.99416 l -1.6934,12.25391 c -0.93125,6.74019 -5.87949,59.76657 -10.99607,117.835938 -18.35894,208.361322 -36.18221,408.662602 -43.45117,488.310552 -9.48292,103.90659 -31.09872,347.31897 -43.53125,490.19727 -5.32361,61.18023 -10.43772,114.99401 -11.36524,119.58591 -1.2373,6.1253 -5.94453,9.4534 -17.67383,12.4981 -8.79324,2.2826 -85.55774,23.4442 -170.58789,47.0254 -85.03016,23.5811 -183.87161,50.9198 -219.64649,60.7519 l -65.04492,17.877 v 112.7129 c 0,105.5906 0.41581,112.5857 6.59766,110.7187 3.62933,-1.096 62.59429,-17.4434 131.0332,-36.3281 271.46852,-74.9076 448.8599,-125.0775 451.6211,-127.7266 4.0327,-3.869 11.584,-82.4351 59.3008,-616.98435 22.9513,-257.11241 52.706,-589.487753 66.1211,-738.61134 13.4152,-149.12355 24.3906,-275.11259 24.3906,-279.97656 v -8.84376 H 788.08595 Z M 90.376954,-156.48633 c -220.608534,0 -278.917944,0.98674 -278.931644,4.71484 -0.0369,10.06764 15.85661,185.973175 17.20508,190.421881 1.12568,3.713661 58.84018,4.712844 272.09766,4.714844 l 270.66992,0.0039 -1.0625,-99.927735 -1.0625,-99.92774 z m 301.779296,0 v 99.925782 c 0,96.156475 0.2758,99.92383 7.26954,99.92383 3.99728,0 10.60329,4.242968 14.68164,9.427734 l 7.41601,9.425782 h 156.88477 c 146.87104,0 156.89105,0.422042 156.96485,6.599609 0.12369,10.349879 -19.641,236.054863 -21.13282,241.328133 -1.03724,3.6664 -33.69696,4.71289 -147.02539,4.71289 H 421.52344 l -7.41601,9.42578 c -4.07835,5.18476 -10.68436,9.42773 -14.68164,9.42773 -6.99374,0 -7.26954,3.76736 -7.26954,99.92383 0,96.15647 0.2758,99.92578 7.26954,99.92578 3.99728,0 10.60329,4.24102 14.68164,9.42578 l 7.41601,9.42774 h 136.14649 c 74.88062,0 136.12416,0.42293 136.09766,0.94141 -0.0265,0.51848 -2.52382,27.24508 -5.55078,59.39062 -3.02698,32.14555 -9.18568,101.71501 -13.68555,154.59961 -4.59159,53.96245 -10.01487,98.01169 -12.35938,100.38672 -2.29767,2.3276 -18.60031,7.98209 -36.22851,12.56641 -36.8804,9.59098 -162.37498,43.28757 -190.67774,51.19922 -13.299,3.71753 -20.64672,8.2176 -24.16992,14.80078 -2.78426,5.20241 -8.18425,10.45102 -12,11.66211 -6.51927,2.06911 -6.93946,8.58015 -6.93946,107.96675 0,98.9765 0.42445,105.6395 6.59961,103.7715 3.62934,-1.0978 110.69868,-30.8758 237.93165,-66.1738 127.23297,-35.298 231.83919,-64.7171 232.45703,-65.375 0.61783,-0.658 18.35512,-195.48305 39.41602,-432.94531 21.06093,-237.46227 44.99105,-505.521454 53.17773,-595.6855586 8.18666,-90.1641074 14.88477,-164.4014114 14.88477,-164.9707014 0,-0.56929 -131.50469,-1.03516 -292.23243,-1.03516 z M 418.55274,84.841798 V 188.53711 292.23243 h 135.52344 c 76.55153,0 136.44053,-1.48146 137.62891,-3.4043 1.67749,-2.71424 12.49908,-115.64092 18.19336,-189.845707 l 1.08593,-14.140625 H 564.76759 Z m -565.13673,248.869142 1.59961,12.25391 c 0.88008,6.74019 4.1771,42.79859 7.32813,80.12891 3.15102,37.33031 6.71597,75.86307 7.92187,85.62695 l 2.19336,17.75195 27.00586,1.29492 c 14.853203,0.71204 127.118048,1.63089 249.47852,2.04297 l 222.47461,0.75 V 433.63477 333.71094 H 112.41602 Z M 655.56837,556.1836 c -14.98262,0 -15.42156,0.32086 -9.47071,6.89649 3.43229,3.79263 6.24024,8.0356 6.24024,9.42773 0,1.39213 -52.60149,2.53125 -116.89258,2.53125 H 418.55274 v 167.79688 c 0,92.28882 1.25091,167.79883 2.7793,167.79883 1.52839,0 51.58832,-13.09638 111.24414,-29.10352 75.70599,-20.3138 109.00619,-30.84974 110.25781,-34.88086 0.98627,-3.17649 6.89994,-63.46766 13.14258,-133.98047 6.24263,-70.51281 12.24087,-134.56855 13.32813,-142.3457 l 1.97656,-14.14063 z M -51.464844,696.39845 c -34.334467,0.0561 -61.653766,0.65397 -61.650396,1.95312 0.0346,13.8311 30.204878,338.02123 31.585942,339.40233 0.990569,0.9906 100.764662,29.4478 221.718748,63.2383 120.9541,33.7905 222.03653,61.627 224.62891,61.8594 3.66037,0.3281 4.71485,-21.4124 4.71485,-97.3086 0,-53.752 0.8994,-100.07721 2,-102.94533 1.53617,-4.00323 -25.40134,-12.50164 -115.94922,-36.58008 -64.87322,-17.25105 -123.33518,-33.56761 -129.91407,-36.25781 -20.56964,-8.41122 -22.77598,-15.8724 -31.054684,-105.01954 -4.215294,-45.39132 -8.70073,-83.57023 -9.968751,-84.84179 -2.176166,-2.18224 -78.8872184,-3.59344 -136.111329,-3.5 z"
         transform="scale(0.26458333)" /></g></g></svg>
