<?xml version="1.0" encoding="UTF-8" standalone="no"?>
<!-- Created with Inkscape (http://www.inkscape.org/) -->

<svg
   width="232.21019mm"
   height="232.21019mm"
   viewBox="0 0 232.21019 232.21018"
   version="1.1"
   id="svg1"
   xml:space="preserve"
   xmlns="http://www.w3.org/2000/svg"
   xmlns:svg="http://www.w3.org/2000/svg"><defs
     id="defs1"><filter
       style="color-interpolation-filters:sRGB"
       id="filter293"
       x="-0.0077608664"
       y="-0.0077608664"
       width="1.0155217"
       height="1.0155217"><feGaussianBlur
         stdDeviation="0.26255726"
         id="feGaussianBlur293" /></filter><filter
       style="color-interpolation-filters:sRGB"
       id="filter294"
       x="-0.016760865"
       y="-0.016760865"
       width="1.0335217"
       height="1.0335217"><feGaussianBlur
         stdDeviation="1.050229"
         id="feGaussianBlur294" /></filter><filter
       style="color-interpolation-filters:sRGB"
       id="filter295"
       x="-0.031760867"
       y="-0.031760867"
       width="1.0635217"
       height="1.0635217"><feGaussianBlur
         stdDeviation="2.3630153"
         id="feGaussianBlur295" /></filter><filter
       style="color-interpolation-filters:sRGB"
       id="filter296"
       x="-0.052760868"
       y="-0.052760868"
       width="1.1055217"
       height="1.1055217"><feGaussianBlur
         stdDeviation="4.2009161"
         id="feGaussianBlur296" /></filter></defs><g
     id="layer1"
     transform="translate(60.345803,-37.631714)"><g
       id="g296"><g
         id="g236"
         style="filter:url(#filter296)"><g
           id="g235"
           transform="translate(-1.61135,3.7234575)"><path
             style="fill:#beb41e;fill-opacity:1;stroke:none;stroke-width:9.20389;stroke-linecap:butt;stroke-linejoin:round;stroke-dasharray:none;stroke-opacity:1;paint-order:stroke markers fill"
             d="m 116.50543,644.57438 c -9.51118,-1.5823 -19.375576,-6.8791 -26.987925,-14.49145 C 80.664676,621.23011 76.301737,612.09 74.833406,599.3206 73.238184,585.44768 73.284748,295.20775 74.88287,291.00437 c 0.972007,-2.55656 1.894739,-3.12623 4.565992,-2.81886 l 3.347804,0.38522 0.646701,155.85255 c 0.450803,108.64237 1.05504,157.22514 1.994732,160.38379 0.741417,2.49218 2.7704,6.95833 4.508848,9.92477 3.405878,5.81169 13.454723,15.37514 16.155503,15.37514 0.91024,0 1.65498,0.43333 1.65498,0.96298 0,0.52963 3.51442,1.89942 7.80983,3.04399 7.14812,1.9047 19.39911,2.07979 144.58976,2.06657 110.79222,-0.0117 137.93663,-0.32595 142.86793,-1.65397 11.63444,-3.13322 21.25631,-10.2083 26.91817,-19.79323 6.79977,-11.51134 6.56577,-4.9875 6.56577,-183.05464 0,-90.3192 -0.33257,-165.08344 -0.73907,-166.14273 -0.64715,-1.68647 -4.62185,-1.92761 -31.96194,-1.93916 -32.81225,-0.0138 -35.94778,-0.41002 -47.96814,-6.06084 -6.90825,-3.2476 -18.02403,-14.01067 -21.06497,-20.39658 -6.46245,-13.57102 -6.6321,-14.81338 -6.6321,-48.56862 0,-27.91877 -0.23766,-31.94006 -1.92598,-32.58793 -1.05929,-0.40649 -47.10887,-0.73907 -102.3324,-0.73907 -88.55255,0 -101.33439,0.2331 -108.26664,1.97442 -4.32312,1.08594 -7.86022,2.45574 -7.86022,3.044 0,0.58826 -0.74474,1.06957 -1.65498,1.06957 -2.66285,0 -12.729272,9.52872 -16.046816,15.18968 -5.604345,9.5631 -6.650169,16.75107 -6.650169,45.70679 0,25.92902 -0.073,26.72398 -2.577247,28.06421 -2.059757,1.10235 -2.97657,0.98059 -4.565992,-0.60638 -1.6605,-1.65794 -2.051532,-5.58368 -2.369146,-23.78491 -0.683994,-39.19706 2.214945,-51.20638 15.589165,-64.5806 8.115991,-8.11599 17.699515,-12.95753 28.835555,-14.56754 4.9474,-0.71529 50.69613,-1.21155 113.01085,-1.22591 l 104.69847,-0.0241 55.11127,55.11129 55.11129,55.11128 -0.0376,168.01356 c -0.0219,97.91814 -0.51655,171.70118 -1.18564,176.85252 -1.50042,11.55197 -6.23547,21.09722 -14.62958,29.49132 -7.9547,7.95469 -17.34474,12.82455 -28.08999,14.56802 -9.69259,1.57266 -276.31733,1.50123 -285.80144,-0.0766 z M 426.76811,252.35353 c 0,-2.06018 -85.40435,-87.369 -87.46685,-87.369 -1.3404,0 -1.56342,5.44361 -1.22403,29.87649 0.2763,19.89051 0.86108,30.16656 1.74955,30.74435 0.73398,0.47733 1.69195,2.32952 2.12882,4.11598 1.04091,4.25654 11.61108,15.69938 16.80604,18.19355 12.29968,5.90522 10.4577,5.64736 41.52371,5.81305 20.39102,0.10875 26.48276,-0.2074 26.48276,-1.37442 z"
             id="path222"
             transform="matrix(0.26458333,0,0,0.26458333,-11.409115,45.331264)" /><path
             style="fill:#beb41e;fill-opacity:1;stroke:none;stroke-width:9.20389;stroke-linecap:butt;stroke-linejoin:round;stroke-dasharray:none;stroke-opacity:1;paint-order:stroke markers fill"
             d="m 135.32387,445.48651 c -15.86462,-5.72796 -23.38976,-22.89174 -16.4807,-37.59013 2.75996,-5.87157 9.13863,-12.19303 14.31468,-14.18631 1.76722,-0.68056 9.38631,-1.5476 16.93131,-1.92677 l 13.71817,-0.6894 -7.84775,-5.26465 c -11.53487,-7.73815 -16.4216,-14.96738 -19.00963,-28.12208 -5.82046,-29.58483 20.60983,-55.26373 50.49511,-49.05957 12.98952,2.69661 23.2875,10.73543 29.41024,22.95823 3.04883,6.08637 3.45427,8.23028 3.48977,18.4536 0.036,10.36284 -0.32317,12.28419 -3.4496,18.45361 -3.89401,7.68411 -10.91026,14.98769 -18.79201,19.56155 l -5.2354,3.03816 13.82232,0.60998 c 15.8173,0.69801 20.50566,2.3498 26.96597,9.50059 2.31237,2.55952 5.14577,7.65678 6.31108,11.35361 2.01585,6.39496 2.01295,7.03244 -0.0619,13.62906 -2.76981,8.80595 -8.05619,14.81443 -16.20454,18.41803 -6.32151,2.79566 -7.07566,2.84088 -45.05315,2.70133 -29.67255,-0.10903 -39.71326,-0.5352 -43.32392,-1.83884 z m 79.47017,-8.57179 c 5.48031,-0.65799 7.36941,-1.57524 11.26278,-5.4686 4.32275,-4.32275 4.67801,-5.20096 4.67801,-11.56427 0,-5.42695 -0.63051,-7.71289 -2.97527,-10.78703 -5.85242,-7.67292 -7.27159,-7.89843 -49.56546,-7.87624 -37.25468,0.0196 -38.28412,0.0853 -42.91397,2.7396 -5.53184,3.17145 -9.25873,9.41236 -9.25873,15.50434 0,5.00405 3.46445,12.098 6.80766,13.93961 1.27838,0.7042 2.60539,1.65049 2.94892,2.10286 0.34353,0.45237 2.80917,1.04517 5.47919,1.31731 8.34087,0.85018 66.61567,0.92342 73.53687,0.0924 z m -26.76159,-55.45136 c 23.65768,-8.00494 30.71451,-35.66345 13.91095,-54.52258 -7.77329,-8.72418 -23.49132,-12.2023 -34.76276,-7.69236 -18.80449,7.52406 -27.2029,29.44089 -17.57621,45.86759 3.52979,6.02313 10.25111,12.94818 12.56725,12.94818 0.87739,0 1.59526,0.43461 1.59526,0.9658 0,3.15803 17.06601,4.86943 24.26551,2.43337 z"
             id="path223"
             transform="matrix(0.26458333,0,0,0.26458333,-11.409115,45.331264)" /><path
             style="fill:#beb41e;fill-opacity:1;stroke:none;stroke-width:9.20389;stroke-linecap:butt;stroke-linejoin:round;stroke-dasharray:none;stroke-opacity:1;paint-order:stroke markers fill"
             d="m 271.068,268.17597 c -1.20792,-2.84614 -3.16413,-7.91439 -4.34712,-11.26279 -1.18299,-3.34839 -2.5983,-7.18382 -3.14513,-8.52318 -0.54684,-1.33936 -1.91663,-5.17479 -3.044,-8.52319 -1.12736,-3.34839 -2.49861,-7.18383 -3.04721,-8.52318 -2.57994,-6.29872 -10.88247,-29.57214 -11.5568,-32.39571 -0.50866,-2.12985 -0.0997,-3.8315 1.24357,-5.1748 3.99115,-3.99115 6.67442,-1.49747 10.94805,10.17455 1.83899,5.02259 3.76874,10.22782 4.28832,11.56718 0.51959,1.33936 1.8671,5.17479 2.99446,8.52319 1.12737,3.34839 2.49818,7.18383 3.04624,8.52318 0.54806,1.33936 2.55546,6.69628 4.46089,11.90427 2.20199,6.01857 4.05611,9.34624 5.0882,9.13199 0.89308,-0.1854 2.69792,-3.6246 4.01075,-7.64268 1.31283,-4.01807 2.85756,-8.40142 3.43275,-9.74078 0.57518,-1.33936 1.97731,-5.17479 3.11584,-8.52319 1.13853,-3.34839 2.84025,-7.81455 3.78159,-9.9248 0.94134,-2.11024 1.71152,-4.60327 1.71152,-5.54007 0,-0.93679 0.43738,-2.22378 0.97195,-2.85998 0.53457,-0.63619 2.00632,-4.17027 3.27057,-7.85351 2.45471,-7.1515 4.31389,-9.74078 6.99417,-9.74078 4.03619,0 5.9749,5.99601 3.45014,10.6705 -0.62807,1.16286 -2.49613,5.94971 -4.15124,10.63747 -4.85721,13.75706 -13.06894,36.32665 -14.17635,38.96313 -0.56257,1.33936 -2.01329,5.44875 -3.2238,9.13199 -3.35773,10.21657 -4.92776,12.17598 -9.75631,12.17598 -3.74356,0 -4.38698,-0.52343 -6.36105,-5.17479 z"
             id="path224"
             transform="matrix(0.26458333,0,0,0.26458333,-11.409115,45.331264)" /><path
             style="fill:#beb41e;fill-opacity:1;stroke:none;stroke-width:9.20389;stroke-linecap:butt;stroke-linejoin:round;stroke-dasharray:none;stroke-opacity:1;paint-order:stroke markers fill"
             d="m 203.33887,271.75716 c -8.3491,-4.9727 -12.99162,-9.98508 -17.03556,-18.39279 -3.90653,-8.12202 -4.27083,-9.81018 -4.25407,-19.71331 0.0197,-11.6231 1.18193,-16.23587 6.25781,-24.83595 5.84653,-9.90581 17.20679,-17.00675 27.2078,-17.00675 11.22325,0 26.98832,11.30242 25.94921,18.60371 -0.62754,4.40938 -5.30266,4.06222 -10.6766,-0.79281 -6.45832,-5.8347 -9.16148,-7.09212 -15.2464,-7.09212 -8.54694,0 -14.37568,4.08113 -20.28827,14.20531 -2.43906,4.17641 -2.8445,6.51859 -2.84541,16.43757 -9.4e-4,10.30133 0.3502,12.1668 3.20872,17.04638 8.59484,14.67168 22.53773,17.58956 34.35314,7.18922 6.53792,-5.75491 10.88583,-6.12127 11.48396,-0.96767 0.44933,3.87153 -5.69415,10.6721 -13.0148,14.40682 -5.61439,2.86425 -20.89006,3.41953 -25.09953,0.91239 z"
             id="path225"
             transform="matrix(0.26458333,0,0,0.26458333,-11.409115,45.331264)" /><path
             style="fill:#beb41e;fill-opacity:1;stroke:none;stroke-width:9.20389;stroke-linecap:butt;stroke-linejoin:round;stroke-dasharray:none;stroke-opacity:1;paint-order:stroke markers fill"
             d="m 74.852142,275.09789 c -1.51823,-3.99325 -1.507923,-8.05131 0.03073,-12.09827 0.972007,-2.55657 1.894739,-3.12623 4.565992,-2.81886 3.218716,0.37037 3.361976,0.68612 3.715328,8.18873 0.255223,5.41909 -0.116824,8.11074 -1.217598,8.80894 -2.999919,1.90282 -5.903752,1.05123 -7.09445,-2.08054 z"
             id="path226"
             transform="matrix(0.26458333,0,0,0.26458333,-11.409115,45.331264)" /><path
             style="fill:#beb41e;fill-opacity:1;stroke:none;stroke-width:9.20389;stroke-linecap:butt;stroke-linejoin:round;stroke-dasharray:none;stroke-opacity:1;paint-order:stroke markers fill"
             d="m 266.25207,339.25469 c -0.91985,-0.58314 -1.44587,-2.54765 -1.2176,-4.54735 l 0.4019,-3.52068 27.85199,-0.32764 c 19.52143,-0.22965 28.3529,0.0881 29.52675,1.06228 2.41037,2.00044 2.06054,5.67002 -0.68038,7.13691 -2.84485,1.52252 -53.50995,1.70065 -55.88266,0.19648 z"
             id="path227"
             transform="matrix(0.26458333,0,0,0.26458333,-11.409115,45.331264)" /><path
             style="fill:#beb41e;fill-opacity:1;stroke:none;stroke-width:9.20389;stroke-linecap:butt;stroke-linejoin:round;stroke-dasharray:none;stroke-opacity:1;paint-order:stroke markers fill"
             d="m 266.25207,389.17621 c -0.91985,-0.58314 -1.44587,-2.54765 -1.2176,-4.54735 l 0.4019,-3.52068 60.2711,-0.31881 c 54.21549,-0.28678 60.41562,-0.12197 61.70948,1.64035 1.51084,2.05788 0.86216,5.36415 -1.34956,6.87861 -1.82974,1.25289 -117.83234,1.12498 -119.81532,-0.13212 z"
             id="path228"
             transform="matrix(0.26458333,0,0,0.26458333,-11.409115,45.331264)" /><path
             style="fill:#beb41e;fill-opacity:1;stroke:none;stroke-width:9.20389;stroke-linecap:butt;stroke-linejoin:round;stroke-dasharray:none;stroke-opacity:1;paint-order:stroke markers fill"
             d="m 266.34957,439.3553 c -1.70208,-0.68681 -2.00448,-5.07167 -0.51191,-7.42272 0.76671,-1.20772 15.40087,-1.46566 69.08004,-1.2176 l 68.10725,0.31472 0.4019,3.52068 c 0.22827,1.9997 -0.29775,3.96421 -1.21759,4.54735 -1.69667,1.07558 -133.21451,1.32492 -135.85969,0.25757 z"
             id="path229"
             transform="matrix(0.26458333,0,0,0.26458333,-11.409115,45.331264)" /><path
             style="fill:#beb41e;fill-opacity:1;stroke:none;stroke-width:9.20389;stroke-linecap:butt;stroke-linejoin:round;stroke-dasharray:none;stroke-opacity:1;paint-order:stroke markers fill"
             d="m 216.42805,489.27682 c -1.93754,-0.78182 -1.97645,-5.55771 -0.0609,-7.47328 1.11035,-1.11035 23.30164,-1.46112 92.43787,-1.46112 50.03721,0 91.84344,0.33258 92.90272,0.73907 2.53986,0.97464 2.53986,7.28801 0,8.26265 -2.3024,0.88352 -183.08608,0.81783 -185.27971,-0.0673 z"
             id="path230"
             transform="matrix(0.26458333,0,0,0.26458333,-11.409115,45.331264)" /><path
             style="fill:#beb41e;fill-opacity:1;stroke:none;stroke-width:9.20389;stroke-linecap:butt;stroke-linejoin:round;stroke-dasharray:none;stroke-opacity:1;paint-order:stroke markers fill"
             d="m 216.42805,539.19834 c -1.93754,-0.78182 -1.97645,-5.55771 -0.0609,-7.47328 1.11035,-1.11035 23.30164,-1.46112 92.43787,-1.46112 50.03721,0 91.84344,0.33258 92.90272,0.73907 2.53986,0.97464 2.53986,7.28801 0,8.26265 -2.3024,0.88352 -183.08608,0.81783 -185.27971,-0.0673 z"
             id="path231"
             transform="matrix(0.26458333,0,0,0.26458333,-11.409115,45.331264)" /><path
             style="fill:#beb41e;fill-opacity:1;stroke:none;stroke-width:9.20389;stroke-linecap:butt;stroke-linejoin:round;stroke-dasharray:none;stroke-opacity:1;paint-order:stroke markers fill"
             d="m 218.25445,589.72865 c -3.60411,-1.31633 -4.55991,-5.40944 -1.88728,-8.08207 2.11497,-2.11497 183.69048,-2.11497 185.80546,0 2.61346,2.61347 1.73222,7.01927 -1.66214,8.3098 -4.29268,1.63208 -177.75737,1.41533 -182.25604,-0.22773 z"
             id="path232"
             transform="matrix(0.26458333,0,0,0.26458333,-11.409115,45.331264)" /><path
             style="fill:#beb41e;fill-opacity:1;stroke:none;stroke-width:9.20389;stroke-linecap:butt;stroke-linejoin:round;stroke-dasharray:none;stroke-opacity:1;paint-order:stroke markers fill"
             d="m 119.02021,589.8883 c -3.02081,-1.21421 -3.73056,-5.78964 -1.27848,-8.24172 2.07877,-2.07877 61.96689,-2.07877 64.04566,0 2.84055,2.84055 1.707,6.73813 -2.37337,8.16056 -4.65847,1.62395 -56.38263,1.69346 -60.39381,0.0812 z"
             id="path233"
             transform="matrix(0.26458333,0,0,0.26458333,-11.409115,45.331264)" /><path
             style="fill:#beb41e;fill-opacity:1;stroke:none;stroke-width:9.20389;stroke-linecap:butt;stroke-linejoin:round;stroke-dasharray:none;stroke-opacity:1;paint-order:stroke markers fill"
             d="m 117.80261,539.19834 c -2.21459,-0.89361 -1.8982,-7.3119 0.40398,-8.19533 1.05929,-0.40649 15.46957,-0.73907 32.02283,-0.73907 21.7852,0 30.50036,0.40351 31.55797,1.46112 2.08749,2.0875 1.80502,6.66956 -0.46487,7.5406 -2.29592,0.88103 -61.32469,0.81847 -63.51991,-0.0673 z"
             id="path234"
             transform="matrix(0.26458333,0,0,0.26458333,-11.409115,45.331264)" /><path
             style="fill:#beb41e;fill-opacity:1;stroke:none;stroke-width:9.20389;stroke-linecap:butt;stroke-linejoin:round;stroke-dasharray:none;stroke-opacity:1;paint-order:stroke markers fill"
             d="m 117.80261,489.27682 c -2.21459,-0.89361 -1.8982,-7.3119 0.40398,-8.19533 1.05929,-0.40649 15.46957,-0.73907 32.02283,-0.73907 21.7852,0 30.50036,0.40351 31.55797,1.46112 2.08749,2.0875 1.80502,6.66956 -0.46487,7.5406 -2.29592,0.88103 -61.32469,0.81847 -63.51991,-0.0673 z"
             id="path235"
             transform="matrix(0.26458333,0,0,0.26458333,-11.409115,45.331264)" /></g><circle
           style="fill:none;fill-opacity:1;stroke:#beb41e;stroke-width:2;stroke-linecap:butt;stroke-linejoin:round;stroke-dasharray:none;stroke-opacity:1;paint-order:stroke markers fill"
           id="path236"
           cx="55.7593"
           cy="153.73682"
           r="105.0229" /></g><g
         id="g251"
         style="filter:url(#filter295)"><g
           id="g250"
           transform="translate(-1.61135,3.7234575)"><path
             style="fill:#beb41e;fill-opacity:1;stroke:none;stroke-width:9.20389;stroke-linecap:butt;stroke-linejoin:round;stroke-dasharray:none;stroke-opacity:1;paint-order:stroke markers fill"
             d="m 116.50543,644.57438 c -9.51118,-1.5823 -19.375576,-6.8791 -26.987925,-14.49145 C 80.664676,621.23011 76.301737,612.09 74.833406,599.3206 73.238184,585.44768 73.284748,295.20775 74.88287,291.00437 c 0.972007,-2.55656 1.894739,-3.12623 4.565992,-2.81886 l 3.347804,0.38522 0.646701,155.85255 c 0.450803,108.64237 1.05504,157.22514 1.994732,160.38379 0.741417,2.49218 2.7704,6.95833 4.508848,9.92477 3.405878,5.81169 13.454723,15.37514 16.155503,15.37514 0.91024,0 1.65498,0.43333 1.65498,0.96298 0,0.52963 3.51442,1.89942 7.80983,3.04399 7.14812,1.9047 19.39911,2.07979 144.58976,2.06657 110.79222,-0.0117 137.93663,-0.32595 142.86793,-1.65397 11.63444,-3.13322 21.25631,-10.2083 26.91817,-19.79323 6.79977,-11.51134 6.56577,-4.9875 6.56577,-183.05464 0,-90.3192 -0.33257,-165.08344 -0.73907,-166.14273 -0.64715,-1.68647 -4.62185,-1.92761 -31.96194,-1.93916 -32.81225,-0.0138 -35.94778,-0.41002 -47.96814,-6.06084 -6.90825,-3.2476 -18.02403,-14.01067 -21.06497,-20.39658 -6.46245,-13.57102 -6.6321,-14.81338 -6.6321,-48.56862 0,-27.91877 -0.23766,-31.94006 -1.92598,-32.58793 -1.05929,-0.40649 -47.10887,-0.73907 -102.3324,-0.73907 -88.55255,0 -101.33439,0.2331 -108.26664,1.97442 -4.32312,1.08594 -7.86022,2.45574 -7.86022,3.044 0,0.58826 -0.74474,1.06957 -1.65498,1.06957 -2.66285,0 -12.729272,9.52872 -16.046816,15.18968 -5.604345,9.5631 -6.650169,16.75107 -6.650169,45.70679 0,25.92902 -0.073,26.72398 -2.577247,28.06421 -2.059757,1.10235 -2.97657,0.98059 -4.565992,-0.60638 -1.6605,-1.65794 -2.051532,-5.58368 -2.369146,-23.78491 -0.683994,-39.19706 2.214945,-51.20638 15.589165,-64.5806 8.115991,-8.11599 17.699515,-12.95753 28.835555,-14.56754 4.9474,-0.71529 50.69613,-1.21155 113.01085,-1.22591 l 104.69847,-0.0241 55.11127,55.11129 55.11129,55.11128 -0.0376,168.01356 c -0.0219,97.91814 -0.51655,171.70118 -1.18564,176.85252 -1.50042,11.55197 -6.23547,21.09722 -14.62958,29.49132 -7.9547,7.95469 -17.34474,12.82455 -28.08999,14.56802 -9.69259,1.57266 -276.31733,1.50123 -285.80144,-0.0766 z M 426.76811,252.35353 c 0,-2.06018 -85.40435,-87.369 -87.46685,-87.369 -1.3404,0 -1.56342,5.44361 -1.22403,29.87649 0.2763,19.89051 0.86108,30.16656 1.74955,30.74435 0.73398,0.47733 1.69195,2.32952 2.12882,4.11598 1.04091,4.25654 11.61108,15.69938 16.80604,18.19355 12.29968,5.90522 10.4577,5.64736 41.52371,5.81305 20.39102,0.10875 26.48276,-0.2074 26.48276,-1.37442 z"
             id="path237"
             transform="matrix(0.26458333,0,0,0.26458333,-11.409115,45.331264)" /><path
             style="fill:#beb41e;fill-opacity:1;stroke:none;stroke-width:9.20389;stroke-linecap:butt;stroke-linejoin:round;stroke-dasharray:none;stroke-opacity:1;paint-order:stroke markers fill"
             d="m 135.32387,445.48651 c -15.86462,-5.72796 -23.38976,-22.89174 -16.4807,-37.59013 2.75996,-5.87157 9.13863,-12.19303 14.31468,-14.18631 1.76722,-0.68056 9.38631,-1.5476 16.93131,-1.92677 l 13.71817,-0.6894 -7.84775,-5.26465 c -11.53487,-7.73815 -16.4216,-14.96738 -19.00963,-28.12208 -5.82046,-29.58483 20.60983,-55.26373 50.49511,-49.05957 12.98952,2.69661 23.2875,10.73543 29.41024,22.95823 3.04883,6.08637 3.45427,8.23028 3.48977,18.4536 0.036,10.36284 -0.32317,12.28419 -3.4496,18.45361 -3.89401,7.68411 -10.91026,14.98769 -18.79201,19.56155 l -5.2354,3.03816 13.82232,0.60998 c 15.8173,0.69801 20.50566,2.3498 26.96597,9.50059 2.31237,2.55952 5.14577,7.65678 6.31108,11.35361 2.01585,6.39496 2.01295,7.03244 -0.0619,13.62906 -2.76981,8.80595 -8.05619,14.81443 -16.20454,18.41803 -6.32151,2.79566 -7.07566,2.84088 -45.05315,2.70133 -29.67255,-0.10903 -39.71326,-0.5352 -43.32392,-1.83884 z m 79.47017,-8.57179 c 5.48031,-0.65799 7.36941,-1.57524 11.26278,-5.4686 4.32275,-4.32275 4.67801,-5.20096 4.67801,-11.56427 0,-5.42695 -0.63051,-7.71289 -2.97527,-10.78703 -5.85242,-7.67292 -7.27159,-7.89843 -49.56546,-7.87624 -37.25468,0.0196 -38.28412,0.0853 -42.91397,2.7396 -5.53184,3.17145 -9.25873,9.41236 -9.25873,15.50434 0,5.00405 3.46445,12.098 6.80766,13.93961 1.27838,0.7042 2.60539,1.65049 2.94892,2.10286 0.34353,0.45237 2.80917,1.04517 5.47919,1.31731 8.34087,0.85018 66.61567,0.92342 73.53687,0.0924 z m -26.76159,-55.45136 c 23.65768,-8.00494 30.71451,-35.66345 13.91095,-54.52258 -7.77329,-8.72418 -23.49132,-12.2023 -34.76276,-7.69236 -18.80449,7.52406 -27.2029,29.44089 -17.57621,45.86759 3.52979,6.02313 10.25111,12.94818 12.56725,12.94818 0.87739,0 1.59526,0.43461 1.59526,0.9658 0,3.15803 17.06601,4.86943 24.26551,2.43337 z"
             id="path238"
             transform="matrix(0.26458333,0,0,0.26458333,-11.409115,45.331264)" /><path
             style="fill:#beb41e;fill-opacity:1;stroke:none;stroke-width:9.20389;stroke-linecap:butt;stroke-linejoin:round;stroke-dasharray:none;stroke-opacity:1;paint-order:stroke markers fill"
             d="m 271.068,268.17597 c -1.20792,-2.84614 -3.16413,-7.91439 -4.34712,-11.26279 -1.18299,-3.34839 -2.5983,-7.18382 -3.14513,-8.52318 -0.54684,-1.33936 -1.91663,-5.17479 -3.044,-8.52319 -1.12736,-3.34839 -2.49861,-7.18383 -3.04721,-8.52318 -2.57994,-6.29872 -10.88247,-29.57214 -11.5568,-32.39571 -0.50866,-2.12985 -0.0997,-3.8315 1.24357,-5.1748 3.99115,-3.99115 6.67442,-1.49747 10.94805,10.17455 1.83899,5.02259 3.76874,10.22782 4.28832,11.56718 0.51959,1.33936 1.8671,5.17479 2.99446,8.52319 1.12737,3.34839 2.49818,7.18383 3.04624,8.52318 0.54806,1.33936 2.55546,6.69628 4.46089,11.90427 2.20199,6.01857 4.05611,9.34624 5.0882,9.13199 0.89308,-0.1854 2.69792,-3.6246 4.01075,-7.64268 1.31283,-4.01807 2.85756,-8.40142 3.43275,-9.74078 0.57518,-1.33936 1.97731,-5.17479 3.11584,-8.52319 1.13853,-3.34839 2.84025,-7.81455 3.78159,-9.9248 0.94134,-2.11024 1.71152,-4.60327 1.71152,-5.54007 0,-0.93679 0.43738,-2.22378 0.97195,-2.85998 0.53457,-0.63619 2.00632,-4.17027 3.27057,-7.85351 2.45471,-7.1515 4.31389,-9.74078 6.99417,-9.74078 4.03619,0 5.9749,5.99601 3.45014,10.6705 -0.62807,1.16286 -2.49613,5.94971 -4.15124,10.63747 -4.85721,13.75706 -13.06894,36.32665 -14.17635,38.96313 -0.56257,1.33936 -2.01329,5.44875 -3.2238,9.13199 -3.35773,10.21657 -4.92776,12.17598 -9.75631,12.17598 -3.74356,0 -4.38698,-0.52343 -6.36105,-5.17479 z"
             id="path239"
             transform="matrix(0.26458333,0,0,0.26458333,-11.409115,45.331264)" /><path
             style="fill:#beb41e;fill-opacity:1;stroke:none;stroke-width:9.20389;stroke-linecap:butt;stroke-linejoin:round;stroke-dasharray:none;stroke-opacity:1;paint-order:stroke markers fill"
             d="m 203.33887,271.75716 c -8.3491,-4.9727 -12.99162,-9.98508 -17.03556,-18.39279 -3.90653,-8.12202 -4.27083,-9.81018 -4.25407,-19.71331 0.0197,-11.6231 1.18193,-16.23587 6.25781,-24.83595 5.84653,-9.90581 17.20679,-17.00675 27.2078,-17.00675 11.22325,0 26.98832,11.30242 25.94921,18.60371 -0.62754,4.40938 -5.30266,4.06222 -10.6766,-0.79281 -6.45832,-5.8347 -9.16148,-7.09212 -15.2464,-7.09212 -8.54694,0 -14.37568,4.08113 -20.28827,14.20531 -2.43906,4.17641 -2.8445,6.51859 -2.84541,16.43757 -9.4e-4,10.30133 0.3502,12.1668 3.20872,17.04638 8.59484,14.67168 22.53773,17.58956 34.35314,7.18922 6.53792,-5.75491 10.88583,-6.12127 11.48396,-0.96767 0.44933,3.87153 -5.69415,10.6721 -13.0148,14.40682 -5.61439,2.86425 -20.89006,3.41953 -25.09953,0.91239 z"
             id="path240"
             transform="matrix(0.26458333,0,0,0.26458333,-11.409115,45.331264)" /><path
             style="fill:#beb41e;fill-opacity:1;stroke:none;stroke-width:9.20389;stroke-linecap:butt;stroke-linejoin:round;stroke-dasharray:none;stroke-opacity:1;paint-order:stroke markers fill"
             d="m 74.852142,275.09789 c -1.51823,-3.99325 -1.507923,-8.05131 0.03073,-12.09827 0.972007,-2.55657 1.894739,-3.12623 4.565992,-2.81886 3.218716,0.37037 3.361976,0.68612 3.715328,8.18873 0.255223,5.41909 -0.116824,8.11074 -1.217598,8.80894 -2.999919,1.90282 -5.903752,1.05123 -7.09445,-2.08054 z"
             id="path241"
             transform="matrix(0.26458333,0,0,0.26458333,-11.409115,45.331264)" /><path
             style="fill:#beb41e;fill-opacity:1;stroke:none;stroke-width:9.20389;stroke-linecap:butt;stroke-linejoin:round;stroke-dasharray:none;stroke-opacity:1;paint-order:stroke markers fill"
             d="m 266.25207,339.25469 c -0.91985,-0.58314 -1.44587,-2.54765 -1.2176,-4.54735 l 0.4019,-3.52068 27.85199,-0.32764 c 19.52143,-0.22965 28.3529,0.0881 29.52675,1.06228 2.41037,2.00044 2.06054,5.67002 -0.68038,7.13691 -2.84485,1.52252 -53.50995,1.70065 -55.88266,0.19648 z"
             id="path242"
             transform="matrix(0.26458333,0,0,0.26458333,-11.409115,45.331264)" /><path
             style="fill:#beb41e;fill-opacity:1;stroke:none;stroke-width:9.20389;stroke-linecap:butt;stroke-linejoin:round;stroke-dasharray:none;stroke-opacity:1;paint-order:stroke markers fill"
             d="m 266.25207,389.17621 c -0.91985,-0.58314 -1.44587,-2.54765 -1.2176,-4.54735 l 0.4019,-3.52068 60.2711,-0.31881 c 54.21549,-0.28678 60.41562,-0.12197 61.70948,1.64035 1.51084,2.05788 0.86216,5.36415 -1.34956,6.87861 -1.82974,1.25289 -117.83234,1.12498 -119.81532,-0.13212 z"
             id="path243"
             transform="matrix(0.26458333,0,0,0.26458333,-11.409115,45.331264)" /><path
             style="fill:#beb41e;fill-opacity:1;stroke:none;stroke-width:9.20389;stroke-linecap:butt;stroke-linejoin:round;stroke-dasharray:none;stroke-opacity:1;paint-order:stroke markers fill"
             d="m 266.34957,439.3553 c -1.70208,-0.68681 -2.00448,-5.07167 -0.51191,-7.42272 0.76671,-1.20772 15.40087,-1.46566 69.08004,-1.2176 l 68.10725,0.31472 0.4019,3.52068 c 0.22827,1.9997 -0.29775,3.96421 -1.21759,4.54735 -1.69667,1.07558 -133.21451,1.32492 -135.85969,0.25757 z"
             id="path244"
             transform="matrix(0.26458333,0,0,0.26458333,-11.409115,45.331264)" /><path
             style="fill:#beb41e;fill-opacity:1;stroke:none;stroke-width:9.20389;stroke-linecap:butt;stroke-linejoin:round;stroke-dasharray:none;stroke-opacity:1;paint-order:stroke markers fill"
             d="m 216.42805,489.27682 c -1.93754,-0.78182 -1.97645,-5.55771 -0.0609,-7.47328 1.11035,-1.11035 23.30164,-1.46112 92.43787,-1.46112 50.03721,0 91.84344,0.33258 92.90272,0.73907 2.53986,0.97464 2.53986,7.28801 0,8.26265 -2.3024,0.88352 -183.08608,0.81783 -185.27971,-0.0673 z"
             id="path245"
             transform="matrix(0.26458333,0,0,0.26458333,-11.409115,45.331264)" /><path
             style="fill:#beb41e;fill-opacity:1;stroke:none;stroke-width:9.20389;stroke-linecap:butt;stroke-linejoin:round;stroke-dasharray:none;stroke-opacity:1;paint-order:stroke markers fill"
             d="m 216.42805,539.19834 c -1.93754,-0.78182 -1.97645,-5.55771 -0.0609,-7.47328 1.11035,-1.11035 23.30164,-1.46112 92.43787,-1.46112 50.03721,0 91.84344,0.33258 92.90272,0.73907 2.53986,0.97464 2.53986,7.28801 0,8.26265 -2.3024,0.88352 -183.08608,0.81783 -185.27971,-0.0673 z"
             id="path246"
             transform="matrix(0.26458333,0,0,0.26458333,-11.409115,45.331264)" /><path
             style="fill:#beb41e;fill-opacity:1;stroke:none;stroke-width:9.20389;stroke-linecap:butt;stroke-linejoin:round;stroke-dasharray:none;stroke-opacity:1;paint-order:stroke markers fill"
             d="m 218.25445,589.72865 c -3.60411,-1.31633 -4.55991,-5.40944 -1.88728,-8.08207 2.11497,-2.11497 183.69048,-2.11497 185.80546,0 2.61346,2.61347 1.73222,7.01927 -1.66214,8.3098 -4.29268,1.63208 -177.75737,1.41533 -182.25604,-0.22773 z"
             id="path247"
             transform="matrix(0.26458333,0,0,0.26458333,-11.409115,45.331264)" /><path
             style="fill:#beb41e;fill-opacity:1;stroke:none;stroke-width:9.20389;stroke-linecap:butt;stroke-linejoin:round;stroke-dasharray:none;stroke-opacity:1;paint-order:stroke markers fill"
             d="m 119.02021,589.8883 c -3.02081,-1.21421 -3.73056,-5.78964 -1.27848,-8.24172 2.07877,-2.07877 61.96689,-2.07877 64.04566,0 2.84055,2.84055 1.707,6.73813 -2.37337,8.16056 -4.65847,1.62395 -56.38263,1.69346 -60.39381,0.0812 z"
             id="path248"
             transform="matrix(0.26458333,0,0,0.26458333,-11.409115,45.331264)" /><path
             style="fill:#beb41e;fill-opacity:1;stroke:none;stroke-width:9.20389;stroke-linecap:butt;stroke-linejoin:round;stroke-dasharray:none;stroke-opacity:1;paint-order:stroke markers fill"
             d="m 117.80261,539.19834 c -2.21459,-0.89361 -1.8982,-7.3119 0.40398,-8.19533 1.05929,-0.40649 15.46957,-0.73907 32.02283,-0.73907 21.7852,0 30.50036,0.40351 31.55797,1.46112 2.08749,2.0875 1.80502,6.66956 -0.46487,7.5406 -2.29592,0.88103 -61.32469,0.81847 -63.51991,-0.0673 z"
             id="path249"
             transform="matrix(0.26458333,0,0,0.26458333,-11.409115,45.331264)" /><path
             style="fill:#beb41e;fill-opacity:1;stroke:none;stroke-width:9.20389;stroke-linecap:butt;stroke-linejoin:round;stroke-dasharray:none;stroke-opacity:1;paint-order:stroke markers fill"
             d="m 117.80261,489.27682 c -2.21459,-0.89361 -1.8982,-7.3119 0.40398,-8.19533 1.05929,-0.40649 15.46957,-0.73907 32.02283,-0.73907 21.7852,0 30.50036,0.40351 31.55797,1.46112 2.08749,2.0875 1.80502,6.66956 -0.46487,7.5406 -2.29592,0.88103 -61.32469,0.81847 -63.51991,-0.0673 z"
             id="path250"
             transform="matrix(0.26458333,0,0,0.26458333,-11.409115,45.331264)" /></g><circle
           style="fill:none;fill-opacity:1;stroke:#beb41e;stroke-width:2;stroke-linecap:butt;stroke-linejoin:round;stroke-dasharray:none;stroke-opacity:1;paint-order:stroke markers fill"
           id="circle250"
           cx="55.7593"
           cy="153.73682"
           r="105.0229" /></g><g
         id="g265"
         style="filter:url(#filter294)"><g
           id="g264"
           transform="translate(-1.61135,3.7234575)"><path
             style="fill:#beb41e;fill-opacity:1;stroke:none;stroke-width:9.20389;stroke-linecap:butt;stroke-linejoin:round;stroke-dasharray:none;stroke-opacity:1;paint-order:stroke markers fill"
             d="m 116.50543,644.57438 c -9.51118,-1.5823 -19.375576,-6.8791 -26.987925,-14.49145 C 80.664676,621.23011 76.301737,612.09 74.833406,599.3206 73.238184,585.44768 73.284748,295.20775 74.88287,291.00437 c 0.972007,-2.55656 1.894739,-3.12623 4.565992,-2.81886 l 3.347804,0.38522 0.646701,155.85255 c 0.450803,108.64237 1.05504,157.22514 1.994732,160.38379 0.741417,2.49218 2.7704,6.95833 4.508848,9.92477 3.405878,5.81169 13.454723,15.37514 16.155503,15.37514 0.91024,0 1.65498,0.43333 1.65498,0.96298 0,0.52963 3.51442,1.89942 7.80983,3.04399 7.14812,1.9047 19.39911,2.07979 144.58976,2.06657 110.79222,-0.0117 137.93663,-0.32595 142.86793,-1.65397 11.63444,-3.13322 21.25631,-10.2083 26.91817,-19.79323 6.79977,-11.51134 6.56577,-4.9875 6.56577,-183.05464 0,-90.3192 -0.33257,-165.08344 -0.73907,-166.14273 -0.64715,-1.68647 -4.62185,-1.92761 -31.96194,-1.93916 -32.81225,-0.0138 -35.94778,-0.41002 -47.96814,-6.06084 -6.90825,-3.2476 -18.02403,-14.01067 -21.06497,-20.39658 -6.46245,-13.57102 -6.6321,-14.81338 -6.6321,-48.56862 0,-27.91877 -0.23766,-31.94006 -1.92598,-32.58793 -1.05929,-0.40649 -47.10887,-0.73907 -102.3324,-0.73907 -88.55255,0 -101.33439,0.2331 -108.26664,1.97442 -4.32312,1.08594 -7.86022,2.45574 -7.86022,3.044 0,0.58826 -0.74474,1.06957 -1.65498,1.06957 -2.66285,0 -12.729272,9.52872 -16.046816,15.18968 -5.604345,9.5631 -6.650169,16.75107 -6.650169,45.70679 0,25.92902 -0.073,26.72398 -2.577247,28.06421 -2.059757,1.10235 -2.97657,0.98059 -4.565992,-0.60638 -1.6605,-1.65794 -2.051532,-5.58368 -2.369146,-23.78491 -0.683994,-39.19706 2.214945,-51.20638 15.589165,-64.5806 8.115991,-8.11599 17.699515,-12.95753 28.835555,-14.56754 4.9474,-0.71529 50.69613,-1.21155 113.01085,-1.22591 l 104.69847,-0.0241 55.11127,55.11129 55.11129,55.11128 -0.0376,168.01356 c -0.0219,97.91814 -0.51655,171.70118 -1.18564,176.85252 -1.50042,11.55197 -6.23547,21.09722 -14.62958,29.49132 -7.9547,7.95469 -17.34474,12.82455 -28.08999,14.56802 -9.69259,1.57266 -276.31733,1.50123 -285.80144,-0.0766 z M 426.76811,252.35353 c 0,-2.06018 -85.40435,-87.369 -87.46685,-87.369 -1.3404,0 -1.56342,5.44361 -1.22403,29.87649 0.2763,19.89051 0.86108,30.16656 1.74955,30.74435 0.73398,0.47733 1.69195,2.32952 2.12882,4.11598 1.04091,4.25654 11.61108,15.69938 16.80604,18.19355 12.29968,5.90522 10.4577,5.64736 41.52371,5.81305 20.39102,0.10875 26.48276,-0.2074 26.48276,-1.37442 z"
             id="path251"
             transform="matrix(0.26458333,0,0,0.26458333,-11.409115,45.331264)" /><path
             style="fill:#beb41e;fill-opacity:1;stroke:none;stroke-width:9.20389;stroke-linecap:butt;stroke-linejoin:round;stroke-dasharray:none;stroke-opacity:1;paint-order:stroke markers fill"
             d="m 135.32387,445.48651 c -15.86462,-5.72796 -23.38976,-22.89174 -16.4807,-37.59013 2.75996,-5.87157 9.13863,-12.19303 14.31468,-14.18631 1.76722,-0.68056 9.38631,-1.5476 16.93131,-1.92677 l 13.71817,-0.6894 -7.84775,-5.26465 c -11.53487,-7.73815 -16.4216,-14.96738 -19.00963,-28.12208 -5.82046,-29.58483 20.60983,-55.26373 50.49511,-49.05957 12.98952,2.69661 23.2875,10.73543 29.41024,22.95823 3.04883,6.08637 3.45427,8.23028 3.48977,18.4536 0.036,10.36284 -0.32317,12.28419 -3.4496,18.45361 -3.89401,7.68411 -10.91026,14.98769 -18.79201,19.56155 l -5.2354,3.03816 13.82232,0.60998 c 15.8173,0.69801 20.50566,2.3498 26.96597,9.50059 2.31237,2.55952 5.14577,7.65678 6.31108,11.35361 2.01585,6.39496 2.01295,7.03244 -0.0619,13.62906 -2.76981,8.80595 -8.05619,14.81443 -16.20454,18.41803 -6.32151,2.79566 -7.07566,2.84088 -45.05315,2.70133 -29.67255,-0.10903 -39.71326,-0.5352 -43.32392,-1.83884 z m 79.47017,-8.57179 c 5.48031,-0.65799 7.36941,-1.57524 11.26278,-5.4686 4.32275,-4.32275 4.67801,-5.20096 4.67801,-11.56427 0,-5.42695 -0.63051,-7.71289 -2.97527,-10.78703 -5.85242,-7.67292 -7.27159,-7.89843 -49.56546,-7.87624 -37.25468,0.0196 -38.28412,0.0853 -42.91397,2.7396 -5.53184,3.17145 -9.25873,9.41236 -9.25873,15.50434 0,5.00405 3.46445,12.098 6.80766,13.93961 1.27838,0.7042 2.60539,1.65049 2.94892,2.10286 0.34353,0.45237 2.80917,1.04517 5.47919,1.31731 8.34087,0.85018 66.61567,0.92342 73.53687,0.0924 z m -26.76159,-55.45136 c 23.65768,-8.00494 30.71451,-35.66345 13.91095,-54.52258 -7.77329,-8.72418 -23.49132,-12.2023 -34.76276,-7.69236 -18.80449,7.52406 -27.2029,29.44089 -17.57621,45.86759 3.52979,6.02313 10.25111,12.94818 12.56725,12.94818 0.87739,0 1.59526,0.43461 1.59526,0.9658 0,3.15803 17.06601,4.86943 24.26551,2.43337 z"
             id="path252"
             transform="matrix(0.26458333,0,0,0.26458333,-11.409115,45.331264)" /><path
             style="fill:#beb41e;fill-opacity:1;stroke:none;stroke-width:9.20389;stroke-linecap:butt;stroke-linejoin:round;stroke-dasharray:none;stroke-opacity:1;paint-order:stroke markers fill"
             d="m 271.068,268.17597 c -1.20792,-2.84614 -3.16413,-7.91439 -4.34712,-11.26279 -1.18299,-3.34839 -2.5983,-7.18382 -3.14513,-8.52318 -0.54684,-1.33936 -1.91663,-5.17479 -3.044,-8.52319 -1.12736,-3.34839 -2.49861,-7.18383 -3.04721,-8.52318 -2.57994,-6.29872 -10.88247,-29.57214 -11.5568,-32.39571 -0.50866,-2.12985 -0.0997,-3.8315 1.24357,-5.1748 3.99115,-3.99115 6.67442,-1.49747 10.94805,10.17455 1.83899,5.02259 3.76874,10.22782 4.28832,11.56718 0.51959,1.33936 1.8671,5.17479 2.99446,8.52319 1.12737,3.34839 2.49818,7.18383 3.04624,8.52318 0.54806,1.33936 2.55546,6.69628 4.46089,11.90427 2.20199,6.01857 4.05611,9.34624 5.0882,9.13199 0.89308,-0.1854 2.69792,-3.6246 4.01075,-7.64268 1.31283,-4.01807 2.85756,-8.40142 3.43275,-9.74078 0.57518,-1.33936 1.97731,-5.17479 3.11584,-8.52319 1.13853,-3.34839 2.84025,-7.81455 3.78159,-9.9248 0.94134,-2.11024 1.71152,-4.60327 1.71152,-5.54007 0,-0.93679 0.43738,-2.22378 0.97195,-2.85998 0.53457,-0.63619 2.00632,-4.17027 3.27057,-7.85351 2.45471,-7.1515 4.31389,-9.74078 6.99417,-9.74078 4.03619,0 5.9749,5.99601 3.45014,10.6705 -0.62807,1.16286 -2.49613,5.94971 -4.15124,10.63747 -4.85721,13.75706 -13.06894,36.32665 -14.17635,38.96313 -0.56257,1.33936 -2.01329,5.44875 -3.2238,9.13199 -3.35773,10.21657 -4.92776,12.17598 -9.75631,12.17598 -3.74356,0 -4.38698,-0.52343 -6.36105,-5.17479 z"
             id="path253"
             transform="matrix(0.26458333,0,0,0.26458333,-11.409115,45.331264)" /><path
             style="fill:#beb41e;fill-opacity:1;stroke:none;stroke-width:9.20389;stroke-linecap:butt;stroke-linejoin:round;stroke-dasharray:none;stroke-opacity:1;paint-order:stroke markers fill"
             d="m 203.33887,271.75716 c -8.3491,-4.9727 -12.99162,-9.98508 -17.03556,-18.39279 -3.90653,-8.12202 -4.27083,-9.81018 -4.25407,-19.71331 0.0197,-11.6231 1.18193,-16.23587 6.25781,-24.83595 5.84653,-9.90581 17.20679,-17.00675 27.2078,-17.00675 11.22325,0 26.98832,11.30242 25.94921,18.60371 -0.62754,4.40938 -5.30266,4.06222 -10.6766,-0.79281 -6.45832,-5.8347 -9.16148,-7.09212 -15.2464,-7.09212 -8.54694,0 -14.37568,4.08113 -20.28827,14.20531 -2.43906,4.17641 -2.8445,6.51859 -2.84541,16.43757 -9.4e-4,10.30133 0.3502,12.1668 3.20872,17.04638 8.59484,14.67168 22.53773,17.58956 34.35314,7.18922 6.53792,-5.75491 10.88583,-6.12127 11.48396,-0.96767 0.44933,3.87153 -5.69415,10.6721 -13.0148,14.40682 -5.61439,2.86425 -20.89006,3.41953 -25.09953,0.91239 z"
             id="path254"
             transform="matrix(0.26458333,0,0,0.26458333,-11.409115,45.331264)" /><path
             style="fill:#beb41e;fill-opacity:1;stroke:none;stroke-width:9.20389;stroke-linecap:butt;stroke-linejoin:round;stroke-dasharray:none;stroke-opacity:1;paint-order:stroke markers fill"
             d="m 74.852142,275.09789 c -1.51823,-3.99325 -1.507923,-8.05131 0.03073,-12.09827 0.972007,-2.55657 1.894739,-3.12623 4.565992,-2.81886 3.218716,0.37037 3.361976,0.68612 3.715328,8.18873 0.255223,5.41909 -0.116824,8.11074 -1.217598,8.80894 -2.999919,1.90282 -5.903752,1.05123 -7.09445,-2.08054 z"
             id="path255"
             transform="matrix(0.26458333,0,0,0.26458333,-11.409115,45.331264)" /><path
             style="fill:#beb41e;fill-opacity:1;stroke:none;stroke-width:9.20389;stroke-linecap:butt;stroke-linejoin:round;stroke-dasharray:none;stroke-opacity:1;paint-order:stroke markers fill"
             d="m 266.25207,339.25469 c -0.91985,-0.58314 -1.44587,-2.54765 -1.2176,-4.54735 l 0.4019,-3.52068 27.85199,-0.32764 c 19.52143,-0.22965 28.3529,0.0881 29.52675,1.06228 2.41037,2.00044 2.06054,5.67002 -0.68038,7.13691 -2.84485,1.52252 -53.50995,1.70065 -55.88266,0.19648 z"
             id="path256"
             transform="matrix(0.26458333,0,0,0.26458333,-11.409115,45.331264)" /><path
             style="fill:#beb41e;fill-opacity:1;stroke:none;stroke-width:9.20389;stroke-linecap:butt;stroke-linejoin:round;stroke-dasharray:none;stroke-opacity:1;paint-order:stroke markers fill"
             d="m 266.25207,389.17621 c -0.91985,-0.58314 -1.44587,-2.54765 -1.2176,-4.54735 l 0.4019,-3.52068 60.2711,-0.31881 c 54.21549,-0.28678 60.41562,-0.12197 61.70948,1.64035 1.51084,2.05788 0.86216,5.36415 -1.34956,6.87861 -1.82974,1.25289 -117.83234,1.12498 -119.81532,-0.13212 z"
             id="path257"
             transform="matrix(0.26458333,0,0,0.26458333,-11.409115,45.331264)" /><path
             style="fill:#beb41e;fill-opacity:1;stroke:none;stroke-width:9.20389;stroke-linecap:butt;stroke-linejoin:round;stroke-dasharray:none;stroke-opacity:1;paint-order:stroke markers fill"
             d="m 266.34957,439.3553 c -1.70208,-0.68681 -2.00448,-5.07167 -0.51191,-7.42272 0.76671,-1.20772 15.40087,-1.46566 69.08004,-1.2176 l 68.10725,0.31472 0.4019,3.52068 c 0.22827,1.9997 -0.29775,3.96421 -1.21759,4.54735 -1.69667,1.07558 -133.21451,1.32492 -135.85969,0.25757 z"
             id="path258"
             transform="matrix(0.26458333,0,0,0.26458333,-11.409115,45.331264)" /><path
             style="fill:#beb41e;fill-opacity:1;stroke:none;stroke-width:9.20389;stroke-linecap:butt;stroke-linejoin:round;stroke-dasharray:none;stroke-opacity:1;paint-order:stroke markers fill"
             d="m 216.42805,489.27682 c -1.93754,-0.78182 -1.97645,-5.55771 -0.0609,-7.47328 1.11035,-1.11035 23.30164,-1.46112 92.43787,-1.46112 50.03721,0 91.84344,0.33258 92.90272,0.73907 2.53986,0.97464 2.53986,7.28801 0,8.26265 -2.3024,0.88352 -183.08608,0.81783 -185.27971,-0.0673 z"
             id="path259"
             transform="matrix(0.26458333,0,0,0.26458333,-11.409115,45.331264)" /><path
             style="fill:#beb41e;fill-opacity:1;stroke:none;stroke-width:9.20389;stroke-linecap:butt;stroke-linejoin:round;stroke-dasharray:none;stroke-opacity:1;paint-order:stroke markers fill"
             d="m 216.42805,539.19834 c -1.93754,-0.78182 -1.97645,-5.55771 -0.0609,-7.47328 1.11035,-1.11035 23.30164,-1.46112 92.43787,-1.46112 50.03721,0 91.84344,0.33258 92.90272,0.73907 2.53986,0.97464 2.53986,7.28801 0,8.26265 -2.3024,0.88352 -183.08608,0.81783 -185.27971,-0.0673 z"
             id="path260"
             transform="matrix(0.26458333,0,0,0.26458333,-11.409115,45.331264)" /><path
             style="fill:#beb41e;fill-opacity:1;stroke:none;stroke-width:9.20389;stroke-linecap:butt;stroke-linejoin:round;stroke-dasharray:none;stroke-opacity:1;paint-order:stroke markers fill"
             d="m 218.25445,589.72865 c -3.60411,-1.31633 -4.55991,-5.40944 -1.88728,-8.08207 2.11497,-2.11497 183.69048,-2.11497 185.80546,0 2.61346,2.61347 1.73222,7.01927 -1.66214,8.3098 -4.29268,1.63208 -177.75737,1.41533 -182.25604,-0.22773 z"
             id="path261"
             transform="matrix(0.26458333,0,0,0.26458333,-11.409115,45.331264)" /><path
             style="fill:#beb41e;fill-opacity:1;stroke:none;stroke-width:9.20389;stroke-linecap:butt;stroke-linejoin:round;stroke-dasharray:none;stroke-opacity:1;paint-order:stroke markers fill"
             d="m 119.02021,589.8883 c -3.02081,-1.21421 -3.73056,-5.78964 -1.27848,-8.24172 2.07877,-2.07877 61.96689,-2.07877 64.04566,0 2.84055,2.84055 1.707,6.73813 -2.37337,8.16056 -4.65847,1.62395 -56.38263,1.69346 -60.39381,0.0812 z"
             id="path262"
             transform="matrix(0.26458333,0,0,0.26458333,-11.409115,45.331264)" /><path
             style="fill:#beb41e;fill-opacity:1;stroke:none;stroke-width:9.20389;stroke-linecap:butt;stroke-linejoin:round;stroke-dasharray:none;stroke-opacity:1;paint-order:stroke markers fill"
             d="m 117.80261,539.19834 c -2.21459,-0.89361 -1.8982,-7.3119 0.40398,-8.19533 1.05929,-0.40649 15.46957,-0.73907 32.02283,-0.73907 21.7852,0 30.50036,0.40351 31.55797,1.46112 2.08749,2.0875 1.80502,6.66956 -0.46487,7.5406 -2.29592,0.88103 -61.32469,0.81847 -63.51991,-0.0673 z"
             id="path263"
             transform="matrix(0.26458333,0,0,0.26458333,-11.409115,45.331264)" /><path
             style="fill:#beb41e;fill-opacity:1;stroke:none;stroke-width:9.20389;stroke-linecap:butt;stroke-linejoin:round;stroke-dasharray:none;stroke-opacity:1;paint-order:stroke markers fill"
             d="m 117.80261,489.27682 c -2.21459,-0.89361 -1.8982,-7.3119 0.40398,-8.19533 1.05929,-0.40649 15.46957,-0.73907 32.02283,-0.73907 21.7852,0 30.50036,0.40351 31.55797,1.46112 2.08749,2.0875 1.80502,6.66956 -0.46487,7.5406 -2.29592,0.88103 -61.32469,0.81847 -63.51991,-0.0673 z"
             id="path264"
             transform="matrix(0.26458333,0,0,0.26458333,-11.409115,45.331264)" /></g><circle
           style="fill:none;fill-opacity:1;stroke:#beb41e;stroke-width:2;stroke-linecap:butt;stroke-linejoin:round;stroke-dasharray:none;stroke-opacity:1;paint-order:stroke markers fill"
           id="circle264"
           cx="55.7593"
           cy="153.73682"
           r="105.0229" /></g><g
         id="g279"
         style="filter:url(#filter293)"><g
           id="g278"
           transform="translate(-1.61135,3.7234575)"><path
             style="fill:#beb41e;fill-opacity:1;stroke:none;stroke-width:9.20389;stroke-linecap:butt;stroke-linejoin:round;stroke-dasharray:none;stroke-opacity:1;paint-order:stroke markers fill"
             d="m 116.50543,644.57438 c -9.51118,-1.5823 -19.375576,-6.8791 -26.987925,-14.49145 C 80.664676,621.23011 76.301737,612.09 74.833406,599.3206 73.238184,585.44768 73.284748,295.20775 74.88287,291.00437 c 0.972007,-2.55656 1.894739,-3.12623 4.565992,-2.81886 l 3.347804,0.38522 0.646701,155.85255 c 0.450803,108.64237 1.05504,157.22514 1.994732,160.38379 0.741417,2.49218 2.7704,6.95833 4.508848,9.92477 3.405878,5.81169 13.454723,15.37514 16.155503,15.37514 0.91024,0 1.65498,0.43333 1.65498,0.96298 0,0.52963 3.51442,1.89942 7.80983,3.04399 7.14812,1.9047 19.39911,2.07979 144.58976,2.06657 110.79222,-0.0117 137.93663,-0.32595 142.86793,-1.65397 11.63444,-3.13322 21.25631,-10.2083 26.91817,-19.79323 6.79977,-11.51134 6.56577,-4.9875 6.56577,-183.05464 0,-90.3192 -0.33257,-165.08344 -0.73907,-166.14273 -0.64715,-1.68647 -4.62185,-1.92761 -31.96194,-1.93916 -32.81225,-0.0138 -35.94778,-0.41002 -47.96814,-6.06084 -6.90825,-3.2476 -18.02403,-14.01067 -21.06497,-20.39658 -6.46245,-13.57102 -6.6321,-14.81338 -6.6321,-48.56862 0,-27.91877 -0.23766,-31.94006 -1.92598,-32.58793 -1.05929,-0.40649 -47.10887,-0.73907 -102.3324,-0.73907 -88.55255,0 -101.33439,0.2331 -108.26664,1.97442 -4.32312,1.08594 -7.86022,2.45574 -7.86022,3.044 0,0.58826 -0.74474,1.06957 -1.65498,1.06957 -2.66285,0 -12.729272,9.52872 -16.046816,15.18968 -5.604345,9.5631 -6.650169,16.75107 -6.650169,45.70679 0,25.92902 -0.073,26.72398 -2.577247,28.06421 -2.059757,1.10235 -2.97657,0.98059 -4.565992,-0.60638 -1.6605,-1.65794 -2.051532,-5.58368 -2.369146,-23.78491 -0.683994,-39.19706 2.214945,-51.20638 15.589165,-64.5806 8.115991,-8.11599 17.699515,-12.95753 28.835555,-14.56754 4.9474,-0.71529 50.69613,-1.21155 113.01085,-1.22591 l 104.69847,-0.0241 55.11127,55.11129 55.11129,55.11128 -0.0376,168.01356 c -0.0219,97.91814 -0.51655,171.70118 -1.18564,176.85252 -1.50042,11.55197 -6.23547,21.09722 -14.62958,29.49132 -7.9547,7.95469 -17.34474,12.82455 -28.08999,14.56802 -9.69259,1.57266 -276.31733,1.50123 -285.80144,-0.0766 z M 426.76811,252.35353 c 0,-2.06018 -85.40435,-87.369 -87.46685,-87.369 -1.3404,0 -1.56342,5.44361 -1.22403,29.87649 0.2763,19.89051 0.86108,30.16656 1.74955,30.74435 0.73398,0.47733 1.69195,2.32952 2.12882,4.11598 1.04091,4.25654 11.61108,15.69938 16.80604,18.19355 12.29968,5.90522 10.4577,5.64736 41.52371,5.81305 20.39102,0.10875 26.48276,-0.2074 26.48276,-1.37442 z"
             id="path265"
             transform="matrix(0.26458333,0,0,0.26458333,-11.409115,45.331264)" /><path
             style="fill:#beb41e;fill-opacity:1;stroke:none;stroke-width:9.20389;stroke-linecap:butt;stroke-linejoin:round;stroke-dasharray:none;stroke-opacity:1;paint-order:stroke markers fill"
             d="m 135.32387,445.48651 c -15.86462,-5.72796 -23.38976,-22.89174 -16.4807,-37.59013 2.75996,-5.87157 9.13863,-12.19303 14.31468,-14.18631 1.76722,-0.68056 9.38631,-1.5476 16.93131,-1.92677 l 13.71817,-0.6894 -7.84775,-5.26465 c -11.53487,-7.73815 -16.4216,-14.96738 -19.00963,-28.12208 -5.82046,-29.58483 20.60983,-55.26373 50.49511,-49.05957 12.98952,2.69661 23.2875,10.73543 29.41024,22.95823 3.04883,6.08637 3.45427,8.23028 3.48977,18.4536 0.036,10.36284 -0.32317,12.28419 -3.4496,18.45361 -3.89401,7.68411 -10.91026,14.98769 -18.79201,19.56155 l -5.2354,3.03816 13.82232,0.60998 c 15.8173,0.69801 20.50566,2.3498 26.96597,9.50059 2.31237,2.55952 5.14577,7.65678 6.31108,11.35361 2.01585,6.39496 2.01295,7.03244 -0.0619,13.62906 -2.76981,8.80595 -8.05619,14.81443 -16.20454,18.41803 -6.32151,2.79566 -7.07566,2.84088 -45.05315,2.70133 -29.67255,-0.10903 -39.71326,-0.5352 -43.32392,-1.83884 z m 79.47017,-8.57179 c 5.48031,-0.65799 7.36941,-1.57524 11.26278,-5.4686 4.32275,-4.32275 4.67801,-5.20096 4.67801,-11.56427 0,-5.42695 -0.63051,-7.71289 -2.97527,-10.78703 -5.85242,-7.67292 -7.27159,-7.89843 -49.56546,-7.87624 -37.25468,0.0196 -38.28412,0.0853 -42.91397,2.7396 -5.53184,3.17145 -9.25873,9.41236 -9.25873,15.50434 0,5.00405 3.46445,12.098 6.80766,13.93961 1.27838,0.7042 2.60539,1.65049 2.94892,2.10286 0.34353,0.45237 2.80917,1.04517 5.47919,1.31731 8.34087,0.85018 66.61567,0.92342 73.53687,0.0924 z m -26.76159,-55.45136 c 23.65768,-8.00494 30.71451,-35.66345 13.91095,-54.52258 -7.77329,-8.72418 -23.49132,-12.2023 -34.76276,-7.69236 -18.80449,7.52406 -27.2029,29.44089 -17.57621,45.86759 3.52979,6.02313 10.25111,12.94818 12.56725,12.94818 0.87739,0 1.59526,0.43461 1.59526,0.9658 0,3.15803 17.06601,4.86943 24.26551,2.43337 z"
             id="path266"
             transform="matrix(0.26458333,0,0,0.26458333,-11.409115,45.331264)" /><path
             style="fill:#beb41e;fill-opacity:1;stroke:none;stroke-width:9.20389;stroke-linecap:butt;stroke-linejoin:round;stroke-dasharray:none;stroke-opacity:1;paint-order:stroke markers fill"
             d="m 271.068,268.17597 c -1.20792,-2.84614 -3.16413,-7.91439 -4.34712,-11.26279 -1.18299,-3.34839 -2.5983,-7.18382 -3.14513,-8.52318 -0.54684,-1.33936 -1.91663,-5.17479 -3.044,-8.52319 -1.12736,-3.34839 -2.49861,-7.18383 -3.04721,-8.52318 -2.57994,-6.29872 -10.88247,-29.57214 -11.5568,-32.39571 -0.50866,-2.12985 -0.0997,-3.8315 1.24357,-5.1748 3.99115,-3.99115 6.67442,-1.49747 10.94805,10.17455 1.83899,5.02259 3.76874,10.22782 4.28832,11.56718 0.51959,1.33936 1.8671,5.17479 2.99446,8.52319 1.12737,3.34839 2.49818,7.18383 3.04624,8.52318 0.54806,1.33936 2.55546,6.69628 4.46089,11.90427 2.20199,6.01857 4.05611,9.34624 5.0882,9.13199 0.89308,-0.1854 2.69792,-3.6246 4.01075,-7.64268 1.31283,-4.01807 2.85756,-8.40142 3.43275,-9.74078 0.57518,-1.33936 1.97731,-5.17479 3.11584,-8.52319 1.13853,-3.34839 2.84025,-7.81455 3.78159,-9.9248 0.94134,-2.11024 1.71152,-4.60327 1.71152,-5.54007 0,-0.93679 0.43738,-2.22378 0.97195,-2.85998 0.53457,-0.63619 2.00632,-4.17027 3.27057,-7.85351 2.45471,-7.1515 4.31389,-9.74078 6.99417,-9.74078 4.03619,0 5.9749,5.99601 3.45014,10.6705 -0.62807,1.16286 -2.49613,5.94971 -4.15124,10.63747 -4.85721,13.75706 -13.06894,36.32665 -14.17635,38.96313 -0.56257,1.33936 -2.01329,5.44875 -3.2238,9.13199 -3.35773,10.21657 -4.92776,12.17598 -9.75631,12.17598 -3.74356,0 -4.38698,-0.52343 -6.36105,-5.17479 z"
             id="path267"
             transform="matrix(0.26458333,0,0,0.26458333,-11.409115,45.331264)" /><path
             style="fill:#beb41e;fill-opacity:1;stroke:none;stroke-width:9.20389;stroke-linecap:butt;stroke-linejoin:round;stroke-dasharray:none;stroke-opacity:1;paint-order:stroke markers fill"
             d="m 203.33887,271.75716 c -8.3491,-4.9727 -12.99162,-9.98508 -17.03556,-18.39279 -3.90653,-8.12202 -4.27083,-9.81018 -4.25407,-19.71331 0.0197,-11.6231 1.18193,-16.23587 6.25781,-24.83595 5.84653,-9.90581 17.20679,-17.00675 27.2078,-17.00675 11.22325,0 26.98832,11.30242 25.94921,18.60371 -0.62754,4.40938 -5.30266,4.06222 -10.6766,-0.79281 -6.45832,-5.8347 -9.16148,-7.09212 -15.2464,-7.09212 -8.54694,0 -14.37568,4.08113 -20.28827,14.20531 -2.43906,4.17641 -2.8445,6.51859 -2.84541,16.43757 -9.4e-4,10.30133 0.3502,12.1668 3.20872,17.04638 8.59484,14.67168 22.53773,17.58956 34.35314,7.18922 6.53792,-5.75491 10.88583,-6.12127 11.48396,-0.96767 0.44933,3.87153 -5.69415,10.6721 -13.0148,14.40682 -5.61439,2.86425 -20.89006,3.41953 -25.09953,0.91239 z"
             id="path268"
             transform="matrix(0.26458333,0,0,0.26458333,-11.409115,45.331264)" /><path
             style="fill:#beb41e;fill-opacity:1;stroke:none;stroke-width:9.20389;stroke-linecap:butt;stroke-linejoin:round;stroke-dasharray:none;stroke-opacity:1;paint-order:stroke markers fill"
             d="m 74.852142,275.09789 c -1.51823,-3.99325 -1.507923,-8.05131 0.03073,-12.09827 0.972007,-2.55657 1.894739,-3.12623 4.565992,-2.81886 3.218716,0.37037 3.361976,0.68612 3.715328,8.18873 0.255223,5.41909 -0.116824,8.11074 -1.217598,8.80894 -2.999919,1.90282 -5.903752,1.05123 -7.09445,-2.08054 z"
             id="path269"
             transform="matrix(0.26458333,0,0,0.26458333,-11.409115,45.331264)" /><path
             style="fill:#beb41e;fill-opacity:1;stroke:none;stroke-width:9.20389;stroke-linecap:butt;stroke-linejoin:round;stroke-dasharray:none;stroke-opacity:1;paint-order:stroke markers fill"
             d="m 266.25207,339.25469 c -0.91985,-0.58314 -1.44587,-2.54765 -1.2176,-4.54735 l 0.4019,-3.52068 27.85199,-0.32764 c 19.52143,-0.22965 28.3529,0.0881 29.52675,1.06228 2.41037,2.00044 2.06054,5.67002 -0.68038,7.13691 -2.84485,1.52252 -53.50995,1.70065 -55.88266,0.19648 z"
             id="path270"
             transform="matrix(0.26458333,0,0,0.26458333,-11.409115,45.331264)" /><path
             style="fill:#beb41e;fill-opacity:1;stroke:none;stroke-width:9.20389;stroke-linecap:butt;stroke-linejoin:round;stroke-dasharray:none;stroke-opacity:1;paint-order:stroke markers fill"
             d="m 266.25207,389.17621 c -0.91985,-0.58314 -1.44587,-2.54765 -1.2176,-4.54735 l 0.4019,-3.52068 60.2711,-0.31881 c 54.21549,-0.28678 60.41562,-0.12197 61.70948,1.64035 1.51084,2.05788 0.86216,5.36415 -1.34956,6.87861 -1.82974,1.25289 -117.83234,1.12498 -119.81532,-0.13212 z"
             id="path271"
             transform="matrix(0.26458333,0,0,0.26458333,-11.409115,45.331264)" /><path
             style="fill:#beb41e;fill-opacity:1;stroke:none;stroke-width:9.20389;stroke-linecap:butt;stroke-linejoin:round;stroke-dasharray:none;stroke-opacity:1;paint-order:stroke markers fill"
             d="m 266.34957,439.3553 c -1.70208,-0.68681 -2.00448,-5.07167 -0.51191,-7.42272 0.76671,-1.20772 15.40087,-1.46566 69.08004,-1.2176 l 68.10725,0.31472 0.4019,3.52068 c 0.22827,1.9997 -0.29775,3.96421 -1.21759,4.54735 -1.69667,1.07558 -133.21451,1.32492 -135.85969,0.25757 z"
             id="path272"
             transform="matrix(0.26458333,0,0,0.26458333,-11.409115,45.331264)" /><path
             style="fill:#beb41e;fill-opacity:1;stroke:none;stroke-width:9.20389;stroke-linecap:butt;stroke-linejoin:round;stroke-dasharray:none;stroke-opacity:1;paint-order:stroke markers fill"
             d="m 216.42805,489.27682 c -1.93754,-0.78182 -1.97645,-5.55771 -0.0609,-7.47328 1.11035,-1.11035 23.30164,-1.46112 92.43787,-1.46112 50.03721,0 91.84344,0.33258 92.90272,0.73907 2.53986,0.97464 2.53986,7.28801 0,8.26265 -2.3024,0.88352 -183.08608,0.81783 -185.27971,-0.0673 z"
             id="path273"
             transform="matrix(0.26458333,0,0,0.26458333,-11.409115,45.331264)" /><path
             style="fill:#beb41e;fill-opacity:1;stroke:none;stroke-width:9.20389;stroke-linecap:butt;stroke-linejoin:round;stroke-dasharray:none;stroke-opacity:1;paint-order:stroke markers fill"
             d="m 216.42805,539.19834 c -1.93754,-0.78182 -1.97645,-5.55771 -0.0609,-7.47328 1.11035,-1.11035 23.30164,-1.46112 92.43787,-1.46112 50.03721,0 91.84344,0.33258 92.90272,0.73907 2.53986,0.97464 2.53986,7.28801 0,8.26265 -2.3024,0.88352 -183.08608,0.81783 -185.27971,-0.0673 z"
             id="path274"
             transform="matrix(0.26458333,0,0,0.26458333,-11.409115,45.331264)" /><path
             style="fill:#beb41e;fill-opacity:1;stroke:none;stroke-width:9.20389;stroke-linecap:butt;stroke-linejoin:round;stroke-dasharray:none;stroke-opacity:1;paint-order:stroke markers fill"
             d="m 218.25445,589.72865 c -3.60411,-1.31633 -4.55991,-5.40944 -1.88728,-8.08207 2.11497,-2.11497 183.69048,-2.11497 185.80546,0 2.61346,2.61347 1.73222,7.01927 -1.66214,8.3098 -4.29268,1.63208 -177.75737,1.41533 -182.25604,-0.22773 z"
             id="path275"
             transform="matrix(0.26458333,0,0,0.26458333,-11.409115,45.331264)" /><path
             style="fill:#beb41e;fill-opacity:1;stroke:none;stroke-width:9.20389;stroke-linecap:butt;stroke-linejoin:round;stroke-dasharray:none;stroke-opacity:1;paint-order:stroke markers fill"
             d="m 119.02021,589.8883 c -3.02081,-1.21421 -3.73056,-5.78964 -1.27848,-8.24172 2.07877,-2.07877 61.96689,-2.07877 64.04566,0 2.84055,2.84055 1.707,6.73813 -2.37337,8.16056 -4.65847,1.62395 -56.38263,1.69346 -60.39381,0.0812 z"
             id="path276"
             transform="matrix(0.26458333,0,0,0.26458333,-11.409115,45.331264)" /><path
             style="fill:#beb41e;fill-opacity:1;stroke:none;stroke-width:9.20389;stroke-linecap:butt;stroke-linejoin:round;stroke-dasharray:none;stroke-opacity:1;paint-order:stroke markers fill"
             d="m 117.80261,539.19834 c -2.21459,-0.89361 -1.8982,-7.3119 0.40398,-8.19533 1.05929,-0.40649 15.46957,-0.73907 32.02283,-0.73907 21.7852,0 30.50036,0.40351 31.55797,1.46112 2.08749,2.0875 1.80502,6.66956 -0.46487,7.5406 -2.29592,0.88103 -61.32469,0.81847 -63.51991,-0.0673 z"
             id="path277"
             transform="matrix(0.26458333,0,0,0.26458333,-11.409115,45.331264)" /><path
             style="fill:#beb41e;fill-opacity:1;stroke:none;stroke-width:9.20389;stroke-linecap:butt;stroke-linejoin:round;stroke-dasharray:none;stroke-opacity:1;paint-order:stroke markers fill"
             d="m 117.80261,489.27682 c -2.21459,-0.89361 -1.8982,-7.3119 0.40398,-8.19533 1.05929,-0.40649 15.46957,-0.73907 32.02283,-0.73907 21.7852,0 30.50036,0.40351 31.55797,1.46112 2.08749,2.0875 1.80502,6.66956 -0.46487,7.5406 -2.29592,0.88103 -61.32469,0.81847 -63.51991,-0.0673 z"
             id="path278"
             transform="matrix(0.26458333,0,0,0.26458333,-11.409115,45.331264)" /></g><circle
           style="fill:none;fill-opacity:1;stroke:#beb41e;stroke-width:2;stroke-linecap:butt;stroke-linejoin:round;stroke-dasharray:none;stroke-opacity:1;paint-order:stroke markers fill"
           id="circle278"
           cx="55.7593"
           cy="153.73682"
           r="105.0229" /></g><g
         id="g293"><g
           id="g292"
           transform="translate(-1.61135,3.7234575)"><path
             style="fill:#beb41e;fill-opacity:1;stroke:none;stroke-width:9.20389;stroke-linecap:butt;stroke-linejoin:round;stroke-dasharray:none;stroke-opacity:1;paint-order:stroke markers fill"
             d="m 116.50543,644.57438 c -9.51118,-1.5823 -19.375576,-6.8791 -26.987925,-14.49145 C 80.664676,621.23011 76.301737,612.09 74.833406,599.3206 73.238184,585.44768 73.284748,295.20775 74.88287,291.00437 c 0.972007,-2.55656 1.894739,-3.12623 4.565992,-2.81886 l 3.347804,0.38522 0.646701,155.85255 c 0.450803,108.64237 1.05504,157.22514 1.994732,160.38379 0.741417,2.49218 2.7704,6.95833 4.508848,9.92477 3.405878,5.81169 13.454723,15.37514 16.155503,15.37514 0.91024,0 1.65498,0.43333 1.65498,0.96298 0,0.52963 3.51442,1.89942 7.80983,3.04399 7.14812,1.9047 19.39911,2.07979 144.58976,2.06657 110.79222,-0.0117 137.93663,-0.32595 142.86793,-1.65397 11.63444,-3.13322 21.25631,-10.2083 26.91817,-19.79323 6.79977,-11.51134 6.56577,-4.9875 6.56577,-183.05464 0,-90.3192 -0.33257,-165.08344 -0.73907,-166.14273 -0.64715,-1.68647 -4.62185,-1.92761 -31.96194,-1.93916 -32.81225,-0.0138 -35.94778,-0.41002 -47.96814,-6.06084 -6.90825,-3.2476 -18.02403,-14.01067 -21.06497,-20.39658 -6.46245,-13.57102 -6.6321,-14.81338 -6.6321,-48.56862 0,-27.91877 -0.23766,-31.94006 -1.92598,-32.58793 -1.05929,-0.40649 -47.10887,-0.73907 -102.3324,-0.73907 -88.55255,0 -101.33439,0.2331 -108.26664,1.97442 -4.32312,1.08594 -7.86022,2.45574 -7.86022,3.044 0,0.58826 -0.74474,1.06957 -1.65498,1.06957 -2.66285,0 -12.729272,9.52872 -16.046816,15.18968 -5.604345,9.5631 -6.650169,16.75107 -6.650169,45.70679 0,25.92902 -0.073,26.72398 -2.577247,28.06421 -2.059757,1.10235 -2.97657,0.98059 -4.565992,-0.60638 -1.6605,-1.65794 -2.051532,-5.58368 -2.369146,-23.78491 -0.683994,-39.19706 2.214945,-51.20638 15.589165,-64.5806 8.115991,-8.11599 17.699515,-12.95753 28.835555,-14.56754 4.9474,-0.71529 50.69613,-1.21155 113.01085,-1.22591 l 104.69847,-0.0241 55.11127,55.11129 55.11129,55.11128 -0.0376,168.01356 c -0.0219,97.91814 -0.51655,171.70118 -1.18564,176.85252 -1.50042,11.55197 -6.23547,21.09722 -14.62958,29.49132 -7.9547,7.95469 -17.34474,12.82455 -28.08999,14.56802 -9.69259,1.57266 -276.31733,1.50123 -285.80144,-0.0766 z M 426.76811,252.35353 c 0,-2.06018 -85.40435,-87.369 -87.46685,-87.369 -1.3404,0 -1.56342,5.44361 -1.22403,29.87649 0.2763,19.89051 0.86108,30.16656 1.74955,30.74435 0.73398,0.47733 1.69195,2.32952 2.12882,4.11598 1.04091,4.25654 11.61108,15.69938 16.80604,18.19355 12.29968,5.90522 10.4577,5.64736 41.52371,5.81305 20.39102,0.10875 26.48276,-0.2074 26.48276,-1.37442 z"
             id="path279"
             transform="matrix(0.26458333,0,0,0.26458333,-11.409115,45.331264)" /><path
             style="fill:#beb41e;fill-opacity:1;stroke:none;stroke-width:9.20389;stroke-linecap:butt;stroke-linejoin:round;stroke-dasharray:none;stroke-opacity:1;paint-order:stroke markers fill"
             d="m 135.32387,445.48651 c -15.86462,-5.72796 -23.38976,-22.89174 -16.4807,-37.59013 2.75996,-5.87157 9.13863,-12.19303 14.31468,-14.18631 1.76722,-0.68056 9.38631,-1.5476 16.93131,-1.92677 l 13.71817,-0.6894 -7.84775,-5.26465 c -11.53487,-7.73815 -16.4216,-14.96738 -19.00963,-28.12208 -5.82046,-29.58483 20.60983,-55.26373 50.49511,-49.05957 12.98952,2.69661 23.2875,10.73543 29.41024,22.95823 3.04883,6.08637 3.45427,8.23028 3.48977,18.4536 0.036,10.36284 -0.32317,12.28419 -3.4496,18.45361 -3.89401,7.68411 -10.91026,14.98769 -18.79201,19.56155 l -5.2354,3.03816 13.82232,0.60998 c 15.8173,0.69801 20.50566,2.3498 26.96597,9.50059 2.31237,2.55952 5.14577,7.65678 6.31108,11.35361 2.01585,6.39496 2.01295,7.03244 -0.0619,13.62906 -2.76981,8.80595 -8.05619,14.81443 -16.20454,18.41803 -6.32151,2.79566 -7.07566,2.84088 -45.05315,2.70133 -29.67255,-0.10903 -39.71326,-0.5352 -43.32392,-1.83884 z m 79.47017,-8.57179 c 5.48031,-0.65799 7.36941,-1.57524 11.26278,-5.4686 4.32275,-4.32275 4.67801,-5.20096 4.67801,-11.56427 0,-5.42695 -0.63051,-7.71289 -2.97527,-10.78703 -5.85242,-7.67292 -7.27159,-7.89843 -49.56546,-7.87624 -37.25468,0.0196 -38.28412,0.0853 -42.91397,2.7396 -5.53184,3.17145 -9.25873,9.41236 -9.25873,15.50434 0,5.00405 3.46445,12.098 6.80766,13.93961 1.27838,0.7042 2.60539,1.65049 2.94892,2.10286 0.34353,0.45237 2.80917,1.04517 5.47919,1.31731 8.34087,0.85018 66.61567,0.92342 73.53687,0.0924 z m -26.76159,-55.45136 c 23.65768,-8.00494 30.71451,-35.66345 13.91095,-54.52258 -7.77329,-8.72418 -23.49132,-12.2023 -34.76276,-7.69236 -18.80449,7.52406 -27.2029,29.44089 -17.57621,45.86759 3.52979,6.02313 10.25111,12.94818 12.56725,12.94818 0.87739,0 1.59526,0.43461 1.59526,0.9658 0,3.15803 17.06601,4.86943 24.26551,2.43337 z"
             id="path280"
             transform="matrix(0.26458333,0,0,0.26458333,-11.409115,45.331264)" /><path
             style="fill:#beb41e;fill-opacity:1;stroke:none;stroke-width:9.20389;stroke-linecap:butt;stroke-linejoin:round;stroke-dasharray:none;stroke-opacity:1;paint-order:stroke markers fill"
             d="m 271.068,268.17597 c -1.20792,-2.84614 -3.16413,-7.91439 -4.34712,-11.26279 -1.18299,-3.34839 -2.5983,-7.18382 -3.14513,-8.52318 -0.54684,-1.33936 -1.91663,-5.17479 -3.044,-8.52319 -1.12736,-3.34839 -2.49861,-7.18383 -3.04721,-8.52318 -2.57994,-6.29872 -10.88247,-29.57214 -11.5568,-32.39571 -0.50866,-2.12985 -0.0997,-3.8315 1.24357,-5.1748 3.99115,-3.99115 6.67442,-1.49747 10.94805,10.17455 1.83899,5.02259 3.76874,10.22782 4.28832,11.56718 0.51959,1.33936 1.8671,5.17479 2.99446,8.52319 1.12737,3.34839 2.49818,7.18383 3.04624,8.52318 0.54806,1.33936 2.55546,6.69628 4.46089,11.90427 2.20199,6.01857 4.05611,9.34624 5.0882,9.13199 0.89308,-0.1854 2.69792,-3.6246 4.01075,-7.64268 1.31283,-4.01807 2.85756,-8.40142 3.43275,-9.74078 0.57518,-1.33936 1.97731,-5.17479 3.11584,-8.52319 1.13853,-3.34839 2.84025,-7.81455 3.78159,-9.9248 0.94134,-2.11024 1.71152,-4.60327 1.71152,-5.54007 0,-0.93679 0.43738,-2.22378 0.97195,-2.85998 0.53457,-0.63619 2.00632,-4.17027 3.27057,-7.85351 2.45471,-7.1515 4.31389,-9.74078 6.99417,-9.74078 4.03619,0 5.9749,5.99601 3.45014,10.6705 -0.62807,1.16286 -2.49613,5.94971 -4.15124,10.63747 -4.85721,13.75706 -13.06894,36.32665 -14.17635,38.96313 -0.56257,1.33936 -2.01329,5.44875 -3.2238,9.13199 -3.35773,10.21657 -4.92776,12.17598 -9.75631,12.17598 -3.74356,0 -4.38698,-0.52343 -6.36105,-5.17479 z"
             id="path281"
             transform="matrix(0.26458333,0,0,0.26458333,-11.409115,45.331264)" /><path
             style="fill:#beb41e;fill-opacity:1;stroke:none;stroke-width:9.20389;stroke-linecap:butt;stroke-linejoin:round;stroke-dasharray:none;stroke-opacity:1;paint-order:stroke markers fill"
             d="m 203.33887,271.75716 c -8.3491,-4.9727 -12.99162,-9.98508 -17.03556,-18.39279 -3.90653,-8.12202 -4.27083,-9.81018 -4.25407,-19.71331 0.0197,-11.6231 1.18193,-16.23587 6.25781,-24.83595 5.84653,-9.90581 17.20679,-17.00675 27.2078,-17.00675 11.22325,0 26.98832,11.30242 25.94921,18.60371 -0.62754,4.40938 -5.30266,4.06222 -10.6766,-0.79281 -6.45832,-5.8347 -9.16148,-7.09212 -15.2464,-7.09212 -8.54694,0 -14.37568,4.08113 -20.28827,14.20531 -2.43906,4.17641 -2.8445,6.51859 -2.84541,16.43757 -9.4e-4,10.30133 0.3502,12.1668 3.20872,17.04638 8.59484,14.67168 22.53773,17.58956 34.35314,7.18922 6.53792,-5.75491 10.88583,-6.12127 11.48396,-0.96767 0.44933,3.87153 -5.69415,10.6721 -13.0148,14.40682 -5.61439,2.86425 -20.89006,3.41953 -25.09953,0.91239 z"
             id="path282"
             transform="matrix(0.26458333,0,0,0.26458333,-11.409115,45.331264)" /><path
             style="fill:#beb41e;fill-opacity:1;stroke:none;stroke-width:9.20389;stroke-linecap:butt;stroke-linejoin:round;stroke-dasharray:none;stroke-opacity:1;paint-order:stroke markers fill"
             d="m 74.852142,275.09789 c -1.51823,-3.99325 -1.507923,-8.05131 0.03073,-12.09827 0.972007,-2.55657 1.894739,-3.12623 4.565992,-2.81886 3.218716,0.37037 3.361976,0.68612 3.715328,8.18873 0.255223,5.41909 -0.116824,8.11074 -1.217598,8.80894 -2.999919,1.90282 -5.903752,1.05123 -7.09445,-2.08054 z"
             id="path283"
             transform="matrix(0.26458333,0,0,0.26458333,-11.409115,45.331264)" /><path
             style="fill:#beb41e;fill-opacity:1;stroke:none;stroke-width:9.20389;stroke-linecap:butt;stroke-linejoin:round;stroke-dasharray:none;stroke-opacity:1;paint-order:stroke markers fill"
             d="m 266.25207,339.25469 c -0.91985,-0.58314 -1.44587,-2.54765 -1.2176,-4.54735 l 0.4019,-3.52068 27.85199,-0.32764 c 19.52143,-0.22965 28.3529,0.0881 29.52675,1.06228 2.41037,2.00044 2.06054,5.67002 -0.68038,7.13691 -2.84485,1.52252 -53.50995,1.70065 -55.88266,0.19648 z"
             id="path284"
             transform="matrix(0.26458333,0,0,0.26458333,-11.409115,45.331264)" /><path
             style="fill:#beb41e;fill-opacity:1;stroke:none;stroke-width:9.20389;stroke-linecap:butt;stroke-linejoin:round;stroke-dasharray:none;stroke-opacity:1;paint-order:stroke markers fill"
             d="m 266.25207,389.17621 c -0.91985,-0.58314 -1.44587,-2.54765 -1.2176,-4.54735 l 0.4019,-3.52068 60.2711,-0.31881 c 54.21549,-0.28678 60.41562,-0.12197 61.70948,1.64035 1.51084,2.05788 0.86216,5.36415 -1.34956,6.87861 -1.82974,1.25289 -117.83234,1.12498 -119.81532,-0.13212 z"
             id="path285"
             transform="matrix(0.26458333,0,0,0.26458333,-11.409115,45.331264)" /><path
             style="fill:#beb41e;fill-opacity:1;stroke:none;stroke-width:9.20389;stroke-linecap:butt;stroke-linejoin:round;stroke-dasharray:none;stroke-opacity:1;paint-order:stroke markers fill"
             d="m 266.34957,439.3553 c -1.70208,-0.68681 -2.00448,-5.07167 -0.51191,-7.42272 0.76671,-1.20772 15.40087,-1.46566 69.08004,-1.2176 l 68.10725,0.31472 0.4019,3.52068 c 0.22827,1.9997 -0.29775,3.96421 -1.21759,4.54735 -1.69667,1.07558 -133.21451,1.32492 -135.85969,0.25757 z"
             id="path286"
             transform="matrix(0.26458333,0,0,0.26458333,-11.409115,45.331264)" /><path
             style="fill:#beb41e;fill-opacity:1;stroke:none;stroke-width:9.20389;stroke-linecap:butt;stroke-linejoin:round;stroke-dasharray:none;stroke-opacity:1;paint-order:stroke markers fill"
             d="m 216.42805,489.27682 c -1.93754,-0.78182 -1.97645,-5.55771 -0.0609,-7.47328 1.11035,-1.11035 23.30164,-1.46112 92.43787,-1.46112 50.03721,0 91.84344,0.33258 92.90272,0.73907 2.53986,0.97464 2.53986,7.28801 0,8.26265 -2.3024,0.88352 -183.08608,0.81783 -185.27971,-0.0673 z"
             id="path287"
             transform="matrix(0.26458333,0,0,0.26458333,-11.409115,45.331264)" /><path
             style="fill:#beb41e;fill-opacity:1;stroke:none;stroke-width:9.20389;stroke-linecap:butt;stroke-linejoin:round;stroke-dasharray:none;stroke-opacity:1;paint-order:stroke markers fill"
             d="m 216.42805,539.19834 c -1.93754,-0.78182 -1.97645,-5.55771 -0.0609,-7.47328 1.11035,-1.11035 23.30164,-1.46112 92.43787,-1.46112 50.03721,0 91.84344,0.33258 92.90272,0.73907 2.53986,0.97464 2.53986,7.28801 0,8.26265 -2.3024,0.88352 -183.08608,0.81783 -185.27971,-0.0673 z"
             id="path288"
             transform="matrix(0.26458333,0,0,0.26458333,-11.409115,45.331264)" /><path
             style="fill:#beb41e;fill-opacity:1;stroke:none;stroke-width:9.20389;stroke-linecap:butt;stroke-linejoin:round;stroke-dasharray:none;stroke-opacity:1;paint-order:stroke markers fill"
             d="m 218.25445,589.72865 c -3.60411,-1.31633 -4.55991,-5.40944 -1.88728,-8.08207 2.11497,-2.11497 183.69048,-2.11497 185.80546,0 2.61346,2.61347 1.73222,7.01927 -1.66214,8.3098 -4.29268,1.63208 -177.75737,1.41533 -182.25604,-0.22773 z"
             id="path289"
             transform="matrix(0.26458333,0,0,0.26458333,-11.409115,45.331264)" /><path
             style="fill:#beb41e;fill-opacity:1;stroke:none;stroke-width:9.20389;stroke-linecap:butt;stroke-linejoin:round;stroke-dasharray:none;stroke-opacity:1;paint-order:stroke markers fill"
             d="m 119.02021,589.8883 c -3.02081,-1.21421 -3.73056,-5.78964 -1.27848,-8.24172 2.07877,-2.07877 61.96689,-2.07877 64.04566,0 2.84055,2.84055 1.707,6.73813 -2.37337,8.16056 -4.65847,1.62395 -56.38263,1.69346 -60.39381,0.0812 z"
             id="path290"
             transform="matrix(0.26458333,0,0,0.26458333,-11.409115,45.331264)" /><path
             style="fill:#beb41e;fill-opacity:1;stroke:none;stroke-width:9.20389;stroke-linecap:butt;stroke-linejoin:round;stroke-dasharray:none;stroke-opacity:1;paint-order:stroke markers fill"
             d="m 117.80261,539.19834 c -2.21459,-0.89361 -1.8982,-7.3119 0.40398,-8.19533 1.05929,-0.40649 15.46957,-0.73907 32.02283,-0.73907 21.7852,0 30.50036,0.40351 31.55797,1.46112 2.08749,2.0875 1.80502,6.66956 -0.46487,7.5406 -2.29592,0.88103 -61.32469,0.81847 -63.51991,-0.0673 z"
             id="path291"
             transform="matrix(0.26458333,0,0,0.26458333,-11.409115,45.331264)" /><path
             style="fill:#beb41e;fill-opacity:1;stroke:none;stroke-width:9.20389;stroke-linecap:butt;stroke-linejoin:round;stroke-dasharray:none;stroke-opacity:1;paint-order:stroke markers fill"
             d="m 117.80261,489.27682 c -2.21459,-0.89361 -1.8982,-7.3119 0.40398,-8.19533 1.05929,-0.40649 15.46957,-0.73907 32.02283,-0.73907 21.7852,0 30.50036,0.40351 31.55797,1.46112 2.08749,2.0875 1.80502,6.66956 -0.46487,7.5406 -2.29592,0.88103 -61.32469,0.81847 -63.51991,-0.0673 z"
             id="path292"
             transform="matrix(0.26458333,0,0,0.26458333,-11.409115,45.331264)" /></g><circle
           style="fill:none;fill-opacity:1;stroke:#beb41e;stroke-width:2;stroke-linecap:butt;stroke-linejoin:round;stroke-dasharray:none;stroke-opacity:1;paint-order:stroke markers fill"
           id="circle292"
           cx="55.7593"
           cy="153.73682"
           r="105.0229" /></g></g></g></svg>
