<?xml version="1.0" encoding="UTF-8" standalone="no"?>
<!-- Created with Inkscape (http://www.inkscape.org/) -->

<svg
   width="119.43591mm"
   height="155.43356mm"
   viewBox="0 0 119.43591 155.43356"
   version="1.1"
   id="svg1"
   xml:space="preserve"
   inkscape:export-filename="Electronics_Icon.png"
   inkscape:export-xdpi="96"
   inkscape:export-ydpi="96"
   sodipodi:docname="Electronics_Icon.svg"
   inkscape:version="1.3.2 (091e20e, 2023-11-25, custom)"
   xmlns:inkscape="http://www.inkscape.org/namespaces/inkscape"
   xmlns:sodipodi="http://sodipodi.sourceforge.net/DTD/sodipodi-0.dtd"
   xmlns="http://www.w3.org/2000/svg"
   xmlns:svg="http://www.w3.org/2000/svg"><sodipodi:namedview
     id="namedview1"
     pagecolor="#505050"
     bordercolor="#eeeeee"
     borderopacity="1"
     inkscape:showpageshadow="0"
     inkscape:pageopacity="0"
     inkscape:pagecheckerboard="0"
     inkscape:deskcolor="#505050"
     inkscape:document-units="mm"
     inkscape:zoom="0.96032144"
     inkscape:cx="222.84205"
     inkscape:cy="281.67652"
     inkscape:window-width="1920"
     inkscape:window-height="1051"
     inkscape:window-x="-9"
     inkscape:window-y="-9"
     inkscape:window-maximized="1"
     inkscape:current-layer="layer1" /><defs
     id="defs1"><filter
       inkscape:collect="always"
       style="color-interpolation-filters:sRGB"
       id="filter7"
       x="-0.041406063"
       y="-0.057091923"
       width="1.0828121"
       height="1.1141838"><feGaussianBlur
         inkscape:collect="always"
         stdDeviation="8.5433947"
         id="feGaussianBlur7" /></filter><filter
       inkscape:collect="always"
       style="color-interpolation-filters:sRGB"
       id="filter8"
       x="-0.093163634"
       y="-0.12845682"
       width="1.1863273"
       height="1.2569136"><feGaussianBlur
         inkscape:collect="always"
         stdDeviation="19.222638"
         id="feGaussianBlur8" /></filter><filter
       inkscape:collect="always"
       style="color-interpolation-filters:sRGB"
       id="filter9"
       x="-0.093163634"
       y="-0.12845682"
       width="1.1863273"
       height="1.2569136"><feGaussianBlur
         inkscape:collect="always"
         stdDeviation="19.222638"
         id="feGaussianBlur9" /></filter></defs><g
     inkscape:label="Electronics_icon"
     inkscape:groupmode="layer"
     id="layer1"
     transform="translate(-31.656126,-68.161404)"><path
       id="path1"
       style="display:none;mix-blend-mode:normal;fill:#beb41e;fill-opacity:1;stroke:none;stroke-width:3.56291;stroke-linejoin:round;paint-order:stroke markers fill;filter:url(#filter9)"
       d="m 151.26563,371.7793 -2.81055,2.81055 c -2.72564,2.72562 -2.81055,3.08194 -2.81055,11.78906 v 8.97852 l -21.65625,0.28515 c -21.09554,0.27754 -21.71302,0.34019 -23.80273,2.43164 l -2.146486,2.14844 -0.226563,161.87891 c -0.17976,128.65812 0.01719,162.36046 0.960938,164.21875 0.653092,1.28597 2.241361,2.8726 3.527341,3.52539 1.86051,0.94447 40.31625,1.14047 188.25586,0.96094 l 185.91798,-0.22461 1.96093,-1.96094 c 1.27278,-1.27281 2.24098,-3.95063 2.76172,-7.63476 1.39873,-9.89551 5.92478,-16.28496 14.1836,-20.02344 4.75748,-2.15354 12.45293,-2.53884 18.38281,-0.92188 7.44197,2.0293 16.49609,14.20305 16.49609,22.17969 0,3.46465 1.94482,6.74117 4.66797,7.86914 1.71257,0.70932 10.84907,0.96045 28.13281,0.77149 25.20192,-0.27552 25.62964,-0.31368 27.74219,-2.42774 l 2.14649,-2.14648 V 563.25391 400.22266 l -2.14649,-2.14844 c -2.11255,-2.11405 -2.54027,-2.15026 -27.74219,-2.42578 -17.28374,-0.18896 -26.42024,0.0602 -28.13281,0.76953 -2.72315,1.12796 -4.66797,4.40645 -4.66797,7.8711 0,7.88973 -8.14474,19.13531 -15.73242,21.7207 -5.85537,1.99512 -13.97295,1.88119 -18.67383,-0.26172 -8.65729,-3.94646 -13.25118,-10.28425 -14.65625,-20.22461 -0.52069,-3.68373 -1.48921,-6.36208 -2.76172,-7.63476 -1.94936,-1.94961 -2.38977,-1.96256 -79.70508,-2.21289 l -77.74609,-0.25196 V 387 c 0,-9.35977 -0.98444,-12.51249 -4.39063,-14.06445 -3.08952,-1.40768 -35.26399,-1.40768 -38.35351,0 -3.40736,1.5525 -4.39063,4.70659 -4.39063,14.08203 v 8.43946 h -8.39843 -8.39844 l -0.32031,-9.86719 c -0.45085,-13.83726 0.63716,-13.15869 -21.69922,-13.52344 -19.44139,-0.31747 -22.40761,0.1945 -24.22071,4.17383 -0.58574,1.28554 -1.06445,6.13545 -1.06445,10.77734 v 8.43946 h -8.48438 -8.48437 v -9.32227 c 0,-14.24615 0.86835,-13.70513 -22.55664,-14.06445 z m 9.46289,15.19336 h 8.48437 8.48242 v 16.4961 16.49804 h -7.85546 c -4.32064,0 -8.13873,-0.28325 -8.48438,-0.6289 -0.34565,-0.34565 -0.62695,-7.76841 -0.62695,-16.4961 z m 64.10156,0 h 8.48438 8.48437 v 16.4961 16.49804 h -7.85547 c -4.32064,0 -8.13873,-0.28325 -8.48437,-0.6289 -0.34566,-0.34565 -0.62891,-7.76841 -0.62891,-16.4961 z m 64.10352,0 h 8.48437 8.48438 v 16.4961 16.49804 h -7.85742 c -4.32065,0 -8.13679,-0.28325 -8.48243,-0.6289 -0.34566,-0.34565 -0.6289,-7.76841 -0.6289,-16.4961 z m -79.35938,23.4961 0.32227,9.91015 c 0.47798,14.68697 -0.32589,14.19922 23.41797,14.19922 23.63111,0 22.86336,0.4539 23.5664,-13.92578 l 0.47266,-9.64063 8.16211,-0.27148 8.16015,-0.27148 0.32227,9.91015 c 0.47823,14.69481 -0.34075,14.19922 23.52734,14.19922 h 18.90821 l 2.27539,-2.64453 c 2.0756,-2.41302 2.27539,-3.46771 2.27539,-12.03125 v -9.38672 l 32.28711,0.24805 32.28711,0.24804 0.25586,17.08008 0.25781,17.08203 -2.92187,1.20899 c -10.91081,4.5194 -16.05241,20.33024 -10.26758,31.57422 6.4025,12.44456 23.1695,16.3349 34.62695,8.03515 10.98322,-7.9562 12.3793,-24.19423 2.95899,-34.41406 -2.06086,-2.23577 -5.00838,-4.58768 -6.55079,-5.22656 l -2.80468,-1.16211 V 427.8418 410.49415 l 16.26172,0.25976 16.25976,0.25781 0.47266,37.23438 c 0.33284,26.29399 0.79937,37.7917 1.58984,39.12305 0.61569,1.03695 13.58807,14.32294 28.82617,29.52539 l 27.70508,27.64062 -1.3125,5.15039 c -3.70937,14.56429 7.36442,28.65235 22.52149,28.65235 15.68574,0 26.47539,-14.46686 22.07617,-29.59961 -3.52875,-12.13849 -15.68162,-19.13628 -27.76758,-15.98828 l -5.20703,1.35742 -26.67383,-26.66211 -26.67578,-26.66406 v -35.1211 -35.12109 h 8.50391 c 8.38933,0 8.51935,0.0364 9.57617,2.59375 4.03767,9.77051 5.8674,12.97654 9.80078,17.18164 5.25503,5.61805 13.52173,9.96589 21.91797,11.52734 11.61404,2.15985 25.45624,-2.06756 33.67187,-10.2832 4.8326,-4.8326 9.37588,-12.16629 10.84571,-17.50586 l 0.97851,-3.55664 16.69141,0.25781 16.6914,0.25781 v 152.24219 152.24415 l -16.6914,0.25781 -16.69141,0.25781 -0.97851,-3.55664 c -0.53847,-1.95616 -2.28938,-5.83111 -3.89063,-8.60937 -10.6143,-18.41659 -32.76663,-24.87729 -52.31055,-15.25586 -9.38601,4.62071 -14.43417,10.85977 -20.05859,24.78515 l -1.04688,2.5918 H 289.86719 c -140.19798,0 -176.42493,-0.24085 -176.78125,-1.17774 -0.24648,-0.64808 -0.33822,-69.26302 -0.20508,-152.47851 l 0.24219,-151.30079 16.17383,-0.25781 16.17578,-0.25781 0.32226,9.89648 c 0.47201,14.50145 -0.13408,14.10524 22.15821,14.48047 18.08486,0.30441 22.04963,-0.27583 23.53906,-3.44531 0.40408,-0.85987 0.96482,-5.80547 1.24609,-10.99023 l 0.51172,-9.42579 8.16211,-0.27148 z m -23.34766,41.54882 -0.25976,15.79102 -0.25781,15.78906 -8.95508,0.24219 c -13.7714,0.3734 -15.08399,1.71027 -15.08399,15.35742 v 8.43946 h -16.02539 -16.02539 v 7.54101 7.54102 h 16.02539 16.02539 v 8.48437 8.48438 h -16.02539 -16.02539 v 7.54101 7.54102 h 16.02539 16.02539 v 8.48437 8.48438 h -16.02539 -16.02539 v 7.54297 7.54101 h 16.02539 16.02539 v 8.48438 8.48437 h -16.02539 -16.02539 v 7.54102 7.54101 h 16.02539 16.02539 v 8.43946 c 0,13.64714 1.31259,14.98207 15.08399,15.35547 l 8.95508,0.24414 0.25781,15.78906 0.25976,15.79102 h 7.51758 7.51953 v -16.0625 -16.0625 l 8.24805,0.27148 8.24805,0.27344 0.25976,15.78906 0.25782,15.79102 h 7.51953 7.51758 v -16.0625 -16.0625 l 8.24804,0.27148 8.25,0.27344 0.25782,15.78906 0.25781,15.79102 h 7.51953 7.51758 v -16.0625 -16.0625 l 8.25,0.27148 8.24804,0.27344 0.25782,15.78906 0.25976,15.79102 h 7.51758 7.51953 v -16.02539 -16.02735 h 9.32227 c 13.19456,0 13.67115,-0.46036 14.09375,-13.58398 l 0.32226,-9.98243 h 32.4375 32.43555 v 17.20508 17.20508 l -3.98633,1.92188 c -5.32422,2.56607 -9.74585,8.53593 -11.08007,14.96289 -1.29892,6.25684 -0.57164,10.87174 2.66601,16.92773 2.84006,5.31234 6.89779,8.71457 12.60938,10.57227 8.11129,2.6382 17.95685,0.0246 23.96093,-6.36133 10.47397,-11.14013 8.13777,-28.88531 -4.69921,-35.69531 l -4.38672,-2.32618 v -21.99218 -21.99219 l -2.75586,-2.75586 -2.75586,-2.75391 h -37.3086 -37.30859 v -8.48437 -8.48438 l 45.01367,0.0293 45.01367,0.0293 2.51954,4.15429 c 8.60756,14.18983 28.95672,15.39166 38.46093,2.27149 9.5375,-13.16613 3.68444,-31.64562 -11.44531,-36.13867 -6.11498,-1.816 -7.71425,-1.81551 -13.86719,0.0117 -5.53109,1.64256 -11.10576,6.16503 -13.82422,11.2129 l -1.80273,3.3457 h -45.0332 -45.03516 v -8.48438 -8.48437 h 16.02539 16.02539 v -7.54102 -7.54101 h -16.02539 -16.02539 v -8.48438 -8.48437 h 16.02539 16.02539 v -7.54102 -7.54101 h -15.93945 -15.93946 l -0.32226,-9.98438 c -0.4226,-13.12363 -0.89919,-13.58398 -14.09375,-13.58398 h -9.32227 v -16.0254 -16.02539 h -7.51953 -7.51758 l -0.25976,15.79102 -0.25782,15.78906 -8.24804,0.27149 -8.25,0.27343 v -16.0625 -16.0625 h -7.51758 -7.51953 l -0.25781,15.79102 -0.25782,15.78906 h -8.01367 -8.01367 l -0.25781,-15.78906 -0.25782,-15.79102 h -7.49609 -7.49609 l -0.25782,15.79102 -0.25976,15.78906 h -8.01172 -8.01367 l -0.25781,-15.78906 -0.25782,-15.79102 h -7.49609 z m 207.34376,6.59961 c 2.02913,0 3.84982,0.87521 5.73047,2.75586 3.65025,3.65027 3.75533,8.24076 0.26953,11.72657 -5.38183,5.38181 -14.48242,1.89021 -14.48242,-5.55665 0,-4.50903 4.1965,-8.92578 8.48242,-8.92578 z m -216.81641,40.53516 h 64.57422 64.57422 v 64.10156 64.10352 h -64.57422 -64.57422 v -64.10352 z m 49.09375,16.13672 c -15.60484,0.0159 -23.9598,0.28035 -25.75781,0.80859 -6.41802,1.88556 -6.36719,1.51971 -6.36719,47.15625 0,45.09868 0.0275,45.32844 5.90234,47.02539 1.67852,0.48485 20.56493,0.92 41.96875,0.9668 42.60148,0.0931 44.50226,-0.11993 46.42969,-5.18945 0.62012,-1.63092 0.87063,-17.46377 0.70117,-44.32617 l -0.26367,-41.78907 -2.14453,-2.14648 -2.14648,-2.14649 -40.2754,-0.29296 c -6.83878,-0.0499 -12.84526,-0.0717 -18.04687,-0.0664 z m -17.04297,15.91406 h 32.52344 32.52148 v 32.05078 32.05274 h -32.52148 -32.52344 v -32.05274 z m 304.65821,16.02539 c 7.48987,0 11.21035,8.50256 6,13.71289 -5.1007,5.1007 -14.6543,1.38509 -14.6543,-5.69922 0,-4.4227 3.87683,-8.01367 8.6543,-8.01367 z m -79.76368,23.48438 c 4.06349,0.0469 7.94922,3.12485 7.94922,8.56836 0,2.83756 -0.6119,4.46737 -2.31445,6.16992 -6.19672,6.19672 -17.04115,-0.95956 -13.69531,-9.03711 1.63267,-3.94161 4.90005,-5.73763 8.06054,-5.70117 z m 121.78321,48.99609 -18.70703,0.28906 c -22.02105,0.34086 -21.79537,0.24536 -22.54102,9.51368 l -0.4707,5.85742 -8.13281,0.27148 -8.13282,0.27149 -0.42187,-5.83399 c -0.35464,-4.90291 -0.83222,-6.18558 -2.9961,-8.04687 -2.50029,-2.1507 -3.07511,-2.21485 -19.91796,-2.21485 -18.47822,0 -21.22279,0.52437 -22.98438,4.39063 -1.4101,3.09572 -1.40718,35.26433 0.004,38.36133 0.57762,1.26775 1.95703,2.75624 3.06445,3.30859 1.2605,0.62868 8.79149,0.92868 20.13672,0.80274 17.30665,-0.19212 18.21662,-0.2946 20.20508,-2.28516 1.55387,-1.55553 2.18685,-3.52909 2.49414,-7.77734 l 0.41015,-5.69336 h 8.3711 8.37109 v 4.66992 c 0,5.89502 1.42611,9.05278 4.70313,10.41015 1.69584,0.70243 8.56094,0.96416 20.12304,0.76954 23.56593,-0.39666 21.83789,1.46403 21.83789,-23.49805 v -18.91016 l -2.70898,-2.32812 z m -26.16406,15.11719 8.24804,0.27148 8.24805,0.27149 v 8.01367 8.01367 l -8.24805,0.27149 -8.24804,0.27343 v -8.55859 z m -64.10352,0.0723 h 8.52148 8.52149 l -0.27344,8.24804 -0.27148,8.25 -8.25,0.27149 -8.24805,0.27343 v -8.52148 z m -72.5918,31.96679 c 2.38818,-0.21821 4.92908,0.55213 6.94727,2.57032 3.4858,3.48579 3.38072,8.0763 -0.26953,11.72656 -1.88065,1.88066 -3.70134,2.75586 -5.73047,2.75586 -4.28592,0 -8.48242,-4.41675 -8.48242,-8.92578 0,-4.65429 3.55485,-7.76327 7.53515,-8.12696 z"
       transform="scale(0.26458333)" /><path
       id="path4"
       style="display:inline;fill:#beb41e;fill-opacity:1;stroke:none;stroke-width:3.56291;stroke-linejoin:round;paint-order:stroke markers fill;filter:url(#filter8)"
       d="m 151.26563,371.7793 -2.81055,2.81055 c -2.72564,2.72562 -2.81055,3.08194 -2.81055,11.78906 v 8.97852 l -21.65625,0.28515 c -21.09554,0.27754 -21.71302,0.34019 -23.80273,2.43164 l -2.146486,2.14844 -0.226563,161.87891 c -0.17976,128.65812 0.01719,162.36046 0.960938,164.21875 0.653092,1.28597 2.241361,2.8726 3.527341,3.52539 1.86051,0.94447 40.31625,1.14047 188.25586,0.96094 l 185.91798,-0.22461 1.96093,-1.96094 c 1.27278,-1.27281 2.24098,-3.95063 2.76172,-7.63476 1.39873,-9.89551 5.92478,-16.28496 14.1836,-20.02344 4.75748,-2.15354 12.45293,-2.53884 18.38281,-0.92188 7.44197,2.0293 16.49609,14.20305 16.49609,22.17969 0,3.46465 1.94482,6.74117 4.66797,7.86914 1.71257,0.70932 10.84907,0.96045 28.13281,0.77149 25.20192,-0.27552 25.62964,-0.31368 27.74219,-2.42774 l 2.14649,-2.14648 V 563.25391 400.22266 l -2.14649,-2.14844 c -2.11255,-2.11405 -2.54027,-2.15026 -27.74219,-2.42578 -17.28374,-0.18896 -26.42024,0.0602 -28.13281,0.76953 -2.72315,1.12796 -4.66797,4.40645 -4.66797,7.8711 0,7.88973 -8.14474,19.13531 -15.73242,21.7207 -5.85537,1.99512 -13.97295,1.88119 -18.67383,-0.26172 -8.65729,-3.94646 -13.25118,-10.28425 -14.65625,-20.22461 -0.52069,-3.68373 -1.48921,-6.36208 -2.76172,-7.63476 -1.94936,-1.94961 -2.38977,-1.96256 -79.70508,-2.21289 l -77.74609,-0.25196 V 387 c 0,-9.35977 -0.98444,-12.51249 -4.39063,-14.06445 -3.08952,-1.40768 -35.26399,-1.40768 -38.35351,0 -3.40736,1.5525 -4.39063,4.70659 -4.39063,14.08203 v 8.43946 h -8.39843 -8.39844 l -0.32031,-9.86719 c -0.45085,-13.83726 0.63716,-13.15869 -21.69922,-13.52344 -19.44139,-0.31747 -22.40761,0.1945 -24.22071,4.17383 -0.58574,1.28554 -1.06445,6.13545 -1.06445,10.77734 v 8.43946 h -8.48438 -8.48437 v -9.32227 c 0,-14.24615 0.86835,-13.70513 -22.55664,-14.06445 z m 9.46289,15.19336 h 8.48437 8.48242 v 16.4961 16.49804 h -7.85546 c -4.32064,0 -8.13873,-0.28325 -8.48438,-0.6289 -0.34565,-0.34565 -0.62695,-7.76841 -0.62695,-16.4961 z m 64.10156,0 h 8.48438 8.48437 v 16.4961 16.49804 h -7.85547 c -4.32064,0 -8.13873,-0.28325 -8.48437,-0.6289 -0.34566,-0.34565 -0.62891,-7.76841 -0.62891,-16.4961 z m 64.10352,0 h 8.48437 8.48438 v 16.4961 16.49804 h -7.85742 c -4.32065,0 -8.13679,-0.28325 -8.48243,-0.6289 -0.34566,-0.34565 -0.6289,-7.76841 -0.6289,-16.4961 z m -79.35938,23.4961 0.32227,9.91015 c 0.47798,14.68697 -0.32589,14.19922 23.41797,14.19922 23.63111,0 22.86336,0.4539 23.5664,-13.92578 l 0.47266,-9.64063 8.16211,-0.27148 8.16015,-0.27148 0.32227,9.91015 c 0.47823,14.69481 -0.34075,14.19922 23.52734,14.19922 h 18.90821 l 2.27539,-2.64453 c 2.0756,-2.41302 2.27539,-3.46771 2.27539,-12.03125 v -9.38672 l 32.28711,0.24805 32.28711,0.24804 0.25586,17.08008 0.25781,17.08203 -2.92187,1.20899 c -10.91081,4.5194 -16.05241,20.33024 -10.26758,31.57422 6.4025,12.44456 23.1695,16.3349 34.62695,8.03515 10.98322,-7.9562 12.3793,-24.19423 2.95899,-34.41406 -2.06086,-2.23577 -5.00838,-4.58768 -6.55079,-5.22656 l -2.80468,-1.16211 V 427.8418 410.49415 l 16.26172,0.25976 16.25976,0.25781 0.47266,37.23438 c 0.33284,26.29399 0.79937,37.7917 1.58984,39.12305 0.61569,1.03695 13.58807,14.32294 28.82617,29.52539 l 27.70508,27.64062 -1.3125,5.15039 c -3.70937,14.56429 7.36442,28.65235 22.52149,28.65235 15.68574,0 26.47539,-14.46686 22.07617,-29.59961 -3.52875,-12.13849 -15.68162,-19.13628 -27.76758,-15.98828 l -5.20703,1.35742 -26.67383,-26.66211 -26.67578,-26.66406 v -35.1211 -35.12109 h 8.50391 c 8.38933,0 8.51935,0.0364 9.57617,2.59375 4.03767,9.77051 5.8674,12.97654 9.80078,17.18164 5.25503,5.61805 13.52173,9.96589 21.91797,11.52734 11.61404,2.15985 25.45624,-2.06756 33.67187,-10.2832 4.8326,-4.8326 9.37588,-12.16629 10.84571,-17.50586 l 0.97851,-3.55664 16.69141,0.25781 16.6914,0.25781 v 152.24219 152.24415 l -16.6914,0.25781 -16.69141,0.25781 -0.97851,-3.55664 c -0.53847,-1.95616 -2.28938,-5.83111 -3.89063,-8.60937 -10.6143,-18.41659 -32.76663,-24.87729 -52.31055,-15.25586 -9.38601,4.62071 -14.43417,10.85977 -20.05859,24.78515 l -1.04688,2.5918 H 289.86719 c -140.19798,0 -176.42493,-0.24085 -176.78125,-1.17774 -0.24648,-0.64808 -0.33822,-69.26302 -0.20508,-152.47851 l 0.24219,-151.30079 16.17383,-0.25781 16.17578,-0.25781 0.32226,9.89648 c 0.47201,14.50145 -0.13408,14.10524 22.15821,14.48047 18.08486,0.30441 22.04963,-0.27583 23.53906,-3.44531 0.40408,-0.85987 0.96482,-5.80547 1.24609,-10.99023 l 0.51172,-9.42579 8.16211,-0.27148 z m -23.34766,41.54882 -0.25976,15.79102 -0.25781,15.78906 -8.95508,0.24219 c -13.7714,0.3734 -15.08399,1.71027 -15.08399,15.35742 v 8.43946 h -16.02539 -16.02539 v 7.54101 7.54102 h 16.02539 16.02539 v 8.48437 8.48438 h -16.02539 -16.02539 v 7.54101 7.54102 h 16.02539 16.02539 v 8.48437 8.48438 h -16.02539 -16.02539 v 7.54297 7.54101 h 16.02539 16.02539 v 8.48438 8.48437 h -16.02539 -16.02539 v 7.54102 7.54101 h 16.02539 16.02539 v 8.43946 c 0,13.64714 1.31259,14.98207 15.08399,15.35547 l 8.95508,0.24414 0.25781,15.78906 0.25976,15.79102 h 7.51758 7.51953 v -16.0625 -16.0625 l 8.24805,0.27148 8.24805,0.27344 0.25976,15.78906 0.25782,15.79102 h 7.51953 7.51758 v -16.0625 -16.0625 l 8.24804,0.27148 8.25,0.27344 0.25782,15.78906 0.25781,15.79102 h 7.51953 7.51758 v -16.0625 -16.0625 l 8.25,0.27148 8.24804,0.27344 0.25782,15.78906 0.25976,15.79102 h 7.51758 7.51953 v -16.02539 -16.02735 h 9.32227 c 13.19456,0 13.67115,-0.46036 14.09375,-13.58398 l 0.32226,-9.98243 h 32.4375 32.43555 v 17.20508 17.20508 l -3.98633,1.92188 c -5.32422,2.56607 -9.74585,8.53593 -11.08007,14.96289 -1.29892,6.25684 -0.57164,10.87174 2.66601,16.92773 2.84006,5.31234 6.89779,8.71457 12.60938,10.57227 8.11129,2.6382 17.95685,0.0246 23.96093,-6.36133 10.47397,-11.14013 8.13777,-28.88531 -4.69921,-35.69531 l -4.38672,-2.32618 v -21.99218 -21.99219 l -2.75586,-2.75586 -2.75586,-2.75391 h -37.3086 -37.30859 v -8.48437 -8.48438 l 45.01367,0.0293 45.01367,0.0293 2.51954,4.15429 c 8.60756,14.18983 28.95672,15.39166 38.46093,2.27149 9.5375,-13.16613 3.68444,-31.64562 -11.44531,-36.13867 -6.11498,-1.816 -7.71425,-1.81551 -13.86719,0.0117 -5.53109,1.64256 -11.10576,6.16503 -13.82422,11.2129 l -1.80273,3.3457 h -45.0332 -45.03516 v -8.48438 -8.48437 h 16.02539 16.02539 v -7.54102 -7.54101 h -16.02539 -16.02539 v -8.48438 -8.48437 h 16.02539 16.02539 v -7.54102 -7.54101 h -15.93945 -15.93946 l -0.32226,-9.98438 c -0.4226,-13.12363 -0.89919,-13.58398 -14.09375,-13.58398 h -9.32227 v -16.0254 -16.02539 h -7.51953 -7.51758 l -0.25976,15.79102 -0.25782,15.78906 -8.24804,0.27149 -8.25,0.27343 v -16.0625 -16.0625 h -7.51758 -7.51953 l -0.25781,15.79102 -0.25782,15.78906 h -8.01367 -8.01367 l -0.25781,-15.78906 -0.25782,-15.79102 h -7.49609 -7.49609 l -0.25782,15.79102 -0.25976,15.78906 h -8.01172 -8.01367 l -0.25781,-15.78906 -0.25782,-15.79102 h -7.49609 z m 207.34376,6.59961 c 2.02913,0 3.84982,0.87521 5.73047,2.75586 3.65025,3.65027 3.75533,8.24076 0.26953,11.72657 -5.38183,5.38181 -14.48242,1.89021 -14.48242,-5.55665 0,-4.50903 4.1965,-8.92578 8.48242,-8.92578 z m -216.81641,40.53516 h 64.57422 64.57422 v 64.10156 64.10352 h -64.57422 -64.57422 v -64.10352 z m 49.09375,16.13672 c -15.60484,0.0159 -23.9598,0.28035 -25.75781,0.80859 -6.41802,1.88556 -6.36719,1.51971 -6.36719,47.15625 0,45.09868 0.0275,45.32844 5.90234,47.02539 1.67852,0.48485 20.56493,0.92 41.96875,0.9668 42.60148,0.0931 44.50226,-0.11993 46.42969,-5.18945 0.62012,-1.63092 0.87063,-17.46377 0.70117,-44.32617 l -0.26367,-41.78907 -2.14453,-2.14648 -2.14648,-2.14649 -40.2754,-0.29296 c -6.83878,-0.0499 -12.84526,-0.0717 -18.04687,-0.0664 z m -17.04297,15.91406 h 32.52344 32.52148 v 32.05078 32.05274 h -32.52148 -32.52344 v -32.05274 z m 304.65821,16.02539 c 7.48987,0 11.21035,8.50256 6,13.71289 -5.1007,5.1007 -14.6543,1.38509 -14.6543,-5.69922 0,-4.4227 3.87683,-8.01367 8.6543,-8.01367 z m -79.76368,23.48438 c 4.06349,0.0469 7.94922,3.12485 7.94922,8.56836 0,2.83756 -0.6119,4.46737 -2.31445,6.16992 -6.19672,6.19672 -17.04115,-0.95956 -13.69531,-9.03711 1.63267,-3.94161 4.90005,-5.73763 8.06054,-5.70117 z m 121.78321,48.99609 -18.70703,0.28906 c -22.02105,0.34086 -21.79537,0.24536 -22.54102,9.51368 l -0.4707,5.85742 -8.13281,0.27148 -8.13282,0.27149 -0.42187,-5.83399 c -0.35464,-4.90291 -0.83222,-6.18558 -2.9961,-8.04687 -2.50029,-2.1507 -3.07511,-2.21485 -19.91796,-2.21485 -18.47822,0 -21.22279,0.52437 -22.98438,4.39063 -1.4101,3.09572 -1.40718,35.26433 0.004,38.36133 0.57762,1.26775 1.95703,2.75624 3.06445,3.30859 1.2605,0.62868 8.79149,0.92868 20.13672,0.80274 17.30665,-0.19212 18.21662,-0.2946 20.20508,-2.28516 1.55387,-1.55553 2.18685,-3.52909 2.49414,-7.77734 l 0.41015,-5.69336 h 8.3711 8.37109 v 4.66992 c 0,5.89502 1.42611,9.05278 4.70313,10.41015 1.69584,0.70243 8.56094,0.96416 20.12304,0.76954 23.56593,-0.39666 21.83789,1.46403 21.83789,-23.49805 v -18.91016 l -2.70898,-2.32812 z m -26.16406,15.11719 8.24804,0.27148 8.24805,0.27149 v 8.01367 8.01367 l -8.24805,0.27149 -8.24804,0.27343 v -8.55859 z m -64.10352,0.0723 h 8.52148 8.52149 l -0.27344,8.24804 -0.27148,8.25 -8.25,0.27149 -8.24805,0.27343 v -8.52148 z m -72.5918,31.96679 c 2.38818,-0.21821 4.92908,0.55213 6.94727,2.57032 3.4858,3.48579 3.38072,8.0763 -0.26953,11.72656 -1.88065,1.88066 -3.70134,2.75586 -5.73047,2.75586 -4.28592,0 -8.48242,-4.41675 -8.48242,-8.92578 0,-4.65429 3.55485,-7.76327 7.53515,-8.12696 z"
       transform="matrix(0,-0.26458333,0.26458333,0,-54.504105,237.25227)" /><path
       id="path5"
       style="display:none;fill:#beb41e;fill-opacity:1;stroke:none;stroke-width:3.56291;stroke-linejoin:round;paint-order:stroke markers fill;filter:url(#filter7)"
       d="m 151.26563,371.7793 -2.81055,2.81055 c -2.72564,2.72562 -2.81055,3.08194 -2.81055,11.78906 v 8.97852 l -21.65625,0.28515 c -21.09554,0.27754 -21.71302,0.34019 -23.80273,2.43164 l -2.146486,2.14844 -0.226563,161.87891 c -0.17976,128.65812 0.01719,162.36046 0.960938,164.21875 0.653092,1.28597 2.241361,2.8726 3.527341,3.52539 1.86051,0.94447 40.31625,1.14047 188.25586,0.96094 l 185.91798,-0.22461 1.96093,-1.96094 c 1.27278,-1.27281 2.24098,-3.95063 2.76172,-7.63476 1.39873,-9.89551 5.92478,-16.28496 14.1836,-20.02344 4.75748,-2.15354 12.45293,-2.53884 18.38281,-0.92188 7.44197,2.0293 16.49609,14.20305 16.49609,22.17969 0,3.46465 1.94482,6.74117 4.66797,7.86914 1.71257,0.70932 10.84907,0.96045 28.13281,0.77149 25.20192,-0.27552 25.62964,-0.31368 27.74219,-2.42774 l 2.14649,-2.14648 V 563.25391 400.22266 l -2.14649,-2.14844 c -2.11255,-2.11405 -2.54027,-2.15026 -27.74219,-2.42578 -17.28374,-0.18896 -26.42024,0.0602 -28.13281,0.76953 -2.72315,1.12796 -4.66797,4.40645 -4.66797,7.8711 0,7.88973 -8.14474,19.13531 -15.73242,21.7207 -5.85537,1.99512 -13.97295,1.88119 -18.67383,-0.26172 -8.65729,-3.94646 -13.25118,-10.28425 -14.65625,-20.22461 -0.52069,-3.68373 -1.48921,-6.36208 -2.76172,-7.63476 -1.94936,-1.94961 -2.38977,-1.96256 -79.70508,-2.21289 l -77.74609,-0.25196 V 387 c 0,-9.35977 -0.98444,-12.51249 -4.39063,-14.06445 -3.08952,-1.40768 -35.26399,-1.40768 -38.35351,0 -3.40736,1.5525 -4.39063,4.70659 -4.39063,14.08203 v 8.43946 h -8.39843 -8.39844 l -0.32031,-9.86719 c -0.45085,-13.83726 0.63716,-13.15869 -21.69922,-13.52344 -19.44139,-0.31747 -22.40761,0.1945 -24.22071,4.17383 -0.58574,1.28554 -1.06445,6.13545 -1.06445,10.77734 v 8.43946 h -8.48438 -8.48437 v -9.32227 c 0,-14.24615 0.86835,-13.70513 -22.55664,-14.06445 z m 9.46289,15.19336 h 8.48437 8.48242 v 16.4961 16.49804 h -7.85546 c -4.32064,0 -8.13873,-0.28325 -8.48438,-0.6289 -0.34565,-0.34565 -0.62695,-7.76841 -0.62695,-16.4961 z m 64.10156,0 h 8.48438 8.48437 v 16.4961 16.49804 h -7.85547 c -4.32064,0 -8.13873,-0.28325 -8.48437,-0.6289 -0.34566,-0.34565 -0.62891,-7.76841 -0.62891,-16.4961 z m 64.10352,0 h 8.48437 8.48438 v 16.4961 16.49804 h -7.85742 c -4.32065,0 -8.13679,-0.28325 -8.48243,-0.6289 -0.34566,-0.34565 -0.6289,-7.76841 -0.6289,-16.4961 z m -79.35938,23.4961 0.32227,9.91015 c 0.47798,14.68697 -0.32589,14.19922 23.41797,14.19922 23.63111,0 22.86336,0.4539 23.5664,-13.92578 l 0.47266,-9.64063 8.16211,-0.27148 8.16015,-0.27148 0.32227,9.91015 c 0.47823,14.69481 -0.34075,14.19922 23.52734,14.19922 h 18.90821 l 2.27539,-2.64453 c 2.0756,-2.41302 2.27539,-3.46771 2.27539,-12.03125 v -9.38672 l 32.28711,0.24805 32.28711,0.24804 0.25586,17.08008 0.25781,17.08203 -2.92187,1.20899 c -10.91081,4.5194 -16.05241,20.33024 -10.26758,31.57422 6.4025,12.44456 23.1695,16.3349 34.62695,8.03515 10.98322,-7.9562 12.3793,-24.19423 2.95899,-34.41406 -2.06086,-2.23577 -5.00838,-4.58768 -6.55079,-5.22656 l -2.80468,-1.16211 V 427.8418 410.49415 l 16.26172,0.25976 16.25976,0.25781 0.47266,37.23438 c 0.33284,26.29399 0.79937,37.7917 1.58984,39.12305 0.61569,1.03695 13.58807,14.32294 28.82617,29.52539 l 27.70508,27.64062 -1.3125,5.15039 c -3.70937,14.56429 7.36442,28.65235 22.52149,28.65235 15.68574,0 26.47539,-14.46686 22.07617,-29.59961 -3.52875,-12.13849 -15.68162,-19.13628 -27.76758,-15.98828 l -5.20703,1.35742 -26.67383,-26.66211 -26.67578,-26.66406 v -35.1211 -35.12109 h 8.50391 c 8.38933,0 8.51935,0.0364 9.57617,2.59375 4.03767,9.77051 5.8674,12.97654 9.80078,17.18164 5.25503,5.61805 13.52173,9.96589 21.91797,11.52734 11.61404,2.15985 25.45624,-2.06756 33.67187,-10.2832 4.8326,-4.8326 9.37588,-12.16629 10.84571,-17.50586 l 0.97851,-3.55664 16.69141,0.25781 16.6914,0.25781 v 152.24219 152.24415 l -16.6914,0.25781 -16.69141,0.25781 -0.97851,-3.55664 c -0.53847,-1.95616 -2.28938,-5.83111 -3.89063,-8.60937 -10.6143,-18.41659 -32.76663,-24.87729 -52.31055,-15.25586 -9.38601,4.62071 -14.43417,10.85977 -20.05859,24.78515 l -1.04688,2.5918 H 289.86719 c -140.19798,0 -176.42493,-0.24085 -176.78125,-1.17774 -0.24648,-0.64808 -0.33822,-69.26302 -0.20508,-152.47851 l 0.24219,-151.30079 16.17383,-0.25781 16.17578,-0.25781 0.32226,9.89648 c 0.47201,14.50145 -0.13408,14.10524 22.15821,14.48047 18.08486,0.30441 22.04963,-0.27583 23.53906,-3.44531 0.40408,-0.85987 0.96482,-5.80547 1.24609,-10.99023 l 0.51172,-9.42579 8.16211,-0.27148 z m -23.34766,41.54882 -0.25976,15.79102 -0.25781,15.78906 -8.95508,0.24219 c -13.7714,0.3734 -15.08399,1.71027 -15.08399,15.35742 v 8.43946 h -16.02539 -16.02539 v 7.54101 7.54102 h 16.02539 16.02539 v 8.48437 8.48438 h -16.02539 -16.02539 v 7.54101 7.54102 h 16.02539 16.02539 v 8.48437 8.48438 h -16.02539 -16.02539 v 7.54297 7.54101 h 16.02539 16.02539 v 8.48438 8.48437 h -16.02539 -16.02539 v 7.54102 7.54101 h 16.02539 16.02539 v 8.43946 c 0,13.64714 1.31259,14.98207 15.08399,15.35547 l 8.95508,0.24414 0.25781,15.78906 0.25976,15.79102 h 7.51758 7.51953 v -16.0625 -16.0625 l 8.24805,0.27148 8.24805,0.27344 0.25976,15.78906 0.25782,15.79102 h 7.51953 7.51758 v -16.0625 -16.0625 l 8.24804,0.27148 8.25,0.27344 0.25782,15.78906 0.25781,15.79102 h 7.51953 7.51758 v -16.0625 -16.0625 l 8.25,0.27148 8.24804,0.27344 0.25782,15.78906 0.25976,15.79102 h 7.51758 7.51953 v -16.02539 -16.02735 h 9.32227 c 13.19456,0 13.67115,-0.46036 14.09375,-13.58398 l 0.32226,-9.98243 h 32.4375 32.43555 v 17.20508 17.20508 l -3.98633,1.92188 c -5.32422,2.56607 -9.74585,8.53593 -11.08007,14.96289 -1.29892,6.25684 -0.57164,10.87174 2.66601,16.92773 2.84006,5.31234 6.89779,8.71457 12.60938,10.57227 8.11129,2.6382 17.95685,0.0246 23.96093,-6.36133 10.47397,-11.14013 8.13777,-28.88531 -4.69921,-35.69531 l -4.38672,-2.32618 v -21.99218 -21.99219 l -2.75586,-2.75586 -2.75586,-2.75391 h -37.3086 -37.30859 v -8.48437 -8.48438 l 45.01367,0.0293 45.01367,0.0293 2.51954,4.15429 c 8.60756,14.18983 28.95672,15.39166 38.46093,2.27149 9.5375,-13.16613 3.68444,-31.64562 -11.44531,-36.13867 -6.11498,-1.816 -7.71425,-1.81551 -13.86719,0.0117 -5.53109,1.64256 -11.10576,6.16503 -13.82422,11.2129 l -1.80273,3.3457 h -45.0332 -45.03516 v -8.48438 -8.48437 h 16.02539 16.02539 v -7.54102 -7.54101 h -16.02539 -16.02539 v -8.48438 -8.48437 h 16.02539 16.02539 v -7.54102 -7.54101 h -15.93945 -15.93946 l -0.32226,-9.98438 c -0.4226,-13.12363 -0.89919,-13.58398 -14.09375,-13.58398 h -9.32227 v -16.0254 -16.02539 h -7.51953 -7.51758 l -0.25976,15.79102 -0.25782,15.78906 -8.24804,0.27149 -8.25,0.27343 v -16.0625 -16.0625 h -7.51758 -7.51953 l -0.25781,15.79102 -0.25782,15.78906 h -8.01367 -8.01367 l -0.25781,-15.78906 -0.25782,-15.79102 h -7.49609 -7.49609 l -0.25782,15.79102 -0.25976,15.78906 h -8.01172 -8.01367 l -0.25781,-15.78906 -0.25782,-15.79102 h -7.49609 z m 207.34376,6.59961 c 2.02913,0 3.84982,0.87521 5.73047,2.75586 3.65025,3.65027 3.75533,8.24076 0.26953,11.72657 -5.38183,5.38181 -14.48242,1.89021 -14.48242,-5.55665 0,-4.50903 4.1965,-8.92578 8.48242,-8.92578 z m -216.81641,40.53516 h 64.57422 64.57422 v 64.10156 64.10352 h -64.57422 -64.57422 v -64.10352 z m 49.09375,16.13672 c -15.60484,0.0159 -23.9598,0.28035 -25.75781,0.80859 -6.41802,1.88556 -6.36719,1.51971 -6.36719,47.15625 0,45.09868 0.0275,45.32844 5.90234,47.02539 1.67852,0.48485 20.56493,0.92 41.96875,0.9668 42.60148,0.0931 44.50226,-0.11993 46.42969,-5.18945 0.62012,-1.63092 0.87063,-17.46377 0.70117,-44.32617 l -0.26367,-41.78907 -2.14453,-2.14648 -2.14648,-2.14649 -40.2754,-0.29296 c -6.83878,-0.0499 -12.84526,-0.0717 -18.04687,-0.0664 z m -17.04297,15.91406 h 32.52344 32.52148 v 32.05078 32.05274 h -32.52148 -32.52344 v -32.05274 z m 304.65821,16.02539 c 7.48987,0 11.21035,8.50256 6,13.71289 -5.1007,5.1007 -14.6543,1.38509 -14.6543,-5.69922 0,-4.4227 3.87683,-8.01367 8.6543,-8.01367 z m -79.76368,23.48438 c 4.06349,0.0469 7.94922,3.12485 7.94922,8.56836 0,2.83756 -0.6119,4.46737 -2.31445,6.16992 -6.19672,6.19672 -17.04115,-0.95956 -13.69531,-9.03711 1.63267,-3.94161 4.90005,-5.73763 8.06054,-5.70117 z m 121.78321,48.99609 -18.70703,0.28906 c -22.02105,0.34086 -21.79537,0.24536 -22.54102,9.51368 l -0.4707,5.85742 -8.13281,0.27148 -8.13282,0.27149 -0.42187,-5.83399 c -0.35464,-4.90291 -0.83222,-6.18558 -2.9961,-8.04687 -2.50029,-2.1507 -3.07511,-2.21485 -19.91796,-2.21485 -18.47822,0 -21.22279,0.52437 -22.98438,4.39063 -1.4101,3.09572 -1.40718,35.26433 0.004,38.36133 0.57762,1.26775 1.95703,2.75624 3.06445,3.30859 1.2605,0.62868 8.79149,0.92868 20.13672,0.80274 17.30665,-0.19212 18.21662,-0.2946 20.20508,-2.28516 1.55387,-1.55553 2.18685,-3.52909 2.49414,-7.77734 l 0.41015,-5.69336 h 8.3711 8.37109 v 4.66992 c 0,5.89502 1.42611,9.05278 4.70313,10.41015 1.69584,0.70243 8.56094,0.96416 20.12304,0.76954 23.56593,-0.39666 21.83789,1.46403 21.83789,-23.49805 v -18.91016 l -2.70898,-2.32812 z m -26.16406,15.11719 8.24804,0.27148 8.24805,0.27149 v 8.01367 8.01367 l -8.24805,0.27149 -8.24804,0.27343 v -8.55859 z m -64.10352,0.0723 h 8.52148 8.52149 l -0.27344,8.24804 -0.27148,8.25 -8.25,0.27149 -8.24805,0.27343 v -8.52148 z m -72.5918,31.96679 c 2.38818,-0.21821 4.92908,0.55213 6.94727,2.57032 3.4858,3.48579 3.38072,8.0763 -0.26953,11.72656 -1.88065,1.88066 -3.70134,2.75586 -5.73047,2.75586 -4.28592,0 -8.48242,-4.41675 -8.48242,-8.92578 0,-4.65429 3.55485,-7.76327 7.53515,-8.12696 z"
       transform="scale(0.26458333)" /><path
       id="path7"
       style="fill:#beb41e;fill-opacity:1;stroke:none;stroke-width:0.942687;stroke-linejoin:round;paint-order:stroke markers fill"
       d="m 43.8625,197.22991 0.743625,0.74362 c 0.721153,0.72116 0.81543,0.74363 3.119189,0.74363 h 2.375566 l 0.07545,5.72988 c 0.07343,5.58153 0.09001,5.7449 0.643372,6.29781 l 0.568441,0.56792 42.830461,0.0599 c 34.040786,0.0476 42.957866,-0.005 43.449536,-0.25424 0.34025,-0.1728 0.76005,-0.59303 0.93276,-0.93328 0.24989,-0.49226 0.30175,-10.66701 0.25425,-49.80936 l -0.0594,-49.1908 -0.51883,-0.51883 c -0.33676,-0.33676 -1.04527,-0.59293 -2.02003,-0.7307 -2.61819,-0.37009 -4.30873,-1.5676 -5.29787,-3.75275 -0.56979,-1.25875 -0.67173,-3.29484 -0.24391,-4.86378 0.53692,-1.969025 3.75789,-4.364594 5.86838,-4.364594 0.91668,0 1.7836,-0.514567 2.08204,-1.235067 0.18767,-0.453118 0.25412,-2.870483 0.20412,-7.443473 -0.0729,-6.668008 -0.083,-6.781175 -0.64234,-7.340121 L 137.65936,80.36779 H 94.52349 51.388139 l -0.568441,0.567925 c -0.559343,0.558946 -0.568923,0.672113 -0.641821,7.340121 -0.05,4.57299 0.01593,6.990355 0.203605,7.443473 0.298439,0.7205 1.165873,1.235067 2.082561,1.235067 2.087491,0 5.062884,2.154962 5.746935,4.162534 0.527876,1.54924 0.497732,3.69701 -0.06925,4.94079 -1.044168,2.29057 -2.721041,3.50604 -5.351095,3.8778 -0.974653,0.13776 -1.6833,0.39402 -2.02003,0.7307 -0.515834,0.51577 -0.519261,0.63229 -0.585494,21.08864 l -0.06666,20.57032 h -2.228805 c -2.476439,0 -3.310597,0.26046 -3.721219,1.16168 -0.372449,0.81744 -0.372449,9.33027 0,10.1477 0.410765,0.90153 1.245285,1.16169 3.72587,1.16169 h 2.23294 v 2.22208 2.22209 l -2.610694,0.0848 c -3.661108,0.11929 -3.48157,-0.16858 -3.578076,5.74125 -0.084,5.14387 0.05146,5.92868 1.104326,6.4084 0.340132,0.15498 1.623337,0.28163 2.851504,0.28163 h 2.23294 v 2.24483 2.24482 h -2.466517 c -3.769294,0 -3.626149,-0.22975 -3.721219,5.96811 z m 4.01991,-2.50373 v -2.24482 -2.24431 h 4.364593 4.365106 v 2.07843 c 0,1.14317 -0.07494,2.15337 -0.166396,2.24482 -0.09145,0.0915 -2.055392,0.16588 -4.364593,0.16588 z m 0,-16.9602 v -2.24483 -2.24482 h 4.364593 4.365106 v 2.07843 c 0,1.14317 -0.07494,2.15337 -0.166396,2.24482 -0.09145,0.0915 -2.055392,0.1664 -4.364593,0.1664 z m 0,-16.96072 v -2.24483 -2.24482 h 4.364593 4.365106 v 2.07894 c 0,1.14317 -0.07494,2.15286 -0.166396,2.24431 -0.09145,0.0915 -2.055392,0.1664 -4.364593,0.1664 z m 6.216676,20.99717 2.622061,-0.0853 c 3.885927,-0.12647 3.756877,0.0862 3.756877,-6.19601 0,-6.25239 0.120094,-6.04926 -3.68453,-6.23527 l -2.55075,-0.12506 -0.07183,-2.15956 -0.07183,-2.15904 2.622061,-0.0853 c 3.888002,-0.12654 3.756877,0.0901 3.756877,-6.22495 v -5.00279 l -0.699699,-0.60203 c -0.638445,-0.54917 -0.917498,-0.60203 -3.183268,-0.60203 h -2.48357 l 0.06563,-8.54264 0.06563,-8.54263 4.519105,-0.0677 4.51962,-0.0682 0.319879,0.77308 c 1.195758,2.88682 5.379043,4.2472 8.354012,2.71663 3.292623,-1.69399 4.321942,-6.13026 2.125967,-9.16171 -2.105078,-2.90598 -6.40139,-3.27536 -9.105387,-0.7829 -0.591547,0.54527 -1.213823,1.32513 -1.38286,1.73323 l -0.307475,0.74207 h -4.589902 -4.589899 l 0.06873,-4.30258 0.06821,-4.30206 9.851597,-0.12506 c 6.956951,-0.0881 9.999054,-0.2115 10.351307,-0.42064 0.274359,-0.1629 3.789611,-3.59518 7.811926,-7.62693 l 7.313247,-7.3303 1.362707,0.34727 c 3.853469,0.98143 7.580934,-1.94851 7.580934,-5.95881 0,-4.15019 -3.82769,-7.004951 -7.831563,-5.840991 -3.211642,0.933648 -5.063141,4.149095 -4.230232,7.346841 l 0.35915,1.37769 -7.05435,7.05745 -7.054865,7.05797 H 63.410145 54.11769 v -2.24999 c 0,-2.21968 0.0096,-2.25408 0.686263,-2.5337 2.585114,-1.0683 3.433376,-1.55242 4.545976,-2.59312 1.486442,-1.3904 2.636808,-3.57763 3.049942,-5.79913 0.57146,-3.07288 -0.547042,-6.735299 -2.720764,-8.909017 -1.278625,-1.278626 -3.218997,-2.480702 -4.631758,-2.869594 l -0.941028,-0.258898 0.06821,-4.416269 0.06821,-4.416266 h 40.280746 40.281263 l 0.0682,4.416266 0.0682,4.416269 -0.94103,0.258898 c -0.51757,0.14247 -1.54281,0.605731 -2.27789,1.029395 -4.87273,2.808367 -6.58212,8.669506 -4.03645,13.840496 1.22256,2.48339 2.87331,3.81904 6.55774,5.30717 l 0.68574,0.27699 v 46.65452 c 0,37.09404 -0.0637,46.67909 -0.31161,46.77337 -0.17147,0.0652 -18.32584,0.0895 -40.343272,0.0543 l -40.031667,-0.0641 -0.06821,-4.27933 -0.06821,-4.27984 2.618444,-0.0853 c 3.836842,-0.12489 3.732011,0.0355 3.831291,-5.8627 0.08054,-4.78495 -0.07298,-5.83396 -0.911572,-6.22804 -0.227507,-0.10691 -1.536031,-0.25528 -2.907832,-0.32969 l -2.493907,-0.1354 -0.07183,-2.15956 z m 10.993125,6.1774 4.178041,0.0687 4.177522,0.0682 0.06408,2.36936 c 0.09879,3.64369 0.452509,3.99098 4.063317,3.99098 h 2.23294 v 4.24005 4.24005 h 1.995226 1.995228 v -4.24005 -4.24005 h 2.244823 2.244825 v 4.24005 4.24005 h 1.995226 1.995228 v -4.24005 -4.24005 h 2.244823 2.244826 v 4.24005 4.24005 h 1.995744 1.99523 v -4.24005 -4.24005 h 2.24482 2.24482 v 4.24005 4.24005 h 1.99523 1.99523 v -4.24005 -4.24005 h 2.23294 c 3.6108,0 3.964,-0.34729 4.0628,-3.99098 l 0.0646,-2.36936 4.17753,-0.0682 4.17804,-0.0687 v -1.98903 -1.98954 h -4.24987 -4.24987 l 0.0718,-2.1823 0.0723,-2.18229 4.17753,-0.0687 4.17804,-0.0682 v -1.98954 -1.98903 h -4.24987 -4.24987 l 0.0718,-2.18229 0.0723,-2.18281 4.17753,-0.0682 4.17804,-0.0682 v -1.98954 -1.98903 h -4.24987 -4.24987 l 0.0718,-2.18281 0.0723,-2.18229 4.17753,-0.0682 4.17804,-0.0687 v -1.98902 -1.98955 h -4.24005 -4.24057 v -2.46651 c 0,-3.49106 -0.12181,-3.61716 -3.5941,-3.72897 l -2.64118,-0.0853 v -8.58242 -8.58191 h 4.55217 4.55218 l 0.5085,1.05472 c 0.67894,1.4087 2.25846,2.57859 3.95893,2.9316 1.65546,0.34367 2.87648,0.15125 4.4788,-0.70538 1.40555,-0.75143 2.30573,-1.82504 2.79724,-3.33623 0.69803,-2.14611 0.007,-4.75108 -1.6831,-6.33966 -2.94749,-2.77124 -7.64257,-2.15312 -9.44438,1.24333 l -0.61547,1.16065 h -5.81877 -5.81876 l -0.72916,0.72916 -0.72864,0.72915 v 9.87123 9.87124 h -2.24482 -2.24482 l 0.008,-11.90987 0.008,-11.90987 1.09916,-0.66663 c 3.75439,-2.27741 4.07237,-7.66146 0.60099,-10.17612 -3.483534,-2.52346 -8.372899,-0.97484 -9.561686,3.02824 -0.480483,1.61792 -0.480353,2.04106 0.0031,3.66903 0.434594,1.46343 1.631164,2.9384 2.966746,3.65766 l 0.885217,0.47697 v 11.91503 11.91556 h -2.244826 -2.244822 v -4.24006 -4.24005 H 90.28374 88.288515 v 4.24005 4.24006 h -2.244826 -2.244823 v -4.24006 -4.24005 h -1.995228 -1.995225 v 4.21732 4.21731 l -2.641701,0.0853 c -3.472293,0.11181 -3.594094,0.23791 -3.594094,3.72897 v 2.46651 H 69.33226 65.092209 v 1.98955 1.98902 l 4.17804,0.0687 4.177523,0.0682 0.07183,2.18229 0.07234,2.18281 h -4.249869 -4.24987 v 1.98903 1.98954 l 4.17804,0.0682 4.177523,0.0682 v 2.12028 2.12029 l -4.177523,0.0682 -4.17804,0.0682 v 1.98334 1.98334 l 4.17804,0.0682 4.177523,0.0687 v 2.11976 2.12029 l -4.177523,0.0682 -4.17804,0.0682 v 1.98335 z m 1.746147,-54.8597 c 0,-0.53688 0.231566,-1.0186 0.729155,-1.51619 0.9658,-0.9658 2.180368,-0.9936 3.102655,-0.0713 1.423937,1.42394 0.500118,3.8318 -1.470197,3.8318 -1.193014,0 -2.361613,-1.11032 -2.361613,-2.2443 z m 10.724928,57.366 v -17.08526 -17.08526 h 16.960204 16.96072 v 17.08526 17.08526 H 94.52349 Z m 4.269507,-12.98938 c 0.0042,4.12878 0.07418,6.33936 0.213939,6.81508 0.498888,1.6981 0.40209,1.68466 12.476758,1.68466 11.93236,0 11.99315,-0.007 12.44213,-1.56167 0.12829,-0.4441 0.24342,-5.44113 0.2558,-11.10423 0.0246,-11.27164 -0.0317,-11.77455 -1.37304,-12.28452 -0.43151,-0.16407 -4.62062,-0.23035 -11.727964,-0.18552 l -11.056691,0.0698 -0.567923,0.5674 -0.567926,0.56793 -0.07751,10.65619 c -0.0132,1.80943 -0.01897,3.39865 -0.01757,4.77491 z m 4.210595,4.50928 v -8.60516 -8.60464 h 8.480102 8.48062 v 8.60464 8.60516 h -8.48062 z m 4.240051,-80.60748 c 0,-1.981697 2.249636,-2.966074 3.628202,-1.587502 1.34956,1.349562 0.366472,3.877282 -1.507918,3.877282 -1.170173,0 -2.120284,-1.02574 -2.120284,-2.28978 z m 6.213575,21.10414 c 0.01241,-1.07513 0.826784,-2.10323 2.267046,-2.10323 0.750771,0 1.181991,0.1619 1.63246,0.61236 1.63955,1.63955 -0.25389,4.50881 -2.391071,3.62355 -1.042884,-0.43198 -1.518081,-1.29647 -1.508435,-2.13268 z m 12.963546,-32.22181 0.0765,4.949569 c 0.0902,5.826401 0.0649,5.766691 2.51716,5.963981 l 1.54978,0.12454 0.0718,2.1518 0.0718,2.15181 -1.54358,0.11162 c -1.29722,0.0938 -1.6366,0.22019 -2.12906,0.79272 -0.56904,0.66153 -0.58602,0.81362 -0.58602,5.26996 0,4.88903 0.13874,5.6152 1.16169,6.08128 0.81908,0.37309 9.33036,0.37232 10.14977,-10e-4 0.33543,-0.15282 0.72926,-0.51779 0.8754,-0.8108 0.16634,-0.33351 0.24571,-2.32608 0.21239,-5.32784 -0.0508,-4.57905 -0.0779,-4.81981 -0.60462,-5.34593 -0.41156,-0.41112 -0.93373,-0.5786 -2.05775,-0.6599 l -1.50637,-0.10852 v -2.21486 -2.21485 h 1.23559 c 1.55972,0 2.39521,-0.37732 2.75435,-1.244367 0.18585,-0.448691 0.2551,-2.265082 0.2036,-5.324221 -0.10494,-6.235152 0.38736,-5.777941 -6.21719,-5.777941 h -5.00331 l -0.61598,0.716751 z m 3.99976,6.922575 0.0718,-2.182294 0.0718,-2.182297 h 2.12028 2.12029 l 0.0718,2.182297 0.0723,2.182294 h -2.26446 z m 0.0191,16.960725 v -2.25464 -2.25465 l 2.18229,0.0724 2.18282,0.0718 0.0718,2.18281 0.0723,2.1823 h -2.25464 z m 8.45788,19.20658 c -0.0577,-0.63188 0.14608,-1.30415 0.68006,-1.83813 0.92228,-0.92229 2.13686,-0.89449 3.10265,0.0713 0.4976,0.49759 0.72916,0.97931 0.72916,1.51619 0,1.13398 -1.1686,2.2443 -2.36161,2.2443 -1.23145,0 -2.05403,-0.94055 -2.15026,-1.99367 z" /></g></svg>
