<?xml version="1.0" encoding="UTF-8" standalone="no"?>
<!-- Created with Inkscape (http://www.inkscape.org/) -->

<svg
   width="155.43358mm"
   height="119.43592mm"
   viewBox="0 0 155.43358 119.43592"
   version="1.1"
   id="svg1"
   xml:space="preserve"
   inkscape:export-filename="Electronics_Icon.svg"
   inkscape:export-xdpi="96"
   inkscape:export-ydpi="96"
   xmlns:inkscape="http://www.inkscape.org/namespaces/inkscape"
   xmlns:sodipodi="http://sodipodi.sourceforge.net/DTD/sodipodi-0.dtd"
   xmlns="http://www.w3.org/2000/svg"
   xmlns:svg="http://www.w3.org/2000/svg"><sodipodi:namedview
     id="namedview1"
     pagecolor="#505050"
     bordercolor="#eeeeee"
     borderopacity="1"
     inkscape:showpageshadow="0"
     inkscape:pageopacity="0"
     inkscape:pagecheckerboard="0"
     inkscape:deskcolor="#505050"
     inkscape:document-units="mm" /><defs
     id="defs1"><filter
       inkscape:collect="always"
       style="color-interpolation-filters:sRGB"
       id="filter7"
       x="-0.041406063"
       y="-0.057091923"
       width="1.0828121"
       height="1.1141838"><feGaussianBlur
         inkscape:collect="always"
         stdDeviation="8.5433947"
         id="feGaussianBlur7" /></filter><filter
       inkscape:collect="always"
       style="color-interpolation-filters:sRGB"
       id="filter8"
       x="-0.093163634"
       y="-0.12845682"
       width="1.1863273"
       height="1.2569136"><feGaussianBlur
         inkscape:collect="always"
         stdDeviation="19.222638"
         id="feGaussianBlur8" /></filter><filter
       inkscape:collect="always"
       style="color-interpolation-filters:sRGB"
       id="filter9"
       x="-0.093163634"
       y="-0.12845682"
       width="1.1863273"
       height="1.2569136"><feGaussianBlur
         inkscape:collect="always"
         stdDeviation="19.222638"
         id="feGaussianBlur9" /></filter></defs><g
     inkscape:label="Electronics_icon"
     inkscape:groupmode="layer"
     id="layer1"
     transform="translate(-13.657301,-86.160231)"><path
       id="path1"
       style="mix-blend-mode:normal;fill:#beb41e;fill-opacity:1;stroke:none;stroke-width:3.56291;stroke-linejoin:round;paint-order:stroke markers fill;filter:url(#filter9)"
       d="m 151.26563,371.7793 -2.81055,2.81055 c -2.72564,2.72562 -2.81055,3.08194 -2.81055,11.78906 v 8.97852 l -21.65625,0.28515 c -21.09554,0.27754 -21.71302,0.34019 -23.80273,2.43164 l -2.146486,2.14844 -0.226563,161.87891 c -0.17976,128.65812 0.01719,162.36046 0.960938,164.21875 0.653092,1.28597 2.241361,2.8726 3.527341,3.52539 1.86051,0.94447 40.31625,1.14047 188.25586,0.96094 l 185.91798,-0.22461 1.96093,-1.96094 c 1.27278,-1.27281 2.24098,-3.95063 2.76172,-7.63476 1.39873,-9.89551 5.92478,-16.28496 14.1836,-20.02344 4.75748,-2.15354 12.45293,-2.53884 18.38281,-0.92188 7.44197,2.0293 16.49609,14.20305 16.49609,22.17969 0,3.46465 1.94482,6.74117 4.66797,7.86914 1.71257,0.70932 10.84907,0.96045 28.13281,0.77149 25.20192,-0.27552 25.62964,-0.31368 27.74219,-2.42774 l 2.14649,-2.14648 V 563.25391 400.22266 l -2.14649,-2.14844 c -2.11255,-2.11405 -2.54027,-2.15026 -27.74219,-2.42578 -17.28374,-0.18896 -26.42024,0.0602 -28.13281,0.76953 -2.72315,1.12796 -4.66797,4.40645 -4.66797,7.8711 0,7.88973 -8.14474,19.13531 -15.73242,21.7207 -5.85537,1.99512 -13.97295,1.88119 -18.67383,-0.26172 -8.65729,-3.94646 -13.25118,-10.28425 -14.65625,-20.22461 -0.52069,-3.68373 -1.48921,-6.36208 -2.76172,-7.63476 -1.94936,-1.94961 -2.38977,-1.96256 -79.70508,-2.21289 l -77.74609,-0.25196 V 387 c 0,-9.35977 -0.98444,-12.51249 -4.39063,-14.06445 -3.08952,-1.40768 -35.26399,-1.40768 -38.35351,0 -3.40736,1.5525 -4.39063,4.70659 -4.39063,14.08203 v 8.43946 h -8.39843 -8.39844 l -0.32031,-9.86719 c -0.45085,-13.83726 0.63716,-13.15869 -21.69922,-13.52344 -19.44139,-0.31747 -22.40761,0.1945 -24.22071,4.17383 -0.58574,1.28554 -1.06445,6.13545 -1.06445,10.77734 v 8.43946 h -8.48438 -8.48437 v -9.32227 c 0,-14.24615 0.86835,-13.70513 -22.55664,-14.06445 z m 9.46289,15.19336 h 8.48437 8.48242 v 16.4961 16.49804 h -7.85546 c -4.32064,0 -8.13873,-0.28325 -8.48438,-0.6289 -0.34565,-0.34565 -0.62695,-7.76841 -0.62695,-16.4961 z m 64.10156,0 h 8.48438 8.48437 v 16.4961 16.49804 h -7.85547 c -4.32064,0 -8.13873,-0.28325 -8.48437,-0.6289 -0.34566,-0.34565 -0.62891,-7.76841 -0.62891,-16.4961 z m 64.10352,0 h 8.48437 8.48438 v 16.4961 16.49804 h -7.85742 c -4.32065,0 -8.13679,-0.28325 -8.48243,-0.6289 -0.34566,-0.34565 -0.6289,-7.76841 -0.6289,-16.4961 z m -79.35938,23.4961 0.32227,9.91015 c 0.47798,14.68697 -0.32589,14.19922 23.41797,14.19922 23.63111,0 22.86336,0.4539 23.5664,-13.92578 l 0.47266,-9.64063 8.16211,-0.27148 8.16015,-0.27148 0.32227,9.91015 c 0.47823,14.69481 -0.34075,14.19922 23.52734,14.19922 h 18.90821 l 2.27539,-2.64453 c 2.0756,-2.41302 2.27539,-3.46771 2.27539,-12.03125 v -9.38672 l 32.28711,0.24805 32.28711,0.24804 0.25586,17.08008 0.25781,17.08203 -2.92187,1.20899 c -10.91081,4.5194 -16.05241,20.33024 -10.26758,31.57422 6.4025,12.44456 23.1695,16.3349 34.62695,8.03515 10.98322,-7.9562 12.3793,-24.19423 2.95899,-34.41406 -2.06086,-2.23577 -5.00838,-4.58768 -6.55079,-5.22656 l -2.80468,-1.16211 V 427.8418 410.49415 l 16.26172,0.25976 16.25976,0.25781 0.47266,37.23438 c 0.33284,26.29399 0.79937,37.7917 1.58984,39.12305 0.61569,1.03695 13.58807,14.32294 28.82617,29.52539 l 27.70508,27.64062 -1.3125,5.15039 c -3.70937,14.56429 7.36442,28.65235 22.52149,28.65235 15.68574,0 26.47539,-14.46686 22.07617,-29.59961 -3.52875,-12.13849 -15.68162,-19.13628 -27.76758,-15.98828 l -5.20703,1.35742 -26.67383,-26.66211 -26.67578,-26.66406 v -35.1211 -35.12109 h 8.50391 c 8.38933,0 8.51935,0.0364 9.57617,2.59375 4.03767,9.77051 5.8674,12.97654 9.80078,17.18164 5.25503,5.61805 13.52173,9.96589 21.91797,11.52734 11.61404,2.15985 25.45624,-2.06756 33.67187,-10.2832 4.8326,-4.8326 9.37588,-12.16629 10.84571,-17.50586 l 0.97851,-3.55664 16.69141,0.25781 16.6914,0.25781 v 152.24219 152.24415 l -16.6914,0.25781 -16.69141,0.25781 -0.97851,-3.55664 c -0.53847,-1.95616 -2.28938,-5.83111 -3.89063,-8.60937 -10.6143,-18.41659 -32.76663,-24.87729 -52.31055,-15.25586 -9.38601,4.62071 -14.43417,10.85977 -20.05859,24.78515 l -1.04688,2.5918 H 289.86719 c -140.19798,0 -176.42493,-0.24085 -176.78125,-1.17774 -0.24648,-0.64808 -0.33822,-69.26302 -0.20508,-152.47851 l 0.24219,-151.30079 16.17383,-0.25781 16.17578,-0.25781 0.32226,9.89648 c 0.47201,14.50145 -0.13408,14.10524 22.15821,14.48047 18.08486,0.30441 22.04963,-0.27583 23.53906,-3.44531 0.40408,-0.85987 0.96482,-5.80547 1.24609,-10.99023 l 0.51172,-9.42579 8.16211,-0.27148 z m -23.34766,41.54882 -0.25976,15.79102 -0.25781,15.78906 -8.95508,0.24219 c -13.7714,0.3734 -15.08399,1.71027 -15.08399,15.35742 v 8.43946 h -16.02539 -16.02539 v 7.54101 7.54102 h 16.02539 16.02539 v 8.48437 8.48438 h -16.02539 -16.02539 v 7.54101 7.54102 h 16.02539 16.02539 v 8.48437 8.48438 h -16.02539 -16.02539 v 7.54297 7.54101 h 16.02539 16.02539 v 8.48438 8.48437 h -16.02539 -16.02539 v 7.54102 7.54101 h 16.02539 16.02539 v 8.43946 c 0,13.64714 1.31259,14.98207 15.08399,15.35547 l 8.95508,0.24414 0.25781,15.78906 0.25976,15.79102 h 7.51758 7.51953 v -16.0625 -16.0625 l 8.24805,0.27148 8.24805,0.27344 0.25976,15.78906 0.25782,15.79102 h 7.51953 7.51758 v -16.0625 -16.0625 l 8.24804,0.27148 8.25,0.27344 0.25782,15.78906 0.25781,15.79102 h 7.51953 7.51758 v -16.0625 -16.0625 l 8.25,0.27148 8.24804,0.27344 0.25782,15.78906 0.25976,15.79102 h 7.51758 7.51953 v -16.02539 -16.02735 h 9.32227 c 13.19456,0 13.67115,-0.46036 14.09375,-13.58398 l 0.32226,-9.98243 h 32.4375 32.43555 v 17.20508 17.20508 l -3.98633,1.92188 c -5.32422,2.56607 -9.74585,8.53593 -11.08007,14.96289 -1.29892,6.25684 -0.57164,10.87174 2.66601,16.92773 2.84006,5.31234 6.89779,8.71457 12.60938,10.57227 8.11129,2.6382 17.95685,0.0246 23.96093,-6.36133 10.47397,-11.14013 8.13777,-28.88531 -4.69921,-35.69531 l -4.38672,-2.32618 v -21.99218 -21.99219 l -2.75586,-2.75586 -2.75586,-2.75391 h -37.3086 -37.30859 v -8.48437 -8.48438 l 45.01367,0.0293 45.01367,0.0293 2.51954,4.15429 c 8.60756,14.18983 28.95672,15.39166 38.46093,2.27149 9.5375,-13.16613 3.68444,-31.64562 -11.44531,-36.13867 -6.11498,-1.816 -7.71425,-1.81551 -13.86719,0.0117 -5.53109,1.64256 -11.10576,6.16503 -13.82422,11.2129 l -1.80273,3.3457 h -45.0332 -45.03516 v -8.48438 -8.48437 h 16.02539 16.02539 v -7.54102 -7.54101 h -16.02539 -16.02539 v -8.48438 -8.48437 h 16.02539 16.02539 v -7.54102 -7.54101 h -15.93945 -15.93946 l -0.32226,-9.98438 c -0.4226,-13.12363 -0.89919,-13.58398 -14.09375,-13.58398 h -9.32227 v -16.0254 -16.02539 h -7.51953 -7.51758 l -0.25976,15.79102 -0.25782,15.78906 -8.24804,0.27149 -8.25,0.27343 v -16.0625 -16.0625 h -7.51758 -7.51953 l -0.25781,15.79102 -0.25782,15.78906 h -8.01367 -8.01367 l -0.25781,-15.78906 -0.25782,-15.79102 h -7.49609 -7.49609 l -0.25782,15.79102 -0.25976,15.78906 h -8.01172 -8.01367 l -0.25781,-15.78906 -0.25782,-15.79102 h -7.49609 z m 207.34376,6.59961 c 2.02913,0 3.84982,0.87521 5.73047,2.75586 3.65025,3.65027 3.75533,8.24076 0.26953,11.72657 -5.38183,5.38181 -14.48242,1.89021 -14.48242,-5.55665 0,-4.50903 4.1965,-8.92578 8.48242,-8.92578 z m -216.81641,40.53516 h 64.57422 64.57422 v 64.10156 64.10352 h -64.57422 -64.57422 v -64.10352 z m 49.09375,16.13672 c -15.60484,0.0159 -23.9598,0.28035 -25.75781,0.80859 -6.41802,1.88556 -6.36719,1.51971 -6.36719,47.15625 0,45.09868 0.0275,45.32844 5.90234,47.02539 1.67852,0.48485 20.56493,0.92 41.96875,0.9668 42.60148,0.0931 44.50226,-0.11993 46.42969,-5.18945 0.62012,-1.63092 0.87063,-17.46377 0.70117,-44.32617 l -0.26367,-41.78907 -2.14453,-2.14648 -2.14648,-2.14649 -40.2754,-0.29296 c -6.83878,-0.0499 -12.84526,-0.0717 -18.04687,-0.0664 z m -17.04297,15.91406 h 32.52344 32.52148 v 32.05078 32.05274 h -32.52148 -32.52344 v -32.05274 z m 304.65821,16.02539 c 7.48987,0 11.21035,8.50256 6,13.71289 -5.1007,5.1007 -14.6543,1.38509 -14.6543,-5.69922 0,-4.4227 3.87683,-8.01367 8.6543,-8.01367 z m -79.76368,23.48438 c 4.06349,0.0469 7.94922,3.12485 7.94922,8.56836 0,2.83756 -0.6119,4.46737 -2.31445,6.16992 -6.19672,6.19672 -17.04115,-0.95956 -13.69531,-9.03711 1.63267,-3.94161 4.90005,-5.73763 8.06054,-5.70117 z m 121.78321,48.99609 -18.70703,0.28906 c -22.02105,0.34086 -21.79537,0.24536 -22.54102,9.51368 l -0.4707,5.85742 -8.13281,0.27148 -8.13282,0.27149 -0.42187,-5.83399 c -0.35464,-4.90291 -0.83222,-6.18558 -2.9961,-8.04687 -2.50029,-2.1507 -3.07511,-2.21485 -19.91796,-2.21485 -18.47822,0 -21.22279,0.52437 -22.98438,4.39063 -1.4101,3.09572 -1.40718,35.26433 0.004,38.36133 0.57762,1.26775 1.95703,2.75624 3.06445,3.30859 1.2605,0.62868 8.79149,0.92868 20.13672,0.80274 17.30665,-0.19212 18.21662,-0.2946 20.20508,-2.28516 1.55387,-1.55553 2.18685,-3.52909 2.49414,-7.77734 l 0.41015,-5.69336 h 8.3711 8.37109 v 4.66992 c 0,5.89502 1.42611,9.05278 4.70313,10.41015 1.69584,0.70243 8.56094,0.96416 20.12304,0.76954 23.56593,-0.39666 21.83789,1.46403 21.83789,-23.49805 v -18.91016 l -2.70898,-2.32812 z m -26.16406,15.11719 8.24804,0.27148 8.24805,0.27149 v 8.01367 8.01367 l -8.24805,0.27149 -8.24804,0.27343 v -8.55859 z m -64.10352,0.0723 h 8.52148 8.52149 l -0.27344,8.24804 -0.27148,8.25 -8.25,0.27149 -8.24805,0.27343 v -8.52148 z m -72.5918,31.96679 c 2.38818,-0.21821 4.92908,0.55213 6.94727,2.57032 3.4858,3.48579 3.38072,8.0763 -0.26953,11.72656 -1.88065,1.88066 -3.70134,2.75586 -5.73047,2.75586 -4.28592,0 -8.48242,-4.41675 -8.48242,-8.92578 0,-4.65429 3.55485,-7.76327 7.53515,-8.12696 z"
       transform="scale(0.26458333)" /><path
       id="path4"
       style="fill:#beb41e;fill-opacity:1;stroke:none;stroke-width:3.56291;stroke-linejoin:round;paint-order:stroke markers fill;filter:url(#filter8)"
       d="m 151.26563,371.7793 -2.81055,2.81055 c -2.72564,2.72562 -2.81055,3.08194 -2.81055,11.78906 v 8.97852 l -21.65625,0.28515 c -21.09554,0.27754 -21.71302,0.34019 -23.80273,2.43164 l -2.146486,2.14844 -0.226563,161.87891 c -0.17976,128.65812 0.01719,162.36046 0.960938,164.21875 0.653092,1.28597 2.241361,2.8726 3.527341,3.52539 1.86051,0.94447 40.31625,1.14047 188.25586,0.96094 l 185.91798,-0.22461 1.96093,-1.96094 c 1.27278,-1.27281 2.24098,-3.95063 2.76172,-7.63476 1.39873,-9.89551 5.92478,-16.28496 14.1836,-20.02344 4.75748,-2.15354 12.45293,-2.53884 18.38281,-0.92188 7.44197,2.0293 16.49609,14.20305 16.49609,22.17969 0,3.46465 1.94482,6.74117 4.66797,7.86914 1.71257,0.70932 10.84907,0.96045 28.13281,0.77149 25.20192,-0.27552 25.62964,-0.31368 27.74219,-2.42774 l 2.14649,-2.14648 V 563.25391 400.22266 l -2.14649,-2.14844 c -2.11255,-2.11405 -2.54027,-2.15026 -27.74219,-2.42578 -17.28374,-0.18896 -26.42024,0.0602 -28.13281,0.76953 -2.72315,1.12796 -4.66797,4.40645 -4.66797,7.8711 0,7.88973 -8.14474,19.13531 -15.73242,21.7207 -5.85537,1.99512 -13.97295,1.88119 -18.67383,-0.26172 -8.65729,-3.94646 -13.25118,-10.28425 -14.65625,-20.22461 -0.52069,-3.68373 -1.48921,-6.36208 -2.76172,-7.63476 -1.94936,-1.94961 -2.38977,-1.96256 -79.70508,-2.21289 l -77.74609,-0.25196 V 387 c 0,-9.35977 -0.98444,-12.51249 -4.39063,-14.06445 -3.08952,-1.40768 -35.26399,-1.40768 -38.35351,0 -3.40736,1.5525 -4.39063,4.70659 -4.39063,14.08203 v 8.43946 h -8.39843 -8.39844 l -0.32031,-9.86719 c -0.45085,-13.83726 0.63716,-13.15869 -21.69922,-13.52344 -19.44139,-0.31747 -22.40761,0.1945 -24.22071,4.17383 -0.58574,1.28554 -1.06445,6.13545 -1.06445,10.77734 v 8.43946 h -8.48438 -8.48437 v -9.32227 c 0,-14.24615 0.86835,-13.70513 -22.55664,-14.06445 z m 9.46289,15.19336 h 8.48437 8.48242 v 16.4961 16.49804 h -7.85546 c -4.32064,0 -8.13873,-0.28325 -8.48438,-0.6289 -0.34565,-0.34565 -0.62695,-7.76841 -0.62695,-16.4961 z m 64.10156,0 h 8.48438 8.48437 v 16.4961 16.49804 h -7.85547 c -4.32064,0 -8.13873,-0.28325 -8.48437,-0.6289 -0.34566,-0.34565 -0.62891,-7.76841 -0.62891,-16.4961 z m 64.10352,0 h 8.48437 8.48438 v 16.4961 16.49804 h -7.85742 c -4.32065,0 -8.13679,-0.28325 -8.48243,-0.6289 -0.34566,-0.34565 -0.6289,-7.76841 -0.6289,-16.4961 z m -79.35938,23.4961 0.32227,9.91015 c 0.47798,14.68697 -0.32589,14.19922 23.41797,14.19922 23.63111,0 22.86336,0.4539 23.5664,-13.92578 l 0.47266,-9.64063 8.16211,-0.27148 8.16015,-0.27148 0.32227,9.91015 c 0.47823,14.69481 -0.34075,14.19922 23.52734,14.19922 h 18.90821 l 2.27539,-2.64453 c 2.0756,-2.41302 2.27539,-3.46771 2.27539,-12.03125 v -9.38672 l 32.28711,0.24805 32.28711,0.24804 0.25586,17.08008 0.25781,17.08203 -2.92187,1.20899 c -10.91081,4.5194 -16.05241,20.33024 -10.26758,31.57422 6.4025,12.44456 23.1695,16.3349 34.62695,8.03515 10.98322,-7.9562 12.3793,-24.19423 2.95899,-34.41406 -2.06086,-2.23577 -5.00838,-4.58768 -6.55079,-5.22656 l -2.80468,-1.16211 V 427.8418 410.49415 l 16.26172,0.25976 16.25976,0.25781 0.47266,37.23438 c 0.33284,26.29399 0.79937,37.7917 1.58984,39.12305 0.61569,1.03695 13.58807,14.32294 28.82617,29.52539 l 27.70508,27.64062 -1.3125,5.15039 c -3.70937,14.56429 7.36442,28.65235 22.52149,28.65235 15.68574,0 26.47539,-14.46686 22.07617,-29.59961 -3.52875,-12.13849 -15.68162,-19.13628 -27.76758,-15.98828 l -5.20703,1.35742 -26.67383,-26.66211 -26.67578,-26.66406 v -35.1211 -35.12109 h 8.50391 c 8.38933,0 8.51935,0.0364 9.57617,2.59375 4.03767,9.77051 5.8674,12.97654 9.80078,17.18164 5.25503,5.61805 13.52173,9.96589 21.91797,11.52734 11.61404,2.15985 25.45624,-2.06756 33.67187,-10.2832 4.8326,-4.8326 9.37588,-12.16629 10.84571,-17.50586 l 0.97851,-3.55664 16.69141,0.25781 16.6914,0.25781 v 152.24219 152.24415 l -16.6914,0.25781 -16.69141,0.25781 -0.97851,-3.55664 c -0.53847,-1.95616 -2.28938,-5.83111 -3.89063,-8.60937 -10.6143,-18.41659 -32.76663,-24.87729 -52.31055,-15.25586 -9.38601,4.62071 -14.43417,10.85977 -20.05859,24.78515 l -1.04688,2.5918 H 289.86719 c -140.19798,0 -176.42493,-0.24085 -176.78125,-1.17774 -0.24648,-0.64808 -0.33822,-69.26302 -0.20508,-152.47851 l 0.24219,-151.30079 16.17383,-0.25781 16.17578,-0.25781 0.32226,9.89648 c 0.47201,14.50145 -0.13408,14.10524 22.15821,14.48047 18.08486,0.30441 22.04963,-0.27583 23.53906,-3.44531 0.40408,-0.85987 0.96482,-5.80547 1.24609,-10.99023 l 0.51172,-9.42579 8.16211,-0.27148 z m -23.34766,41.54882 -0.25976,15.79102 -0.25781,15.78906 -8.95508,0.24219 c -13.7714,0.3734 -15.08399,1.71027 -15.08399,15.35742 v 8.43946 h -16.02539 -16.02539 v 7.54101 7.54102 h 16.02539 16.02539 v 8.48437 8.48438 h -16.02539 -16.02539 v 7.54101 7.54102 h 16.02539 16.02539 v 8.48437 8.48438 h -16.02539 -16.02539 v 7.54297 7.54101 h 16.02539 16.02539 v 8.48438 8.48437 h -16.02539 -16.02539 v 7.54102 7.54101 h 16.02539 16.02539 v 8.43946 c 0,13.64714 1.31259,14.98207 15.08399,15.35547 l 8.95508,0.24414 0.25781,15.78906 0.25976,15.79102 h 7.51758 7.51953 v -16.0625 -16.0625 l 8.24805,0.27148 8.24805,0.27344 0.25976,15.78906 0.25782,15.79102 h 7.51953 7.51758 v -16.0625 -16.0625 l 8.24804,0.27148 8.25,0.27344 0.25782,15.78906 0.25781,15.79102 h 7.51953 7.51758 v -16.0625 -16.0625 l 8.25,0.27148 8.24804,0.27344 0.25782,15.78906 0.25976,15.79102 h 7.51758 7.51953 v -16.02539 -16.02735 h 9.32227 c 13.19456,0 13.67115,-0.46036 14.09375,-13.58398 l 0.32226,-9.98243 h 32.4375 32.43555 v 17.20508 17.20508 l -3.98633,1.92188 c -5.32422,2.56607 -9.74585,8.53593 -11.08007,14.96289 -1.29892,6.25684 -0.57164,10.87174 2.66601,16.92773 2.84006,5.31234 6.89779,8.71457 12.60938,10.57227 8.11129,2.6382 17.95685,0.0246 23.96093,-6.36133 10.47397,-11.14013 8.13777,-28.88531 -4.69921,-35.69531 l -4.38672,-2.32618 v -21.99218 -21.99219 l -2.75586,-2.75586 -2.75586,-2.75391 h -37.3086 -37.30859 v -8.48437 -8.48438 l 45.01367,0.0293 45.01367,0.0293 2.51954,4.15429 c 8.60756,14.18983 28.95672,15.39166 38.46093,2.27149 9.5375,-13.16613 3.68444,-31.64562 -11.44531,-36.13867 -6.11498,-1.816 -7.71425,-1.81551 -13.86719,0.0117 -5.53109,1.64256 -11.10576,6.16503 -13.82422,11.2129 l -1.80273,3.3457 h -45.0332 -45.03516 v -8.48438 -8.48437 h 16.02539 16.02539 v -7.54102 -7.54101 h -16.02539 -16.02539 v -8.48438 -8.48437 h 16.02539 16.02539 v -7.54102 -7.54101 h -15.93945 -15.93946 l -0.32226,-9.98438 c -0.4226,-13.12363 -0.89919,-13.58398 -14.09375,-13.58398 h -9.32227 v -16.0254 -16.02539 h -7.51953 -7.51758 l -0.25976,15.79102 -0.25782,15.78906 -8.24804,0.27149 -8.25,0.27343 v -16.0625 -16.0625 h -7.51758 -7.51953 l -0.25781,15.79102 -0.25782,15.78906 h -8.01367 -8.01367 l -0.25781,-15.78906 -0.25782,-15.79102 h -7.49609 -7.49609 l -0.25782,15.79102 -0.25976,15.78906 h -8.01172 -8.01367 l -0.25781,-15.78906 -0.25782,-15.79102 h -7.49609 z m 207.34376,6.59961 c 2.02913,0 3.84982,0.87521 5.73047,2.75586 3.65025,3.65027 3.75533,8.24076 0.26953,11.72657 -5.38183,5.38181 -14.48242,1.89021 -14.48242,-5.55665 0,-4.50903 4.1965,-8.92578 8.48242,-8.92578 z m -216.81641,40.53516 h 64.57422 64.57422 v 64.10156 64.10352 h -64.57422 -64.57422 v -64.10352 z m 49.09375,16.13672 c -15.60484,0.0159 -23.9598,0.28035 -25.75781,0.80859 -6.41802,1.88556 -6.36719,1.51971 -6.36719,47.15625 0,45.09868 0.0275,45.32844 5.90234,47.02539 1.67852,0.48485 20.56493,0.92 41.96875,0.9668 42.60148,0.0931 44.50226,-0.11993 46.42969,-5.18945 0.62012,-1.63092 0.87063,-17.46377 0.70117,-44.32617 l -0.26367,-41.78907 -2.14453,-2.14648 -2.14648,-2.14649 -40.2754,-0.29296 c -6.83878,-0.0499 -12.84526,-0.0717 -18.04687,-0.0664 z m -17.04297,15.91406 h 32.52344 32.52148 v 32.05078 32.05274 h -32.52148 -32.52344 v -32.05274 z m 304.65821,16.02539 c 7.48987,0 11.21035,8.50256 6,13.71289 -5.1007,5.1007 -14.6543,1.38509 -14.6543,-5.69922 0,-4.4227 3.87683,-8.01367 8.6543,-8.01367 z m -79.76368,23.48438 c 4.06349,0.0469 7.94922,3.12485 7.94922,8.56836 0,2.83756 -0.6119,4.46737 -2.31445,6.16992 -6.19672,6.19672 -17.04115,-0.95956 -13.69531,-9.03711 1.63267,-3.94161 4.90005,-5.73763 8.06054,-5.70117 z m 121.78321,48.99609 -18.70703,0.28906 c -22.02105,0.34086 -21.79537,0.24536 -22.54102,9.51368 l -0.4707,5.85742 -8.13281,0.27148 -8.13282,0.27149 -0.42187,-5.83399 c -0.35464,-4.90291 -0.83222,-6.18558 -2.9961,-8.04687 -2.50029,-2.1507 -3.07511,-2.21485 -19.91796,-2.21485 -18.47822,0 -21.22279,0.52437 -22.98438,4.39063 -1.4101,3.09572 -1.40718,35.26433 0.004,38.36133 0.57762,1.26775 1.95703,2.75624 3.06445,3.30859 1.2605,0.62868 8.79149,0.92868 20.13672,0.80274 17.30665,-0.19212 18.21662,-0.2946 20.20508,-2.28516 1.55387,-1.55553 2.18685,-3.52909 2.49414,-7.77734 l 0.41015,-5.69336 h 8.3711 8.37109 v 4.66992 c 0,5.89502 1.42611,9.05278 4.70313,10.41015 1.69584,0.70243 8.56094,0.96416 20.12304,0.76954 23.56593,-0.39666 21.83789,1.46403 21.83789,-23.49805 v -18.91016 l -2.70898,-2.32812 z m -26.16406,15.11719 8.24804,0.27148 8.24805,0.27149 v 8.01367 8.01367 l -8.24805,0.27149 -8.24804,0.27343 v -8.55859 z m -64.10352,0.0723 h 8.52148 8.52149 l -0.27344,8.24804 -0.27148,8.25 -8.25,0.27149 -8.24805,0.27343 v -8.52148 z m -72.5918,31.96679 c 2.38818,-0.21821 4.92908,0.55213 6.94727,2.57032 3.4858,3.48579 3.38072,8.0763 -0.26953,11.72656 -1.88065,1.88066 -3.70134,2.75586 -5.73047,2.75586 -4.28592,0 -8.48242,-4.41675 -8.48242,-8.92578 0,-4.65429 3.55485,-7.76327 7.53515,-8.12696 z"
       transform="scale(0.26458333)" /><path
       id="path5"
       style="fill:#beb41e;fill-opacity:1;stroke:none;stroke-width:3.56291;stroke-linejoin:round;paint-order:stroke markers fill;filter:url(#filter7)"
       d="m 151.26563,371.7793 -2.81055,2.81055 c -2.72564,2.72562 -2.81055,3.08194 -2.81055,11.78906 v 8.97852 l -21.65625,0.28515 c -21.09554,0.27754 -21.71302,0.34019 -23.80273,2.43164 l -2.146486,2.14844 -0.226563,161.87891 c -0.17976,128.65812 0.01719,162.36046 0.960938,164.21875 0.653092,1.28597 2.241361,2.8726 3.527341,3.52539 1.86051,0.94447 40.31625,1.14047 188.25586,0.96094 l 185.91798,-0.22461 1.96093,-1.96094 c 1.27278,-1.27281 2.24098,-3.95063 2.76172,-7.63476 1.39873,-9.89551 5.92478,-16.28496 14.1836,-20.02344 4.75748,-2.15354 12.45293,-2.53884 18.38281,-0.92188 7.44197,2.0293 16.49609,14.20305 16.49609,22.17969 0,3.46465 1.94482,6.74117 4.66797,7.86914 1.71257,0.70932 10.84907,0.96045 28.13281,0.77149 25.20192,-0.27552 25.62964,-0.31368 27.74219,-2.42774 l 2.14649,-2.14648 V 563.25391 400.22266 l -2.14649,-2.14844 c -2.11255,-2.11405 -2.54027,-2.15026 -27.74219,-2.42578 -17.28374,-0.18896 -26.42024,0.0602 -28.13281,0.76953 -2.72315,1.12796 -4.66797,4.40645 -4.66797,7.8711 0,7.88973 -8.14474,19.13531 -15.73242,21.7207 -5.85537,1.99512 -13.97295,1.88119 -18.67383,-0.26172 -8.65729,-3.94646 -13.25118,-10.28425 -14.65625,-20.22461 -0.52069,-3.68373 -1.48921,-6.36208 -2.76172,-7.63476 -1.94936,-1.94961 -2.38977,-1.96256 -79.70508,-2.21289 l -77.74609,-0.25196 V 387 c 0,-9.35977 -0.98444,-12.51249 -4.39063,-14.06445 -3.08952,-1.40768 -35.26399,-1.40768 -38.35351,0 -3.40736,1.5525 -4.39063,4.70659 -4.39063,14.08203 v 8.43946 h -8.39843 -8.39844 l -0.32031,-9.86719 c -0.45085,-13.83726 0.63716,-13.15869 -21.69922,-13.52344 -19.44139,-0.31747 -22.40761,0.1945 -24.22071,4.17383 -0.58574,1.28554 -1.06445,6.13545 -1.06445,10.77734 v 8.43946 h -8.48438 -8.48437 v -9.32227 c 0,-14.24615 0.86835,-13.70513 -22.55664,-14.06445 z m 9.46289,15.19336 h 8.48437 8.48242 v 16.4961 16.49804 h -7.85546 c -4.32064,0 -8.13873,-0.28325 -8.48438,-0.6289 -0.34565,-0.34565 -0.62695,-7.76841 -0.62695,-16.4961 z m 64.10156,0 h 8.48438 8.48437 v 16.4961 16.49804 h -7.85547 c -4.32064,0 -8.13873,-0.28325 -8.48437,-0.6289 -0.34566,-0.34565 -0.62891,-7.76841 -0.62891,-16.4961 z m 64.10352,0 h 8.48437 8.48438 v 16.4961 16.49804 h -7.85742 c -4.32065,0 -8.13679,-0.28325 -8.48243,-0.6289 -0.34566,-0.34565 -0.6289,-7.76841 -0.6289,-16.4961 z m -79.35938,23.4961 0.32227,9.91015 c 0.47798,14.68697 -0.32589,14.19922 23.41797,14.19922 23.63111,0 22.86336,0.4539 23.5664,-13.92578 l 0.47266,-9.64063 8.16211,-0.27148 8.16015,-0.27148 0.32227,9.91015 c 0.47823,14.69481 -0.34075,14.19922 23.52734,14.19922 h 18.90821 l 2.27539,-2.64453 c 2.0756,-2.41302 2.27539,-3.46771 2.27539,-12.03125 v -9.38672 l 32.28711,0.24805 32.28711,0.24804 0.25586,17.08008 0.25781,17.08203 -2.92187,1.20899 c -10.91081,4.5194 -16.05241,20.33024 -10.26758,31.57422 6.4025,12.44456 23.1695,16.3349 34.62695,8.03515 10.98322,-7.9562 12.3793,-24.19423 2.95899,-34.41406 -2.06086,-2.23577 -5.00838,-4.58768 -6.55079,-5.22656 l -2.80468,-1.16211 V 427.8418 410.49415 l 16.26172,0.25976 16.25976,0.25781 0.47266,37.23438 c 0.33284,26.29399 0.79937,37.7917 1.58984,39.12305 0.61569,1.03695 13.58807,14.32294 28.82617,29.52539 l 27.70508,27.64062 -1.3125,5.15039 c -3.70937,14.56429 7.36442,28.65235 22.52149,28.65235 15.68574,0 26.47539,-14.46686 22.07617,-29.59961 -3.52875,-12.13849 -15.68162,-19.13628 -27.76758,-15.98828 l -5.20703,1.35742 -26.67383,-26.66211 -26.67578,-26.66406 v -35.1211 -35.12109 h 8.50391 c 8.38933,0 8.51935,0.0364 9.57617,2.59375 4.03767,9.77051 5.8674,12.97654 9.80078,17.18164 5.25503,5.61805 13.52173,9.96589 21.91797,11.52734 11.61404,2.15985 25.45624,-2.06756 33.67187,-10.2832 4.8326,-4.8326 9.37588,-12.16629 10.84571,-17.50586 l 0.97851,-3.55664 16.69141,0.25781 16.6914,0.25781 v 152.24219 152.24415 l -16.6914,0.25781 -16.69141,0.25781 -0.97851,-3.55664 c -0.53847,-1.95616 -2.28938,-5.83111 -3.89063,-8.60937 -10.6143,-18.41659 -32.76663,-24.87729 -52.31055,-15.25586 -9.38601,4.62071 -14.43417,10.85977 -20.05859,24.78515 l -1.04688,2.5918 H 289.86719 c -140.19798,0 -176.42493,-0.24085 -176.78125,-1.17774 -0.24648,-0.64808 -0.33822,-69.26302 -0.20508,-152.47851 l 0.24219,-151.30079 16.17383,-0.25781 16.17578,-0.25781 0.32226,9.89648 c 0.47201,14.50145 -0.13408,14.10524 22.15821,14.48047 18.08486,0.30441 22.04963,-0.27583 23.53906,-3.44531 0.40408,-0.85987 0.96482,-5.80547 1.24609,-10.99023 l 0.51172,-9.42579 8.16211,-0.27148 z m -23.34766,41.54882 -0.25976,15.79102 -0.25781,15.78906 -8.95508,0.24219 c -13.7714,0.3734 -15.08399,1.71027 -15.08399,15.35742 v 8.43946 h -16.02539 -16.02539 v 7.54101 7.54102 h 16.02539 16.02539 v 8.48437 8.48438 h -16.02539 -16.02539 v 7.54101 7.54102 h 16.02539 16.02539 v 8.48437 8.48438 h -16.02539 -16.02539 v 7.54297 7.54101 h 16.02539 16.02539 v 8.48438 8.48437 h -16.02539 -16.02539 v 7.54102 7.54101 h 16.02539 16.02539 v 8.43946 c 0,13.64714 1.31259,14.98207 15.08399,15.35547 l 8.95508,0.24414 0.25781,15.78906 0.25976,15.79102 h 7.51758 7.51953 v -16.0625 -16.0625 l 8.24805,0.27148 8.24805,0.27344 0.25976,15.78906 0.25782,15.79102 h 7.51953 7.51758 v -16.0625 -16.0625 l 8.24804,0.27148 8.25,0.27344 0.25782,15.78906 0.25781,15.79102 h 7.51953 7.51758 v -16.0625 -16.0625 l 8.25,0.27148 8.24804,0.27344 0.25782,15.78906 0.25976,15.79102 h 7.51758 7.51953 v -16.02539 -16.02735 h 9.32227 c 13.19456,0 13.67115,-0.46036 14.09375,-13.58398 l 0.32226,-9.98243 h 32.4375 32.43555 v 17.20508 17.20508 l -3.98633,1.92188 c -5.32422,2.56607 -9.74585,8.53593 -11.08007,14.96289 -1.29892,6.25684 -0.57164,10.87174 2.66601,16.92773 2.84006,5.31234 6.89779,8.71457 12.60938,10.57227 8.11129,2.6382 17.95685,0.0246 23.96093,-6.36133 10.47397,-11.14013 8.13777,-28.88531 -4.69921,-35.69531 l -4.38672,-2.32618 v -21.99218 -21.99219 l -2.75586,-2.75586 -2.75586,-2.75391 h -37.3086 -37.30859 v -8.48437 -8.48438 l 45.01367,0.0293 45.01367,0.0293 2.51954,4.15429 c 8.60756,14.18983 28.95672,15.39166 38.46093,2.27149 9.5375,-13.16613 3.68444,-31.64562 -11.44531,-36.13867 -6.11498,-1.816 -7.71425,-1.81551 -13.86719,0.0117 -5.53109,1.64256 -11.10576,6.16503 -13.82422,11.2129 l -1.80273,3.3457 h -45.0332 -45.03516 v -8.48438 -8.48437 h 16.02539 16.02539 v -7.54102 -7.54101 h -16.02539 -16.02539 v -8.48438 -8.48437 h 16.02539 16.02539 v -7.54102 -7.54101 h -15.93945 -15.93946 l -0.32226,-9.98438 c -0.4226,-13.12363 -0.89919,-13.58398 -14.09375,-13.58398 h -9.32227 v -16.0254 -16.02539 h -7.51953 -7.51758 l -0.25976,15.79102 -0.25782,15.78906 -8.24804,0.27149 -8.25,0.27343 v -16.0625 -16.0625 h -7.51758 -7.51953 l -0.25781,15.79102 -0.25782,15.78906 h -8.01367 -8.01367 l -0.25781,-15.78906 -0.25782,-15.79102 h -7.49609 -7.49609 l -0.25782,15.79102 -0.25976,15.78906 h -8.01172 -8.01367 l -0.25781,-15.78906 -0.25782,-15.79102 h -7.49609 z m 207.34376,6.59961 c 2.02913,0 3.84982,0.87521 5.73047,2.75586 3.65025,3.65027 3.75533,8.24076 0.26953,11.72657 -5.38183,5.38181 -14.48242,1.89021 -14.48242,-5.55665 0,-4.50903 4.1965,-8.92578 8.48242,-8.92578 z m -216.81641,40.53516 h 64.57422 64.57422 v 64.10156 64.10352 h -64.57422 -64.57422 v -64.10352 z m 49.09375,16.13672 c -15.60484,0.0159 -23.9598,0.28035 -25.75781,0.80859 -6.41802,1.88556 -6.36719,1.51971 -6.36719,47.15625 0,45.09868 0.0275,45.32844 5.90234,47.02539 1.67852,0.48485 20.56493,0.92 41.96875,0.9668 42.60148,0.0931 44.50226,-0.11993 46.42969,-5.18945 0.62012,-1.63092 0.87063,-17.46377 0.70117,-44.32617 l -0.26367,-41.78907 -2.14453,-2.14648 -2.14648,-2.14649 -40.2754,-0.29296 c -6.83878,-0.0499 -12.84526,-0.0717 -18.04687,-0.0664 z m -17.04297,15.91406 h 32.52344 32.52148 v 32.05078 32.05274 h -32.52148 -32.52344 v -32.05274 z m 304.65821,16.02539 c 7.48987,0 11.21035,8.50256 6,13.71289 -5.1007,5.1007 -14.6543,1.38509 -14.6543,-5.69922 0,-4.4227 3.87683,-8.01367 8.6543,-8.01367 z m -79.76368,23.48438 c 4.06349,0.0469 7.94922,3.12485 7.94922,8.56836 0,2.83756 -0.6119,4.46737 -2.31445,6.16992 -6.19672,6.19672 -17.04115,-0.95956 -13.69531,-9.03711 1.63267,-3.94161 4.90005,-5.73763 8.06054,-5.70117 z m 121.78321,48.99609 -18.70703,0.28906 c -22.02105,0.34086 -21.79537,0.24536 -22.54102,9.51368 l -0.4707,5.85742 -8.13281,0.27148 -8.13282,0.27149 -0.42187,-5.83399 c -0.35464,-4.90291 -0.83222,-6.18558 -2.9961,-8.04687 -2.50029,-2.1507 -3.07511,-2.21485 -19.91796,-2.21485 -18.47822,0 -21.22279,0.52437 -22.98438,4.39063 -1.4101,3.09572 -1.40718,35.26433 0.004,38.36133 0.57762,1.26775 1.95703,2.75624 3.06445,3.30859 1.2605,0.62868 8.79149,0.92868 20.13672,0.80274 17.30665,-0.19212 18.21662,-0.2946 20.20508,-2.28516 1.55387,-1.55553 2.18685,-3.52909 2.49414,-7.77734 l 0.41015,-5.69336 h 8.3711 8.37109 v 4.66992 c 0,5.89502 1.42611,9.05278 4.70313,10.41015 1.69584,0.70243 8.56094,0.96416 20.12304,0.76954 23.56593,-0.39666 21.83789,1.46403 21.83789,-23.49805 v -18.91016 l -2.70898,-2.32812 z m -26.16406,15.11719 8.24804,0.27148 8.24805,0.27149 v 8.01367 8.01367 l -8.24805,0.27149 -8.24804,0.27343 v -8.55859 z m -64.10352,0.0723 h 8.52148 8.52149 l -0.27344,8.24804 -0.27148,8.25 -8.25,0.27149 -8.24805,0.27343 v -8.52148 z m -72.5918,31.96679 c 2.38818,-0.21821 4.92908,0.55213 6.94727,2.57032 3.4858,3.48579 3.38072,8.0763 -0.26953,11.72656 -1.88065,1.88066 -3.70134,2.75586 -5.73047,2.75586 -4.28592,0 -8.48242,-4.41675 -8.48242,-8.92578 0,-4.65429 3.55485,-7.76327 7.53515,-8.12696 z"
       transform="scale(0.26458333)" /><path
       id="path7"
       style="fill:#beb41e;fill-opacity:1;stroke:none;stroke-width:3.56291;stroke-linejoin:round;paint-order:stroke markers fill"
       d="m 151.26563,371.7793 -2.81055,2.81055 c -2.72564,2.72562 -2.81055,3.08194 -2.81055,11.78906 v 8.97852 l -21.65625,0.28515 c -21.09554,0.27754 -21.71302,0.34019 -23.80273,2.43164 l -2.146486,2.14844 -0.226563,161.87891 c -0.17976,128.65812 0.01719,162.36046 0.960938,164.21875 0.653092,1.28597 2.241361,2.8726 3.527341,3.52539 1.86051,0.94447 40.31625,1.14047 188.25586,0.96094 l 185.91798,-0.22461 1.96093,-1.96094 c 1.27278,-1.27281 2.24098,-3.95063 2.76172,-7.63476 1.39873,-9.89551 5.92478,-16.28496 14.1836,-20.02344 4.75748,-2.15354 12.45293,-2.53884 18.38281,-0.92188 7.44197,2.0293 16.49609,14.20305 16.49609,22.17969 0,3.46465 1.94482,6.74117 4.66797,7.86914 1.71257,0.70932 10.84907,0.96045 28.13281,0.77149 25.20192,-0.27552 25.62964,-0.31368 27.74219,-2.42774 l 2.14649,-2.14648 V 563.25391 400.22266 l -2.14649,-2.14844 c -2.11255,-2.11405 -2.54027,-2.15026 -27.74219,-2.42578 -17.28374,-0.18896 -26.42024,0.0602 -28.13281,0.76953 -2.72315,1.12796 -4.66797,4.40645 -4.66797,7.8711 0,7.88973 -8.14474,19.13531 -15.73242,21.7207 -5.85537,1.99512 -13.97295,1.88119 -18.67383,-0.26172 -8.65729,-3.94646 -13.25118,-10.28425 -14.65625,-20.22461 -0.52069,-3.68373 -1.48921,-6.36208 -2.76172,-7.63476 -1.94936,-1.94961 -2.38977,-1.96256 -79.70508,-2.21289 l -77.74609,-0.25196 V 387 c 0,-9.35977 -0.98444,-12.51249 -4.39063,-14.06445 -3.08952,-1.40768 -35.26399,-1.40768 -38.35351,0 -3.40736,1.5525 -4.39063,4.70659 -4.39063,14.08203 v 8.43946 h -8.39843 -8.39844 l -0.32031,-9.86719 c -0.45085,-13.83726 0.63716,-13.15869 -21.69922,-13.52344 -19.44139,-0.31747 -22.40761,0.1945 -24.22071,4.17383 -0.58574,1.28554 -1.06445,6.13545 -1.06445,10.77734 v 8.43946 h -8.48438 -8.48437 v -9.32227 c 0,-14.24615 0.86835,-13.70513 -22.55664,-14.06445 z m 9.46289,15.19336 h 8.48437 8.48242 v 16.4961 16.49804 h -7.85546 c -4.32064,0 -8.13873,-0.28325 -8.48438,-0.6289 -0.34565,-0.34565 -0.62695,-7.76841 -0.62695,-16.4961 z m 64.10156,0 h 8.48438 8.48437 v 16.4961 16.49804 h -7.85547 c -4.32064,0 -8.13873,-0.28325 -8.48437,-0.6289 -0.34566,-0.34565 -0.62891,-7.76841 -0.62891,-16.4961 z m 64.10352,0 h 8.48437 8.48438 v 16.4961 16.49804 h -7.85742 c -4.32065,0 -8.13679,-0.28325 -8.48243,-0.6289 -0.34566,-0.34565 -0.6289,-7.76841 -0.6289,-16.4961 z m -79.35938,23.4961 0.32227,9.91015 c 0.47798,14.68697 -0.32589,14.19922 23.41797,14.19922 23.63111,0 22.86336,0.4539 23.5664,-13.92578 l 0.47266,-9.64063 8.16211,-0.27148 8.16015,-0.27148 0.32227,9.91015 c 0.47823,14.69481 -0.34075,14.19922 23.52734,14.19922 h 18.90821 l 2.27539,-2.64453 c 2.0756,-2.41302 2.27539,-3.46771 2.27539,-12.03125 v -9.38672 l 32.28711,0.24805 32.28711,0.24804 0.25586,17.08008 0.25781,17.08203 -2.92187,1.20899 c -10.91081,4.5194 -16.05241,20.33024 -10.26758,31.57422 6.4025,12.44456 23.1695,16.3349 34.62695,8.03515 10.98322,-7.9562 12.3793,-24.19423 2.95899,-34.41406 -2.06086,-2.23577 -5.00838,-4.58768 -6.55079,-5.22656 l -2.80468,-1.16211 V 427.8418 410.49415 l 16.26172,0.25976 16.25976,0.25781 0.47266,37.23438 c 0.33284,26.29399 0.79937,37.7917 1.58984,39.12305 0.61569,1.03695 13.58807,14.32294 28.82617,29.52539 l 27.70508,27.64062 -1.3125,5.15039 c -3.70937,14.56429 7.36442,28.65235 22.52149,28.65235 15.68574,0 26.47539,-14.46686 22.07617,-29.59961 -3.52875,-12.13849 -15.68162,-19.13628 -27.76758,-15.98828 l -5.20703,1.35742 -26.67383,-26.66211 -26.67578,-26.66406 v -35.1211 -35.12109 h 8.50391 c 8.38933,0 8.51935,0.0364 9.57617,2.59375 4.03767,9.77051 5.8674,12.97654 9.80078,17.18164 5.25503,5.61805 13.52173,9.96589 21.91797,11.52734 11.61404,2.15985 25.45624,-2.06756 33.67187,-10.2832 4.8326,-4.8326 9.37588,-12.16629 10.84571,-17.50586 l 0.97851,-3.55664 16.69141,0.25781 16.6914,0.25781 v 152.24219 152.24415 l -16.6914,0.25781 -16.69141,0.25781 -0.97851,-3.55664 c -0.53847,-1.95616 -2.28938,-5.83111 -3.89063,-8.60937 -10.6143,-18.41659 -32.76663,-24.87729 -52.31055,-15.25586 -9.38601,4.62071 -14.43417,10.85977 -20.05859,24.78515 l -1.04688,2.5918 H 289.86719 c -140.19798,0 -176.42493,-0.24085 -176.78125,-1.17774 -0.24648,-0.64808 -0.33822,-69.26302 -0.20508,-152.47851 l 0.24219,-151.30079 16.17383,-0.25781 16.17578,-0.25781 0.32226,9.89648 c 0.47201,14.50145 -0.13408,14.10524 22.15821,14.48047 18.08486,0.30441 22.04963,-0.27583 23.53906,-3.44531 0.40408,-0.85987 0.96482,-5.80547 1.24609,-10.99023 l 0.51172,-9.42579 8.16211,-0.27148 z m -23.34766,41.54882 -0.25976,15.79102 -0.25781,15.78906 -8.95508,0.24219 c -13.7714,0.3734 -15.08399,1.71027 -15.08399,15.35742 v 8.43946 h -16.02539 -16.02539 v 7.54101 7.54102 h 16.02539 16.02539 v 8.48437 8.48438 h -16.02539 -16.02539 v 7.54101 7.54102 h 16.02539 16.02539 v 8.48437 8.48438 h -16.02539 -16.02539 v 7.54297 7.54101 h 16.02539 16.02539 v 8.48438 8.48437 h -16.02539 -16.02539 v 7.54102 7.54101 h 16.02539 16.02539 v 8.43946 c 0,13.64714 1.31259,14.98207 15.08399,15.35547 l 8.95508,0.24414 0.25781,15.78906 0.25976,15.79102 h 7.51758 7.51953 v -16.0625 -16.0625 l 8.24805,0.27148 8.24805,0.27344 0.25976,15.78906 0.25782,15.79102 h 7.51953 7.51758 v -16.0625 -16.0625 l 8.24804,0.27148 8.25,0.27344 0.25782,15.78906 0.25781,15.79102 h 7.51953 7.51758 v -16.0625 -16.0625 l 8.25,0.27148 8.24804,0.27344 0.25782,15.78906 0.25976,15.79102 h 7.51758 7.51953 v -16.02539 -16.02735 h 9.32227 c 13.19456,0 13.67115,-0.46036 14.09375,-13.58398 l 0.32226,-9.98243 h 32.4375 32.43555 v 17.20508 17.20508 l -3.98633,1.92188 c -5.32422,2.56607 -9.74585,8.53593 -11.08007,14.96289 -1.29892,6.25684 -0.57164,10.87174 2.66601,16.92773 2.84006,5.31234 6.89779,8.71457 12.60938,10.57227 8.11129,2.6382 17.95685,0.0246 23.96093,-6.36133 10.47397,-11.14013 8.13777,-28.88531 -4.69921,-35.69531 l -4.38672,-2.32618 v -21.99218 -21.99219 l -2.75586,-2.75586 -2.75586,-2.75391 h -37.3086 -37.30859 v -8.48437 -8.48438 l 45.01367,0.0293 45.01367,0.0293 2.51954,4.15429 c 8.60756,14.18983 28.95672,15.39166 38.46093,2.27149 9.5375,-13.16613 3.68444,-31.64562 -11.44531,-36.13867 -6.11498,-1.816 -7.71425,-1.81551 -13.86719,0.0117 -5.53109,1.64256 -11.10576,6.16503 -13.82422,11.2129 l -1.80273,3.3457 h -45.0332 -45.03516 v -8.48438 -8.48437 h 16.02539 16.02539 v -7.54102 -7.54101 h -16.02539 -16.02539 v -8.48438 -8.48437 h 16.02539 16.02539 v -7.54102 -7.54101 h -15.93945 -15.93946 l -0.32226,-9.98438 c -0.4226,-13.12363 -0.89919,-13.58398 -14.09375,-13.58398 h -9.32227 v -16.0254 -16.02539 h -7.51953 -7.51758 l -0.25976,15.79102 -0.25782,15.78906 -8.24804,0.27149 -8.25,0.27343 v -16.0625 -16.0625 h -7.51758 -7.51953 l -0.25781,15.79102 -0.25782,15.78906 h -8.01367 -8.01367 l -0.25781,-15.78906 -0.25782,-15.79102 h -7.49609 -7.49609 l -0.25782,15.79102 -0.25976,15.78906 h -8.01172 -8.01367 l -0.25781,-15.78906 -0.25782,-15.79102 h -7.49609 z m 207.34376,6.59961 c 2.02913,0 3.84982,0.87521 5.73047,2.75586 3.65025,3.65027 3.75533,8.24076 0.26953,11.72657 -5.38183,5.38181 -14.48242,1.89021 -14.48242,-5.55665 0,-4.50903 4.1965,-8.92578 8.48242,-8.92578 z m -216.81641,40.53516 h 64.57422 64.57422 v 64.10156 64.10352 h -64.57422 -64.57422 v -64.10352 z m 49.09375,16.13672 c -15.60484,0.0159 -23.9598,0.28035 -25.75781,0.80859 -6.41802,1.88556 -6.36719,1.51971 -6.36719,47.15625 0,45.09868 0.0275,45.32844 5.90234,47.02539 1.67852,0.48485 20.56493,0.92 41.96875,0.9668 42.60148,0.0931 44.50226,-0.11993 46.42969,-5.18945 0.62012,-1.63092 0.87063,-17.46377 0.70117,-44.32617 l -0.26367,-41.78907 -2.14453,-2.14648 -2.14648,-2.14649 -40.2754,-0.29296 c -6.83878,-0.0499 -12.84526,-0.0717 -18.04687,-0.0664 z m -17.04297,15.91406 h 32.52344 32.52148 v 32.05078 32.05274 h -32.52148 -32.52344 v -32.05274 z m 304.65821,16.02539 c 7.48987,0 11.21035,8.50256 6,13.71289 -5.1007,5.1007 -14.6543,1.38509 -14.6543,-5.69922 0,-4.4227 3.87683,-8.01367 8.6543,-8.01367 z m -79.76368,23.48438 c 4.06349,0.0469 7.94922,3.12485 7.94922,8.56836 0,2.83756 -0.6119,4.46737 -2.31445,6.16992 -6.19672,6.19672 -17.04115,-0.95956 -13.69531,-9.03711 1.63267,-3.94161 4.90005,-5.73763 8.06054,-5.70117 z m 121.78321,48.99609 -18.70703,0.28906 c -22.02105,0.34086 -21.79537,0.24536 -22.54102,9.51368 l -0.4707,5.85742 -8.13281,0.27148 -8.13282,0.27149 -0.42187,-5.83399 c -0.35464,-4.90291 -0.83222,-6.18558 -2.9961,-8.04687 -2.50029,-2.1507 -3.07511,-2.21485 -19.91796,-2.21485 -18.47822,0 -21.22279,0.52437 -22.98438,4.39063 -1.4101,3.09572 -1.40718,35.26433 0.004,38.36133 0.57762,1.26775 1.95703,2.75624 3.06445,3.30859 1.2605,0.62868 8.79149,0.92868 20.13672,0.80274 17.30665,-0.19212 18.21662,-0.2946 20.20508,-2.28516 1.55387,-1.55553 2.18685,-3.52909 2.49414,-7.77734 l 0.41015,-5.69336 h 8.3711 8.37109 v 4.66992 c 0,5.89502 1.42611,9.05278 4.70313,10.41015 1.69584,0.70243 8.56094,0.96416 20.12304,0.76954 23.56593,-0.39666 21.83789,1.46403 21.83789,-23.49805 v -18.91016 l -2.70898,-2.32812 z m -26.16406,15.11719 8.24804,0.27148 8.24805,0.27149 v 8.01367 8.01367 l -8.24805,0.27149 -8.24804,0.27343 v -8.55859 z m -64.10352,0.0723 h 8.52148 8.52149 l -0.27344,8.24804 -0.27148,8.25 -8.25,0.27149 -8.24805,0.27343 v -8.52148 z m -72.5918,31.96679 c 2.38818,-0.21821 4.92908,0.55213 6.94727,2.57032 3.4858,3.48579 3.38072,8.0763 -0.26953,11.72656 -1.88065,1.88066 -3.70134,2.75586 -5.73047,2.75586 -4.28592,0 -8.48242,-4.41675 -8.48242,-8.92578 0,-4.65429 3.55485,-7.76327 7.53515,-8.12696 z"
       transform="scale(0.26458333)" /></g></svg>
