<?xml version="1.0" encoding="UTF-8" standalone="no"?>
<!-- Created with Inkscape (http://www.inkscape.org/) -->

<svg
   width="138.50607mm"
   height="138.11089mm"
   viewBox="0 0 138.50608 138.11089"
   version="1.1"
   id="svg1"
   xml:space="preserve"
   sodipodi:docname="Facebook_icon.svg"
   inkscape:version="1.3.2 (091e20e, 2023-11-25, custom)"
   xmlns:inkscape="http://www.inkscape.org/namespaces/inkscape"
   xmlns:sodipodi="http://sodipodi.sourceforge.net/DTD/sodipodi-0.dtd"
   xmlns="http://www.w3.org/2000/svg"
   xmlns:svg="http://www.w3.org/2000/svg"><sodipodi:namedview
     id="namedview1"
     pagecolor="#505050"
     bordercolor="#eeeeee"
     borderopacity="1"
     inkscape:showpageshadow="0"
     inkscape:pageopacity="0"
     inkscape:pagecheckerboard="0"
     inkscape:deskcolor="#505050"
     inkscape:document-units="mm"
     inkscape:zoom="1.2249168"
     inkscape:cx="261.65042"
     inkscape:cy="260.83404"
     inkscape:window-width="1920"
     inkscape:window-height="1051"
     inkscape:window-x="-9"
     inkscape:window-y="-9"
     inkscape:window-maximized="1"
     inkscape:current-layer="layer1" /><defs
     id="defs1" /><g
     inkscape:label="FB-icon"
     inkscape:groupmode="layer"
     id="layer1"
     transform="translate(-35.677578,-79.357572)"><path
       id="path9"
       style="fill:none;stroke:#ffff00;stroke-width:4;stroke-linecap:butt;stroke-linejoin:miter;stroke-dasharray:none;stroke-opacity:1"
       d="m 94.225956,168.7153 v 46.2294 M 171.73842,148.21655 A 66.807648,66.807648 0 0 1 104.93077,215.0242 66.807648,66.807648 0 0 1 38.123123,148.21655 66.807648,66.807648 0 0 1 104.93077,81.408905 66.807648,66.807648 0 0 1 171.73842,148.21655 Z M 91.694391,214.58449 C 82.76174,212.74558 74.129238,209.0698 66.74559,203.96111 55.9325,196.47963 47.184302,185.56615 42.535169,173.75833 40.658504,168.992 39.557177,165.24408 38.803761,161.06 c -1.345068,-7.46981 -1.484369,-14.6713 -0.431556,-22.31028 1.973755,-14.32113 9.110885,-28.26616 19.687254,-38.46636 6.51859,-6.286737 13.894398,-11.080557 21.821974,-14.182932 8.883488,-3.476463 15.576423,-4.743807 25.047347,-4.742855 9.52411,9.57e-4 16.36088,1.298581 25.22031,4.786836 8.24266,3.245411 16.3544,8.686529 22.85314,15.329221 8.20088,8.38252 13.81946,18.17434 16.92338,29.49325 1.47194,5.36767 2.08172,9.70632 2.23409,15.89567 0.2369,9.62333 -1.25332,18.00369 -4.79837,26.98397 -0.81809,2.07236 -3.43776,7.30143 -4.73401,9.44945 -4.65855,7.7197 -11.60926,15.15516 -19.03623,20.36385 -1.24001,0.86965 -2.98603,2.02258 -3.88005,2.56208 -2.16902,1.30891 -7.39178,3.92678 -9.47376,4.74867 -4.00232,1.57995 -9.27023,3.12478 -12.9188,3.78847 l -1.71956,0.31279 v -23.43451 -23.43451 h 7.84491 7.84492 l 0.0937,-0.39682 c 0.0515,-0.21826 0.41215,-2.57208 0.80139,-5.23073 0.38923,-2.65864 1.02319,-6.81504 1.40879,-9.23644 0.38559,-2.4214 0.70108,-4.51199 0.70108,-4.64576 0,-0.20365 -1.52053,-0.24322 -9.34739,-0.24322 h -9.34738 l 0.003,-7.01054 c 0.003,-7.8292 0.0775,-8.52942 1.13848,-10.76357 0.79862,-1.68165 2.28964,-3.19827 3.87255,-3.939 2.22975,-1.04342 2.53718,-1.08557 8.74244,-1.1984 l 5.73189,-0.10423 v -8.37737 -8.37738 l -2.0282,-0.29203 c -4.93607,-0.71072 -7.85129,-0.92996 -12.43379,-0.93506 -5.03977,-0.006 -6.46246,0.16297 -9.87649,1.17029 -7.78147,2.29595 -13.340377,8.17855 -15.417991,16.31576 -0.867341,3.39704 -0.93903,4.39206 -1.023668,14.20824 l -0.08022,9.30329 H 85.6876 77.148218 l 0.04557,9.8324 0.04557,9.83239 8.509651,0.0458 8.509648,0.0458 v 23.45495 c 0,12.90023 -0.01984,23.45003 -0.04409,23.44401 -0.02426,-0.006 -1.158328,-0.24032 -2.520172,-0.52067 z"
       inkscape:export-filename="Facebook_icon.png"
       inkscape:export-xdpi="96"
       inkscape:export-ydpi="96" /></g></svg>
