<?xml version="1.0" encoding="UTF-8" standalone="no"?>
<!-- Created with Inkscape (http://www.inkscape.org/) -->

<svg
   width="458.63223mm"
   height="459.04706mm"
   viewBox="0 0 458.63223 459.04705"
   version="1.1"
   id="svg1"
   xml:space="preserve"
   xmlns="http://www.w3.org/2000/svg"
   xmlns:svg="http://www.w3.org/2000/svg"><defs
     id="defs1"><filter
       style="color-interpolation-filters:sRGB"
       id="filter203"
       x="-0.079403762"
       y="-0.079307825"
       width="1.1587942"
       height="1.1586142"><feGaussianBlur
         stdDeviation="12.374807"
         id="feGaussianBlur203" /></filter><filter
       style="color-interpolation-filters:sRGB"
       id="filter204"
       x="-0.052389447"
       y="-0.052322115"
       width="1.1047656"
       height="1.1046428"><feGaussianBlur
         stdDeviation="7.9198763"
         id="feGaussianBlur204" /></filter><filter
       style="color-interpolation-filters:sRGB"
       id="filter205"
       x="-0.052389447"
       y="-0.052322115"
       width="1.1047656"
       height="1.1046428"><feGaussianBlur
         stdDeviation="7.9198763"
         id="feGaussianBlur205" /></filter></defs><g
     id="layer1"
     transform="translate(151.63594,129.9472)"><g
       id="g205"><g
         id="g195"
         style="filter:url(#filter203)"><path
           style="fill:none;fill-opacity:1;stroke:#beb41e;stroke-width:13.0163;stroke-linecap:butt;stroke-linejoin:round;stroke-dasharray:none;stroke-opacity:1;paint-order:stroke markers fill"
           d="m 292.94196,362.89962 c 3.1202,-12.98213 13.57049,-25.65514 25.13182,-30.47722 9.26065,-3.86251 32.87261,-3.52655 41.9516,0.59689 9.61139,4.36525 18.90073,14.3867 22.13541,23.87995 1.48149,4.34794 2.69362,8.54217 2.69362,9.32053 0,0.77836 -20.93638,1.4152 -46.52529,1.4152 h -46.52528 z"
           id="path195"
           transform="matrix(0.26458333,0,0,0.26458333,-0.51728922,8.337047)" /><path
           style="fill:none;fill-opacity:1;stroke:#beb41e;stroke-width:13.0163;stroke-linecap:butt;stroke-linejoin:round;stroke-dasharray:none;stroke-opacity:1;paint-order:stroke markers fill"
           d="M 235.04531,1093.1698 C 104.13017,1081.4077 -18.126643,1037.9483 -125.70189,964.93268 -299.71161,846.82537 -417.22063,657.02697 -445.9305,447.70535 c -6.39186,-46.60258 -8.3557,-119.99836 -4.42308,-165.30659 18.43677,-212.412805 123.27414,-403.0854 293.42872,-533.67244 162.9293808,-125.04198 374.80031,-176.85874 580.523,-141.97709 303.21394,51.41194 546.5018,286.7561 607.67176,587.8304 11.4912,56.55886 12.228,65.63696 12.228,150.67007 0,83.71925 -0.9019,95.50985 -11.1993,146.40928 -29.241,144.53792 -96.99834,273.04487 -198.69831,376.84649 -108.69027,110.93635 -240.95931,182.66403 -392.33162,212.75603 -50.55666,10.0504 -69.91428,11.7819 -136.48464,12.2078 -34.09449,0.2182 -65.47691,0.083 -69.73872,-0.2995 z M 897.47657,530.58422 c 39.34463,-20.11084 40.43132,-73.69516 1.92706,-95.02477 -8.23625,-4.56252 -10.71974,-5.07354 -24.65626,-5.07354 -18.38646,0 -27.83267,3.85984 -38.94225,15.91231 -9.85155,10.68768 -14.04896,21.21791 -14.26155,35.77856 -0.36841,25.23459 17.03076,46.81375 42.87214,53.17176 7.64306,1.8805 24.93657,-0.61161 33.06086,-4.76432 z m -511.76119,-1.88686 c 19.90589,-5.42071 34.98531,-14.38311 50.80314,-30.19467 14.29372,-14.28805 27.73006,-35.07668 24.56678,-38.00957 -1.32734,-1.23064 -11.82312,-4.50598 -52.10717,-16.26067 l -21.50778,-6.27587 -2.59943,3.94225 c -10.58389,16.05138 -20.86155,21.33821 -40.83304,21.00448 -27.45585,-0.45879 -47.13278,-14.72465 -51.35533,-37.23283 l -1.19637,-6.3772 h 89.97013 89.97012 l -1.01476,-24.5377 c -1.66508,-40.26264 -11.08155,-64.13932 -35.31493,-89.54546 -24.41376,-25.5953 -57.73046,-39.16983 -96.13666,-39.16983 -61.65781,0 -113.17657,39.71002 -127.33832,98.15079 -4.28933,17.70067 -4.31567,51.08339 -0.055,69.73872 3.66482,16.04638 13.75,37.31838 24.0117,50.64625 18.40976,23.91052 49.50731,41.74087 81.25919,46.59141 15.35958,2.34639 56.62502,0.86653 68.87775,-2.4701 z m -584.59987,-93.90659 v -94.7069 h 38.72903 38.72902 l 0.44519,94.27642 0.44519,94.27641 42.61811,0.46057 42.618105,0.46057 V 399.52101 269.48418 h -81.792325 -81.79232 v -10.50191 c 0,-12.48437 3.48564,-20.78148 10.97444,-26.1233 4.97639,-3.5497 7.79592,-3.90566 37.23998,-4.70144 l 31.85596,-0.86097 0.46542,-35.73033 0.46543,-35.73033 h -44.41225 c -37.97072,0 -46.08338,0.46339 -55.93411,3.19491 -27.64394,7.66544 -50.34544,28.7338 -61.01412,56.62479 -3.61369,9.44722 -4.61772,15.61609 -5.32785,32.73477 l -0.87504,21.09381 h -23.87473 -23.87474 v 35.29985 35.29984 h 24.10721 24.10722 v 94.7069 94.7069 h 43.04859 43.04859 z m 340.35058,82.6533 c 2.11858,-6.15595 10.95175,-30.95194 19.62926,-55.1022 8.67751,-24.15026 18.3319,-51.27087 21.45418,-60.26803 3.12228,-8.99715 11.63001,-33.01827 18.90606,-53.38025 24.46044,-68.45239 26.69325,-74.89696 26.6976,-77.05698 0.003,-1.66353 -9.58621,-2.15243 -42.22019,-2.15243 -42.17695,0 -42.2263,0.004 -43.78884,3.87437 -0.86037,2.13091 -3.98902,12.01056 -6.95257,21.95479 -5.33235,17.89276 -20.15435,66.88551 -25.26596,83.51426 -1.45563,4.73535 -4.17993,13.64641 -6.05401,19.80236 -1.87408,6.15594 -3.81337,12.35494 -4.30951,13.77554 -0.496143,1.42061 -2.681755,-3.22864 -4.856914,-10.33166 C 87.917191,379.9075 62.662167,296.81239 58.594144,283.25973 L 54.717635,270.34515 13.61732,269.88257 c -22.6051771,-0.25443 -42.071612,-0.0899 -43.258755,0.36567 -1.573908,0.60397 -0.25161,6.09186 4.882744,20.26494 3.872651,10.69017 9.606482,26.79799 12.741866,35.79514 3.135384,8.99716 11.25696571,31.85596 18.0479671,50.79734 13.3010849,37.09928 25.1679459,70.50183 40.0697149,112.78731 5.173201,14.67957 10.637548,29.61082 12.142974,33.18056 l 2.737133,6.49042 38.316587,-0.46362 38.316569,-0.46363 z m 429.36784,-61.55949 c 0.006,-44.7891 0.69825,-76.0925 1.76831,-79.94521 3.02892,-10.90538 12.03704,-22.19234 22.27519,-27.91023 8.85911,-4.94773 10.71953,-5.29967 31.42547,-5.9448 l 22.00888,-0.68575 v 94.04955 94.04953 h 43.0486 43.04859 v -73.73104 c 0,-81.3299 0.40276,-85.07507 10.45643,-97.23115 2.96424,-3.58411 9.3792,-8.58911 14.25549,-11.12221 8.28734,-4.30506 10.63603,-4.65012 35.98659,-5.28698 l 27.12061,-0.68133 v -36.14184 -36.14185 l -24.53769,0.64457 c -21.08179,0.55379 -25.79923,1.20767 -33.49489,4.64265 -8.2634,3.68841 -22.16531,16.43596 -27.53285,25.24666 -1.67998,2.75762 -2.0695,0.31415 -2.15243,-13.50219 l -0.10126,-16.86914 -62.42046,0.51067 c -59.24989,0.48473 -62.81848,0.69483 -70.2567,4.13649 -10.10617,4.67611 -19.91875,13.33101 -26.04357,22.97094 l -4.86392,7.65538 v -17.55656 -17.55656 h -43.04859 -43.04859 v 130.00675 130.00674 h 43.04859 43.04859 z"
           id="path194"
           transform="matrix(0.26458333,0,0,0.26458333,-0.51728922,8.337047)" /></g><g
         id="g197"
         style="filter:url(#filter204)"><path
           style="fill:none;fill-opacity:1;stroke:#beb41e;stroke-width:13.0163;stroke-linecap:butt;stroke-linejoin:round;stroke-dasharray:none;stroke-opacity:1;paint-order:stroke markers fill"
           d="m 292.94196,362.89962 c 3.1202,-12.98213 13.57049,-25.65514 25.13182,-30.47722 9.26065,-3.86251 32.87261,-3.52655 41.9516,0.59689 9.61139,4.36525 18.90073,14.3867 22.13541,23.87995 1.48149,4.34794 2.69362,8.54217 2.69362,9.32053 0,0.77836 -20.93638,1.4152 -46.52529,1.4152 h -46.52528 z"
           id="path196"
           transform="matrix(0.26458333,0,0,0.26458333,-0.51728922,8.337047)" /><path
           style="fill:none;fill-opacity:1;stroke:#beb41e;stroke-width:13.0163;stroke-linecap:butt;stroke-linejoin:round;stroke-dasharray:none;stroke-opacity:1;paint-order:stroke markers fill"
           d="M 235.04531,1093.1698 C 104.13017,1081.4077 -18.126643,1037.9483 -125.70189,964.93268 -299.71161,846.82537 -417.22063,657.02697 -445.9305,447.70535 c -6.39186,-46.60258 -8.3557,-119.99836 -4.42308,-165.30659 18.43677,-212.412805 123.27414,-403.0854 293.42872,-533.67244 162.9293808,-125.04198 374.80031,-176.85874 580.523,-141.97709 303.21394,51.41194 546.5018,286.7561 607.67176,587.8304 11.4912,56.55886 12.228,65.63696 12.228,150.67007 0,83.71925 -0.9019,95.50985 -11.1993,146.40928 -29.241,144.53792 -96.99834,273.04487 -198.69831,376.84649 -108.69027,110.93635 -240.95931,182.66403 -392.33162,212.75603 -50.55666,10.0504 -69.91428,11.7819 -136.48464,12.2078 -34.09449,0.2182 -65.47691,0.083 -69.73872,-0.2995 z M 897.47657,530.58422 c 39.34463,-20.11084 40.43132,-73.69516 1.92706,-95.02477 -8.23625,-4.56252 -10.71974,-5.07354 -24.65626,-5.07354 -18.38646,0 -27.83267,3.85984 -38.94225,15.91231 -9.85155,10.68768 -14.04896,21.21791 -14.26155,35.77856 -0.36841,25.23459 17.03076,46.81375 42.87214,53.17176 7.64306,1.8805 24.93657,-0.61161 33.06086,-4.76432 z m -511.76119,-1.88686 c 19.90589,-5.42071 34.98531,-14.38311 50.80314,-30.19467 14.29372,-14.28805 27.73006,-35.07668 24.56678,-38.00957 -1.32734,-1.23064 -11.82312,-4.50598 -52.10717,-16.26067 l -21.50778,-6.27587 -2.59943,3.94225 c -10.58389,16.05138 -20.86155,21.33821 -40.83304,21.00448 -27.45585,-0.45879 -47.13278,-14.72465 -51.35533,-37.23283 l -1.19637,-6.3772 h 89.97013 89.97012 l -1.01476,-24.5377 c -1.66508,-40.26264 -11.08155,-64.13932 -35.31493,-89.54546 -24.41376,-25.5953 -57.73046,-39.16983 -96.13666,-39.16983 -61.65781,0 -113.17657,39.71002 -127.33832,98.15079 -4.28933,17.70067 -4.31567,51.08339 -0.055,69.73872 3.66482,16.04638 13.75,37.31838 24.0117,50.64625 18.40976,23.91052 49.50731,41.74087 81.25919,46.59141 15.35958,2.34639 56.62502,0.86653 68.87775,-2.4701 z m -584.59987,-93.90659 v -94.7069 h 38.72903 38.72902 l 0.44519,94.27642 0.44519,94.27641 42.61811,0.46057 42.618105,0.46057 V 399.52101 269.48418 h -81.792325 -81.79232 v -10.50191 c 0,-12.48437 3.48564,-20.78148 10.97444,-26.1233 4.97639,-3.5497 7.79592,-3.90566 37.23998,-4.70144 l 31.85596,-0.86097 0.46542,-35.73033 0.46543,-35.73033 h -44.41225 c -37.97072,0 -46.08338,0.46339 -55.93411,3.19491 -27.64394,7.66544 -50.34544,28.7338 -61.01412,56.62479 -3.61369,9.44722 -4.61772,15.61609 -5.32785,32.73477 l -0.87504,21.09381 h -23.87473 -23.87474 v 35.29985 35.29984 h 24.10721 24.10722 v 94.7069 94.7069 h 43.04859 43.04859 z m 340.35058,82.6533 c 2.11858,-6.15595 10.95175,-30.95194 19.62926,-55.1022 8.67751,-24.15026 18.3319,-51.27087 21.45418,-60.26803 3.12228,-8.99715 11.63001,-33.01827 18.90606,-53.38025 24.46044,-68.45239 26.69325,-74.89696 26.6976,-77.05698 0.003,-1.66353 -9.58621,-2.15243 -42.22019,-2.15243 -42.17695,0 -42.2263,0.004 -43.78884,3.87437 -0.86037,2.13091 -3.98902,12.01056 -6.95257,21.95479 -5.33235,17.89276 -20.15435,66.88551 -25.26596,83.51426 -1.45563,4.73535 -4.17993,13.64641 -6.05401,19.80236 -1.87408,6.15594 -3.81337,12.35494 -4.30951,13.77554 -0.496143,1.42061 -2.681755,-3.22864 -4.856914,-10.33166 C 87.917191,379.9075 62.662167,296.81239 58.594144,283.25973 L 54.717635,270.34515 13.61732,269.88257 c -22.6051771,-0.25443 -42.071612,-0.0899 -43.258755,0.36567 -1.573908,0.60397 -0.25161,6.09186 4.882744,20.26494 3.872651,10.69017 9.606482,26.79799 12.741866,35.79514 3.135384,8.99716 11.25696571,31.85596 18.0479671,50.79734 13.3010849,37.09928 25.1679459,70.50183 40.0697149,112.78731 5.173201,14.67957 10.637548,29.61082 12.142974,33.18056 l 2.737133,6.49042 38.316587,-0.46362 38.316569,-0.46363 z m 429.36784,-61.55949 c 0.006,-44.7891 0.69825,-76.0925 1.76831,-79.94521 3.02892,-10.90538 12.03704,-22.19234 22.27519,-27.91023 8.85911,-4.94773 10.71953,-5.29967 31.42547,-5.9448 l 22.00888,-0.68575 v 94.04955 94.04953 h 43.0486 43.04859 v -73.73104 c 0,-81.3299 0.40276,-85.07507 10.45643,-97.23115 2.96424,-3.58411 9.3792,-8.58911 14.25549,-11.12221 8.28734,-4.30506 10.63603,-4.65012 35.98659,-5.28698 l 27.12061,-0.68133 v -36.14184 -36.14185 l -24.53769,0.64457 c -21.08179,0.55379 -25.79923,1.20767 -33.49489,4.64265 -8.2634,3.68841 -22.16531,16.43596 -27.53285,25.24666 -1.67998,2.75762 -2.0695,0.31415 -2.15243,-13.50219 l -0.10126,-16.86914 -62.42046,0.51067 c -59.24989,0.48473 -62.81848,0.69483 -70.2567,4.13649 -10.10617,4.67611 -19.91875,13.33101 -26.04357,22.97094 l -4.86392,7.65538 v -17.55656 -17.55656 h -43.04859 -43.04859 v 130.00675 130.00674 h 43.04859 43.04859 z"
           id="path197"
           transform="matrix(0.26458333,0,0,0.26458333,-0.51728922,8.337047)" /></g><g
         id="g199"
         style="filter:url(#filter205)"><path
           style="fill:none;fill-opacity:1;stroke:#beb41e;stroke-width:13.0163;stroke-linecap:butt;stroke-linejoin:round;stroke-dasharray:none;stroke-opacity:1;paint-order:stroke markers fill"
           d="m 292.94196,362.89962 c 3.1202,-12.98213 13.57049,-25.65514 25.13182,-30.47722 9.26065,-3.86251 32.87261,-3.52655 41.9516,0.59689 9.61139,4.36525 18.90073,14.3867 22.13541,23.87995 1.48149,4.34794 2.69362,8.54217 2.69362,9.32053 0,0.77836 -20.93638,1.4152 -46.52529,1.4152 h -46.52528 z"
           id="path198"
           transform="matrix(0.26458333,0,0,0.26458333,-0.51728922,8.337047)" /><path
           style="fill:none;fill-opacity:1;stroke:#beb41e;stroke-width:13.0163;stroke-linecap:butt;stroke-linejoin:round;stroke-dasharray:none;stroke-opacity:1;paint-order:stroke markers fill"
           d="M 235.04531,1093.1698 C 104.13017,1081.4077 -18.126643,1037.9483 -125.70189,964.93268 -299.71161,846.82537 -417.22063,657.02697 -445.9305,447.70535 c -6.39186,-46.60258 -8.3557,-119.99836 -4.42308,-165.30659 18.43677,-212.412805 123.27414,-403.0854 293.42872,-533.67244 162.9293808,-125.04198 374.80031,-176.85874 580.523,-141.97709 303.21394,51.41194 546.5018,286.7561 607.67176,587.8304 11.4912,56.55886 12.228,65.63696 12.228,150.67007 0,83.71925 -0.9019,95.50985 -11.1993,146.40928 -29.241,144.53792 -96.99834,273.04487 -198.69831,376.84649 -108.69027,110.93635 -240.95931,182.66403 -392.33162,212.75603 -50.55666,10.0504 -69.91428,11.7819 -136.48464,12.2078 -34.09449,0.2182 -65.47691,0.083 -69.73872,-0.2995 z M 897.47657,530.58422 c 39.34463,-20.11084 40.43132,-73.69516 1.92706,-95.02477 -8.23625,-4.56252 -10.71974,-5.07354 -24.65626,-5.07354 -18.38646,0 -27.83267,3.85984 -38.94225,15.91231 -9.85155,10.68768 -14.04896,21.21791 -14.26155,35.77856 -0.36841,25.23459 17.03076,46.81375 42.87214,53.17176 7.64306,1.8805 24.93657,-0.61161 33.06086,-4.76432 z m -511.76119,-1.88686 c 19.90589,-5.42071 34.98531,-14.38311 50.80314,-30.19467 14.29372,-14.28805 27.73006,-35.07668 24.56678,-38.00957 -1.32734,-1.23064 -11.82312,-4.50598 -52.10717,-16.26067 l -21.50778,-6.27587 -2.59943,3.94225 c -10.58389,16.05138 -20.86155,21.33821 -40.83304,21.00448 -27.45585,-0.45879 -47.13278,-14.72465 -51.35533,-37.23283 l -1.19637,-6.3772 h 89.97013 89.97012 l -1.01476,-24.5377 c -1.66508,-40.26264 -11.08155,-64.13932 -35.31493,-89.54546 -24.41376,-25.5953 -57.73046,-39.16983 -96.13666,-39.16983 -61.65781,0 -113.17657,39.71002 -127.33832,98.15079 -4.28933,17.70067 -4.31567,51.08339 -0.055,69.73872 3.66482,16.04638 13.75,37.31838 24.0117,50.64625 18.40976,23.91052 49.50731,41.74087 81.25919,46.59141 15.35958,2.34639 56.62502,0.86653 68.87775,-2.4701 z m -584.59987,-93.90659 v -94.7069 h 38.72903 38.72902 l 0.44519,94.27642 0.44519,94.27641 42.61811,0.46057 42.618105,0.46057 V 399.52101 269.48418 h -81.792325 -81.79232 v -10.50191 c 0,-12.48437 3.48564,-20.78148 10.97444,-26.1233 4.97639,-3.5497 7.79592,-3.90566 37.23998,-4.70144 l 31.85596,-0.86097 0.46542,-35.73033 0.46543,-35.73033 h -44.41225 c -37.97072,0 -46.08338,0.46339 -55.93411,3.19491 -27.64394,7.66544 -50.34544,28.7338 -61.01412,56.62479 -3.61369,9.44722 -4.61772,15.61609 -5.32785,32.73477 l -0.87504,21.09381 h -23.87473 -23.87474 v 35.29985 35.29984 h 24.10721 24.10722 v 94.7069 94.7069 h 43.04859 43.04859 z m 340.35058,82.6533 c 2.11858,-6.15595 10.95175,-30.95194 19.62926,-55.1022 8.67751,-24.15026 18.3319,-51.27087 21.45418,-60.26803 3.12228,-8.99715 11.63001,-33.01827 18.90606,-53.38025 24.46044,-68.45239 26.69325,-74.89696 26.6976,-77.05698 0.003,-1.66353 -9.58621,-2.15243 -42.22019,-2.15243 -42.17695,0 -42.2263,0.004 -43.78884,3.87437 -0.86037,2.13091 -3.98902,12.01056 -6.95257,21.95479 -5.33235,17.89276 -20.15435,66.88551 -25.26596,83.51426 -1.45563,4.73535 -4.17993,13.64641 -6.05401,19.80236 -1.87408,6.15594 -3.81337,12.35494 -4.30951,13.77554 -0.496143,1.42061 -2.681755,-3.22864 -4.856914,-10.33166 C 87.917191,379.9075 62.662167,296.81239 58.594144,283.25973 L 54.717635,270.34515 13.61732,269.88257 c -22.6051771,-0.25443 -42.071612,-0.0899 -43.258755,0.36567 -1.573908,0.60397 -0.25161,6.09186 4.882744,20.26494 3.872651,10.69017 9.606482,26.79799 12.741866,35.79514 3.135384,8.99716 11.25696571,31.85596 18.0479671,50.79734 13.3010849,37.09928 25.1679459,70.50183 40.0697149,112.78731 5.173201,14.67957 10.637548,29.61082 12.142974,33.18056 l 2.737133,6.49042 38.316587,-0.46362 38.316569,-0.46363 z m 429.36784,-61.55949 c 0.006,-44.7891 0.69825,-76.0925 1.76831,-79.94521 3.02892,-10.90538 12.03704,-22.19234 22.27519,-27.91023 8.85911,-4.94773 10.71953,-5.29967 31.42547,-5.9448 l 22.00888,-0.68575 v 94.04955 94.04953 h 43.0486 43.04859 v -73.73104 c 0,-81.3299 0.40276,-85.07507 10.45643,-97.23115 2.96424,-3.58411 9.3792,-8.58911 14.25549,-11.12221 8.28734,-4.30506 10.63603,-4.65012 35.98659,-5.28698 l 27.12061,-0.68133 v -36.14184 -36.14185 l -24.53769,0.64457 c -21.08179,0.55379 -25.79923,1.20767 -33.49489,4.64265 -8.2634,3.68841 -22.16531,16.43596 -27.53285,25.24666 -1.67998,2.75762 -2.0695,0.31415 -2.15243,-13.50219 l -0.10126,-16.86914 -62.42046,0.51067 c -59.24989,0.48473 -62.81848,0.69483 -70.2567,4.13649 -10.10617,4.67611 -19.91875,13.33101 -26.04357,22.97094 l -4.86392,7.65538 v -17.55656 -17.55656 h -43.04859 -43.04859 v 130.00675 130.00674 h 43.04859 43.04859 z"
           id="path199"
           transform="matrix(0.26458333,0,0,0.26458333,-0.51728922,8.337047)" /></g><g
         id="g201"><path
           style="fill:none;fill-opacity:1;stroke:#beb41e;stroke-width:13.0163;stroke-linecap:butt;stroke-linejoin:round;stroke-dasharray:none;stroke-opacity:1;paint-order:stroke markers fill"
           d="m 292.94196,362.89962 c 3.1202,-12.98213 13.57049,-25.65514 25.13182,-30.47722 9.26065,-3.86251 32.87261,-3.52655 41.9516,0.59689 9.61139,4.36525 18.90073,14.3867 22.13541,23.87995 1.48149,4.34794 2.69362,8.54217 2.69362,9.32053 0,0.77836 -20.93638,1.4152 -46.52529,1.4152 h -46.52528 z"
           id="path200"
           transform="matrix(0.26458333,0,0,0.26458333,-0.51728922,8.337047)" /><path
           style="fill:none;fill-opacity:1;stroke:#beb41e;stroke-width:13.0163;stroke-linecap:butt;stroke-linejoin:round;stroke-dasharray:none;stroke-opacity:1;paint-order:stroke markers fill"
           d="M 235.04531,1093.1698 C 104.13017,1081.4077 -18.126643,1037.9483 -125.70189,964.93268 -299.71161,846.82537 -417.22063,657.02697 -445.9305,447.70535 c -6.39186,-46.60258 -8.3557,-119.99836 -4.42308,-165.30659 18.43677,-212.412805 123.27414,-403.0854 293.42872,-533.67244 162.9293808,-125.04198 374.80031,-176.85874 580.523,-141.97709 303.21394,51.41194 546.5018,286.7561 607.67176,587.8304 11.4912,56.55886 12.228,65.63696 12.228,150.67007 0,83.71925 -0.9019,95.50985 -11.1993,146.40928 -29.241,144.53792 -96.99834,273.04487 -198.69831,376.84649 -108.69027,110.93635 -240.95931,182.66403 -392.33162,212.75603 -50.55666,10.0504 -69.91428,11.7819 -136.48464,12.2078 -34.09449,0.2182 -65.47691,0.083 -69.73872,-0.2995 z M 897.47657,530.58422 c 39.34463,-20.11084 40.43132,-73.69516 1.92706,-95.02477 -8.23625,-4.56252 -10.71974,-5.07354 -24.65626,-5.07354 -18.38646,0 -27.83267,3.85984 -38.94225,15.91231 -9.85155,10.68768 -14.04896,21.21791 -14.26155,35.77856 -0.36841,25.23459 17.03076,46.81375 42.87214,53.17176 7.64306,1.8805 24.93657,-0.61161 33.06086,-4.76432 z m -511.76119,-1.88686 c 19.90589,-5.42071 34.98531,-14.38311 50.80314,-30.19467 14.29372,-14.28805 27.73006,-35.07668 24.56678,-38.00957 -1.32734,-1.23064 -11.82312,-4.50598 -52.10717,-16.26067 l -21.50778,-6.27587 -2.59943,3.94225 c -10.58389,16.05138 -20.86155,21.33821 -40.83304,21.00448 -27.45585,-0.45879 -47.13278,-14.72465 -51.35533,-37.23283 l -1.19637,-6.3772 h 89.97013 89.97012 l -1.01476,-24.5377 c -1.66508,-40.26264 -11.08155,-64.13932 -35.31493,-89.54546 -24.41376,-25.5953 -57.73046,-39.16983 -96.13666,-39.16983 -61.65781,0 -113.17657,39.71002 -127.33832,98.15079 -4.28933,17.70067 -4.31567,51.08339 -0.055,69.73872 3.66482,16.04638 13.75,37.31838 24.0117,50.64625 18.40976,23.91052 49.50731,41.74087 81.25919,46.59141 15.35958,2.34639 56.62502,0.86653 68.87775,-2.4701 z m -584.59987,-93.90659 v -94.7069 h 38.72903 38.72902 l 0.44519,94.27642 0.44519,94.27641 42.61811,0.46057 42.618105,0.46057 V 399.52101 269.48418 h -81.792325 -81.79232 v -10.50191 c 0,-12.48437 3.48564,-20.78148 10.97444,-26.1233 4.97639,-3.5497 7.79592,-3.90566 37.23998,-4.70144 l 31.85596,-0.86097 0.46542,-35.73033 0.46543,-35.73033 h -44.41225 c -37.97072,0 -46.08338,0.46339 -55.93411,3.19491 -27.64394,7.66544 -50.34544,28.7338 -61.01412,56.62479 -3.61369,9.44722 -4.61772,15.61609 -5.32785,32.73477 l -0.87504,21.09381 h -23.87473 -23.87474 v 35.29985 35.29984 h 24.10721 24.10722 v 94.7069 94.7069 h 43.04859 43.04859 z m 340.35058,82.6533 c 2.11858,-6.15595 10.95175,-30.95194 19.62926,-55.1022 8.67751,-24.15026 18.3319,-51.27087 21.45418,-60.26803 3.12228,-8.99715 11.63001,-33.01827 18.90606,-53.38025 24.46044,-68.45239 26.69325,-74.89696 26.6976,-77.05698 0.003,-1.66353 -9.58621,-2.15243 -42.22019,-2.15243 -42.17695,0 -42.2263,0.004 -43.78884,3.87437 -0.86037,2.13091 -3.98902,12.01056 -6.95257,21.95479 -5.33235,17.89276 -20.15435,66.88551 -25.26596,83.51426 -1.45563,4.73535 -4.17993,13.64641 -6.05401,19.80236 -1.87408,6.15594 -3.81337,12.35494 -4.30951,13.77554 -0.496143,1.42061 -2.681755,-3.22864 -4.856914,-10.33166 C 87.917191,379.9075 62.662167,296.81239 58.594144,283.25973 L 54.717635,270.34515 13.61732,269.88257 c -22.6051771,-0.25443 -42.071612,-0.0899 -43.258755,0.36567 -1.573908,0.60397 -0.25161,6.09186 4.882744,20.26494 3.872651,10.69017 9.606482,26.79799 12.741866,35.79514 3.135384,8.99716 11.25696571,31.85596 18.0479671,50.79734 13.3010849,37.09928 25.1679459,70.50183 40.0697149,112.78731 5.173201,14.67957 10.637548,29.61082 12.142974,33.18056 l 2.737133,6.49042 38.316587,-0.46362 38.316569,-0.46363 z m 429.36784,-61.55949 c 0.006,-44.7891 0.69825,-76.0925 1.76831,-79.94521 3.02892,-10.90538 12.03704,-22.19234 22.27519,-27.91023 8.85911,-4.94773 10.71953,-5.29967 31.42547,-5.9448 l 22.00888,-0.68575 v 94.04955 94.04953 h 43.0486 43.04859 v -73.73104 c 0,-81.3299 0.40276,-85.07507 10.45643,-97.23115 2.96424,-3.58411 9.3792,-8.58911 14.25549,-11.12221 8.28734,-4.30506 10.63603,-4.65012 35.98659,-5.28698 l 27.12061,-0.68133 v -36.14184 -36.14185 l -24.53769,0.64457 c -21.08179,0.55379 -25.79923,1.20767 -33.49489,4.64265 -8.2634,3.68841 -22.16531,16.43596 -27.53285,25.24666 -1.67998,2.75762 -2.0695,0.31415 -2.15243,-13.50219 l -0.10126,-16.86914 -62.42046,0.51067 c -59.24989,0.48473 -62.81848,0.69483 -70.2567,4.13649 -10.10617,4.67611 -19.91875,13.33101 -26.04357,22.97094 l -4.86392,7.65538 v -17.55656 -17.55656 h -43.04859 -43.04859 v 130.00675 130.00674 h 43.04859 43.04859 z"
           id="path201"
           transform="matrix(0.26458333,0,0,0.26458333,-0.51728922,8.337047)" /></g><g
         id="g203"><path
           style="fill:none;fill-opacity:1;stroke:#beb41e;stroke-width:13.0163;stroke-linecap:butt;stroke-linejoin:round;stroke-dasharray:none;stroke-opacity:1;paint-order:stroke markers fill"
           d="m 292.94196,362.89962 c 3.1202,-12.98213 13.57049,-25.65514 25.13182,-30.47722 9.26065,-3.86251 32.87261,-3.52655 41.9516,0.59689 9.61139,4.36525 18.90073,14.3867 22.13541,23.87995 1.48149,4.34794 2.69362,8.54217 2.69362,9.32053 0,0.77836 -20.93638,1.4152 -46.52529,1.4152 h -46.52528 z"
           id="path202"
           transform="matrix(0.26458333,0,0,0.26458333,-0.51728922,8.337047)" /><path
           style="fill:none;fill-opacity:1;stroke:#beb41e;stroke-width:13.0163;stroke-linecap:butt;stroke-linejoin:round;stroke-dasharray:none;stroke-opacity:1;paint-order:stroke markers fill"
           d="M 235.04531,1093.1698 C 104.13017,1081.4077 -18.126643,1037.9483 -125.70189,964.93268 -299.71161,846.82537 -417.22063,657.02697 -445.9305,447.70535 c -6.39186,-46.60258 -8.3557,-119.99836 -4.42308,-165.30659 18.43677,-212.412805 123.27414,-403.0854 293.42872,-533.67244 162.9293808,-125.04198 374.80031,-176.85874 580.523,-141.97709 303.21394,51.41194 546.5018,286.7561 607.67176,587.8304 11.4912,56.55886 12.228,65.63696 12.228,150.67007 0,83.71925 -0.9019,95.50985 -11.1993,146.40928 -29.241,144.53792 -96.99834,273.04487 -198.69831,376.84649 -108.69027,110.93635 -240.95931,182.66403 -392.33162,212.75603 -50.55666,10.0504 -69.91428,11.7819 -136.48464,12.2078 -34.09449,0.2182 -65.47691,0.083 -69.73872,-0.2995 z M 897.47657,530.58422 c 39.34463,-20.11084 40.43132,-73.69516 1.92706,-95.02477 -8.23625,-4.56252 -10.71974,-5.07354 -24.65626,-5.07354 -18.38646,0 -27.83267,3.85984 -38.94225,15.91231 -9.85155,10.68768 -14.04896,21.21791 -14.26155,35.77856 -0.36841,25.23459 17.03076,46.81375 42.87214,53.17176 7.64306,1.8805 24.93657,-0.61161 33.06086,-4.76432 z m -511.76119,-1.88686 c 19.90589,-5.42071 34.98531,-14.38311 50.80314,-30.19467 14.29372,-14.28805 27.73006,-35.07668 24.56678,-38.00957 -1.32734,-1.23064 -11.82312,-4.50598 -52.10717,-16.26067 l -21.50778,-6.27587 -2.59943,3.94225 c -10.58389,16.05138 -20.86155,21.33821 -40.83304,21.00448 -27.45585,-0.45879 -47.13278,-14.72465 -51.35533,-37.23283 l -1.19637,-6.3772 h 89.97013 89.97012 l -1.01476,-24.5377 c -1.66508,-40.26264 -11.08155,-64.13932 -35.31493,-89.54546 -24.41376,-25.5953 -57.73046,-39.16983 -96.13666,-39.16983 -61.65781,0 -113.17657,39.71002 -127.33832,98.15079 -4.28933,17.70067 -4.31567,51.08339 -0.055,69.73872 3.66482,16.04638 13.75,37.31838 24.0117,50.64625 18.40976,23.91052 49.50731,41.74087 81.25919,46.59141 15.35958,2.34639 56.62502,0.86653 68.87775,-2.4701 z m -584.59987,-93.90659 v -94.7069 h 38.72903 38.72902 l 0.44519,94.27642 0.44519,94.27641 42.61811,0.46057 42.618105,0.46057 V 399.52101 269.48418 h -81.792325 -81.79232 v -10.50191 c 0,-12.48437 3.48564,-20.78148 10.97444,-26.1233 4.97639,-3.5497 7.79592,-3.90566 37.23998,-4.70144 l 31.85596,-0.86097 0.46542,-35.73033 0.46543,-35.73033 h -44.41225 c -37.97072,0 -46.08338,0.46339 -55.93411,3.19491 -27.64394,7.66544 -50.34544,28.7338 -61.01412,56.62479 -3.61369,9.44722 -4.61772,15.61609 -5.32785,32.73477 l -0.87504,21.09381 h -23.87473 -23.87474 v 35.29985 35.29984 h 24.10721 24.10722 v 94.7069 94.7069 h 43.04859 43.04859 z m 340.35058,82.6533 c 2.11858,-6.15595 10.95175,-30.95194 19.62926,-55.1022 8.67751,-24.15026 18.3319,-51.27087 21.45418,-60.26803 3.12228,-8.99715 11.63001,-33.01827 18.90606,-53.38025 24.46044,-68.45239 26.69325,-74.89696 26.6976,-77.05698 0.003,-1.66353 -9.58621,-2.15243 -42.22019,-2.15243 -42.17695,0 -42.2263,0.004 -43.78884,3.87437 -0.86037,2.13091 -3.98902,12.01056 -6.95257,21.95479 -5.33235,17.89276 -20.15435,66.88551 -25.26596,83.51426 -1.45563,4.73535 -4.17993,13.64641 -6.05401,19.80236 -1.87408,6.15594 -3.81337,12.35494 -4.30951,13.77554 -0.496143,1.42061 -2.681755,-3.22864 -4.856914,-10.33166 C 87.917191,379.9075 62.662167,296.81239 58.594144,283.25973 L 54.717635,270.34515 13.61732,269.88257 c -22.6051771,-0.25443 -42.071612,-0.0899 -43.258755,0.36567 -1.573908,0.60397 -0.25161,6.09186 4.882744,20.26494 3.872651,10.69017 9.606482,26.79799 12.741866,35.79514 3.135384,8.99716 11.25696571,31.85596 18.0479671,50.79734 13.3010849,37.09928 25.1679459,70.50183 40.0697149,112.78731 5.173201,14.67957 10.637548,29.61082 12.142974,33.18056 l 2.737133,6.49042 38.316587,-0.46362 38.316569,-0.46363 z m 429.36784,-61.55949 c 0.006,-44.7891 0.69825,-76.0925 1.76831,-79.94521 3.02892,-10.90538 12.03704,-22.19234 22.27519,-27.91023 8.85911,-4.94773 10.71953,-5.29967 31.42547,-5.9448 l 22.00888,-0.68575 v 94.04955 94.04953 h 43.0486 43.04859 v -73.73104 c 0,-81.3299 0.40276,-85.07507 10.45643,-97.23115 2.96424,-3.58411 9.3792,-8.58911 14.25549,-11.12221 8.28734,-4.30506 10.63603,-4.65012 35.98659,-5.28698 l 27.12061,-0.68133 v -36.14184 -36.14185 l -24.53769,0.64457 c -21.08179,0.55379 -25.79923,1.20767 -33.49489,4.64265 -8.2634,3.68841 -22.16531,16.43596 -27.53285,25.24666 -1.67998,2.75762 -2.0695,0.31415 -2.15243,-13.50219 l -0.10126,-16.86914 -62.42046,0.51067 c -59.24989,0.48473 -62.81848,0.69483 -70.2567,4.13649 -10.10617,4.67611 -19.91875,13.33101 -26.04357,22.97094 l -4.86392,7.65538 v -17.55656 -17.55656 h -43.04859 -43.04859 v 130.00675 130.00674 h 43.04859 43.04859 z"
           id="path203"
           transform="matrix(0.26458333,0,0,0.26458333,-0.51728922,8.337047)" /></g></g></g></svg>
