<?xml version="1.0" encoding="UTF-8" standalone="no"?>
<!-- Created with Inkscape (http://www.inkscape.org/) -->

<svg
   width="138.90077mm"
   height="135.52362mm"
   viewBox="0 0 138.90077 135.52362"
   version="1.1"
   id="svg1"
   xml:space="preserve"
   xmlns:inkscape="http://www.inkscape.org/namespaces/inkscape"
   xmlns:sodipodi="http://sodipodi.sourceforge.net/DTD/sodipodi-0.dtd"
   xmlns="http://www.w3.org/2000/svg"
   xmlns:svg="http://www.w3.org/2000/svg"><sodipodi:namedview
     id="namedview1"
     pagecolor="#505050"
     bordercolor="#eeeeee"
     borderopacity="1"
     inkscape:showpageshadow="0"
     inkscape:pageopacity="0"
     inkscape:pagecheckerboard="0"
     inkscape:deskcolor="#505050"
     inkscape:document-units="mm" /><defs
     id="defs1" /><g
     inkscape:label="Layer 1"
     inkscape:groupmode="layer"
     id="layer1"
     transform="translate(-30.577302,-67.521922)"><path
       style="fill:none;fill-rule:evenodd;stroke:#ffff00;stroke-width:15.1181;stroke-linecap:round;stroke-linejoin:bevel;stroke-dasharray:none;stroke-dashoffset:3.77953;paint-order:stroke fill markers"
       d="m 287.42719,756.58294 c -50.33309,-19.6758 -89.27504,-50.63428 -121.10491,-96.27724 -4.47675,-6.41951 -17.42982,-28.05861 -17.42982,-29.11784 0,-0.23642 -1.98567,-4.70579 -4.4126,-9.93196 -9.40145,-20.2451 -16.04574,-44.27476 -19.63208,-71.00115 -2.42796,-18.09382 -2.0268,-57.1698 0.74433,-72.50416 7.2024,-39.85526 18.44922,-68.65778 39.44916,-101.02723 35.10891,-54.11711 93.75365,-94.42355 157.99063,-108.58671 32.10948,-7.0796 77.94148,-7.0796 110.05095,0 53.6356,11.82574 102.45935,41.01383 138.32188,82.69237 30.87161,35.87822 50.14139,77.24895 59.11792,126.92157 2.77113,15.33436 3.17229,54.41034 0.74433,72.50416 -5.56983,41.50793 -19.55671,78.62157 -41.4745,110.05095 -27.07684,38.82728 -58.50459,66.48613 -96.86173,85.24583 -29.61488,14.48405 -40.01605,17.16638 -46.43362,11.97469 l -3.05654,-2.47269 -0.77834,-46.40288 c -0.80733,-48.13144 -1.32368,-52.86691 -6.96567,-63.88156 -1.27663,-2.49233 -4.00354,-6.67263 -6.05977,-9.28955 l -3.73861,-4.75805 7.47648,-0.82549 c 12.22158,-1.34939 30.11894,-5.78359 40.49176,-10.03212 42.61574,-17.45471 62.92592,-47.68373 67.21113,-100.03498 2.6876,-32.83361 -3.79853,-57.78647 -20.31365,-78.1489 l -4.57823,-5.64476 2.4476,-9.89185 c 4.06299,-16.42033 2.13167,-40.65939 -4.31906,-54.20668 l -2.32579,-4.88443 -9.02695,0.15862 c -11.07077,0.19452 -24.96108,5.34593 -46.16562,17.12114 -2.62391,1.4571 -7.14896,4.15057 -10.05567,5.98549 -5.17026,3.26384 -5.4319,3.29454 -12.06056,1.41457 -16.88247,-4.78805 -31.23291,-6.41349 -56.62226,-6.41349 -25.3912,0 -39.7399,1.62543 -56.62639,6.4147 l -6.77978,1.92285 -8.2363,-5.2017 c -15.76607,-9.95717 -39.74569,-19.98427 -51.53076,-21.54761 -9.96636,-1.32208 -11.97908,-0.26226 -14.34284,7.5524 -6.20014,20.49792 -7.08074,35.39146 -3.05588,51.68414 l 2.44364,9.89185 -4.57823,5.64476 c -16.36548,20.17791 -23.10218,45.9186 -20.38732,77.89918 4.08335,48.10114 20.36433,76.19506 54.87668,94.69342 14.95136,8.01381 33.65545,13.61134 52.22807,15.63018 l 8.09938,0.88039 -3.31592,3.94074 c -4.78891,5.69131 -9.09578,14.78883 -10.95073,23.13152 l -1.61422,7.2601 -7.2799,2.36531 c -4.28814,1.39327 -12.60064,2.58073 -20.22705,2.88951 -11.12038,0.45024 -13.8546,0.13201 -19.37845,-2.2554 -9.64932,-4.17041 -16.42536,-10.42089 -24.79704,-22.87369 -12.34205,-18.3587 -26.44857,-27.62553 -42.08834,-27.64858 -10.39165,-0.0153 -12.70252,1.7374 -9.67609,7.33898 1.08564,2.0094 4.07552,5.11003 6.64417,6.89026 13.784,9.55318 20.04205,17.46236 29.23147,36.94391 9.43481,20.00177 18.67903,27.82817 38.3662,32.48181 9.50064,2.24575 35.45091,3.08398 43.38459,1.40138 l 4.85519,-1.02972 v 26.50641 26.50639 l -3.4114,2.68341 c -4.59886,3.61746 -11.9694,3.3773 -22.48294,-0.73257 z"
       id="path1"
       transform="scale(0.26458333)" /></g></svg>
