<?xml version="1.0" encoding="UTF-8" standalone="no"?>
<!-- Created with Inkscape (http://www.inkscape.org/) -->

<svg
   width="150.49945mm"
   height="151.99721mm"
   viewBox="0 0 150.49945 151.99721"
   version="1.1"
   id="svg1"
   xml:space="preserve"
   xmlns="http://www.w3.org/2000/svg"
   xmlns:svg="http://www.w3.org/2000/svg"><defs
     id="defs1"><filter
       style="color-interpolation-filters:sRGB"
       id="filter219"
       x="-0.012559281"
       y="-0.012339519"
       width="1.0251322"
       height="1.0246724"><feGaussianBlur
         stdDeviation="0.16174203"
         id="feGaussianBlur219" /></filter><filter
       style="color-interpolation-filters:sRGB"
       id="filter220"
       x="-0.021612433"
       y="-0.021286987"
       width="1.0432385"
       height="1.0425674"><feGaussianBlur
         stdDeviation="0.64696814"
         id="feGaussianBlur220" /></filter><filter
       style="color-interpolation-filters:sRGB"
       id="filter221"
       x="-0.036701022"
       y="-0.036199434"
       width="1.0734157"
       height="1.0723923"><feGaussianBlur
         stdDeviation="1.4556783"
         id="feGaussianBlur221" /></filter><filter
       style="color-interpolation-filters:sRGB"
       id="filter222"
       x="-0.084984504"
       y="-0.083919264"
       width="1.1699826"
       height="1.1678319"><feGaussianBlur
         stdDeviation="4.0435508"
         id="feGaussianBlur222" /></filter></defs><g
     id="layer1"
     transform="translate(11.409115,-45.331264)"><g
       id="g222"><g
         id="g208"
         style="filter:url(#filter222)"><path
           style="fill:none;fill-opacity:1;stroke:#beb41e;stroke-width:9.20389;stroke-linecap:butt;stroke-linejoin:round;stroke-dasharray:none;stroke-opacity:1;paint-order:stroke markers fill"
           d="M 226.47323,672.57336 C 195.01661,670.79225 161.72855,661.29808 131.57798,645.50804 69.120632,612.79875 25.509436,557.53278 7.2973876,488.01438 -2.8771045,449.17665 -2.1338773,398.56519 9.1891478,359.19142 15.290786,337.97407 26.903613,311.81707 37.94921,294.41158 50.671915,274.36334 77.748779,244.9652 96.41767,230.93069 c 37.73542,-28.36797 78.83274,-44.07352 128.22917,-49.00345 17.71023,-1.76754 37.81367,-0.69718 60.61566,3.22735 76.9205,13.23906 142.30322,62.78106 176.93032,134.06419 8.19378,16.86766 17.42635,45.32418 20.67227,63.7158 3.34191,18.93554 4.53329,55.50519 2.3744,72.88308 -7.78582,62.67175 -36.64912,117.7917 -82.33426,157.23287 -49.94711,43.12064 -109.75533,63.29812 -176.432,59.52283 z M 399.3487,545.48392 c 5.33514,-2.74174 7.74288,-4.86753 9.65369,-8.52319 2.51625,-4.81398 2.54951,-6.06264 2.87016,-107.80299 l 0.32442,-102.9326 -3.36841,-6.6453 c -2.53574,-5.00256 -4.84971,-7.54974 -9.36063,-10.30401 l -5.99223,-3.65872 -148.96766,-0.31867 c -144.595076,-0.30932 -149.101552,-0.25037 -153.529078,2.00839 -6.107169,3.11564 -11.095006,8.22269 -13.809011,14.13905 -2.110123,4.59994 -2.23419,10.4824 -2.23419,105.93103 0,113.13888 -0.546776,105.98443 8.777335,114.84967 8.311262,7.90224 -0.899376,7.49137 161.111204,7.18704 l 147.41646,-0.27691 z"
           id="path205"
           transform="matrix(0.26458333,0,0,0.26458333,-0.51728922,8.337047)" /><path
           style="fill:none;fill-opacity:1;stroke:#beb41e;stroke-width:4.60195;stroke-linecap:butt;stroke-linejoin:round;stroke-dasharray:none;stroke-opacity:1;paint-order:stroke markers fill"
           d="m 96.799044,543.32444 c -2.009037,-0.26571 -4.355675,-0.75291 -5.214751,-1.08266 -2.560575,-0.9829 -8.279933,-6.62538 -9.300148,-9.17514 -0.521552,-1.30349 -1.223611,-5.61788 -1.560131,-9.58753 -0.787448,-9.28889 -1.201406,-96.16581 -0.729145,-153.02491 l 0.366601,-44.13793 1.646068,-3.51272 c 1.907286,-4.07016 6.576103,-8.89021 10.347539,-10.68272 1.893088,-0.89975 4.51321,-1.36176 9.466563,-1.66923 4.0357,-0.25052 6.84898,-0.19682 6.84898,0.13071 0,0.30573 0.89037,1.07373 1.9786,1.70667 1.08823,0.63295 2.11558,1.31747 2.283,1.52115 0.16742,0.20369 1.81117,1.4481 3.65279,2.76536 1.84162,1.31726 3.48538,2.56459 3.6528,2.77185 0.16742,0.20726 2.35909,1.84981 4.87039,3.65011 2.51129,1.80029 4.70297,3.43329 4.87039,3.62889 0.16742,0.19559 2.77004,2.12 5.78359,4.27647 3.01356,2.15647 5.89013,4.2554 6.39239,4.6643 0.50226,0.40889 3.65279,2.76724 7.00119,5.24077 18.66992,13.79187 28.72894,21.26485 29.63877,22.019 0.56387,0.4674 1.79669,1.34107 2.7396,1.94151 0.9429,0.60043 1.85135,1.24404 2.01877,1.43025 0.16742,0.1862 1.81118,1.42122 3.6528,2.74448 1.84161,1.32326 3.87948,2.88949 4.52859,3.4805 0.6491,0.59102 1.38293,1.07458 1.63071,1.07458 0.24778,0 0.81254,0.35238 1.255,0.78306 0.44247,0.43069 1.90032,1.59346 3.23968,2.58394 1.33936,0.99047 2.57218,1.94844 2.7396,2.12881 0.16742,0.18038 1.81117,1.40914 3.65279,2.73058 1.84162,1.32144 3.71041,2.75069 4.15288,3.17611 0.44246,0.42541 1.00722,0.77348 1.255,0.77348 0.24778,0 0.98161,0.48355 1.63071,1.07457 0.64911,0.59102 2.68697,2.16216 4.52859,3.49142 1.84162,1.32926 3.87948,2.9004 4.52859,3.49142 0.64911,0.59102 1.38293,1.07457 1.63071,1.07457 0.24779,0 0.81254,0.34807 1.255,0.77348 0.44247,0.42542 2.31127,1.85467 4.15288,3.17611 1.84162,1.32144 3.48538,2.5678 3.6528,2.76968 0.63441,0.76498 7.30229,5.47566 9.48994,6.70439 1.98787,1.11652 2.48734,1.18067 3.85471,0.49511 1.55065,-0.77745 11.63469,-7.73906 12.22491,-8.43958 0.16742,-0.1987 2.77003,-2.12055 5.78359,-4.27076 3.01355,-2.15022 5.8412,-4.2606 6.28367,-4.68975 0.44247,-0.42915 1.00722,-0.78027 1.25501,-0.78027 0.24778,0 0.9816,-0.48356 1.63071,-1.07457 0.6491,-0.59102 2.68697,-2.16067 4.52858,-3.48812 1.84162,-1.32745 3.64213,-2.69311 4.00112,-3.03482 0.359,-0.3417 1.65843,-1.30618 2.88763,-2.14328 1.22921,-0.83709 2.23679,-1.72746 2.23908,-1.97859 0.002,-0.25113 0.34941,-0.4566 0.77138,-0.4566 0.42197,0 1.50585,-0.6849 2.40862,-1.522 0.90278,-0.8371 1.9045,-1.522 2.22605,-1.522 0.32154,0 0.67595,-0.23549 0.78757,-0.52331 0.11161,-0.28783 2.53159,-2.20389 5.37772,-4.25792 2.84614,-2.05403 7.77741,-5.64887 10.95838,-7.98854 3.18098,-2.33967 8.52319,-6.22772 11.87158,-8.64011 3.3484,-2.4124 6.22497,-4.54972 6.39239,-4.74961 0.16742,-0.19989 1.81118,-1.44462 3.6528,-2.76607 1.84161,-1.32144 3.71041,-2.75069 4.15288,-3.1761 0.44246,-0.42542 0.99038,-0.77382 1.2176,-0.77423 0.22721,-4.1e-4 1.17397,-0.65511 2.10391,-1.4549 0.92995,-0.79979 2.64032,-2.10076 3.80084,-2.89105 1.16052,-0.79029 2.1119,-1.64236 2.11419,-1.89349 0.002,-0.25113 0.29768,-0.4566 0.65644,-0.4566 0.35875,0 1.0133,-0.34245 1.45454,-0.761 0.44124,-0.41855 1.53486,-1.29183 2.43027,-1.94063 0.89541,-0.6488 2.2005,-1.67615 2.90021,-2.283 0.6997,-0.60685 1.45257,-1.10336 1.67304,-1.10336 0.22046,0 0.93194,-0.48356 1.58104,-1.07458 0.64911,-0.59101 2.68697,-2.16066 4.52859,-3.48811 1.84162,-1.32745 3.71041,-2.76161 4.15288,-3.18702 0.44246,-0.42541 1.00722,-0.77348 1.255,-0.77348 0.24779,0 0.98183,-0.47943 1.63121,-1.0654 0.64938,-0.58597 2.2763,-1.87901 3.61539,-2.87343 1.33909,-0.99442 2.70866,-2.02542 3.0435,-2.29111 0.33484,-0.26569 1.84162,-1.43563 3.34839,-2.59985 l 2.7396,-2.11677 6.80536,-0.006 c 6.73191,-0.006 6.84509,0.0178 10.48758,2.18758 4.65864,2.77514 7.37486,5.7827 10.08772,11.16971 2.11646,4.20274 2.14609,4.36745 2.14609,11.93025 0,5.33058 -0.23202,7.89647 -0.761,8.41584 -0.41855,0.41094 -4.97354,3.74738 -10.12221,7.4143 -5.14866,3.66692 -10.35389,7.40051 -11.56718,8.29686 -1.21328,0.89636 -6.0414,4.23272 -10.72915,7.41414 -4.68776,3.18142 -11.67373,8.00138 -15.52438,10.71102 -3.85065,2.70964 -7.48062,5.0899 -8.06659,5.28945 -0.58597,0.19956 -1.06539,0.54254 -1.06539,0.76218 0,0.21965 -0.95886,0.91573 -2.1308,1.54686 -1.17194,0.63113 -2.1308,1.37833 -2.1308,1.66044 0,0.28211 -0.26057,0.51293 -0.57905,0.51293 -0.31848,0 -6.41408,4.05891 -13.54578,9.01979 -7.1317,4.96089 -13.85709,9.54029 -14.94532,10.17645 -1.08823,0.63616 -1.9786,1.37155 -1.9786,1.63419 0,0.26265 -0.28552,0.47754 -0.63449,0.47754 -0.34897,0 -0.96538,0.28236 -1.3698,0.62747 -0.40442,0.34511 -6.89939,4.86045 -14.43328,10.03409 -7.53389,5.17364 -14.02887,9.68557 -14.43328,10.02651 -0.40442,0.34094 -1.02083,0.6199 -1.3698,0.6199 -0.34897,0 -0.63449,0.21166 -0.63449,0.47035 0,0.25869 -0.95886,0.98674 -2.1308,1.61787 -1.17194,0.63113 -2.1308,1.37833 -2.1308,1.66044 0,0.28211 -0.2654,0.51293 -0.5898,0.51293 -0.32438,0 -4.63925,2.83121 -9.58858,6.29156 -4.94933,3.46037 -11.3435,7.80374 -14.20926,9.65194 -2.86576,1.84821 -5.93535,4.08525 -6.82131,4.97122 -1.56754,1.56753 -4.71019,2.2361 -4.71019,1.00204 0,-0.33484 -0.38811,-0.6088 -0.86247,-0.6088 -0.47435,0 -0.95378,-0.20547 -1.0654,-0.4566 -0.11161,-0.25112 -2.80554,-2.22413 -5.98652,-4.38444 -3.18097,-2.16031 -5.87491,-4.14652 -5.98652,-4.41379 -0.11162,-0.26728 -0.42527,-0.48595 -0.69701,-0.48595 -0.27173,0 -9.30022,-6.16409 -20.0633,-13.69798 -10.76308,-7.53389 -19.80971,-13.69798 -20.10363,-13.69798 -0.29392,0 -0.62571,-0.22968 -0.73733,-0.51041 -0.27968,-0.70345 -18.66734,-13.49196 -19.3991,-13.49196 -0.32439,0 -0.5898,-0.2149 -0.5898,-0.47754 0,-0.26265 -0.89037,-0.9954 -1.97859,-1.62835 -1.08823,-0.63294 -2.11558,-1.31536 -2.283,-1.51648 -0.69054,-0.82954 -12.9064,-9.16241 -13.43195,-9.16241 -0.31373,0 -0.57043,-0.23082 -0.57043,-0.51293 0,-0.28212 -0.95886,-1.02931 -2.13079,-1.66044 -1.17194,-0.63113 -2.1308,-1.35918 -2.1308,-1.61787 0,-0.25869 -0.41094,-0.47036 -0.9132,-0.47036 -0.50226,0 -0.91385,-0.20547 -0.91464,-0.4566 -8e-4,-0.25112 -1.78154,-1.54378 -3.9572,-2.87256 -2.17566,-1.32878 -3.95575,-2.56778 -3.95575,-2.75335 0,-0.18556 -0.95885,-0.85377 -2.13079,-1.4849 -1.17194,-0.63113 -2.1308,-1.37833 -2.1308,-1.66044 0,-0.28211 -0.28552,-0.51293 -0.63449,-0.51293 -0.34898,0 -0.96538,-0.28579 -1.3698,-0.63508 -2.36032,-2.03861 -14.02958,-9.7145 -14.76846,-9.7145 -0.76664,0 -0.88242,11.58267 -0.88242,88.27585 v 88.27586 l -5.63139,-0.0772 c -3.09727,-0.0425 -7.27515,-0.2946 -9.284186,-0.56029 z"
           id="path206"
           transform="matrix(0.26458333,0,0,0.26458333,-0.51728922,8.337047)" /><path
           style="fill:none;fill-opacity:1;stroke:#beb41e;stroke-width:4.60195;stroke-linecap:butt;stroke-linejoin:round;stroke-dasharray:none;stroke-opacity:1;paint-order:stroke markers fill"
           d="m 374.12269,457.36026 0.0157,-87.21046 3.16988,-2.13079 c 1.74343,-1.17194 9.06479,-6.33474 16.26968,-11.47289 7.20488,-5.13815 13.26427,-9.44385 13.46529,-9.56821 0.35718,-0.22098 0.2471,40.81526 -0.3594,133.97331 -0.16568,25.4478 -0.55853,47.88004 -0.87302,49.84941 -0.79142,4.95606 -2.86531,7.31718 -9.54349,10.86519 l -5.41836,2.8787 -8.37099,0.0131 -8.37098,0.0131 z"
           id="path207"
           transform="matrix(0.26458333,0,0,0.26458333,-0.51728922,8.337047)" /></g><g
         id="g210"
         style="filter:url(#filter221)"><path
           style="fill:none;fill-opacity:1;stroke:#beb41e;stroke-width:9.20389;stroke-linecap:butt;stroke-linejoin:round;stroke-dasharray:none;stroke-opacity:1;paint-order:stroke markers fill"
           d="M 226.47323,672.57336 C 195.01661,670.79225 161.72855,661.29808 131.57798,645.50804 69.120632,612.79875 25.509436,557.53278 7.2973876,488.01438 -2.8771045,449.17665 -2.1338773,398.56519 9.1891478,359.19142 15.290786,337.97407 26.903613,311.81707 37.94921,294.41158 50.671915,274.36334 77.748779,244.9652 96.41767,230.93069 c 37.73542,-28.36797 78.83274,-44.07352 128.22917,-49.00345 17.71023,-1.76754 37.81367,-0.69718 60.61566,3.22735 76.9205,13.23906 142.30322,62.78106 176.93032,134.06419 8.19378,16.86766 17.42635,45.32418 20.67227,63.7158 3.34191,18.93554 4.53329,55.50519 2.3744,72.88308 -7.78582,62.67175 -36.64912,117.7917 -82.33426,157.23287 -49.94711,43.12064 -109.75533,63.29812 -176.432,59.52283 z M 399.3487,545.48392 c 5.33514,-2.74174 7.74288,-4.86753 9.65369,-8.52319 2.51625,-4.81398 2.54951,-6.06264 2.87016,-107.80299 l 0.32442,-102.9326 -3.36841,-6.6453 c -2.53574,-5.00256 -4.84971,-7.54974 -9.36063,-10.30401 l -5.99223,-3.65872 -148.96766,-0.31867 c -144.595076,-0.30932 -149.101552,-0.25037 -153.529078,2.00839 -6.107169,3.11564 -11.095006,8.22269 -13.809011,14.13905 -2.110123,4.59994 -2.23419,10.4824 -2.23419,105.93103 0,113.13888 -0.546776,105.98443 8.777335,114.84967 8.311262,7.90224 -0.899376,7.49137 161.111204,7.18704 l 147.41646,-0.27691 z"
           id="path208"
           transform="matrix(0.26458333,0,0,0.26458333,-0.51728922,8.337047)" /><path
           style="fill:none;fill-opacity:1;stroke:#beb41e;stroke-width:4.60195;stroke-linecap:butt;stroke-linejoin:round;stroke-dasharray:none;stroke-opacity:1;paint-order:stroke markers fill"
           d="m 96.799044,543.32444 c -2.009037,-0.26571 -4.355675,-0.75291 -5.214751,-1.08266 -2.560575,-0.9829 -8.279933,-6.62538 -9.300148,-9.17514 -0.521552,-1.30349 -1.223611,-5.61788 -1.560131,-9.58753 -0.787448,-9.28889 -1.201406,-96.16581 -0.729145,-153.02491 l 0.366601,-44.13793 1.646068,-3.51272 c 1.907286,-4.07016 6.576103,-8.89021 10.347539,-10.68272 1.893088,-0.89975 4.51321,-1.36176 9.466563,-1.66923 4.0357,-0.25052 6.84898,-0.19682 6.84898,0.13071 0,0.30573 0.89037,1.07373 1.9786,1.70667 1.08823,0.63295 2.11558,1.31747 2.283,1.52115 0.16742,0.20369 1.81117,1.4481 3.65279,2.76536 1.84162,1.31726 3.48538,2.56459 3.6528,2.77185 0.16742,0.20726 2.35909,1.84981 4.87039,3.65011 2.51129,1.80029 4.70297,3.43329 4.87039,3.62889 0.16742,0.19559 2.77004,2.12 5.78359,4.27647 3.01356,2.15647 5.89013,4.2554 6.39239,4.6643 0.50226,0.40889 3.65279,2.76724 7.00119,5.24077 18.66992,13.79187 28.72894,21.26485 29.63877,22.019 0.56387,0.4674 1.79669,1.34107 2.7396,1.94151 0.9429,0.60043 1.85135,1.24404 2.01877,1.43025 0.16742,0.1862 1.81118,1.42122 3.6528,2.74448 1.84161,1.32326 3.87948,2.88949 4.52859,3.4805 0.6491,0.59102 1.38293,1.07458 1.63071,1.07458 0.24778,0 0.81254,0.35238 1.255,0.78306 0.44247,0.43069 1.90032,1.59346 3.23968,2.58394 1.33936,0.99047 2.57218,1.94844 2.7396,2.12881 0.16742,0.18038 1.81117,1.40914 3.65279,2.73058 1.84162,1.32144 3.71041,2.75069 4.15288,3.17611 0.44246,0.42541 1.00722,0.77348 1.255,0.77348 0.24778,0 0.98161,0.48355 1.63071,1.07457 0.64911,0.59102 2.68697,2.16216 4.52859,3.49142 1.84162,1.32926 3.87948,2.9004 4.52859,3.49142 0.64911,0.59102 1.38293,1.07457 1.63071,1.07457 0.24779,0 0.81254,0.34807 1.255,0.77348 0.44247,0.42542 2.31127,1.85467 4.15288,3.17611 1.84162,1.32144 3.48538,2.5678 3.6528,2.76968 0.63441,0.76498 7.30229,5.47566 9.48994,6.70439 1.98787,1.11652 2.48734,1.18067 3.85471,0.49511 1.55065,-0.77745 11.63469,-7.73906 12.22491,-8.43958 0.16742,-0.1987 2.77003,-2.12055 5.78359,-4.27076 3.01355,-2.15022 5.8412,-4.2606 6.28367,-4.68975 0.44247,-0.42915 1.00722,-0.78027 1.25501,-0.78027 0.24778,0 0.9816,-0.48356 1.63071,-1.07457 0.6491,-0.59102 2.68697,-2.16067 4.52858,-3.48812 1.84162,-1.32745 3.64213,-2.69311 4.00112,-3.03482 0.359,-0.3417 1.65843,-1.30618 2.88763,-2.14328 1.22921,-0.83709 2.23679,-1.72746 2.23908,-1.97859 0.002,-0.25113 0.34941,-0.4566 0.77138,-0.4566 0.42197,0 1.50585,-0.6849 2.40862,-1.522 0.90278,-0.8371 1.9045,-1.522 2.22605,-1.522 0.32154,0 0.67595,-0.23549 0.78757,-0.52331 0.11161,-0.28783 2.53159,-2.20389 5.37772,-4.25792 2.84614,-2.05403 7.77741,-5.64887 10.95838,-7.98854 3.18098,-2.33967 8.52319,-6.22772 11.87158,-8.64011 3.3484,-2.4124 6.22497,-4.54972 6.39239,-4.74961 0.16742,-0.19989 1.81118,-1.44462 3.6528,-2.76607 1.84161,-1.32144 3.71041,-2.75069 4.15288,-3.1761 0.44246,-0.42542 0.99038,-0.77382 1.2176,-0.77423 0.22721,-4.1e-4 1.17397,-0.65511 2.10391,-1.4549 0.92995,-0.79979 2.64032,-2.10076 3.80084,-2.89105 1.16052,-0.79029 2.1119,-1.64236 2.11419,-1.89349 0.002,-0.25113 0.29768,-0.4566 0.65644,-0.4566 0.35875,0 1.0133,-0.34245 1.45454,-0.761 0.44124,-0.41855 1.53486,-1.29183 2.43027,-1.94063 0.89541,-0.6488 2.2005,-1.67615 2.90021,-2.283 0.6997,-0.60685 1.45257,-1.10336 1.67304,-1.10336 0.22046,0 0.93194,-0.48356 1.58104,-1.07458 0.64911,-0.59101 2.68697,-2.16066 4.52859,-3.48811 1.84162,-1.32745 3.71041,-2.76161 4.15288,-3.18702 0.44246,-0.42541 1.00722,-0.77348 1.255,-0.77348 0.24779,0 0.98183,-0.47943 1.63121,-1.0654 0.64938,-0.58597 2.2763,-1.87901 3.61539,-2.87343 1.33909,-0.99442 2.70866,-2.02542 3.0435,-2.29111 0.33484,-0.26569 1.84162,-1.43563 3.34839,-2.59985 l 2.7396,-2.11677 6.80536,-0.006 c 6.73191,-0.006 6.84509,0.0178 10.48758,2.18758 4.65864,2.77514 7.37486,5.7827 10.08772,11.16971 2.11646,4.20274 2.14609,4.36745 2.14609,11.93025 0,5.33058 -0.23202,7.89647 -0.761,8.41584 -0.41855,0.41094 -4.97354,3.74738 -10.12221,7.4143 -5.14866,3.66692 -10.35389,7.40051 -11.56718,8.29686 -1.21328,0.89636 -6.0414,4.23272 -10.72915,7.41414 -4.68776,3.18142 -11.67373,8.00138 -15.52438,10.71102 -3.85065,2.70964 -7.48062,5.0899 -8.06659,5.28945 -0.58597,0.19956 -1.06539,0.54254 -1.06539,0.76218 0,0.21965 -0.95886,0.91573 -2.1308,1.54686 -1.17194,0.63113 -2.1308,1.37833 -2.1308,1.66044 0,0.28211 -0.26057,0.51293 -0.57905,0.51293 -0.31848,0 -6.41408,4.05891 -13.54578,9.01979 -7.1317,4.96089 -13.85709,9.54029 -14.94532,10.17645 -1.08823,0.63616 -1.9786,1.37155 -1.9786,1.63419 0,0.26265 -0.28552,0.47754 -0.63449,0.47754 -0.34897,0 -0.96538,0.28236 -1.3698,0.62747 -0.40442,0.34511 -6.89939,4.86045 -14.43328,10.03409 -7.53389,5.17364 -14.02887,9.68557 -14.43328,10.02651 -0.40442,0.34094 -1.02083,0.6199 -1.3698,0.6199 -0.34897,0 -0.63449,0.21166 -0.63449,0.47035 0,0.25869 -0.95886,0.98674 -2.1308,1.61787 -1.17194,0.63113 -2.1308,1.37833 -2.1308,1.66044 0,0.28211 -0.2654,0.51293 -0.5898,0.51293 -0.32438,0 -4.63925,2.83121 -9.58858,6.29156 -4.94933,3.46037 -11.3435,7.80374 -14.20926,9.65194 -2.86576,1.84821 -5.93535,4.08525 -6.82131,4.97122 -1.56754,1.56753 -4.71019,2.2361 -4.71019,1.00204 0,-0.33484 -0.38811,-0.6088 -0.86247,-0.6088 -0.47435,0 -0.95378,-0.20547 -1.0654,-0.4566 -0.11161,-0.25112 -2.80554,-2.22413 -5.98652,-4.38444 -3.18097,-2.16031 -5.87491,-4.14652 -5.98652,-4.41379 -0.11162,-0.26728 -0.42527,-0.48595 -0.69701,-0.48595 -0.27173,0 -9.30022,-6.16409 -20.0633,-13.69798 -10.76308,-7.53389 -19.80971,-13.69798 -20.10363,-13.69798 -0.29392,0 -0.62571,-0.22968 -0.73733,-0.51041 -0.27968,-0.70345 -18.66734,-13.49196 -19.3991,-13.49196 -0.32439,0 -0.5898,-0.2149 -0.5898,-0.47754 0,-0.26265 -0.89037,-0.9954 -1.97859,-1.62835 -1.08823,-0.63294 -2.11558,-1.31536 -2.283,-1.51648 -0.69054,-0.82954 -12.9064,-9.16241 -13.43195,-9.16241 -0.31373,0 -0.57043,-0.23082 -0.57043,-0.51293 0,-0.28212 -0.95886,-1.02931 -2.13079,-1.66044 -1.17194,-0.63113 -2.1308,-1.35918 -2.1308,-1.61787 0,-0.25869 -0.41094,-0.47036 -0.9132,-0.47036 -0.50226,0 -0.91385,-0.20547 -0.91464,-0.4566 -8e-4,-0.25112 -1.78154,-1.54378 -3.9572,-2.87256 -2.17566,-1.32878 -3.95575,-2.56778 -3.95575,-2.75335 0,-0.18556 -0.95885,-0.85377 -2.13079,-1.4849 -1.17194,-0.63113 -2.1308,-1.37833 -2.1308,-1.66044 0,-0.28211 -0.28552,-0.51293 -0.63449,-0.51293 -0.34898,0 -0.96538,-0.28579 -1.3698,-0.63508 -2.36032,-2.03861 -14.02958,-9.7145 -14.76846,-9.7145 -0.76664,0 -0.88242,11.58267 -0.88242,88.27585 v 88.27586 l -5.63139,-0.0772 c -3.09727,-0.0425 -7.27515,-0.2946 -9.284186,-0.56029 z"
           id="path209"
           transform="matrix(0.26458333,0,0,0.26458333,-0.51728922,8.337047)" /><path
           style="fill:none;fill-opacity:1;stroke:#beb41e;stroke-width:4.60195;stroke-linecap:butt;stroke-linejoin:round;stroke-dasharray:none;stroke-opacity:1;paint-order:stroke markers fill"
           d="m 374.12269,457.36026 0.0157,-87.21046 3.16988,-2.13079 c 1.74343,-1.17194 9.06479,-6.33474 16.26968,-11.47289 7.20488,-5.13815 13.26427,-9.44385 13.46529,-9.56821 0.35718,-0.22098 0.2471,40.81526 -0.3594,133.97331 -0.16568,25.4478 -0.55853,47.88004 -0.87302,49.84941 -0.79142,4.95606 -2.86531,7.31718 -9.54349,10.86519 l -5.41836,2.8787 -8.37099,0.0131 -8.37098,0.0131 z"
           id="path210"
           transform="matrix(0.26458333,0,0,0.26458333,-0.51728922,8.337047)" /></g><g
         id="g213"
         style="filter:url(#filter220)"><path
           style="fill:none;fill-opacity:1;stroke:#beb41e;stroke-width:9.20389;stroke-linecap:butt;stroke-linejoin:round;stroke-dasharray:none;stroke-opacity:1;paint-order:stroke markers fill"
           d="M 226.47323,672.57336 C 195.01661,670.79225 161.72855,661.29808 131.57798,645.50804 69.120632,612.79875 25.509436,557.53278 7.2973876,488.01438 -2.8771045,449.17665 -2.1338773,398.56519 9.1891478,359.19142 15.290786,337.97407 26.903613,311.81707 37.94921,294.41158 50.671915,274.36334 77.748779,244.9652 96.41767,230.93069 c 37.73542,-28.36797 78.83274,-44.07352 128.22917,-49.00345 17.71023,-1.76754 37.81367,-0.69718 60.61566,3.22735 76.9205,13.23906 142.30322,62.78106 176.93032,134.06419 8.19378,16.86766 17.42635,45.32418 20.67227,63.7158 3.34191,18.93554 4.53329,55.50519 2.3744,72.88308 -7.78582,62.67175 -36.64912,117.7917 -82.33426,157.23287 -49.94711,43.12064 -109.75533,63.29812 -176.432,59.52283 z M 399.3487,545.48392 c 5.33514,-2.74174 7.74288,-4.86753 9.65369,-8.52319 2.51625,-4.81398 2.54951,-6.06264 2.87016,-107.80299 l 0.32442,-102.9326 -3.36841,-6.6453 c -2.53574,-5.00256 -4.84971,-7.54974 -9.36063,-10.30401 l -5.99223,-3.65872 -148.96766,-0.31867 c -144.595076,-0.30932 -149.101552,-0.25037 -153.529078,2.00839 -6.107169,3.11564 -11.095006,8.22269 -13.809011,14.13905 -2.110123,4.59994 -2.23419,10.4824 -2.23419,105.93103 0,113.13888 -0.546776,105.98443 8.777335,114.84967 8.311262,7.90224 -0.899376,7.49137 161.111204,7.18704 l 147.41646,-0.27691 z"
           id="path211"
           transform="matrix(0.26458333,0,0,0.26458333,-0.51728922,8.337047)" /><path
           style="fill:none;fill-opacity:1;stroke:#beb41e;stroke-width:4.60195;stroke-linecap:butt;stroke-linejoin:round;stroke-dasharray:none;stroke-opacity:1;paint-order:stroke markers fill"
           d="m 96.799044,543.32444 c -2.009037,-0.26571 -4.355675,-0.75291 -5.214751,-1.08266 -2.560575,-0.9829 -8.279933,-6.62538 -9.300148,-9.17514 -0.521552,-1.30349 -1.223611,-5.61788 -1.560131,-9.58753 -0.787448,-9.28889 -1.201406,-96.16581 -0.729145,-153.02491 l 0.366601,-44.13793 1.646068,-3.51272 c 1.907286,-4.07016 6.576103,-8.89021 10.347539,-10.68272 1.893088,-0.89975 4.51321,-1.36176 9.466563,-1.66923 4.0357,-0.25052 6.84898,-0.19682 6.84898,0.13071 0,0.30573 0.89037,1.07373 1.9786,1.70667 1.08823,0.63295 2.11558,1.31747 2.283,1.52115 0.16742,0.20369 1.81117,1.4481 3.65279,2.76536 1.84162,1.31726 3.48538,2.56459 3.6528,2.77185 0.16742,0.20726 2.35909,1.84981 4.87039,3.65011 2.51129,1.80029 4.70297,3.43329 4.87039,3.62889 0.16742,0.19559 2.77004,2.12 5.78359,4.27647 3.01356,2.15647 5.89013,4.2554 6.39239,4.6643 0.50226,0.40889 3.65279,2.76724 7.00119,5.24077 18.66992,13.79187 28.72894,21.26485 29.63877,22.019 0.56387,0.4674 1.79669,1.34107 2.7396,1.94151 0.9429,0.60043 1.85135,1.24404 2.01877,1.43025 0.16742,0.1862 1.81118,1.42122 3.6528,2.74448 1.84161,1.32326 3.87948,2.88949 4.52859,3.4805 0.6491,0.59102 1.38293,1.07458 1.63071,1.07458 0.24778,0 0.81254,0.35238 1.255,0.78306 0.44247,0.43069 1.90032,1.59346 3.23968,2.58394 1.33936,0.99047 2.57218,1.94844 2.7396,2.12881 0.16742,0.18038 1.81117,1.40914 3.65279,2.73058 1.84162,1.32144 3.71041,2.75069 4.15288,3.17611 0.44246,0.42541 1.00722,0.77348 1.255,0.77348 0.24778,0 0.98161,0.48355 1.63071,1.07457 0.64911,0.59102 2.68697,2.16216 4.52859,3.49142 1.84162,1.32926 3.87948,2.9004 4.52859,3.49142 0.64911,0.59102 1.38293,1.07457 1.63071,1.07457 0.24779,0 0.81254,0.34807 1.255,0.77348 0.44247,0.42542 2.31127,1.85467 4.15288,3.17611 1.84162,1.32144 3.48538,2.5678 3.6528,2.76968 0.63441,0.76498 7.30229,5.47566 9.48994,6.70439 1.98787,1.11652 2.48734,1.18067 3.85471,0.49511 1.55065,-0.77745 11.63469,-7.73906 12.22491,-8.43958 0.16742,-0.1987 2.77003,-2.12055 5.78359,-4.27076 3.01355,-2.15022 5.8412,-4.2606 6.28367,-4.68975 0.44247,-0.42915 1.00722,-0.78027 1.25501,-0.78027 0.24778,0 0.9816,-0.48356 1.63071,-1.07457 0.6491,-0.59102 2.68697,-2.16067 4.52858,-3.48812 1.84162,-1.32745 3.64213,-2.69311 4.00112,-3.03482 0.359,-0.3417 1.65843,-1.30618 2.88763,-2.14328 1.22921,-0.83709 2.23679,-1.72746 2.23908,-1.97859 0.002,-0.25113 0.34941,-0.4566 0.77138,-0.4566 0.42197,0 1.50585,-0.6849 2.40862,-1.522 0.90278,-0.8371 1.9045,-1.522 2.22605,-1.522 0.32154,0 0.67595,-0.23549 0.78757,-0.52331 0.11161,-0.28783 2.53159,-2.20389 5.37772,-4.25792 2.84614,-2.05403 7.77741,-5.64887 10.95838,-7.98854 3.18098,-2.33967 8.52319,-6.22772 11.87158,-8.64011 3.3484,-2.4124 6.22497,-4.54972 6.39239,-4.74961 0.16742,-0.19989 1.81118,-1.44462 3.6528,-2.76607 1.84161,-1.32144 3.71041,-2.75069 4.15288,-3.1761 0.44246,-0.42542 0.99038,-0.77382 1.2176,-0.77423 0.22721,-4.1e-4 1.17397,-0.65511 2.10391,-1.4549 0.92995,-0.79979 2.64032,-2.10076 3.80084,-2.89105 1.16052,-0.79029 2.1119,-1.64236 2.11419,-1.89349 0.002,-0.25113 0.29768,-0.4566 0.65644,-0.4566 0.35875,0 1.0133,-0.34245 1.45454,-0.761 0.44124,-0.41855 1.53486,-1.29183 2.43027,-1.94063 0.89541,-0.6488 2.2005,-1.67615 2.90021,-2.283 0.6997,-0.60685 1.45257,-1.10336 1.67304,-1.10336 0.22046,0 0.93194,-0.48356 1.58104,-1.07458 0.64911,-0.59101 2.68697,-2.16066 4.52859,-3.48811 1.84162,-1.32745 3.71041,-2.76161 4.15288,-3.18702 0.44246,-0.42541 1.00722,-0.77348 1.255,-0.77348 0.24779,0 0.98183,-0.47943 1.63121,-1.0654 0.64938,-0.58597 2.2763,-1.87901 3.61539,-2.87343 1.33909,-0.99442 2.70866,-2.02542 3.0435,-2.29111 0.33484,-0.26569 1.84162,-1.43563 3.34839,-2.59985 l 2.7396,-2.11677 6.80536,-0.006 c 6.73191,-0.006 6.84509,0.0178 10.48758,2.18758 4.65864,2.77514 7.37486,5.7827 10.08772,11.16971 2.11646,4.20274 2.14609,4.36745 2.14609,11.93025 0,5.33058 -0.23202,7.89647 -0.761,8.41584 -0.41855,0.41094 -4.97354,3.74738 -10.12221,7.4143 -5.14866,3.66692 -10.35389,7.40051 -11.56718,8.29686 -1.21328,0.89636 -6.0414,4.23272 -10.72915,7.41414 -4.68776,3.18142 -11.67373,8.00138 -15.52438,10.71102 -3.85065,2.70964 -7.48062,5.0899 -8.06659,5.28945 -0.58597,0.19956 -1.06539,0.54254 -1.06539,0.76218 0,0.21965 -0.95886,0.91573 -2.1308,1.54686 -1.17194,0.63113 -2.1308,1.37833 -2.1308,1.66044 0,0.28211 -0.26057,0.51293 -0.57905,0.51293 -0.31848,0 -6.41408,4.05891 -13.54578,9.01979 -7.1317,4.96089 -13.85709,9.54029 -14.94532,10.17645 -1.08823,0.63616 -1.9786,1.37155 -1.9786,1.63419 0,0.26265 -0.28552,0.47754 -0.63449,0.47754 -0.34897,0 -0.96538,0.28236 -1.3698,0.62747 -0.40442,0.34511 -6.89939,4.86045 -14.43328,10.03409 -7.53389,5.17364 -14.02887,9.68557 -14.43328,10.02651 -0.40442,0.34094 -1.02083,0.6199 -1.3698,0.6199 -0.34897,0 -0.63449,0.21166 -0.63449,0.47035 0,0.25869 -0.95886,0.98674 -2.1308,1.61787 -1.17194,0.63113 -2.1308,1.37833 -2.1308,1.66044 0,0.28211 -0.2654,0.51293 -0.5898,0.51293 -0.32438,0 -4.63925,2.83121 -9.58858,6.29156 -4.94933,3.46037 -11.3435,7.80374 -14.20926,9.65194 -2.86576,1.84821 -5.93535,4.08525 -6.82131,4.97122 -1.56754,1.56753 -4.71019,2.2361 -4.71019,1.00204 0,-0.33484 -0.38811,-0.6088 -0.86247,-0.6088 -0.47435,0 -0.95378,-0.20547 -1.0654,-0.4566 -0.11161,-0.25112 -2.80554,-2.22413 -5.98652,-4.38444 -3.18097,-2.16031 -5.87491,-4.14652 -5.98652,-4.41379 -0.11162,-0.26728 -0.42527,-0.48595 -0.69701,-0.48595 -0.27173,0 -9.30022,-6.16409 -20.0633,-13.69798 -10.76308,-7.53389 -19.80971,-13.69798 -20.10363,-13.69798 -0.29392,0 -0.62571,-0.22968 -0.73733,-0.51041 -0.27968,-0.70345 -18.66734,-13.49196 -19.3991,-13.49196 -0.32439,0 -0.5898,-0.2149 -0.5898,-0.47754 0,-0.26265 -0.89037,-0.9954 -1.97859,-1.62835 -1.08823,-0.63294 -2.11558,-1.31536 -2.283,-1.51648 -0.69054,-0.82954 -12.9064,-9.16241 -13.43195,-9.16241 -0.31373,0 -0.57043,-0.23082 -0.57043,-0.51293 0,-0.28212 -0.95886,-1.02931 -2.13079,-1.66044 -1.17194,-0.63113 -2.1308,-1.35918 -2.1308,-1.61787 0,-0.25869 -0.41094,-0.47036 -0.9132,-0.47036 -0.50226,0 -0.91385,-0.20547 -0.91464,-0.4566 -8e-4,-0.25112 -1.78154,-1.54378 -3.9572,-2.87256 -2.17566,-1.32878 -3.95575,-2.56778 -3.95575,-2.75335 0,-0.18556 -0.95885,-0.85377 -2.13079,-1.4849 -1.17194,-0.63113 -2.1308,-1.37833 -2.1308,-1.66044 0,-0.28211 -0.28552,-0.51293 -0.63449,-0.51293 -0.34898,0 -0.96538,-0.28579 -1.3698,-0.63508 -2.36032,-2.03861 -14.02958,-9.7145 -14.76846,-9.7145 -0.76664,0 -0.88242,11.58267 -0.88242,88.27585 v 88.27586 l -5.63139,-0.0772 c -3.09727,-0.0425 -7.27515,-0.2946 -9.284186,-0.56029 z"
           id="path212"
           transform="matrix(0.26458333,0,0,0.26458333,-0.51728922,8.337047)" /><path
           style="fill:none;fill-opacity:1;stroke:#beb41e;stroke-width:4.60195;stroke-linecap:butt;stroke-linejoin:round;stroke-dasharray:none;stroke-opacity:1;paint-order:stroke markers fill"
           d="m 374.12269,457.36026 0.0157,-87.21046 3.16988,-2.13079 c 1.74343,-1.17194 9.06479,-6.33474 16.26968,-11.47289 7.20488,-5.13815 13.26427,-9.44385 13.46529,-9.56821 0.35718,-0.22098 0.2471,40.81526 -0.3594,133.97331 -0.16568,25.4478 -0.55853,47.88004 -0.87302,49.84941 -0.79142,4.95606 -2.86531,7.31718 -9.54349,10.86519 l -5.41836,2.8787 -8.37099,0.0131 -8.37098,0.0131 z"
           id="path213"
           transform="matrix(0.26458333,0,0,0.26458333,-0.51728922,8.337047)" /></g><g
         id="g216"
         style="filter:url(#filter219)"><path
           style="fill:none;fill-opacity:1;stroke:#beb41e;stroke-width:9.20389;stroke-linecap:butt;stroke-linejoin:round;stroke-dasharray:none;stroke-opacity:1;paint-order:stroke markers fill"
           d="M 226.47323,672.57336 C 195.01661,670.79225 161.72855,661.29808 131.57798,645.50804 69.120632,612.79875 25.509436,557.53278 7.2973876,488.01438 -2.8771045,449.17665 -2.1338773,398.56519 9.1891478,359.19142 15.290786,337.97407 26.903613,311.81707 37.94921,294.41158 50.671915,274.36334 77.748779,244.9652 96.41767,230.93069 c 37.73542,-28.36797 78.83274,-44.07352 128.22917,-49.00345 17.71023,-1.76754 37.81367,-0.69718 60.61566,3.22735 76.9205,13.23906 142.30322,62.78106 176.93032,134.06419 8.19378,16.86766 17.42635,45.32418 20.67227,63.7158 3.34191,18.93554 4.53329,55.50519 2.3744,72.88308 -7.78582,62.67175 -36.64912,117.7917 -82.33426,157.23287 -49.94711,43.12064 -109.75533,63.29812 -176.432,59.52283 z M 399.3487,545.48392 c 5.33514,-2.74174 7.74288,-4.86753 9.65369,-8.52319 2.51625,-4.81398 2.54951,-6.06264 2.87016,-107.80299 l 0.32442,-102.9326 -3.36841,-6.6453 c -2.53574,-5.00256 -4.84971,-7.54974 -9.36063,-10.30401 l -5.99223,-3.65872 -148.96766,-0.31867 c -144.595076,-0.30932 -149.101552,-0.25037 -153.529078,2.00839 -6.107169,3.11564 -11.095006,8.22269 -13.809011,14.13905 -2.110123,4.59994 -2.23419,10.4824 -2.23419,105.93103 0,113.13888 -0.546776,105.98443 8.777335,114.84967 8.311262,7.90224 -0.899376,7.49137 161.111204,7.18704 l 147.41646,-0.27691 z"
           id="path214"
           transform="matrix(0.26458333,0,0,0.26458333,-0.51728922,8.337047)" /><path
           style="fill:none;fill-opacity:1;stroke:#beb41e;stroke-width:4.60195;stroke-linecap:butt;stroke-linejoin:round;stroke-dasharray:none;stroke-opacity:1;paint-order:stroke markers fill"
           d="m 96.799044,543.32444 c -2.009037,-0.26571 -4.355675,-0.75291 -5.214751,-1.08266 -2.560575,-0.9829 -8.279933,-6.62538 -9.300148,-9.17514 -0.521552,-1.30349 -1.223611,-5.61788 -1.560131,-9.58753 -0.787448,-9.28889 -1.201406,-96.16581 -0.729145,-153.02491 l 0.366601,-44.13793 1.646068,-3.51272 c 1.907286,-4.07016 6.576103,-8.89021 10.347539,-10.68272 1.893088,-0.89975 4.51321,-1.36176 9.466563,-1.66923 4.0357,-0.25052 6.84898,-0.19682 6.84898,0.13071 0,0.30573 0.89037,1.07373 1.9786,1.70667 1.08823,0.63295 2.11558,1.31747 2.283,1.52115 0.16742,0.20369 1.81117,1.4481 3.65279,2.76536 1.84162,1.31726 3.48538,2.56459 3.6528,2.77185 0.16742,0.20726 2.35909,1.84981 4.87039,3.65011 2.51129,1.80029 4.70297,3.43329 4.87039,3.62889 0.16742,0.19559 2.77004,2.12 5.78359,4.27647 3.01356,2.15647 5.89013,4.2554 6.39239,4.6643 0.50226,0.40889 3.65279,2.76724 7.00119,5.24077 18.66992,13.79187 28.72894,21.26485 29.63877,22.019 0.56387,0.4674 1.79669,1.34107 2.7396,1.94151 0.9429,0.60043 1.85135,1.24404 2.01877,1.43025 0.16742,0.1862 1.81118,1.42122 3.6528,2.74448 1.84161,1.32326 3.87948,2.88949 4.52859,3.4805 0.6491,0.59102 1.38293,1.07458 1.63071,1.07458 0.24778,0 0.81254,0.35238 1.255,0.78306 0.44247,0.43069 1.90032,1.59346 3.23968,2.58394 1.33936,0.99047 2.57218,1.94844 2.7396,2.12881 0.16742,0.18038 1.81117,1.40914 3.65279,2.73058 1.84162,1.32144 3.71041,2.75069 4.15288,3.17611 0.44246,0.42541 1.00722,0.77348 1.255,0.77348 0.24778,0 0.98161,0.48355 1.63071,1.07457 0.64911,0.59102 2.68697,2.16216 4.52859,3.49142 1.84162,1.32926 3.87948,2.9004 4.52859,3.49142 0.64911,0.59102 1.38293,1.07457 1.63071,1.07457 0.24779,0 0.81254,0.34807 1.255,0.77348 0.44247,0.42542 2.31127,1.85467 4.15288,3.17611 1.84162,1.32144 3.48538,2.5678 3.6528,2.76968 0.63441,0.76498 7.30229,5.47566 9.48994,6.70439 1.98787,1.11652 2.48734,1.18067 3.85471,0.49511 1.55065,-0.77745 11.63469,-7.73906 12.22491,-8.43958 0.16742,-0.1987 2.77003,-2.12055 5.78359,-4.27076 3.01355,-2.15022 5.8412,-4.2606 6.28367,-4.68975 0.44247,-0.42915 1.00722,-0.78027 1.25501,-0.78027 0.24778,0 0.9816,-0.48356 1.63071,-1.07457 0.6491,-0.59102 2.68697,-2.16067 4.52858,-3.48812 1.84162,-1.32745 3.64213,-2.69311 4.00112,-3.03482 0.359,-0.3417 1.65843,-1.30618 2.88763,-2.14328 1.22921,-0.83709 2.23679,-1.72746 2.23908,-1.97859 0.002,-0.25113 0.34941,-0.4566 0.77138,-0.4566 0.42197,0 1.50585,-0.6849 2.40862,-1.522 0.90278,-0.8371 1.9045,-1.522 2.22605,-1.522 0.32154,0 0.67595,-0.23549 0.78757,-0.52331 0.11161,-0.28783 2.53159,-2.20389 5.37772,-4.25792 2.84614,-2.05403 7.77741,-5.64887 10.95838,-7.98854 3.18098,-2.33967 8.52319,-6.22772 11.87158,-8.64011 3.3484,-2.4124 6.22497,-4.54972 6.39239,-4.74961 0.16742,-0.19989 1.81118,-1.44462 3.6528,-2.76607 1.84161,-1.32144 3.71041,-2.75069 4.15288,-3.1761 0.44246,-0.42542 0.99038,-0.77382 1.2176,-0.77423 0.22721,-4.1e-4 1.17397,-0.65511 2.10391,-1.4549 0.92995,-0.79979 2.64032,-2.10076 3.80084,-2.89105 1.16052,-0.79029 2.1119,-1.64236 2.11419,-1.89349 0.002,-0.25113 0.29768,-0.4566 0.65644,-0.4566 0.35875,0 1.0133,-0.34245 1.45454,-0.761 0.44124,-0.41855 1.53486,-1.29183 2.43027,-1.94063 0.89541,-0.6488 2.2005,-1.67615 2.90021,-2.283 0.6997,-0.60685 1.45257,-1.10336 1.67304,-1.10336 0.22046,0 0.93194,-0.48356 1.58104,-1.07458 0.64911,-0.59101 2.68697,-2.16066 4.52859,-3.48811 1.84162,-1.32745 3.71041,-2.76161 4.15288,-3.18702 0.44246,-0.42541 1.00722,-0.77348 1.255,-0.77348 0.24779,0 0.98183,-0.47943 1.63121,-1.0654 0.64938,-0.58597 2.2763,-1.87901 3.61539,-2.87343 1.33909,-0.99442 2.70866,-2.02542 3.0435,-2.29111 0.33484,-0.26569 1.84162,-1.43563 3.34839,-2.59985 l 2.7396,-2.11677 6.80536,-0.006 c 6.73191,-0.006 6.84509,0.0178 10.48758,2.18758 4.65864,2.77514 7.37486,5.7827 10.08772,11.16971 2.11646,4.20274 2.14609,4.36745 2.14609,11.93025 0,5.33058 -0.23202,7.89647 -0.761,8.41584 -0.41855,0.41094 -4.97354,3.74738 -10.12221,7.4143 -5.14866,3.66692 -10.35389,7.40051 -11.56718,8.29686 -1.21328,0.89636 -6.0414,4.23272 -10.72915,7.41414 -4.68776,3.18142 -11.67373,8.00138 -15.52438,10.71102 -3.85065,2.70964 -7.48062,5.0899 -8.06659,5.28945 -0.58597,0.19956 -1.06539,0.54254 -1.06539,0.76218 0,0.21965 -0.95886,0.91573 -2.1308,1.54686 -1.17194,0.63113 -2.1308,1.37833 -2.1308,1.66044 0,0.28211 -0.26057,0.51293 -0.57905,0.51293 -0.31848,0 -6.41408,4.05891 -13.54578,9.01979 -7.1317,4.96089 -13.85709,9.54029 -14.94532,10.17645 -1.08823,0.63616 -1.9786,1.37155 -1.9786,1.63419 0,0.26265 -0.28552,0.47754 -0.63449,0.47754 -0.34897,0 -0.96538,0.28236 -1.3698,0.62747 -0.40442,0.34511 -6.89939,4.86045 -14.43328,10.03409 -7.53389,5.17364 -14.02887,9.68557 -14.43328,10.02651 -0.40442,0.34094 -1.02083,0.6199 -1.3698,0.6199 -0.34897,0 -0.63449,0.21166 -0.63449,0.47035 0,0.25869 -0.95886,0.98674 -2.1308,1.61787 -1.17194,0.63113 -2.1308,1.37833 -2.1308,1.66044 0,0.28211 -0.2654,0.51293 -0.5898,0.51293 -0.32438,0 -4.63925,2.83121 -9.58858,6.29156 -4.94933,3.46037 -11.3435,7.80374 -14.20926,9.65194 -2.86576,1.84821 -5.93535,4.08525 -6.82131,4.97122 -1.56754,1.56753 -4.71019,2.2361 -4.71019,1.00204 0,-0.33484 -0.38811,-0.6088 -0.86247,-0.6088 -0.47435,0 -0.95378,-0.20547 -1.0654,-0.4566 -0.11161,-0.25112 -2.80554,-2.22413 -5.98652,-4.38444 -3.18097,-2.16031 -5.87491,-4.14652 -5.98652,-4.41379 -0.11162,-0.26728 -0.42527,-0.48595 -0.69701,-0.48595 -0.27173,0 -9.30022,-6.16409 -20.0633,-13.69798 -10.76308,-7.53389 -19.80971,-13.69798 -20.10363,-13.69798 -0.29392,0 -0.62571,-0.22968 -0.73733,-0.51041 -0.27968,-0.70345 -18.66734,-13.49196 -19.3991,-13.49196 -0.32439,0 -0.5898,-0.2149 -0.5898,-0.47754 0,-0.26265 -0.89037,-0.9954 -1.97859,-1.62835 -1.08823,-0.63294 -2.11558,-1.31536 -2.283,-1.51648 -0.69054,-0.82954 -12.9064,-9.16241 -13.43195,-9.16241 -0.31373,0 -0.57043,-0.23082 -0.57043,-0.51293 0,-0.28212 -0.95886,-1.02931 -2.13079,-1.66044 -1.17194,-0.63113 -2.1308,-1.35918 -2.1308,-1.61787 0,-0.25869 -0.41094,-0.47036 -0.9132,-0.47036 -0.50226,0 -0.91385,-0.20547 -0.91464,-0.4566 -8e-4,-0.25112 -1.78154,-1.54378 -3.9572,-2.87256 -2.17566,-1.32878 -3.95575,-2.56778 -3.95575,-2.75335 0,-0.18556 -0.95885,-0.85377 -2.13079,-1.4849 -1.17194,-0.63113 -2.1308,-1.37833 -2.1308,-1.66044 0,-0.28211 -0.28552,-0.51293 -0.63449,-0.51293 -0.34898,0 -0.96538,-0.28579 -1.3698,-0.63508 -2.36032,-2.03861 -14.02958,-9.7145 -14.76846,-9.7145 -0.76664,0 -0.88242,11.58267 -0.88242,88.27585 v 88.27586 l -5.63139,-0.0772 c -3.09727,-0.0425 -7.27515,-0.2946 -9.284186,-0.56029 z"
           id="path215"
           transform="matrix(0.26458333,0,0,0.26458333,-0.51728922,8.337047)" /><path
           style="fill:none;fill-opacity:1;stroke:#beb41e;stroke-width:4.60195;stroke-linecap:butt;stroke-linejoin:round;stroke-dasharray:none;stroke-opacity:1;paint-order:stroke markers fill"
           d="m 374.12269,457.36026 0.0157,-87.21046 3.16988,-2.13079 c 1.74343,-1.17194 9.06479,-6.33474 16.26968,-11.47289 7.20488,-5.13815 13.26427,-9.44385 13.46529,-9.56821 0.35718,-0.22098 0.2471,40.81526 -0.3594,133.97331 -0.16568,25.4478 -0.55853,47.88004 -0.87302,49.84941 -0.79142,4.95606 -2.86531,7.31718 -9.54349,10.86519 l -5.41836,2.8787 -8.37099,0.0131 -8.37098,0.0131 z"
           id="path216"
           transform="matrix(0.26458333,0,0,0.26458333,-0.51728922,8.337047)" /></g><g
         id="g219"><path
           style="fill:none;fill-opacity:1;stroke:#beb41e;stroke-width:9.20389;stroke-linecap:butt;stroke-linejoin:round;stroke-dasharray:none;stroke-opacity:1;paint-order:stroke markers fill"
           d="M 226.47323,672.57336 C 195.01661,670.79225 161.72855,661.29808 131.57798,645.50804 69.120632,612.79875 25.509436,557.53278 7.2973876,488.01438 -2.8771045,449.17665 -2.1338773,398.56519 9.1891478,359.19142 15.290786,337.97407 26.903613,311.81707 37.94921,294.41158 50.671915,274.36334 77.748779,244.9652 96.41767,230.93069 c 37.73542,-28.36797 78.83274,-44.07352 128.22917,-49.00345 17.71023,-1.76754 37.81367,-0.69718 60.61566,3.22735 76.9205,13.23906 142.30322,62.78106 176.93032,134.06419 8.19378,16.86766 17.42635,45.32418 20.67227,63.7158 3.34191,18.93554 4.53329,55.50519 2.3744,72.88308 -7.78582,62.67175 -36.64912,117.7917 -82.33426,157.23287 -49.94711,43.12064 -109.75533,63.29812 -176.432,59.52283 z M 399.3487,545.48392 c 5.33514,-2.74174 7.74288,-4.86753 9.65369,-8.52319 2.51625,-4.81398 2.54951,-6.06264 2.87016,-107.80299 l 0.32442,-102.9326 -3.36841,-6.6453 c -2.53574,-5.00256 -4.84971,-7.54974 -9.36063,-10.30401 l -5.99223,-3.65872 -148.96766,-0.31867 c -144.595076,-0.30932 -149.101552,-0.25037 -153.529078,2.00839 -6.107169,3.11564 -11.095006,8.22269 -13.809011,14.13905 -2.110123,4.59994 -2.23419,10.4824 -2.23419,105.93103 0,113.13888 -0.546776,105.98443 8.777335,114.84967 8.311262,7.90224 -0.899376,7.49137 161.111204,7.18704 l 147.41646,-0.27691 z"
           id="path217"
           transform="matrix(0.26458333,0,0,0.26458333,-0.51728922,8.337047)" /><path
           style="fill:none;fill-opacity:1;stroke:#beb41e;stroke-width:4.60195;stroke-linecap:butt;stroke-linejoin:round;stroke-dasharray:none;stroke-opacity:1;paint-order:stroke markers fill"
           d="m 96.799044,543.32444 c -2.009037,-0.26571 -4.355675,-0.75291 -5.214751,-1.08266 -2.560575,-0.9829 -8.279933,-6.62538 -9.300148,-9.17514 -0.521552,-1.30349 -1.223611,-5.61788 -1.560131,-9.58753 -0.787448,-9.28889 -1.201406,-96.16581 -0.729145,-153.02491 l 0.366601,-44.13793 1.646068,-3.51272 c 1.907286,-4.07016 6.576103,-8.89021 10.347539,-10.68272 1.893088,-0.89975 4.51321,-1.36176 9.466563,-1.66923 4.0357,-0.25052 6.84898,-0.19682 6.84898,0.13071 0,0.30573 0.89037,1.07373 1.9786,1.70667 1.08823,0.63295 2.11558,1.31747 2.283,1.52115 0.16742,0.20369 1.81117,1.4481 3.65279,2.76536 1.84162,1.31726 3.48538,2.56459 3.6528,2.77185 0.16742,0.20726 2.35909,1.84981 4.87039,3.65011 2.51129,1.80029 4.70297,3.43329 4.87039,3.62889 0.16742,0.19559 2.77004,2.12 5.78359,4.27647 3.01356,2.15647 5.89013,4.2554 6.39239,4.6643 0.50226,0.40889 3.65279,2.76724 7.00119,5.24077 18.66992,13.79187 28.72894,21.26485 29.63877,22.019 0.56387,0.4674 1.79669,1.34107 2.7396,1.94151 0.9429,0.60043 1.85135,1.24404 2.01877,1.43025 0.16742,0.1862 1.81118,1.42122 3.6528,2.74448 1.84161,1.32326 3.87948,2.88949 4.52859,3.4805 0.6491,0.59102 1.38293,1.07458 1.63071,1.07458 0.24778,0 0.81254,0.35238 1.255,0.78306 0.44247,0.43069 1.90032,1.59346 3.23968,2.58394 1.33936,0.99047 2.57218,1.94844 2.7396,2.12881 0.16742,0.18038 1.81117,1.40914 3.65279,2.73058 1.84162,1.32144 3.71041,2.75069 4.15288,3.17611 0.44246,0.42541 1.00722,0.77348 1.255,0.77348 0.24778,0 0.98161,0.48355 1.63071,1.07457 0.64911,0.59102 2.68697,2.16216 4.52859,3.49142 1.84162,1.32926 3.87948,2.9004 4.52859,3.49142 0.64911,0.59102 1.38293,1.07457 1.63071,1.07457 0.24779,0 0.81254,0.34807 1.255,0.77348 0.44247,0.42542 2.31127,1.85467 4.15288,3.17611 1.84162,1.32144 3.48538,2.5678 3.6528,2.76968 0.63441,0.76498 7.30229,5.47566 9.48994,6.70439 1.98787,1.11652 2.48734,1.18067 3.85471,0.49511 1.55065,-0.77745 11.63469,-7.73906 12.22491,-8.43958 0.16742,-0.1987 2.77003,-2.12055 5.78359,-4.27076 3.01355,-2.15022 5.8412,-4.2606 6.28367,-4.68975 0.44247,-0.42915 1.00722,-0.78027 1.25501,-0.78027 0.24778,0 0.9816,-0.48356 1.63071,-1.07457 0.6491,-0.59102 2.68697,-2.16067 4.52858,-3.48812 1.84162,-1.32745 3.64213,-2.69311 4.00112,-3.03482 0.359,-0.3417 1.65843,-1.30618 2.88763,-2.14328 1.22921,-0.83709 2.23679,-1.72746 2.23908,-1.97859 0.002,-0.25113 0.34941,-0.4566 0.77138,-0.4566 0.42197,0 1.50585,-0.6849 2.40862,-1.522 0.90278,-0.8371 1.9045,-1.522 2.22605,-1.522 0.32154,0 0.67595,-0.23549 0.78757,-0.52331 0.11161,-0.28783 2.53159,-2.20389 5.37772,-4.25792 2.84614,-2.05403 7.77741,-5.64887 10.95838,-7.98854 3.18098,-2.33967 8.52319,-6.22772 11.87158,-8.64011 3.3484,-2.4124 6.22497,-4.54972 6.39239,-4.74961 0.16742,-0.19989 1.81118,-1.44462 3.6528,-2.76607 1.84161,-1.32144 3.71041,-2.75069 4.15288,-3.1761 0.44246,-0.42542 0.99038,-0.77382 1.2176,-0.77423 0.22721,-4.1e-4 1.17397,-0.65511 2.10391,-1.4549 0.92995,-0.79979 2.64032,-2.10076 3.80084,-2.89105 1.16052,-0.79029 2.1119,-1.64236 2.11419,-1.89349 0.002,-0.25113 0.29768,-0.4566 0.65644,-0.4566 0.35875,0 1.0133,-0.34245 1.45454,-0.761 0.44124,-0.41855 1.53486,-1.29183 2.43027,-1.94063 0.89541,-0.6488 2.2005,-1.67615 2.90021,-2.283 0.6997,-0.60685 1.45257,-1.10336 1.67304,-1.10336 0.22046,0 0.93194,-0.48356 1.58104,-1.07458 0.64911,-0.59101 2.68697,-2.16066 4.52859,-3.48811 1.84162,-1.32745 3.71041,-2.76161 4.15288,-3.18702 0.44246,-0.42541 1.00722,-0.77348 1.255,-0.77348 0.24779,0 0.98183,-0.47943 1.63121,-1.0654 0.64938,-0.58597 2.2763,-1.87901 3.61539,-2.87343 1.33909,-0.99442 2.70866,-2.02542 3.0435,-2.29111 0.33484,-0.26569 1.84162,-1.43563 3.34839,-2.59985 l 2.7396,-2.11677 6.80536,-0.006 c 6.73191,-0.006 6.84509,0.0178 10.48758,2.18758 4.65864,2.77514 7.37486,5.7827 10.08772,11.16971 2.11646,4.20274 2.14609,4.36745 2.14609,11.93025 0,5.33058 -0.23202,7.89647 -0.761,8.41584 -0.41855,0.41094 -4.97354,3.74738 -10.12221,7.4143 -5.14866,3.66692 -10.35389,7.40051 -11.56718,8.29686 -1.21328,0.89636 -6.0414,4.23272 -10.72915,7.41414 -4.68776,3.18142 -11.67373,8.00138 -15.52438,10.71102 -3.85065,2.70964 -7.48062,5.0899 -8.06659,5.28945 -0.58597,0.19956 -1.06539,0.54254 -1.06539,0.76218 0,0.21965 -0.95886,0.91573 -2.1308,1.54686 -1.17194,0.63113 -2.1308,1.37833 -2.1308,1.66044 0,0.28211 -0.26057,0.51293 -0.57905,0.51293 -0.31848,0 -6.41408,4.05891 -13.54578,9.01979 -7.1317,4.96089 -13.85709,9.54029 -14.94532,10.17645 -1.08823,0.63616 -1.9786,1.37155 -1.9786,1.63419 0,0.26265 -0.28552,0.47754 -0.63449,0.47754 -0.34897,0 -0.96538,0.28236 -1.3698,0.62747 -0.40442,0.34511 -6.89939,4.86045 -14.43328,10.03409 -7.53389,5.17364 -14.02887,9.68557 -14.43328,10.02651 -0.40442,0.34094 -1.02083,0.6199 -1.3698,0.6199 -0.34897,0 -0.63449,0.21166 -0.63449,0.47035 0,0.25869 -0.95886,0.98674 -2.1308,1.61787 -1.17194,0.63113 -2.1308,1.37833 -2.1308,1.66044 0,0.28211 -0.2654,0.51293 -0.5898,0.51293 -0.32438,0 -4.63925,2.83121 -9.58858,6.29156 -4.94933,3.46037 -11.3435,7.80374 -14.20926,9.65194 -2.86576,1.84821 -5.93535,4.08525 -6.82131,4.97122 -1.56754,1.56753 -4.71019,2.2361 -4.71019,1.00204 0,-0.33484 -0.38811,-0.6088 -0.86247,-0.6088 -0.47435,0 -0.95378,-0.20547 -1.0654,-0.4566 -0.11161,-0.25112 -2.80554,-2.22413 -5.98652,-4.38444 -3.18097,-2.16031 -5.87491,-4.14652 -5.98652,-4.41379 -0.11162,-0.26728 -0.42527,-0.48595 -0.69701,-0.48595 -0.27173,0 -9.30022,-6.16409 -20.0633,-13.69798 -10.76308,-7.53389 -19.80971,-13.69798 -20.10363,-13.69798 -0.29392,0 -0.62571,-0.22968 -0.73733,-0.51041 -0.27968,-0.70345 -18.66734,-13.49196 -19.3991,-13.49196 -0.32439,0 -0.5898,-0.2149 -0.5898,-0.47754 0,-0.26265 -0.89037,-0.9954 -1.97859,-1.62835 -1.08823,-0.63294 -2.11558,-1.31536 -2.283,-1.51648 -0.69054,-0.82954 -12.9064,-9.16241 -13.43195,-9.16241 -0.31373,0 -0.57043,-0.23082 -0.57043,-0.51293 0,-0.28212 -0.95886,-1.02931 -2.13079,-1.66044 -1.17194,-0.63113 -2.1308,-1.35918 -2.1308,-1.61787 0,-0.25869 -0.41094,-0.47036 -0.9132,-0.47036 -0.50226,0 -0.91385,-0.20547 -0.91464,-0.4566 -8e-4,-0.25112 -1.78154,-1.54378 -3.9572,-2.87256 -2.17566,-1.32878 -3.95575,-2.56778 -3.95575,-2.75335 0,-0.18556 -0.95885,-0.85377 -2.13079,-1.4849 -1.17194,-0.63113 -2.1308,-1.37833 -2.1308,-1.66044 0,-0.28211 -0.28552,-0.51293 -0.63449,-0.51293 -0.34898,0 -0.96538,-0.28579 -1.3698,-0.63508 -2.36032,-2.03861 -14.02958,-9.7145 -14.76846,-9.7145 -0.76664,0 -0.88242,11.58267 -0.88242,88.27585 v 88.27586 l -5.63139,-0.0772 c -3.09727,-0.0425 -7.27515,-0.2946 -9.284186,-0.56029 z"
           id="path218"
           transform="matrix(0.26458333,0,0,0.26458333,-0.51728922,8.337047)" /><path
           style="fill:none;fill-opacity:1;stroke:#beb41e;stroke-width:4.60195;stroke-linecap:butt;stroke-linejoin:round;stroke-dasharray:none;stroke-opacity:1;paint-order:stroke markers fill"
           d="m 374.12269,457.36026 0.0157,-87.21046 3.16988,-2.13079 c 1.74343,-1.17194 9.06479,-6.33474 16.26968,-11.47289 7.20488,-5.13815 13.26427,-9.44385 13.46529,-9.56821 0.35718,-0.22098 0.2471,40.81526 -0.3594,133.97331 -0.16568,25.4478 -0.55853,47.88004 -0.87302,49.84941 -0.79142,4.95606 -2.86531,7.31718 -9.54349,10.86519 l -5.41836,2.8787 -8.37099,0.0131 -8.37098,0.0131 z"
           id="path219"
           transform="matrix(0.26458333,0,0,0.26458333,-0.51728922,8.337047)" /></g></g></g></svg>
