<?xml version="1.0" encoding="UTF-8" standalone="no"?>
<!-- Created with Inkscape (http://www.inkscape.org/) -->

<svg
   width="141.77962mm"
   height="131.21095mm"
   viewBox="0 0 141.77962 131.21095"
   version="1.1"
   id="svg1"
   xml:space="preserve"
   xmlns:inkscape="http://www.inkscape.org/namespaces/inkscape"
   xmlns:sodipodi="http://sodipodi.sourceforge.net/DTD/sodipodi-0.dtd"
   xmlns="http://www.w3.org/2000/svg"
   xmlns:svg="http://www.w3.org/2000/svg"><sodipodi:namedview
     id="namedview1"
     pagecolor="#505050"
     bordercolor="#eeeeee"
     borderopacity="1"
     inkscape:showpageshadow="0"
     inkscape:pageopacity="0"
     inkscape:pagecheckerboard="0"
     inkscape:deskcolor="#505050"
     inkscape:document-units="mm" /><defs
     id="defs1"><filter
       inkscape:collect="always"
       style="color-interpolation-filters:sRGB"
       id="filter9"
       x="-0.029715759"
       y="-0.032453389"
       width="1.0594863"
       height="1.0648948"><feGaussianBlur
         inkscape:collect="always"
         stdDeviation="5.2566515"
         id="feGaussianBlur9" /></filter><filter
       inkscape:collect="always"
       style="color-interpolation-filters:sRGB"
       id="filter10"
       x="-0.049854106"
       y="-0.054392079"
       width="1.099763"
       height="1.1087721"><feGaussianBlur
         inkscape:collect="always"
         stdDeviation="9.3451582"
         id="feGaussianBlur10" /></filter></defs><g
     inkscape:label="Layer 1"
     inkscape:groupmode="layer"
     id="layer1"
     transform="translate(-34.1347,-82.849018)"><path
       id="path7"
       style="fill:none;stroke:#beaa1e;stroke-width:3.77953;stroke-linejoin:round;stroke-dasharray:none;stroke-opacity:1;paint-order:stroke markers fill;filter:url(#filter10)"
       transform="scale(0.26458333)"
       d="m 332.29668,701.31908 c -0.69751,-0.18771 -2.00321,-1.23257 -2.00321,-1.60304 0,-0.17703 -0.12208,-0.36257 -0.2713,-0.41231 -0.14921,-0.0497 -0.31957,-0.67254 -0.37857,-1.38401 -0.0825,-0.99514 -0.0199,-1.36606 0.2713,-1.60776 0.20821,-0.1728 0.37857,-0.40725 0.37857,-0.521 0,-0.41347 0.89886,-1.091 1.67727,-1.26428 0.4385,-0.0976 2.78576,-0.2242 5.21612,-0.2813 l 4.41884,-0.10383 v 2.67752 c 0,2.77905 -0.28179,3.94462 -0.95447,3.94801 -0.20091,0.001 -0.49724,0.13379 -0.65852,0.29506 -0.30262,0.30262 -6.729,0.51717 -7.69603,0.25694 z m 34.9972,-0.31449 c -0.19443,-0.12565 -0.64162,-0.23008 -0.99375,-0.23207 -0.61358,-0.003 -2.30565,-1.38109 -2.30565,-1.87719 0,-0.1145 -0.13256,-0.25237 -0.29459,-0.30638 -0.42812,-0.1427 -0.42812,-13.64407 0,-13.78677 0.16203,-0.054 0.29459,-0.19541 0.29459,-0.31423 0,-0.24449 0.86274,-1.15872 1.09346,-1.15872 0.0829,0 0.26851,-0.15026 0.41242,-0.33392 0.45488,-0.5805 5.30703,-0.59666 5.8841,-0.0196 0.19443,0.19443 0.41411,0.35351 0.48818,0.35351 0.22825,0 1.07735,0.9287 1.07735,1.17836 0,0.12962 0.0942,0.23567 0.20945,0.23567 0.11519,0 0.27907,0.37118 0.36418,0.82485 0.0851,0.45367 0.25599,0.82485 0.37974,0.82485 0.2947,0 0.30203,10.52978 0.007,10.71184 -0.11965,0.074 -0.28846,0.45733 -0.37513,0.85197 -0.23833,1.08511 -2.02391,2.81214 -2.90747,2.81214 -0.39277,0 -0.77967,0.10606 -0.85978,0.23568 -0.18599,0.30093 -2.00889,0.30093 -2.47455,0 z m 147.8838,21.28106 v -35.82779 l 21.4461,-28.62399 21.4461,-28.62398 0.23793,42.6729 0.23793,42.6729 -21.68403,21.77888 -21.68403,21.77887 z m 35.35071,51.07578 c -18.66517,-6.21436 -34.26272,-11.62389 -34.66123,-12.02116 -0.63016,-0.62823 41.56029,-43.54328 43.46086,-44.20728 0.39476,-0.13792 17.59976,7.17968 38.23333,16.26133 20.63356,9.08164 37.87466,16.51208 38.31354,16.51208 3.17376,0 0.0465,2.81117 -11.5978,10.42563 -7.37924,4.82545 -18.78248,12.30158 -25.34051,16.61364 -6.55803,4.31205 -12.49695,7.81186 -13.1976,7.77735 -0.70065,-0.0345 -16.54541,-5.14723 -35.21059,-11.36159 z m 64.10263,-34.72627 c -13.99889,-6.13587 -31.9217,-14.03789 -39.82847,-17.56003 l -14.37596,-6.40388 v -44.59967 c 0,-24.52983 0.22385,-44.59968 0.49744,-44.59968 0.27358,0 11.64043,6.51946 25.25966,14.48769 29.06463,17.00491 29.97767,17.49584 32.31399,17.37477 0.9842,-0.051 6.34969,2.57152 11.92332,5.82782 l 10.13387,5.92055 v 40.41183 c 0,22.22651 -0.10605,40.38595 -0.23567,40.3543 -0.12962,-0.0317 -11.6893,-5.07781 -25.68818,-11.2137 z M 230.48663,661.70332 c 0,-68.09531 0.32052,-101.99958 0.97585,-103.22407 0.78367,-1.46429 0.66591,-1.8234 -0.59794,-1.8234 -2.66396,0 -19.09678,-8.22045 -27.15034,-13.58186 -53.6944,-35.74535 -66.55529,-106.46277 -28.58634,-157.18594 38.14814,-50.96257 113.0571,-63.72229 167.94965,-28.60794 10.69188,6.83951 23.14034,18.58713 31.22612,29.4681 l 4.36976,5.88035 H 498.77324 618.8731 V 524.1332 c 0,90.33525 -0.30664,131.50464 -0.97949,131.50464 -0.53871,0 -11.46208,-6.2046 -24.27415,-13.78799 -12.81207,-7.5834 -25.50838,-15.02187 -28.21402,-16.52993 l -4.91935,-2.74192 -23.59689,31.45705 -23.59689,31.45704 V 724.29804 763.104 H 371.88947 230.48663 Z m 280.92031,60.13045 0.47134,-38.91351 23.56715,-31.51777 c 12.96192,-17.33477 24.21511,-31.53327 25.00708,-31.55223 0.79198,-0.019 2.27671,0.5505 3.2994,1.26547 1.0227,0.71497 3.4789,2.20855 5.45822,3.31908 1.97932,1.11051 13.2978,7.73708 25.15217,14.72571 11.85436,6.98861 21.79611,12.70658 22.09278,12.70658 0.29666,0 0.43181,-57.79841 0.30034,-128.44092 L 616.51639,394.98527 499.85904,394.7459 c -64.16154,-0.13165 -116.65734,-0.0849 -116.65734,0.10384 0,0.18876 1.68975,4.00068 3.75502,8.47093 7.58831,16.42485 10.5415,30.24686 10.4838,49.06783 -0.0542,17.67866 -3.48448,31.93762 -11.53898,47.96497 -5.69261,11.32756 -10.48668,17.95842 -20.31241,28.09486 -18.76415,19.35753 -41.14174,31.20298 -68.64316,36.33585 -16.0743,3.0001 -43.69737,1.64955 -59.0036,-2.88483 l -4.32784,-1.28209 -0.62126,28.33879 c -0.81242,37.05829 -0.80439,170.82254 0.0103,171.63723 0.34736,0.34736 63.02417,0.52411 139.2818,0.39279 L 510.9356,760.74729 Z M 231.42932,660.25041 c 0,-96.67317 0.0848,-101.87803 1.6497,-101.27137 8.94662,3.46829 27.28849,6.34247 40.77115,6.38886 34.45475,0.11853 66.43054,-12.76383 89.58854,-36.09331 9.89641,-9.9697 15.51605,-17.74123 21.55028,-29.80244 12.60048,-25.18582 14.77265,-50.51658 6.89861,-80.4484 -1.1775,-4.47609 -6.37938,-16.5357 -9.2507,-21.4461 l -2.34274,-4.00641 h 118.81813 118.81813 v 130.51112 130.51113 l -17.67536,-10.43727 c -9.72144,-5.74048 -19.02636,-11.20954 -20.67761,-12.15344 -1.65124,-0.9439 -4.71832,-2.79949 -6.81573,-4.12353 -2.09742,-1.32404 -4.04312,-2.40735 -4.32378,-2.40735 -0.28066,0 -2.20665,-1.1226 -4.27998,-2.49467 -2.07333,-1.37206 -3.93755,-2.32653 -4.14272,-2.12104 -0.20516,0.2055 -11.01385,14.57911 -24.01931,31.94137 l -23.6463,31.56773 v 38.89802 38.898 H 371.88947 231.42932 Z m 131.97598,51.84771 c 0,-6.02093 0.16713,-6.62818 1.6497,-5.99413 5.35122,2.28854 11.22603,1.09522 13.7773,-2.79853 3.56008,-5.43335 2.9994,-19.39496 -0.96822,-24.11021 -2.01518,-2.39491 -3.03869,-2.81833 -6.81255,-2.81833 -2.4426,0 -4.95015,0.50905 -5.57232,1.13123 -0.87984,0.87983 -1.38261,0.87983 -2.26245,0 -0.62217,-0.62218 -2.53111,-1.13123 -4.24208,-1.13123 h -3.11086 v 21.21043 21.21043 h 3.77074 3.77074 z m -80.93128,-5.94878 c 6.04829,-2.52713 9.17124,-8.36442 9.2458,-17.28183 l 0.0414,-4.9491 h -8.01283 -8.01283 v 3.2994 c 0,3.29516 0.006,3.2994 4.35992,3.2994 h 4.35992 l -0.58817,3.06373 c -0.66784,3.4787 -4.4858,7.30581 -7.28837,7.30581 -3.3523,0 -7.20781,-2.68504 -8.28258,-5.76814 -1.51526,-4.34667 -1.28087,-14.34303 0.43698,-18.63634 1.99558,-4.98745 5.81799,-6.67541 10.28873,-4.54346 1.73319,0.8265 3.42819,2.37529 3.76668,3.44176 0.48366,1.52389 1.40915,1.93904 4.32264,1.93904 4.35533,0 4.67211,-1.13153 1.58618,-5.6657 -3.66398,-5.38351 -6.7755,-7.06452 -13.00859,-7.02793 -5.99483,0.0352 -8.95314,1.54797 -12.62135,6.45419 -1.65385,2.21202 -1.99014,4.25963 -2.25567,13.73419 -0.27504,9.81349 -0.0781,11.59328 1.66008,15.00034 3.41808,6.69998 12.35433,9.53008 20.00208,6.33464 z m 23.56387,-10.01042 c 0.37964,-12.85895 0.75599,-13.54007 7.05394,-12.76629 4.11329,0.50537 6.94993,-1.281 6.94993,-4.37669 0,-2.89832 -8.40419,-3.70177 -12.04516,-1.15154 -1.89625,1.32819 -2.09512,1.32819 -2.09512,0 0,-1.04866 -0.94164,-1.46748 -3.2994,-1.46748 h -3.2994 v 15.55432 15.55431 h 3.20011 3.20011 z m 33.86224,10.37078 c 1.2884,-0.68953 1.8234,-0.672 1.8234,0.0597 0,0.60049 1.28722,0.91147 3.06373,0.74019 l 3.06373,-0.2954 v -12.56932 -12.56931 l -3.0786,-2.74933 c -2.6439,-2.36111 -3.84188,-2.74883 -8.48418,-2.7458 -3.72469,0.002 -6.35824,0.58438 -8.46929,1.87151 -3.66255,2.2331 -3.80202,3.06737 -0.78291,4.68314 1.76009,0.94197 2.97594,0.97834 5.32544,0.1593 4.2086,-1.46712 5.30658,-1.34612 7.47671,0.82401 3.50291,3.5029 2.48012,4.47732 -5.10139,4.86017 -8.00821,0.4044 -10.52548,1.95366 -11.48503,7.06852 -0.82471,4.39609 1.17568,8.75386 4.72849,10.30085 3.49804,1.52315 9.41432,1.70269 11.9199,0.36175 z m 55.55648,-9.45567 c 0,-12.04852 0.70764,-14.07831 4.90804,-14.07831 5.56218,0 6.40419,1.81638 6.40419,13.81505 v 10.69478 h 3.28144 c 4.17871,0 4.66055,-1.65891 4.06184,-13.98431 -0.46597,-9.59277 -2.06284,-14.36464 -5.40569,-16.15369 -2.83841,-1.51906 -9.57677,-1.17443 -11.52589,0.58951 -1.65585,1.49852 -1.72393,1.27515 -1.72393,-5.65612 v -7.21624 h -3.2994 -3.2994 v 21.21042 21.21043 h 3.2994 3.2994 z m 32.994,-5.12279 v -15.55432 h -3.2994 -3.2994 v 15.55432 15.55431 h 3.2994 3.2994 z m 28.38789,13.49535 c 4.26785,-2.39867 4.48327,-3.42807 1.21555,-5.80862 -2.19275,-1.59743 -2.52494,-1.61675 -4.05101,-0.23567 -0.91432,0.82745 -3.19573,1.50445 -5.0698,1.50445 -4.4761,0 -6.34235,-2.63517 -6.34235,-8.95551 0,-6.32035 1.86625,-8.95552 6.34235,-8.95552 1.87407,0 4.18761,0.70608 5.1412,1.56907 1.62699,1.47241 1.87839,1.43325 4.08064,-0.63566 3.03509,-2.85132 2.96393,-3.41293 -0.71689,-5.65717 -3.69809,-2.25477 -11.81223,-2.51799 -15.69681,-0.50919 -4.5506,2.35321 -5.74929,5.26075 -5.74929,13.94555 0,5.69127 0.41717,8.43183 1.52405,10.01213 4.07415,5.81664 12.65768,7.4719 19.32236,3.72614 z m 25.72361,0.74451 c 5.56274,-2.32426 7.66797,-7.67462 5.17374,-13.14888 -1.34333,-2.94826 -4.38027,-4.2968 -11.307,-5.02079 -4.60736,-0.48157 -5.55739,-0.8842 -5.55739,-2.35528 0,-2.90543 4.33495,-3.96311 9.38159,-2.28901 4.16921,1.38304 4.34971,1.36041 6.55024,-0.82122 l 2.26288,-2.24345 -3.20556,-1.95425 c -3.92046,-2.39007 -13.65692,-2.69864 -17.7855,-0.56366 -3.08513,1.59538 -5.14611,6.57472 -4.2308,10.22164 0.99809,3.9767 3.79397,5.68062 10.45178,6.36973 6.91865,0.7161 8.87885,1.90466 7.29906,4.42572 -1.46302,2.33471 -8.3649,2.64694 -12.25087,0.55421 -2.97148,-1.60024 -3.1668,-1.59698 -5.02432,0.0841 -2.83899,2.56924 -2.39765,3.85013 2.07374,6.01865 4.70038,2.27956 11.69393,2.59209 16.16841,0.72253 z m -54.1115,-37.807 c 0,-3.14229 -0.15712,-3.2994 -3.2994,-3.2994 -3.14228,0 -3.2994,0.15711 -3.2994,3.2994 0,3.14228 0.15712,3.2994 3.2994,3.2994 3.14228,0 3.2994,-0.15712 3.2994,-3.2994 z m 44.92466,-70.69487 c 4.7472,-0.76994 9.82509,-1.85378 11.2842,-2.40854 2.13575,-0.81201 2.86245,-0.72214 3.72758,0.461 0.90272,1.23454 3.72459,1.46964 17.63984,1.46964 14.96821,0 16.61072,-0.15904 17.03706,-1.6497 0.25951,-0.90733 1.59332,-8.86124 2.96404,-17.67535 4.61731,-29.69071 7.97812,-50.87326 8.89919,-56.0898 0.5035,-2.85162 1.8269,-10.91158 2.94088,-17.91102 1.11399,-6.99944 2.19119,-12.90301 2.39378,-13.11905 0.20259,-0.21602 0.36836,23.64571 0.36836,53.02607 v 53.41885 h 23.57209 23.5721 l -0.24063,-86.02006 -0.24063,-86.02006 h -82.01364 -82.01365 l -0.24063,86.02006 -0.24063,86.02006 11.55286,0.0932 c 6.35406,0.0513 13.886,0.41576 16.73762,0.80996 8.34555,1.15367 13.12715,1.06247 22.30021,-0.42529 z" /><path
       id="path8"
       style="mix-blend-mode:normal;fill:none;stroke:#beaa1e;stroke-width:3.77953;stroke-linejoin:round;stroke-dasharray:none;stroke-opacity:1;paint-order:stroke markers fill;filter:url(#filter9)"
       transform="scale(0.26458333)"
       d="m 332.29668,701.31908 c -0.69751,-0.18771 -2.00321,-1.23257 -2.00321,-1.60304 0,-0.17703 -0.12208,-0.36257 -0.2713,-0.41231 -0.14921,-0.0497 -0.31957,-0.67254 -0.37857,-1.38401 -0.0825,-0.99514 -0.0199,-1.36606 0.2713,-1.60776 0.20821,-0.1728 0.37857,-0.40725 0.37857,-0.521 0,-0.41347 0.89886,-1.091 1.67727,-1.26428 0.4385,-0.0976 2.78576,-0.2242 5.21612,-0.2813 l 4.41884,-0.10383 v 2.67752 c 0,2.77905 -0.28179,3.94462 -0.95447,3.94801 -0.20091,0.001 -0.49724,0.13379 -0.65852,0.29506 -0.30262,0.30262 -6.729,0.51717 -7.69603,0.25694 z m 34.9972,-0.31449 c -0.19443,-0.12565 -0.64162,-0.23008 -0.99375,-0.23207 -0.61358,-0.003 -2.30565,-1.38109 -2.30565,-1.87719 0,-0.1145 -0.13256,-0.25237 -0.29459,-0.30638 -0.42812,-0.1427 -0.42812,-13.64407 0,-13.78677 0.16203,-0.054 0.29459,-0.19541 0.29459,-0.31423 0,-0.24449 0.86274,-1.15872 1.09346,-1.15872 0.0829,0 0.26851,-0.15026 0.41242,-0.33392 0.45488,-0.5805 5.30703,-0.59666 5.8841,-0.0196 0.19443,0.19443 0.41411,0.35351 0.48818,0.35351 0.22825,0 1.07735,0.9287 1.07735,1.17836 0,0.12962 0.0942,0.23567 0.20945,0.23567 0.11519,0 0.27907,0.37118 0.36418,0.82485 0.0851,0.45367 0.25599,0.82485 0.37974,0.82485 0.2947,0 0.30203,10.52978 0.007,10.71184 -0.11965,0.074 -0.28846,0.45733 -0.37513,0.85197 -0.23833,1.08511 -2.02391,2.81214 -2.90747,2.81214 -0.39277,0 -0.77967,0.10606 -0.85978,0.23568 -0.18599,0.30093 -2.00889,0.30093 -2.47455,0 z m 147.8838,21.28106 v -35.82779 l 21.4461,-28.62399 21.4461,-28.62398 0.23793,42.6729 0.23793,42.6729 -21.68403,21.77888 -21.68403,21.77887 z m 35.35071,51.07578 c -18.66517,-6.21436 -34.26272,-11.62389 -34.66123,-12.02116 -0.63016,-0.62823 41.56029,-43.54328 43.46086,-44.20728 0.39476,-0.13792 17.59976,7.17968 38.23333,16.26133 20.63356,9.08164 37.87466,16.51208 38.31354,16.51208 3.17376,0 0.0465,2.81117 -11.5978,10.42563 -7.37924,4.82545 -18.78248,12.30158 -25.34051,16.61364 -6.55803,4.31205 -12.49695,7.81186 -13.1976,7.77735 -0.70065,-0.0345 -16.54541,-5.14723 -35.21059,-11.36159 z m 64.10263,-34.72627 c -13.99889,-6.13587 -31.9217,-14.03789 -39.82847,-17.56003 l -14.37596,-6.40388 v -44.59967 c 0,-24.52983 0.22385,-44.59968 0.49744,-44.59968 0.27358,0 11.64043,6.51946 25.25966,14.48769 29.06463,17.00491 29.97767,17.49584 32.31399,17.37477 0.9842,-0.051 6.34969,2.57152 11.92332,5.82782 l 10.13387,5.92055 v 40.41183 c 0,22.22651 -0.10605,40.38595 -0.23567,40.3543 -0.12962,-0.0317 -11.6893,-5.07781 -25.68818,-11.2137 z M 230.48663,661.70332 c 0,-68.09531 0.32052,-101.99958 0.97585,-103.22407 0.78367,-1.46429 0.66591,-1.8234 -0.59794,-1.8234 -2.66396,0 -19.09678,-8.22045 -27.15034,-13.58186 -53.6944,-35.74535 -66.55529,-106.46277 -28.58634,-157.18594 38.14814,-50.96257 113.0571,-63.72229 167.94965,-28.60794 10.69188,6.83951 23.14034,18.58713 31.22612,29.4681 l 4.36976,5.88035 H 498.77324 618.8731 V 524.1332 c 0,90.33525 -0.30664,131.50464 -0.97949,131.50464 -0.53871,0 -11.46208,-6.2046 -24.27415,-13.78799 -12.81207,-7.5834 -25.50838,-15.02187 -28.21402,-16.52993 l -4.91935,-2.74192 -23.59689,31.45705 -23.59689,31.45704 V 724.29804 763.104 H 371.88947 230.48663 Z m 280.92031,60.13045 0.47134,-38.91351 23.56715,-31.51777 c 12.96192,-17.33477 24.21511,-31.53327 25.00708,-31.55223 0.79198,-0.019 2.27671,0.5505 3.2994,1.26547 1.0227,0.71497 3.4789,2.20855 5.45822,3.31908 1.97932,1.11051 13.2978,7.73708 25.15217,14.72571 11.85436,6.98861 21.79611,12.70658 22.09278,12.70658 0.29666,0 0.43181,-57.79841 0.30034,-128.44092 L 616.51639,394.98527 499.85904,394.7459 c -64.16154,-0.13165 -116.65734,-0.0849 -116.65734,0.10384 0,0.18876 1.68975,4.00068 3.75502,8.47093 7.58831,16.42485 10.5415,30.24686 10.4838,49.06783 -0.0542,17.67866 -3.48448,31.93762 -11.53898,47.96497 -5.69261,11.32756 -10.48668,17.95842 -20.31241,28.09486 -18.76415,19.35753 -41.14174,31.20298 -68.64316,36.33585 -16.0743,3.0001 -43.69737,1.64955 -59.0036,-2.88483 l -4.32784,-1.28209 -0.62126,28.33879 c -0.81242,37.05829 -0.80439,170.82254 0.0103,171.63723 0.34736,0.34736 63.02417,0.52411 139.2818,0.39279 L 510.9356,760.74729 Z M 231.42932,660.25041 c 0,-96.67317 0.0848,-101.87803 1.6497,-101.27137 8.94662,3.46829 27.28849,6.34247 40.77115,6.38886 34.45475,0.11853 66.43054,-12.76383 89.58854,-36.09331 9.89641,-9.9697 15.51605,-17.74123 21.55028,-29.80244 12.60048,-25.18582 14.77265,-50.51658 6.89861,-80.4484 -1.1775,-4.47609 -6.37938,-16.5357 -9.2507,-21.4461 l -2.34274,-4.00641 h 118.81813 118.81813 v 130.51112 130.51113 l -17.67536,-10.43727 c -9.72144,-5.74048 -19.02636,-11.20954 -20.67761,-12.15344 -1.65124,-0.9439 -4.71832,-2.79949 -6.81573,-4.12353 -2.09742,-1.32404 -4.04312,-2.40735 -4.32378,-2.40735 -0.28066,0 -2.20665,-1.1226 -4.27998,-2.49467 -2.07333,-1.37206 -3.93755,-2.32653 -4.14272,-2.12104 -0.20516,0.2055 -11.01385,14.57911 -24.01931,31.94137 l -23.6463,31.56773 v 38.89802 38.898 H 371.88947 231.42932 Z m 131.97598,51.84771 c 0,-6.02093 0.16713,-6.62818 1.6497,-5.99413 5.35122,2.28854 11.22603,1.09522 13.7773,-2.79853 3.56008,-5.43335 2.9994,-19.39496 -0.96822,-24.11021 -2.01518,-2.39491 -3.03869,-2.81833 -6.81255,-2.81833 -2.4426,0 -4.95015,0.50905 -5.57232,1.13123 -0.87984,0.87983 -1.38261,0.87983 -2.26245,0 -0.62217,-0.62218 -2.53111,-1.13123 -4.24208,-1.13123 h -3.11086 v 21.21043 21.21043 h 3.77074 3.77074 z m -80.93128,-5.94878 c 6.04829,-2.52713 9.17124,-8.36442 9.2458,-17.28183 l 0.0414,-4.9491 h -8.01283 -8.01283 v 3.2994 c 0,3.29516 0.006,3.2994 4.35992,3.2994 h 4.35992 l -0.58817,3.06373 c -0.66784,3.4787 -4.4858,7.30581 -7.28837,7.30581 -3.3523,0 -7.20781,-2.68504 -8.28258,-5.76814 -1.51526,-4.34667 -1.28087,-14.34303 0.43698,-18.63634 1.99558,-4.98745 5.81799,-6.67541 10.28873,-4.54346 1.73319,0.8265 3.42819,2.37529 3.76668,3.44176 0.48366,1.52389 1.40915,1.93904 4.32264,1.93904 4.35533,0 4.67211,-1.13153 1.58618,-5.6657 -3.66398,-5.38351 -6.7755,-7.06452 -13.00859,-7.02793 -5.99483,0.0352 -8.95314,1.54797 -12.62135,6.45419 -1.65385,2.21202 -1.99014,4.25963 -2.25567,13.73419 -0.27504,9.81349 -0.0781,11.59328 1.66008,15.00034 3.41808,6.69998 12.35433,9.53008 20.00208,6.33464 z m 23.56387,-10.01042 c 0.37964,-12.85895 0.75599,-13.54007 7.05394,-12.76629 4.11329,0.50537 6.94993,-1.281 6.94993,-4.37669 0,-2.89832 -8.40419,-3.70177 -12.04516,-1.15154 -1.89625,1.32819 -2.09512,1.32819 -2.09512,0 0,-1.04866 -0.94164,-1.46748 -3.2994,-1.46748 h -3.2994 v 15.55432 15.55431 h 3.20011 3.20011 z m 33.86224,10.37078 c 1.2884,-0.68953 1.8234,-0.672 1.8234,0.0597 0,0.60049 1.28722,0.91147 3.06373,0.74019 l 3.06373,-0.2954 v -12.56932 -12.56931 l -3.0786,-2.74933 c -2.6439,-2.36111 -3.84188,-2.74883 -8.48418,-2.7458 -3.72469,0.002 -6.35824,0.58438 -8.46929,1.87151 -3.66255,2.2331 -3.80202,3.06737 -0.78291,4.68314 1.76009,0.94197 2.97594,0.97834 5.32544,0.1593 4.2086,-1.46712 5.30658,-1.34612 7.47671,0.82401 3.50291,3.5029 2.48012,4.47732 -5.10139,4.86017 -8.00821,0.4044 -10.52548,1.95366 -11.48503,7.06852 -0.82471,4.39609 1.17568,8.75386 4.72849,10.30085 3.49804,1.52315 9.41432,1.70269 11.9199,0.36175 z m 55.55648,-9.45567 c 0,-12.04852 0.70764,-14.07831 4.90804,-14.07831 5.56218,0 6.40419,1.81638 6.40419,13.81505 v 10.69478 h 3.28144 c 4.17871,0 4.66055,-1.65891 4.06184,-13.98431 -0.46597,-9.59277 -2.06284,-14.36464 -5.40569,-16.15369 -2.83841,-1.51906 -9.57677,-1.17443 -11.52589,0.58951 -1.65585,1.49852 -1.72393,1.27515 -1.72393,-5.65612 v -7.21624 h -3.2994 -3.2994 v 21.21042 21.21043 h 3.2994 3.2994 z m 32.994,-5.12279 v -15.55432 h -3.2994 -3.2994 v 15.55432 15.55431 h 3.2994 3.2994 z m 28.38789,13.49535 c 4.26785,-2.39867 4.48327,-3.42807 1.21555,-5.80862 -2.19275,-1.59743 -2.52494,-1.61675 -4.05101,-0.23567 -0.91432,0.82745 -3.19573,1.50445 -5.0698,1.50445 -4.4761,0 -6.34235,-2.63517 -6.34235,-8.95551 0,-6.32035 1.86625,-8.95552 6.34235,-8.95552 1.87407,0 4.18761,0.70608 5.1412,1.56907 1.62699,1.47241 1.87839,1.43325 4.08064,-0.63566 3.03509,-2.85132 2.96393,-3.41293 -0.71689,-5.65717 -3.69809,-2.25477 -11.81223,-2.51799 -15.69681,-0.50919 -4.5506,2.35321 -5.74929,5.26075 -5.74929,13.94555 0,5.69127 0.41717,8.43183 1.52405,10.01213 4.07415,5.81664 12.65768,7.4719 19.32236,3.72614 z m 25.72361,0.74451 c 5.56274,-2.32426 7.66797,-7.67462 5.17374,-13.14888 -1.34333,-2.94826 -4.38027,-4.2968 -11.307,-5.02079 -4.60736,-0.48157 -5.55739,-0.8842 -5.55739,-2.35528 0,-2.90543 4.33495,-3.96311 9.38159,-2.28901 4.16921,1.38304 4.34971,1.36041 6.55024,-0.82122 l 2.26288,-2.24345 -3.20556,-1.95425 c -3.92046,-2.39007 -13.65692,-2.69864 -17.7855,-0.56366 -3.08513,1.59538 -5.14611,6.57472 -4.2308,10.22164 0.99809,3.9767 3.79397,5.68062 10.45178,6.36973 6.91865,0.7161 8.87885,1.90466 7.29906,4.42572 -1.46302,2.33471 -8.3649,2.64694 -12.25087,0.55421 -2.97148,-1.60024 -3.1668,-1.59698 -5.02432,0.0841 -2.83899,2.56924 -2.39765,3.85013 2.07374,6.01865 4.70038,2.27956 11.69393,2.59209 16.16841,0.72253 z m -54.1115,-37.807 c 0,-3.14229 -0.15712,-3.2994 -3.2994,-3.2994 -3.14228,0 -3.2994,0.15711 -3.2994,3.2994 0,3.14228 0.15712,3.2994 3.2994,3.2994 3.14228,0 3.2994,-0.15712 3.2994,-3.2994 z m 44.92466,-70.69487 c 4.7472,-0.76994 9.82509,-1.85378 11.2842,-2.40854 2.13575,-0.81201 2.86245,-0.72214 3.72758,0.461 0.90272,1.23454 3.72459,1.46964 17.63984,1.46964 14.96821,0 16.61072,-0.15904 17.03706,-1.6497 0.25951,-0.90733 1.59332,-8.86124 2.96404,-17.67535 4.61731,-29.69071 7.97812,-50.87326 8.89919,-56.0898 0.5035,-2.85162 1.8269,-10.91158 2.94088,-17.91102 1.11399,-6.99944 2.19119,-12.90301 2.39378,-13.11905 0.20259,-0.21602 0.36836,23.64571 0.36836,53.02607 v 53.41885 h 23.57209 23.5721 l -0.24063,-86.02006 -0.24063,-86.02006 h -82.01364 -82.01365 l -0.24063,86.02006 -0.24063,86.02006 11.55286,0.0932 c 6.35406,0.0513 13.886,0.41576 16.73762,0.80996 8.34555,1.15367 13.12715,1.06247 22.30021,-0.42529 z" /><path
       id="path9"
       style="fill:none;stroke:#b4be1e;stroke-width:3.77953;stroke-linejoin:round;stroke-dasharray:none;stroke-opacity:1;paint-order:stroke markers fill"
       transform="scale(0.26458333)"
       d="m 332.29668,701.31908 c -0.69751,-0.18771 -2.00321,-1.23257 -2.00321,-1.60304 0,-0.17703 -0.12208,-0.36257 -0.2713,-0.41231 -0.14921,-0.0497 -0.31957,-0.67254 -0.37857,-1.38401 -0.0825,-0.99514 -0.0199,-1.36606 0.2713,-1.60776 0.20821,-0.1728 0.37857,-0.40725 0.37857,-0.521 0,-0.41347 0.89886,-1.091 1.67727,-1.26428 0.4385,-0.0976 2.78576,-0.2242 5.21612,-0.2813 l 4.41884,-0.10383 v 2.67752 c 0,2.77905 -0.28179,3.94462 -0.95447,3.94801 -0.20091,0.001 -0.49724,0.13379 -0.65852,0.29506 -0.30262,0.30262 -6.729,0.51717 -7.69603,0.25694 z m 34.9972,-0.31449 c -0.19443,-0.12565 -0.64162,-0.23008 -0.99375,-0.23207 -0.61358,-0.003 -2.30565,-1.38109 -2.30565,-1.87719 0,-0.1145 -0.13256,-0.25237 -0.29459,-0.30638 -0.42812,-0.1427 -0.42812,-13.64407 0,-13.78677 0.16203,-0.054 0.29459,-0.19541 0.29459,-0.31423 0,-0.24449 0.86274,-1.15872 1.09346,-1.15872 0.0829,0 0.26851,-0.15026 0.41242,-0.33392 0.45488,-0.5805 5.30703,-0.59666 5.8841,-0.0196 0.19443,0.19443 0.41411,0.35351 0.48818,0.35351 0.22825,0 1.07735,0.9287 1.07735,1.17836 0,0.12962 0.0942,0.23567 0.20945,0.23567 0.11519,0 0.27907,0.37118 0.36418,0.82485 0.0851,0.45367 0.25599,0.82485 0.37974,0.82485 0.2947,0 0.30203,10.52978 0.007,10.71184 -0.11965,0.074 -0.28846,0.45733 -0.37513,0.85197 -0.23833,1.08511 -2.02391,2.81214 -2.90747,2.81214 -0.39277,0 -0.77967,0.10606 -0.85978,0.23568 -0.18599,0.30093 -2.00889,0.30093 -2.47455,0 z m 147.8838,21.28106 v -35.82779 l 21.4461,-28.62399 21.4461,-28.62398 0.23793,42.6729 0.23793,42.6729 -21.68403,21.77888 -21.68403,21.77887 z m 35.35071,51.07578 c -18.66517,-6.21436 -34.26272,-11.62389 -34.66123,-12.02116 -0.63016,-0.62823 41.56029,-43.54328 43.46086,-44.20728 0.39476,-0.13792 17.59976,7.17968 38.23333,16.26133 20.63356,9.08164 37.87466,16.51208 38.31354,16.51208 3.17376,0 0.0465,2.81117 -11.5978,10.42563 -7.37924,4.82545 -18.78248,12.30158 -25.34051,16.61364 -6.55803,4.31205 -12.49695,7.81186 -13.1976,7.77735 -0.70065,-0.0345 -16.54541,-5.14723 -35.21059,-11.36159 z m 64.10263,-34.72627 c -13.99889,-6.13587 -31.9217,-14.03789 -39.82847,-17.56003 l -14.37596,-6.40388 v -44.59967 c 0,-24.52983 0.22385,-44.59968 0.49744,-44.59968 0.27358,0 11.64043,6.51946 25.25966,14.48769 29.06463,17.00491 29.97767,17.49584 32.31399,17.37477 0.9842,-0.051 6.34969,2.57152 11.92332,5.82782 l 10.13387,5.92055 v 40.41183 c 0,22.22651 -0.10605,40.38595 -0.23567,40.3543 -0.12962,-0.0317 -11.6893,-5.07781 -25.68818,-11.2137 z M 230.48663,661.70332 c 0,-68.09531 0.32052,-101.99958 0.97585,-103.22407 0.78367,-1.46429 0.66591,-1.8234 -0.59794,-1.8234 -2.66396,0 -19.09678,-8.22045 -27.15034,-13.58186 -53.6944,-35.74535 -66.55529,-106.46277 -28.58634,-157.18594 38.14814,-50.96257 113.0571,-63.72229 167.94965,-28.60794 10.69188,6.83951 23.14034,18.58713 31.22612,29.4681 l 4.36976,5.88035 H 498.77324 618.8731 V 524.1332 c 0,90.33525 -0.30664,131.50464 -0.97949,131.50464 -0.53871,0 -11.46208,-6.2046 -24.27415,-13.78799 -12.81207,-7.5834 -25.50838,-15.02187 -28.21402,-16.52993 l -4.91935,-2.74192 -23.59689,31.45705 -23.59689,31.45704 V 724.29804 763.104 H 371.88947 230.48663 Z m 280.92031,60.13045 0.47134,-38.91351 23.56715,-31.51777 c 12.96192,-17.33477 24.21511,-31.53327 25.00708,-31.55223 0.79198,-0.019 2.27671,0.5505 3.2994,1.26547 1.0227,0.71497 3.4789,2.20855 5.45822,3.31908 1.97932,1.11051 13.2978,7.73708 25.15217,14.72571 11.85436,6.98861 21.79611,12.70658 22.09278,12.70658 0.29666,0 0.43181,-57.79841 0.30034,-128.44092 L 616.51639,394.98527 499.85904,394.7459 c -64.16154,-0.13165 -116.65734,-0.0849 -116.65734,0.10384 0,0.18876 1.68975,4.00068 3.75502,8.47093 7.58831,16.42485 10.5415,30.24686 10.4838,49.06783 -0.0542,17.67866 -3.48448,31.93762 -11.53898,47.96497 -5.69261,11.32756 -10.48668,17.95842 -20.31241,28.09486 -18.76415,19.35753 -41.14174,31.20298 -68.64316,36.33585 -16.0743,3.0001 -43.69737,1.64955 -59.0036,-2.88483 l -4.32784,-1.28209 -0.62126,28.33879 c -0.81242,37.05829 -0.80439,170.82254 0.0103,171.63723 0.34736,0.34736 63.02417,0.52411 139.2818,0.39279 L 510.9356,760.74729 Z M 231.42932,660.25041 c 0,-96.67317 0.0848,-101.87803 1.6497,-101.27137 8.94662,3.46829 27.28849,6.34247 40.77115,6.38886 34.45475,0.11853 66.43054,-12.76383 89.58854,-36.09331 9.89641,-9.9697 15.51605,-17.74123 21.55028,-29.80244 12.60048,-25.18582 14.77265,-50.51658 6.89861,-80.4484 -1.1775,-4.47609 -6.37938,-16.5357 -9.2507,-21.4461 l -2.34274,-4.00641 h 118.81813 118.81813 v 130.51112 130.51113 l -17.67536,-10.43727 c -9.72144,-5.74048 -19.02636,-11.20954 -20.67761,-12.15344 -1.65124,-0.9439 -4.71832,-2.79949 -6.81573,-4.12353 -2.09742,-1.32404 -4.04312,-2.40735 -4.32378,-2.40735 -0.28066,0 -2.20665,-1.1226 -4.27998,-2.49467 -2.07333,-1.37206 -3.93755,-2.32653 -4.14272,-2.12104 -0.20516,0.2055 -11.01385,14.57911 -24.01931,31.94137 l -23.6463,31.56773 v 38.89802 38.898 H 371.88947 231.42932 Z m 131.97598,51.84771 c 0,-6.02093 0.16713,-6.62818 1.6497,-5.99413 5.35122,2.28854 11.22603,1.09522 13.7773,-2.79853 3.56008,-5.43335 2.9994,-19.39496 -0.96822,-24.11021 -2.01518,-2.39491 -3.03869,-2.81833 -6.81255,-2.81833 -2.4426,0 -4.95015,0.50905 -5.57232,1.13123 -0.87984,0.87983 -1.38261,0.87983 -2.26245,0 -0.62217,-0.62218 -2.53111,-1.13123 -4.24208,-1.13123 h -3.11086 v 21.21043 21.21043 h 3.77074 3.77074 z m -80.93128,-5.94878 c 6.04829,-2.52713 9.17124,-8.36442 9.2458,-17.28183 l 0.0414,-4.9491 h -8.01283 -8.01283 v 3.2994 c 0,3.29516 0.006,3.2994 4.35992,3.2994 h 4.35992 l -0.58817,3.06373 c -0.66784,3.4787 -4.4858,7.30581 -7.28837,7.30581 -3.3523,0 -7.20781,-2.68504 -8.28258,-5.76814 -1.51526,-4.34667 -1.28087,-14.34303 0.43698,-18.63634 1.99558,-4.98745 5.81799,-6.67541 10.28873,-4.54346 1.73319,0.8265 3.42819,2.37529 3.76668,3.44176 0.48366,1.52389 1.40915,1.93904 4.32264,1.93904 4.35533,0 4.67211,-1.13153 1.58618,-5.6657 -3.66398,-5.38351 -6.7755,-7.06452 -13.00859,-7.02793 -5.99483,0.0352 -8.95314,1.54797 -12.62135,6.45419 -1.65385,2.21202 -1.99014,4.25963 -2.25567,13.73419 -0.27504,9.81349 -0.0781,11.59328 1.66008,15.00034 3.41808,6.69998 12.35433,9.53008 20.00208,6.33464 z m 23.56387,-10.01042 c 0.37964,-12.85895 0.75599,-13.54007 7.05394,-12.76629 4.11329,0.50537 6.94993,-1.281 6.94993,-4.37669 0,-2.89832 -8.40419,-3.70177 -12.04516,-1.15154 -1.89625,1.32819 -2.09512,1.32819 -2.09512,0 0,-1.04866 -0.94164,-1.46748 -3.2994,-1.46748 h -3.2994 v 15.55432 15.55431 h 3.20011 3.20011 z m 33.86224,10.37078 c 1.2884,-0.68953 1.8234,-0.672 1.8234,0.0597 0,0.60049 1.28722,0.91147 3.06373,0.74019 l 3.06373,-0.2954 v -12.56932 -12.56931 l -3.0786,-2.74933 c -2.6439,-2.36111 -3.84188,-2.74883 -8.48418,-2.7458 -3.72469,0.002 -6.35824,0.58438 -8.46929,1.87151 -3.66255,2.2331 -3.80202,3.06737 -0.78291,4.68314 1.76009,0.94197 2.97594,0.97834 5.32544,0.1593 4.2086,-1.46712 5.30658,-1.34612 7.47671,0.82401 3.50291,3.5029 2.48012,4.47732 -5.10139,4.86017 -8.00821,0.4044 -10.52548,1.95366 -11.48503,7.06852 -0.82471,4.39609 1.17568,8.75386 4.72849,10.30085 3.49804,1.52315 9.41432,1.70269 11.9199,0.36175 z m 55.55648,-9.45567 c 0,-12.04852 0.70764,-14.07831 4.90804,-14.07831 5.56218,0 6.40419,1.81638 6.40419,13.81505 v 10.69478 h 3.28144 c 4.17871,0 4.66055,-1.65891 4.06184,-13.98431 -0.46597,-9.59277 -2.06284,-14.36464 -5.40569,-16.15369 -2.83841,-1.51906 -9.57677,-1.17443 -11.52589,0.58951 -1.65585,1.49852 -1.72393,1.27515 -1.72393,-5.65612 v -7.21624 h -3.2994 -3.2994 v 21.21042 21.21043 h 3.2994 3.2994 z m 32.994,-5.12279 v -15.55432 h -3.2994 -3.2994 v 15.55432 15.55431 h 3.2994 3.2994 z m 28.38789,13.49535 c 4.26785,-2.39867 4.48327,-3.42807 1.21555,-5.80862 -2.19275,-1.59743 -2.52494,-1.61675 -4.05101,-0.23567 -0.91432,0.82745 -3.19573,1.50445 -5.0698,1.50445 -4.4761,0 -6.34235,-2.63517 -6.34235,-8.95551 0,-6.32035 1.86625,-8.95552 6.34235,-8.95552 1.87407,0 4.18761,0.70608 5.1412,1.56907 1.62699,1.47241 1.87839,1.43325 4.08064,-0.63566 3.03509,-2.85132 2.96393,-3.41293 -0.71689,-5.65717 -3.69809,-2.25477 -11.81223,-2.51799 -15.69681,-0.50919 -4.5506,2.35321 -5.74929,5.26075 -5.74929,13.94555 0,5.69127 0.41717,8.43183 1.52405,10.01213 4.07415,5.81664 12.65768,7.4719 19.32236,3.72614 z m 25.72361,0.74451 c 5.56274,-2.32426 7.66797,-7.67462 5.17374,-13.14888 -1.34333,-2.94826 -4.38027,-4.2968 -11.307,-5.02079 -4.60736,-0.48157 -5.55739,-0.8842 -5.55739,-2.35528 0,-2.90543 4.33495,-3.96311 9.38159,-2.28901 4.16921,1.38304 4.34971,1.36041 6.55024,-0.82122 l 2.26288,-2.24345 -3.20556,-1.95425 c -3.92046,-2.39007 -13.65692,-2.69864 -17.7855,-0.56366 -3.08513,1.59538 -5.14611,6.57472 -4.2308,10.22164 0.99809,3.9767 3.79397,5.68062 10.45178,6.36973 6.91865,0.7161 8.87885,1.90466 7.29906,4.42572 -1.46302,2.33471 -8.3649,2.64694 -12.25087,0.55421 -2.97148,-1.60024 -3.1668,-1.59698 -5.02432,0.0841 -2.83899,2.56924 -2.39765,3.85013 2.07374,6.01865 4.70038,2.27956 11.69393,2.59209 16.16841,0.72253 z m -54.1115,-37.807 c 0,-3.14229 -0.15712,-3.2994 -3.2994,-3.2994 -3.14228,0 -3.2994,0.15711 -3.2994,3.2994 0,3.14228 0.15712,3.2994 3.2994,3.2994 3.14228,0 3.2994,-0.15712 3.2994,-3.2994 z m 44.92466,-70.69487 c 4.7472,-0.76994 9.82509,-1.85378 11.2842,-2.40854 2.13575,-0.81201 2.86245,-0.72214 3.72758,0.461 0.90272,1.23454 3.72459,1.46964 17.63984,1.46964 14.96821,0 16.61072,-0.15904 17.03706,-1.6497 0.25951,-0.90733 1.59332,-8.86124 2.96404,-17.67535 4.61731,-29.69071 7.97812,-50.87326 8.89919,-56.0898 0.5035,-2.85162 1.8269,-10.91158 2.94088,-17.91102 1.11399,-6.99944 2.19119,-12.90301 2.39378,-13.11905 0.20259,-0.21602 0.36836,23.64571 0.36836,53.02607 v 53.41885 h 23.57209 23.5721 l -0.24063,-86.02006 -0.24063,-86.02006 h -82.01364 -82.01365 l -0.24063,86.02006 -0.24063,86.02006 11.55286,0.0932 c 6.35406,0.0513 13.886,0.41576 16.73762,0.80996 8.34555,1.15367 13.12715,1.06247 22.30021,-0.42529 z" /></g></svg>
