<?xml version="1.0" encoding="UTF-8" standalone="no"?>
<!-- Created with Inkscape (http://www.inkscape.org/) -->

<svg
   width="61.527103mm"
   height="63.408485mm"
   viewBox="0 0 61.527103 63.408485"
   version="1.1"
   id="svg1"
   xml:space="preserve"
   xmlns:inkscape="http://www.inkscape.org/namespaces/inkscape"
   xmlns:sodipodi="http://sodipodi.sourceforge.net/DTD/sodipodi-0.dtd"
   xmlns="http://www.w3.org/2000/svg"
   xmlns:svg="http://www.w3.org/2000/svg"><sodipodi:namedview
     id="namedview1"
     pagecolor="#505050"
     bordercolor="#eeeeee"
     borderopacity="1"
     inkscape:showpageshadow="0"
     inkscape:pageopacity="0"
     inkscape:pagecheckerboard="0"
     inkscape:deskcolor="#505050"
     inkscape:document-units="mm" /><defs
     id="defs1"><filter
       inkscape:collect="always"
       style="color-interpolation-filters:sRGB"
       id="filter20"
       x="-0.012223836"
       y="-0.011784214"
       width="1.0244477"
       height="1.0235684"><feGaussianBlur
         inkscape:collect="always"
         stdDeviation="0.25685772"
         id="feGaussianBlur20" /></filter><filter
       inkscape:collect="always"
       style="color-interpolation-filters:sRGB"
       id="filter21"
       x="-0.048895344"
       y="-0.047136858"
       width="1.0977907"
       height="1.0942737"><feGaussianBlur
         inkscape:collect="always"
         stdDeviation="1.0274309"
         id="feGaussianBlur21" /></filter><filter
       inkscape:collect="always"
       style="color-interpolation-filters:sRGB"
       id="filter22"
       x="-0.11001452"
       y="-0.10605793"
       width="1.220029"
       height="1.2121159"><feGaussianBlur
         inkscape:collect="always"
         stdDeviation="2.3117195"
         id="feGaussianBlur22" /></filter><filter
       inkscape:collect="always"
       style="color-interpolation-filters:sRGB"
       id="filter23"
       x="-0.076398975"
       y="-0.073651339"
       width="1.1527979"
       height="1.1473027"><feGaussianBlur
         inkscape:collect="always"
         stdDeviation="1.6053607"
         id="feGaussianBlur23" /></filter></defs><g
     inkscape:label="Layer 1"
     inkscape:groupmode="layer"
     id="layer1"
     transform="translate(-74.179628,-116.86273)"><g
       id="g23"
       inkscape:groupmode="layer"
       inkscape:label="Kicad_icon"><g
         id="g4"
         style="fill:#beb419;fill-opacity:1;filter:url(#filter23)"><path
           style="opacity:0.5;fill:#beb419;fill-opacity:1;stroke:none;stroke-width:5.03871;stroke-linecap:round;stroke-linejoin:round;paint-order:stroke markers fill"
           d="m 304.92576,660.12413 c -1.66555,-0.40421 -2.9247,-1.75212 -3.31009,-3.54343 -0.25216,-1.17207 -0.32836,-27.52272 -0.25683,-88.82171 0.0978,-83.8484 0.12488,-87.19319 0.71308,-88.15512 0.33626,-0.54993 1.01117,-1.29983 1.4998,-1.66645 0.88076,-0.66084 1.47561,-0.66733 69.02554,-0.75385 43.67025,-0.0559 68.25316,0.0288 68.46025,0.23584 0.20862,0.20863 0.16953,0.50816 -0.11033,0.84537 -0.53535,0.64506 -0.57453,4.06905 -0.0525,4.59104 1.27535,1.27535 2.90004,1.24263 -66.02707,1.32996 l -66.40797,0.0841 v 84.48894 84.48894 h 88.15512 88.15513 v -84.48894 -84.48894 l -2.41635,-0.0979 -2.41635,-0.0979 v -3.48494 -3.48494 l 3.41622,0.004 c 1.87892,0.002 3.97249,0.0956 4.65238,0.20804 1.62521,0.26868 3.10014,1.63172 3.55774,3.28784 0.45832,1.65871 0.51675,174.28521 0.0597,176.25479 -0.37028,1.5955 -1.96596,3.07027 -3.6174,3.34329 -1.63667,0.27058 -181.96022,0.19406 -183.08,-0.0777 z"
           id="path1"
           transform="scale(0.26458333)" /><path
           style="opacity:0.5;fill:#beb419;fill-opacity:1;stroke:none;stroke-width:5.03871;stroke-linecap:round;stroke-linejoin:round;paint-order:stroke markers fill"
           d="m 457.45201,498.45399 c -0.10675,-0.17271 -0.903,-0.41835 -1.76945,-0.54585 -0.86644,-0.12749 -1.87119,-0.43612 -2.23277,-0.68583 -0.36158,-0.24971 -0.924,-0.45402 -1.24984,-0.45402 -0.32583,0 -0.59242,-0.13988 -0.59242,-0.31083 0,-0.17096 -0.31647,-0.41128 -0.70326,-0.53404 -1.08488,-0.34433 -4.96266,-3.82317 -4.96266,-4.45211 0,-0.1637 -0.22497,-0.38396 -0.49994,-0.48947 -0.27496,-0.10552 -0.49993,-0.40316 -0.49993,-0.66143 0,-0.25827 -0.22497,-0.6563 -0.49993,-0.8845 -0.27497,-0.2282 -0.49994,-0.67814 -0.49994,-0.99986 0,-0.32173 -0.22497,-0.77167 -0.49993,-0.99987 -0.28197,-0.23402 -0.49994,-0.96057 -0.49994,-1.66645 0,-0.70588 -0.21796,-1.43244 -0.49993,-1.66645 -0.70257,-0.58308 -0.69412,-6.54768 0.0106,-7.4794 0.26913,-0.35583 0.48933,-1.12486 0.48933,-1.70896 0,-0.5841 0.22497,-1.24871 0.49994,-1.47691 0.27496,-0.2282 0.49993,-0.70121 0.49993,-1.05114 0,-0.34993 0.22497,-0.72256 0.49994,-0.82807 0.27496,-0.10552 0.49993,-0.45971 0.49993,-0.78711 0,-0.32739 0.22497,-0.68159 0.49993,-0.7871 0.27497,-0.10552 0.49994,-0.34906 0.49994,-0.5412 0,-1.06289 5.80049,-5.36523 7.93849,-5.88813 0.49153,-0.12022 0.99395,-0.37204 1.1165,-0.55961 0.13481,-0.20634 2.10936,-0.34079 4.99935,-0.34042 3.83863,4.9e-4 4.97286,0.10985 5.7764,0.55694 0.54992,0.30598 1.33732,0.55726 1.74977,0.55838 0.41244,10e-4 0.7499,0.13737 0.7499,0.30274 0,0.16538 0.41244,0.45285 0.91655,0.63883 0.5041,0.18597 1.31193,0.68808 1.79518,1.11579 0.48325,0.42771 1.42063,1.22676 2.08306,1.77566 0.66243,0.5489 1.20442,1.10207 1.20442,1.22927 0,0.12719 0.44994,0.72389 0.99987,1.32598 0.54993,0.60209 0.99987,1.36596 0.99987,1.69748 0,0.33152 0.22497,0.68909 0.49994,0.7946 0.28093,0.10781 0.49993,0.60379 0.49993,1.13225 0,0.51722 0.22497,1.16538 0.49994,1.44034 0.39825,0.39825 0.49993,1.4794 0.49993,5.31563 0,3.87402 -0.0978,4.89683 -0.49993,5.23061 -0.27497,0.2282 -0.49994,0.83044 -0.49994,1.33831 0,0.51334 -0.22201,1.00859 -0.49993,1.11524 -0.27497,0.10552 -0.49994,0.43743 -0.49994,0.7376 0,0.30017 -0.44994,1.11385 -0.99987,1.80819 -0.54993,0.69434 -0.99987,1.36099 -0.99987,1.48144 0,0.35365 -2.44631,2.50242 -3.08293,2.70794 -0.32079,0.10357 -0.58325,0.32818 -0.58325,0.49914 0,0.17095 -0.21752,0.31083 -0.48338,0.31083 -0.26585,0 -0.60331,0.18747 -0.7499,0.41661 -0.32623,0.50994 -2.09491,1.21037 -4.08563,1.618 -0.81734,0.16735 -1.63473,0.45295 -1.81643,0.63464 -0.42085,0.42086 -5.75874,0.43534 -6.0177,0.0163 z"
           id="path2"
           transform="scale(0.26458333)" /><path
           style="opacity:0.5;fill:#beb419;fill-opacity:1;stroke:none;stroke-width:5.03871;stroke-linecap:round;stroke-linejoin:round;paint-order:stroke markers fill"
           d="m 314.95876,638.7497 c 0,-0.18331 0.14712,-0.33329 0.32694,-0.33329 0.17982,0 0.41832,-0.3641 0.53001,-0.80911 0.11169,-0.44501 0.41451,-0.89024 0.67293,-0.98941 0.25842,-0.0992 0.46986,-0.54159 0.46986,-0.98318 0,-0.44158 0.22497,-0.98958 0.49993,-1.21778 0.30133,-0.25008 0.49994,-0.97938 0.49994,-1.83581 0,-0.78149 0.22404,-1.85048 0.49788,-2.37553 0.43613,-0.83625 0.49788,-8.20924 0.49788,-59.44699 0,-51.23775 -0.0618,-58.61074 -0.49788,-59.44699 -0.27384,-0.52505 -0.49788,-1.59404 -0.49788,-2.37554 0,-0.85642 -0.19861,-1.58572 -0.49994,-1.8358 -0.27496,-0.2282 -0.49993,-0.7762 -0.49993,-1.21779 0,-0.44158 -0.22497,-0.8892 -0.49994,-0.99471 -0.27496,-0.10552 -0.49993,-0.48047 -0.49993,-0.83323 0,-0.35276 -0.22497,-0.72771 -0.49994,-0.83322 -0.27496,-0.10552 -0.49993,-0.47576 -0.49993,-0.82277 0,-0.6119 0.59265,-0.63092 19.66409,-0.63092 h 19.66409 v 0.96421 c 0,0.54962 -0.21496,1.0467 -0.49993,1.15606 -0.27496,0.10551 -0.49994,0.55313 -0.49994,0.99472 0,0.44158 -0.22497,0.98958 -0.49993,1.21778 -0.27496,0.2282 -0.49993,0.90311 -0.49993,1.4998 0,0.59669 -0.22497,1.27161 -0.49994,1.49981 -0.3741,0.31047 -0.49993,1.14285 -0.49993,3.30704 0,1.86948 -0.14732,3.03936 -0.41662,3.30848 -0.3206,0.32039 -0.43994,4.61787 -0.51786,18.64756 -0.11076,19.94159 -0.12898,19.73691 1.71584,19.27389 0.4868,-0.12218 0.88508,-0.36001 0.88508,-0.52851 0,-0.16851 0.44995,-0.79899 0.99987,-1.40109 0.54993,-0.60209 0.99987,-1.21633 0.99987,-1.36496 0,-0.14864 0.44994,-0.71008 0.99987,-1.24765 0.54993,-0.53757 0.99987,-1.13244 0.99987,-1.32193 0,-0.18948 0.15369,-0.34452 0.34154,-0.34452 0.18785,0 0.4841,-0.37495 0.65833,-0.83322 0.17423,-0.45828 0.47049,-0.83323 0.65833,-0.83323 0.18785,0 0.34154,-0.15503 0.34154,-0.34452 0,-0.18949 0.44994,-0.78435 0.99987,-1.32193 0.54993,-0.53757 0.99987,-1.06377 0.99987,-1.16934 0,-0.20164 0.44277,-0.78123 1.41648,-1.85415 0.32079,-0.35348 0.58326,-0.77663 0.58326,-0.94032 0,-0.1637 0.22497,-0.38396 0.49993,-0.48948 0.27496,-0.10551 0.49993,-0.33727 0.49993,-0.51502 0,-0.17775 0.44995,-0.8158 0.99987,-1.4179 0.54993,-0.60209 1.00623,-1.24876 1.01399,-1.43705 0.008,-0.18828 0.4577,-0.71025 0.99987,-1.15992 0.54216,-0.44968 0.98575,-0.92786 0.98575,-1.06262 0,-0.13477 0.44994,-0.73766 0.99987,-1.33975 0.54993,-0.6021 0.99987,-1.21633 0.99987,-1.36496 0,-0.14864 0.44994,-0.71008 0.99987,-1.24765 0.54993,-0.53757 0.99987,-1.1164 0.99987,-1.28627 0,-0.16988 0.22497,-0.39519 0.49993,-0.50071 0.27497,-0.10551 0.49994,-0.40547 0.49994,-0.66658 0,-0.2611 0.22497,-0.56106 0.49993,-0.66658 0.27497,-0.10551 0.49994,-0.35158 0.49994,-0.54682 0,-0.19524 0.44994,-0.79482 0.99986,-1.33239 0.54993,-0.53757 0.99987,-1.13244 0.99987,-1.32192 0,-0.18949 0.1537,-0.34453 0.34154,-0.34453 0.18785,0 0.4841,-0.37495 0.65833,-0.83322 0.17424,-0.45827 0.47049,-0.83323 0.65833,-0.83323 0.18785,0 0.34154,-0.20892 0.34154,-0.46427 0,-0.25535 0.22497,-0.55061 0.49994,-0.65612 0.27496,-0.10551 0.49993,-0.33727 0.49993,-0.51502 0,-0.17775 0.44994,-0.81581 0.99987,-1.4179 0.54993,-0.60209 0.99987,-1.27022 0.99987,-1.48472 0,-0.21449 0.22497,-0.47632 0.49993,-0.58184 0.27497,-0.10551 0.49994,-0.40547 0.49994,-0.66658 0,-0.2611 0.22497,-0.56106 0.49993,-0.66658 0.27497,-0.10551 0.49994,-0.48046 0.49994,-0.83322 0,-0.35276 0.22497,-0.72771 0.49993,-0.83322 0.27497,-0.10552 0.49994,-0.40316 0.49994,-0.66143 0,-0.25827 0.22497,-0.6563 0.49993,-0.8845 0.27496,-0.2282 0.49994,-0.67814 0.49994,-0.99987 0,-0.32172 0.22497,-0.77166 0.49993,-0.99986 0.27496,-0.2282 0.49993,-0.83044 0.49993,-1.33831 0,-0.51335 0.22201,-1.0086 0.49994,-1.11525 0.39033,-0.14978 0.49993,-0.81523 0.49993,-3.03526 v -2.84343 h 21.1639 c 15.05691,0 21.16389,0.10487 21.16389,0.36343 0,0.43048 -3.25969,3.63605 -3.69744,3.63605 -0.16612,0 -0.30203,0.22497 -0.30203,0.49993 0,0.27497 -0.22497,0.49994 -0.49994,0.49994 -0.27496,0 -0.49993,0.14257 -0.49993,0.31683 0,0.17425 -0.89988,1.2195 -1.99974,2.32278 -1.09985,1.10328 -1.99974,2.06983 -1.99974,2.14788 0,0.0781 -0.67491,0.85643 -1.4998,1.72971 -0.82489,0.87328 -1.4998,1.71896 -1.4998,1.87929 0,0.16033 -0.44995,0.73134 -0.99987,1.26891 -0.54993,0.53757 -0.99987,1.04203 -0.99987,1.12101 0,0.15145 -1.42966,1.88374 -2.41635,2.92785 -0.32079,0.33946 -0.58326,0.69724 -0.58326,0.79507 0,0.0978 -0.44994,0.61771 -0.99987,1.15528 -0.54993,0.53758 -0.99987,1.06378 -0.99987,1.16935 0,0.20164 -0.44277,0.78123 -1.41648,1.85415 -0.32079,0.35348 -0.58326,0.72274 -0.58326,0.82057 0,0.0978 -0.44994,0.61771 -0.99987,1.15528 -0.54992,0.53757 -0.99986,1.11639 -0.99986,1.28627 0,0.16987 -0.22497,0.39519 -0.49994,0.5007 -0.27496,0.10552 -0.49993,0.40548 -0.49993,0.66658 0,0.26111 -0.22497,0.56107 -0.49994,0.66658 -0.27496,0.10552 -0.49993,0.35159 -0.49993,0.54683 0,0.19524 -0.44994,0.79481 -0.99987,1.33238 -0.54993,0.53758 -0.99987,1.1164 -0.99987,1.28627 0,0.16988 -0.22497,0.3952 -0.49994,0.50071 -0.27496,0.10551 -0.49993,0.40547 -0.49993,0.66658 0,0.2611 -0.22497,0.56106 -0.49993,0.66658 -0.27497,0.10551 -0.49994,0.35158 -0.49994,0.54682 0,0.19525 -0.44994,0.79482 -0.99987,1.33239 -0.54993,0.53757 -0.99987,1.04819 -0.99987,1.13471 0,0.0865 -0.44994,0.64993 -0.99987,1.25202 -0.54992,0.6021 -0.99986,1.21633 -0.99986,1.36497 0,0.14863 -0.44995,0.71007 -0.99987,1.24765 -0.54993,0.53757 -0.99987,1.04819 -0.99987,1.13471 0,0.0865 -0.44994,0.64993 -0.99987,1.25202 -0.54993,0.60209 -0.99987,1.21633 -0.99987,1.36496 0,0.14864 -0.44994,0.71008 -0.99987,1.24765 -0.54993,0.53757 -0.99987,1.04819 -0.99987,1.13471 0,0.0865 -0.44994,0.64993 -0.99987,1.25203 -0.54993,0.60209 -0.99987,1.21632 -0.99987,1.36496 0,0.14863 -0.44994,0.71007 -0.99987,1.24765 -0.54992,0.53757 -0.99987,1.04819 -0.99987,1.13471 0,0.0865 -0.44994,0.64993 -0.99986,1.25202 -0.54993,0.60209 -1.00623,1.24877 -1.01399,1.43705 -0.008,0.18829 -0.4577,0.71025 -0.99987,1.15993 -0.54216,0.44967 -0.98575,0.92785 -0.98575,1.06262 0,0.13477 -0.44994,0.73765 -0.99987,1.33975 -0.54993,0.60209 -1.00622,1.24876 -1.01399,1.43705 -0.008,0.18828 -0.4577,0.71025 -0.99986,1.15992 -0.54217,0.44968 -0.98576,0.92785 -0.98576,1.06262 0,0.13477 -0.44994,0.73766 -0.99987,1.33975 -1.11152,1.21697 -1.38842,3.15101 -0.49993,3.49195 0.27496,0.10552 0.49993,0.40548 0.49993,0.66658 0,0.26111 0.22497,0.56107 0.49994,0.66658 0.27496,0.10552 0.49993,0.40548 0.49993,0.66658 0,0.26111 0.22497,0.56107 0.49994,0.66658 0.27496,0.10552 0.49993,0.40548 0.49993,0.66658 0,0.26111 0.22497,0.56107 0.49994,0.66658 0.27496,0.10552 0.49993,0.39332 0.49993,0.63956 0,0.24624 0.18748,0.56765 0.41661,0.71424 0.40566,0.25952 1.0369,1.14114 1.46649,2.04815 0.11682,0.24666 0.6408,0.9175 1.16439,1.49076 0.52359,0.57326 0.95199,1.23855 0.95199,1.47842 0,0.23986 0.22497,0.52244 0.49993,0.62795 0.27496,0.10552 0.49994,0.40548 0.49994,0.66658 0,0.26111 0.22497,0.56107 0.49993,0.66658 0.27496,0.10552 0.49993,0.36735 0.49993,0.58185 0,0.21449 0.4284,0.85903 0.95199,1.43229 0.52359,0.57326 1.04382,1.28159 1.15605,1.57408 0.11224,0.29248 0.3425,0.53179 0.51169,0.53179 0.16919,0 0.40173,0.37495 0.51674,0.83322 0.11503,0.45827 0.35625,0.83322 0.53607,0.83322 0.17982,0 0.32694,0.14073 0.32694,0.31272 0,0.172 0.44994,0.80535 0.99987,1.40744 0.54993,0.60209 0.99987,1.29097 0.99987,1.53084 0,0.23986 0.22497,0.52244 0.49993,0.62795 0.27497,0.10552 0.49994,0.40548 0.49994,0.66658 0,0.26111 0.22497,0.56107 0.49993,0.66658 0.27497,0.10552 0.49994,0.36735 0.49994,0.58185 0,0.21449 0.42839,0.85903 0.95199,1.43229 0.52359,0.57326 1.04381,1.28159 1.15605,1.57408 0.11223,0.29248 0.34249,0.53179 0.51168,0.53179 0.16919,0 0.40173,0.37495 0.51675,0.83322 0.11502,0.45827 0.35625,0.83322 0.53606,0.83322 0.17982,0 0.32694,0.14073 0.32694,0.31272 0,0.172 0.44994,0.80535 0.99987,1.40744 0.54993,0.60209 0.99987,1.29097 0.99987,1.53084 0,0.23986 0.22497,0.52244 0.49994,0.62795 0.27496,0.10552 0.49993,0.40548 0.49993,0.66658 0,0.26111 0.22497,0.56107 0.49993,0.66658 0.27497,0.10552 0.49994,0.36735 0.49994,0.58185 0,0.21449 0.42839,0.85903 0.95199,1.43229 0.52359,0.57326 1.04381,1.28159 1.15605,1.57408 0.11224,0.29248 0.3425,0.53179 0.51169,0.53179 0.16918,0 0.40172,0.37495 0.51674,0.83322 0.11502,0.45827 0.35625,0.83322 0.53607,0.83322 0.17981,0 0.32694,0.20893 0.32694,0.46428 0,0.25535 0.22497,0.55061 0.49993,0.65612 0.27496,0.10551 0.49993,0.42152 0.49993,0.70224 0,0.28072 0.1537,0.51039 0.34154,0.51039 0.18785,0 0.4841,0.37495 0.65833,0.83323 0.17424,0.45827 0.47049,0.83322 0.65833,0.83322 0.18785,0 0.34154,0.22968 0.34154,0.51039 0,0.28072 0.22497,0.59673 0.49994,0.70224 0.27496,0.10552 0.49993,0.36735 0.49993,0.58185 0,0.21449 0.4284,0.85903 0.95199,1.43229 0.52359,0.57326 1.04382,1.28159 1.15605,1.57408 0.11224,0.29248 0.3425,0.53179 0.51169,0.53179 0.16919,0 0.40172,0.37495 0.51674,0.83322 0.11502,0.45827 0.35625,0.83322 0.53607,0.83322 0.17981,0 0.32694,0.20893 0.32694,0.46428 0,0.25535 0.22497,0.5506 0.49993,0.65612 0.27497,0.10551 0.49994,0.42152 0.49994,0.70224 0,0.28072 0.15369,0.51039 0.34154,0.51039 0.18784,0 0.48409,0.37495 0.65833,0.83323 0.17423,0.45827 0.47048,0.83322 0.65833,0.83322 0.18784,0 0.34154,0.22968 0.34154,0.51039 0,0.28072 0.22497,0.59673 0.49993,0.70224 0.27496,0.10552 0.49993,0.36735 0.49993,0.58185 0,0.21449 0.44995,0.88262 0.99987,1.48471 0.54993,0.6021 0.99987,1.16551 0.99987,1.25202 0,0.0865 0.42891,0.57658 0.95312,1.08901 0.52421,0.51244 1.01165,1.09951 1.08319,1.3046 0.20412,0.58515 2.55884,3.28486 5.3498,6.13356 l 2.5534,2.60624 h -22.13417 -22.13418 v -3.12545 c 0,-2.37157 -0.12058,-3.22552 -0.49993,-3.54035 -0.27496,-0.2282 -0.49993,-0.83044 -0.49993,-1.33831 0,-0.51334 -0.22201,-1.00859 -0.49994,-1.11524 -0.27496,-0.10552 -0.49993,-0.55546 -0.49993,-0.99987 0,-0.44441 -0.22497,-0.89435 -0.49994,-0.99987 -0.27496,-0.10551 -0.49993,-0.48906 -0.49993,-0.85232 0,-0.36327 -0.18748,-0.78042 -0.41661,-0.92701 -0.46777,-0.29925 -1.09094,-1.22849 -1.57568,-2.34959 -0.17833,-0.41244 -0.47794,-0.7499 -0.66578,-0.7499 -0.18785,0 -0.34154,-0.22968 -0.34154,-0.51039 0,-0.28072 -0.22497,-0.59673 -0.49993,-0.70224 -0.27497,-0.10552 -0.49994,-0.48047 -0.49994,-0.83322 0,-0.35276 -0.22497,-0.72772 -0.49993,-0.83323 -0.27497,-0.10551 -0.49994,-0.38472 -0.49994,-0.62046 0,-0.23574 -0.22497,-0.51495 -0.49993,-0.62046 -0.27497,-0.10552 -0.49994,-0.42152 -0.49994,-0.70224 0,-0.28072 -0.15369,-0.51039 -0.34154,-0.51039 -0.18784,0 -0.48409,-0.37495 -0.65833,-0.83323 -0.17423,-0.45827 -0.47048,-0.83322 -0.65833,-0.83322 -0.18784,0 -0.34154,-0.22968 -0.34154,-0.5104 0,-0.28072 -0.22497,-0.59672 -0.49993,-0.70223 -0.27496,-0.10552 -0.49993,-0.36735 -0.49993,-0.58185 0,-0.2145 -0.44995,-0.88262 -0.99987,-1.48471 -0.54993,-0.6021 -0.99987,-1.22799 -0.99987,-1.39088 0,-0.16288 -0.18748,-0.41609 -0.41661,-0.56268 -0.41515,-0.2656 -1.04849,-1.15845 -1.48257,-2.09006 -0.12567,-0.2697 -0.63266,-0.88547 -1.12666,-1.36836 -0.494,-0.4829 -1.00025,-1.19961 -1.12501,-1.5927 -0.12476,-0.39308 -0.36671,-0.71469 -0.53767,-0.71469 -0.17095,0 -0.31083,-0.20893 -0.31083,-0.46428 0,-0.25535 -0.22497,-0.5506 -0.49993,-0.65612 -0.27497,-0.10551 -0.49994,-0.42152 -0.49994,-0.70224 0,-0.28071 -0.15369,-0.51039 -0.34154,-0.51039 -0.18784,0 -0.48409,-0.37495 -0.65833,-0.83322 -0.17423,-0.45828 -0.47048,-0.83323 -0.65833,-0.83323 -0.18784,0 -0.34154,-0.22968 -0.34154,-0.51039 0,-0.28072 -0.22497,-0.59673 -0.49993,-0.70224 -0.27496,-0.10552 -0.49993,-0.36735 -0.49993,-0.58184 0,-0.2145 -0.4284,-0.85903 -0.95199,-1.4323 -0.52359,-0.57325 -1.04382,-1.28159 -1.15605,-1.57408 -0.11224,-0.29248 -0.34127,-0.53178 -0.50895,-0.53178 -0.16768,0 -0.39301,-0.26247 -0.50072,-0.58326 -0.27653,-0.82357 -0.90756,-1.72794 -1.92723,-2.76203 -0.48335,-0.49019 -0.98089,-1.21286 -1.10565,-1.60594 -0.12476,-0.39308 -0.36671,-0.7147 -0.53767,-0.7147 -0.17095,0 -0.31083,-0.20892 -0.31083,-0.46427 0,-0.25536 -0.22497,-0.55061 -0.49993,-0.65613 -0.27497,-0.10551 -0.49994,-0.42151 -0.49994,-0.70223 0,-0.28072 -0.15369,-0.5104 -0.34154,-0.5104 -0.18784,0 -0.48409,-0.37495 -0.65833,-0.83322 -0.17423,-0.45827 -0.45299,-0.83322 -0.61945,-0.83322 -0.16647,0 -0.37556,-0.27873 -0.46465,-0.61941 -0.22957,-0.87789 -1.84547,-1.13409 -2.26059,-0.35841 -0.43632,0.81527 -0.37946,36.556 0.062,38.97284 0.18416,1.0082 0.43568,3.24564 0.55893,4.97208 0.14599,2.04493 0.3693,3.18721 0.6407,3.27735 0.23958,0.0796 0.41662,0.69752 0.41662,1.45421 0,0.86218 0.17236,1.38198 0.49993,1.50768 0.27885,0.10701 0.49993,0.60248 0.49993,1.1204 0,0.51792 0.22109,1.01339 0.49994,1.1204 0.27496,0.10551 0.49993,0.4965 0.49993,0.86888 0,0.67287 -0.12092,0.67704 -19.66409,0.67704 -12.8872,0 -19.66409,-0.11487 -19.66409,-0.33329 z"
           id="path3"
           transform="scale(0.26458333)" /><path
           style="opacity:0.5;fill:#beb419;fill-opacity:1;stroke:none;stroke-width:5.03871;stroke-linecap:round;stroke-linejoin:round;paint-order:stroke markers fill"
           d="m 441.94213,638.7905 c 0,-0.16086 0.22497,-0.47918 0.49994,-0.70738 0.27496,-0.2282 0.49993,-0.67814 0.49993,-0.99987 0,-0.32173 0.22497,-0.77167 0.49994,-0.99987 0.27496,-0.2282 0.5047,-0.95897 0.51053,-1.62393 0.006,-0.66497 0.2308,-1.50017 0.49994,-1.85599 0.42438,-0.5611 0.48933,-6.3615 0.48933,-43.70346 0,-37.86586 -0.0603,-43.10653 -0.49993,-43.47142 -0.28836,-0.23932 -0.49994,-0.96626 -0.49994,-1.71772 0,-0.85059 -0.17353,-1.36939 -0.49993,-1.49465 -0.27497,-0.10551 -0.49994,-0.55545 -0.49994,-0.99987 0,-0.44441 -0.21019,-0.88868 -0.46709,-0.98726 -0.2569,-0.0986 -0.54282,-0.46883 -0.63538,-0.82277 -0.16468,-0.62973 0.2024,-0.64352 17.13158,-0.64352 h 17.29986 v 47.78626 c 0,42.07008 0.0598,47.83589 0.49994,48.20117 0.27496,0.2282 0.49993,0.75313 0.49993,1.16651 0,0.41339 0.22497,0.93832 0.49994,1.16652 0.27496,0.2282 0.49993,0.61406 0.49993,0.85747 0,0.24341 0.26247,0.59544 0.58326,0.78228 0.40129,0.23373 -5.26561,0.34288 -18.16429,0.34985 -10.53998,0.006 -18.74755,-0.11791 -18.74755,-0.28235 z"
           id="path4"
           transform="scale(0.26458333)" /></g><g
         id="g8"
         style="fill:#beb419;fill-opacity:1;filter:url(#filter22)"><path
           style="opacity:0.5;fill:#beb419;fill-opacity:1;stroke:none;stroke-width:5.03871;stroke-linecap:round;stroke-linejoin:round;paint-order:stroke markers fill"
           d="m 304.92576,660.12413 c -1.66555,-0.40421 -2.9247,-1.75212 -3.31009,-3.54343 -0.25216,-1.17207 -0.32836,-27.52272 -0.25683,-88.82171 0.0978,-83.8484 0.12488,-87.19319 0.71308,-88.15512 0.33626,-0.54993 1.01117,-1.29983 1.4998,-1.66645 0.88076,-0.66084 1.47561,-0.66733 69.02554,-0.75385 43.67025,-0.0559 68.25316,0.0288 68.46025,0.23584 0.20862,0.20863 0.16953,0.50816 -0.11033,0.84537 -0.53535,0.64506 -0.57453,4.06905 -0.0525,4.59104 1.27535,1.27535 2.90004,1.24263 -66.02707,1.32996 l -66.40797,0.0841 v 84.48894 84.48894 h 88.15512 88.15513 v -84.48894 -84.48894 l -2.41635,-0.0979 -2.41635,-0.0979 v -3.48494 -3.48494 l 3.41622,0.004 c 1.87892,0.002 3.97249,0.0956 4.65238,0.20804 1.62521,0.26868 3.10014,1.63172 3.55774,3.28784 0.45832,1.65871 0.51675,174.28521 0.0597,176.25479 -0.37028,1.5955 -1.96596,3.07027 -3.6174,3.34329 -1.63667,0.27058 -181.96022,0.19406 -183.08,-0.0777 z"
           id="path5"
           transform="scale(0.26458333)" /><path
           style="opacity:0.5;fill:#beb419;fill-opacity:1;stroke:none;stroke-width:5.03871;stroke-linecap:round;stroke-linejoin:round;paint-order:stroke markers fill"
           d="m 457.45201,498.45399 c -0.10675,-0.17271 -0.903,-0.41835 -1.76945,-0.54585 -0.86644,-0.12749 -1.87119,-0.43612 -2.23277,-0.68583 -0.36158,-0.24971 -0.924,-0.45402 -1.24984,-0.45402 -0.32583,0 -0.59242,-0.13988 -0.59242,-0.31083 0,-0.17096 -0.31647,-0.41128 -0.70326,-0.53404 -1.08488,-0.34433 -4.96266,-3.82317 -4.96266,-4.45211 0,-0.1637 -0.22497,-0.38396 -0.49994,-0.48947 -0.27496,-0.10552 -0.49993,-0.40316 -0.49993,-0.66143 0,-0.25827 -0.22497,-0.6563 -0.49993,-0.8845 -0.27497,-0.2282 -0.49994,-0.67814 -0.49994,-0.99986 0,-0.32173 -0.22497,-0.77167 -0.49993,-0.99987 -0.28197,-0.23402 -0.49994,-0.96057 -0.49994,-1.66645 0,-0.70588 -0.21796,-1.43244 -0.49993,-1.66645 -0.70257,-0.58308 -0.69412,-6.54768 0.0106,-7.4794 0.26913,-0.35583 0.48933,-1.12486 0.48933,-1.70896 0,-0.5841 0.22497,-1.24871 0.49994,-1.47691 0.27496,-0.2282 0.49993,-0.70121 0.49993,-1.05114 0,-0.34993 0.22497,-0.72256 0.49994,-0.82807 0.27496,-0.10552 0.49993,-0.45971 0.49993,-0.78711 0,-0.32739 0.22497,-0.68159 0.49993,-0.7871 0.27497,-0.10552 0.49994,-0.34906 0.49994,-0.5412 0,-1.06289 5.80049,-5.36523 7.93849,-5.88813 0.49153,-0.12022 0.99395,-0.37204 1.1165,-0.55961 0.13481,-0.20634 2.10936,-0.34079 4.99935,-0.34042 3.83863,4.9e-4 4.97286,0.10985 5.7764,0.55694 0.54992,0.30598 1.33732,0.55726 1.74977,0.55838 0.41244,10e-4 0.7499,0.13737 0.7499,0.30274 0,0.16538 0.41244,0.45285 0.91655,0.63883 0.5041,0.18597 1.31193,0.68808 1.79518,1.11579 0.48325,0.42771 1.42063,1.22676 2.08306,1.77566 0.66243,0.5489 1.20442,1.10207 1.20442,1.22927 0,0.12719 0.44994,0.72389 0.99987,1.32598 0.54993,0.60209 0.99987,1.36596 0.99987,1.69748 0,0.33152 0.22497,0.68909 0.49994,0.7946 0.28093,0.10781 0.49993,0.60379 0.49993,1.13225 0,0.51722 0.22497,1.16538 0.49994,1.44034 0.39825,0.39825 0.49993,1.4794 0.49993,5.31563 0,3.87402 -0.0978,4.89683 -0.49993,5.23061 -0.27497,0.2282 -0.49994,0.83044 -0.49994,1.33831 0,0.51334 -0.22201,1.00859 -0.49993,1.11524 -0.27497,0.10552 -0.49994,0.43743 -0.49994,0.7376 0,0.30017 -0.44994,1.11385 -0.99987,1.80819 -0.54993,0.69434 -0.99987,1.36099 -0.99987,1.48144 0,0.35365 -2.44631,2.50242 -3.08293,2.70794 -0.32079,0.10357 -0.58325,0.32818 -0.58325,0.49914 0,0.17095 -0.21752,0.31083 -0.48338,0.31083 -0.26585,0 -0.60331,0.18747 -0.7499,0.41661 -0.32623,0.50994 -2.09491,1.21037 -4.08563,1.618 -0.81734,0.16735 -1.63473,0.45295 -1.81643,0.63464 -0.42085,0.42086 -5.75874,0.43534 -6.0177,0.0163 z"
           id="path6"
           transform="scale(0.26458333)" /><path
           style="opacity:0.5;fill:#beb419;fill-opacity:1;stroke:none;stroke-width:5.03871;stroke-linecap:round;stroke-linejoin:round;paint-order:stroke markers fill"
           d="m 314.95876,638.7497 c 0,-0.18331 0.14712,-0.33329 0.32694,-0.33329 0.17982,0 0.41832,-0.3641 0.53001,-0.80911 0.11169,-0.44501 0.41451,-0.89024 0.67293,-0.98941 0.25842,-0.0992 0.46986,-0.54159 0.46986,-0.98318 0,-0.44158 0.22497,-0.98958 0.49993,-1.21778 0.30133,-0.25008 0.49994,-0.97938 0.49994,-1.83581 0,-0.78149 0.22404,-1.85048 0.49788,-2.37553 0.43613,-0.83625 0.49788,-8.20924 0.49788,-59.44699 0,-51.23775 -0.0618,-58.61074 -0.49788,-59.44699 -0.27384,-0.52505 -0.49788,-1.59404 -0.49788,-2.37554 0,-0.85642 -0.19861,-1.58572 -0.49994,-1.8358 -0.27496,-0.2282 -0.49993,-0.7762 -0.49993,-1.21779 0,-0.44158 -0.22497,-0.8892 -0.49994,-0.99471 -0.27496,-0.10552 -0.49993,-0.48047 -0.49993,-0.83323 0,-0.35276 -0.22497,-0.72771 -0.49994,-0.83322 -0.27496,-0.10552 -0.49993,-0.47576 -0.49993,-0.82277 0,-0.6119 0.59265,-0.63092 19.66409,-0.63092 h 19.66409 v 0.96421 c 0,0.54962 -0.21496,1.0467 -0.49993,1.15606 -0.27496,0.10551 -0.49994,0.55313 -0.49994,0.99472 0,0.44158 -0.22497,0.98958 -0.49993,1.21778 -0.27496,0.2282 -0.49993,0.90311 -0.49993,1.4998 0,0.59669 -0.22497,1.27161 -0.49994,1.49981 -0.3741,0.31047 -0.49993,1.14285 -0.49993,3.30704 0,1.86948 -0.14732,3.03936 -0.41662,3.30848 -0.3206,0.32039 -0.43994,4.61787 -0.51786,18.64756 -0.11076,19.94159 -0.12898,19.73691 1.71584,19.27389 0.4868,-0.12218 0.88508,-0.36001 0.88508,-0.52851 0,-0.16851 0.44995,-0.79899 0.99987,-1.40109 0.54993,-0.60209 0.99987,-1.21633 0.99987,-1.36496 0,-0.14864 0.44994,-0.71008 0.99987,-1.24765 0.54993,-0.53757 0.99987,-1.13244 0.99987,-1.32193 0,-0.18948 0.15369,-0.34452 0.34154,-0.34452 0.18785,0 0.4841,-0.37495 0.65833,-0.83322 0.17423,-0.45828 0.47049,-0.83323 0.65833,-0.83323 0.18785,0 0.34154,-0.15503 0.34154,-0.34452 0,-0.18949 0.44994,-0.78435 0.99987,-1.32193 0.54993,-0.53757 0.99987,-1.06377 0.99987,-1.16934 0,-0.20164 0.44277,-0.78123 1.41648,-1.85415 0.32079,-0.35348 0.58326,-0.77663 0.58326,-0.94032 0,-0.1637 0.22497,-0.38396 0.49993,-0.48948 0.27496,-0.10551 0.49993,-0.33727 0.49993,-0.51502 0,-0.17775 0.44995,-0.8158 0.99987,-1.4179 0.54993,-0.60209 1.00623,-1.24876 1.01399,-1.43705 0.008,-0.18828 0.4577,-0.71025 0.99987,-1.15992 0.54216,-0.44968 0.98575,-0.92786 0.98575,-1.06262 0,-0.13477 0.44994,-0.73766 0.99987,-1.33975 0.54993,-0.6021 0.99987,-1.21633 0.99987,-1.36496 0,-0.14864 0.44994,-0.71008 0.99987,-1.24765 0.54993,-0.53757 0.99987,-1.1164 0.99987,-1.28627 0,-0.16988 0.22497,-0.39519 0.49993,-0.50071 0.27497,-0.10551 0.49994,-0.40547 0.49994,-0.66658 0,-0.2611 0.22497,-0.56106 0.49993,-0.66658 0.27497,-0.10551 0.49994,-0.35158 0.49994,-0.54682 0,-0.19524 0.44994,-0.79482 0.99986,-1.33239 0.54993,-0.53757 0.99987,-1.13244 0.99987,-1.32192 0,-0.18949 0.1537,-0.34453 0.34154,-0.34453 0.18785,0 0.4841,-0.37495 0.65833,-0.83322 0.17424,-0.45827 0.47049,-0.83323 0.65833,-0.83323 0.18785,0 0.34154,-0.20892 0.34154,-0.46427 0,-0.25535 0.22497,-0.55061 0.49994,-0.65612 0.27496,-0.10551 0.49993,-0.33727 0.49993,-0.51502 0,-0.17775 0.44994,-0.81581 0.99987,-1.4179 0.54993,-0.60209 0.99987,-1.27022 0.99987,-1.48472 0,-0.21449 0.22497,-0.47632 0.49993,-0.58184 0.27497,-0.10551 0.49994,-0.40547 0.49994,-0.66658 0,-0.2611 0.22497,-0.56106 0.49993,-0.66658 0.27497,-0.10551 0.49994,-0.48046 0.49994,-0.83322 0,-0.35276 0.22497,-0.72771 0.49993,-0.83322 0.27497,-0.10552 0.49994,-0.40316 0.49994,-0.66143 0,-0.25827 0.22497,-0.6563 0.49993,-0.8845 0.27496,-0.2282 0.49994,-0.67814 0.49994,-0.99987 0,-0.32172 0.22497,-0.77166 0.49993,-0.99986 0.27496,-0.2282 0.49993,-0.83044 0.49993,-1.33831 0,-0.51335 0.22201,-1.0086 0.49994,-1.11525 0.39033,-0.14978 0.49993,-0.81523 0.49993,-3.03526 v -2.84343 h 21.1639 c 15.05691,0 21.16389,0.10487 21.16389,0.36343 0,0.43048 -3.25969,3.63605 -3.69744,3.63605 -0.16612,0 -0.30203,0.22497 -0.30203,0.49993 0,0.27497 -0.22497,0.49994 -0.49994,0.49994 -0.27496,0 -0.49993,0.14257 -0.49993,0.31683 0,0.17425 -0.89988,1.2195 -1.99974,2.32278 -1.09985,1.10328 -1.99974,2.06983 -1.99974,2.14788 0,0.0781 -0.67491,0.85643 -1.4998,1.72971 -0.82489,0.87328 -1.4998,1.71896 -1.4998,1.87929 0,0.16033 -0.44995,0.73134 -0.99987,1.26891 -0.54993,0.53757 -0.99987,1.04203 -0.99987,1.12101 0,0.15145 -1.42966,1.88374 -2.41635,2.92785 -0.32079,0.33946 -0.58326,0.69724 -0.58326,0.79507 0,0.0978 -0.44994,0.61771 -0.99987,1.15528 -0.54993,0.53758 -0.99987,1.06378 -0.99987,1.16935 0,0.20164 -0.44277,0.78123 -1.41648,1.85415 -0.32079,0.35348 -0.58326,0.72274 -0.58326,0.82057 0,0.0978 -0.44994,0.61771 -0.99987,1.15528 -0.54992,0.53757 -0.99986,1.11639 -0.99986,1.28627 0,0.16987 -0.22497,0.39519 -0.49994,0.5007 -0.27496,0.10552 -0.49993,0.40548 -0.49993,0.66658 0,0.26111 -0.22497,0.56107 -0.49994,0.66658 -0.27496,0.10552 -0.49993,0.35159 -0.49993,0.54683 0,0.19524 -0.44994,0.79481 -0.99987,1.33238 -0.54993,0.53758 -0.99987,1.1164 -0.99987,1.28627 0,0.16988 -0.22497,0.3952 -0.49994,0.50071 -0.27496,0.10551 -0.49993,0.40547 -0.49993,0.66658 0,0.2611 -0.22497,0.56106 -0.49993,0.66658 -0.27497,0.10551 -0.49994,0.35158 -0.49994,0.54682 0,0.19525 -0.44994,0.79482 -0.99987,1.33239 -0.54993,0.53757 -0.99987,1.04819 -0.99987,1.13471 0,0.0865 -0.44994,0.64993 -0.99987,1.25202 -0.54992,0.6021 -0.99986,1.21633 -0.99986,1.36497 0,0.14863 -0.44995,0.71007 -0.99987,1.24765 -0.54993,0.53757 -0.99987,1.04819 -0.99987,1.13471 0,0.0865 -0.44994,0.64993 -0.99987,1.25202 -0.54993,0.60209 -0.99987,1.21633 -0.99987,1.36496 0,0.14864 -0.44994,0.71008 -0.99987,1.24765 -0.54993,0.53757 -0.99987,1.04819 -0.99987,1.13471 0,0.0865 -0.44994,0.64993 -0.99987,1.25203 -0.54993,0.60209 -0.99987,1.21632 -0.99987,1.36496 0,0.14863 -0.44994,0.71007 -0.99987,1.24765 -0.54992,0.53757 -0.99987,1.04819 -0.99987,1.13471 0,0.0865 -0.44994,0.64993 -0.99986,1.25202 -0.54993,0.60209 -1.00623,1.24877 -1.01399,1.43705 -0.008,0.18829 -0.4577,0.71025 -0.99987,1.15993 -0.54216,0.44967 -0.98575,0.92785 -0.98575,1.06262 0,0.13477 -0.44994,0.73765 -0.99987,1.33975 -0.54993,0.60209 -1.00622,1.24876 -1.01399,1.43705 -0.008,0.18828 -0.4577,0.71025 -0.99986,1.15992 -0.54217,0.44968 -0.98576,0.92785 -0.98576,1.06262 0,0.13477 -0.44994,0.73766 -0.99987,1.33975 -1.11152,1.21697 -1.38842,3.15101 -0.49993,3.49195 0.27496,0.10552 0.49993,0.40548 0.49993,0.66658 0,0.26111 0.22497,0.56107 0.49994,0.66658 0.27496,0.10552 0.49993,0.40548 0.49993,0.66658 0,0.26111 0.22497,0.56107 0.49994,0.66658 0.27496,0.10552 0.49993,0.40548 0.49993,0.66658 0,0.26111 0.22497,0.56107 0.49994,0.66658 0.27496,0.10552 0.49993,0.39332 0.49993,0.63956 0,0.24624 0.18748,0.56765 0.41661,0.71424 0.40566,0.25952 1.0369,1.14114 1.46649,2.04815 0.11682,0.24666 0.6408,0.9175 1.16439,1.49076 0.52359,0.57326 0.95199,1.23855 0.95199,1.47842 0,0.23986 0.22497,0.52244 0.49993,0.62795 0.27496,0.10552 0.49994,0.40548 0.49994,0.66658 0,0.26111 0.22497,0.56107 0.49993,0.66658 0.27496,0.10552 0.49993,0.36735 0.49993,0.58185 0,0.21449 0.4284,0.85903 0.95199,1.43229 0.52359,0.57326 1.04382,1.28159 1.15605,1.57408 0.11224,0.29248 0.3425,0.53179 0.51169,0.53179 0.16919,0 0.40173,0.37495 0.51674,0.83322 0.11503,0.45827 0.35625,0.83322 0.53607,0.83322 0.17982,0 0.32694,0.14073 0.32694,0.31272 0,0.172 0.44994,0.80535 0.99987,1.40744 0.54993,0.60209 0.99987,1.29097 0.99987,1.53084 0,0.23986 0.22497,0.52244 0.49993,0.62795 0.27497,0.10552 0.49994,0.40548 0.49994,0.66658 0,0.26111 0.22497,0.56107 0.49993,0.66658 0.27497,0.10552 0.49994,0.36735 0.49994,0.58185 0,0.21449 0.42839,0.85903 0.95199,1.43229 0.52359,0.57326 1.04381,1.28159 1.15605,1.57408 0.11223,0.29248 0.34249,0.53179 0.51168,0.53179 0.16919,0 0.40173,0.37495 0.51675,0.83322 0.11502,0.45827 0.35625,0.83322 0.53606,0.83322 0.17982,0 0.32694,0.14073 0.32694,0.31272 0,0.172 0.44994,0.80535 0.99987,1.40744 0.54993,0.60209 0.99987,1.29097 0.99987,1.53084 0,0.23986 0.22497,0.52244 0.49994,0.62795 0.27496,0.10552 0.49993,0.40548 0.49993,0.66658 0,0.26111 0.22497,0.56107 0.49993,0.66658 0.27497,0.10552 0.49994,0.36735 0.49994,0.58185 0,0.21449 0.42839,0.85903 0.95199,1.43229 0.52359,0.57326 1.04381,1.28159 1.15605,1.57408 0.11224,0.29248 0.3425,0.53179 0.51169,0.53179 0.16918,0 0.40172,0.37495 0.51674,0.83322 0.11502,0.45827 0.35625,0.83322 0.53607,0.83322 0.17981,0 0.32694,0.20893 0.32694,0.46428 0,0.25535 0.22497,0.55061 0.49993,0.65612 0.27496,0.10551 0.49993,0.42152 0.49993,0.70224 0,0.28072 0.1537,0.51039 0.34154,0.51039 0.18785,0 0.4841,0.37495 0.65833,0.83323 0.17424,0.45827 0.47049,0.83322 0.65833,0.83322 0.18785,0 0.34154,0.22968 0.34154,0.51039 0,0.28072 0.22497,0.59673 0.49994,0.70224 0.27496,0.10552 0.49993,0.36735 0.49993,0.58185 0,0.21449 0.4284,0.85903 0.95199,1.43229 0.52359,0.57326 1.04382,1.28159 1.15605,1.57408 0.11224,0.29248 0.3425,0.53179 0.51169,0.53179 0.16919,0 0.40172,0.37495 0.51674,0.83322 0.11502,0.45827 0.35625,0.83322 0.53607,0.83322 0.17981,0 0.32694,0.20893 0.32694,0.46428 0,0.25535 0.22497,0.5506 0.49993,0.65612 0.27497,0.10551 0.49994,0.42152 0.49994,0.70224 0,0.28072 0.15369,0.51039 0.34154,0.51039 0.18784,0 0.48409,0.37495 0.65833,0.83323 0.17423,0.45827 0.47048,0.83322 0.65833,0.83322 0.18784,0 0.34154,0.22968 0.34154,0.51039 0,0.28072 0.22497,0.59673 0.49993,0.70224 0.27496,0.10552 0.49993,0.36735 0.49993,0.58185 0,0.21449 0.44995,0.88262 0.99987,1.48471 0.54993,0.6021 0.99987,1.16551 0.99987,1.25202 0,0.0865 0.42891,0.57658 0.95312,1.08901 0.52421,0.51244 1.01165,1.09951 1.08319,1.3046 0.20412,0.58515 2.55884,3.28486 5.3498,6.13356 l 2.5534,2.60624 h -22.13417 -22.13418 v -3.12545 c 0,-2.37157 -0.12058,-3.22552 -0.49993,-3.54035 -0.27496,-0.2282 -0.49993,-0.83044 -0.49993,-1.33831 0,-0.51334 -0.22201,-1.00859 -0.49994,-1.11524 -0.27496,-0.10552 -0.49993,-0.55546 -0.49993,-0.99987 0,-0.44441 -0.22497,-0.89435 -0.49994,-0.99987 -0.27496,-0.10551 -0.49993,-0.48906 -0.49993,-0.85232 0,-0.36327 -0.18748,-0.78042 -0.41661,-0.92701 -0.46777,-0.29925 -1.09094,-1.22849 -1.57568,-2.34959 -0.17833,-0.41244 -0.47794,-0.7499 -0.66578,-0.7499 -0.18785,0 -0.34154,-0.22968 -0.34154,-0.51039 0,-0.28072 -0.22497,-0.59673 -0.49993,-0.70224 -0.27497,-0.10552 -0.49994,-0.48047 -0.49994,-0.83322 0,-0.35276 -0.22497,-0.72772 -0.49993,-0.83323 -0.27497,-0.10551 -0.49994,-0.38472 -0.49994,-0.62046 0,-0.23574 -0.22497,-0.51495 -0.49993,-0.62046 -0.27497,-0.10552 -0.49994,-0.42152 -0.49994,-0.70224 0,-0.28072 -0.15369,-0.51039 -0.34154,-0.51039 -0.18784,0 -0.48409,-0.37495 -0.65833,-0.83323 -0.17423,-0.45827 -0.47048,-0.83322 -0.65833,-0.83322 -0.18784,0 -0.34154,-0.22968 -0.34154,-0.5104 0,-0.28072 -0.22497,-0.59672 -0.49993,-0.70223 -0.27496,-0.10552 -0.49993,-0.36735 -0.49993,-0.58185 0,-0.2145 -0.44995,-0.88262 -0.99987,-1.48471 -0.54993,-0.6021 -0.99987,-1.22799 -0.99987,-1.39088 0,-0.16288 -0.18748,-0.41609 -0.41661,-0.56268 -0.41515,-0.2656 -1.04849,-1.15845 -1.48257,-2.09006 -0.12567,-0.2697 -0.63266,-0.88547 -1.12666,-1.36836 -0.494,-0.4829 -1.00025,-1.19961 -1.12501,-1.5927 -0.12476,-0.39308 -0.36671,-0.71469 -0.53767,-0.71469 -0.17095,0 -0.31083,-0.20893 -0.31083,-0.46428 0,-0.25535 -0.22497,-0.5506 -0.49993,-0.65612 -0.27497,-0.10551 -0.49994,-0.42152 -0.49994,-0.70224 0,-0.28071 -0.15369,-0.51039 -0.34154,-0.51039 -0.18784,0 -0.48409,-0.37495 -0.65833,-0.83322 -0.17423,-0.45828 -0.47048,-0.83323 -0.65833,-0.83323 -0.18784,0 -0.34154,-0.22968 -0.34154,-0.51039 0,-0.28072 -0.22497,-0.59673 -0.49993,-0.70224 -0.27496,-0.10552 -0.49993,-0.36735 -0.49993,-0.58184 0,-0.2145 -0.4284,-0.85903 -0.95199,-1.4323 -0.52359,-0.57325 -1.04382,-1.28159 -1.15605,-1.57408 -0.11224,-0.29248 -0.34127,-0.53178 -0.50895,-0.53178 -0.16768,0 -0.39301,-0.26247 -0.50072,-0.58326 -0.27653,-0.82357 -0.90756,-1.72794 -1.92723,-2.76203 -0.48335,-0.49019 -0.98089,-1.21286 -1.10565,-1.60594 -0.12476,-0.39308 -0.36671,-0.7147 -0.53767,-0.7147 -0.17095,0 -0.31083,-0.20892 -0.31083,-0.46427 0,-0.25536 -0.22497,-0.55061 -0.49993,-0.65613 -0.27497,-0.10551 -0.49994,-0.42151 -0.49994,-0.70223 0,-0.28072 -0.15369,-0.5104 -0.34154,-0.5104 -0.18784,0 -0.48409,-0.37495 -0.65833,-0.83322 -0.17423,-0.45827 -0.45299,-0.83322 -0.61945,-0.83322 -0.16647,0 -0.37556,-0.27873 -0.46465,-0.61941 -0.22957,-0.87789 -1.84547,-1.13409 -2.26059,-0.35841 -0.43632,0.81527 -0.37946,36.556 0.062,38.97284 0.18416,1.0082 0.43568,3.24564 0.55893,4.97208 0.14599,2.04493 0.3693,3.18721 0.6407,3.27735 0.23958,0.0796 0.41662,0.69752 0.41662,1.45421 0,0.86218 0.17236,1.38198 0.49993,1.50768 0.27885,0.10701 0.49993,0.60248 0.49993,1.1204 0,0.51792 0.22109,1.01339 0.49994,1.1204 0.27496,0.10551 0.49993,0.4965 0.49993,0.86888 0,0.67287 -0.12092,0.67704 -19.66409,0.67704 -12.8872,0 -19.66409,-0.11487 -19.66409,-0.33329 z"
           id="path7"
           transform="scale(0.26458333)" /><path
           style="opacity:0.5;fill:#beb419;fill-opacity:1;stroke:none;stroke-width:5.03871;stroke-linecap:round;stroke-linejoin:round;paint-order:stroke markers fill"
           d="m 441.94213,638.7905 c 0,-0.16086 0.22497,-0.47918 0.49994,-0.70738 0.27496,-0.2282 0.49993,-0.67814 0.49993,-0.99987 0,-0.32173 0.22497,-0.77167 0.49994,-0.99987 0.27496,-0.2282 0.5047,-0.95897 0.51053,-1.62393 0.006,-0.66497 0.2308,-1.50017 0.49994,-1.85599 0.42438,-0.5611 0.48933,-6.3615 0.48933,-43.70346 0,-37.86586 -0.0603,-43.10653 -0.49993,-43.47142 -0.28836,-0.23932 -0.49994,-0.96626 -0.49994,-1.71772 0,-0.85059 -0.17353,-1.36939 -0.49993,-1.49465 -0.27497,-0.10551 -0.49994,-0.55545 -0.49994,-0.99987 0,-0.44441 -0.21019,-0.88868 -0.46709,-0.98726 -0.2569,-0.0986 -0.54282,-0.46883 -0.63538,-0.82277 -0.16468,-0.62973 0.2024,-0.64352 17.13158,-0.64352 h 17.29986 v 47.78626 c 0,42.07008 0.0598,47.83589 0.49994,48.20117 0.27496,0.2282 0.49993,0.75313 0.49993,1.16651 0,0.41339 0.22497,0.93832 0.49994,1.16652 0.27496,0.2282 0.49993,0.61406 0.49993,0.85747 0,0.24341 0.26247,0.59544 0.58326,0.78228 0.40129,0.23373 -5.26561,0.34288 -18.16429,0.34985 -10.53998,0.006 -18.74755,-0.11791 -18.74755,-0.28235 z"
           id="path8"
           transform="scale(0.26458333)" /></g><g
         id="g12"
         style="fill:#beb419;fill-opacity:1;filter:url(#filter21)"><path
           style="opacity:0.5;fill:#beb419;fill-opacity:1;stroke:none;stroke-width:5.03871;stroke-linecap:round;stroke-linejoin:round;paint-order:stroke markers fill"
           d="m 304.92576,660.12413 c -1.66555,-0.40421 -2.9247,-1.75212 -3.31009,-3.54343 -0.25216,-1.17207 -0.32836,-27.52272 -0.25683,-88.82171 0.0978,-83.8484 0.12488,-87.19319 0.71308,-88.15512 0.33626,-0.54993 1.01117,-1.29983 1.4998,-1.66645 0.88076,-0.66084 1.47561,-0.66733 69.02554,-0.75385 43.67025,-0.0559 68.25316,0.0288 68.46025,0.23584 0.20862,0.20863 0.16953,0.50816 -0.11033,0.84537 -0.53535,0.64506 -0.57453,4.06905 -0.0525,4.59104 1.27535,1.27535 2.90004,1.24263 -66.02707,1.32996 l -66.40797,0.0841 v 84.48894 84.48894 h 88.15512 88.15513 v -84.48894 -84.48894 l -2.41635,-0.0979 -2.41635,-0.0979 v -3.48494 -3.48494 l 3.41622,0.004 c 1.87892,0.002 3.97249,0.0956 4.65238,0.20804 1.62521,0.26868 3.10014,1.63172 3.55774,3.28784 0.45832,1.65871 0.51675,174.28521 0.0597,176.25479 -0.37028,1.5955 -1.96596,3.07027 -3.6174,3.34329 -1.63667,0.27058 -181.96022,0.19406 -183.08,-0.0777 z"
           id="path9"
           transform="scale(0.26458333)" /><path
           style="opacity:0.5;fill:#beb419;fill-opacity:1;stroke:none;stroke-width:5.03871;stroke-linecap:round;stroke-linejoin:round;paint-order:stroke markers fill"
           d="m 457.45201,498.45399 c -0.10675,-0.17271 -0.903,-0.41835 -1.76945,-0.54585 -0.86644,-0.12749 -1.87119,-0.43612 -2.23277,-0.68583 -0.36158,-0.24971 -0.924,-0.45402 -1.24984,-0.45402 -0.32583,0 -0.59242,-0.13988 -0.59242,-0.31083 0,-0.17096 -0.31647,-0.41128 -0.70326,-0.53404 -1.08488,-0.34433 -4.96266,-3.82317 -4.96266,-4.45211 0,-0.1637 -0.22497,-0.38396 -0.49994,-0.48947 -0.27496,-0.10552 -0.49993,-0.40316 -0.49993,-0.66143 0,-0.25827 -0.22497,-0.6563 -0.49993,-0.8845 -0.27497,-0.2282 -0.49994,-0.67814 -0.49994,-0.99986 0,-0.32173 -0.22497,-0.77167 -0.49993,-0.99987 -0.28197,-0.23402 -0.49994,-0.96057 -0.49994,-1.66645 0,-0.70588 -0.21796,-1.43244 -0.49993,-1.66645 -0.70257,-0.58308 -0.69412,-6.54768 0.0106,-7.4794 0.26913,-0.35583 0.48933,-1.12486 0.48933,-1.70896 0,-0.5841 0.22497,-1.24871 0.49994,-1.47691 0.27496,-0.2282 0.49993,-0.70121 0.49993,-1.05114 0,-0.34993 0.22497,-0.72256 0.49994,-0.82807 0.27496,-0.10552 0.49993,-0.45971 0.49993,-0.78711 0,-0.32739 0.22497,-0.68159 0.49993,-0.7871 0.27497,-0.10552 0.49994,-0.34906 0.49994,-0.5412 0,-1.06289 5.80049,-5.36523 7.93849,-5.88813 0.49153,-0.12022 0.99395,-0.37204 1.1165,-0.55961 0.13481,-0.20634 2.10936,-0.34079 4.99935,-0.34042 3.83863,4.9e-4 4.97286,0.10985 5.7764,0.55694 0.54992,0.30598 1.33732,0.55726 1.74977,0.55838 0.41244,10e-4 0.7499,0.13737 0.7499,0.30274 0,0.16538 0.41244,0.45285 0.91655,0.63883 0.5041,0.18597 1.31193,0.68808 1.79518,1.11579 0.48325,0.42771 1.42063,1.22676 2.08306,1.77566 0.66243,0.5489 1.20442,1.10207 1.20442,1.22927 0,0.12719 0.44994,0.72389 0.99987,1.32598 0.54993,0.60209 0.99987,1.36596 0.99987,1.69748 0,0.33152 0.22497,0.68909 0.49994,0.7946 0.28093,0.10781 0.49993,0.60379 0.49993,1.13225 0,0.51722 0.22497,1.16538 0.49994,1.44034 0.39825,0.39825 0.49993,1.4794 0.49993,5.31563 0,3.87402 -0.0978,4.89683 -0.49993,5.23061 -0.27497,0.2282 -0.49994,0.83044 -0.49994,1.33831 0,0.51334 -0.22201,1.00859 -0.49993,1.11524 -0.27497,0.10552 -0.49994,0.43743 -0.49994,0.7376 0,0.30017 -0.44994,1.11385 -0.99987,1.80819 -0.54993,0.69434 -0.99987,1.36099 -0.99987,1.48144 0,0.35365 -2.44631,2.50242 -3.08293,2.70794 -0.32079,0.10357 -0.58325,0.32818 -0.58325,0.49914 0,0.17095 -0.21752,0.31083 -0.48338,0.31083 -0.26585,0 -0.60331,0.18747 -0.7499,0.41661 -0.32623,0.50994 -2.09491,1.21037 -4.08563,1.618 -0.81734,0.16735 -1.63473,0.45295 -1.81643,0.63464 -0.42085,0.42086 -5.75874,0.43534 -6.0177,0.0163 z"
           id="path10"
           transform="scale(0.26458333)" /><path
           style="opacity:0.5;fill:#beb419;fill-opacity:1;stroke:none;stroke-width:5.03871;stroke-linecap:round;stroke-linejoin:round;paint-order:stroke markers fill"
           d="m 314.95876,638.7497 c 0,-0.18331 0.14712,-0.33329 0.32694,-0.33329 0.17982,0 0.41832,-0.3641 0.53001,-0.80911 0.11169,-0.44501 0.41451,-0.89024 0.67293,-0.98941 0.25842,-0.0992 0.46986,-0.54159 0.46986,-0.98318 0,-0.44158 0.22497,-0.98958 0.49993,-1.21778 0.30133,-0.25008 0.49994,-0.97938 0.49994,-1.83581 0,-0.78149 0.22404,-1.85048 0.49788,-2.37553 0.43613,-0.83625 0.49788,-8.20924 0.49788,-59.44699 0,-51.23775 -0.0618,-58.61074 -0.49788,-59.44699 -0.27384,-0.52505 -0.49788,-1.59404 -0.49788,-2.37554 0,-0.85642 -0.19861,-1.58572 -0.49994,-1.8358 -0.27496,-0.2282 -0.49993,-0.7762 -0.49993,-1.21779 0,-0.44158 -0.22497,-0.8892 -0.49994,-0.99471 -0.27496,-0.10552 -0.49993,-0.48047 -0.49993,-0.83323 0,-0.35276 -0.22497,-0.72771 -0.49994,-0.83322 -0.27496,-0.10552 -0.49993,-0.47576 -0.49993,-0.82277 0,-0.6119 0.59265,-0.63092 19.66409,-0.63092 h 19.66409 v 0.96421 c 0,0.54962 -0.21496,1.0467 -0.49993,1.15606 -0.27496,0.10551 -0.49994,0.55313 -0.49994,0.99472 0,0.44158 -0.22497,0.98958 -0.49993,1.21778 -0.27496,0.2282 -0.49993,0.90311 -0.49993,1.4998 0,0.59669 -0.22497,1.27161 -0.49994,1.49981 -0.3741,0.31047 -0.49993,1.14285 -0.49993,3.30704 0,1.86948 -0.14732,3.03936 -0.41662,3.30848 -0.3206,0.32039 -0.43994,4.61787 -0.51786,18.64756 -0.11076,19.94159 -0.12898,19.73691 1.71584,19.27389 0.4868,-0.12218 0.88508,-0.36001 0.88508,-0.52851 0,-0.16851 0.44995,-0.79899 0.99987,-1.40109 0.54993,-0.60209 0.99987,-1.21633 0.99987,-1.36496 0,-0.14864 0.44994,-0.71008 0.99987,-1.24765 0.54993,-0.53757 0.99987,-1.13244 0.99987,-1.32193 0,-0.18948 0.15369,-0.34452 0.34154,-0.34452 0.18785,0 0.4841,-0.37495 0.65833,-0.83322 0.17423,-0.45828 0.47049,-0.83323 0.65833,-0.83323 0.18785,0 0.34154,-0.15503 0.34154,-0.34452 0,-0.18949 0.44994,-0.78435 0.99987,-1.32193 0.54993,-0.53757 0.99987,-1.06377 0.99987,-1.16934 0,-0.20164 0.44277,-0.78123 1.41648,-1.85415 0.32079,-0.35348 0.58326,-0.77663 0.58326,-0.94032 0,-0.1637 0.22497,-0.38396 0.49993,-0.48948 0.27496,-0.10551 0.49993,-0.33727 0.49993,-0.51502 0,-0.17775 0.44995,-0.8158 0.99987,-1.4179 0.54993,-0.60209 1.00623,-1.24876 1.01399,-1.43705 0.008,-0.18828 0.4577,-0.71025 0.99987,-1.15992 0.54216,-0.44968 0.98575,-0.92786 0.98575,-1.06262 0,-0.13477 0.44994,-0.73766 0.99987,-1.33975 0.54993,-0.6021 0.99987,-1.21633 0.99987,-1.36496 0,-0.14864 0.44994,-0.71008 0.99987,-1.24765 0.54993,-0.53757 0.99987,-1.1164 0.99987,-1.28627 0,-0.16988 0.22497,-0.39519 0.49993,-0.50071 0.27497,-0.10551 0.49994,-0.40547 0.49994,-0.66658 0,-0.2611 0.22497,-0.56106 0.49993,-0.66658 0.27497,-0.10551 0.49994,-0.35158 0.49994,-0.54682 0,-0.19524 0.44994,-0.79482 0.99986,-1.33239 0.54993,-0.53757 0.99987,-1.13244 0.99987,-1.32192 0,-0.18949 0.1537,-0.34453 0.34154,-0.34453 0.18785,0 0.4841,-0.37495 0.65833,-0.83322 0.17424,-0.45827 0.47049,-0.83323 0.65833,-0.83323 0.18785,0 0.34154,-0.20892 0.34154,-0.46427 0,-0.25535 0.22497,-0.55061 0.49994,-0.65612 0.27496,-0.10551 0.49993,-0.33727 0.49993,-0.51502 0,-0.17775 0.44994,-0.81581 0.99987,-1.4179 0.54993,-0.60209 0.99987,-1.27022 0.99987,-1.48472 0,-0.21449 0.22497,-0.47632 0.49993,-0.58184 0.27497,-0.10551 0.49994,-0.40547 0.49994,-0.66658 0,-0.2611 0.22497,-0.56106 0.49993,-0.66658 0.27497,-0.10551 0.49994,-0.48046 0.49994,-0.83322 0,-0.35276 0.22497,-0.72771 0.49993,-0.83322 0.27497,-0.10552 0.49994,-0.40316 0.49994,-0.66143 0,-0.25827 0.22497,-0.6563 0.49993,-0.8845 0.27496,-0.2282 0.49994,-0.67814 0.49994,-0.99987 0,-0.32172 0.22497,-0.77166 0.49993,-0.99986 0.27496,-0.2282 0.49993,-0.83044 0.49993,-1.33831 0,-0.51335 0.22201,-1.0086 0.49994,-1.11525 0.39033,-0.14978 0.49993,-0.81523 0.49993,-3.03526 v -2.84343 h 21.1639 c 15.05691,0 21.16389,0.10487 21.16389,0.36343 0,0.43048 -3.25969,3.63605 -3.69744,3.63605 -0.16612,0 -0.30203,0.22497 -0.30203,0.49993 0,0.27497 -0.22497,0.49994 -0.49994,0.49994 -0.27496,0 -0.49993,0.14257 -0.49993,0.31683 0,0.17425 -0.89988,1.2195 -1.99974,2.32278 -1.09985,1.10328 -1.99974,2.06983 -1.99974,2.14788 0,0.0781 -0.67491,0.85643 -1.4998,1.72971 -0.82489,0.87328 -1.4998,1.71896 -1.4998,1.87929 0,0.16033 -0.44995,0.73134 -0.99987,1.26891 -0.54993,0.53757 -0.99987,1.04203 -0.99987,1.12101 0,0.15145 -1.42966,1.88374 -2.41635,2.92785 -0.32079,0.33946 -0.58326,0.69724 -0.58326,0.79507 0,0.0978 -0.44994,0.61771 -0.99987,1.15528 -0.54993,0.53758 -0.99987,1.06378 -0.99987,1.16935 0,0.20164 -0.44277,0.78123 -1.41648,1.85415 -0.32079,0.35348 -0.58326,0.72274 -0.58326,0.82057 0,0.0978 -0.44994,0.61771 -0.99987,1.15528 -0.54992,0.53757 -0.99986,1.11639 -0.99986,1.28627 0,0.16987 -0.22497,0.39519 -0.49994,0.5007 -0.27496,0.10552 -0.49993,0.40548 -0.49993,0.66658 0,0.26111 -0.22497,0.56107 -0.49994,0.66658 -0.27496,0.10552 -0.49993,0.35159 -0.49993,0.54683 0,0.19524 -0.44994,0.79481 -0.99987,1.33238 -0.54993,0.53758 -0.99987,1.1164 -0.99987,1.28627 0,0.16988 -0.22497,0.3952 -0.49994,0.50071 -0.27496,0.10551 -0.49993,0.40547 -0.49993,0.66658 0,0.2611 -0.22497,0.56106 -0.49993,0.66658 -0.27497,0.10551 -0.49994,0.35158 -0.49994,0.54682 0,0.19525 -0.44994,0.79482 -0.99987,1.33239 -0.54993,0.53757 -0.99987,1.04819 -0.99987,1.13471 0,0.0865 -0.44994,0.64993 -0.99987,1.25202 -0.54992,0.6021 -0.99986,1.21633 -0.99986,1.36497 0,0.14863 -0.44995,0.71007 -0.99987,1.24765 -0.54993,0.53757 -0.99987,1.04819 -0.99987,1.13471 0,0.0865 -0.44994,0.64993 -0.99987,1.25202 -0.54993,0.60209 -0.99987,1.21633 -0.99987,1.36496 0,0.14864 -0.44994,0.71008 -0.99987,1.24765 -0.54993,0.53757 -0.99987,1.04819 -0.99987,1.13471 0,0.0865 -0.44994,0.64993 -0.99987,1.25203 -0.54993,0.60209 -0.99987,1.21632 -0.99987,1.36496 0,0.14863 -0.44994,0.71007 -0.99987,1.24765 -0.54992,0.53757 -0.99987,1.04819 -0.99987,1.13471 0,0.0865 -0.44994,0.64993 -0.99986,1.25202 -0.54993,0.60209 -1.00623,1.24877 -1.01399,1.43705 -0.008,0.18829 -0.4577,0.71025 -0.99987,1.15993 -0.54216,0.44967 -0.98575,0.92785 -0.98575,1.06262 0,0.13477 -0.44994,0.73765 -0.99987,1.33975 -0.54993,0.60209 -1.00622,1.24876 -1.01399,1.43705 -0.008,0.18828 -0.4577,0.71025 -0.99986,1.15992 -0.54217,0.44968 -0.98576,0.92785 -0.98576,1.06262 0,0.13477 -0.44994,0.73766 -0.99987,1.33975 -1.11152,1.21697 -1.38842,3.15101 -0.49993,3.49195 0.27496,0.10552 0.49993,0.40548 0.49993,0.66658 0,0.26111 0.22497,0.56107 0.49994,0.66658 0.27496,0.10552 0.49993,0.40548 0.49993,0.66658 0,0.26111 0.22497,0.56107 0.49994,0.66658 0.27496,0.10552 0.49993,0.40548 0.49993,0.66658 0,0.26111 0.22497,0.56107 0.49994,0.66658 0.27496,0.10552 0.49993,0.39332 0.49993,0.63956 0,0.24624 0.18748,0.56765 0.41661,0.71424 0.40566,0.25952 1.0369,1.14114 1.46649,2.04815 0.11682,0.24666 0.6408,0.9175 1.16439,1.49076 0.52359,0.57326 0.95199,1.23855 0.95199,1.47842 0,0.23986 0.22497,0.52244 0.49993,0.62795 0.27496,0.10552 0.49994,0.40548 0.49994,0.66658 0,0.26111 0.22497,0.56107 0.49993,0.66658 0.27496,0.10552 0.49993,0.36735 0.49993,0.58185 0,0.21449 0.4284,0.85903 0.95199,1.43229 0.52359,0.57326 1.04382,1.28159 1.15605,1.57408 0.11224,0.29248 0.3425,0.53179 0.51169,0.53179 0.16919,0 0.40173,0.37495 0.51674,0.83322 0.11503,0.45827 0.35625,0.83322 0.53607,0.83322 0.17982,0 0.32694,0.14073 0.32694,0.31272 0,0.172 0.44994,0.80535 0.99987,1.40744 0.54993,0.60209 0.99987,1.29097 0.99987,1.53084 0,0.23986 0.22497,0.52244 0.49993,0.62795 0.27497,0.10552 0.49994,0.40548 0.49994,0.66658 0,0.26111 0.22497,0.56107 0.49993,0.66658 0.27497,0.10552 0.49994,0.36735 0.49994,0.58185 0,0.21449 0.42839,0.85903 0.95199,1.43229 0.52359,0.57326 1.04381,1.28159 1.15605,1.57408 0.11223,0.29248 0.34249,0.53179 0.51168,0.53179 0.16919,0 0.40173,0.37495 0.51675,0.83322 0.11502,0.45827 0.35625,0.83322 0.53606,0.83322 0.17982,0 0.32694,0.14073 0.32694,0.31272 0,0.172 0.44994,0.80535 0.99987,1.40744 0.54993,0.60209 0.99987,1.29097 0.99987,1.53084 0,0.23986 0.22497,0.52244 0.49994,0.62795 0.27496,0.10552 0.49993,0.40548 0.49993,0.66658 0,0.26111 0.22497,0.56107 0.49993,0.66658 0.27497,0.10552 0.49994,0.36735 0.49994,0.58185 0,0.21449 0.42839,0.85903 0.95199,1.43229 0.52359,0.57326 1.04381,1.28159 1.15605,1.57408 0.11224,0.29248 0.3425,0.53179 0.51169,0.53179 0.16918,0 0.40172,0.37495 0.51674,0.83322 0.11502,0.45827 0.35625,0.83322 0.53607,0.83322 0.17981,0 0.32694,0.20893 0.32694,0.46428 0,0.25535 0.22497,0.55061 0.49993,0.65612 0.27496,0.10551 0.49993,0.42152 0.49993,0.70224 0,0.28072 0.1537,0.51039 0.34154,0.51039 0.18785,0 0.4841,0.37495 0.65833,0.83323 0.17424,0.45827 0.47049,0.83322 0.65833,0.83322 0.18785,0 0.34154,0.22968 0.34154,0.51039 0,0.28072 0.22497,0.59673 0.49994,0.70224 0.27496,0.10552 0.49993,0.36735 0.49993,0.58185 0,0.21449 0.4284,0.85903 0.95199,1.43229 0.52359,0.57326 1.04382,1.28159 1.15605,1.57408 0.11224,0.29248 0.3425,0.53179 0.51169,0.53179 0.16919,0 0.40172,0.37495 0.51674,0.83322 0.11502,0.45827 0.35625,0.83322 0.53607,0.83322 0.17981,0 0.32694,0.20893 0.32694,0.46428 0,0.25535 0.22497,0.5506 0.49993,0.65612 0.27497,0.10551 0.49994,0.42152 0.49994,0.70224 0,0.28072 0.15369,0.51039 0.34154,0.51039 0.18784,0 0.48409,0.37495 0.65833,0.83323 0.17423,0.45827 0.47048,0.83322 0.65833,0.83322 0.18784,0 0.34154,0.22968 0.34154,0.51039 0,0.28072 0.22497,0.59673 0.49993,0.70224 0.27496,0.10552 0.49993,0.36735 0.49993,0.58185 0,0.21449 0.44995,0.88262 0.99987,1.48471 0.54993,0.6021 0.99987,1.16551 0.99987,1.25202 0,0.0865 0.42891,0.57658 0.95312,1.08901 0.52421,0.51244 1.01165,1.09951 1.08319,1.3046 0.20412,0.58515 2.55884,3.28486 5.3498,6.13356 l 2.5534,2.60624 h -22.13417 -22.13418 v -3.12545 c 0,-2.37157 -0.12058,-3.22552 -0.49993,-3.54035 -0.27496,-0.2282 -0.49993,-0.83044 -0.49993,-1.33831 0,-0.51334 -0.22201,-1.00859 -0.49994,-1.11524 -0.27496,-0.10552 -0.49993,-0.55546 -0.49993,-0.99987 0,-0.44441 -0.22497,-0.89435 -0.49994,-0.99987 -0.27496,-0.10551 -0.49993,-0.48906 -0.49993,-0.85232 0,-0.36327 -0.18748,-0.78042 -0.41661,-0.92701 -0.46777,-0.29925 -1.09094,-1.22849 -1.57568,-2.34959 -0.17833,-0.41244 -0.47794,-0.7499 -0.66578,-0.7499 -0.18785,0 -0.34154,-0.22968 -0.34154,-0.51039 0,-0.28072 -0.22497,-0.59673 -0.49993,-0.70224 -0.27497,-0.10552 -0.49994,-0.48047 -0.49994,-0.83322 0,-0.35276 -0.22497,-0.72772 -0.49993,-0.83323 -0.27497,-0.10551 -0.49994,-0.38472 -0.49994,-0.62046 0,-0.23574 -0.22497,-0.51495 -0.49993,-0.62046 -0.27497,-0.10552 -0.49994,-0.42152 -0.49994,-0.70224 0,-0.28072 -0.15369,-0.51039 -0.34154,-0.51039 -0.18784,0 -0.48409,-0.37495 -0.65833,-0.83323 -0.17423,-0.45827 -0.47048,-0.83322 -0.65833,-0.83322 -0.18784,0 -0.34154,-0.22968 -0.34154,-0.5104 0,-0.28072 -0.22497,-0.59672 -0.49993,-0.70223 -0.27496,-0.10552 -0.49993,-0.36735 -0.49993,-0.58185 0,-0.2145 -0.44995,-0.88262 -0.99987,-1.48471 -0.54993,-0.6021 -0.99987,-1.22799 -0.99987,-1.39088 0,-0.16288 -0.18748,-0.41609 -0.41661,-0.56268 -0.41515,-0.2656 -1.04849,-1.15845 -1.48257,-2.09006 -0.12567,-0.2697 -0.63266,-0.88547 -1.12666,-1.36836 -0.494,-0.4829 -1.00025,-1.19961 -1.12501,-1.5927 -0.12476,-0.39308 -0.36671,-0.71469 -0.53767,-0.71469 -0.17095,0 -0.31083,-0.20893 -0.31083,-0.46428 0,-0.25535 -0.22497,-0.5506 -0.49993,-0.65612 -0.27497,-0.10551 -0.49994,-0.42152 -0.49994,-0.70224 0,-0.28071 -0.15369,-0.51039 -0.34154,-0.51039 -0.18784,0 -0.48409,-0.37495 -0.65833,-0.83322 -0.17423,-0.45828 -0.47048,-0.83323 -0.65833,-0.83323 -0.18784,0 -0.34154,-0.22968 -0.34154,-0.51039 0,-0.28072 -0.22497,-0.59673 -0.49993,-0.70224 -0.27496,-0.10552 -0.49993,-0.36735 -0.49993,-0.58184 0,-0.2145 -0.4284,-0.85903 -0.95199,-1.4323 -0.52359,-0.57325 -1.04382,-1.28159 -1.15605,-1.57408 -0.11224,-0.29248 -0.34127,-0.53178 -0.50895,-0.53178 -0.16768,0 -0.39301,-0.26247 -0.50072,-0.58326 -0.27653,-0.82357 -0.90756,-1.72794 -1.92723,-2.76203 -0.48335,-0.49019 -0.98089,-1.21286 -1.10565,-1.60594 -0.12476,-0.39308 -0.36671,-0.7147 -0.53767,-0.7147 -0.17095,0 -0.31083,-0.20892 -0.31083,-0.46427 0,-0.25536 -0.22497,-0.55061 -0.49993,-0.65613 -0.27497,-0.10551 -0.49994,-0.42151 -0.49994,-0.70223 0,-0.28072 -0.15369,-0.5104 -0.34154,-0.5104 -0.18784,0 -0.48409,-0.37495 -0.65833,-0.83322 -0.17423,-0.45827 -0.45299,-0.83322 -0.61945,-0.83322 -0.16647,0 -0.37556,-0.27873 -0.46465,-0.61941 -0.22957,-0.87789 -1.84547,-1.13409 -2.26059,-0.35841 -0.43632,0.81527 -0.37946,36.556 0.062,38.97284 0.18416,1.0082 0.43568,3.24564 0.55893,4.97208 0.14599,2.04493 0.3693,3.18721 0.6407,3.27735 0.23958,0.0796 0.41662,0.69752 0.41662,1.45421 0,0.86218 0.17236,1.38198 0.49993,1.50768 0.27885,0.10701 0.49993,0.60248 0.49993,1.1204 0,0.51792 0.22109,1.01339 0.49994,1.1204 0.27496,0.10551 0.49993,0.4965 0.49993,0.86888 0,0.67287 -0.12092,0.67704 -19.66409,0.67704 -12.8872,0 -19.66409,-0.11487 -19.66409,-0.33329 z"
           id="path11"
           transform="scale(0.26458333)" /><path
           style="opacity:0.5;fill:#beb419;fill-opacity:1;stroke:none;stroke-width:5.03871;stroke-linecap:round;stroke-linejoin:round;paint-order:stroke markers fill"
           d="m 441.94213,638.7905 c 0,-0.16086 0.22497,-0.47918 0.49994,-0.70738 0.27496,-0.2282 0.49993,-0.67814 0.49993,-0.99987 0,-0.32173 0.22497,-0.77167 0.49994,-0.99987 0.27496,-0.2282 0.5047,-0.95897 0.51053,-1.62393 0.006,-0.66497 0.2308,-1.50017 0.49994,-1.85599 0.42438,-0.5611 0.48933,-6.3615 0.48933,-43.70346 0,-37.86586 -0.0603,-43.10653 -0.49993,-43.47142 -0.28836,-0.23932 -0.49994,-0.96626 -0.49994,-1.71772 0,-0.85059 -0.17353,-1.36939 -0.49993,-1.49465 -0.27497,-0.10551 -0.49994,-0.55545 -0.49994,-0.99987 0,-0.44441 -0.21019,-0.88868 -0.46709,-0.98726 -0.2569,-0.0986 -0.54282,-0.46883 -0.63538,-0.82277 -0.16468,-0.62973 0.2024,-0.64352 17.13158,-0.64352 h 17.29986 v 47.78626 c 0,42.07008 0.0598,47.83589 0.49994,48.20117 0.27496,0.2282 0.49993,0.75313 0.49993,1.16651 0,0.41339 0.22497,0.93832 0.49994,1.16652 0.27496,0.2282 0.49993,0.61406 0.49993,0.85747 0,0.24341 0.26247,0.59544 0.58326,0.78228 0.40129,0.23373 -5.26561,0.34288 -18.16429,0.34985 -10.53998,0.006 -18.74755,-0.11791 -18.74755,-0.28235 z"
           id="path12"
           transform="scale(0.26458333)" /></g><g
         id="g16"
         style="fill:#beb419;fill-opacity:1;filter:url(#filter20)"><path
           style="opacity:0.5;fill:#beb419;fill-opacity:1;stroke:none;stroke-width:5.03871;stroke-linecap:round;stroke-linejoin:round;paint-order:stroke markers fill"
           d="m 304.92576,660.12413 c -1.66555,-0.40421 -2.9247,-1.75212 -3.31009,-3.54343 -0.25216,-1.17207 -0.32836,-27.52272 -0.25683,-88.82171 0.0978,-83.8484 0.12488,-87.19319 0.71308,-88.15512 0.33626,-0.54993 1.01117,-1.29983 1.4998,-1.66645 0.88076,-0.66084 1.47561,-0.66733 69.02554,-0.75385 43.67025,-0.0559 68.25316,0.0288 68.46025,0.23584 0.20862,0.20863 0.16953,0.50816 -0.11033,0.84537 -0.53535,0.64506 -0.57453,4.06905 -0.0525,4.59104 1.27535,1.27535 2.90004,1.24263 -66.02707,1.32996 l -66.40797,0.0841 v 84.48894 84.48894 h 88.15512 88.15513 v -84.48894 -84.48894 l -2.41635,-0.0979 -2.41635,-0.0979 v -3.48494 -3.48494 l 3.41622,0.004 c 1.87892,0.002 3.97249,0.0956 4.65238,0.20804 1.62521,0.26868 3.10014,1.63172 3.55774,3.28784 0.45832,1.65871 0.51675,174.28521 0.0597,176.25479 -0.37028,1.5955 -1.96596,3.07027 -3.6174,3.34329 -1.63667,0.27058 -181.96022,0.19406 -183.08,-0.0777 z"
           id="path13"
           transform="scale(0.26458333)" /><path
           style="opacity:0.5;fill:#beb419;fill-opacity:1;stroke:none;stroke-width:5.03871;stroke-linecap:round;stroke-linejoin:round;paint-order:stroke markers fill"
           d="m 457.45201,498.45399 c -0.10675,-0.17271 -0.903,-0.41835 -1.76945,-0.54585 -0.86644,-0.12749 -1.87119,-0.43612 -2.23277,-0.68583 -0.36158,-0.24971 -0.924,-0.45402 -1.24984,-0.45402 -0.32583,0 -0.59242,-0.13988 -0.59242,-0.31083 0,-0.17096 -0.31647,-0.41128 -0.70326,-0.53404 -1.08488,-0.34433 -4.96266,-3.82317 -4.96266,-4.45211 0,-0.1637 -0.22497,-0.38396 -0.49994,-0.48947 -0.27496,-0.10552 -0.49993,-0.40316 -0.49993,-0.66143 0,-0.25827 -0.22497,-0.6563 -0.49993,-0.8845 -0.27497,-0.2282 -0.49994,-0.67814 -0.49994,-0.99986 0,-0.32173 -0.22497,-0.77167 -0.49993,-0.99987 -0.28197,-0.23402 -0.49994,-0.96057 -0.49994,-1.66645 0,-0.70588 -0.21796,-1.43244 -0.49993,-1.66645 -0.70257,-0.58308 -0.69412,-6.54768 0.0106,-7.4794 0.26913,-0.35583 0.48933,-1.12486 0.48933,-1.70896 0,-0.5841 0.22497,-1.24871 0.49994,-1.47691 0.27496,-0.2282 0.49993,-0.70121 0.49993,-1.05114 0,-0.34993 0.22497,-0.72256 0.49994,-0.82807 0.27496,-0.10552 0.49993,-0.45971 0.49993,-0.78711 0,-0.32739 0.22497,-0.68159 0.49993,-0.7871 0.27497,-0.10552 0.49994,-0.34906 0.49994,-0.5412 0,-1.06289 5.80049,-5.36523 7.93849,-5.88813 0.49153,-0.12022 0.99395,-0.37204 1.1165,-0.55961 0.13481,-0.20634 2.10936,-0.34079 4.99935,-0.34042 3.83863,4.9e-4 4.97286,0.10985 5.7764,0.55694 0.54992,0.30598 1.33732,0.55726 1.74977,0.55838 0.41244,10e-4 0.7499,0.13737 0.7499,0.30274 0,0.16538 0.41244,0.45285 0.91655,0.63883 0.5041,0.18597 1.31193,0.68808 1.79518,1.11579 0.48325,0.42771 1.42063,1.22676 2.08306,1.77566 0.66243,0.5489 1.20442,1.10207 1.20442,1.22927 0,0.12719 0.44994,0.72389 0.99987,1.32598 0.54993,0.60209 0.99987,1.36596 0.99987,1.69748 0,0.33152 0.22497,0.68909 0.49994,0.7946 0.28093,0.10781 0.49993,0.60379 0.49993,1.13225 0,0.51722 0.22497,1.16538 0.49994,1.44034 0.39825,0.39825 0.49993,1.4794 0.49993,5.31563 0,3.87402 -0.0978,4.89683 -0.49993,5.23061 -0.27497,0.2282 -0.49994,0.83044 -0.49994,1.33831 0,0.51334 -0.22201,1.00859 -0.49993,1.11524 -0.27497,0.10552 -0.49994,0.43743 -0.49994,0.7376 0,0.30017 -0.44994,1.11385 -0.99987,1.80819 -0.54993,0.69434 -0.99987,1.36099 -0.99987,1.48144 0,0.35365 -2.44631,2.50242 -3.08293,2.70794 -0.32079,0.10357 -0.58325,0.32818 -0.58325,0.49914 0,0.17095 -0.21752,0.31083 -0.48338,0.31083 -0.26585,0 -0.60331,0.18747 -0.7499,0.41661 -0.32623,0.50994 -2.09491,1.21037 -4.08563,1.618 -0.81734,0.16735 -1.63473,0.45295 -1.81643,0.63464 -0.42085,0.42086 -5.75874,0.43534 -6.0177,0.0163 z"
           id="path14"
           transform="scale(0.26458333)" /><path
           style="opacity:0.5;fill:#beb419;fill-opacity:1;stroke:none;stroke-width:5.03871;stroke-linecap:round;stroke-linejoin:round;paint-order:stroke markers fill"
           d="m 314.95876,638.7497 c 0,-0.18331 0.14712,-0.33329 0.32694,-0.33329 0.17982,0 0.41832,-0.3641 0.53001,-0.80911 0.11169,-0.44501 0.41451,-0.89024 0.67293,-0.98941 0.25842,-0.0992 0.46986,-0.54159 0.46986,-0.98318 0,-0.44158 0.22497,-0.98958 0.49993,-1.21778 0.30133,-0.25008 0.49994,-0.97938 0.49994,-1.83581 0,-0.78149 0.22404,-1.85048 0.49788,-2.37553 0.43613,-0.83625 0.49788,-8.20924 0.49788,-59.44699 0,-51.23775 -0.0618,-58.61074 -0.49788,-59.44699 -0.27384,-0.52505 -0.49788,-1.59404 -0.49788,-2.37554 0,-0.85642 -0.19861,-1.58572 -0.49994,-1.8358 -0.27496,-0.2282 -0.49993,-0.7762 -0.49993,-1.21779 0,-0.44158 -0.22497,-0.8892 -0.49994,-0.99471 -0.27496,-0.10552 -0.49993,-0.48047 -0.49993,-0.83323 0,-0.35276 -0.22497,-0.72771 -0.49994,-0.83322 -0.27496,-0.10552 -0.49993,-0.47576 -0.49993,-0.82277 0,-0.6119 0.59265,-0.63092 19.66409,-0.63092 h 19.66409 v 0.96421 c 0,0.54962 -0.21496,1.0467 -0.49993,1.15606 -0.27496,0.10551 -0.49994,0.55313 -0.49994,0.99472 0,0.44158 -0.22497,0.98958 -0.49993,1.21778 -0.27496,0.2282 -0.49993,0.90311 -0.49993,1.4998 0,0.59669 -0.22497,1.27161 -0.49994,1.49981 -0.3741,0.31047 -0.49993,1.14285 -0.49993,3.30704 0,1.86948 -0.14732,3.03936 -0.41662,3.30848 -0.3206,0.32039 -0.43994,4.61787 -0.51786,18.64756 -0.11076,19.94159 -0.12898,19.73691 1.71584,19.27389 0.4868,-0.12218 0.88508,-0.36001 0.88508,-0.52851 0,-0.16851 0.44995,-0.79899 0.99987,-1.40109 0.54993,-0.60209 0.99987,-1.21633 0.99987,-1.36496 0,-0.14864 0.44994,-0.71008 0.99987,-1.24765 0.54993,-0.53757 0.99987,-1.13244 0.99987,-1.32193 0,-0.18948 0.15369,-0.34452 0.34154,-0.34452 0.18785,0 0.4841,-0.37495 0.65833,-0.83322 0.17423,-0.45828 0.47049,-0.83323 0.65833,-0.83323 0.18785,0 0.34154,-0.15503 0.34154,-0.34452 0,-0.18949 0.44994,-0.78435 0.99987,-1.32193 0.54993,-0.53757 0.99987,-1.06377 0.99987,-1.16934 0,-0.20164 0.44277,-0.78123 1.41648,-1.85415 0.32079,-0.35348 0.58326,-0.77663 0.58326,-0.94032 0,-0.1637 0.22497,-0.38396 0.49993,-0.48948 0.27496,-0.10551 0.49993,-0.33727 0.49993,-0.51502 0,-0.17775 0.44995,-0.8158 0.99987,-1.4179 0.54993,-0.60209 1.00623,-1.24876 1.01399,-1.43705 0.008,-0.18828 0.4577,-0.71025 0.99987,-1.15992 0.54216,-0.44968 0.98575,-0.92786 0.98575,-1.06262 0,-0.13477 0.44994,-0.73766 0.99987,-1.33975 0.54993,-0.6021 0.99987,-1.21633 0.99987,-1.36496 0,-0.14864 0.44994,-0.71008 0.99987,-1.24765 0.54993,-0.53757 0.99987,-1.1164 0.99987,-1.28627 0,-0.16988 0.22497,-0.39519 0.49993,-0.50071 0.27497,-0.10551 0.49994,-0.40547 0.49994,-0.66658 0,-0.2611 0.22497,-0.56106 0.49993,-0.66658 0.27497,-0.10551 0.49994,-0.35158 0.49994,-0.54682 0,-0.19524 0.44994,-0.79482 0.99986,-1.33239 0.54993,-0.53757 0.99987,-1.13244 0.99987,-1.32192 0,-0.18949 0.1537,-0.34453 0.34154,-0.34453 0.18785,0 0.4841,-0.37495 0.65833,-0.83322 0.17424,-0.45827 0.47049,-0.83323 0.65833,-0.83323 0.18785,0 0.34154,-0.20892 0.34154,-0.46427 0,-0.25535 0.22497,-0.55061 0.49994,-0.65612 0.27496,-0.10551 0.49993,-0.33727 0.49993,-0.51502 0,-0.17775 0.44994,-0.81581 0.99987,-1.4179 0.54993,-0.60209 0.99987,-1.27022 0.99987,-1.48472 0,-0.21449 0.22497,-0.47632 0.49993,-0.58184 0.27497,-0.10551 0.49994,-0.40547 0.49994,-0.66658 0,-0.2611 0.22497,-0.56106 0.49993,-0.66658 0.27497,-0.10551 0.49994,-0.48046 0.49994,-0.83322 0,-0.35276 0.22497,-0.72771 0.49993,-0.83322 0.27497,-0.10552 0.49994,-0.40316 0.49994,-0.66143 0,-0.25827 0.22497,-0.6563 0.49993,-0.8845 0.27496,-0.2282 0.49994,-0.67814 0.49994,-0.99987 0,-0.32172 0.22497,-0.77166 0.49993,-0.99986 0.27496,-0.2282 0.49993,-0.83044 0.49993,-1.33831 0,-0.51335 0.22201,-1.0086 0.49994,-1.11525 0.39033,-0.14978 0.49993,-0.81523 0.49993,-3.03526 v -2.84343 h 21.1639 c 15.05691,0 21.16389,0.10487 21.16389,0.36343 0,0.43048 -3.25969,3.63605 -3.69744,3.63605 -0.16612,0 -0.30203,0.22497 -0.30203,0.49993 0,0.27497 -0.22497,0.49994 -0.49994,0.49994 -0.27496,0 -0.49993,0.14257 -0.49993,0.31683 0,0.17425 -0.89988,1.2195 -1.99974,2.32278 -1.09985,1.10328 -1.99974,2.06983 -1.99974,2.14788 0,0.0781 -0.67491,0.85643 -1.4998,1.72971 -0.82489,0.87328 -1.4998,1.71896 -1.4998,1.87929 0,0.16033 -0.44995,0.73134 -0.99987,1.26891 -0.54993,0.53757 -0.99987,1.04203 -0.99987,1.12101 0,0.15145 -1.42966,1.88374 -2.41635,2.92785 -0.32079,0.33946 -0.58326,0.69724 -0.58326,0.79507 0,0.0978 -0.44994,0.61771 -0.99987,1.15528 -0.54993,0.53758 -0.99987,1.06378 -0.99987,1.16935 0,0.20164 -0.44277,0.78123 -1.41648,1.85415 -0.32079,0.35348 -0.58326,0.72274 -0.58326,0.82057 0,0.0978 -0.44994,0.61771 -0.99987,1.15528 -0.54992,0.53757 -0.99986,1.11639 -0.99986,1.28627 0,0.16987 -0.22497,0.39519 -0.49994,0.5007 -0.27496,0.10552 -0.49993,0.40548 -0.49993,0.66658 0,0.26111 -0.22497,0.56107 -0.49994,0.66658 -0.27496,0.10552 -0.49993,0.35159 -0.49993,0.54683 0,0.19524 -0.44994,0.79481 -0.99987,1.33238 -0.54993,0.53758 -0.99987,1.1164 -0.99987,1.28627 0,0.16988 -0.22497,0.3952 -0.49994,0.50071 -0.27496,0.10551 -0.49993,0.40547 -0.49993,0.66658 0,0.2611 -0.22497,0.56106 -0.49993,0.66658 -0.27497,0.10551 -0.49994,0.35158 -0.49994,0.54682 0,0.19525 -0.44994,0.79482 -0.99987,1.33239 -0.54993,0.53757 -0.99987,1.04819 -0.99987,1.13471 0,0.0865 -0.44994,0.64993 -0.99987,1.25202 -0.54992,0.6021 -0.99986,1.21633 -0.99986,1.36497 0,0.14863 -0.44995,0.71007 -0.99987,1.24765 -0.54993,0.53757 -0.99987,1.04819 -0.99987,1.13471 0,0.0865 -0.44994,0.64993 -0.99987,1.25202 -0.54993,0.60209 -0.99987,1.21633 -0.99987,1.36496 0,0.14864 -0.44994,0.71008 -0.99987,1.24765 -0.54993,0.53757 -0.99987,1.04819 -0.99987,1.13471 0,0.0865 -0.44994,0.64993 -0.99987,1.25203 -0.54993,0.60209 -0.99987,1.21632 -0.99987,1.36496 0,0.14863 -0.44994,0.71007 -0.99987,1.24765 -0.54992,0.53757 -0.99987,1.04819 -0.99987,1.13471 0,0.0865 -0.44994,0.64993 -0.99986,1.25202 -0.54993,0.60209 -1.00623,1.24877 -1.01399,1.43705 -0.008,0.18829 -0.4577,0.71025 -0.99987,1.15993 -0.54216,0.44967 -0.98575,0.92785 -0.98575,1.06262 0,0.13477 -0.44994,0.73765 -0.99987,1.33975 -0.54993,0.60209 -1.00622,1.24876 -1.01399,1.43705 -0.008,0.18828 -0.4577,0.71025 -0.99986,1.15992 -0.54217,0.44968 -0.98576,0.92785 -0.98576,1.06262 0,0.13477 -0.44994,0.73766 -0.99987,1.33975 -1.11152,1.21697 -1.38842,3.15101 -0.49993,3.49195 0.27496,0.10552 0.49993,0.40548 0.49993,0.66658 0,0.26111 0.22497,0.56107 0.49994,0.66658 0.27496,0.10552 0.49993,0.40548 0.49993,0.66658 0,0.26111 0.22497,0.56107 0.49994,0.66658 0.27496,0.10552 0.49993,0.40548 0.49993,0.66658 0,0.26111 0.22497,0.56107 0.49994,0.66658 0.27496,0.10552 0.49993,0.39332 0.49993,0.63956 0,0.24624 0.18748,0.56765 0.41661,0.71424 0.40566,0.25952 1.0369,1.14114 1.46649,2.04815 0.11682,0.24666 0.6408,0.9175 1.16439,1.49076 0.52359,0.57326 0.95199,1.23855 0.95199,1.47842 0,0.23986 0.22497,0.52244 0.49993,0.62795 0.27496,0.10552 0.49994,0.40548 0.49994,0.66658 0,0.26111 0.22497,0.56107 0.49993,0.66658 0.27496,0.10552 0.49993,0.36735 0.49993,0.58185 0,0.21449 0.4284,0.85903 0.95199,1.43229 0.52359,0.57326 1.04382,1.28159 1.15605,1.57408 0.11224,0.29248 0.3425,0.53179 0.51169,0.53179 0.16919,0 0.40173,0.37495 0.51674,0.83322 0.11503,0.45827 0.35625,0.83322 0.53607,0.83322 0.17982,0 0.32694,0.14073 0.32694,0.31272 0,0.172 0.44994,0.80535 0.99987,1.40744 0.54993,0.60209 0.99987,1.29097 0.99987,1.53084 0,0.23986 0.22497,0.52244 0.49993,0.62795 0.27497,0.10552 0.49994,0.40548 0.49994,0.66658 0,0.26111 0.22497,0.56107 0.49993,0.66658 0.27497,0.10552 0.49994,0.36735 0.49994,0.58185 0,0.21449 0.42839,0.85903 0.95199,1.43229 0.52359,0.57326 1.04381,1.28159 1.15605,1.57408 0.11223,0.29248 0.34249,0.53179 0.51168,0.53179 0.16919,0 0.40173,0.37495 0.51675,0.83322 0.11502,0.45827 0.35625,0.83322 0.53606,0.83322 0.17982,0 0.32694,0.14073 0.32694,0.31272 0,0.172 0.44994,0.80535 0.99987,1.40744 0.54993,0.60209 0.99987,1.29097 0.99987,1.53084 0,0.23986 0.22497,0.52244 0.49994,0.62795 0.27496,0.10552 0.49993,0.40548 0.49993,0.66658 0,0.26111 0.22497,0.56107 0.49993,0.66658 0.27497,0.10552 0.49994,0.36735 0.49994,0.58185 0,0.21449 0.42839,0.85903 0.95199,1.43229 0.52359,0.57326 1.04381,1.28159 1.15605,1.57408 0.11224,0.29248 0.3425,0.53179 0.51169,0.53179 0.16918,0 0.40172,0.37495 0.51674,0.83322 0.11502,0.45827 0.35625,0.83322 0.53607,0.83322 0.17981,0 0.32694,0.20893 0.32694,0.46428 0,0.25535 0.22497,0.55061 0.49993,0.65612 0.27496,0.10551 0.49993,0.42152 0.49993,0.70224 0,0.28072 0.1537,0.51039 0.34154,0.51039 0.18785,0 0.4841,0.37495 0.65833,0.83323 0.17424,0.45827 0.47049,0.83322 0.65833,0.83322 0.18785,0 0.34154,0.22968 0.34154,0.51039 0,0.28072 0.22497,0.59673 0.49994,0.70224 0.27496,0.10552 0.49993,0.36735 0.49993,0.58185 0,0.21449 0.4284,0.85903 0.95199,1.43229 0.52359,0.57326 1.04382,1.28159 1.15605,1.57408 0.11224,0.29248 0.3425,0.53179 0.51169,0.53179 0.16919,0 0.40172,0.37495 0.51674,0.83322 0.11502,0.45827 0.35625,0.83322 0.53607,0.83322 0.17981,0 0.32694,0.20893 0.32694,0.46428 0,0.25535 0.22497,0.5506 0.49993,0.65612 0.27497,0.10551 0.49994,0.42152 0.49994,0.70224 0,0.28072 0.15369,0.51039 0.34154,0.51039 0.18784,0 0.48409,0.37495 0.65833,0.83323 0.17423,0.45827 0.47048,0.83322 0.65833,0.83322 0.18784,0 0.34154,0.22968 0.34154,0.51039 0,0.28072 0.22497,0.59673 0.49993,0.70224 0.27496,0.10552 0.49993,0.36735 0.49993,0.58185 0,0.21449 0.44995,0.88262 0.99987,1.48471 0.54993,0.6021 0.99987,1.16551 0.99987,1.25202 0,0.0865 0.42891,0.57658 0.95312,1.08901 0.52421,0.51244 1.01165,1.09951 1.08319,1.3046 0.20412,0.58515 2.55884,3.28486 5.3498,6.13356 l 2.5534,2.60624 h -22.13417 -22.13418 v -3.12545 c 0,-2.37157 -0.12058,-3.22552 -0.49993,-3.54035 -0.27496,-0.2282 -0.49993,-0.83044 -0.49993,-1.33831 0,-0.51334 -0.22201,-1.00859 -0.49994,-1.11524 -0.27496,-0.10552 -0.49993,-0.55546 -0.49993,-0.99987 0,-0.44441 -0.22497,-0.89435 -0.49994,-0.99987 -0.27496,-0.10551 -0.49993,-0.48906 -0.49993,-0.85232 0,-0.36327 -0.18748,-0.78042 -0.41661,-0.92701 -0.46777,-0.29925 -1.09094,-1.22849 -1.57568,-2.34959 -0.17833,-0.41244 -0.47794,-0.7499 -0.66578,-0.7499 -0.18785,0 -0.34154,-0.22968 -0.34154,-0.51039 0,-0.28072 -0.22497,-0.59673 -0.49993,-0.70224 -0.27497,-0.10552 -0.49994,-0.48047 -0.49994,-0.83322 0,-0.35276 -0.22497,-0.72772 -0.49993,-0.83323 -0.27497,-0.10551 -0.49994,-0.38472 -0.49994,-0.62046 0,-0.23574 -0.22497,-0.51495 -0.49993,-0.62046 -0.27497,-0.10552 -0.49994,-0.42152 -0.49994,-0.70224 0,-0.28072 -0.15369,-0.51039 -0.34154,-0.51039 -0.18784,0 -0.48409,-0.37495 -0.65833,-0.83323 -0.17423,-0.45827 -0.47048,-0.83322 -0.65833,-0.83322 -0.18784,0 -0.34154,-0.22968 -0.34154,-0.5104 0,-0.28072 -0.22497,-0.59672 -0.49993,-0.70223 -0.27496,-0.10552 -0.49993,-0.36735 -0.49993,-0.58185 0,-0.2145 -0.44995,-0.88262 -0.99987,-1.48471 -0.54993,-0.6021 -0.99987,-1.22799 -0.99987,-1.39088 0,-0.16288 -0.18748,-0.41609 -0.41661,-0.56268 -0.41515,-0.2656 -1.04849,-1.15845 -1.48257,-2.09006 -0.12567,-0.2697 -0.63266,-0.88547 -1.12666,-1.36836 -0.494,-0.4829 -1.00025,-1.19961 -1.12501,-1.5927 -0.12476,-0.39308 -0.36671,-0.71469 -0.53767,-0.71469 -0.17095,0 -0.31083,-0.20893 -0.31083,-0.46428 0,-0.25535 -0.22497,-0.5506 -0.49993,-0.65612 -0.27497,-0.10551 -0.49994,-0.42152 -0.49994,-0.70224 0,-0.28071 -0.15369,-0.51039 -0.34154,-0.51039 -0.18784,0 -0.48409,-0.37495 -0.65833,-0.83322 -0.17423,-0.45828 -0.47048,-0.83323 -0.65833,-0.83323 -0.18784,0 -0.34154,-0.22968 -0.34154,-0.51039 0,-0.28072 -0.22497,-0.59673 -0.49993,-0.70224 -0.27496,-0.10552 -0.49993,-0.36735 -0.49993,-0.58184 0,-0.2145 -0.4284,-0.85903 -0.95199,-1.4323 -0.52359,-0.57325 -1.04382,-1.28159 -1.15605,-1.57408 -0.11224,-0.29248 -0.34127,-0.53178 -0.50895,-0.53178 -0.16768,0 -0.39301,-0.26247 -0.50072,-0.58326 -0.27653,-0.82357 -0.90756,-1.72794 -1.92723,-2.76203 -0.48335,-0.49019 -0.98089,-1.21286 -1.10565,-1.60594 -0.12476,-0.39308 -0.36671,-0.7147 -0.53767,-0.7147 -0.17095,0 -0.31083,-0.20892 -0.31083,-0.46427 0,-0.25536 -0.22497,-0.55061 -0.49993,-0.65613 -0.27497,-0.10551 -0.49994,-0.42151 -0.49994,-0.70223 0,-0.28072 -0.15369,-0.5104 -0.34154,-0.5104 -0.18784,0 -0.48409,-0.37495 -0.65833,-0.83322 -0.17423,-0.45827 -0.45299,-0.83322 -0.61945,-0.83322 -0.16647,0 -0.37556,-0.27873 -0.46465,-0.61941 -0.22957,-0.87789 -1.84547,-1.13409 -2.26059,-0.35841 -0.43632,0.81527 -0.37946,36.556 0.062,38.97284 0.18416,1.0082 0.43568,3.24564 0.55893,4.97208 0.14599,2.04493 0.3693,3.18721 0.6407,3.27735 0.23958,0.0796 0.41662,0.69752 0.41662,1.45421 0,0.86218 0.17236,1.38198 0.49993,1.50768 0.27885,0.10701 0.49993,0.60248 0.49993,1.1204 0,0.51792 0.22109,1.01339 0.49994,1.1204 0.27496,0.10551 0.49993,0.4965 0.49993,0.86888 0,0.67287 -0.12092,0.67704 -19.66409,0.67704 -12.8872,0 -19.66409,-0.11487 -19.66409,-0.33329 z"
           id="path15"
           transform="scale(0.26458333)" /><path
           style="opacity:0.5;fill:#beb419;fill-opacity:1;stroke:none;stroke-width:5.03871;stroke-linecap:round;stroke-linejoin:round;paint-order:stroke markers fill"
           d="m 441.94213,638.7905 c 0,-0.16086 0.22497,-0.47918 0.49994,-0.70738 0.27496,-0.2282 0.49993,-0.67814 0.49993,-0.99987 0,-0.32173 0.22497,-0.77167 0.49994,-0.99987 0.27496,-0.2282 0.5047,-0.95897 0.51053,-1.62393 0.006,-0.66497 0.2308,-1.50017 0.49994,-1.85599 0.42438,-0.5611 0.48933,-6.3615 0.48933,-43.70346 0,-37.86586 -0.0603,-43.10653 -0.49993,-43.47142 -0.28836,-0.23932 -0.49994,-0.96626 -0.49994,-1.71772 0,-0.85059 -0.17353,-1.36939 -0.49993,-1.49465 -0.27497,-0.10551 -0.49994,-0.55545 -0.49994,-0.99987 0,-0.44441 -0.21019,-0.88868 -0.46709,-0.98726 -0.2569,-0.0986 -0.54282,-0.46883 -0.63538,-0.82277 -0.16468,-0.62973 0.2024,-0.64352 17.13158,-0.64352 h 17.29986 v 47.78626 c 0,42.07008 0.0598,47.83589 0.49994,48.20117 0.27496,0.2282 0.49993,0.75313 0.49993,1.16651 0,0.41339 0.22497,0.93832 0.49994,1.16652 0.27496,0.2282 0.49993,0.61406 0.49993,0.85747 0,0.24341 0.26247,0.59544 0.58326,0.78228 0.40129,0.23373 -5.26561,0.34288 -18.16429,0.34985 -10.53998,0.006 -18.74755,-0.11791 -18.74755,-0.28235 z"
           id="path16"
           transform="scale(0.26458333)" /></g><g
         id="g20"
         style="fill:#beb419;fill-opacity:1"><path
           style="opacity:0.5;fill:#beb419;fill-opacity:1;stroke:none;stroke-width:5.03871;stroke-linecap:round;stroke-linejoin:round;paint-order:stroke markers fill"
           d="m 304.92576,660.12413 c -1.66555,-0.40421 -2.9247,-1.75212 -3.31009,-3.54343 -0.25216,-1.17207 -0.32836,-27.52272 -0.25683,-88.82171 0.0978,-83.8484 0.12488,-87.19319 0.71308,-88.15512 0.33626,-0.54993 1.01117,-1.29983 1.4998,-1.66645 0.88076,-0.66084 1.47561,-0.66733 69.02554,-0.75385 43.67025,-0.0559 68.25316,0.0288 68.46025,0.23584 0.20862,0.20863 0.16953,0.50816 -0.11033,0.84537 -0.53535,0.64506 -0.57453,4.06905 -0.0525,4.59104 1.27535,1.27535 2.90004,1.24263 -66.02707,1.32996 l -66.40797,0.0841 v 84.48894 84.48894 h 88.15512 88.15513 v -84.48894 -84.48894 l -2.41635,-0.0979 -2.41635,-0.0979 v -3.48494 -3.48494 l 3.41622,0.004 c 1.87892,0.002 3.97249,0.0956 4.65238,0.20804 1.62521,0.26868 3.10014,1.63172 3.55774,3.28784 0.45832,1.65871 0.51675,174.28521 0.0597,176.25479 -0.37028,1.5955 -1.96596,3.07027 -3.6174,3.34329 -1.63667,0.27058 -181.96022,0.19406 -183.08,-0.0777 z"
           id="path17"
           transform="scale(0.26458333)" /><path
           style="opacity:0.5;fill:#beb419;fill-opacity:1;stroke:none;stroke-width:5.03871;stroke-linecap:round;stroke-linejoin:round;paint-order:stroke markers fill"
           d="m 457.45201,498.45399 c -0.10675,-0.17271 -0.903,-0.41835 -1.76945,-0.54585 -0.86644,-0.12749 -1.87119,-0.43612 -2.23277,-0.68583 -0.36158,-0.24971 -0.924,-0.45402 -1.24984,-0.45402 -0.32583,0 -0.59242,-0.13988 -0.59242,-0.31083 0,-0.17096 -0.31647,-0.41128 -0.70326,-0.53404 -1.08488,-0.34433 -4.96266,-3.82317 -4.96266,-4.45211 0,-0.1637 -0.22497,-0.38396 -0.49994,-0.48947 -0.27496,-0.10552 -0.49993,-0.40316 -0.49993,-0.66143 0,-0.25827 -0.22497,-0.6563 -0.49993,-0.8845 -0.27497,-0.2282 -0.49994,-0.67814 -0.49994,-0.99986 0,-0.32173 -0.22497,-0.77167 -0.49993,-0.99987 -0.28197,-0.23402 -0.49994,-0.96057 -0.49994,-1.66645 0,-0.70588 -0.21796,-1.43244 -0.49993,-1.66645 -0.70257,-0.58308 -0.69412,-6.54768 0.0106,-7.4794 0.26913,-0.35583 0.48933,-1.12486 0.48933,-1.70896 0,-0.5841 0.22497,-1.24871 0.49994,-1.47691 0.27496,-0.2282 0.49993,-0.70121 0.49993,-1.05114 0,-0.34993 0.22497,-0.72256 0.49994,-0.82807 0.27496,-0.10552 0.49993,-0.45971 0.49993,-0.78711 0,-0.32739 0.22497,-0.68159 0.49993,-0.7871 0.27497,-0.10552 0.49994,-0.34906 0.49994,-0.5412 0,-1.06289 5.80049,-5.36523 7.93849,-5.88813 0.49153,-0.12022 0.99395,-0.37204 1.1165,-0.55961 0.13481,-0.20634 2.10936,-0.34079 4.99935,-0.34042 3.83863,4.9e-4 4.97286,0.10985 5.7764,0.55694 0.54992,0.30598 1.33732,0.55726 1.74977,0.55838 0.41244,10e-4 0.7499,0.13737 0.7499,0.30274 0,0.16538 0.41244,0.45285 0.91655,0.63883 0.5041,0.18597 1.31193,0.68808 1.79518,1.11579 0.48325,0.42771 1.42063,1.22676 2.08306,1.77566 0.66243,0.5489 1.20442,1.10207 1.20442,1.22927 0,0.12719 0.44994,0.72389 0.99987,1.32598 0.54993,0.60209 0.99987,1.36596 0.99987,1.69748 0,0.33152 0.22497,0.68909 0.49994,0.7946 0.28093,0.10781 0.49993,0.60379 0.49993,1.13225 0,0.51722 0.22497,1.16538 0.49994,1.44034 0.39825,0.39825 0.49993,1.4794 0.49993,5.31563 0,3.87402 -0.0978,4.89683 -0.49993,5.23061 -0.27497,0.2282 -0.49994,0.83044 -0.49994,1.33831 0,0.51334 -0.22201,1.00859 -0.49993,1.11524 -0.27497,0.10552 -0.49994,0.43743 -0.49994,0.7376 0,0.30017 -0.44994,1.11385 -0.99987,1.80819 -0.54993,0.69434 -0.99987,1.36099 -0.99987,1.48144 0,0.35365 -2.44631,2.50242 -3.08293,2.70794 -0.32079,0.10357 -0.58325,0.32818 -0.58325,0.49914 0,0.17095 -0.21752,0.31083 -0.48338,0.31083 -0.26585,0 -0.60331,0.18747 -0.7499,0.41661 -0.32623,0.50994 -2.09491,1.21037 -4.08563,1.618 -0.81734,0.16735 -1.63473,0.45295 -1.81643,0.63464 -0.42085,0.42086 -5.75874,0.43534 -6.0177,0.0163 z"
           id="path18"
           transform="scale(0.26458333)" /><path
           style="opacity:0.5;fill:#beb419;fill-opacity:1;stroke:none;stroke-width:5.03871;stroke-linecap:round;stroke-linejoin:round;paint-order:stroke markers fill"
           d="m 314.95876,638.7497 c 0,-0.18331 0.14712,-0.33329 0.32694,-0.33329 0.17982,0 0.41832,-0.3641 0.53001,-0.80911 0.11169,-0.44501 0.41451,-0.89024 0.67293,-0.98941 0.25842,-0.0992 0.46986,-0.54159 0.46986,-0.98318 0,-0.44158 0.22497,-0.98958 0.49993,-1.21778 0.30133,-0.25008 0.49994,-0.97938 0.49994,-1.83581 0,-0.78149 0.22404,-1.85048 0.49788,-2.37553 0.43613,-0.83625 0.49788,-8.20924 0.49788,-59.44699 0,-51.23775 -0.0618,-58.61074 -0.49788,-59.44699 -0.27384,-0.52505 -0.49788,-1.59404 -0.49788,-2.37554 0,-0.85642 -0.19861,-1.58572 -0.49994,-1.8358 -0.27496,-0.2282 -0.49993,-0.7762 -0.49993,-1.21779 0,-0.44158 -0.22497,-0.8892 -0.49994,-0.99471 -0.27496,-0.10552 -0.49993,-0.48047 -0.49993,-0.83323 0,-0.35276 -0.22497,-0.72771 -0.49994,-0.83322 -0.27496,-0.10552 -0.49993,-0.47576 -0.49993,-0.82277 0,-0.6119 0.59265,-0.63092 19.66409,-0.63092 h 19.66409 v 0.96421 c 0,0.54962 -0.21496,1.0467 -0.49993,1.15606 -0.27496,0.10551 -0.49994,0.55313 -0.49994,0.99472 0,0.44158 -0.22497,0.98958 -0.49993,1.21778 -0.27496,0.2282 -0.49993,0.90311 -0.49993,1.4998 0,0.59669 -0.22497,1.27161 -0.49994,1.49981 -0.3741,0.31047 -0.49993,1.14285 -0.49993,3.30704 0,1.86948 -0.14732,3.03936 -0.41662,3.30848 -0.3206,0.32039 -0.43994,4.61787 -0.51786,18.64756 -0.11076,19.94159 -0.12898,19.73691 1.71584,19.27389 0.4868,-0.12218 0.88508,-0.36001 0.88508,-0.52851 0,-0.16851 0.44995,-0.79899 0.99987,-1.40109 0.54993,-0.60209 0.99987,-1.21633 0.99987,-1.36496 0,-0.14864 0.44994,-0.71008 0.99987,-1.24765 0.54993,-0.53757 0.99987,-1.13244 0.99987,-1.32193 0,-0.18948 0.15369,-0.34452 0.34154,-0.34452 0.18785,0 0.4841,-0.37495 0.65833,-0.83322 0.17423,-0.45828 0.47049,-0.83323 0.65833,-0.83323 0.18785,0 0.34154,-0.15503 0.34154,-0.34452 0,-0.18949 0.44994,-0.78435 0.99987,-1.32193 0.54993,-0.53757 0.99987,-1.06377 0.99987,-1.16934 0,-0.20164 0.44277,-0.78123 1.41648,-1.85415 0.32079,-0.35348 0.58326,-0.77663 0.58326,-0.94032 0,-0.1637 0.22497,-0.38396 0.49993,-0.48948 0.27496,-0.10551 0.49993,-0.33727 0.49993,-0.51502 0,-0.17775 0.44995,-0.8158 0.99987,-1.4179 0.54993,-0.60209 1.00623,-1.24876 1.01399,-1.43705 0.008,-0.18828 0.4577,-0.71025 0.99987,-1.15992 0.54216,-0.44968 0.98575,-0.92786 0.98575,-1.06262 0,-0.13477 0.44994,-0.73766 0.99987,-1.33975 0.54993,-0.6021 0.99987,-1.21633 0.99987,-1.36496 0,-0.14864 0.44994,-0.71008 0.99987,-1.24765 0.54993,-0.53757 0.99987,-1.1164 0.99987,-1.28627 0,-0.16988 0.22497,-0.39519 0.49993,-0.50071 0.27497,-0.10551 0.49994,-0.40547 0.49994,-0.66658 0,-0.2611 0.22497,-0.56106 0.49993,-0.66658 0.27497,-0.10551 0.49994,-0.35158 0.49994,-0.54682 0,-0.19524 0.44994,-0.79482 0.99986,-1.33239 0.54993,-0.53757 0.99987,-1.13244 0.99987,-1.32192 0,-0.18949 0.1537,-0.34453 0.34154,-0.34453 0.18785,0 0.4841,-0.37495 0.65833,-0.83322 0.17424,-0.45827 0.47049,-0.83323 0.65833,-0.83323 0.18785,0 0.34154,-0.20892 0.34154,-0.46427 0,-0.25535 0.22497,-0.55061 0.49994,-0.65612 0.27496,-0.10551 0.49993,-0.33727 0.49993,-0.51502 0,-0.17775 0.44994,-0.81581 0.99987,-1.4179 0.54993,-0.60209 0.99987,-1.27022 0.99987,-1.48472 0,-0.21449 0.22497,-0.47632 0.49993,-0.58184 0.27497,-0.10551 0.49994,-0.40547 0.49994,-0.66658 0,-0.2611 0.22497,-0.56106 0.49993,-0.66658 0.27497,-0.10551 0.49994,-0.48046 0.49994,-0.83322 0,-0.35276 0.22497,-0.72771 0.49993,-0.83322 0.27497,-0.10552 0.49994,-0.40316 0.49994,-0.66143 0,-0.25827 0.22497,-0.6563 0.49993,-0.8845 0.27496,-0.2282 0.49994,-0.67814 0.49994,-0.99987 0,-0.32172 0.22497,-0.77166 0.49993,-0.99986 0.27496,-0.2282 0.49993,-0.83044 0.49993,-1.33831 0,-0.51335 0.22201,-1.0086 0.49994,-1.11525 0.39033,-0.14978 0.49993,-0.81523 0.49993,-3.03526 v -2.84343 h 21.1639 c 15.05691,0 21.16389,0.10487 21.16389,0.36343 0,0.43048 -3.25969,3.63605 -3.69744,3.63605 -0.16612,0 -0.30203,0.22497 -0.30203,0.49993 0,0.27497 -0.22497,0.49994 -0.49994,0.49994 -0.27496,0 -0.49993,0.14257 -0.49993,0.31683 0,0.17425 -0.89988,1.2195 -1.99974,2.32278 -1.09985,1.10328 -1.99974,2.06983 -1.99974,2.14788 0,0.0781 -0.67491,0.85643 -1.4998,1.72971 -0.82489,0.87328 -1.4998,1.71896 -1.4998,1.87929 0,0.16033 -0.44995,0.73134 -0.99987,1.26891 -0.54993,0.53757 -0.99987,1.04203 -0.99987,1.12101 0,0.15145 -1.42966,1.88374 -2.41635,2.92785 -0.32079,0.33946 -0.58326,0.69724 -0.58326,0.79507 0,0.0978 -0.44994,0.61771 -0.99987,1.15528 -0.54993,0.53758 -0.99987,1.06378 -0.99987,1.16935 0,0.20164 -0.44277,0.78123 -1.41648,1.85415 -0.32079,0.35348 -0.58326,0.72274 -0.58326,0.82057 0,0.0978 -0.44994,0.61771 -0.99987,1.15528 -0.54992,0.53757 -0.99986,1.11639 -0.99986,1.28627 0,0.16987 -0.22497,0.39519 -0.49994,0.5007 -0.27496,0.10552 -0.49993,0.40548 -0.49993,0.66658 0,0.26111 -0.22497,0.56107 -0.49994,0.66658 -0.27496,0.10552 -0.49993,0.35159 -0.49993,0.54683 0,0.19524 -0.44994,0.79481 -0.99987,1.33238 -0.54993,0.53758 -0.99987,1.1164 -0.99987,1.28627 0,0.16988 -0.22497,0.3952 -0.49994,0.50071 -0.27496,0.10551 -0.49993,0.40547 -0.49993,0.66658 0,0.2611 -0.22497,0.56106 -0.49993,0.66658 -0.27497,0.10551 -0.49994,0.35158 -0.49994,0.54682 0,0.19525 -0.44994,0.79482 -0.99987,1.33239 -0.54993,0.53757 -0.99987,1.04819 -0.99987,1.13471 0,0.0865 -0.44994,0.64993 -0.99987,1.25202 -0.54992,0.6021 -0.99986,1.21633 -0.99986,1.36497 0,0.14863 -0.44995,0.71007 -0.99987,1.24765 -0.54993,0.53757 -0.99987,1.04819 -0.99987,1.13471 0,0.0865 -0.44994,0.64993 -0.99987,1.25202 -0.54993,0.60209 -0.99987,1.21633 -0.99987,1.36496 0,0.14864 -0.44994,0.71008 -0.99987,1.24765 -0.54993,0.53757 -0.99987,1.04819 -0.99987,1.13471 0,0.0865 -0.44994,0.64993 -0.99987,1.25203 -0.54993,0.60209 -0.99987,1.21632 -0.99987,1.36496 0,0.14863 -0.44994,0.71007 -0.99987,1.24765 -0.54992,0.53757 -0.99987,1.04819 -0.99987,1.13471 0,0.0865 -0.44994,0.64993 -0.99986,1.25202 -0.54993,0.60209 -1.00623,1.24877 -1.01399,1.43705 -0.008,0.18829 -0.4577,0.71025 -0.99987,1.15993 -0.54216,0.44967 -0.98575,0.92785 -0.98575,1.06262 0,0.13477 -0.44994,0.73765 -0.99987,1.33975 -0.54993,0.60209 -1.00622,1.24876 -1.01399,1.43705 -0.008,0.18828 -0.4577,0.71025 -0.99986,1.15992 -0.54217,0.44968 -0.98576,0.92785 -0.98576,1.06262 0,0.13477 -0.44994,0.73766 -0.99987,1.33975 -1.11152,1.21697 -1.38842,3.15101 -0.49993,3.49195 0.27496,0.10552 0.49993,0.40548 0.49993,0.66658 0,0.26111 0.22497,0.56107 0.49994,0.66658 0.27496,0.10552 0.49993,0.40548 0.49993,0.66658 0,0.26111 0.22497,0.56107 0.49994,0.66658 0.27496,0.10552 0.49993,0.40548 0.49993,0.66658 0,0.26111 0.22497,0.56107 0.49994,0.66658 0.27496,0.10552 0.49993,0.39332 0.49993,0.63956 0,0.24624 0.18748,0.56765 0.41661,0.71424 0.40566,0.25952 1.0369,1.14114 1.46649,2.04815 0.11682,0.24666 0.6408,0.9175 1.16439,1.49076 0.52359,0.57326 0.95199,1.23855 0.95199,1.47842 0,0.23986 0.22497,0.52244 0.49993,0.62795 0.27496,0.10552 0.49994,0.40548 0.49994,0.66658 0,0.26111 0.22497,0.56107 0.49993,0.66658 0.27496,0.10552 0.49993,0.36735 0.49993,0.58185 0,0.21449 0.4284,0.85903 0.95199,1.43229 0.52359,0.57326 1.04382,1.28159 1.15605,1.57408 0.11224,0.29248 0.3425,0.53179 0.51169,0.53179 0.16919,0 0.40173,0.37495 0.51674,0.83322 0.11503,0.45827 0.35625,0.83322 0.53607,0.83322 0.17982,0 0.32694,0.14073 0.32694,0.31272 0,0.172 0.44994,0.80535 0.99987,1.40744 0.54993,0.60209 0.99987,1.29097 0.99987,1.53084 0,0.23986 0.22497,0.52244 0.49993,0.62795 0.27497,0.10552 0.49994,0.40548 0.49994,0.66658 0,0.26111 0.22497,0.56107 0.49993,0.66658 0.27497,0.10552 0.49994,0.36735 0.49994,0.58185 0,0.21449 0.42839,0.85903 0.95199,1.43229 0.52359,0.57326 1.04381,1.28159 1.15605,1.57408 0.11223,0.29248 0.34249,0.53179 0.51168,0.53179 0.16919,0 0.40173,0.37495 0.51675,0.83322 0.11502,0.45827 0.35625,0.83322 0.53606,0.83322 0.17982,0 0.32694,0.14073 0.32694,0.31272 0,0.172 0.44994,0.80535 0.99987,1.40744 0.54993,0.60209 0.99987,1.29097 0.99987,1.53084 0,0.23986 0.22497,0.52244 0.49994,0.62795 0.27496,0.10552 0.49993,0.40548 0.49993,0.66658 0,0.26111 0.22497,0.56107 0.49993,0.66658 0.27497,0.10552 0.49994,0.36735 0.49994,0.58185 0,0.21449 0.42839,0.85903 0.95199,1.43229 0.52359,0.57326 1.04381,1.28159 1.15605,1.57408 0.11224,0.29248 0.3425,0.53179 0.51169,0.53179 0.16918,0 0.40172,0.37495 0.51674,0.83322 0.11502,0.45827 0.35625,0.83322 0.53607,0.83322 0.17981,0 0.32694,0.20893 0.32694,0.46428 0,0.25535 0.22497,0.55061 0.49993,0.65612 0.27496,0.10551 0.49993,0.42152 0.49993,0.70224 0,0.28072 0.1537,0.51039 0.34154,0.51039 0.18785,0 0.4841,0.37495 0.65833,0.83323 0.17424,0.45827 0.47049,0.83322 0.65833,0.83322 0.18785,0 0.34154,0.22968 0.34154,0.51039 0,0.28072 0.22497,0.59673 0.49994,0.70224 0.27496,0.10552 0.49993,0.36735 0.49993,0.58185 0,0.21449 0.4284,0.85903 0.95199,1.43229 0.52359,0.57326 1.04382,1.28159 1.15605,1.57408 0.11224,0.29248 0.3425,0.53179 0.51169,0.53179 0.16919,0 0.40172,0.37495 0.51674,0.83322 0.11502,0.45827 0.35625,0.83322 0.53607,0.83322 0.17981,0 0.32694,0.20893 0.32694,0.46428 0,0.25535 0.22497,0.5506 0.49993,0.65612 0.27497,0.10551 0.49994,0.42152 0.49994,0.70224 0,0.28072 0.15369,0.51039 0.34154,0.51039 0.18784,0 0.48409,0.37495 0.65833,0.83323 0.17423,0.45827 0.47048,0.83322 0.65833,0.83322 0.18784,0 0.34154,0.22968 0.34154,0.51039 0,0.28072 0.22497,0.59673 0.49993,0.70224 0.27496,0.10552 0.49993,0.36735 0.49993,0.58185 0,0.21449 0.44995,0.88262 0.99987,1.48471 0.54993,0.6021 0.99987,1.16551 0.99987,1.25202 0,0.0865 0.42891,0.57658 0.95312,1.08901 0.52421,0.51244 1.01165,1.09951 1.08319,1.3046 0.20412,0.58515 2.55884,3.28486 5.3498,6.13356 l 2.5534,2.60624 h -22.13417 -22.13418 v -3.12545 c 0,-2.37157 -0.12058,-3.22552 -0.49993,-3.54035 -0.27496,-0.2282 -0.49993,-0.83044 -0.49993,-1.33831 0,-0.51334 -0.22201,-1.00859 -0.49994,-1.11524 -0.27496,-0.10552 -0.49993,-0.55546 -0.49993,-0.99987 0,-0.44441 -0.22497,-0.89435 -0.49994,-0.99987 -0.27496,-0.10551 -0.49993,-0.48906 -0.49993,-0.85232 0,-0.36327 -0.18748,-0.78042 -0.41661,-0.92701 -0.46777,-0.29925 -1.09094,-1.22849 -1.57568,-2.34959 -0.17833,-0.41244 -0.47794,-0.7499 -0.66578,-0.7499 -0.18785,0 -0.34154,-0.22968 -0.34154,-0.51039 0,-0.28072 -0.22497,-0.59673 -0.49993,-0.70224 -0.27497,-0.10552 -0.49994,-0.48047 -0.49994,-0.83322 0,-0.35276 -0.22497,-0.72772 -0.49993,-0.83323 -0.27497,-0.10551 -0.49994,-0.38472 -0.49994,-0.62046 0,-0.23574 -0.22497,-0.51495 -0.49993,-0.62046 -0.27497,-0.10552 -0.49994,-0.42152 -0.49994,-0.70224 0,-0.28072 -0.15369,-0.51039 -0.34154,-0.51039 -0.18784,0 -0.48409,-0.37495 -0.65833,-0.83323 -0.17423,-0.45827 -0.47048,-0.83322 -0.65833,-0.83322 -0.18784,0 -0.34154,-0.22968 -0.34154,-0.5104 0,-0.28072 -0.22497,-0.59672 -0.49993,-0.70223 -0.27496,-0.10552 -0.49993,-0.36735 -0.49993,-0.58185 0,-0.2145 -0.44995,-0.88262 -0.99987,-1.48471 -0.54993,-0.6021 -0.99987,-1.22799 -0.99987,-1.39088 0,-0.16288 -0.18748,-0.41609 -0.41661,-0.56268 -0.41515,-0.2656 -1.04849,-1.15845 -1.48257,-2.09006 -0.12567,-0.2697 -0.63266,-0.88547 -1.12666,-1.36836 -0.494,-0.4829 -1.00025,-1.19961 -1.12501,-1.5927 -0.12476,-0.39308 -0.36671,-0.71469 -0.53767,-0.71469 -0.17095,0 -0.31083,-0.20893 -0.31083,-0.46428 0,-0.25535 -0.22497,-0.5506 -0.49993,-0.65612 -0.27497,-0.10551 -0.49994,-0.42152 -0.49994,-0.70224 0,-0.28071 -0.15369,-0.51039 -0.34154,-0.51039 -0.18784,0 -0.48409,-0.37495 -0.65833,-0.83322 -0.17423,-0.45828 -0.47048,-0.83323 -0.65833,-0.83323 -0.18784,0 -0.34154,-0.22968 -0.34154,-0.51039 0,-0.28072 -0.22497,-0.59673 -0.49993,-0.70224 -0.27496,-0.10552 -0.49993,-0.36735 -0.49993,-0.58184 0,-0.2145 -0.4284,-0.85903 -0.95199,-1.4323 -0.52359,-0.57325 -1.04382,-1.28159 -1.15605,-1.57408 -0.11224,-0.29248 -0.34127,-0.53178 -0.50895,-0.53178 -0.16768,0 -0.39301,-0.26247 -0.50072,-0.58326 -0.27653,-0.82357 -0.90756,-1.72794 -1.92723,-2.76203 -0.48335,-0.49019 -0.98089,-1.21286 -1.10565,-1.60594 -0.12476,-0.39308 -0.36671,-0.7147 -0.53767,-0.7147 -0.17095,0 -0.31083,-0.20892 -0.31083,-0.46427 0,-0.25536 -0.22497,-0.55061 -0.49993,-0.65613 -0.27497,-0.10551 -0.49994,-0.42151 -0.49994,-0.70223 0,-0.28072 -0.15369,-0.5104 -0.34154,-0.5104 -0.18784,0 -0.48409,-0.37495 -0.65833,-0.83322 -0.17423,-0.45827 -0.45299,-0.83322 -0.61945,-0.83322 -0.16647,0 -0.37556,-0.27873 -0.46465,-0.61941 -0.22957,-0.87789 -1.84547,-1.13409 -2.26059,-0.35841 -0.43632,0.81527 -0.37946,36.556 0.062,38.97284 0.18416,1.0082 0.43568,3.24564 0.55893,4.97208 0.14599,2.04493 0.3693,3.18721 0.6407,3.27735 0.23958,0.0796 0.41662,0.69752 0.41662,1.45421 0,0.86218 0.17236,1.38198 0.49993,1.50768 0.27885,0.10701 0.49993,0.60248 0.49993,1.1204 0,0.51792 0.22109,1.01339 0.49994,1.1204 0.27496,0.10551 0.49993,0.4965 0.49993,0.86888 0,0.67287 -0.12092,0.67704 -19.66409,0.67704 -12.8872,0 -19.66409,-0.11487 -19.66409,-0.33329 z"
           id="path19"
           transform="scale(0.26458333)" /><path
           style="opacity:0.5;fill:#beb419;fill-opacity:1;stroke:none;stroke-width:5.03871;stroke-linecap:round;stroke-linejoin:round;paint-order:stroke markers fill"
           d="m 441.94213,638.7905 c 0,-0.16086 0.22497,-0.47918 0.49994,-0.70738 0.27496,-0.2282 0.49993,-0.67814 0.49993,-0.99987 0,-0.32173 0.22497,-0.77167 0.49994,-0.99987 0.27496,-0.2282 0.5047,-0.95897 0.51053,-1.62393 0.006,-0.66497 0.2308,-1.50017 0.49994,-1.85599 0.42438,-0.5611 0.48933,-6.3615 0.48933,-43.70346 0,-37.86586 -0.0603,-43.10653 -0.49993,-43.47142 -0.28836,-0.23932 -0.49994,-0.96626 -0.49994,-1.71772 0,-0.85059 -0.17353,-1.36939 -0.49993,-1.49465 -0.27497,-0.10551 -0.49994,-0.55545 -0.49994,-0.99987 0,-0.44441 -0.21019,-0.88868 -0.46709,-0.98726 -0.2569,-0.0986 -0.54282,-0.46883 -0.63538,-0.82277 -0.16468,-0.62973 0.2024,-0.64352 17.13158,-0.64352 h 17.29986 v 47.78626 c 0,42.07008 0.0598,47.83589 0.49994,48.20117 0.27496,0.2282 0.49993,0.75313 0.49993,1.16651 0,0.41339 0.22497,0.93832 0.49994,1.16652 0.27496,0.2282 0.49993,0.61406 0.49993,0.85747 0,0.24341 0.26247,0.59544 0.58326,0.78228 0.40129,0.23373 -5.26561,0.34288 -18.16429,0.34985 -10.53998,0.006 -18.74755,-0.11791 -18.74755,-0.28235 z"
           id="path20"
           transform="scale(0.26458333)" /></g></g></g></svg>
