<?xml version="1.0" encoding="UTF-8" standalone="no"?>
<!-- Created with Inkscape (http://www.inkscape.org/) -->

<svg
   width="132.90385mm"
   height="132.95459mm"
   viewBox="0 0 132.90386 132.95459"
   version="1.1"
   id="svg1"
   xml:space="preserve"
   inkscape:export-filename="LinkedIn.svg"
   inkscape:export-xdpi="96"
   inkscape:export-ydpi="96"
   xmlns:inkscape="http://www.inkscape.org/namespaces/inkscape"
   xmlns:sodipodi="http://sodipodi.sourceforge.net/DTD/sodipodi-0.dtd"
   xmlns="http://www.w3.org/2000/svg"
   xmlns:svg="http://www.w3.org/2000/svg"><sodipodi:namedview
     id="namedview1"
     pagecolor="#505050"
     bordercolor="#eeeeee"
     borderopacity="1"
     inkscape:showpageshadow="0"
     inkscape:pageopacity="0"
     inkscape:pagecheckerboard="0"
     inkscape:deskcolor="#505050"
     inkscape:document-units="mm" /><defs
     id="defs1"><filter
       inkscape:collect="always"
       style="color-interpolation-filters:sRGB"
       id="filter6"
       x="-0.024660901"
       y="-0.024647757"
       width="1.0493218"
       height="1.0492955"><feGaussianBlur
         inkscape:collect="always"
         stdDeviation="2.2402825"
         id="feGaussianBlur6" /></filter><filter
       inkscape:collect="always"
       style="color-interpolation-filters:sRGB"
       id="filter7"
       x="-0.039664148"
       y="-0.039644511"
       width="1.0793283"
       height="1.079289"><feGaussianBlur
         inkscape:collect="always"
         stdDeviation="5.0406355"
         id="feGaussianBlur7" /></filter><filter
       inkscape:collect="always"
       style="color-interpolation-filters:sRGB"
       id="filter8"
       x="-0.060668697"
       y="-0.060639967"
       width="1.1213374"
       height="1.1212799"><feGaussianBlur
         inkscape:collect="always"
         stdDeviation="8.9611298"
         id="feGaussianBlur8" /></filter></defs><g
     inkscape:label="Layer 1"
     inkscape:groupmode="layer"
     id="layer1"
     transform="translate(-38.662093,-82.050772)"><g
       id="g8"
       inkscape:groupmode="layer"
       inkscape:label="LinkedIn"><path
         style="opacity:0.5;fill:none;fill-opacity:1;stroke:#beb419;stroke-width:11.3386;stroke-linecap:round;stroke-linejoin:round;stroke-dasharray:none;stroke-opacity:1;paint-order:stroke markers fill;filter:url(#filter8)"
         d="m 198.64066,784.66184 c -6.47715,-1.32485 -11.92146,-4.4279 -16.93021,-9.64956 -9.02015,-9.40359 -8.39981,6.38246 -8.39981,-213.75244 0,-220.13462 -0.62046,-204.34529 8.39981,-213.75551 2.34586,-2.44728 6.66488,-5.74685 9.59783,-7.33238 l 5.33264,-2.88278 h 200.64039 200.6404 l 5.33263,2.88278 c 2.93295,1.58553 7.25197,4.8851 9.59784,7.33238 9.02027,9.41022 8.39981,-6.37911 8.39981,213.75551 0,220.13462 0.62046,204.34529 -8.39981,213.75552 -2.34587,2.44727 -6.66489,5.74683 -9.59784,7.33237 l -5.33263,2.88279 -197.3075,0.19286 c -108.51912,0.10608 -199.40722,-0.2366 -201.97355,-0.76154 z M 309.29283,611.2533 V 508.60007 H 274.63071 239.96858 V 611.2533 713.90652 h 34.66213 34.66212 z m 106.65271,39.08251 c 0,-62.75136 0.0378,-63.64871 2.92975,-69.62278 13.10089,-27.06282 49.74907,-28.79054 60.89936,-2.87101 4.44533,10.33347 5.49514,26.06973 5.49514,82.36989 v 53.69461 h 34.66213 34.66213 v -63.6933 c 0,-36.19646 -0.5997,-68.47602 -1.38914,-74.7719 -1.55377,-12.39158 -7.48405,-30.00651 -12.81311,-38.05926 -14.56517,-22.00946 -35.30662,-32.82179 -63.28066,-32.98765 -22.72634,-0.13474 -39.25953,6.23921 -53.43247,20.59953 l -7.62749,7.72835 -0.38611,-11.72783 -0.38611,-11.72781 -34.99542,-0.35542 -34.99542,-0.35543 v 102.67537 102.67535 h 35.32871 35.32871 z M 287.21322,481.36185 c 3.48727,-1.04951 8.68656,-3.46076 11.55399,-5.35834 21.5036,-14.2304 19.96132,-47.17899 -2.80596,-59.9458 -6.84038,-3.83576 -8.23313,-4.11165 -20.75675,-4.11165 -11.64046,0 -14.27084,0.43535 -19.79418,3.27611 -8.8584,4.55604 -16.15095,13.22917 -18.15801,21.59556 -5.17375,21.56661 6.50978,40.98419 27.10846,45.0532 8.74337,1.72716 15.95589,1.56648 22.85245,-0.50908 z"
         id="path1"
         transform="scale(0.26458333)" /><path
         style="opacity:0.5;fill:none;fill-opacity:1;stroke:#beb419;stroke-width:11.3386;stroke-linecap:round;stroke-linejoin:round;stroke-dasharray:none;stroke-opacity:1;paint-order:stroke markers fill;filter:url(#filter7)"
         d="m 198.64066,784.66184 c -6.47715,-1.32485 -11.92146,-4.4279 -16.93021,-9.64956 -9.02015,-9.40359 -8.39981,6.38246 -8.39981,-213.75244 0,-220.13462 -0.62046,-204.34529 8.39981,-213.75551 2.34586,-2.44728 6.66488,-5.74685 9.59783,-7.33238 l 5.33264,-2.88278 h 200.64039 200.6404 l 5.33263,2.88278 c 2.93295,1.58553 7.25197,4.8851 9.59784,7.33238 9.02027,9.41022 8.39981,-6.37911 8.39981,213.75551 0,220.13462 0.62046,204.34529 -8.39981,213.75552 -2.34587,2.44727 -6.66489,5.74683 -9.59784,7.33237 l -5.33263,2.88279 -197.3075,0.19286 c -108.51912,0.10608 -199.40722,-0.2366 -201.97355,-0.76154 z M 309.29283,611.2533 V 508.60007 H 274.63071 239.96858 V 611.2533 713.90652 h 34.66213 34.66212 z m 106.65271,39.08251 c 0,-62.75136 0.0378,-63.64871 2.92975,-69.62278 13.10089,-27.06282 49.74907,-28.79054 60.89936,-2.87101 4.44533,10.33347 5.49514,26.06973 5.49514,82.36989 v 53.69461 h 34.66213 34.66213 v -63.6933 c 0,-36.19646 -0.5997,-68.47602 -1.38914,-74.7719 -1.55377,-12.39158 -7.48405,-30.00651 -12.81311,-38.05926 -14.56517,-22.00946 -35.30662,-32.82179 -63.28066,-32.98765 -22.72634,-0.13474 -39.25953,6.23921 -53.43247,20.59953 l -7.62749,7.72835 -0.38611,-11.72783 -0.38611,-11.72781 -34.99542,-0.35542 -34.99542,-0.35543 v 102.67537 102.67535 h 35.32871 35.32871 z M 287.21322,481.36185 c 3.48727,-1.04951 8.68656,-3.46076 11.55399,-5.35834 21.5036,-14.2304 19.96132,-47.17899 -2.80596,-59.9458 -6.84038,-3.83576 -8.23313,-4.11165 -20.75675,-4.11165 -11.64046,0 -14.27084,0.43535 -19.79418,3.27611 -8.8584,4.55604 -16.15095,13.22917 -18.15801,21.59556 -5.17375,21.56661 6.50978,40.98419 27.10846,45.0532 8.74337,1.72716 15.95589,1.56648 22.85245,-0.50908 z"
         id="path4"
         transform="scale(0.26458333)" /><path
         style="opacity:0.5;fill:none;fill-opacity:1;stroke:#beb419;stroke-width:11.3386;stroke-linecap:round;stroke-linejoin:round;stroke-dasharray:none;stroke-opacity:1;paint-order:stroke markers fill;filter:url(#filter6)"
         d="m 198.64066,784.66184 c -6.47715,-1.32485 -11.92146,-4.4279 -16.93021,-9.64956 -9.02015,-9.40359 -8.39981,6.38246 -8.39981,-213.75244 0,-220.13462 -0.62046,-204.34529 8.39981,-213.75551 2.34586,-2.44728 6.66488,-5.74685 9.59783,-7.33238 l 5.33264,-2.88278 h 200.64039 200.6404 l 5.33263,2.88278 c 2.93295,1.58553 7.25197,4.8851 9.59784,7.33238 9.02027,9.41022 8.39981,-6.37911 8.39981,213.75551 0,220.13462 0.62046,204.34529 -8.39981,213.75552 -2.34587,2.44727 -6.66489,5.74683 -9.59784,7.33237 l -5.33263,2.88279 -197.3075,0.19286 c -108.51912,0.10608 -199.40722,-0.2366 -201.97355,-0.76154 z M 309.29283,611.2533 V 508.60007 H 274.63071 239.96858 V 611.2533 713.90652 h 34.66213 34.66212 z m 106.65271,39.08251 c 0,-62.75136 0.0378,-63.64871 2.92975,-69.62278 13.10089,-27.06282 49.74907,-28.79054 60.89936,-2.87101 4.44533,10.33347 5.49514,26.06973 5.49514,82.36989 v 53.69461 h 34.66213 34.66213 v -63.6933 c 0,-36.19646 -0.5997,-68.47602 -1.38914,-74.7719 -1.55377,-12.39158 -7.48405,-30.00651 -12.81311,-38.05926 -14.56517,-22.00946 -35.30662,-32.82179 -63.28066,-32.98765 -22.72634,-0.13474 -39.25953,6.23921 -53.43247,20.59953 l -7.62749,7.72835 -0.38611,-11.72783 -0.38611,-11.72781 -34.99542,-0.35542 -34.99542,-0.35543 v 102.67537 102.67535 h 35.32871 35.32871 z M 287.21322,481.36185 c 3.48727,-1.04951 8.68656,-3.46076 11.55399,-5.35834 21.5036,-14.2304 19.96132,-47.17899 -2.80596,-59.9458 -6.84038,-3.83576 -8.23313,-4.11165 -20.75675,-4.11165 -11.64046,0 -14.27084,0.43535 -19.79418,3.27611 -8.8584,4.55604 -16.15095,13.22917 -18.15801,21.59556 -5.17375,21.56661 6.50978,40.98419 27.10846,45.0532 8.74337,1.72716 15.95589,1.56648 22.85245,-0.50908 z"
         id="path5"
         transform="scale(0.26458333)" /><path
         style="opacity:0.5;fill:none;fill-opacity:1;stroke:#beb419;stroke-width:11.3386;stroke-linecap:round;stroke-linejoin:round;stroke-dasharray:none;stroke-opacity:1;paint-order:stroke markers fill"
         d="m 198.64066,784.66184 c -6.47715,-1.32485 -11.92146,-4.4279 -16.93021,-9.64956 -9.02015,-9.40359 -8.39981,6.38246 -8.39981,-213.75244 0,-220.13462 -0.62046,-204.34529 8.39981,-213.75551 2.34586,-2.44728 6.66488,-5.74685 9.59783,-7.33238 l 5.33264,-2.88278 h 200.64039 200.6404 l 5.33263,2.88278 c 2.93295,1.58553 7.25197,4.8851 9.59784,7.33238 9.02027,9.41022 8.39981,-6.37911 8.39981,213.75551 0,220.13462 0.62046,204.34529 -8.39981,213.75552 -2.34587,2.44727 -6.66489,5.74683 -9.59784,7.33237 l -5.33263,2.88279 -197.3075,0.19286 c -108.51912,0.10608 -199.40722,-0.2366 -201.97355,-0.76154 z M 309.29283,611.2533 V 508.60007 H 274.63071 239.96858 V 611.2533 713.90652 h 34.66213 34.66212 z m 106.65271,39.08251 c 0,-62.75136 0.0378,-63.64871 2.92975,-69.62278 13.10089,-27.06282 49.74907,-28.79054 60.89936,-2.87101 4.44533,10.33347 5.49514,26.06973 5.49514,82.36989 v 53.69461 h 34.66213 34.66213 v -63.6933 c 0,-36.19646 -0.5997,-68.47602 -1.38914,-74.7719 -1.55377,-12.39158 -7.48405,-30.00651 -12.81311,-38.05926 -14.56517,-22.00946 -35.30662,-32.82179 -63.28066,-32.98765 -22.72634,-0.13474 -39.25953,6.23921 -53.43247,20.59953 l -7.62749,7.72835 -0.38611,-11.72783 -0.38611,-11.72781 -34.99542,-0.35542 -34.99542,-0.35543 v 102.67537 102.67535 h 35.32871 35.32871 z M 287.21322,481.36185 c 3.48727,-1.04951 8.68656,-3.46076 11.55399,-5.35834 21.5036,-14.2304 19.96132,-47.17899 -2.80596,-59.9458 -6.84038,-3.83576 -8.23313,-4.11165 -20.75675,-4.11165 -11.64046,0 -14.27084,0.43535 -19.79418,3.27611 -8.8584,4.55604 -16.15095,13.22917 -18.15801,21.59556 -5.17375,21.56661 6.50978,40.98419 27.10846,45.0532 8.74337,1.72716 15.95589,1.56648 22.85245,-0.50908 z"
         id="path6"
         transform="scale(0.26458333)" /></g></g></svg>
