<?xml version="1.0" encoding="UTF-8" standalone="no"?>
<!-- Created with Inkscape (http://www.inkscape.org/) -->

<svg
   width="483.53104mm"
   height="483.55771mm"
   viewBox="0 0 483.53103 483.55771"
   version="1.1"
   id="svg1"
   xml:space="preserve"
   inkscape:export-filename="Mechtronics Neon Icon.svg"
   inkscape:export-xdpi="96"
   inkscape:export-ydpi="96"
   xmlns:inkscape="http://www.inkscape.org/namespaces/inkscape"
   xmlns:sodipodi="http://sodipodi.sourceforge.net/DTD/sodipodi-0.dtd"
   xmlns="http://www.w3.org/2000/svg"
   xmlns:svg="http://www.w3.org/2000/svg"><sodipodi:namedview
     id="namedview1"
     pagecolor="#505050"
     bordercolor="#eeeeee"
     borderopacity="1"
     inkscape:showpageshadow="0"
     inkscape:pageopacity="0"
     inkscape:pagecheckerboard="0"
     inkscape:deskcolor="#505050"
     inkscape:document-units="mm" /><defs
     id="defs1"><filter
       inkscape:collect="always"
       style="color-interpolation-filters:sRGB"
       id="filter8"
       x="-0.015290914"
       y="-0.015289575"
       width="1.0305814"
       height="1.0305792"><feGaussianBlur
         inkscape:collect="always"
         stdDeviation="8.615893"
         id="feGaussianBlur8" /></filter><filter
       inkscape:collect="always"
       style="color-interpolation-filters:sRGB"
       id="filter9"
       x="-0.059603885"
       y="-0.061243195"
       width="1.1192078"
       height="1.1224864"><feGaussianBlur
         inkscape:collect="always"
         stdDeviation="8.615893"
         id="feGaussianBlur9" /></filter><filter
       inkscape:collect="always"
       style="color-interpolation-filters:sRGB"
       id="filter10"
       x="-0.026645863"
       y="-0.026654376"
       width="1.0532921"
       height="1.0533084"><feGaussianBlur
         inkscape:collect="always"
         stdDeviation="8.615893"
         id="feGaussianBlur10" /></filter><filter
       inkscape:collect="always"
       style="color-interpolation-filters:sRGB"
       id="filter12"
       x="-0.030291356"
       y="-0.030289133"
       width="1.0605823"
       height="1.0605783"><feGaussianBlur
         inkscape:collect="always"
         stdDeviation="19.385759"
         id="feGaussianBlur12" /></filter><filter
       inkscape:collect="always"
       style="color-interpolation-filters:sRGB"
       id="filter13"
       x="-0.1202522"
       y="-0.12355954"
       width="1.2405044"
       height="1.2471191"><feGaussianBlur
         inkscape:collect="always"
         stdDeviation="19.385759"
         id="feGaussianBlur13" /></filter><filter
       inkscape:collect="always"
       style="color-interpolation-filters:sRGB"
       id="filter14"
       x="-0.055057717"
       y="-0.055074994"
       width="1.1101158"
       height="1.1101497"><feGaussianBlur
         inkscape:collect="always"
         stdDeviation="19.385759"
         id="feGaussianBlur14" /></filter></defs><g
     inkscape:label="Layer 1"
     inkscape:groupmode="layer"
     id="layer1"
     transform="translate(136.49742,93.125169)"><g
       id="g601"
       inkscape:groupmode="layer"
       inkscape:label="Mechatronics Icon"><path
         style="fill:none;stroke:#beb419;stroke-width:11.3386;stroke-linecap:round;stroke-linejoin:round;stroke-dasharray:none;stroke-opacity:1;paint-order:stroke markers fill;filter:url(#filter12)"
         d="m 242.48046,1414.3637 -10.5798,-9.0916 -1.20113,-60.5914 -1.2011,-60.5914 -15.76724,-4.1281 C 153.09188,1264.0847 77.786268,1233.2853 27.39203,1203.7501 L 4.7228172,1190.464 -32.517978,1228.041 c -41.373189,41.7467 -53.490243,49.9406 -68.859882,46.5648 -6.94764,-1.5259 -43.89437,-35.915 -112.84705,-105.0351 -92.60555,-92.8306 -102.51745,-103.9668 -102.51745,-115.1803 0,-10.7294 5.815,-18.3827 42.85539,-56.4032 l 42.8554,-43.98937 -7.38294,-11.31222 c -25.51054,-39.08756 -67.13024,-139.03923 -82.03931,-197.0213 l -4.12071,-16.02565 h -56.66369 c -56.94249,0 -68.01402,-2.10181 -77.72975,-14.7562 -3.42328,-4.45871 -4.62405,-43.0773 -4.71343,-151.59063 -0.11669,-141.6913 0.0903,-145.87498 7.69525,-155.54313 l 7.81516,-9.93537 h 61.188 61.18799 l 10.2484,-36.4621 c 13.87535,-49.36619 32.86846,-96.47087 59.62533,-147.87638 l 22.34826,-42.9356 -41.58467,-42.55675 C -335.62145,66.105406 -340.77033,80.741965 -213.9132,-46.115162 -86.60875,-173.41961 -100.7663,-168.46613 -39.326091,-107.20021 l 41.862858,41.744111 20.112838,-11.85894 C 73.933625,-107.55319 146.31321,-137.67645 208.07447,-154.48599 l 21.42272,-5.83061 1.20173,-60.63713 1.20174,-60.63713 10.5798,-9.09158 10.57983,-9.09158 H 398.195 543.32971 l 9.25544,9.25546 c 9.05585,9.05582 9.25547,10.55731 9.25547,69.61339 v 60.35794 l 16.02566,4.03308 c 43.75622,11.01188 111.95277,37.50874 159.74475,62.066705 l 53.22131,27.347808 41.37855,-40.922343 c 60.80303,-60.13271 46.79891,-65.12655 173.38981,61.830385 58.0992,58.267164 102.7616,106.017727 103.1613,110.294216 1.6781,17.958199 -2.2915,24.053679 -41.6322,63.927769 l -41.4686,42.03073 20.2135,36.58416 c 23.9612,43.36724 46.8467,99.50051 61.7971,151.57525 l 10.8257,37.70742 58.2103,0.94277 c 34.4197,0.55746 61.6041,2.70482 66.5141,5.25407 4.5671,2.3712 10.0818,9.4117 12.2549,15.64557 2.4706,7.08696 3.9512,62.06231 3.9512,146.70556 0,147.30579 -0.855,153.83207 -21.1652,161.55399 -5.2204,1.9848 -34.6645,3.60875 -65.4313,3.60875 h -55.9396 l -4.6776,19.7964 c -11.9663,50.64231 -46.639,134.94914 -77.605,188.69685 l -10.4112,18.07071 42.2001,42.32014 c 37.3848,37.49114 42.2001,43.80134 42.2001,55.30074 0,11.9551 -8.1187,21.1229 -102.7528,116.0308 -56.51396,56.6776 -106.8263,104.0839 -111.80519,105.3475 -13.283,3.371 -30.05017,-7.2342 -59.89198,-37.8814 -14.41268,-14.8016 -30.53227,-30.8935 -35.8213,-35.7598 l -9.61649,-8.8477 -61.58723,30.371 c -55.01294,27.129 -100.94466,44.6836 -149.25703,57.0444 l -16.02566,4.1002 v 60.3579 c 0,59.0561 -0.19962,60.5576 -9.25547,69.6134 l -9.25544,9.2555 H 398.195 253.06029 Z M 521.34775,1167.29 C 682.70321,1132.3994 821.73829,1038.7688 910.86944,904.97388 1052.2504,692.74677 1051.6586,422.3782 909.3504,211.00245 817.35608,74.35987 671.17383,-20.700309 505.28722,-51.753953 448.93275,-62.3034 352.05148,-63.091165 296.00328,-53.455689 97.391678,-19.311563 -69.283885,103.39315 -158.47423,281.12567 c -117.23409,233.61619 -75.4951,515.58541 104.313133,704.69112 94.784399,99.68551 218.125307,164.70681 354.416307,186.83691 50.10423,8.1356 172.38228,5.1691 221.09254,-5.3637 z"
         id="path6"
         transform="matrix(0.26458333,0,0,0.26458333,2.0833332e-7,-1.125e-6)" /><path
         style="fill:none;stroke:#beb419;stroke-width:9.44882;stroke-linecap:round;stroke-linejoin:round;stroke-dasharray:none;stroke-opacity:1;paint-order:stroke markers fill;filter:url(#filter13)"
         d="M 188.53712,559.95525 V 352.56442 h 207.39083 207.39084 v 43.48188 c 0,35.17209 1.08092,43.89668 5.65611,45.65234 7.66905,2.94289 7.66905,32.70627 0,39.07102 -4.84306,4.01937 -5.65611,24.9544 -5.65611,145.63529 V 767.34608 H 395.92795 188.53712 Z m 371.41813,0 V 395.92795 H 395.92795 231.90066 l -0.7799,160.25656 c -0.42895,88.1411 -0.0511,162.39565 0.83974,165.01011 1.27653,3.74654 36.19041,4.54536 164.8072,3.77074 l 163.18755,-0.98281 z"
         id="path7"
         transform="matrix(0.26458333,0,0,0.26458333,2.0833332e-7,-1.125e-6)" /><path
         style="fill:none;stroke:#beb419;stroke-width:7.12581;stroke-linecap:round;stroke-linejoin:round;stroke-opacity:1;paint-order:stroke markers fill;filter:url(#filter14)"
         d="m 143.81505,1014.2997 c -1.00643,-0.7612 -2.39533,-1.384 -3.08646,-1.384 -2.64182,0 -15.3514,-9.8315 -15.3514,-11.875 0,-0.641 -0.31816,-1.3069 -0.70702,-1.47973 -0.38886,-0.17282 -1.55543,-1.97691 -2.59238,-4.00906 -1.56921,-3.07524 -1.88538,-5.55491 -1.88538,-14.78689 0,-10.7779 0.0897,-11.2606 3.16628,-17.04423 2.30362,-4.33052 4.56939,-6.97956 8.31621,-9.72296 2.83246,-2.0739 6.39209,-4.76291 7.91028,-5.97558 l 2.76035,-2.20484 v -28.79248 -28.79247 l 3.36652,-3.17503 3.36651,-3.17504 h 45.48882 45.4888 l 2.01259,-2.1423 c 1.98716,-2.11524 2.01402,-2.65752 2.12625,-42.93902 0.0851,-30.55707 -0.17111,-41.13989 -1.021,-42.16393 -0.95438,-1.14997 -6.74788,-1.3672 -36.46316,-1.3672 -39.2573,0 -40.63685,-0.19011 -42.61793,-5.87306 -0.64399,-1.84733 -1.00832,-15.19836 -1.00832,-36.95006 0,-29.29908 -0.20503,-34.35033 -1.46748,-36.15272 l -1.46749,-2.09512 H 119.3606 78.571554 l -2.0497,2.1818 c -2.045543,2.17737 -2.049691,2.2732 -2.049691,47.31161 0,45.03121 -0.0046,45.13648 -2.086031,48.17418 -1.249983,1.82424 -3.186259,3.26441 -4.831264,3.5934 -1.509871,0.30198 -14.914889,0.54905 -29.788912,0.54905 H 10.722278 l -2.3830454,2.59239 c -1.3106752,1.42581 -3.3050907,4.13707 -4.4320336,6.02502 -2.2887803,3.83437 -8.140159,8.79883 -13.7316959,11.65033 -3.1068311,1.58438 -5.5578441,1.88537 -15.3530251,1.88537 -7.542932,0 -11.893336,-0.37097 -12.328615,-1.0513 -0.369947,-0.57821 -1.668977,-1.36245 -2.886735,-1.74276 -1.217757,-0.3803 -3.00354,-1.39195 -3.968406,-2.2481 -0.964866,-0.85614 -3.461855,-3.04137 -5.548865,-4.85604 -2.087009,-1.81466 -3.800946,-3.81659 -3.808749,-4.44873 -0.0078,-0.63212 -0.883807,-2.81772 -1.946676,-4.85688 -3.628176,-6.96081 -3.215785,-27.18804 0.619197,-30.37079 0.72231,-0.59946 1.313291,-1.65644 1.313291,-2.34884 0,-2.11531 8.421554,-9.95875 13.771578,-12.82619 6.695236,-3.58844 23.963171,-3.65357 30.9362206,-0.11669 4.7401616,2.4043 10.6123841,7.592 12.8693139,11.36914 1.1616846,1.94417 3.1845249,4.70142 4.4952001,6.12723 l 2.3830454,2.59239 h 17.824807 c 16.509394,0 18.026854,-0.14388 20.562716,-1.94956 l 2.737907,-1.94957 V 741.8965 696.30756 l 3.175041,-3.36652 3.175031,-3.36652 h 50.55805 c 49.30113,0 50.60491,-0.0469 52.44341,-1.88537 1.81135,-1.81135 1.88537,-3.14228 1.88537,-33.89995 0,-31.72007 -0.019,-32.03228 -2.06312,-33.93669 -2.03966,-1.90022 -2.89862,-1.92209 -75.476825,-1.92209 -48.495612,0 -74.028597,0.32908 -75.225312,0.96954 -0.9963865,0.53325 -3.2693373,3.18455 -5.0510008,5.89178 -5.27890651,8.02129 -8.1739345,10.58314 -15.1665511,13.42112 -11.2418731,4.56256 -19.3832831,4.30361 -31.1885161,-0.992 -4.687857,-2.10287 -12.646365,-9.80414 -12.646365,-12.2376 0,-0.64123 -0.579335,-1.64668 -1.287412,-2.23434 -2.119107,-1.7587 -3.744384,-11.74863 -3.162699,-19.43985 0.52573,-6.95135 3.489991,-15.10197 6.098927,-16.76979 0.648583,-0.41462 1.179698,-1.26304 1.180257,-1.88537 0.0017,-1.83685 9.104241,-8.0541 14.413806,-9.84492 7.084999,-2.38965 19.387092,-2.12442 25.950455,0.55948 6.2491586,2.55541 10.7851742,6.10157 14.0474556,10.98198 1.3862918,2.07391 3.5766887,4.93731 4.8675496,6.36313 l 2.3470188,2.59238 h 74.713686 74.713676 l 1.46749,-2.09513 c 1.25572,-1.7928 1.46748,-6.5538 1.46748,-32.99399 0,-29.64196 -0.0767,-30.97557 -1.88537,-32.78424 -1.85332,-1.85332 -3.14228,-1.88537 -75.81386,-1.88537 H 11.456883 l -2.900385,2.44051 c -1.5952116,1.34229 -2.9003844,2.98153 -2.9003844,3.64278 0,1.97642 -9.2461262,10.75372 -13.4860263,12.80222 -2.1684852,1.0477 -5.5453493,2.16118 -7.5041433,2.4744 -1.958793,0.31323 -3.78918,0.93799 -4.067526,1.38836 -0.688953,1.11476 -8.513452,1.03893 -10.541477,-0.10215 -0.9003,-0.50656 -3.333743,-1.34406 -5.407651,-1.86111 -9.91929,-2.47301 -19.943425,-12.77761 -22.068351,-22.68579 -1.945736,-9.07266 -0.740577,-21.85754 2.404809,-25.51133 0.704645,-0.81855 1.281172,-1.92539 1.281172,-2.45967 0,-2.11162 7.754213,-9.61339 12.000025,-11.60937 11.42106,-5.36907 19.226134,-6.00102 28.943453,-2.34343 9.9905761,3.76044 12.17860504,5.49998 18.0356295,14.33879 1.793942,2.70724 4.076939,5.35854 5.0733255,5.89179 1.196822,0.64052 26.785676,0.96954 75.403065,0.96954 72.334542,0 73.623652,-0.0322 75.476822,-1.88537 1.81135,-1.81135 1.88537,-3.14228 1.88537,-33.89995 0,-31.72007 -0.019,-32.03228 -2.06312,-33.93669 -2.02163,-1.88344 -3.0597,-1.92235 -51.61204,-1.93496 -27.251901,-0.007 -50.498585,-0.26741 -51.659304,-0.57851 -1.16071,-0.3111 -2.963596,-1.94616 -4.006414,-3.63347 -1.830234,-2.96138 -1.896024,-4.62888 -1.896024,-48.05437 v -44.98653 l -2.121042,-1.76945 c -1.916801,-1.59905 -3.943433,-1.77246 -21.046103,-1.8008 -18.582667,-0.0308 -18.9621437,0.008 -20.9747548,2.15043 -1.1273323,1.2 -2.0496946,2.51763 -2.0496946,2.92808 0,1.58055 -5.93179541,8.12893 -10.1711949,11.22842 -4.5159976,3.30173 -13.7772177,6.3004 -19.3638677,6.26979 -4.48334,-0.0246 -16.140279,-2.6771 -16.499418,-3.75444 -0.172826,-0.51844 -0.750266,-0.94262 -1.283202,-0.94262 -1.686276,0 -9.722803,-7.26393 -11.120338,-10.05127 -0.73766,-1.47124 -1.841962,-3.3113 -2.454004,-4.08901 -1.555249,-1.97624 -3.215003,-10.46765 -3.187552,-16.30773 0.06863,-14.60144 8.174077,-26.433 21.814736,-31.84305 4.16569,-1.65216 6.484869,-1.9294 13.51293,-1.61531 7.141545,0.31916 9.476054,0.85618 14.751982,3.39353 5.4883807,2.6395 7.85638432,4.66881 13.0900287,11.21773 0.5004454,0.62621 0.9098999,1.47897 0.9098999,1.895 0,0.41605 1.0776886,1.91868 2.3948636,3.33919 l 2.3948638,2.58276 h 27.739091 c 30.324763,0 32.726378,0.37196 35.117688,5.43912 0.878338,1.86118 1.177348,13.63924 1.200906,47.30353 0.0297,42.43891 0.125566,44.93823 1.800803,46.94635 l 1.769449,2.12104 h 41.037932 41.03793 l 1.46749,-2.09513 c 1.26278,-1.80286 1.46748,-6.86987 1.46748,-36.32366 0,-39.04019 0.13444,-39.93045 6.28783,-41.63912 2.24647,-0.62381 16.65416,-1.00452 38.13864,-1.00779 28.74612,-0.004 34.71515,-0.23045 35.64428,-1.34997 0.82468,-0.99369 1.09352,-11.99797 1.02982,-42.15455 -0.0853,-40.36947 -0.108,-40.83304 -2.1076,-42.96151 l -2.0214,-2.15168 h -44.67522 c -46.35062,0 -46.47564,-0.01 -50.91439,-4.05287 -2.11141,-1.92311 -2.12104,-2.06304 -2.12104,-30.81445 v -28.88256 l -2.59239,-2.31643 c -2.96953,-2.65342 -8.39785,-6.52048 -9.15301,-6.52048 -0.98012,0 -4.03496,-3.53763 -5.78931,-6.70425 -0.97322,-1.75667 -2.41049,-3.98085 -3.19395,-4.94262 -1.10989,-1.3625 -1.42446,-4.48515 -1.42446,-14.14028 v -12.39162 l 3.24709,-5.18477 c 4.48079,-7.15464 8.72548,-10.90232 16.54931,-14.61151 5.47011,-2.59331 20.70402,-2.59739 27.69078,-0.007 2.78647,1.03294 5.27106,2.41162 5.5213,3.06373 0.25024,0.65211 0.95975,1.18565 1.5767,1.18565 0.61695,0 2.16234,1.29484 3.43421,2.87743 1.27187,1.58258 3.3814,4.04254 4.68784,5.46658 1.53,1.66773 2.96009,5.08885 4.01848,9.61315 2.00533,8.57216 2.01878,10.36801 0.13829,18.47652 -1.74594,7.52831 -7.53184,16.14702 -12.65838,18.85597 -1.81402,0.95855 -4.67743,3.10737 -6.36313,4.77514 l -3.06492,3.0323 v 17.56126 c 0,16.24294 0.14635,17.76679 1.94956,20.29916 l 1.94957,2.73791 h 45.36205 45.36206 l 3.06901,2.10291 c 1.68794,1.1566 3.29919,2.95949 3.58052,4.00642 0.28135,1.04692 0.51733,24.46371 0.52441,52.03732 l 0.0129,50.13381 2.59238,1.71389 c 2.41491,1.59656 4.77579,1.68162 34.48495,1.24255 30.18738,-0.44615 31.96406,-0.56919 33.22967,-2.30122 1.86285,-2.54938 2.01644,-148.25254 0.15875,-150.59956 -0.6481,-0.81882 -3.73543,-3.20599 -6.86076,-5.30483 -6.16134,-4.13772 -10.17899,-8.15833 -11.04778,-11.05592 -0.30275,-1.00975 -1.43467,-4.16307 -2.51535,-7.00737 -3.15116,-8.29363 -2.51078,-18.75592 1.59819,-26.11086 0.63269,-1.13249 1.15034,-2.53609 1.15034,-3.11911 0,-2.32108 8.24129,-9.65977 14.06848,-12.52768 5.77118,-2.84034 6.79367,-3.03172 16.07938,-3.0096 8.61739,0.0205 10.53367,0.32873 14.62971,2.35286 5.26315,2.60089 12.70125,9.58247 15.24985,14.31387 0.92019,1.70832 2.36368,6.23013 3.20775,10.04846 1.34976,6.10594 1.37837,7.69608 0.23749,13.1976 -2.25799,10.88841 -6.04556,16.90746 -13.98166,22.21905 -8.92276,5.97194 -8.04721,-2.89013 -8.06489,81.63092 -0.0126,60.05112 0.22533,75.02261 1.2077,76.00498 1.84657,1.84657 65.53436,1.91309 67.37708,0.0704 1.07363,-1.07364 1.28388,-13.9485 1.24298,-76.11256 -0.0552,-83.8218 0.63252,-75.97512 -7.08711,-80.86618 -4.62038,-2.92741 -11.75981,-10.50524 -11.77351,-12.49646 -0.006,-0.80364 -0.39296,-1.86416 -0.86096,-2.35671 -0.46799,-0.49256 -1.47769,-3.99283 -2.24379,-7.77838 -1.26572,-6.25441 -1.24489,-7.5468 0.22817,-14.15508 0.89159,-3.99974 2.16823,-8.29461 2.83697,-9.54415 1.66658,-3.11405 10.24516,-11.49677 13.69849,-13.38575 7.88448,-4.31283 23.19808,-4.51282 32.13858,-0.41973 4.72931,2.16515 14.52436,10.82895 14.52436,12.84691 0,0.55373 0.80741,2.78639 1.79425,4.96148 3.62324,7.98596 3.43962,18.95537 -0.46308,27.6643 -0.73214,1.63378 -1.33117,3.38335 -1.33117,3.88792 0,1.82505 -11.60807,12.46661 -13.59887,12.46661 -0.2899,0 -1.59082,0.92491 -2.89095,2.05537 l -2.36389,2.05537 v 74.70931 74.70932 l 2.59238,1.71389 c 2.41267,1.59508 4.74903,1.68122 33.70101,1.24255 21.41242,-0.32444 31.69628,-0.81779 32.994,-1.58286 1.83957,-1.0845 1.89682,-2.36696 2.35671,-52.79117 l 0.47135,-51.67968 2.35579,-2.35592 2.35579,-2.35593 46.4828,-0.47134 46.4828,-0.47135 1.8098,-2.35671 c 1.6349,-2.12896 1.81182,-4.06922 1.83075,-20.07708 l 0.021,-17.72037 -2.49324,-2.31066 c -1.37129,-1.27086 -4.79449,-3.83814 -7.60714,-5.70506 -2.81263,-1.86692 -5.37155,-4.09449 -5.68648,-4.95014 -0.31495,-0.85566 -0.82546,-1.76785 -1.1345,-2.02708 -2.75618,-2.31209 -6.62786,-14.26923 -6.65787,-20.56191 -0.0253,-5.3122 3.26851,-16.66211 5.4175,-18.66765 1.17485,-1.0964 2.13607,-2.42733 2.13607,-2.95761 0,-0.53028 1.30927,-1.96637 2.90948,-3.1913 1.60021,-1.22494 3.4031,-2.67336 4.00641,-3.21872 0.60332,-0.54536 3.21798,-2.02489 5.81037,-3.28783 4.09213,-1.99359 6.01814,-2.29376 14.61163,-2.27725 7.78422,0.015 10.70351,0.40472 13.66894,1.82501 7.24947,3.47212 12.43461,7.87974 15.23984,12.95461 0.93921,1.69909 2.34864,3.87656 3.1321,4.83882 1.11159,1.3653 1.42446,4.50114 1.42446,14.27733 0,10.60844 -0.25275,12.80699 -1.6497,14.35031 -0.90734,1.00241 -1.6497,2.24306 -1.6497,2.757 0,1.83062 -6.69034,8.70991 -11.12352,11.43767 -8.33576,5.12904 -7.7302,2.38819 -7.7302,34.98806 0,28.8645 -0.009,29.00007 -2.12104,30.92349 -4.43875,4.04292 -4.56377,4.05287 -50.91439,4.05287 h -44.67522 l -2.00248,2.13154 c -1.96893,2.09583 -2.00722,2.82095 -2.28536,43.28463 -0.26281,38.23024 -0.16663,41.22565 1.35401,42.17469 1.09683,0.68452 12.91596,1.02332 35.82206,1.02685 20.18644,0.003 35.59379,0.39651 37.62508,0.96072 6.1799,1.71652 6.45826,3.52247 6.45826,41.90093 0,23.34013 0.32955,34.12519 1.09401,35.80298 l 1.09399,2.40107 h 41.16253 41.16253 l 2.0497,-2.1818 c 2.04461,-2.17639 2.04977,-2.29383 2.0831,-47.36995 0.0257,-34.78555 0.30979,-45.68612 1.23403,-47.35126 2.57912,-4.64665 4.4164,-4.90703 34.62422,-4.90703 h 28.13466 l 2.39486,-2.58276 c 1.31718,-1.42051 2.39487,-3.16149 2.39487,-3.86884 0,-0.70736 2.53559,-3.76717 5.63465,-6.7996 4.60996,-4.51086 6.7709,-5.86445 11.88286,-7.44338 16.87561,-5.21235 32.85639,-0.0491 41.26489,13.3322 1.85379,2.95014 3.6431,6.44986 3.97623,7.77716 0.33313,1.3273 0.98391,2.41327 1.44618,2.41327 0.46227,0 0.84049,3.37928 0.84049,7.5095 0,6.95527 -1.07553,11.36947 -3.91249,16.05764 -0.47062,0.77772 -1.10493,2.1564 -1.40959,3.06373 -0.30466,0.90734 -0.92866,1.6497 -1.38666,1.6497 -0.458,0 -0.83274,0.60791 -0.83274,1.35092 0,1.33046 -5.46171,6.12846 -10.68085,9.38289 -3.45429,2.15397 -11.93525,4.34916 -16.80263,4.34916 -6.55227,0 -15.01706,-2.76354 -20.72166,-6.76509 -2.96746,-2.08154 -5.61861,-4.36638 -5.89145,-5.07741 -0.27285,-0.71103 -2.09007,-3.42785 -4.03826,-6.03737 l -3.54216,-4.74458 h -18.91408 c -15.59301,0 -19.28195,0.25767 -21.0092,1.46747 l -2.09513,1.46749 v 45.37279 45.3728 l -2.10291,3.069 c -1.1566,1.68795 -2.95949,3.2992 -4.00642,3.58053 -1.04692,0.28135 -24.35348,0.51733 -51.79233,0.52441 l -49.88885,0.0129 -3.29847,3.63169 -3.29849,3.63169 -3.37381,-4.3387 -3.37382,-4.33871 -0.47134,-40.53548 c -0.4462,-38.37354 -0.5719,-40.70621 -2.35672,-43.73635 -1.03695,-1.76047 -3.08305,-4.09362 -4.54688,-5.18477 l -2.66151,-1.98391 H 395.92796 183.01926 l -2.66151,1.98391 c -1.46383,1.09115 -3.50993,3.4243 -4.54688,5.18477 -1.87024,3.17517 -1.88538,4.89628 -1.88538,214.36244 0,209.46617 0.0151,211.18727 1.88538,214.36244 1.03695,1.76047 3.08305,4.09362 4.54688,5.18477 l 2.66151,1.98391 h 212.9087 212.90869 l 2.66151,-1.98391 c 1.46383,-1.09115 3.50993,-3.4243 4.54688,-5.18477 1.85426,-3.14803 1.89535,-5.45687 2.48995,-139.89028 0.33251,-75.17917 0.96882,-138.38624 1.41403,-140.46015 0.95264,-4.43774 4.04978,-9.8982 5.61422,-9.8982 1.27541,0 3.20806,6.94 3.20806,11.51991 0,1.72895 0.66037,4.08636 1.46748,5.23867 l 1.46749,2.09513 h 74.20895 c 82.9161,0 76.22001,0.58477 80.69245,-7.04687 4.36621,-7.45039 8.17982,-10.44271 18.03784,-14.15325 9.1385,-3.43973 16.12039,-3.15928 25.53164,1.02554 1.63378,0.72648 3.45519,1.32087 4.04757,1.32087 1.46696,0 11.36427,10.23479 11.36427,11.75178 0,0.66823 0.59194,1.70623 1.31541,2.30666 0.72349,0.60043 1.59113,2.56131 1.9281,4.35752 0.33696,1.79619 1.04776,3.26581 1.57953,3.26581 2.34741,0 -0.26043,20.90224 -2.94032,23.56714 -0.2607,0.25924 -1.7125,2.2965 -3.22624,4.52725 -4.38172,6.45725 -12.03276,11.68178 -19.02952,12.99438 -1.76821,0.33172 -3.44738,0.97924 -3.73149,1.43894 -1.37235,2.22052 -12.44696,0.21477 -21.76309,-3.94157 -4.13604,-1.84527 -13.52157,-10.66502 -13.52157,-12.70645 0,-0.66125 -1.30518,-2.30049 -2.90039,-3.64278 l -2.90038,-2.44051 h -73.9285 c -72.67158,0 -73.96054,0.0321 -75.81386,1.88537 -1.80867,1.80867 -1.88537,3.14228 -1.88537,32.78424 0,26.44019 0.21176,31.20119 1.46748,32.99399 l 1.46749,2.09513 h 74.6028 74.60279 l 2.64397,-2.53308 c 1.45418,-1.39319 2.64397,-3.05654 2.64397,-3.69631 0,-0.63977 2.4392,-3.56303 5.42044,-6.49613 9.33754,-9.18676 22.16783,-12.03441 35.61789,-7.90529 6.27987,1.92789 8.07646,2.99594 12.60178,7.49165 2.90275,2.88377 6.05691,6.91375 7.00925,8.95551 0.95233,2.04178 2.33101,4.91326 3.06373,6.38109 0.78432,1.57122 1.33221,5.5136 1.33221,9.58613 0,6.44511 -0.57029,8.56444 -3.93188,14.61163 -0.43233,0.77771 -1.1975,2.36524 -1.7004,3.52784 -0.50289,1.16259 -2.6485,3.99514 -4.76802,6.29454 -3.08214,3.34373 -5.45635,4.76065 -11.85893,7.07737 -10.3487,3.7446 -15.81036,3.77677 -25.74352,0.15162 -7.2293,-2.63837 -15.15718,-8.55993 -15.15718,-11.32133 0,-0.55914 -0.42421,-1.01661 -0.94269,-1.01661 -0.51847,0 -0.94268,-0.67823 -0.94268,-1.50716 0,-0.82893 -1.31749,-2.73787 -2.92776,-4.24209 l -2.92774,-2.73492 h -73.90114 c -72.64421,0 -73.93319,0.0321 -75.78649,1.88537 -1.81143,1.81143 -1.88537,3.14228 -1.88537,33.93668 0,30.7944 0.0739,32.12524 1.88537,33.93668 1.8385,1.8385 3.14228,1.88537 52.44341,1.88537 h 50.55805 l 3.17503,3.36652 3.17504,3.36652 v 45.58894 45.58894 l 2.73791,1.94957 c 2.53706,1.80654 4.0523,1.94956 20.65529,1.94956 h 17.91737 l 2.44052,-2.90039 c 1.34228,-1.5952 2.44051,-3.50414 2.44051,-4.24209 0,-0.73793 0.42421,-1.34169 0.94268,-1.34169 0.51848,0 0.94269,-0.58753 0.94269,-1.30561 0,-0.71808 0.95447,-1.94637 2.12104,-2.7295 1.16657,-0.78314 3.01585,-2.2776 4.10951,-3.32102 9.1245,-8.70544 33.34094,-9.33898 42.09479,-1.10125 0.81079,0.76298 2.78342,2.38945 4.38363,3.61439 1.60021,1.22493 2.90948,2.81571 2.90948,3.53507 0,0.71935 0.37474,1.30792 0.83274,1.30792 0.458,0 1.082,0.74236 1.38666,1.6497 0.30466,0.90733 0.93897,2.28601 1.40959,3.06373 2.76628,4.57137 3.91249,9.12127 3.91249,15.53066 0,3.84038 -0.37721,7.21565 -0.83825,7.50059 -0.46104,0.28494 -1.10831,1.59402 -1.43836,2.90907 -0.71482,2.84806 -5.91253,11.65248 -8.05978,13.65247 -2.59162,2.41388 -6.94063,5.27517 -10.87403,7.15419 -5.57792,2.66463 -23.89707,2.45599 -29.02047,-0.33051 -6.45927,-3.51306 -11.73591,-8.17132 -14.18002,-12.51825 -4.41374,-7.84994 -2.30954,-7.39077 -35.28384,-7.69928 -29.16492,-0.27286 -29.42074,-0.29249 -31.5493,-2.42169 l -2.14596,-2.14661 -0.26161,-46.1887 c -0.25911,-45.74616 -0.28106,-46.21106 -2.29104,-48.52274 l -2.02943,-2.33405 h -40.78337 -40.78337 l -1.46749,2.09512 c -1.26112,1.8005 -1.46748,6.7895 -1.46748,35.47702 0,21.91173 -0.36275,34.59266 -1.05574,36.90564 -1.94144,6.47995 -2.67464,6.59318 -42.69569,6.59318 -29.59496,0 -35.38395,0.21766 -36.33722,1.36627 -0.84914,1.02316 -1.10571,11.70511 -1.02163,42.53497 l 0.11227,41.16867 2.08457,1.7399 c 1.96067,1.6365 4.73469,1.74178 46.67327,1.77127 37.67129,0.0265 45.01131,0.2499 47.31273,1.44001 5.66292,2.92842 5.66517,2.94179 5.68096,33.91615 0.008,15.56857 0.32609,28.75869 0.70701,29.31139 0.38092,0.55269 2.81362,2.41707 5.40601,4.14307 5.84775,3.8934 10.84088,8.51828 10.84088,10.04136 0,0.6328 0.31816,1.29195 0.70702,1.46478 0.38886,0.17282 1.55543,1.97915 2.59238,4.01406 2.63547,5.17181 2.80505,25.7249 0.23568,28.56304 -0.90734,1.00225 -1.6497,2.53123 -1.6497,3.39773 0,0.86651 -0.42421,1.57548 -0.94269,1.57548 -0.51848,0 -0.94269,0.48165 -0.94269,1.07025 0,2.0111 -12.73341,12.1274 -15.26476,12.1274 -0.73878,0 -2.16667,0.6228 -3.1731,1.384 -2.61,1.9741 -17.90837,1.9972 -19.87557,0.03 -0.77772,-0.7777 -2.44425,-1.414 -3.70341,-1.414 -1.25916,0 -2.28938,-0.4375 -2.28938,-0.9723 0,-0.5347 -0.74236,-1.2486 -1.6497,-1.5863 -2.92836,-1.0899 -8.42586,-5.9599 -11.29016,-10.0014 -2.80407,-3.95658 -5.91385,-14.1532 -5.91385,-19.39093 0,-7.04153 3.57324,-17.71239 7.20942,-21.5297 0.60853,-0.63884 1.25034,-1.52642 1.42625,-1.97242 0.17591,-0.44599 3.0772,-2.81243 6.4473,-5.25876 3.3701,-2.44632 6.65772,-5.13953 7.30581,-5.98491 0.84574,-1.10318 1.17836,-6.50573 1.17836,-19.13936 v -17.60229 l -2.45953,-2.45955 -2.45955,-2.45953 -46.0354,-0.2614 -46.03539,-0.26139 -2.17442,-2.33374 -2.17441,-2.33375 -0.47135,-51.55727 c -0.25924,-28.3565 -0.68344,-51.7469 -0.94268,-51.97866 -2.5426,-2.27312 -6.55282,-2.56214 -35.55033,-2.56214 -26.49628,0 -31.26296,0.21161 -33.05596,1.46748 l -2.09513,1.46749 v 74.72572 74.72573 l 2.1818,2.0497 c 1.19999,1.12733 2.53497,2.04969 2.96664,2.04969 1.96406,0 13.70527,10.62014 13.70527,12.39668 0,0.54303 0.59903,2.32406 1.33117,3.95785 3.90481,8.71363 4.08969,19.57102 0.47398,27.83586 -0.99283,2.26943 -1.80515,4.6747 -1.80515,5.34503 0,1.69787 -9.48724,9.96217 -13.84073,12.05667 -1.97942,0.9523 -4.79991,2.331 -6.26774,3.0637 -1.61767,0.8075 -5.57884,1.3322 -10.05747,1.3322 -6.9475,0 -8.99173,-0.5334 -15.08297,-3.9356 -0.77772,-0.4344 -2.05034,-1.0851 -2.82806,-1.446 -2.16356,-1.0041 -10.90938,-9.8857 -12.22765,-12.41762 -0.64287,-1.2347 -1.96337,-5.57136 -2.93442,-9.63702 -1.66292,-6.96238 -1.67767,-7.79092 -0.25371,-14.2521 0.83151,-3.77298 1.88288,-7.26296 2.33636,-7.75552 0.45348,-0.49255 0.8426,-1.55307 0.86471,-2.35671 0.0581,-2.11387 6.18647,-8.59224 12.38182,-13.08906 2.94354,-2.13653 5.59779,-4.28248 5.89834,-4.76877 0.30056,-0.48631 0.55359,-34.53677 0.5623,-75.66771 0.0147,-69.56195 -0.097,-74.86605 -1.60075,-75.9656 -2.49266,-1.82267 -65.64335,-1.69703 -67.16266,0.13362 -1.65711,1.99671 -1.52509,149.91537 0.13586,152.21128 0.65812,0.90971 3.55497,3.20784 6.43745,5.10695 9.35282,6.16207 14.93124,16.73322 15.00382,28.4324 0.0243,3.9093 -1.91373,14.80648 -2.77633,15.61106 -0.27792,0.25924 -1.77675,2.35013 -3.33072,4.6464 -3.29282,4.8658 -12.9423,12.322 -15.94654,12.322 -1.14005,0 -2.89628,0.6228 -3.90271,1.384 -2.43204,1.8395 -14.40489,1.9138 -18.0148,0.1118 -1.46783,-0.7327 -4.28832,-2.1114 -6.26774,-3.0637 -4.57434,-2.2008 -13.84073,-10.3944 -13.84073,-12.23847 0,-0.77033 -0.51765,-2.32718 -1.15034,-3.45967 -3.55425,-6.36201 -4.7931,-18.27891 -2.48793,-23.93216 0.59134,-1.45021 1.65186,-3.97347 2.35672,-5.60726 0.70485,-1.63379 1.28155,-3.43667 1.28155,-4.00641 0,-2.01324 11.74565,-12.34812 14.0337,-12.34812 0.50183,0 1.79164,-1.11773 2.86622,-2.48385 1.93876,-2.46472 1.95379,-3.05102 1.95379,-76.17735 0,-62.13478 -0.20974,-73.98053 -1.33719,-75.52339 -1.27153,-1.74003 -2.92006,-1.84322 -33.57577,-2.10161 -27.94103,-0.2355 -32.53803,-0.0755 -34.48486,1.20009 l -2.24628,1.47182 v 50.53635 c 0,48.9323 -0.06,50.63342 -1.89,53.59444 -1.2426,2.01057 -2.89751,3.25959 -4.83127,3.64634 -1.61769,0.32353 -22.55609,0.58825 -46.52976,0.58825 h -43.58849 l -2.48527,2.48526 -2.48526,2.48527 v 17.37311 c 0,9.89626 0.40984,18.1389 0.9523,19.15249 0.52377,0.97866 3.29296,3.33303 6.15377,5.23193 8.67999,5.76145 13.59596,13.11612 15.57738,23.305 1.01725,5.23095 1.02536,7.47226 0.0443,12.25491 -1.21286,5.91263 -3.27506,11.27161 -5.3358,13.86603 -3.03299,3.8184 -9.12885,9.4268 -10.24606,9.4268 -0.6924,0 -1.787,0.6363 -2.43245,1.4141 -0.64545,0.7777 -1.93972,1.414 -2.87615,1.414 -0.93644,0 -2.33892,0.6363 -3.11664,1.414 -1.9672,1.9672 -17.26556,1.9441 -19.87557,-0.03 z m 213.69592,-26.21622 c 2.85387,-3.16668 3.53301,-4.65365 3.53507,-7.74008 0.002,-3.21946 -0.61367,-4.44276 -3.91507,-7.77716 -3.40479,-3.43883 -4.45368,-3.95678 -8.01282,-3.95678 -3.52084,0 -4.62408,0.52887 -7.86596,3.77074 -3.28122,3.28123 -3.77074,4.3211 -3.77074,8.01012 0,3.53467 0.55795,4.85696 3.35664,7.95476 5.396,5.97274 11.13552,5.88268 16.67288,-0.2616 z m 93.44034,0.14933 c 3.39928,-3.50896 3.61777,-4.06871 3.21682,-8.24151 -0.61685,-6.41959 -5.96848,-11.38184 -12.27498,-11.38184 -2.88382,0 -4.23153,0.67331 -6.9493,3.47188 -6.11735,6.29919 -6.26141,11.06456 -0.50257,16.62439 5.67048,5.47453 10.89338,5.32493 16.51003,-0.47292 z m 195.49535,-0.2893 c 5.50968,-5.69523 5.49517,-8.98944 -0.0659,-14.96108 -3.67341,-3.94463 -4.48569,-4.37297 -8.29285,-4.37297 -3.63804,0 -4.6946,0.48791 -7.65515,3.53507 -5.99412,6.16948 -6.37554,10.68768 -1.36301,16.14585 5.34568,5.82092 11.52945,5.69749 17.3769,-0.34687 z m -485.2517,1.55093 c 1.54364,-1.47518 3.41799,-4.14536 4.16522,-5.93374 1.19769,-2.86647 1.18469,-3.61067 -0.10971,-6.28332 -2.4707,-5.10143 -7.30516,-8.66792 -11.74956,-8.66792 -3.30301,0 -4.458,0.59603 -7.98002,4.11805 -3.4788,3.4788 -4.11805,4.69881 -4.11805,7.85939 0,3.06949 0.67035,4.44603 3.73298,7.66552 3.41773,3.59277 4.13497,3.92418 8.49276,3.92418 3.94501,0 5.24018,-0.45911 7.56638,-2.68216 z M -16.372961,810.83366 c 3.574325,-3.57432 4.118048,-4.64867 4.118048,-8.13687 0,-3.48819 -0.543723,-4.56254 -4.118048,-8.13686 -4.547677,-4.54768 -7.905336,-5.26116 -12.813871,-2.72285 -4.464314,2.30859 -6.635221,5.85606 -6.635221,10.84261 0,4.74235 1.626608,7.42627 6.414342,10.58372 4.477164,2.95264 8.379847,2.22516 13.03475,-2.42975 z m 839.829901,0.22724 c 3.83758,-3.53735 4.21966,-4.28666 4.20597,-8.24849 -0.0326,-9.42467 -10.62738,-15.62306 -17.53317,-10.2576 -4.83357,3.75542 -5.95458,5.6759 -5.98755,10.2576 -0.0286,3.97058 0.34361,4.70333 4.18966,8.24849 3.29111,3.03365 4.95717,3.89081 7.56254,3.89081 2.60538,0 4.27143,-0.85716 7.56255,-3.89081 z M -17.851977,616.93651 c 3.614027,-3.13443 5.584212,-6.78804 5.590853,-10.36795 0.005,-2.6693 -0.788927,-4.15213 -3.911404,-7.30582 -5.568507,-5.62417 -10.387806,-5.74586 -16.024425,-0.40462 -3.295932,3.12321 -3.6251,3.87832 -3.6251,8.31596 0,4.49867 0.295465,5.14777 3.773458,8.28993 3.115573,2.81473 4.487425,3.40909 7.868588,3.40909 2.778154,0 4.81322,-0.62279 6.32803,-1.93659 z m 841.869507,-1.83523 c 3.20314,-3.3006 3.66043,-4.3281 3.66043,-8.22455 0,-3.95178 -0.39771,-4.81037 -3.53507,-7.63166 -6.64549,-5.97599 -10.01633,-6.00088 -16.19882,-0.11962 -3.38393,3.21905 -3.83325,4.14801 -3.83325,7.92524 0,3.69437 0.49996,4.79394 3.66043,8.05059 3.25495,3.35399 4.15479,3.77182 8.12314,3.77182 3.96836,0 4.8682,-0.41783 8.12314,-3.77182 z M -16.026903,521.55592 c 3.021056,-3.02105 3.770753,-4.45368 3.765779,-7.19616 -0.01165,-6.42258 -6.003077,-12.36207 -12.481657,-12.37346 -2.739524,-0.005 -4.379303,0.75895 -7.305814,3.40288 -3.486029,3.14941 -3.773458,3.78413 -3.773458,8.3327 0,4.4519 0.324851,5.21922 3.390702,8.00908 6.172201,5.61658 10.660727,5.56868 16.404448,-0.17504 z m 840.336553,0.15466 c 2.94583,-2.68064 3.36831,-3.61823 3.36831,-7.47516 0,-7.78093 -7.2483,-13.7163 -14.52123,-11.89091 -1.2533,0.31455 -3.80133,2.05059 -5.66232,3.85784 -2.93114,2.84653 -3.38359,3.87474 -3.38359,7.68945 0,3.9478 0.40062,4.7734 3.87078,7.97703 5.84046,5.39189 10.27612,5.34889 16.32805,-0.15825 z M -21.401092,330.08039 c 5.013031,-2.09459 9.146179,-7.54797 9.146179,-12.0677 0,-3.20274 -0.604115,-4.45296 -3.598697,-7.44755 -6.049231,-6.04923 -10.829978,-6.11431 -16.549945,-0.22533 -3.021198,3.11048 -3.418498,4.07741 -3.418498,8.31974 0,4.00852 0.427563,5.20817 2.592385,7.27369 2.118121,2.02096 7.417143,5.39098 8.514449,5.41494 0.146272,0.003 1.637629,-0.56731 3.314127,-1.26779 z m 840.150852,0.32054 c 1.37872,-0.52419 3.95158,-2.44085 5.71748,-4.25924 2.75754,-2.83951 3.21072,-3.95209 3.21072,-7.88238 0,-4.21254 -0.33545,-4.88543 -4.22102,-8.46703 -3.29112,-3.03364 -4.95717,-3.8908 -7.56255,-3.8908 -2.60537,0 -4.27143,0.85716 -7.56254,3.8908 -3.89023,3.58588 -4.22103,4.25095 -4.22103,8.48624 0,4.0801 0.39642,4.97497 3.53507,7.98008 5.10034,4.88331 7.14686,5.64677 11.10387,4.14233 z M 160.83233,149.19752 c 4.90345,-4.30529 6.23321,-7.82351 4.51306,-11.94044 -0.7391,-1.7689 -2.60679,-4.42316 -4.15043,-5.89834 -6.90343,-6.59728 -19.7666,-0.44643 -19.78591,9.46112 -0.005,2.5113 0.86768,4.06166 4.11184,7.30582 3.52202,3.52202 4.67701,4.11805 7.98002,4.11805 3.00832,0 4.62888,-0.67335 7.33142,-3.04621 z m 196.33461,-0.83544 c 5.25145,-5.25144 5.39728,-9.62886 0.51914,-15.58199 -3.20125,-3.90671 -3.60288,-4.1035 -8.37448,-4.1035 -4.65167,0 -5.25704,0.27126 -8.42106,3.77345 -2.86384,3.16994 -3.40909,4.45898 -3.40909,8.05956 0,3.5679 0.51337,4.80826 3.06373,7.40234 3.58042,3.64181 4.70823,4.15722 9.31594,4.25736 2.80458,0.061 4.12655,-0.62794 7.30582,-3.80722 z m 91.20517,1.91896 c 4.46425,-2.75906 6.00235,-5.35784 6.00235,-10.14154 0,-3.55594 -0.51878,-4.66202 -3.65983,-7.80308 -3.25781,-3.2578 -4.16846,-3.65983 -8.28993,-3.65983 -4.14806,0 -4.98828,0.378 -8.07065,3.63083 -5.77517,6.09454 -5.55076,10.80711 0.79982,16.79648 3.99251,3.76542 8.39582,4.15755 13.21824,1.17714 z m 197.85307,-2.14644 c 5.76965,-5.60759 5.85036,-9.25579 0.33709,-15.23699 -3.61694,-3.92391 -4.2244,-4.22102 -8.63014,-4.22102 -4.28253,0 -5.07636,0.35429 -8.23606,3.67584 -4.96386,5.21809 -5.48429,9.90457 -1.59143,14.33086 3.41173,3.87922 6.53124,5.56044 10.31746,5.56044 2.94504,0 4.32038,-0.72426 7.80308,-4.10913 z"
         id="path8"
         transform="matrix(0.26458333,0,0,0.26458333,2.0833332e-7,-1.125e-6)" /><path
         style="display:inline;mix-blend-mode:normal;fill:none;stroke:#beb419;stroke-width:11.3386;stroke-linecap:round;stroke-linejoin:round;stroke-dasharray:none;stroke-opacity:1;paint-order:stroke markers fill;filter:url(#filter8)"
         d="m 242.48046,1414.3637 -10.5798,-9.0916 -1.20113,-60.5914 -1.2011,-60.5914 -15.76724,-4.1281 C 153.09188,1264.0847 77.786268,1233.2853 27.39203,1203.7501 L 4.7228172,1190.464 -32.517978,1228.041 c -41.373189,41.7467 -53.490243,49.9406 -68.859882,46.5648 -6.94764,-1.5259 -43.89437,-35.915 -112.84705,-105.0351 -92.60555,-92.8306 -102.51745,-103.9668 -102.51745,-115.1803 0,-10.7294 5.815,-18.3827 42.85539,-56.4032 l 42.8554,-43.98937 -7.38294,-11.31222 c -25.51054,-39.08756 -67.13024,-139.03923 -82.03931,-197.0213 l -4.12071,-16.02565 h -56.66369 c -56.94249,0 -68.01402,-2.10181 -77.72975,-14.7562 -3.42328,-4.45871 -4.62405,-43.0773 -4.71343,-151.59063 -0.11669,-141.6913 0.0903,-145.87498 7.69525,-155.54313 l 7.81516,-9.93537 h 61.188 61.18799 l 10.2484,-36.4621 c 13.87535,-49.36619 32.86846,-96.47087 59.62533,-147.87638 l 22.34826,-42.9356 -41.58467,-42.55675 C -335.62145,66.105406 -340.77033,80.741965 -213.9132,-46.115162 -86.60875,-173.41961 -100.7663,-168.46613 -39.326091,-107.20021 l 41.862858,41.744111 20.112838,-11.85894 C 73.933625,-107.55319 146.31321,-137.67645 208.07447,-154.48599 l 21.42272,-5.83061 1.20173,-60.63713 1.20174,-60.63713 10.5798,-9.09158 10.57983,-9.09158 H 398.195 543.32971 l 9.25544,9.25546 c 9.05585,9.05582 9.25547,10.55731 9.25547,69.61339 v 60.35794 l 16.02566,4.03308 c 43.75622,11.01188 111.95277,37.50874 159.74475,62.066705 l 53.22131,27.347808 41.37855,-40.922343 c 60.80303,-60.13271 46.79891,-65.12655 173.38981,61.830385 58.0992,58.267164 102.7616,106.017727 103.1613,110.294216 1.6781,17.958199 -2.2915,24.053679 -41.6322,63.927769 l -41.4686,42.03073 20.2135,36.58416 c 23.9612,43.36724 46.8467,99.50051 61.7971,151.57525 l 10.8257,37.70742 58.2103,0.94277 c 34.4197,0.55746 61.6041,2.70482 66.5141,5.25407 4.5671,2.3712 10.0818,9.4117 12.2549,15.64557 2.4706,7.08696 3.9512,62.06231 3.9512,146.70556 0,147.30579 -0.855,153.83207 -21.1652,161.55399 -5.2204,1.9848 -34.6645,3.60875 -65.4313,3.60875 h -55.9396 l -4.6776,19.7964 c -11.9663,50.64231 -46.639,134.94914 -77.605,188.69685 l -10.4112,18.07071 42.2001,42.32014 c 37.3848,37.49114 42.2001,43.80134 42.2001,55.30074 0,11.9551 -8.1187,21.1229 -102.7528,116.0308 -56.51396,56.6776 -106.8263,104.0839 -111.80519,105.3475 -13.283,3.371 -30.05017,-7.2342 -59.89198,-37.8814 -14.41268,-14.8016 -30.53227,-30.8935 -35.8213,-35.7598 l -9.61649,-8.8477 -61.58723,30.371 c -55.01294,27.129 -100.94466,44.6836 -149.25703,57.0444 l -16.02566,4.1002 v 60.3579 c 0,59.0561 -0.19962,60.5576 -9.25547,69.6134 l -9.25544,9.2555 H 398.195 253.06029 Z M 521.34775,1167.29 C 682.70321,1132.3994 821.73829,1038.7688 910.86944,904.97388 1052.2504,692.74677 1051.6586,422.3782 909.3504,211.00245 817.35608,74.35987 671.17383,-20.700309 505.28722,-51.753953 448.93275,-62.3034 352.05148,-63.091165 296.00328,-53.455689 97.391678,-19.311563 -69.283885,103.39315 -158.47423,281.12567 c -117.23409,233.61619 -75.4951,515.58541 104.313133,704.69112 94.784399,99.68551 218.125307,164.70681 354.416307,186.83691 50.10423,8.1356 172.38228,5.1691 221.09254,-5.3637 z"
         id="path2"
         transform="matrix(0.26458333,0,0,0.26458333,2.0833332e-7,-1.125e-6)" /><path
         style="display:inline;mix-blend-mode:normal;fill:none;stroke:#beb419;stroke-width:9.44882;stroke-linecap:round;stroke-linejoin:round;stroke-dasharray:none;stroke-opacity:1;paint-order:stroke markers fill;filter:url(#filter9)"
         d="M 188.53712,559.95525 V 352.56442 h 207.39083 207.39084 v 43.48188 c 0,35.17209 1.08092,43.89668 5.65611,45.65234 7.66905,2.94289 7.66905,32.70627 0,39.07102 -4.84306,4.01937 -5.65611,24.9544 -5.65611,145.63529 V 767.34608 H 395.92795 188.53712 Z m 371.41813,0 V 395.92795 H 395.92795 231.90066 l -0.7799,160.25656 c -0.42895,88.1411 -0.0511,162.39565 0.83974,165.01011 1.27653,3.74654 36.19041,4.54536 164.8072,3.77074 l 163.18755,-0.98281 z"
         id="path4"
         transform="matrix(0.26458333,0,0,0.26458333,2.0833332e-7,-1.125e-6)" /><path
         style="display:inline;mix-blend-mode:normal;fill:none;stroke:#beb419;stroke-width:7.12581;stroke-linecap:round;stroke-linejoin:round;stroke-opacity:1;paint-order:stroke markers fill;filter:url(#filter10)"
         d="m 143.81505,1014.2997 c -1.00643,-0.7612 -2.39533,-1.384 -3.08646,-1.384 -2.64182,0 -15.3514,-9.8315 -15.3514,-11.875 0,-0.641 -0.31816,-1.3069 -0.70702,-1.47973 -0.38886,-0.17282 -1.55543,-1.97691 -2.59238,-4.00906 -1.56921,-3.07524 -1.88538,-5.55491 -1.88538,-14.78689 0,-10.7779 0.0897,-11.2606 3.16628,-17.04423 2.30362,-4.33052 4.56939,-6.97956 8.31621,-9.72296 2.83246,-2.0739 6.39209,-4.76291 7.91028,-5.97558 l 2.76035,-2.20484 v -28.79248 -28.79247 l 3.36652,-3.17503 3.36651,-3.17504 h 45.48882 45.4888 l 2.01259,-2.1423 c 1.98716,-2.11524 2.01402,-2.65752 2.12625,-42.93902 0.0851,-30.55707 -0.17111,-41.13989 -1.021,-42.16393 -0.95438,-1.14997 -6.74788,-1.3672 -36.46316,-1.3672 -39.2573,0 -40.63685,-0.19011 -42.61793,-5.87306 -0.64399,-1.84733 -1.00832,-15.19836 -1.00832,-36.95006 0,-29.29908 -0.20503,-34.35033 -1.46748,-36.15272 l -1.46749,-2.09512 H 119.3606 78.571554 l -2.0497,2.1818 c -2.045543,2.17737 -2.049691,2.2732 -2.049691,47.31161 0,45.03121 -0.0046,45.13648 -2.086031,48.17418 -1.249983,1.82424 -3.186259,3.26441 -4.831264,3.5934 -1.509871,0.30198 -14.914889,0.54905 -29.788912,0.54905 H 10.722278 l -2.3830454,2.59239 c -1.3106752,1.42581 -3.3050907,4.13707 -4.4320336,6.02502 -2.2887803,3.83437 -8.140159,8.79883 -13.7316959,11.65033 -3.1068311,1.58438 -5.5578441,1.88537 -15.3530251,1.88537 -7.542932,0 -11.893336,-0.37097 -12.328615,-1.0513 -0.369947,-0.57821 -1.668977,-1.36245 -2.886735,-1.74276 -1.217757,-0.3803 -3.00354,-1.39195 -3.968406,-2.2481 -0.964866,-0.85614 -3.461855,-3.04137 -5.548865,-4.85604 -2.087009,-1.81466 -3.800946,-3.81659 -3.808749,-4.44873 -0.0078,-0.63212 -0.883807,-2.81772 -1.946676,-4.85688 -3.628176,-6.96081 -3.215785,-27.18804 0.619197,-30.37079 0.72231,-0.59946 1.313291,-1.65644 1.313291,-2.34884 0,-2.11531 8.421554,-9.95875 13.771578,-12.82619 6.695236,-3.58844 23.963171,-3.65357 30.9362206,-0.11669 4.7401616,2.4043 10.6123841,7.592 12.8693139,11.36914 1.1616846,1.94417 3.1845249,4.70142 4.4952001,6.12723 l 2.3830454,2.59239 h 17.824807 c 16.509394,0 18.026854,-0.14388 20.562716,-1.94956 l 2.737907,-1.94957 V 741.8965 696.30756 l 3.175041,-3.36652 3.175031,-3.36652 h 50.55805 c 49.30113,0 50.60491,-0.0469 52.44341,-1.88537 1.81135,-1.81135 1.88537,-3.14228 1.88537,-33.89995 0,-31.72007 -0.019,-32.03228 -2.06312,-33.93669 -2.03966,-1.90022 -2.89862,-1.92209 -75.476825,-1.92209 -48.495612,0 -74.028597,0.32908 -75.225312,0.96954 -0.9963865,0.53325 -3.2693373,3.18455 -5.0510008,5.89178 -5.27890651,8.02129 -8.1739345,10.58314 -15.1665511,13.42112 -11.2418731,4.56256 -19.3832831,4.30361 -31.1885161,-0.992 -4.687857,-2.10287 -12.646365,-9.80414 -12.646365,-12.2376 0,-0.64123 -0.579335,-1.64668 -1.287412,-2.23434 -2.119107,-1.7587 -3.744384,-11.74863 -3.162699,-19.43985 0.52573,-6.95135 3.489991,-15.10197 6.098927,-16.76979 0.648583,-0.41462 1.179698,-1.26304 1.180257,-1.88537 0.0017,-1.83685 9.104241,-8.0541 14.413806,-9.84492 7.084999,-2.38965 19.387092,-2.12442 25.950455,0.55948 6.2491586,2.55541 10.7851742,6.10157 14.0474556,10.98198 1.3862918,2.07391 3.5766887,4.93731 4.8675496,6.36313 l 2.3470188,2.59238 h 74.713686 74.713676 l 1.46749,-2.09513 c 1.25572,-1.7928 1.46748,-6.5538 1.46748,-32.99399 0,-29.64196 -0.0767,-30.97557 -1.88537,-32.78424 -1.85332,-1.85332 -3.14228,-1.88537 -75.81386,-1.88537 H 11.456883 l -2.900385,2.44051 c -1.5952116,1.34229 -2.9003844,2.98153 -2.9003844,3.64278 0,1.97642 -9.2461262,10.75372 -13.4860263,12.80222 -2.1684852,1.0477 -5.5453493,2.16118 -7.5041433,2.4744 -1.958793,0.31323 -3.78918,0.93799 -4.067526,1.38836 -0.688953,1.11476 -8.513452,1.03893 -10.541477,-0.10215 -0.9003,-0.50656 -3.333743,-1.34406 -5.407651,-1.86111 -9.91929,-2.47301 -19.943425,-12.77761 -22.068351,-22.68579 -1.945736,-9.07266 -0.740577,-21.85754 2.404809,-25.51133 0.704645,-0.81855 1.281172,-1.92539 1.281172,-2.45967 0,-2.11162 7.754213,-9.61339 12.000025,-11.60937 11.42106,-5.36907 19.226134,-6.00102 28.943453,-2.34343 9.9905761,3.76044 12.17860504,5.49998 18.0356295,14.33879 1.793942,2.70724 4.076939,5.35854 5.0733255,5.89179 1.196822,0.64052 26.785676,0.96954 75.403065,0.96954 72.334542,0 73.623652,-0.0322 75.476822,-1.88537 1.81135,-1.81135 1.88537,-3.14228 1.88537,-33.89995 0,-31.72007 -0.019,-32.03228 -2.06312,-33.93669 -2.02163,-1.88344 -3.0597,-1.92235 -51.61204,-1.93496 -27.251901,-0.007 -50.498585,-0.26741 -51.659304,-0.57851 -1.16071,-0.3111 -2.963596,-1.94616 -4.006414,-3.63347 -1.830234,-2.96138 -1.896024,-4.62888 -1.896024,-48.05437 v -44.98653 l -2.121042,-1.76945 c -1.916801,-1.59905 -3.943433,-1.77246 -21.046103,-1.8008 -18.582667,-0.0308 -18.9621437,0.008 -20.9747548,2.15043 -1.1273323,1.2 -2.0496946,2.51763 -2.0496946,2.92808 0,1.58055 -5.93179541,8.12893 -10.1711949,11.22842 -4.5159976,3.30173 -13.7772177,6.3004 -19.3638677,6.26979 -4.48334,-0.0246 -16.140279,-2.6771 -16.499418,-3.75444 -0.172826,-0.51844 -0.750266,-0.94262 -1.283202,-0.94262 -1.686276,0 -9.722803,-7.26393 -11.120338,-10.05127 -0.73766,-1.47124 -1.841962,-3.3113 -2.454004,-4.08901 -1.555249,-1.97624 -3.215003,-10.46765 -3.187552,-16.30773 0.06863,-14.60144 8.174077,-26.433 21.814736,-31.84305 4.16569,-1.65216 6.484869,-1.9294 13.51293,-1.61531 7.141545,0.31916 9.476054,0.85618 14.751982,3.39353 5.4883807,2.6395 7.85638432,4.66881 13.0900287,11.21773 0.5004454,0.62621 0.9098999,1.47897 0.9098999,1.895 0,0.41605 1.0776886,1.91868 2.3948636,3.33919 l 2.3948638,2.58276 h 27.739091 c 30.324763,0 32.726378,0.37196 35.117688,5.43912 0.878338,1.86118 1.177348,13.63924 1.200906,47.30353 0.0297,42.43891 0.125566,44.93823 1.800803,46.94635 l 1.769449,2.12104 h 41.037932 41.03793 l 1.46749,-2.09513 c 1.26278,-1.80286 1.46748,-6.86987 1.46748,-36.32366 0,-39.04019 0.13444,-39.93045 6.28783,-41.63912 2.24647,-0.62381 16.65416,-1.00452 38.13864,-1.00779 28.74612,-0.004 34.71515,-0.23045 35.64428,-1.34997 0.82468,-0.99369 1.09352,-11.99797 1.02982,-42.15455 -0.0853,-40.36947 -0.108,-40.83304 -2.1076,-42.96151 l -2.0214,-2.15168 h -44.67522 c -46.35062,0 -46.47564,-0.01 -50.91439,-4.05287 -2.11141,-1.92311 -2.12104,-2.06304 -2.12104,-30.81445 v -28.88256 l -2.59239,-2.31643 c -2.96953,-2.65342 -8.39785,-6.52048 -9.15301,-6.52048 -0.98012,0 -4.03496,-3.53763 -5.78931,-6.70425 -0.97322,-1.75667 -2.41049,-3.98085 -3.19395,-4.94262 -1.10989,-1.3625 -1.42446,-4.48515 -1.42446,-14.14028 v -12.39162 l 3.24709,-5.18477 c 4.48079,-7.15464 8.72548,-10.90232 16.54931,-14.61151 5.47011,-2.59331 20.70402,-2.59739 27.69078,-0.007 2.78647,1.03294 5.27106,2.41162 5.5213,3.06373 0.25024,0.65211 0.95975,1.18565 1.5767,1.18565 0.61695,0 2.16234,1.29484 3.43421,2.87743 1.27187,1.58258 3.3814,4.04254 4.68784,5.46658 1.53,1.66773 2.96009,5.08885 4.01848,9.61315 2.00533,8.57216 2.01878,10.36801 0.13829,18.47652 -1.74594,7.52831 -7.53184,16.14702 -12.65838,18.85597 -1.81402,0.95855 -4.67743,3.10737 -6.36313,4.77514 l -3.06492,3.0323 v 17.56126 c 0,16.24294 0.14635,17.76679 1.94956,20.29916 l 1.94957,2.73791 h 45.36205 45.36206 l 3.06901,2.10291 c 1.68794,1.1566 3.29919,2.95949 3.58052,4.00642 0.28135,1.04692 0.51733,24.46371 0.52441,52.03732 l 0.0129,50.13381 2.59238,1.71389 c 2.41491,1.59656 4.77579,1.68162 34.48495,1.24255 30.18738,-0.44615 31.96406,-0.56919 33.22967,-2.30122 1.86285,-2.54938 2.01644,-148.25254 0.15875,-150.59956 -0.6481,-0.81882 -3.73543,-3.20599 -6.86076,-5.30483 -6.16134,-4.13772 -10.17899,-8.15833 -11.04778,-11.05592 -0.30275,-1.00975 -1.43467,-4.16307 -2.51535,-7.00737 -3.15116,-8.29363 -2.51078,-18.75592 1.59819,-26.11086 0.63269,-1.13249 1.15034,-2.53609 1.15034,-3.11911 0,-2.32108 8.24129,-9.65977 14.06848,-12.52768 5.77118,-2.84034 6.79367,-3.03172 16.07938,-3.0096 8.61739,0.0205 10.53367,0.32873 14.62971,2.35286 5.26315,2.60089 12.70125,9.58247 15.24985,14.31387 0.92019,1.70832 2.36368,6.23013 3.20775,10.04846 1.34976,6.10594 1.37837,7.69608 0.23749,13.1976 -2.25799,10.88841 -6.04556,16.90746 -13.98166,22.21905 -8.92276,5.97194 -8.04721,-2.89013 -8.06489,81.63092 -0.0126,60.05112 0.22533,75.02261 1.2077,76.00498 1.84657,1.84657 65.53436,1.91309 67.37708,0.0704 1.07363,-1.07364 1.28388,-13.9485 1.24298,-76.11256 -0.0552,-83.8218 0.63252,-75.97512 -7.08711,-80.86618 -4.62038,-2.92741 -11.75981,-10.50524 -11.77351,-12.49646 -0.006,-0.80364 -0.39296,-1.86416 -0.86096,-2.35671 -0.46799,-0.49256 -1.47769,-3.99283 -2.24379,-7.77838 -1.26572,-6.25441 -1.24489,-7.5468 0.22817,-14.15508 0.89159,-3.99974 2.16823,-8.29461 2.83697,-9.54415 1.66658,-3.11405 10.24516,-11.49677 13.69849,-13.38575 7.88448,-4.31283 23.19808,-4.51282 32.13858,-0.41973 4.72931,2.16515 14.52436,10.82895 14.52436,12.84691 0,0.55373 0.80741,2.78639 1.79425,4.96148 3.62324,7.98596 3.43962,18.95537 -0.46308,27.6643 -0.73214,1.63378 -1.33117,3.38335 -1.33117,3.88792 0,1.82505 -11.60807,12.46661 -13.59887,12.46661 -0.2899,0 -1.59082,0.92491 -2.89095,2.05537 l -2.36389,2.05537 v 74.70931 74.70932 l 2.59238,1.71389 c 2.41267,1.59508 4.74903,1.68122 33.70101,1.24255 21.41242,-0.32444 31.69628,-0.81779 32.994,-1.58286 1.83957,-1.0845 1.89682,-2.36696 2.35671,-52.79117 l 0.47135,-51.67968 2.35579,-2.35592 2.35579,-2.35593 46.4828,-0.47134 46.4828,-0.47135 1.8098,-2.35671 c 1.6349,-2.12896 1.81182,-4.06922 1.83075,-20.07708 l 0.021,-17.72037 -2.49324,-2.31066 c -1.37129,-1.27086 -4.79449,-3.83814 -7.60714,-5.70506 -2.81263,-1.86692 -5.37155,-4.09449 -5.68648,-4.95014 -0.31495,-0.85566 -0.82546,-1.76785 -1.1345,-2.02708 -2.75618,-2.31209 -6.62786,-14.26923 -6.65787,-20.56191 -0.0253,-5.3122 3.26851,-16.66211 5.4175,-18.66765 1.17485,-1.0964 2.13607,-2.42733 2.13607,-2.95761 0,-0.53028 1.30927,-1.96637 2.90948,-3.1913 1.60021,-1.22494 3.4031,-2.67336 4.00641,-3.21872 0.60332,-0.54536 3.21798,-2.02489 5.81037,-3.28783 4.09213,-1.99359 6.01814,-2.29376 14.61163,-2.27725 7.78422,0.015 10.70351,0.40472 13.66894,1.82501 7.24947,3.47212 12.43461,7.87974 15.23984,12.95461 0.93921,1.69909 2.34864,3.87656 3.1321,4.83882 1.11159,1.3653 1.42446,4.50114 1.42446,14.27733 0,10.60844 -0.25275,12.80699 -1.6497,14.35031 -0.90734,1.00241 -1.6497,2.24306 -1.6497,2.757 0,1.83062 -6.69034,8.70991 -11.12352,11.43767 -8.33576,5.12904 -7.7302,2.38819 -7.7302,34.98806 0,28.8645 -0.009,29.00007 -2.12104,30.92349 -4.43875,4.04292 -4.56377,4.05287 -50.91439,4.05287 h -44.67522 l -2.00248,2.13154 c -1.96893,2.09583 -2.00722,2.82095 -2.28536,43.28463 -0.26281,38.23024 -0.16663,41.22565 1.35401,42.17469 1.09683,0.68452 12.91596,1.02332 35.82206,1.02685 20.18644,0.003 35.59379,0.39651 37.62508,0.96072 6.1799,1.71652 6.45826,3.52247 6.45826,41.90093 0,23.34013 0.32955,34.12519 1.09401,35.80298 l 1.09399,2.40107 h 41.16253 41.16253 l 2.0497,-2.1818 c 2.04461,-2.17639 2.04977,-2.29383 2.0831,-47.36995 0.0257,-34.78555 0.30979,-45.68612 1.23403,-47.35126 2.57912,-4.64665 4.4164,-4.90703 34.62422,-4.90703 h 28.13466 l 2.39486,-2.58276 c 1.31718,-1.42051 2.39487,-3.16149 2.39487,-3.86884 0,-0.70736 2.53559,-3.76717 5.63465,-6.7996 4.60996,-4.51086 6.7709,-5.86445 11.88286,-7.44338 16.87561,-5.21235 32.85639,-0.0491 41.26489,13.3322 1.85379,2.95014 3.6431,6.44986 3.97623,7.77716 0.33313,1.3273 0.98391,2.41327 1.44618,2.41327 0.46227,0 0.84049,3.37928 0.84049,7.5095 0,6.95527 -1.07553,11.36947 -3.91249,16.05764 -0.47062,0.77772 -1.10493,2.1564 -1.40959,3.06373 -0.30466,0.90734 -0.92866,1.6497 -1.38666,1.6497 -0.458,0 -0.83274,0.60791 -0.83274,1.35092 0,1.33046 -5.46171,6.12846 -10.68085,9.38289 -3.45429,2.15397 -11.93525,4.34916 -16.80263,4.34916 -6.55227,0 -15.01706,-2.76354 -20.72166,-6.76509 -2.96746,-2.08154 -5.61861,-4.36638 -5.89145,-5.07741 -0.27285,-0.71103 -2.09007,-3.42785 -4.03826,-6.03737 l -3.54216,-4.74458 h -18.91408 c -15.59301,0 -19.28195,0.25767 -21.0092,1.46747 l -2.09513,1.46749 v 45.37279 45.3728 l -2.10291,3.069 c -1.1566,1.68795 -2.95949,3.2992 -4.00642,3.58053 -1.04692,0.28135 -24.35348,0.51733 -51.79233,0.52441 l -49.88885,0.0129 -3.29847,3.63169 -3.29849,3.63169 -3.37381,-4.3387 -3.37382,-4.33871 -0.47134,-40.53548 c -0.4462,-38.37354 -0.5719,-40.70621 -2.35672,-43.73635 -1.03695,-1.76047 -3.08305,-4.09362 -4.54688,-5.18477 l -2.66151,-1.98391 H 395.92796 183.01926 l -2.66151,1.98391 c -1.46383,1.09115 -3.50993,3.4243 -4.54688,5.18477 -1.87024,3.17517 -1.88538,4.89628 -1.88538,214.36244 0,209.46617 0.0151,211.18727 1.88538,214.36244 1.03695,1.76047 3.08305,4.09362 4.54688,5.18477 l 2.66151,1.98391 h 212.9087 212.90869 l 2.66151,-1.98391 c 1.46383,-1.09115 3.50993,-3.4243 4.54688,-5.18477 1.85426,-3.14803 1.89535,-5.45687 2.48995,-139.89028 0.33251,-75.17917 0.96882,-138.38624 1.41403,-140.46015 0.95264,-4.43774 4.04978,-9.8982 5.61422,-9.8982 1.27541,0 3.20806,6.94 3.20806,11.51991 0,1.72895 0.66037,4.08636 1.46748,5.23867 l 1.46749,2.09513 h 74.20895 c 82.9161,0 76.22001,0.58477 80.69245,-7.04687 4.36621,-7.45039 8.17982,-10.44271 18.03784,-14.15325 9.1385,-3.43973 16.12039,-3.15928 25.53164,1.02554 1.63378,0.72648 3.45519,1.32087 4.04757,1.32087 1.46696,0 11.36427,10.23479 11.36427,11.75178 0,0.66823 0.59194,1.70623 1.31541,2.30666 0.72349,0.60043 1.59113,2.56131 1.9281,4.35752 0.33696,1.79619 1.04776,3.26581 1.57953,3.26581 2.34741,0 -0.26043,20.90224 -2.94032,23.56714 -0.2607,0.25924 -1.7125,2.2965 -3.22624,4.52725 -4.38172,6.45725 -12.03276,11.68178 -19.02952,12.99438 -1.76821,0.33172 -3.44738,0.97924 -3.73149,1.43894 -1.37235,2.22052 -12.44696,0.21477 -21.76309,-3.94157 -4.13604,-1.84527 -13.52157,-10.66502 -13.52157,-12.70645 0,-0.66125 -1.30518,-2.30049 -2.90039,-3.64278 l -2.90038,-2.44051 h -73.9285 c -72.67158,0 -73.96054,0.0321 -75.81386,1.88537 -1.80867,1.80867 -1.88537,3.14228 -1.88537,32.78424 0,26.44019 0.21176,31.20119 1.46748,32.99399 l 1.46749,2.09513 h 74.6028 74.60279 l 2.64397,-2.53308 c 1.45418,-1.39319 2.64397,-3.05654 2.64397,-3.69631 0,-0.63977 2.4392,-3.56303 5.42044,-6.49613 9.33754,-9.18676 22.16783,-12.03441 35.61789,-7.90529 6.27987,1.92789 8.07646,2.99594 12.60178,7.49165 2.90275,2.88377 6.05691,6.91375 7.00925,8.95551 0.95233,2.04178 2.33101,4.91326 3.06373,6.38109 0.78432,1.57122 1.33221,5.5136 1.33221,9.58613 0,6.44511 -0.57029,8.56444 -3.93188,14.61163 -0.43233,0.77771 -1.1975,2.36524 -1.7004,3.52784 -0.50289,1.16259 -2.6485,3.99514 -4.76802,6.29454 -3.08214,3.34373 -5.45635,4.76065 -11.85893,7.07737 -10.3487,3.7446 -15.81036,3.77677 -25.74352,0.15162 -7.2293,-2.63837 -15.15718,-8.55993 -15.15718,-11.32133 0,-0.55914 -0.42421,-1.01661 -0.94269,-1.01661 -0.51847,0 -0.94268,-0.67823 -0.94268,-1.50716 0,-0.82893 -1.31749,-2.73787 -2.92776,-4.24209 l -2.92774,-2.73492 h -73.90114 c -72.64421,0 -73.93319,0.0321 -75.78649,1.88537 -1.81143,1.81143 -1.88537,3.14228 -1.88537,33.93668 0,30.7944 0.0739,32.12524 1.88537,33.93668 1.8385,1.8385 3.14228,1.88537 52.44341,1.88537 h 50.55805 l 3.17503,3.36652 3.17504,3.36652 v 45.58894 45.58894 l 2.73791,1.94957 c 2.53706,1.80654 4.0523,1.94956 20.65529,1.94956 h 17.91737 l 2.44052,-2.90039 c 1.34228,-1.5952 2.44051,-3.50414 2.44051,-4.24209 0,-0.73793 0.42421,-1.34169 0.94268,-1.34169 0.51848,0 0.94269,-0.58753 0.94269,-1.30561 0,-0.71808 0.95447,-1.94637 2.12104,-2.7295 1.16657,-0.78314 3.01585,-2.2776 4.10951,-3.32102 9.1245,-8.70544 33.34094,-9.33898 42.09479,-1.10125 0.81079,0.76298 2.78342,2.38945 4.38363,3.61439 1.60021,1.22493 2.90948,2.81571 2.90948,3.53507 0,0.71935 0.37474,1.30792 0.83274,1.30792 0.458,0 1.082,0.74236 1.38666,1.6497 0.30466,0.90733 0.93897,2.28601 1.40959,3.06373 2.76628,4.57137 3.91249,9.12127 3.91249,15.53066 0,3.84038 -0.37721,7.21565 -0.83825,7.50059 -0.46104,0.28494 -1.10831,1.59402 -1.43836,2.90907 -0.71482,2.84806 -5.91253,11.65248 -8.05978,13.65247 -2.59162,2.41388 -6.94063,5.27517 -10.87403,7.15419 -5.57792,2.66463 -23.89707,2.45599 -29.02047,-0.33051 -6.45927,-3.51306 -11.73591,-8.17132 -14.18002,-12.51825 -4.41374,-7.84994 -2.30954,-7.39077 -35.28384,-7.69928 -29.16492,-0.27286 -29.42074,-0.29249 -31.5493,-2.42169 l -2.14596,-2.14661 -0.26161,-46.1887 c -0.25911,-45.74616 -0.28106,-46.21106 -2.29104,-48.52274 l -2.02943,-2.33405 h -40.78337 -40.78337 l -1.46749,2.09512 c -1.26112,1.8005 -1.46748,6.7895 -1.46748,35.47702 0,21.91173 -0.36275,34.59266 -1.05574,36.90564 -1.94144,6.47995 -2.67464,6.59318 -42.69569,6.59318 -29.59496,0 -35.38395,0.21766 -36.33722,1.36627 -0.84914,1.02316 -1.10571,11.70511 -1.02163,42.53497 l 0.11227,41.16867 2.08457,1.7399 c 1.96067,1.6365 4.73469,1.74178 46.67327,1.77127 37.67129,0.0265 45.01131,0.2499 47.31273,1.44001 5.66292,2.92842 5.66517,2.94179 5.68096,33.91615 0.008,15.56857 0.32609,28.75869 0.70701,29.31139 0.38092,0.55269 2.81362,2.41707 5.40601,4.14307 5.84775,3.8934 10.84088,8.51828 10.84088,10.04136 0,0.6328 0.31816,1.29195 0.70702,1.46478 0.38886,0.17282 1.55543,1.97915 2.59238,4.01406 2.63547,5.17181 2.80505,25.7249 0.23568,28.56304 -0.90734,1.00225 -1.6497,2.53123 -1.6497,3.39773 0,0.86651 -0.42421,1.57548 -0.94269,1.57548 -0.51848,0 -0.94269,0.48165 -0.94269,1.07025 0,2.0111 -12.73341,12.1274 -15.26476,12.1274 -0.73878,0 -2.16667,0.6228 -3.1731,1.384 -2.61,1.9741 -17.90837,1.9972 -19.87557,0.03 -0.77772,-0.7777 -2.44425,-1.414 -3.70341,-1.414 -1.25916,0 -2.28938,-0.4375 -2.28938,-0.9723 0,-0.5347 -0.74236,-1.2486 -1.6497,-1.5863 -2.92836,-1.0899 -8.42586,-5.9599 -11.29016,-10.0014 -2.80407,-3.95658 -5.91385,-14.1532 -5.91385,-19.39093 0,-7.04153 3.57324,-17.71239 7.20942,-21.5297 0.60853,-0.63884 1.25034,-1.52642 1.42625,-1.97242 0.17591,-0.44599 3.0772,-2.81243 6.4473,-5.25876 3.3701,-2.44632 6.65772,-5.13953 7.30581,-5.98491 0.84574,-1.10318 1.17836,-6.50573 1.17836,-19.13936 v -17.60229 l -2.45953,-2.45955 -2.45955,-2.45953 -46.0354,-0.2614 -46.03539,-0.26139 -2.17442,-2.33374 -2.17441,-2.33375 -0.47135,-51.55727 c -0.25924,-28.3565 -0.68344,-51.7469 -0.94268,-51.97866 -2.5426,-2.27312 -6.55282,-2.56214 -35.55033,-2.56214 -26.49628,0 -31.26296,0.21161 -33.05596,1.46748 l -2.09513,1.46749 v 74.72572 74.72573 l 2.1818,2.0497 c 1.19999,1.12733 2.53497,2.04969 2.96664,2.04969 1.96406,0 13.70527,10.62014 13.70527,12.39668 0,0.54303 0.59903,2.32406 1.33117,3.95785 3.90481,8.71363 4.08969,19.57102 0.47398,27.83586 -0.99283,2.26943 -1.80515,4.6747 -1.80515,5.34503 0,1.69787 -9.48724,9.96217 -13.84073,12.05667 -1.97942,0.9523 -4.79991,2.331 -6.26774,3.0637 -1.61767,0.8075 -5.57884,1.3322 -10.05747,1.3322 -6.9475,0 -8.99173,-0.5334 -15.08297,-3.9356 -0.77772,-0.4344 -2.05034,-1.0851 -2.82806,-1.446 -2.16356,-1.0041 -10.90938,-9.8857 -12.22765,-12.41762 -0.64287,-1.2347 -1.96337,-5.57136 -2.93442,-9.63702 -1.66292,-6.96238 -1.67767,-7.79092 -0.25371,-14.2521 0.83151,-3.77298 1.88288,-7.26296 2.33636,-7.75552 0.45348,-0.49255 0.8426,-1.55307 0.86471,-2.35671 0.0581,-2.11387 6.18647,-8.59224 12.38182,-13.08906 2.94354,-2.13653 5.59779,-4.28248 5.89834,-4.76877 0.30056,-0.48631 0.55359,-34.53677 0.5623,-75.66771 0.0147,-69.56195 -0.097,-74.86605 -1.60075,-75.9656 -2.49266,-1.82267 -65.64335,-1.69703 -67.16266,0.13362 -1.65711,1.99671 -1.52509,149.91537 0.13586,152.21128 0.65812,0.90971 3.55497,3.20784 6.43745,5.10695 9.35282,6.16207 14.93124,16.73322 15.00382,28.4324 0.0243,3.9093 -1.91373,14.80648 -2.77633,15.61106 -0.27792,0.25924 -1.77675,2.35013 -3.33072,4.6464 -3.29282,4.8658 -12.9423,12.322 -15.94654,12.322 -1.14005,0 -2.89628,0.6228 -3.90271,1.384 -2.43204,1.8395 -14.40489,1.9138 -18.0148,0.1118 -1.46783,-0.7327 -4.28832,-2.1114 -6.26774,-3.0637 -4.57434,-2.2008 -13.84073,-10.3944 -13.84073,-12.23847 0,-0.77033 -0.51765,-2.32718 -1.15034,-3.45967 -3.55425,-6.36201 -4.7931,-18.27891 -2.48793,-23.93216 0.59134,-1.45021 1.65186,-3.97347 2.35672,-5.60726 0.70485,-1.63379 1.28155,-3.43667 1.28155,-4.00641 0,-2.01324 11.74565,-12.34812 14.0337,-12.34812 0.50183,0 1.79164,-1.11773 2.86622,-2.48385 1.93876,-2.46472 1.95379,-3.05102 1.95379,-76.17735 0,-62.13478 -0.20974,-73.98053 -1.33719,-75.52339 -1.27153,-1.74003 -2.92006,-1.84322 -33.57577,-2.10161 -27.94103,-0.2355 -32.53803,-0.0755 -34.48486,1.20009 l -2.24628,1.47182 v 50.53635 c 0,48.9323 -0.06,50.63342 -1.89,53.59444 -1.2426,2.01057 -2.89751,3.25959 -4.83127,3.64634 -1.61769,0.32353 -22.55609,0.58825 -46.52976,0.58825 h -43.58849 l -2.48527,2.48526 -2.48526,2.48527 v 17.37311 c 0,9.89626 0.40984,18.1389 0.9523,19.15249 0.52377,0.97866 3.29296,3.33303 6.15377,5.23193 8.67999,5.76145 13.59596,13.11612 15.57738,23.305 1.01725,5.23095 1.02536,7.47226 0.0443,12.25491 -1.21286,5.91263 -3.27506,11.27161 -5.3358,13.86603 -3.03299,3.8184 -9.12885,9.4268 -10.24606,9.4268 -0.6924,0 -1.787,0.6363 -2.43245,1.4141 -0.64545,0.7777 -1.93972,1.414 -2.87615,1.414 -0.93644,0 -2.33892,0.6363 -3.11664,1.414 -1.9672,1.9672 -17.26556,1.9441 -19.87557,-0.03 z m 213.69592,-26.21622 c 2.85387,-3.16668 3.53301,-4.65365 3.53507,-7.74008 0.002,-3.21946 -0.61367,-4.44276 -3.91507,-7.77716 -3.40479,-3.43883 -4.45368,-3.95678 -8.01282,-3.95678 -3.52084,0 -4.62408,0.52887 -7.86596,3.77074 -3.28122,3.28123 -3.77074,4.3211 -3.77074,8.01012 0,3.53467 0.55795,4.85696 3.35664,7.95476 5.396,5.97274 11.13552,5.88268 16.67288,-0.2616 z m 93.44034,0.14933 c 3.39928,-3.50896 3.61777,-4.06871 3.21682,-8.24151 -0.61685,-6.41959 -5.96848,-11.38184 -12.27498,-11.38184 -2.88382,0 -4.23153,0.67331 -6.9493,3.47188 -6.11735,6.29919 -6.26141,11.06456 -0.50257,16.62439 5.67048,5.47453 10.89338,5.32493 16.51003,-0.47292 z m 195.49535,-0.2893 c 5.50968,-5.69523 5.49517,-8.98944 -0.0659,-14.96108 -3.67341,-3.94463 -4.48569,-4.37297 -8.29285,-4.37297 -3.63804,0 -4.6946,0.48791 -7.65515,3.53507 -5.99412,6.16948 -6.37554,10.68768 -1.36301,16.14585 5.34568,5.82092 11.52945,5.69749 17.3769,-0.34687 z m -485.2517,1.55093 c 1.54364,-1.47518 3.41799,-4.14536 4.16522,-5.93374 1.19769,-2.86647 1.18469,-3.61067 -0.10971,-6.28332 -2.4707,-5.10143 -7.30516,-8.66792 -11.74956,-8.66792 -3.30301,0 -4.458,0.59603 -7.98002,4.11805 -3.4788,3.4788 -4.11805,4.69881 -4.11805,7.85939 0,3.06949 0.67035,4.44603 3.73298,7.66552 3.41773,3.59277 4.13497,3.92418 8.49276,3.92418 3.94501,0 5.24018,-0.45911 7.56638,-2.68216 z M -16.372961,810.83366 c 3.574325,-3.57432 4.118048,-4.64867 4.118048,-8.13687 0,-3.48819 -0.543723,-4.56254 -4.118048,-8.13686 -4.547677,-4.54768 -7.905336,-5.26116 -12.813871,-2.72285 -4.464314,2.30859 -6.635221,5.85606 -6.635221,10.84261 0,4.74235 1.626608,7.42627 6.414342,10.58372 4.477164,2.95264 8.379847,2.22516 13.03475,-2.42975 z m 839.829901,0.22724 c 3.83758,-3.53735 4.21966,-4.28666 4.20597,-8.24849 -0.0326,-9.42467 -10.62738,-15.62306 -17.53317,-10.2576 -4.83357,3.75542 -5.95458,5.6759 -5.98755,10.2576 -0.0286,3.97058 0.34361,4.70333 4.18966,8.24849 3.29111,3.03365 4.95717,3.89081 7.56254,3.89081 2.60538,0 4.27143,-0.85716 7.56255,-3.89081 z M -17.851977,616.93651 c 3.614027,-3.13443 5.584212,-6.78804 5.590853,-10.36795 0.005,-2.6693 -0.788927,-4.15213 -3.911404,-7.30582 -5.568507,-5.62417 -10.387806,-5.74586 -16.024425,-0.40462 -3.295932,3.12321 -3.6251,3.87832 -3.6251,8.31596 0,4.49867 0.295465,5.14777 3.773458,8.28993 3.115573,2.81473 4.487425,3.40909 7.868588,3.40909 2.778154,0 4.81322,-0.62279 6.32803,-1.93659 z m 841.869507,-1.83523 c 3.20314,-3.3006 3.66043,-4.3281 3.66043,-8.22455 0,-3.95178 -0.39771,-4.81037 -3.53507,-7.63166 -6.64549,-5.97599 -10.01633,-6.00088 -16.19882,-0.11962 -3.38393,3.21905 -3.83325,4.14801 -3.83325,7.92524 0,3.69437 0.49996,4.79394 3.66043,8.05059 3.25495,3.35399 4.15479,3.77182 8.12314,3.77182 3.96836,0 4.8682,-0.41783 8.12314,-3.77182 z M -16.026903,521.55592 c 3.021056,-3.02105 3.770753,-4.45368 3.765779,-7.19616 -0.01165,-6.42258 -6.003077,-12.36207 -12.481657,-12.37346 -2.739524,-0.005 -4.379303,0.75895 -7.305814,3.40288 -3.486029,3.14941 -3.773458,3.78413 -3.773458,8.3327 0,4.4519 0.324851,5.21922 3.390702,8.00908 6.172201,5.61658 10.660727,5.56868 16.404448,-0.17504 z m 840.336553,0.15466 c 2.94583,-2.68064 3.36831,-3.61823 3.36831,-7.47516 0,-7.78093 -7.2483,-13.7163 -14.52123,-11.89091 -1.2533,0.31455 -3.80133,2.05059 -5.66232,3.85784 -2.93114,2.84653 -3.38359,3.87474 -3.38359,7.68945 0,3.9478 0.40062,4.7734 3.87078,7.97703 5.84046,5.39189 10.27612,5.34889 16.32805,-0.15825 z M -21.401092,330.08039 c 5.013031,-2.09459 9.146179,-7.54797 9.146179,-12.0677 0,-3.20274 -0.604115,-4.45296 -3.598697,-7.44755 -6.049231,-6.04923 -10.829978,-6.11431 -16.549945,-0.22533 -3.021198,3.11048 -3.418498,4.07741 -3.418498,8.31974 0,4.00852 0.427563,5.20817 2.592385,7.27369 2.118121,2.02096 7.417143,5.39098 8.514449,5.41494 0.146272,0.003 1.637629,-0.56731 3.314127,-1.26779 z m 840.150852,0.32054 c 1.37872,-0.52419 3.95158,-2.44085 5.71748,-4.25924 2.75754,-2.83951 3.21072,-3.95209 3.21072,-7.88238 0,-4.21254 -0.33545,-4.88543 -4.22102,-8.46703 -3.29112,-3.03364 -4.95717,-3.8908 -7.56255,-3.8908 -2.60537,0 -4.27143,0.85716 -7.56254,3.8908 -3.89023,3.58588 -4.22103,4.25095 -4.22103,8.48624 0,4.0801 0.39642,4.97497 3.53507,7.98008 5.10034,4.88331 7.14686,5.64677 11.10387,4.14233 z M 160.83233,149.19752 c 4.90345,-4.30529 6.23321,-7.82351 4.51306,-11.94044 -0.7391,-1.7689 -2.60679,-4.42316 -4.15043,-5.89834 -6.90343,-6.59728 -19.7666,-0.44643 -19.78591,9.46112 -0.005,2.5113 0.86768,4.06166 4.11184,7.30582 3.52202,3.52202 4.67701,4.11805 7.98002,4.11805 3.00832,0 4.62888,-0.67335 7.33142,-3.04621 z m 196.33461,-0.83544 c 5.25145,-5.25144 5.39728,-9.62886 0.51914,-15.58199 -3.20125,-3.90671 -3.60288,-4.1035 -8.37448,-4.1035 -4.65167,0 -5.25704,0.27126 -8.42106,3.77345 -2.86384,3.16994 -3.40909,4.45898 -3.40909,8.05956 0,3.5679 0.51337,4.80826 3.06373,7.40234 3.58042,3.64181 4.70823,4.15722 9.31594,4.25736 2.80458,0.061 4.12655,-0.62794 7.30582,-3.80722 z m 91.20517,1.91896 c 4.46425,-2.75906 6.00235,-5.35784 6.00235,-10.14154 0,-3.55594 -0.51878,-4.66202 -3.65983,-7.80308 -3.25781,-3.2578 -4.16846,-3.65983 -8.28993,-3.65983 -4.14806,0 -4.98828,0.378 -8.07065,3.63083 -5.77517,6.09454 -5.55076,10.80711 0.79982,16.79648 3.99251,3.76542 8.39582,4.15755 13.21824,1.17714 z m 197.85307,-2.14644 c 5.76965,-5.60759 5.85036,-9.25579 0.33709,-15.23699 -3.61694,-3.92391 -4.2244,-4.22102 -8.63014,-4.22102 -4.28253,0 -5.07636,0.35429 -8.23606,3.67584 -4.96386,5.21809 -5.48429,9.90457 -1.59143,14.33086 3.41173,3.87922 6.53124,5.56044 10.31746,5.56044 2.94504,0 4.32038,-0.72426 7.80308,-4.10913 z"
         id="path5"
         transform="matrix(0.26458333,0,0,0.26458333,2.0833332e-7,-1.125e-6)" /><path
         style="fill:none;stroke:#beb419;stroke-width:11.3386;stroke-linecap:round;stroke-linejoin:round;stroke-dasharray:none;stroke-opacity:1;paint-order:stroke markers fill"
         d="m 242.48046,1414.3637 -10.5798,-9.0916 -1.20113,-60.5914 -1.2011,-60.5914 -15.76724,-4.1281 C 153.09188,1264.0847 77.786268,1233.2853 27.39203,1203.7501 L 4.7228172,1190.464 -32.517978,1228.041 c -41.373189,41.7467 -53.490243,49.9406 -68.859882,46.5648 -6.94764,-1.5259 -43.89437,-35.915 -112.84705,-105.0351 -92.60555,-92.8306 -102.51745,-103.9668 -102.51745,-115.1803 0,-10.7294 5.815,-18.3827 42.85539,-56.4032 l 42.8554,-43.98937 -7.38294,-11.31222 c -25.51054,-39.08756 -67.13024,-139.03923 -82.03931,-197.0213 l -4.12071,-16.02565 h -56.66369 c -56.94249,0 -68.01402,-2.10181 -77.72975,-14.7562 -3.42328,-4.45871 -4.62405,-43.0773 -4.71343,-151.59063 -0.11669,-141.6913 0.0903,-145.87498 7.69525,-155.54313 l 7.81516,-9.93537 h 61.188 61.18799 l 10.2484,-36.4621 c 13.87535,-49.36619 32.86846,-96.47087 59.62533,-147.87638 l 22.34826,-42.9356 -41.58467,-42.55675 C -335.62145,66.105406 -340.77033,80.741965 -213.9132,-46.115162 -86.60875,-173.41961 -100.7663,-168.46613 -39.326091,-107.20021 l 41.862858,41.744111 20.112838,-11.85894 C 73.933625,-107.55319 146.31321,-137.67645 208.07447,-154.48599 l 21.42272,-5.83061 1.20173,-60.63713 1.20174,-60.63713 10.5798,-9.09158 10.57983,-9.09158 H 398.195 543.32971 l 9.25544,9.25546 c 9.05585,9.05582 9.25547,10.55731 9.25547,69.61339 v 60.35794 l 16.02566,4.03308 c 43.75622,11.01188 111.95277,37.50874 159.74475,62.066705 l 53.22131,27.347808 41.37855,-40.922343 c 60.80303,-60.13271 46.79891,-65.12655 173.38981,61.830385 58.0992,58.267164 102.7616,106.017727 103.1613,110.294216 1.6781,17.958199 -2.2915,24.053679 -41.6322,63.927769 l -41.4686,42.03073 20.2135,36.58416 c 23.9612,43.36724 46.8467,99.50051 61.7971,151.57525 l 10.8257,37.70742 58.2103,0.94277 c 34.4197,0.55746 61.6041,2.70482 66.5141,5.25407 4.5671,2.3712 10.0818,9.4117 12.2549,15.64557 2.4706,7.08696 3.9512,62.06231 3.9512,146.70556 0,147.30579 -0.855,153.83207 -21.1652,161.55399 -5.2204,1.9848 -34.6645,3.60875 -65.4313,3.60875 h -55.9396 l -4.6776,19.7964 c -11.9663,50.64231 -46.639,134.94914 -77.605,188.69685 l -10.4112,18.07071 42.2001,42.32014 c 37.3848,37.49114 42.2001,43.80134 42.2001,55.30074 0,11.9551 -8.1187,21.1229 -102.7528,116.0308 -56.51396,56.6776 -106.8263,104.0839 -111.80519,105.3475 -13.283,3.371 -30.05017,-7.2342 -59.89198,-37.8814 -14.41268,-14.8016 -30.53227,-30.8935 -35.8213,-35.7598 l -9.61649,-8.8477 -61.58723,30.371 c -55.01294,27.129 -100.94466,44.6836 -149.25703,57.0444 l -16.02566,4.1002 v 60.3579 c 0,59.0561 -0.19962,60.5576 -9.25547,69.6134 l -9.25544,9.2555 H 398.195 253.06029 Z M 521.34775,1167.29 C 682.70321,1132.3994 821.73829,1038.7688 910.86944,904.97388 1052.2504,692.74677 1051.6586,422.3782 909.3504,211.00245 817.35608,74.35987 671.17383,-20.700309 505.28722,-51.753953 448.93275,-62.3034 352.05148,-63.091165 296.00328,-53.455689 97.391678,-19.311563 -69.283885,103.39315 -158.47423,281.12567 c -117.23409,233.61619 -75.4951,515.58541 104.313133,704.69112 94.784399,99.68551 218.125307,164.70681 354.416307,186.83691 50.10423,8.1356 172.38228,5.1691 221.09254,-5.3637 z"
         id="path10"
         transform="scale(0.26458333)" /><path
         style="fill:none;stroke:#beb419;stroke-width:9.44882;stroke-linecap:round;stroke-linejoin:round;stroke-dasharray:none;stroke-opacity:1;paint-order:stroke markers fill"
         d="M 188.53712,559.95525 V 352.56442 h 207.39083 207.39084 v 43.48188 c 0,35.17209 1.08092,43.89668 5.65611,45.65234 7.66905,2.94289 7.66905,32.70627 0,39.07102 -4.84306,4.01937 -5.65611,24.9544 -5.65611,145.63529 V 767.34608 H 395.92795 188.53712 Z m 371.41813,0 V 395.92795 H 395.92795 231.90066 l -0.7799,160.25656 c -0.42895,88.1411 -0.0511,162.39565 0.83974,165.01011 1.27653,3.74654 36.19041,4.54536 164.8072,3.77074 l 163.18755,-0.98281 z"
         id="path11"
         transform="scale(0.26458333)" /><path
         style="fill:none;stroke:#beb419;stroke-width:7.12581;stroke-linecap:round;stroke-linejoin:round;stroke-opacity:1;paint-order:stroke markers fill"
         d="m 143.81505,1014.2997 c -1.00643,-0.7612 -2.39533,-1.384 -3.08646,-1.384 -2.64182,0 -15.3514,-9.8315 -15.3514,-11.875 0,-0.641 -0.31816,-1.3069 -0.70702,-1.47973 -0.38886,-0.17282 -1.55543,-1.97691 -2.59238,-4.00906 -1.56921,-3.07524 -1.88538,-5.55491 -1.88538,-14.78689 0,-10.7779 0.0897,-11.2606 3.16628,-17.04423 2.30362,-4.33052 4.56939,-6.97956 8.31621,-9.72296 2.83246,-2.0739 6.39209,-4.76291 7.91028,-5.97558 l 2.76035,-2.20484 v -28.79248 -28.79247 l 3.36652,-3.17503 3.36651,-3.17504 h 45.48882 45.4888 l 2.01259,-2.1423 c 1.98716,-2.11524 2.01402,-2.65752 2.12625,-42.93902 0.0851,-30.55707 -0.17111,-41.13989 -1.021,-42.16393 -0.95438,-1.14997 -6.74788,-1.3672 -36.46316,-1.3672 -39.2573,0 -40.63685,-0.19011 -42.61793,-5.87306 -0.64399,-1.84733 -1.00832,-15.19836 -1.00832,-36.95006 0,-29.29908 -0.20503,-34.35033 -1.46748,-36.15272 l -1.46749,-2.09512 H 119.3606 78.571554 l -2.0497,2.1818 c -2.045543,2.17737 -2.049691,2.2732 -2.049691,47.31161 0,45.03121 -0.0046,45.13648 -2.086031,48.17418 -1.249983,1.82424 -3.186259,3.26441 -4.831264,3.5934 -1.509871,0.30198 -14.914889,0.54905 -29.788912,0.54905 H 10.722278 l -2.3830454,2.59239 c -1.3106752,1.42581 -3.3050907,4.13707 -4.4320336,6.02502 -2.2887803,3.83437 -8.140159,8.79883 -13.7316959,11.65033 -3.1068311,1.58438 -5.5578441,1.88537 -15.3530251,1.88537 -7.542932,0 -11.893336,-0.37097 -12.328615,-1.0513 -0.369947,-0.57821 -1.668977,-1.36245 -2.886735,-1.74276 -1.217757,-0.3803 -3.00354,-1.39195 -3.968406,-2.2481 -0.964866,-0.85614 -3.461855,-3.04137 -5.548865,-4.85604 -2.087009,-1.81466 -3.800946,-3.81659 -3.808749,-4.44873 -0.0078,-0.63212 -0.883807,-2.81772 -1.946676,-4.85688 -3.628176,-6.96081 -3.215785,-27.18804 0.619197,-30.37079 0.72231,-0.59946 1.313291,-1.65644 1.313291,-2.34884 0,-2.11531 8.421554,-9.95875 13.771578,-12.82619 6.695236,-3.58844 23.963171,-3.65357 30.9362206,-0.11669 4.7401616,2.4043 10.6123841,7.592 12.8693139,11.36914 1.1616846,1.94417 3.1845249,4.70142 4.4952001,6.12723 l 2.3830454,2.59239 h 17.824807 c 16.509394,0 18.026854,-0.14388 20.562716,-1.94956 l 2.737907,-1.94957 V 741.8965 696.30756 l 3.175041,-3.36652 3.175031,-3.36652 h 50.55805 c 49.30113,0 50.60491,-0.0469 52.44341,-1.88537 1.81135,-1.81135 1.88537,-3.14228 1.88537,-33.89995 0,-31.72007 -0.019,-32.03228 -2.06312,-33.93669 -2.03966,-1.90022 -2.89862,-1.92209 -75.476825,-1.92209 -48.495612,0 -74.028597,0.32908 -75.225312,0.96954 -0.9963865,0.53325 -3.2693373,3.18455 -5.0510008,5.89178 -5.27890651,8.02129 -8.1739345,10.58314 -15.1665511,13.42112 -11.2418731,4.56256 -19.3832831,4.30361 -31.1885161,-0.992 -4.687857,-2.10287 -12.646365,-9.80414 -12.646365,-12.2376 0,-0.64123 -0.579335,-1.64668 -1.287412,-2.23434 -2.119107,-1.7587 -3.744384,-11.74863 -3.162699,-19.43985 0.52573,-6.95135 3.489991,-15.10197 6.098927,-16.76979 0.648583,-0.41462 1.179698,-1.26304 1.180257,-1.88537 0.0017,-1.83685 9.104241,-8.0541 14.413806,-9.84492 7.084999,-2.38965 19.387092,-2.12442 25.950455,0.55948 6.2491586,2.55541 10.7851742,6.10157 14.0474556,10.98198 1.3862918,2.07391 3.5766887,4.93731 4.8675496,6.36313 l 2.3470188,2.59238 h 74.713686 74.713676 l 1.46749,-2.09513 c 1.25572,-1.7928 1.46748,-6.5538 1.46748,-32.99399 0,-29.64196 -0.0767,-30.97557 -1.88537,-32.78424 -1.85332,-1.85332 -3.14228,-1.88537 -75.81386,-1.88537 H 11.456883 l -2.900385,2.44051 c -1.5952116,1.34229 -2.9003844,2.98153 -2.9003844,3.64278 0,1.97642 -9.2461262,10.75372 -13.4860263,12.80222 -2.1684852,1.0477 -5.5453493,2.16118 -7.5041433,2.4744 -1.958793,0.31323 -3.78918,0.93799 -4.067526,1.38836 -0.688953,1.11476 -8.513452,1.03893 -10.541477,-0.10215 -0.9003,-0.50656 -3.333743,-1.34406 -5.407651,-1.86111 -9.91929,-2.47301 -19.943425,-12.77761 -22.068351,-22.68579 -1.945736,-9.07266 -0.740577,-21.85754 2.404809,-25.51133 0.704645,-0.81855 1.281172,-1.92539 1.281172,-2.45967 0,-2.11162 7.754213,-9.61339 12.000025,-11.60937 11.42106,-5.36907 19.226134,-6.00102 28.943453,-2.34343 9.9905761,3.76044 12.17860504,5.49998 18.0356295,14.33879 1.793942,2.70724 4.076939,5.35854 5.0733255,5.89179 1.196822,0.64052 26.785676,0.96954 75.403065,0.96954 72.334542,0 73.623652,-0.0322 75.476822,-1.88537 1.81135,-1.81135 1.88537,-3.14228 1.88537,-33.89995 0,-31.72007 -0.019,-32.03228 -2.06312,-33.93669 -2.02163,-1.88344 -3.0597,-1.92235 -51.61204,-1.93496 -27.251901,-0.007 -50.498585,-0.26741 -51.659304,-0.57851 -1.16071,-0.3111 -2.963596,-1.94616 -4.006414,-3.63347 -1.830234,-2.96138 -1.896024,-4.62888 -1.896024,-48.05437 v -44.98653 l -2.121042,-1.76945 c -1.916801,-1.59905 -3.943433,-1.77246 -21.046103,-1.8008 -18.582667,-0.0308 -18.9621437,0.008 -20.9747548,2.15043 -1.1273323,1.2 -2.0496946,2.51763 -2.0496946,2.92808 0,1.58055 -5.93179541,8.12893 -10.1711949,11.22842 -4.5159976,3.30173 -13.7772177,6.3004 -19.3638677,6.26979 -4.48334,-0.0246 -16.140279,-2.6771 -16.499418,-3.75444 -0.172826,-0.51844 -0.750266,-0.94262 -1.283202,-0.94262 -1.686276,0 -9.722803,-7.26393 -11.120338,-10.05127 -0.73766,-1.47124 -1.841962,-3.3113 -2.454004,-4.08901 -1.555249,-1.97624 -3.215003,-10.46765 -3.187552,-16.30773 0.06863,-14.60144 8.174077,-26.433 21.814736,-31.84305 4.16569,-1.65216 6.484869,-1.9294 13.51293,-1.61531 7.141545,0.31916 9.476054,0.85618 14.751982,3.39353 5.4883807,2.6395 7.85638432,4.66881 13.0900287,11.21773 0.5004454,0.62621 0.9098999,1.47897 0.9098999,1.895 0,0.41605 1.0776886,1.91868 2.3948636,3.33919 l 2.3948638,2.58276 h 27.739091 c 30.324763,0 32.726378,0.37196 35.117688,5.43912 0.878338,1.86118 1.177348,13.63924 1.200906,47.30353 0.0297,42.43891 0.125566,44.93823 1.800803,46.94635 l 1.769449,2.12104 h 41.037932 41.03793 l 1.46749,-2.09513 c 1.26278,-1.80286 1.46748,-6.86987 1.46748,-36.32366 0,-39.04019 0.13444,-39.93045 6.28783,-41.63912 2.24647,-0.62381 16.65416,-1.00452 38.13864,-1.00779 28.74612,-0.004 34.71515,-0.23045 35.64428,-1.34997 0.82468,-0.99369 1.09352,-11.99797 1.02982,-42.15455 -0.0853,-40.36947 -0.108,-40.83304 -2.1076,-42.96151 l -2.0214,-2.15168 h -44.67522 c -46.35062,0 -46.47564,-0.01 -50.91439,-4.05287 -2.11141,-1.92311 -2.12104,-2.06304 -2.12104,-30.81445 v -28.88256 l -2.59239,-2.31643 c -2.96953,-2.65342 -8.39785,-6.52048 -9.15301,-6.52048 -0.98012,0 -4.03496,-3.53763 -5.78931,-6.70425 -0.97322,-1.75667 -2.41049,-3.98085 -3.19395,-4.94262 -1.10989,-1.3625 -1.42446,-4.48515 -1.42446,-14.14028 v -12.39162 l 3.24709,-5.18477 c 4.48079,-7.15464 8.72548,-10.90232 16.54931,-14.61151 5.47011,-2.59331 20.70402,-2.59739 27.69078,-0.007 2.78647,1.03294 5.27106,2.41162 5.5213,3.06373 0.25024,0.65211 0.95975,1.18565 1.5767,1.18565 0.61695,0 2.16234,1.29484 3.43421,2.87743 1.27187,1.58258 3.3814,4.04254 4.68784,5.46658 1.53,1.66773 2.96009,5.08885 4.01848,9.61315 2.00533,8.57216 2.01878,10.36801 0.13829,18.47652 -1.74594,7.52831 -7.53184,16.14702 -12.65838,18.85597 -1.81402,0.95855 -4.67743,3.10737 -6.36313,4.77514 l -3.06492,3.0323 v 17.56126 c 0,16.24294 0.14635,17.76679 1.94956,20.29916 l 1.94957,2.73791 h 45.36205 45.36206 l 3.06901,2.10291 c 1.68794,1.1566 3.29919,2.95949 3.58052,4.00642 0.28135,1.04692 0.51733,24.46371 0.52441,52.03732 l 0.0129,50.13381 2.59238,1.71389 c 2.41491,1.59656 4.77579,1.68162 34.48495,1.24255 30.18738,-0.44615 31.96406,-0.56919 33.22967,-2.30122 1.86285,-2.54938 2.01644,-148.25254 0.15875,-150.59956 -0.6481,-0.81882 -3.73543,-3.20599 -6.86076,-5.30483 -6.16134,-4.13772 -10.17899,-8.15833 -11.04778,-11.05592 -0.30275,-1.00975 -1.43467,-4.16307 -2.51535,-7.00737 -3.15116,-8.29363 -2.51078,-18.75592 1.59819,-26.11086 0.63269,-1.13249 1.15034,-2.53609 1.15034,-3.11911 0,-2.32108 8.24129,-9.65977 14.06848,-12.52768 5.77118,-2.84034 6.79367,-3.03172 16.07938,-3.0096 8.61739,0.0205 10.53367,0.32873 14.62971,2.35286 5.26315,2.60089 12.70125,9.58247 15.24985,14.31387 0.92019,1.70832 2.36368,6.23013 3.20775,10.04846 1.34976,6.10594 1.37837,7.69608 0.23749,13.1976 -2.25799,10.88841 -6.04556,16.90746 -13.98166,22.21905 -8.92276,5.97194 -8.04721,-2.89013 -8.06489,81.63092 -0.0126,60.05112 0.22533,75.02261 1.2077,76.00498 1.84657,1.84657 65.53436,1.91309 67.37708,0.0704 1.07363,-1.07364 1.28388,-13.9485 1.24298,-76.11256 -0.0552,-83.8218 0.63252,-75.97512 -7.08711,-80.86618 -4.62038,-2.92741 -11.75981,-10.50524 -11.77351,-12.49646 -0.006,-0.80364 -0.39296,-1.86416 -0.86096,-2.35671 -0.46799,-0.49256 -1.47769,-3.99283 -2.24379,-7.77838 -1.26572,-6.25441 -1.24489,-7.5468 0.22817,-14.15508 0.89159,-3.99974 2.16823,-8.29461 2.83697,-9.54415 1.66658,-3.11405 10.24516,-11.49677 13.69849,-13.38575 7.88448,-4.31283 23.19808,-4.51282 32.13858,-0.41973 4.72931,2.16515 14.52436,10.82895 14.52436,12.84691 0,0.55373 0.80741,2.78639 1.79425,4.96148 3.62324,7.98596 3.43962,18.95537 -0.46308,27.6643 -0.73214,1.63378 -1.33117,3.38335 -1.33117,3.88792 0,1.82505 -11.60807,12.46661 -13.59887,12.46661 -0.2899,0 -1.59082,0.92491 -2.89095,2.05537 l -2.36389,2.05537 v 74.70931 74.70932 l 2.59238,1.71389 c 2.41267,1.59508 4.74903,1.68122 33.70101,1.24255 21.41242,-0.32444 31.69628,-0.81779 32.994,-1.58286 1.83957,-1.0845 1.89682,-2.36696 2.35671,-52.79117 l 0.47135,-51.67968 2.35579,-2.35592 2.35579,-2.35593 46.4828,-0.47134 46.4828,-0.47135 1.8098,-2.35671 c 1.6349,-2.12896 1.81182,-4.06922 1.83075,-20.07708 l 0.021,-17.72037 -2.49324,-2.31066 c -1.37129,-1.27086 -4.79449,-3.83814 -7.60714,-5.70506 -2.81263,-1.86692 -5.37155,-4.09449 -5.68648,-4.95014 -0.31495,-0.85566 -0.82546,-1.76785 -1.1345,-2.02708 -2.75618,-2.31209 -6.62786,-14.26923 -6.65787,-20.56191 -0.0253,-5.3122 3.26851,-16.66211 5.4175,-18.66765 1.17485,-1.0964 2.13607,-2.42733 2.13607,-2.95761 0,-0.53028 1.30927,-1.96637 2.90948,-3.1913 1.60021,-1.22494 3.4031,-2.67336 4.00641,-3.21872 0.60332,-0.54536 3.21798,-2.02489 5.81037,-3.28783 4.09213,-1.99359 6.01814,-2.29376 14.61163,-2.27725 7.78422,0.015 10.70351,0.40472 13.66894,1.82501 7.24947,3.47212 12.43461,7.87974 15.23984,12.95461 0.93921,1.69909 2.34864,3.87656 3.1321,4.83882 1.11159,1.3653 1.42446,4.50114 1.42446,14.27733 0,10.60844 -0.25275,12.80699 -1.6497,14.35031 -0.90734,1.00241 -1.6497,2.24306 -1.6497,2.757 0,1.83062 -6.69034,8.70991 -11.12352,11.43767 -8.33576,5.12904 -7.7302,2.38819 -7.7302,34.98806 0,28.8645 -0.009,29.00007 -2.12104,30.92349 -4.43875,4.04292 -4.56377,4.05287 -50.91439,4.05287 h -44.67522 l -2.00248,2.13154 c -1.96893,2.09583 -2.00722,2.82095 -2.28536,43.28463 -0.26281,38.23024 -0.16663,41.22565 1.35401,42.17469 1.09683,0.68452 12.91596,1.02332 35.82206,1.02685 20.18644,0.003 35.59379,0.39651 37.62508,0.96072 6.1799,1.71652 6.45826,3.52247 6.45826,41.90093 0,23.34013 0.32955,34.12519 1.09401,35.80298 l 1.09399,2.40107 h 41.16253 41.16253 l 2.0497,-2.1818 c 2.04461,-2.17639 2.04977,-2.29383 2.0831,-47.36995 0.0257,-34.78555 0.30979,-45.68612 1.23403,-47.35126 2.57912,-4.64665 4.4164,-4.90703 34.62422,-4.90703 h 28.13466 l 2.39486,-2.58276 c 1.31718,-1.42051 2.39487,-3.16149 2.39487,-3.86884 0,-0.70736 2.53559,-3.76717 5.63465,-6.7996 4.60996,-4.51086 6.7709,-5.86445 11.88286,-7.44338 16.87561,-5.21235 32.85639,-0.0491 41.26489,13.3322 1.85379,2.95014 3.6431,6.44986 3.97623,7.77716 0.33313,1.3273 0.98391,2.41327 1.44618,2.41327 0.46227,0 0.84049,3.37928 0.84049,7.5095 0,6.95527 -1.07553,11.36947 -3.91249,16.05764 -0.47062,0.77772 -1.10493,2.1564 -1.40959,3.06373 -0.30466,0.90734 -0.92866,1.6497 -1.38666,1.6497 -0.458,0 -0.83274,0.60791 -0.83274,1.35092 0,1.33046 -5.46171,6.12846 -10.68085,9.38289 -3.45429,2.15397 -11.93525,4.34916 -16.80263,4.34916 -6.55227,0 -15.01706,-2.76354 -20.72166,-6.76509 -2.96746,-2.08154 -5.61861,-4.36638 -5.89145,-5.07741 -0.27285,-0.71103 -2.09007,-3.42785 -4.03826,-6.03737 l -3.54216,-4.74458 h -18.91408 c -15.59301,0 -19.28195,0.25767 -21.0092,1.46747 l -2.09513,1.46749 v 45.37279 45.3728 l -2.10291,3.069 c -1.1566,1.68795 -2.95949,3.2992 -4.00642,3.58053 -1.04692,0.28135 -24.35348,0.51733 -51.79233,0.52441 l -49.88885,0.0129 -3.29847,3.63169 -3.29849,3.63169 -3.37381,-4.3387 -3.37382,-4.33871 -0.47134,-40.53548 c -0.4462,-38.37354 -0.5719,-40.70621 -2.35672,-43.73635 -1.03695,-1.76047 -3.08305,-4.09362 -4.54688,-5.18477 l -2.66151,-1.98391 H 395.92796 183.01926 l -2.66151,1.98391 c -1.46383,1.09115 -3.50993,3.4243 -4.54688,5.18477 -1.87024,3.17517 -1.88538,4.89628 -1.88538,214.36244 0,209.46617 0.0151,211.18727 1.88538,214.36244 1.03695,1.76047 3.08305,4.09362 4.54688,5.18477 l 2.66151,1.98391 h 212.9087 212.90869 l 2.66151,-1.98391 c 1.46383,-1.09115 3.50993,-3.4243 4.54688,-5.18477 1.85426,-3.14803 1.89535,-5.45687 2.48995,-139.89028 0.33251,-75.17917 0.96882,-138.38624 1.41403,-140.46015 0.95264,-4.43774 4.04978,-9.8982 5.61422,-9.8982 1.27541,0 3.20806,6.94 3.20806,11.51991 0,1.72895 0.66037,4.08636 1.46748,5.23867 l 1.46749,2.09513 h 74.20895 c 82.9161,0 76.22001,0.58477 80.69245,-7.04687 4.36621,-7.45039 8.17982,-10.44271 18.03784,-14.15325 9.1385,-3.43973 16.12039,-3.15928 25.53164,1.02554 1.63378,0.72648 3.45519,1.32087 4.04757,1.32087 1.46696,0 11.36427,10.23479 11.36427,11.75178 0,0.66823 0.59194,1.70623 1.31541,2.30666 0.72349,0.60043 1.59113,2.56131 1.9281,4.35752 0.33696,1.79619 1.04776,3.26581 1.57953,3.26581 2.34741,0 -0.26043,20.90224 -2.94032,23.56714 -0.2607,0.25924 -1.7125,2.2965 -3.22624,4.52725 -4.38172,6.45725 -12.03276,11.68178 -19.02952,12.99438 -1.76821,0.33172 -3.44738,0.97924 -3.73149,1.43894 -1.37235,2.22052 -12.44696,0.21477 -21.76309,-3.94157 -4.13604,-1.84527 -13.52157,-10.66502 -13.52157,-12.70645 0,-0.66125 -1.30518,-2.30049 -2.90039,-3.64278 l -2.90038,-2.44051 h -73.9285 c -72.67158,0 -73.96054,0.0321 -75.81386,1.88537 -1.80867,1.80867 -1.88537,3.14228 -1.88537,32.78424 0,26.44019 0.21176,31.20119 1.46748,32.99399 l 1.46749,2.09513 h 74.6028 74.60279 l 2.64397,-2.53308 c 1.45418,-1.39319 2.64397,-3.05654 2.64397,-3.69631 0,-0.63977 2.4392,-3.56303 5.42044,-6.49613 9.33754,-9.18676 22.16783,-12.03441 35.61789,-7.90529 6.27987,1.92789 8.07646,2.99594 12.60178,7.49165 2.90275,2.88377 6.05691,6.91375 7.00925,8.95551 0.95233,2.04178 2.33101,4.91326 3.06373,6.38109 0.78432,1.57122 1.33221,5.5136 1.33221,9.58613 0,6.44511 -0.57029,8.56444 -3.93188,14.61163 -0.43233,0.77771 -1.1975,2.36524 -1.7004,3.52784 -0.50289,1.16259 -2.6485,3.99514 -4.76802,6.29454 -3.08214,3.34373 -5.45635,4.76065 -11.85893,7.07737 -10.3487,3.7446 -15.81036,3.77677 -25.74352,0.15162 -7.2293,-2.63837 -15.15718,-8.55993 -15.15718,-11.32133 0,-0.55914 -0.42421,-1.01661 -0.94269,-1.01661 -0.51847,0 -0.94268,-0.67823 -0.94268,-1.50716 0,-0.82893 -1.31749,-2.73787 -2.92776,-4.24209 l -2.92774,-2.73492 h -73.90114 c -72.64421,0 -73.93319,0.0321 -75.78649,1.88537 -1.81143,1.81143 -1.88537,3.14228 -1.88537,33.93668 0,30.7944 0.0739,32.12524 1.88537,33.93668 1.8385,1.8385 3.14228,1.88537 52.44341,1.88537 h 50.55805 l 3.17503,3.36652 3.17504,3.36652 v 45.58894 45.58894 l 2.73791,1.94957 c 2.53706,1.80654 4.0523,1.94956 20.65529,1.94956 h 17.91737 l 2.44052,-2.90039 c 1.34228,-1.5952 2.44051,-3.50414 2.44051,-4.24209 0,-0.73793 0.42421,-1.34169 0.94268,-1.34169 0.51848,0 0.94269,-0.58753 0.94269,-1.30561 0,-0.71808 0.95447,-1.94637 2.12104,-2.7295 1.16657,-0.78314 3.01585,-2.2776 4.10951,-3.32102 9.1245,-8.70544 33.34094,-9.33898 42.09479,-1.10125 0.81079,0.76298 2.78342,2.38945 4.38363,3.61439 1.60021,1.22493 2.90948,2.81571 2.90948,3.53507 0,0.71935 0.37474,1.30792 0.83274,1.30792 0.458,0 1.082,0.74236 1.38666,1.6497 0.30466,0.90733 0.93897,2.28601 1.40959,3.06373 2.76628,4.57137 3.91249,9.12127 3.91249,15.53066 0,3.84038 -0.37721,7.21565 -0.83825,7.50059 -0.46104,0.28494 -1.10831,1.59402 -1.43836,2.90907 -0.71482,2.84806 -5.91253,11.65248 -8.05978,13.65247 -2.59162,2.41388 -6.94063,5.27517 -10.87403,7.15419 -5.57792,2.66463 -23.89707,2.45599 -29.02047,-0.33051 -6.45927,-3.51306 -11.73591,-8.17132 -14.18002,-12.51825 -4.41374,-7.84994 -2.30954,-7.39077 -35.28384,-7.69928 -29.16492,-0.27286 -29.42074,-0.29249 -31.5493,-2.42169 l -2.14596,-2.14661 -0.26161,-46.1887 c -0.25911,-45.74616 -0.28106,-46.21106 -2.29104,-48.52274 l -2.02943,-2.33405 h -40.78337 -40.78337 l -1.46749,2.09512 c -1.26112,1.8005 -1.46748,6.7895 -1.46748,35.47702 0,21.91173 -0.36275,34.59266 -1.05574,36.90564 -1.94144,6.47995 -2.67464,6.59318 -42.69569,6.59318 -29.59496,0 -35.38395,0.21766 -36.33722,1.36627 -0.84914,1.02316 -1.10571,11.70511 -1.02163,42.53497 l 0.11227,41.16867 2.08457,1.7399 c 1.96067,1.6365 4.73469,1.74178 46.67327,1.77127 37.67129,0.0265 45.01131,0.2499 47.31273,1.44001 5.66292,2.92842 5.66517,2.94179 5.68096,33.91615 0.008,15.56857 0.32609,28.75869 0.70701,29.31139 0.38092,0.55269 2.81362,2.41707 5.40601,4.14307 5.84775,3.8934 10.84088,8.51828 10.84088,10.04136 0,0.6328 0.31816,1.29195 0.70702,1.46478 0.38886,0.17282 1.55543,1.97915 2.59238,4.01406 2.63547,5.17181 2.80505,25.7249 0.23568,28.56304 -0.90734,1.00225 -1.6497,2.53123 -1.6497,3.39773 0,0.86651 -0.42421,1.57548 -0.94269,1.57548 -0.51848,0 -0.94269,0.48165 -0.94269,1.07025 0,2.0111 -12.73341,12.1274 -15.26476,12.1274 -0.73878,0 -2.16667,0.6228 -3.1731,1.384 -2.61,1.9741 -17.90837,1.9972 -19.87557,0.03 -0.77772,-0.7777 -2.44425,-1.414 -3.70341,-1.414 -1.25916,0 -2.28938,-0.4375 -2.28938,-0.9723 0,-0.5347 -0.74236,-1.2486 -1.6497,-1.5863 -2.92836,-1.0899 -8.42586,-5.9599 -11.29016,-10.0014 -2.80407,-3.95658 -5.91385,-14.1532 -5.91385,-19.39093 0,-7.04153 3.57324,-17.71239 7.20942,-21.5297 0.60853,-0.63884 1.25034,-1.52642 1.42625,-1.97242 0.17591,-0.44599 3.0772,-2.81243 6.4473,-5.25876 3.3701,-2.44632 6.65772,-5.13953 7.30581,-5.98491 0.84574,-1.10318 1.17836,-6.50573 1.17836,-19.13936 v -17.60229 l -2.45953,-2.45955 -2.45955,-2.45953 -46.0354,-0.2614 -46.03539,-0.26139 -2.17442,-2.33374 -2.17441,-2.33375 -0.47135,-51.55727 c -0.25924,-28.3565 -0.68344,-51.7469 -0.94268,-51.97866 -2.5426,-2.27312 -6.55282,-2.56214 -35.55033,-2.56214 -26.49628,0 -31.26296,0.21161 -33.05596,1.46748 l -2.09513,1.46749 v 74.72572 74.72573 l 2.1818,2.0497 c 1.19999,1.12733 2.53497,2.04969 2.96664,2.04969 1.96406,0 13.70527,10.62014 13.70527,12.39668 0,0.54303 0.59903,2.32406 1.33117,3.95785 3.90481,8.71363 4.08969,19.57102 0.47398,27.83586 -0.99283,2.26943 -1.80515,4.6747 -1.80515,5.34503 0,1.69787 -9.48724,9.96217 -13.84073,12.05667 -1.97942,0.9523 -4.79991,2.331 -6.26774,3.0637 -1.61767,0.8075 -5.57884,1.3322 -10.05747,1.3322 -6.9475,0 -8.99173,-0.5334 -15.08297,-3.9356 -0.77772,-0.4344 -2.05034,-1.0851 -2.82806,-1.446 -2.16356,-1.0041 -10.90938,-9.8857 -12.22765,-12.41762 -0.64287,-1.2347 -1.96337,-5.57136 -2.93442,-9.63702 -1.66292,-6.96238 -1.67767,-7.79092 -0.25371,-14.2521 0.83151,-3.77298 1.88288,-7.26296 2.33636,-7.75552 0.45348,-0.49255 0.8426,-1.55307 0.86471,-2.35671 0.0581,-2.11387 6.18647,-8.59224 12.38182,-13.08906 2.94354,-2.13653 5.59779,-4.28248 5.89834,-4.76877 0.30056,-0.48631 0.55359,-34.53677 0.5623,-75.66771 0.0147,-69.56195 -0.097,-74.86605 -1.60075,-75.9656 -2.49266,-1.82267 -65.64335,-1.69703 -67.16266,0.13362 -1.65711,1.99671 -1.52509,149.91537 0.13586,152.21128 0.65812,0.90971 3.55497,3.20784 6.43745,5.10695 9.35282,6.16207 14.93124,16.73322 15.00382,28.4324 0.0243,3.9093 -1.91373,14.80648 -2.77633,15.61106 -0.27792,0.25924 -1.77675,2.35013 -3.33072,4.6464 -3.29282,4.8658 -12.9423,12.322 -15.94654,12.322 -1.14005,0 -2.89628,0.6228 -3.90271,1.384 -2.43204,1.8395 -14.40489,1.9138 -18.0148,0.1118 -1.46783,-0.7327 -4.28832,-2.1114 -6.26774,-3.0637 -4.57434,-2.2008 -13.84073,-10.3944 -13.84073,-12.23847 0,-0.77033 -0.51765,-2.32718 -1.15034,-3.45967 -3.55425,-6.36201 -4.7931,-18.27891 -2.48793,-23.93216 0.59134,-1.45021 1.65186,-3.97347 2.35672,-5.60726 0.70485,-1.63379 1.28155,-3.43667 1.28155,-4.00641 0,-2.01324 11.74565,-12.34812 14.0337,-12.34812 0.50183,0 1.79164,-1.11773 2.86622,-2.48385 1.93876,-2.46472 1.95379,-3.05102 1.95379,-76.17735 0,-62.13478 -0.20974,-73.98053 -1.33719,-75.52339 -1.27153,-1.74003 -2.92006,-1.84322 -33.57577,-2.10161 -27.94103,-0.2355 -32.53803,-0.0755 -34.48486,1.20009 l -2.24628,1.47182 v 50.53635 c 0,48.9323 -0.06,50.63342 -1.89,53.59444 -1.2426,2.01057 -2.89751,3.25959 -4.83127,3.64634 -1.61769,0.32353 -22.55609,0.58825 -46.52976,0.58825 h -43.58849 l -2.48527,2.48526 -2.48526,2.48527 v 17.37311 c 0,9.89626 0.40984,18.1389 0.9523,19.15249 0.52377,0.97866 3.29296,3.33303 6.15377,5.23193 8.67999,5.76145 13.59596,13.11612 15.57738,23.305 1.01725,5.23095 1.02536,7.47226 0.0443,12.25491 -1.21286,5.91263 -3.27506,11.27161 -5.3358,13.86603 -3.03299,3.8184 -9.12885,9.4268 -10.24606,9.4268 -0.6924,0 -1.787,0.6363 -2.43245,1.4141 -0.64545,0.7777 -1.93972,1.414 -2.87615,1.414 -0.93644,0 -2.33892,0.6363 -3.11664,1.414 -1.9672,1.9672 -17.26556,1.9441 -19.87557,-0.03 z m 213.69592,-26.21622 c 2.85387,-3.16668 3.53301,-4.65365 3.53507,-7.74008 0.002,-3.21946 -0.61367,-4.44276 -3.91507,-7.77716 -3.40479,-3.43883 -4.45368,-3.95678 -8.01282,-3.95678 -3.52084,0 -4.62408,0.52887 -7.86596,3.77074 -3.28122,3.28123 -3.77074,4.3211 -3.77074,8.01012 0,3.53467 0.55795,4.85696 3.35664,7.95476 5.396,5.97274 11.13552,5.88268 16.67288,-0.2616 z m 93.44034,0.14933 c 3.39928,-3.50896 3.61777,-4.06871 3.21682,-8.24151 -0.61685,-6.41959 -5.96848,-11.38184 -12.27498,-11.38184 -2.88382,0 -4.23153,0.67331 -6.9493,3.47188 -6.11735,6.29919 -6.26141,11.06456 -0.50257,16.62439 5.67048,5.47453 10.89338,5.32493 16.51003,-0.47292 z m 195.49535,-0.2893 c 5.50968,-5.69523 5.49517,-8.98944 -0.0659,-14.96108 -3.67341,-3.94463 -4.48569,-4.37297 -8.29285,-4.37297 -3.63804,0 -4.6946,0.48791 -7.65515,3.53507 -5.99412,6.16948 -6.37554,10.68768 -1.36301,16.14585 5.34568,5.82092 11.52945,5.69749 17.3769,-0.34687 z m -485.2517,1.55093 c 1.54364,-1.47518 3.41799,-4.14536 4.16522,-5.93374 1.19769,-2.86647 1.18469,-3.61067 -0.10971,-6.28332 -2.4707,-5.10143 -7.30516,-8.66792 -11.74956,-8.66792 -3.30301,0 -4.458,0.59603 -7.98002,4.11805 -3.4788,3.4788 -4.11805,4.69881 -4.11805,7.85939 0,3.06949 0.67035,4.44603 3.73298,7.66552 3.41773,3.59277 4.13497,3.92418 8.49276,3.92418 3.94501,0 5.24018,-0.45911 7.56638,-2.68216 z M -16.372961,810.83366 c 3.574325,-3.57432 4.118048,-4.64867 4.118048,-8.13687 0,-3.48819 -0.543723,-4.56254 -4.118048,-8.13686 -4.547677,-4.54768 -7.905336,-5.26116 -12.813871,-2.72285 -4.464314,2.30859 -6.635221,5.85606 -6.635221,10.84261 0,4.74235 1.626608,7.42627 6.414342,10.58372 4.477164,2.95264 8.379847,2.22516 13.03475,-2.42975 z m 839.829901,0.22724 c 3.83758,-3.53735 4.21966,-4.28666 4.20597,-8.24849 -0.0326,-9.42467 -10.62738,-15.62306 -17.53317,-10.2576 -4.83357,3.75542 -5.95458,5.6759 -5.98755,10.2576 -0.0286,3.97058 0.34361,4.70333 4.18966,8.24849 3.29111,3.03365 4.95717,3.89081 7.56254,3.89081 2.60538,0 4.27143,-0.85716 7.56255,-3.89081 z M -17.851977,616.93651 c 3.614027,-3.13443 5.584212,-6.78804 5.590853,-10.36795 0.005,-2.6693 -0.788927,-4.15213 -3.911404,-7.30582 -5.568507,-5.62417 -10.387806,-5.74586 -16.024425,-0.40462 -3.295932,3.12321 -3.6251,3.87832 -3.6251,8.31596 0,4.49867 0.295465,5.14777 3.773458,8.28993 3.115573,2.81473 4.487425,3.40909 7.868588,3.40909 2.778154,0 4.81322,-0.62279 6.32803,-1.93659 z m 841.869507,-1.83523 c 3.20314,-3.3006 3.66043,-4.3281 3.66043,-8.22455 0,-3.95178 -0.39771,-4.81037 -3.53507,-7.63166 -6.64549,-5.97599 -10.01633,-6.00088 -16.19882,-0.11962 -3.38393,3.21905 -3.83325,4.14801 -3.83325,7.92524 0,3.69437 0.49996,4.79394 3.66043,8.05059 3.25495,3.35399 4.15479,3.77182 8.12314,3.77182 3.96836,0 4.8682,-0.41783 8.12314,-3.77182 z M -16.026903,521.55592 c 3.021056,-3.02105 3.770753,-4.45368 3.765779,-7.19616 -0.01165,-6.42258 -6.003077,-12.36207 -12.481657,-12.37346 -2.739524,-0.005 -4.379303,0.75895 -7.305814,3.40288 -3.486029,3.14941 -3.773458,3.78413 -3.773458,8.3327 0,4.4519 0.324851,5.21922 3.390702,8.00908 6.172201,5.61658 10.660727,5.56868 16.404448,-0.17504 z m 840.336553,0.15466 c 2.94583,-2.68064 3.36831,-3.61823 3.36831,-7.47516 0,-7.78093 -7.2483,-13.7163 -14.52123,-11.89091 -1.2533,0.31455 -3.80133,2.05059 -5.66232,3.85784 -2.93114,2.84653 -3.38359,3.87474 -3.38359,7.68945 0,3.9478 0.40062,4.7734 3.87078,7.97703 5.84046,5.39189 10.27612,5.34889 16.32805,-0.15825 z M -21.401092,330.08039 c 5.013031,-2.09459 9.146179,-7.54797 9.146179,-12.0677 0,-3.20274 -0.604115,-4.45296 -3.598697,-7.44755 -6.049231,-6.04923 -10.829978,-6.11431 -16.549945,-0.22533 -3.021198,3.11048 -3.418498,4.07741 -3.418498,8.31974 0,4.00852 0.427563,5.20817 2.592385,7.27369 2.118121,2.02096 7.417143,5.39098 8.514449,5.41494 0.146272,0.003 1.637629,-0.56731 3.314127,-1.26779 z m 840.150852,0.32054 c 1.37872,-0.52419 3.95158,-2.44085 5.71748,-4.25924 2.75754,-2.83951 3.21072,-3.95209 3.21072,-7.88238 0,-4.21254 -0.33545,-4.88543 -4.22102,-8.46703 -3.29112,-3.03364 -4.95717,-3.8908 -7.56255,-3.8908 -2.60537,0 -4.27143,0.85716 -7.56254,3.8908 -3.89023,3.58588 -4.22103,4.25095 -4.22103,8.48624 0,4.0801 0.39642,4.97497 3.53507,7.98008 5.10034,4.88331 7.14686,5.64677 11.10387,4.14233 z M 160.83233,149.19752 c 4.90345,-4.30529 6.23321,-7.82351 4.51306,-11.94044 -0.7391,-1.7689 -2.60679,-4.42316 -4.15043,-5.89834 -6.90343,-6.59728 -19.7666,-0.44643 -19.78591,9.46112 -0.005,2.5113 0.86768,4.06166 4.11184,7.30582 3.52202,3.52202 4.67701,4.11805 7.98002,4.11805 3.00832,0 4.62888,-0.67335 7.33142,-3.04621 z m 196.33461,-0.83544 c 5.25145,-5.25144 5.39728,-9.62886 0.51914,-15.58199 -3.20125,-3.90671 -3.60288,-4.1035 -8.37448,-4.1035 -4.65167,0 -5.25704,0.27126 -8.42106,3.77345 -2.86384,3.16994 -3.40909,4.45898 -3.40909,8.05956 0,3.5679 0.51337,4.80826 3.06373,7.40234 3.58042,3.64181 4.70823,4.15722 9.31594,4.25736 2.80458,0.061 4.12655,-0.62794 7.30582,-3.80722 z m 91.20517,1.91896 c 4.46425,-2.75906 6.00235,-5.35784 6.00235,-10.14154 0,-3.55594 -0.51878,-4.66202 -3.65983,-7.80308 -3.25781,-3.2578 -4.16846,-3.65983 -8.28993,-3.65983 -4.14806,0 -4.98828,0.378 -8.07065,3.63083 -5.77517,6.09454 -5.55076,10.80711 0.79982,16.79648 3.99251,3.76542 8.39582,4.15755 13.21824,1.17714 z m 197.85307,-2.14644 c 5.76965,-5.60759 5.85036,-9.25579 0.33709,-15.23699 -3.61694,-3.92391 -4.2244,-4.22102 -8.63014,-4.22102 -4.28253,0 -5.07636,0.35429 -8.23606,3.67584 -4.96386,5.21809 -5.48429,9.90457 -1.59143,14.33086 3.41173,3.87922 6.53124,5.56044 10.31746,5.56044 2.94504,0 4.32038,-0.72426 7.80308,-4.10913 z"
         id="path12"
         transform="scale(0.26458333)" /></g></g></svg>
