<?xml version="1.0" encoding="UTF-8" standalone="no"?>
<!-- Created with Inkscape (http://www.inkscape.org/) -->

<svg
   width="334.90085mm"
   height="334.90085mm"
   viewBox="0 0 334.90084 334.90084"
   version="1.1"
   id="svg1"
   xml:space="preserve"
   sodipodi:docname="MJ_Neon_Gold.svg"
   inkscape:version="1.3.2 (091e20e, 2023-11-25, custom)"
   inkscape:export-filename="MJ_Neon_Gold.png"
   inkscape:export-xdpi="96"
   inkscape:export-ydpi="96"
   xmlns:inkscape="http://www.inkscape.org/namespaces/inkscape"
   xmlns:sodipodi="http://sodipodi.sourceforge.net/DTD/sodipodi-0.dtd"
   xmlns="http://www.w3.org/2000/svg"
   xmlns:svg="http://www.w3.org/2000/svg"><sodipodi:namedview
     id="namedview1"
     pagecolor="#505050"
     bordercolor="#eeeeee"
     borderopacity="1"
     inkscape:showpageshadow="0"
     inkscape:pageopacity="0"
     inkscape:pagecheckerboard="0"
     inkscape:deskcolor="#505050"
     inkscape:document-units="mm"
     inkscape:zoom="0.5"
     inkscape:cx="615"
     inkscape:cy="610"
     inkscape:window-width="1920"
     inkscape:window-height="1051"
     inkscape:window-x="-9"
     inkscape:window-y="-9"
     inkscape:window-maximized="1"
     inkscape:current-layer="g22" /><defs
     id="defs1"><filter
       inkscape:collect="always"
       style="color-interpolation-filters:sRGB"
       id="filter20"
       x="-0.061092847"
       y="-0.051879477"
       width="1.1221857"
       height="1.103759"><feGaussianBlur
         inkscape:collect="always"
         stdDeviation="5.8148072"
         id="feGaussianBlur20" /></filter><filter
       inkscape:collect="always"
       style="color-interpolation-filters:sRGB"
       id="filter21"
       x="-0.090490333"
       y="-0.07684355"
       width="1.1809807"
       height="1.1536871"><feGaussianBlur
         inkscape:collect="always"
         stdDeviation="9.0856362"
         id="feGaussianBlur21" /></filter><filter
       inkscape:collect="always"
       style="color-interpolation-filters:sRGB"
       id="filter29"
       x="-0.015292271"
       y="-0.015292271"
       width="1.0305845"
       height="1.0305845"><feGaussianBlur
         inkscape:collect="always"
         stdDeviation="1.5187083"
         id="feGaussianBlur29" /></filter><filter
       inkscape:collect="always"
       style="color-interpolation-filters:sRGB"
       id="filter30"
       x="-0.030292271"
       y="-0.030292271"
       width="1.0605845"
       height="1.0605845"><feGaussianBlur
         inkscape:collect="always"
         stdDeviation="3.4170938"
         id="feGaussianBlur30" /></filter><filter
       inkscape:collect="always"
       style="color-interpolation-filters:sRGB"
       id="filter31"
       x="-0.051292272"
       y="-0.051292272"
       width="1.1025845"
       height="1.1025845"><feGaussianBlur
         inkscape:collect="always"
         stdDeviation="6.0748334"
         id="feGaussianBlur31" /></filter></defs><g
     inkscape:label="Layer 1"
     inkscape:groupmode="layer"
     id="layer1"
     transform="translate(61.617342,21.199259)"><g
       id="g22"
       inkscape:groupmode="layer"
       inkscape:label="Icon"><g
         inkscape:label="Layer 1"
         id="g7"
         transform="matrix(0.69053906,0,0,0.69053906,32.534884,45.894705)"
         style="fill:none;stroke:#beb419;stroke-opacity:1;filter:url(#filter21)"><g
           id="g5"
           transform="translate(-1.1602672,11.7052)"
           style="display:none;fill:none;stroke:#beb419;stroke-opacity:1"><g
             inkscape:label="M"
             id="g3"
             style="display:inline;fill:none;stroke:#beb419;stroke-opacity:1"><flowRoot
               xml:space="preserve"
               id="flowRoot2"
               style="font-style:normal;font-weight:normal;font-size:40px;line-height:1.25;font-family:sans-serif;letter-spacing:0px;word-spacing:0px;fill:none;fill-opacity:1;stroke:#beb419;stroke-opacity:1"
               transform="matrix(0.6210663,0,0,0.58546527,-3.186284,-153.12706)"><flowRegion
                 id="flowRegion1"
                 style="fill:none;fill-opacity:1;stroke:#beb419;stroke-opacity:1"><rect
                   id="rect1"
                   width="137.74487"
                   height="236.97313"
                   x="107.07617"
                   y="379.04742"
                   style="fill:none;fill-opacity:1;stroke:#beb419;stroke-opacity:1" /></flowRegion><flowPara
                 id="flowPara2"
                 style="font-style:normal;font-variant:normal;font-weight:bold;font-stretch:normal;font-size:192px;font-family:Impact;-inkscape-font-specification:'Impact Bold';fill:none;fill-opacity:1;stroke:#beb419;stroke-opacity:1"><flowSpan
                   style="font-style:normal;font-variant:normal;font-weight:bold;font-stretch:normal;font-family:Impact;-inkscape-font-specification:'Impact Bold';fill:none;fill-opacity:1;stroke:#beb419;stroke-opacity:1"
                   id="flowSpan1">M</flowSpan><flowSpan
                   style="font-style:normal;font-variant:normal;font-weight:bold;font-stretch:normal;font-family:Impact;-inkscape-font-specification:'Impact Bold';fill:none;fill-opacity:1;stroke:#beb419;stroke-opacity:1"
                   id="flowSpan2" /></flowPara></flowRoot></g><g
             id="g4"
             inkscape:label="J"
             style="display:inline;fill:none;stroke:#beb419;stroke-opacity:1"><path
               style="fill:none;fill-opacity:1;stroke:#beb419;stroke-width:0.677844;stroke-linecap:round;stroke-linejoin:bevel;stroke-miterlimit:4;stroke-dasharray:none;stroke-opacity:1"
               d="m 83.433621,177.99175 c -1.327665,-0.17609 -3.193215,-0.45158 -4.145675,-0.6122 l -1.73174,-0.29202 v -6.19759 -6.19759 h 1.714724 c 1.466921,0 2.13702,0.15742 4.636744,1.08928 6.644498,2.47698 10.602239,3.24493 12.21746,2.37067 2.231368,-1.20778 2.419855,-4.13531 2.420975,-37.60122 8.4e-4,-24.74192 -0.01,-25.41295 -0.401967,-25.81798 -0.22157,-0.22871 -2.323258,-1.09603 -4.670435,-1.92737 l -4.267612,-1.51152 -0.06134,-1.820893 -0.06134,-1.82089 h 16.075575 16.07562 l -0.0613,1.83689 -0.0613,1.836893 -3.66851,1.52712 c -2.01768,0.83992 -3.82936,1.69317 -4.02598,1.89613 -0.33115,0.34185 -0.36396,2.17834 -0.44567,24.94838 -0.0856,23.82377 -0.10162,24.6493 -0.52569,26.85395 -1.06887,5.55741 -2.87489,9.59564 -5.93461,13.26973 -3.31396,3.97937 -7.289964,6.49663 -12.372685,7.83333 -2.332873,0.61351 -7.414163,0.77343 -10.705305,0.3369 z"
               id="path3"
               inkscape:connector-curvature="0" /></g></g><path
           style="opacity:1;fill:none;fill-opacity:1;stroke:#beb419;stroke-width:4.71608;stroke-linejoin:round;stroke-opacity:1"
           d="m 79.205492,305.657 c -0.03529,-0.0857 -0.676248,-3.97356 -1.424415,-8.63951 l -1.360302,-8.48353 5.235228,-2.68071 C 106.56009,273.101 124.37253,245.60778 128.54812,213.476 c 0.44849,-3.45121 0.87471,-35.04286 1.22052,-90.46528 0.3457,-55.405643 0.75476,-85.730638 1.17073,-86.789164 0.63466,-1.615045 6.02018,-4.269073 22.73012,-11.201589 l 4.83521,-2.006 0.005,-2.565073 c 0.003,-1.410778 0.18341,-4.460151 0.40217,-6.776378 l 0.39773,-4.2113134 h -17.87132 -17.87133 l 0.0525,-1.4037682 c 0.0288,-0.7720818 0.5202,-4.7728304 1.09182,-8.89055661 l 1.03932,-7.48677909 56.30684,-0.1592928 56.30683,-0.1592928 V 148.58724 305.81297 H 200.6181 162.87225 L 162.8057,199.90621 162.73915,93.999447 147.54211,199.75023 c -8.35836,58.16294 -15.2069,105.82098 -15.21899,105.90677 -0.0121,0.0858 -11.954,0.15597 -26.53764,0.15597 -14.58362,0 -26.544524,-0.0702 -26.579782,-0.15597 z"
           id="path5" /><path
           style="opacity:1;fill:none;fill-opacity:1;stroke:#beb419;stroke-width:4.71608;stroke-linejoin:round;stroke-opacity:1"
           d="M -28.664834,148.59056 V -8.6318508 h 55.827021 55.827031 l 0.308112,1.4037681 c 0.476418,2.1705337 2.835147,15.6476814 2.835147,16.1992487 0,0.269522 -9.264889,0.4900366 -20.58865,0.4900366 H 44.955178 l 0.0047,6.7069104 0.0047,6.70691 12.241479,4.356754 c 6.732818,2.396215 13.960099,5.203751 16.060632,6.238981 l 3.819133,1.882227 0.502045,3.431444 c 0.276111,1.887291 0.37713,45.263839 0.224464,96.392321 -0.270402,90.56187 -0.523076,102.76523 -2.338128,112.92561 -0.804298,4.50233 -2.885138,9.50186 -3.616589,8.68944 -0.286604,-0.31832 -5.924486,-35.81342 -12.528636,-78.87802 -6.60414,-43.06459 -12.118849,-78.416228 -12.254883,-78.559207 -0.136043,-0.142979 -0.247348,35.302257 -0.247348,78.767177 0,43.46493 -0.106636,79.02715 -0.236969,79.02715 -0.465318,0 -15.179875,-4.90229 -22.487069,-7.49177 -6.332896,-2.24421 -8.396233,-2.6849 -13.881749,-2.96487 l -6.4432097,-0.32885 v 22.25758 c 0,17.24492 0.1756442,22.3189 0.7798785,22.52984 2.9326287,1.02382 24.3419652,3.58591 32.4427222,3.88248 l 9.826396,0.35974 v 5.20997 5.20995 H 9.0808521 -28.665002 Z"
           id="path6" /><path
           style="opacity:1;fill:none;fill-opacity:1;stroke:#beb419;stroke-width:4.71608;stroke-linejoin:round;stroke-opacity:1"
           d="M 48.329893,294.02508 C 48.017953,293.74644 42.709149,293.19507 36.53255,292.79982 25.051921,292.06515 7.0631717,289.96537 6.3777046,289.27991 6.1680192,289.07022 5.8851128,279.78968 5.7490227,268.65649 5.5432403,251.82105 5.6453079,248.41511 6.3554659,248.41905 c 5.5047971,0.0305 12.3787871,1.65857 25.1348911,5.95297 9.895377,3.33134 14.371608,4.57644 14.676874,4.08251 0.320233,-0.51815 1.863583,-0.37971 5.696596,0.511 8.428374,1.95856 12.745827,2.15918 17.423395,0.8096 3.200278,-0.92336 4.34439,-1.59584 5.426222,-3.18942 1.776743,-2.61718 3.180754,-9.11213 3.991725,-18.46573 0.798523,-9.21011 1.514934,-197.921281 0.765016,-201.519197 -0.479142,-2.298874 -0.85427,-2.663481 -4.758941,-4.625528 -2.331333,-1.171469 -9.488857,-4.026263 -15.905607,-6.343997 L 47.138825,21.417202 V 16.531026 11.644849 L 66.769509,11.4798 c 11.829802,-0.09946 19.875,-0.409374 20.245504,-0.779878 0.838245,-0.8382365 34.473347,-0.8295132 34.991627,0.0094 0.24181,0.391255 6.73072,0.623899 17.40199,0.623899 9.35902,0 17.1334,0.116108 17.27637,0.258029 0.14297,0.141912 0.11958,2.440252 -0.052,5.107421 l -0.31195,4.849402 -10.92963,4.734727 c -12.80744,5.548179 -15.20768,6.924345 -16.10205,9.231999 -0.78296,2.020207 -1.22056,26.357193 -1.66864,92.799381 -0.47325,70.17727 -0.80705,83.54596 -2.28024,91.32537 -5.41262,28.58234 -22.44169,53.0546 -44.74253,64.29895 -2.186117,1.10227 -4.688893,2.71826 -5.561713,3.59108 -1.884782,1.88478 -10.036025,4.76771 -16.100073,5.69425 -7.373976,1.1267 -10.018579,1.32657 -10.606284,0.80158 z"
           id="path7" /></g><g
         inkscape:label="Layer 1"
         id="g12"
         transform="matrix(0.69053906,0,0,0.69053906,32.534884,45.894705)"
         style="fill:none;stroke:#beb419;stroke-opacity:1;filter:url(#filter20)"><g
           id="g10"
           transform="translate(-1.1602672,11.7052)"
           style="display:none;fill:none;stroke:#beb419;stroke-opacity:1"><g
             inkscape:label="M"
             id="g8"
             style="display:inline;fill:none;stroke:#beb419;stroke-opacity:1"><flowRoot
               xml:space="preserve"
               id="flowRoot8"
               style="font-style:normal;font-weight:normal;font-size:40px;line-height:1.25;font-family:sans-serif;letter-spacing:0px;word-spacing:0px;fill:none;fill-opacity:1;stroke:#beb419;stroke-opacity:1"
               transform="matrix(0.6210663,0,0,0.58546527,-3.186284,-153.12706)"><flowRegion
                 id="flowRegion7"
                 style="fill:none;fill-opacity:1;stroke:#beb419;stroke-opacity:1"><rect
                   id="rect7"
                   width="137.74487"
                   height="236.97313"
                   x="107.07617"
                   y="379.04742"
                   style="fill:none;fill-opacity:1;stroke:#beb419;stroke-opacity:1" /></flowRegion><flowPara
                 id="flowPara8"
                 style="font-style:normal;font-variant:normal;font-weight:bold;font-stretch:normal;font-size:192px;font-family:Impact;-inkscape-font-specification:'Impact Bold';fill:none;fill-opacity:1;stroke:#beb419;stroke-opacity:1"><flowSpan
                   style="font-style:normal;font-variant:normal;font-weight:bold;font-stretch:normal;font-family:Impact;-inkscape-font-specification:'Impact Bold';fill:none;fill-opacity:1;stroke:#beb419;stroke-opacity:1"
                   id="flowSpan7">M</flowSpan><flowSpan
                   style="font-style:normal;font-variant:normal;font-weight:bold;font-stretch:normal;font-family:Impact;-inkscape-font-specification:'Impact Bold';fill:none;fill-opacity:1;stroke:#beb419;stroke-opacity:1"
                   id="flowSpan8" /></flowPara></flowRoot></g><g
             id="g9"
             inkscape:label="J"
             style="display:inline;fill:none;stroke:#beb419;stroke-opacity:1"><path
               style="fill:none;fill-opacity:1;stroke:#beb419;stroke-width:0.677844;stroke-linecap:round;stroke-linejoin:bevel;stroke-miterlimit:4;stroke-dasharray:none;stroke-opacity:1"
               d="m 83.433621,177.99175 c -1.327665,-0.17609 -3.193215,-0.45158 -4.145675,-0.6122 l -1.73174,-0.29202 v -6.19759 -6.19759 h 1.714724 c 1.466921,0 2.13702,0.15742 4.636744,1.08928 6.644498,2.47698 10.602239,3.24493 12.21746,2.37067 2.231368,-1.20778 2.419855,-4.13531 2.420975,-37.60122 8.4e-4,-24.74192 -0.01,-25.41295 -0.401967,-25.81798 -0.22157,-0.22871 -2.323258,-1.09603 -4.670435,-1.92737 l -4.267612,-1.51152 -0.06134,-1.820893 -0.06134,-1.82089 h 16.075575 16.07562 l -0.0613,1.83689 -0.0613,1.836893 -3.66851,1.52712 c -2.01768,0.83992 -3.82936,1.69317 -4.02598,1.89613 -0.33115,0.34185 -0.36396,2.17834 -0.44567,24.94838 -0.0856,23.82377 -0.10162,24.6493 -0.52569,26.85395 -1.06887,5.55741 -2.87489,9.59564 -5.93461,13.26973 -3.31396,3.97937 -7.289964,6.49663 -12.372685,7.83333 -2.332873,0.61351 -7.414163,0.77343 -10.705305,0.3369 z"
               id="path8"
               inkscape:connector-curvature="0" /></g></g><path
           style="opacity:1;fill:none;fill-opacity:1;stroke:#beb419;stroke-width:4.71608;stroke-linejoin:round;stroke-opacity:1"
           d="m 79.205492,305.657 c -0.03529,-0.0857 -0.676248,-3.97356 -1.424415,-8.63951 l -1.360302,-8.48353 5.235228,-2.68071 C 106.56009,273.101 124.37253,245.60778 128.54812,213.476 c 0.44849,-3.45121 0.87471,-35.04286 1.22052,-90.46528 0.3457,-55.405643 0.75476,-85.730638 1.17073,-86.789164 0.63466,-1.615045 6.02018,-4.269073 22.73012,-11.201589 l 4.83521,-2.006 0.005,-2.565073 c 0.003,-1.410778 0.18341,-4.460151 0.40217,-6.776378 l 0.39773,-4.2113134 h -17.87132 -17.87133 l 0.0525,-1.4037682 c 0.0288,-0.7720818 0.5202,-4.7728304 1.09182,-8.89055661 l 1.03932,-7.48677909 56.30684,-0.1592928 56.30683,-0.1592928 V 148.58724 305.81297 H 200.6181 162.87225 L 162.8057,199.90621 162.73915,93.999447 147.54211,199.75023 c -8.35836,58.16294 -15.2069,105.82098 -15.21899,105.90677 -0.0121,0.0858 -11.954,0.15597 -26.53764,0.15597 -14.58362,0 -26.544524,-0.0702 -26.579782,-0.15597 z"
           id="path10" /><path
           style="opacity:1;fill:none;fill-opacity:1;stroke:#beb419;stroke-width:4.71608;stroke-linejoin:round;stroke-opacity:1"
           d="M -28.664834,148.59056 V -8.6318508 h 55.827021 55.827031 l 0.308112,1.4037681 c 0.476418,2.1705337 2.835147,15.6476814 2.835147,16.1992487 0,0.269522 -9.264889,0.4900366 -20.58865,0.4900366 H 44.955178 l 0.0047,6.7069104 0.0047,6.70691 12.241479,4.356754 c 6.732818,2.396215 13.960099,5.203751 16.060632,6.238981 l 3.819133,1.882227 0.502045,3.431444 c 0.276111,1.887291 0.37713,45.263839 0.224464,96.392321 -0.270402,90.56187 -0.523076,102.76523 -2.338128,112.92561 -0.804298,4.50233 -2.885138,9.50186 -3.616589,8.68944 -0.286604,-0.31832 -5.924486,-35.81342 -12.528636,-78.87802 -6.60414,-43.06459 -12.118849,-78.416228 -12.254883,-78.559207 -0.136043,-0.142979 -0.247348,35.302257 -0.247348,78.767177 0,43.46493 -0.106636,79.02715 -0.236969,79.02715 -0.465318,0 -15.179875,-4.90229 -22.487069,-7.49177 -6.332896,-2.24421 -8.396233,-2.6849 -13.881749,-2.96487 l -6.4432097,-0.32885 v 22.25758 c 0,17.24492 0.1756442,22.3189 0.7798785,22.52984 2.9326287,1.02382 24.3419652,3.58591 32.4427222,3.88248 l 9.826396,0.35974 v 5.20997 5.20995 H 9.0808521 -28.665002 Z"
           id="path11" /><path
           style="opacity:1;fill:none;fill-opacity:1;stroke:#beb419;stroke-width:4.71608;stroke-linejoin:round;stroke-opacity:1"
           d="M 48.329893,294.02508 C 48.017953,293.74644 42.709149,293.19507 36.53255,292.79982 25.051921,292.06515 7.0631717,289.96537 6.3777046,289.27991 6.1680192,289.07022 5.8851128,279.78968 5.7490227,268.65649 5.5432403,251.82105 5.6453079,248.41511 6.3554659,248.41905 c 5.5047971,0.0305 12.3787871,1.65857 25.1348911,5.95297 9.895377,3.33134 14.371608,4.57644 14.676874,4.08251 0.320233,-0.51815 1.863583,-0.37971 5.696596,0.511 8.428374,1.95856 12.745827,2.15918 17.423395,0.8096 3.200278,-0.92336 4.34439,-1.59584 5.426222,-3.18942 1.776743,-2.61718 3.180754,-9.11213 3.991725,-18.46573 0.798523,-9.21011 1.514934,-197.921281 0.765016,-201.519197 -0.479142,-2.298874 -0.85427,-2.663481 -4.758941,-4.625528 -2.331333,-1.171469 -9.488857,-4.026263 -15.905607,-6.343997 L 47.138825,21.417202 V 16.531026 11.644849 L 66.769509,11.4798 c 11.829802,-0.09946 19.875,-0.409374 20.245504,-0.779878 0.838245,-0.8382365 34.473347,-0.8295132 34.991627,0.0094 0.24181,0.391255 6.73072,0.623899 17.40199,0.623899 9.35902,0 17.1334,0.116108 17.27637,0.258029 0.14297,0.141912 0.11958,2.440252 -0.052,5.107421 l -0.31195,4.849402 -10.92963,4.734727 c -12.80744,5.548179 -15.20768,6.924345 -16.10205,9.231999 -0.78296,2.020207 -1.22056,26.357193 -1.66864,92.799381 -0.47325,70.17727 -0.80705,83.54596 -2.28024,91.32537 -5.41262,28.58234 -22.44169,53.0546 -44.74253,64.29895 -2.186117,1.10227 -4.688893,2.71826 -5.561713,3.59108 -1.884782,1.88478 -10.036025,4.76771 -16.100073,5.69425 -7.373976,1.1267 -10.018579,1.32657 -10.606284,0.80158 z"
           id="path12" /></g><g
         inkscape:label="Layer 1"
         id="g20"
         transform="matrix(0.69053906,0,0,0.69053906,32.534884,45.894705)"
         style="fill:none;stroke:#bee61e;stroke-width:2.89629;stroke-dasharray:none;stroke-opacity:1"><g
           id="g15"
           transform="translate(-1.1602672,11.7052)"
           style="display:none;fill:none;stroke:#bee61e;stroke-width:2.89629;stroke-dasharray:none;stroke-opacity:1"><g
             inkscape:label="M"
             id="g13"
             style="display:inline;fill:none;stroke:#bee61e;stroke-width:2.89629;stroke-dasharray:none;stroke-opacity:1"><flowRoot
               xml:space="preserve"
               id="flowRoot13"
               style="font-style:normal;font-weight:normal;font-size:40px;line-height:1.25;font-family:sans-serif;letter-spacing:0px;word-spacing:0px;fill:none;fill-opacity:1;stroke:#bee61e;stroke-width:4.80311;stroke-dasharray:none;stroke-opacity:1"
               transform="matrix(0.6210663,0,0,0.58546527,-3.186284,-153.12706)"><flowRegion
                 id="flowRegion12"
                 style="fill:none;fill-opacity:1;stroke:#bee61e;stroke-width:4.80311;stroke-dasharray:none;stroke-opacity:1"><rect
                   id="rect12"
                   width="137.74487"
                   height="236.97313"
                   x="107.07617"
                   y="379.04742"
                   style="fill:none;fill-opacity:1;stroke:#bee61e;stroke-opacity:1;stroke-width:4.80310627;stroke-dasharray:none" /></flowRegion><flowPara
                 id="flowPara13"
                 style="font-style:normal;font-variant:normal;font-weight:bold;font-stretch:normal;font-size:192px;font-family:Impact;-inkscape-font-specification:'Impact Bold';fill:none;fill-opacity:1;stroke:#bee61e;stroke-width:4.80311;stroke-dasharray:none;stroke-opacity:1"><flowSpan
                   style="font-style:normal;font-variant:normal;font-weight:bold;font-stretch:normal;font-family:Impact;-inkscape-font-specification:'Impact Bold';fill:none;fill-opacity:1;stroke:#bee61e;stroke-width:4.80311;stroke-dasharray:none;stroke-opacity:1"
                   id="flowSpan12">M</flowSpan><flowSpan
                   style="font-style:normal;font-variant:normal;font-weight:bold;font-stretch:normal;font-family:Impact;-inkscape-font-specification:'Impact Bold';fill:none;fill-opacity:1;stroke:#bee61e;stroke-width:4.80311;stroke-dasharray:none;stroke-opacity:1"
                   id="flowSpan13" /></flowPara></flowRoot></g><g
             id="g14"
             inkscape:label="J"
             style="display:inline;fill:none;stroke:#bee61e;stroke-width:2.89629;stroke-dasharray:none;stroke-opacity:1"><path
               style="fill:none;fill-opacity:1;stroke:#bee61e;stroke-width:2.89629;stroke-linecap:round;stroke-linejoin:bevel;stroke-miterlimit:4;stroke-dasharray:none;stroke-opacity:1"
               d="m 83.433621,177.99175 c -1.327665,-0.17609 -3.193215,-0.45158 -4.145675,-0.6122 l -1.73174,-0.29202 v -6.19759 -6.19759 h 1.714724 c 1.466921,0 2.13702,0.15742 4.636744,1.08928 6.644498,2.47698 10.602239,3.24493 12.21746,2.37067 2.231368,-1.20778 2.419855,-4.13531 2.420975,-37.60122 8.4e-4,-24.74192 -0.01,-25.41295 -0.401967,-25.81798 -0.22157,-0.22871 -2.323258,-1.09603 -4.670435,-1.92737 l -4.267612,-1.51152 -0.06134,-1.820893 -0.06134,-1.82089 h 16.075575 16.07562 l -0.0613,1.83689 -0.0613,1.836893 -3.66851,1.52712 c -2.01768,0.83992 -3.82936,1.69317 -4.02598,1.89613 -0.33115,0.34185 -0.36396,2.17834 -0.44567,24.94838 -0.0856,23.82377 -0.10162,24.6493 -0.52569,26.85395 -1.06887,5.55741 -2.87489,9.59564 -5.93461,13.26973 -3.31396,3.97937 -7.289964,6.49663 -12.372685,7.83333 -2.332873,0.61351 -7.414163,0.77343 -10.705305,0.3369 z"
               id="path13"
               inkscape:connector-curvature="0" /></g></g><path
           style="opacity:1;fill:none;fill-opacity:1;stroke:#bee61e;stroke-width:2.89629;stroke-linejoin:round;stroke-dasharray:none;stroke-opacity:1"
           d="m 79.205492,305.657 c -0.03529,-0.0857 -0.676248,-3.97356 -1.424415,-8.63951 l -1.360302,-8.48353 5.235228,-2.68071 C 106.56009,273.101 124.37253,245.60778 128.54812,213.476 c 0.44849,-3.45121 0.87471,-35.04286 1.22052,-90.46528 0.3457,-55.405643 0.75476,-85.730638 1.17073,-86.789164 0.63466,-1.615045 6.02018,-4.269073 22.73012,-11.201589 l 4.83521,-2.006 0.005,-2.565073 c 0.003,-1.410778 0.18341,-4.460151 0.40217,-6.776378 l 0.39773,-4.2113134 h -17.87132 -17.87133 l 0.0525,-1.4037682 c 0.0288,-0.7720818 0.5202,-4.7728304 1.09182,-8.89055661 l 1.03932,-7.48677909 56.30684,-0.1592928 56.30683,-0.1592928 V 148.58724 305.81297 H 200.6181 162.87225 L 162.8057,199.90621 162.73915,93.999447 147.54211,199.75023 c -8.35836,58.16294 -15.2069,105.82098 -15.21899,105.90677 -0.0121,0.0858 -11.954,0.15597 -26.53764,0.15597 -14.58362,0 -26.544524,-0.0702 -26.579782,-0.15597 z"
           id="path15" /><path
           style="opacity:1;fill:none;fill-opacity:1;stroke:#bee61e;stroke-width:2.89629;stroke-linejoin:round;stroke-dasharray:none;stroke-opacity:1"
           d="M -28.664834,148.59056 V -8.6318508 h 55.827021 55.827031 l 0.308112,1.4037681 c 0.476418,2.1705337 2.835147,15.6476814 2.835147,16.1992487 0,0.269522 -9.264889,0.4900366 -20.58865,0.4900366 H 44.955178 l 0.0047,6.7069104 0.0047,6.70691 12.241479,4.356754 c 6.732818,2.396215 13.960099,5.203751 16.060632,6.238981 l 3.819133,1.882227 0.502045,3.431444 c 0.276111,1.887291 0.37713,45.263839 0.224464,96.392321 -0.270402,90.56187 -0.523076,102.76523 -2.338128,112.92561 -0.804298,4.50233 -2.885138,9.50186 -3.616589,8.68944 -0.286604,-0.31832 -5.924486,-35.81342 -12.528636,-78.87802 -6.60414,-43.06459 -12.118849,-78.416228 -12.254883,-78.559207 -0.136043,-0.142979 -0.247348,35.302257 -0.247348,78.767177 0,43.46493 -0.106636,79.02715 -0.236969,79.02715 -0.465318,0 -15.179875,-4.90229 -22.487069,-7.49177 -6.332896,-2.24421 -8.396233,-2.6849 -13.881749,-2.96487 l -6.4432097,-0.32885 v 22.25758 c 0,17.24492 0.1756442,22.3189 0.7798785,22.52984 2.9326287,1.02382 24.3419652,3.58591 32.4427222,3.88248 l 9.826396,0.35974 v 5.20997 5.20995 H 9.0808521 -28.665002 Z"
           id="path19" /><path
           style="opacity:1;fill:none;fill-opacity:1;stroke:#bee61e;stroke-width:2.89629;stroke-linejoin:round;stroke-dasharray:none;stroke-opacity:1"
           d="M 48.329893,294.02508 C 48.017953,293.74644 42.709149,293.19507 36.53255,292.79982 25.051921,292.06515 7.0631717,289.96537 6.3777046,289.27991 6.1680192,289.07022 5.8851128,279.78968 5.7490227,268.65649 5.5432403,251.82105 5.6453079,248.41511 6.3554659,248.41905 c 5.5047971,0.0305 12.3787871,1.65857 25.1348911,5.95297 9.895377,3.33134 14.371608,4.57644 14.676874,4.08251 0.320233,-0.51815 1.863583,-0.37971 5.696596,0.511 8.428374,1.95856 12.745827,2.15918 17.423395,0.8096 3.200278,-0.92336 4.34439,-1.59584 5.426222,-3.18942 1.776743,-2.61718 3.180754,-9.11213 3.991725,-18.46573 0.798523,-9.21011 1.514934,-197.921281 0.765016,-201.519197 -0.479142,-2.298874 -0.85427,-2.663481 -4.758941,-4.625528 -2.331333,-1.171469 -9.488857,-4.026263 -15.905607,-6.343997 L 47.138825,21.417202 V 16.531026 11.644849 L 66.769509,11.4798 c 11.829802,-0.09946 19.875,-0.409374 20.245504,-0.779878 0.838245,-0.8382365 34.473347,-0.8295132 34.991627,0.0094 0.24181,0.391255 6.73072,0.623899 17.40199,0.623899 9.35902,0 17.1334,0.116108 17.27637,0.258029 0.14297,0.141912 0.11958,2.440252 -0.052,5.107421 l -0.31195,4.849402 -10.92963,4.734727 c -12.80744,5.548179 -15.20768,6.924345 -16.10205,9.231999 -0.78296,2.020207 -1.22056,26.357193 -1.66864,92.799381 -0.47325,70.17727 -0.80705,83.54596 -2.28024,91.32537 -5.41262,28.58234 -22.44169,53.0546 -44.74253,64.29895 -2.186117,1.10227 -4.688893,2.71826 -5.561713,3.59108 -1.884782,1.88478 -10.036025,4.76771 -16.100073,5.69425 -7.373976,1.1267 -10.018579,1.32657 -10.606284,0.80158 z"
           id="path20" /></g></g><g
       id="g31"
       inkscape:groupmode="layer"
       inkscape:label="Frame"><circle
         style="display:inline;fill:none;stroke:#c0b41e;stroke-width:2;stroke-linecap:round;stroke-linejoin:round;stroke-dasharray:none;stroke-opacity:1;paint-order:stroke markers fill;filter:url(#filter31)"
         id="circle27"
         cx="105.83309"
         cy="146.25117"
         r="151.87083" /><circle
         style="display:inline;fill:none;stroke:#c0b41e;stroke-width:2;stroke-linecap:round;stroke-linejoin:round;stroke-dasharray:none;stroke-opacity:1;paint-order:stroke markers fill;filter:url(#filter30)"
         id="circle28"
         cx="105.83309"
         cy="146.25117"
         r="151.87083" /><circle
         style="display:inline;fill:none;stroke:#c0b41e;stroke-width:2;stroke-linecap:round;stroke-linejoin:round;stroke-dasharray:none;stroke-opacity:1;paint-order:stroke markers fill;filter:url(#filter29)"
         id="circle29"
         cx="105.83309"
         cy="146.25117"
         r="151.87083" /><circle
         style="display:inline;fill:none;stroke:#c0e31e;stroke-width:2;stroke-linecap:round;stroke-linejoin:round;stroke-dasharray:none;stroke-opacity:1;paint-order:stroke markers fill"
         id="circle24"
         cx="105.83309"
         cy="146.25117"
         r="151.87083" /></g></g></svg>
