<?xml version="1.0" encoding="UTF-8" standalone="no"?>
<!-- Created with Inkscape (http://www.inkscape.org/) -->

<svg
   width="363.88876mm"
   height="363.63519mm"
   viewBox="0 0 363.88877 363.63519"
   version="1.1"
   id="svg1"
   xml:space="preserve"
   inkscape:export-filename="Phone_icon.svg"
   inkscape:export-xdpi="96"
   inkscape:export-ydpi="96"
   xmlns:inkscape="http://www.inkscape.org/namespaces/inkscape"
   xmlns:sodipodi="http://sodipodi.sourceforge.net/DTD/sodipodi-0.dtd"
   xmlns="http://www.w3.org/2000/svg"
   xmlns:svg="http://www.w3.org/2000/svg"><sodipodi:namedview
     id="namedview1"
     pagecolor="#505050"
     bordercolor="#eeeeee"
     borderopacity="1"
     inkscape:showpageshadow="0"
     inkscape:pageopacity="0"
     inkscape:pagecheckerboard="0"
     inkscape:deskcolor="#505050"
     inkscape:document-units="mm" /><defs
     id="defs1"><filter
       inkscape:collect="always"
       style="color-interpolation-filters:sRGB"
       id="filter25"
       x="-0.11563663"
       y="-0.11577979"
       width="1.2312919"
       height="1.2315393"><feGaussianBlur
         inkscape:collect="always"
         stdDeviation="11.697233"
         id="feGaussianBlur25" /></filter><filter
       inkscape:collect="always"
       style="color-interpolation-filters:sRGB"
       id="filter26"
       x="-0.055666405"
       y="-0.055749986"
       width="1.1113514"
       height="1.1114797"><feGaussianBlur
         inkscape:collect="always"
         stdDeviation="5.1987703"
         id="feGaussianBlur26" /></filter><filter
       inkscape:collect="always"
       style="color-interpolation-filters:sRGB"
       id="filter33"
       x="-0.019684269"
       y="-0.019732101"
       width="1.0393872"
       height="1.0394439"><feGaussianBlur
         inkscape:collect="always"
         stdDeviation="1.2996926"
         id="feGaussianBlur33" /></filter><filter
       inkscape:collect="always"
       style="color-interpolation-filters:sRGB"
       id="filter34"
       x="-0.19959493"
       y="-0.19982151"
       width="1.3992085"
       height="1.3996227"><feGaussianBlur
         inkscape:collect="always"
         stdDeviation="20.795081"
         id="feGaussianBlur34" /></filter></defs><g
     inkscape:label="Layer 1"
     inkscape:groupmode="layer"
     id="layer1"
     transform="translate(81.434689,5.6580124)"><g
       id="g34"
       inkscape:groupmode="layer"
       inkscape:label="Phone_icon"><g
         id="g33"
         style="fill:none;fill-opacity:1;stroke:#beb419;stroke-width:4;stroke-dasharray:none;stroke-opacity:1;filter:url(#filter34)"><path
           style="opacity:0.5;fill:none;fill-opacity:1;stroke:#beb419;stroke-width:15.1181;stroke-linecap:round;stroke-linejoin:round;stroke-dasharray:none;stroke-opacity:1;paint-order:stroke markers fill"
           d="M 765.51383,1022.5509 C 681.62595,1006.515 552.74581,923.00202 404.99173,788.93656 375.11203,761.82505 302.57285,689.23126 274.73367,658.58043 144.51333,515.20838 62.407487,388.97401 44.513757,304.62678 c -1.563878,-7.3718 -2.417534,-17.15546 -2.442767,-27.99634 -0.04601,-19.76646 2.755562,-30.7623 11.053321,-43.38302 3.25433,-4.94977 30.027073,-32.6244 71.036749,-73.42978 74.00938,-73.640672 70.06759,-70.549366 89.81092,-70.433308 12.90405,0.07585 23.94417,3.437972 41.81709,12.734818 58.98855,30.68371 145.61493,117.79085 172.88524,173.84472 8.46897,17.40789 11.27268,27.58484 11.25506,40.85377 -0.0222,16.75388 -1.83121,19.35352 -40.70887,58.5018 -38.65209,38.92116 -36.28801,34.75229 -31.35439,55.29084 19.41962,80.84354 133.15569,206.44382 229.94473,253.93109 21.62075,10.60771 34.6883,14.77485 49.1655,15.67845 l 11.7262,0.7319 34.28597,-34.11951 c 39.28159,-39.09089 40.6033,-39.99789 58.22421,-39.95487 28.64863,0.0699 69.75937,24.48017 121.49758,72.14134 67.1536,61.86182 109.53611,126.19436 105.10033,159.53212 -1.97201,14.82089 -1.69187,14.49276 -73.65483,86.27217 -69.27694,69.10023 -70.47911,70.15233 -86.86535,76.02213 -9.70214,3.4754 -37.69501,4.3977 -51.77662,1.7058 z m 92.08172,-116.39619 58.42965,-58.38566 -4.11898,-7.83031 c -11.78597,-22.40549 -35.6693,-52.40994 -65.3237,-82.06567 -29.9839,-29.98525 -58.09259,-52.60239 -80.24401,-64.56688 l -9.27451,-5.00938 -30.24428,29.8286 c -32.6355,32.18696 -38.50209,36.49257 -55.03178,40.3889 -11.10665,2.61801 -31.95787,2.60054 -44.92623,-0.0377 C 583.01439,749.55659 531.60233,721.15205 475.2711,674.72469 454.14297,657.3112 406.89355,609.69695 388.97927,587.7666 343.91686,532.60195 315.14692,480.25977 307.37834,439.30712 c -2.68984,-14.17963 -2.6778,-34.00904 0.027,-44.4997 4.2134,-16.34179 8.49554,-22.11517 40.50878,-54.6159 l 29.97025,-30.42661 -4.9748,-9.56815 C 352.9887,261.88244 290.47968,196.15349 245.3853,166.10351 c -14.49485,-9.65907 -23.40101,-14.78999 -25.67216,-14.78999 -0.98066,0 -27.72032,25.96266 -59.42147,57.69481 l -57.63844,57.69481 v 9.54256 c 0,55.86932 70.94272,173.81688 181.72025,302.12345 55.88803,64.73155 129.97789,139.25007 195.2985,196.42844 129.03192,112.94804 253.64348,189.30973 309.52662,189.67723 l 9.9673,0.0656 z"
           id="path30"
           transform="matrix(0.26458333,0,0,0.26458333,-40.657654,35.10334)" /><path
           style="opacity:0.5;fill:none;fill-opacity:1;stroke:#beb419;stroke-width:15.1181;stroke-linecap:round;stroke-linejoin:round;stroke-dasharray:none;stroke-opacity:1;paint-order:stroke markers fill"
           d="m 741.77419,505.82842 c -6.36618,-1.8475 -16.04256,-11.1235 -18.34248,-17.58348 -1.10468,-3.10281 -2.35919,-11.45032 -2.78783,-18.55003 -2.76285,-45.76227 -28.05666,-86.08574 -68.01692,-108.4328 -16.54424,-9.25206 -34.83856,-14.30091 -58.03815,-16.01731 -15.75783,-1.16583 -21.29044,-3.32006 -27.94624,-10.88146 -13.22184,-15.0208 -8.35176,-37.37856 10.12729,-46.49281 4.1608,-2.05219 7.74971,-2.49924 18.62478,-2.31994 34.84873,0.57456 70.79591,11.95701 101.09664,32.01163 17.48627,11.57333 41.20698,35.1511 52.56197,52.24525 20.51754,30.88774 31.87459,66.28527 32.33762,100.78958 0.15802,11.77587 -0.24867,14.68103 -2.79021,19.93115 -6.25708,12.92538 -22.194,19.54668 -36.82647,15.30022 z"
           id="path31"
           transform="matrix(0.26458333,0,0,0.26458333,-40.657654,35.10334)" /><path
           style="opacity:0.5;fill:none;fill-opacity:1;stroke:#beb419;stroke-width:15.1181;stroke-linecap:round;stroke-linejoin:round;stroke-dasharray:none;stroke-opacity:1;paint-order:stroke markers fill"
           d="m 866.98954,465.80906 c -7.75998,-1.43542 -15.964,-7.25841 -20.05028,-14.23111 -3.0668,-5.2331 -3.58017,-7.98475 -4.51294,-24.18906 -1.89313,-32.88785 -9.6014,-61.62226 -24.00758,-89.49396 -28.41876,-54.98183 -81.40892,-95.90722 -141.17408,-109.03161 -15.1406,-3.32486 -33.37073,-5.55032 -45.50846,-5.55547 -17.497,-0.007 -30.18567,-11.03992 -31.54464,-27.4273 -0.82904,-9.99714 2.33007,-17.7787 9.93553,-24.4733 8.85771,-7.79687 15.83133,-9.00706 40.29522,-6.99277 67.96668,5.59618 125.696,32.11788 172.88919,79.42782 31.93128,32.01027 52.62139,65.49828 66.47086,107.58643 7.22036,21.94254 10.89839,40.53064 12.91114,65.25082 1.90572,23.40557 0.6487,30.89967 -6.51253,38.82629 -8.05359,8.91436 -17.90408,12.39113 -29.19143,10.30322 z"
           id="path32"
           transform="matrix(0.26458333,0,0,0.26458333,-40.657654,35.10334)" /><path
           style="opacity:0.5;fill:none;fill-opacity:1;stroke:#beb419;stroke-width:15.1181;stroke-linecap:round;stroke-linejoin:round;stroke-dasharray:none;stroke-opacity:1;paint-order:stroke markers fill"
           d="m 981.6176,422.69645 c -12.72257,-5.92354 -17.74381,-16.82245 -17.74381,-38.51403 0,-22.94564 -5.85482,-54.88828 -15.17043,-82.76666 C 920.92773,218.29292 855.25995,150.63258 772.56551,119.9333 744.45673,109.49827 705.3012,102.04842 677.91123,101.92408 660.0982,101.84322 649.46726,96.870729 643.9387,86.033847 c -6.48173,-12.705243 -4.58479,-24.939792 5.41774,-34.942321 8.60262,-8.602617 13.11725,-9.629096 37.88691,-8.614246 88.69969,3.634158 170.33519,39.707395 234.05038,103.42259 63.61811,63.61811 99.40507,144.61921 103.40527,234.05038 0.9865,22.05483 -0.1774,27.78218 -7.2373,35.61263 -9.5311,10.57144 -22.79195,13.21056 -35.8441,7.13357 z"
           id="path33"
           transform="matrix(0.26458333,0,0,0.26458333,-40.657654,35.10334)" /></g><g
         id="g29"
         style="display:inline;fill:none;fill-opacity:1;stroke:#beb419;stroke-width:4;stroke-dasharray:none;stroke-opacity:1;filter:url(#filter33)"><path
           style="opacity:0.5;fill:none;fill-opacity:1;stroke:#beb419;stroke-width:15.1181;stroke-linecap:round;stroke-linejoin:round;stroke-dasharray:none;stroke-opacity:1;paint-order:stroke markers fill"
           d="M 765.51383,1022.5509 C 681.62595,1006.515 552.74581,923.00202 404.99173,788.93656 375.11203,761.82505 302.57285,689.23126 274.73367,658.58043 144.51333,515.20838 62.407487,388.97401 44.513757,304.62678 c -1.563878,-7.3718 -2.417534,-17.15546 -2.442767,-27.99634 -0.04601,-19.76646 2.755562,-30.7623 11.053321,-43.38302 3.25433,-4.94977 30.027073,-32.6244 71.036749,-73.42978 74.00938,-73.640672 70.06759,-70.549366 89.81092,-70.433308 12.90405,0.07585 23.94417,3.437972 41.81709,12.734818 58.98855,30.68371 145.61493,117.79085 172.88524,173.84472 8.46897,17.40789 11.27268,27.58484 11.25506,40.85377 -0.0222,16.75388 -1.83121,19.35352 -40.70887,58.5018 -38.65209,38.92116 -36.28801,34.75229 -31.35439,55.29084 19.41962,80.84354 133.15569,206.44382 229.94473,253.93109 21.62075,10.60771 34.6883,14.77485 49.1655,15.67845 l 11.7262,0.7319 34.28597,-34.11951 c 39.28159,-39.09089 40.6033,-39.99789 58.22421,-39.95487 28.64863,0.0699 69.75937,24.48017 121.49758,72.14134 67.1536,61.86182 109.53611,126.19436 105.10033,159.53212 -1.97201,14.82089 -1.69187,14.49276 -73.65483,86.27217 -69.27694,69.10023 -70.47911,70.15233 -86.86535,76.02213 -9.70214,3.4754 -37.69501,4.3977 -51.77662,1.7058 z m 92.08172,-116.39619 58.42965,-58.38566 -4.11898,-7.83031 c -11.78597,-22.40549 -35.6693,-52.40994 -65.3237,-82.06567 -29.9839,-29.98525 -58.09259,-52.60239 -80.24401,-64.56688 l -9.27451,-5.00938 -30.24428,29.8286 c -32.6355,32.18696 -38.50209,36.49257 -55.03178,40.3889 -11.10665,2.61801 -31.95787,2.60054 -44.92623,-0.0377 C 583.01439,749.55659 531.60233,721.15205 475.2711,674.72469 454.14297,657.3112 406.89355,609.69695 388.97927,587.7666 343.91686,532.60195 315.14692,480.25977 307.37834,439.30712 c -2.68984,-14.17963 -2.6778,-34.00904 0.027,-44.4997 4.2134,-16.34179 8.49554,-22.11517 40.50878,-54.6159 l 29.97025,-30.42661 -4.9748,-9.56815 C 352.9887,261.88244 290.47968,196.15349 245.3853,166.10351 c -14.49485,-9.65907 -23.40101,-14.78999 -25.67216,-14.78999 -0.98066,0 -27.72032,25.96266 -59.42147,57.69481 l -57.63844,57.69481 v 9.54256 c 0,55.86932 70.94272,173.81688 181.72025,302.12345 55.88803,64.73155 129.97789,139.25007 195.2985,196.42844 129.03192,112.94804 253.64348,189.30973 309.52662,189.67723 l 9.9673,0.0656 z"
           id="path26"
           transform="matrix(0.26458333,0,0,0.26458333,-40.657654,35.10334)" /><path
           style="opacity:0.5;fill:none;fill-opacity:1;stroke:#beb419;stroke-width:15.1181;stroke-linecap:round;stroke-linejoin:round;stroke-dasharray:none;stroke-opacity:1;paint-order:stroke markers fill"
           d="m 741.77419,505.82842 c -6.36618,-1.8475 -16.04256,-11.1235 -18.34248,-17.58348 -1.10468,-3.10281 -2.35919,-11.45032 -2.78783,-18.55003 -2.76285,-45.76227 -28.05666,-86.08574 -68.01692,-108.4328 -16.54424,-9.25206 -34.83856,-14.30091 -58.03815,-16.01731 -15.75783,-1.16583 -21.29044,-3.32006 -27.94624,-10.88146 -13.22184,-15.0208 -8.35176,-37.37856 10.12729,-46.49281 4.1608,-2.05219 7.74971,-2.49924 18.62478,-2.31994 34.84873,0.57456 70.79591,11.95701 101.09664,32.01163 17.48627,11.57333 41.20698,35.1511 52.56197,52.24525 20.51754,30.88774 31.87459,66.28527 32.33762,100.78958 0.15802,11.77587 -0.24867,14.68103 -2.79021,19.93115 -6.25708,12.92538 -22.194,19.54668 -36.82647,15.30022 z"
           id="path27"
           transform="matrix(0.26458333,0,0,0.26458333,-40.657654,35.10334)" /><path
           style="opacity:0.5;fill:none;fill-opacity:1;stroke:#beb419;stroke-width:15.1181;stroke-linecap:round;stroke-linejoin:round;stroke-dasharray:none;stroke-opacity:1;paint-order:stroke markers fill"
           d="m 866.98954,465.80906 c -7.75998,-1.43542 -15.964,-7.25841 -20.05028,-14.23111 -3.0668,-5.2331 -3.58017,-7.98475 -4.51294,-24.18906 -1.89313,-32.88785 -9.6014,-61.62226 -24.00758,-89.49396 -28.41876,-54.98183 -81.40892,-95.90722 -141.17408,-109.03161 -15.1406,-3.32486 -33.37073,-5.55032 -45.50846,-5.55547 -17.497,-0.007 -30.18567,-11.03992 -31.54464,-27.4273 -0.82904,-9.99714 2.33007,-17.7787 9.93553,-24.4733 8.85771,-7.79687 15.83133,-9.00706 40.29522,-6.99277 67.96668,5.59618 125.696,32.11788 172.88919,79.42782 31.93128,32.01027 52.62139,65.49828 66.47086,107.58643 7.22036,21.94254 10.89839,40.53064 12.91114,65.25082 1.90572,23.40557 0.6487,30.89967 -6.51253,38.82629 -8.05359,8.91436 -17.90408,12.39113 -29.19143,10.30322 z"
           id="path28"
           transform="matrix(0.26458333,0,0,0.26458333,-40.657654,35.10334)" /><path
           style="opacity:0.5;fill:none;fill-opacity:1;stroke:#beb419;stroke-width:15.1181;stroke-linecap:round;stroke-linejoin:round;stroke-dasharray:none;stroke-opacity:1;paint-order:stroke markers fill"
           d="m 981.6176,422.69645 c -12.72257,-5.92354 -17.74381,-16.82245 -17.74381,-38.51403 0,-22.94564 -5.85482,-54.88828 -15.17043,-82.76666 C 920.92773,218.29292 855.25995,150.63258 772.56551,119.9333 744.45673,109.49827 705.3012,102.04842 677.91123,101.92408 660.0982,101.84322 649.46726,96.870729 643.9387,86.033847 c -6.48173,-12.705243 -4.58479,-24.939792 5.41774,-34.942321 8.60262,-8.602617 13.11725,-9.629096 37.88691,-8.614246 88.69969,3.634158 170.33519,39.707395 234.05038,103.42259 63.61811,63.61811 99.40507,144.61921 103.40527,234.05038 0.9865,22.05483 -0.1774,27.78218 -7.2373,35.61263 -9.5311,10.57144 -22.79195,13.21056 -35.8441,7.13357 z"
           id="path29"
           transform="matrix(0.26458333,0,0,0.26458333,-40.657654,35.10334)" /></g><g
         id="g17"
         style="fill:none;fill-opacity:1;stroke:#beb419;stroke-width:4;stroke-dasharray:none;stroke-opacity:1;filter:url(#filter26)"><path
           style="opacity:0.5;fill:none;fill-opacity:1;stroke:#beb419;stroke-width:15.1181;stroke-linecap:round;stroke-linejoin:round;stroke-dasharray:none;stroke-opacity:1;paint-order:stroke markers fill"
           d="M 765.51383,1022.5509 C 681.62595,1006.515 552.74581,923.00202 404.99173,788.93656 375.11203,761.82505 302.57285,689.23126 274.73367,658.58043 144.51333,515.20838 62.407487,388.97401 44.513757,304.62678 c -1.563878,-7.3718 -2.417534,-17.15546 -2.442767,-27.99634 -0.04601,-19.76646 2.755562,-30.7623 11.053321,-43.38302 3.25433,-4.94977 30.027073,-32.6244 71.036749,-73.42978 74.00938,-73.640672 70.06759,-70.549366 89.81092,-70.433308 12.90405,0.07585 23.94417,3.437972 41.81709,12.734818 58.98855,30.68371 145.61493,117.79085 172.88524,173.84472 8.46897,17.40789 11.27268,27.58484 11.25506,40.85377 -0.0222,16.75388 -1.83121,19.35352 -40.70887,58.5018 -38.65209,38.92116 -36.28801,34.75229 -31.35439,55.29084 19.41962,80.84354 133.15569,206.44382 229.94473,253.93109 21.62075,10.60771 34.6883,14.77485 49.1655,15.67845 l 11.7262,0.7319 34.28597,-34.11951 c 39.28159,-39.09089 40.6033,-39.99789 58.22421,-39.95487 28.64863,0.0699 69.75937,24.48017 121.49758,72.14134 67.1536,61.86182 109.53611,126.19436 105.10033,159.53212 -1.97201,14.82089 -1.69187,14.49276 -73.65483,86.27217 -69.27694,69.10023 -70.47911,70.15233 -86.86535,76.02213 -9.70214,3.4754 -37.69501,4.3977 -51.77662,1.7058 z m 92.08172,-116.39619 58.42965,-58.38566 -4.11898,-7.83031 c -11.78597,-22.40549 -35.6693,-52.40994 -65.3237,-82.06567 -29.9839,-29.98525 -58.09259,-52.60239 -80.24401,-64.56688 l -9.27451,-5.00938 -30.24428,29.8286 c -32.6355,32.18696 -38.50209,36.49257 -55.03178,40.3889 -11.10665,2.61801 -31.95787,2.60054 -44.92623,-0.0377 C 583.01439,749.55659 531.60233,721.15205 475.2711,674.72469 454.14297,657.3112 406.89355,609.69695 388.97927,587.7666 343.91686,532.60195 315.14692,480.25977 307.37834,439.30712 c -2.68984,-14.17963 -2.6778,-34.00904 0.027,-44.4997 4.2134,-16.34179 8.49554,-22.11517 40.50878,-54.6159 l 29.97025,-30.42661 -4.9748,-9.56815 C 352.9887,261.88244 290.47968,196.15349 245.3853,166.10351 c -14.49485,-9.65907 -23.40101,-14.78999 -25.67216,-14.78999 -0.98066,0 -27.72032,25.96266 -59.42147,57.69481 l -57.63844,57.69481 v 9.54256 c 0,55.86932 70.94272,173.81688 181.72025,302.12345 55.88803,64.73155 129.97789,139.25007 195.2985,196.42844 129.03192,112.94804 253.64348,189.30973 309.52662,189.67723 l 9.9673,0.0656 z"
           id="path14"
           transform="matrix(0.26458333,0,0,0.26458333,-40.657654,35.10334)" /><path
           style="opacity:0.5;fill:none;fill-opacity:1;stroke:#beb419;stroke-width:15.1181;stroke-linecap:round;stroke-linejoin:round;stroke-dasharray:none;stroke-opacity:1;paint-order:stroke markers fill"
           d="m 741.77419,505.82842 c -6.36618,-1.8475 -16.04256,-11.1235 -18.34248,-17.58348 -1.10468,-3.10281 -2.35919,-11.45032 -2.78783,-18.55003 -2.76285,-45.76227 -28.05666,-86.08574 -68.01692,-108.4328 -16.54424,-9.25206 -34.83856,-14.30091 -58.03815,-16.01731 -15.75783,-1.16583 -21.29044,-3.32006 -27.94624,-10.88146 -13.22184,-15.0208 -8.35176,-37.37856 10.12729,-46.49281 4.1608,-2.05219 7.74971,-2.49924 18.62478,-2.31994 34.84873,0.57456 70.79591,11.95701 101.09664,32.01163 17.48627,11.57333 41.20698,35.1511 52.56197,52.24525 20.51754,30.88774 31.87459,66.28527 32.33762,100.78958 0.15802,11.77587 -0.24867,14.68103 -2.79021,19.93115 -6.25708,12.92538 -22.194,19.54668 -36.82647,15.30022 z"
           id="path15"
           transform="matrix(0.26458333,0,0,0.26458333,-40.657654,35.10334)" /><path
           style="opacity:0.5;fill:none;fill-opacity:1;stroke:#beb419;stroke-width:15.1181;stroke-linecap:round;stroke-linejoin:round;stroke-dasharray:none;stroke-opacity:1;paint-order:stroke markers fill"
           d="m 866.98954,465.80906 c -7.75998,-1.43542 -15.964,-7.25841 -20.05028,-14.23111 -3.0668,-5.2331 -3.58017,-7.98475 -4.51294,-24.18906 -1.89313,-32.88785 -9.6014,-61.62226 -24.00758,-89.49396 -28.41876,-54.98183 -81.40892,-95.90722 -141.17408,-109.03161 -15.1406,-3.32486 -33.37073,-5.55032 -45.50846,-5.55547 -17.497,-0.007 -30.18567,-11.03992 -31.54464,-27.4273 -0.82904,-9.99714 2.33007,-17.7787 9.93553,-24.4733 8.85771,-7.79687 15.83133,-9.00706 40.29522,-6.99277 67.96668,5.59618 125.696,32.11788 172.88919,79.42782 31.93128,32.01027 52.62139,65.49828 66.47086,107.58643 7.22036,21.94254 10.89839,40.53064 12.91114,65.25082 1.90572,23.40557 0.6487,30.89967 -6.51253,38.82629 -8.05359,8.91436 -17.90408,12.39113 -29.19143,10.30322 z"
           id="path16"
           transform="matrix(0.26458333,0,0,0.26458333,-40.657654,35.10334)" /><path
           style="opacity:0.5;fill:none;fill-opacity:1;stroke:#beb419;stroke-width:15.1181;stroke-linecap:round;stroke-linejoin:round;stroke-dasharray:none;stroke-opacity:1;paint-order:stroke markers fill"
           d="m 981.6176,422.69645 c -12.72257,-5.92354 -17.74381,-16.82245 -17.74381,-38.51403 0,-22.94564 -5.85482,-54.88828 -15.17043,-82.76666 C 920.92773,218.29292 855.25995,150.63258 772.56551,119.9333 744.45673,109.49827 705.3012,102.04842 677.91123,101.92408 660.0982,101.84322 649.46726,96.870729 643.9387,86.033847 c -6.48173,-12.705243 -4.58479,-24.939792 5.41774,-34.942321 8.60262,-8.602617 13.11725,-9.629096 37.88691,-8.614246 88.69969,3.634158 170.33519,39.707395 234.05038,103.42259 63.61811,63.61811 99.40507,144.61921 103.40527,234.05038 0.9865,22.05483 -0.1774,27.78218 -7.2373,35.61263 -9.5311,10.57144 -22.79195,13.21056 -35.8441,7.13357 z"
           id="path17"
           transform="matrix(0.26458333,0,0,0.26458333,-40.657654,35.10334)" /></g><g
         id="g21"
         style="fill:none;fill-opacity:1;stroke:#beb419;stroke-width:4;stroke-dasharray:none;stroke-opacity:1;filter:url(#filter25)"><path
           style="opacity:0.5;fill:none;fill-opacity:1;stroke:#beb419;stroke-width:15.1181;stroke-linecap:round;stroke-linejoin:round;stroke-dasharray:none;stroke-opacity:1;paint-order:stroke markers fill"
           d="M 765.51383,1022.5509 C 681.62595,1006.515 552.74581,923.00202 404.99173,788.93656 375.11203,761.82505 302.57285,689.23126 274.73367,658.58043 144.51333,515.20838 62.407487,388.97401 44.513757,304.62678 c -1.563878,-7.3718 -2.417534,-17.15546 -2.442767,-27.99634 -0.04601,-19.76646 2.755562,-30.7623 11.053321,-43.38302 3.25433,-4.94977 30.027073,-32.6244 71.036749,-73.42978 74.00938,-73.640672 70.06759,-70.549366 89.81092,-70.433308 12.90405,0.07585 23.94417,3.437972 41.81709,12.734818 58.98855,30.68371 145.61493,117.79085 172.88524,173.84472 8.46897,17.40789 11.27268,27.58484 11.25506,40.85377 -0.0222,16.75388 -1.83121,19.35352 -40.70887,58.5018 -38.65209,38.92116 -36.28801,34.75229 -31.35439,55.29084 19.41962,80.84354 133.15569,206.44382 229.94473,253.93109 21.62075,10.60771 34.6883,14.77485 49.1655,15.67845 l 11.7262,0.7319 34.28597,-34.11951 c 39.28159,-39.09089 40.6033,-39.99789 58.22421,-39.95487 28.64863,0.0699 69.75937,24.48017 121.49758,72.14134 67.1536,61.86182 109.53611,126.19436 105.10033,159.53212 -1.97201,14.82089 -1.69187,14.49276 -73.65483,86.27217 -69.27694,69.10023 -70.47911,70.15233 -86.86535,76.02213 -9.70214,3.4754 -37.69501,4.3977 -51.77662,1.7058 z m 92.08172,-116.39619 58.42965,-58.38566 -4.11898,-7.83031 c -11.78597,-22.40549 -35.6693,-52.40994 -65.3237,-82.06567 -29.9839,-29.98525 -58.09259,-52.60239 -80.24401,-64.56688 l -9.27451,-5.00938 -30.24428,29.8286 c -32.6355,32.18696 -38.50209,36.49257 -55.03178,40.3889 -11.10665,2.61801 -31.95787,2.60054 -44.92623,-0.0377 C 583.01439,749.55659 531.60233,721.15205 475.2711,674.72469 454.14297,657.3112 406.89355,609.69695 388.97927,587.7666 343.91686,532.60195 315.14692,480.25977 307.37834,439.30712 c -2.68984,-14.17963 -2.6778,-34.00904 0.027,-44.4997 4.2134,-16.34179 8.49554,-22.11517 40.50878,-54.6159 l 29.97025,-30.42661 -4.9748,-9.56815 C 352.9887,261.88244 290.47968,196.15349 245.3853,166.10351 c -14.49485,-9.65907 -23.40101,-14.78999 -25.67216,-14.78999 -0.98066,0 -27.72032,25.96266 -59.42147,57.69481 l -57.63844,57.69481 v 9.54256 c 0,55.86932 70.94272,173.81688 181.72025,302.12345 55.88803,64.73155 129.97789,139.25007 195.2985,196.42844 129.03192,112.94804 253.64348,189.30973 309.52662,189.67723 l 9.9673,0.0656 z"
           id="path18"
           transform="matrix(0.26458333,0,0,0.26458333,-40.657654,35.10334)" /><path
           style="opacity:0.5;fill:none;fill-opacity:1;stroke:#beb419;stroke-width:15.1181;stroke-linecap:round;stroke-linejoin:round;stroke-dasharray:none;stroke-opacity:1;paint-order:stroke markers fill"
           d="m 741.77419,505.82842 c -6.36618,-1.8475 -16.04256,-11.1235 -18.34248,-17.58348 -1.10468,-3.10281 -2.35919,-11.45032 -2.78783,-18.55003 -2.76285,-45.76227 -28.05666,-86.08574 -68.01692,-108.4328 -16.54424,-9.25206 -34.83856,-14.30091 -58.03815,-16.01731 -15.75783,-1.16583 -21.29044,-3.32006 -27.94624,-10.88146 -13.22184,-15.0208 -8.35176,-37.37856 10.12729,-46.49281 4.1608,-2.05219 7.74971,-2.49924 18.62478,-2.31994 34.84873,0.57456 70.79591,11.95701 101.09664,32.01163 17.48627,11.57333 41.20698,35.1511 52.56197,52.24525 20.51754,30.88774 31.87459,66.28527 32.33762,100.78958 0.15802,11.77587 -0.24867,14.68103 -2.79021,19.93115 -6.25708,12.92538 -22.194,19.54668 -36.82647,15.30022 z"
           id="path19"
           transform="matrix(0.26458333,0,0,0.26458333,-40.657654,35.10334)" /><path
           style="opacity:0.5;fill:none;fill-opacity:1;stroke:#beb419;stroke-width:15.1181;stroke-linecap:round;stroke-linejoin:round;stroke-dasharray:none;stroke-opacity:1;paint-order:stroke markers fill"
           d="m 866.98954,465.80906 c -7.75998,-1.43542 -15.964,-7.25841 -20.05028,-14.23111 -3.0668,-5.2331 -3.58017,-7.98475 -4.51294,-24.18906 -1.89313,-32.88785 -9.6014,-61.62226 -24.00758,-89.49396 -28.41876,-54.98183 -81.40892,-95.90722 -141.17408,-109.03161 -15.1406,-3.32486 -33.37073,-5.55032 -45.50846,-5.55547 -17.497,-0.007 -30.18567,-11.03992 -31.54464,-27.4273 -0.82904,-9.99714 2.33007,-17.7787 9.93553,-24.4733 8.85771,-7.79687 15.83133,-9.00706 40.29522,-6.99277 67.96668,5.59618 125.696,32.11788 172.88919,79.42782 31.93128,32.01027 52.62139,65.49828 66.47086,107.58643 7.22036,21.94254 10.89839,40.53064 12.91114,65.25082 1.90572,23.40557 0.6487,30.89967 -6.51253,38.82629 -8.05359,8.91436 -17.90408,12.39113 -29.19143,10.30322 z"
           id="path20"
           transform="matrix(0.26458333,0,0,0.26458333,-40.657654,35.10334)" /><path
           style="opacity:0.5;fill:none;fill-opacity:1;stroke:#beb419;stroke-width:15.1181;stroke-linecap:round;stroke-linejoin:round;stroke-dasharray:none;stroke-opacity:1;paint-order:stroke markers fill"
           d="m 981.6176,422.69645 c -12.72257,-5.92354 -17.74381,-16.82245 -17.74381,-38.51403 0,-22.94564 -5.85482,-54.88828 -15.17043,-82.76666 C 920.92773,218.29292 855.25995,150.63258 772.56551,119.9333 744.45673,109.49827 705.3012,102.04842 677.91123,101.92408 660.0982,101.84322 649.46726,96.870729 643.9387,86.033847 c -6.48173,-12.705243 -4.58479,-24.939792 5.41774,-34.942321 8.60262,-8.602617 13.11725,-9.629096 37.88691,-8.614246 88.69969,3.634158 170.33519,39.707395 234.05038,103.42259 63.61811,63.61811 99.40507,144.61921 103.40527,234.05038 0.9865,22.05483 -0.1774,27.78218 -7.2373,35.61263 -9.5311,10.57144 -22.79195,13.21056 -35.8441,7.13357 z"
           id="path21"
           transform="matrix(0.26458333,0,0,0.26458333,-40.657654,35.10334)" /></g><g
         id="g25"
         style="fill:none;fill-opacity:1;stroke:#beb419;stroke-width:4;stroke-dasharray:none;stroke-opacity:1"><path
           style="opacity:0.5;fill:none;fill-opacity:1;stroke:#beb419;stroke-width:15.1181;stroke-linecap:round;stroke-linejoin:round;stroke-dasharray:none;stroke-opacity:1;paint-order:stroke markers fill"
           d="M 765.51383,1022.5509 C 681.62595,1006.515 552.74581,923.00202 404.99173,788.93656 375.11203,761.82505 302.57285,689.23126 274.73367,658.58043 144.51333,515.20838 62.407487,388.97401 44.513757,304.62678 c -1.563878,-7.3718 -2.417534,-17.15546 -2.442767,-27.99634 -0.04601,-19.76646 2.755562,-30.7623 11.053321,-43.38302 3.25433,-4.94977 30.027073,-32.6244 71.036749,-73.42978 74.00938,-73.640672 70.06759,-70.549366 89.81092,-70.433308 12.90405,0.07585 23.94417,3.437972 41.81709,12.734818 58.98855,30.68371 145.61493,117.79085 172.88524,173.84472 8.46897,17.40789 11.27268,27.58484 11.25506,40.85377 -0.0222,16.75388 -1.83121,19.35352 -40.70887,58.5018 -38.65209,38.92116 -36.28801,34.75229 -31.35439,55.29084 19.41962,80.84354 133.15569,206.44382 229.94473,253.93109 21.62075,10.60771 34.6883,14.77485 49.1655,15.67845 l 11.7262,0.7319 34.28597,-34.11951 c 39.28159,-39.09089 40.6033,-39.99789 58.22421,-39.95487 28.64863,0.0699 69.75937,24.48017 121.49758,72.14134 67.1536,61.86182 109.53611,126.19436 105.10033,159.53212 -1.97201,14.82089 -1.69187,14.49276 -73.65483,86.27217 -69.27694,69.10023 -70.47911,70.15233 -86.86535,76.02213 -9.70214,3.4754 -37.69501,4.3977 -51.77662,1.7058 z m 92.08172,-116.39619 58.42965,-58.38566 -4.11898,-7.83031 c -11.78597,-22.40549 -35.6693,-52.40994 -65.3237,-82.06567 -29.9839,-29.98525 -58.09259,-52.60239 -80.24401,-64.56688 l -9.27451,-5.00938 -30.24428,29.8286 c -32.6355,32.18696 -38.50209,36.49257 -55.03178,40.3889 -11.10665,2.61801 -31.95787,2.60054 -44.92623,-0.0377 C 583.01439,749.55659 531.60233,721.15205 475.2711,674.72469 454.14297,657.3112 406.89355,609.69695 388.97927,587.7666 343.91686,532.60195 315.14692,480.25977 307.37834,439.30712 c -2.68984,-14.17963 -2.6778,-34.00904 0.027,-44.4997 4.2134,-16.34179 8.49554,-22.11517 40.50878,-54.6159 l 29.97025,-30.42661 -4.9748,-9.56815 C 352.9887,261.88244 290.47968,196.15349 245.3853,166.10351 c -14.49485,-9.65907 -23.40101,-14.78999 -25.67216,-14.78999 -0.98066,0 -27.72032,25.96266 -59.42147,57.69481 l -57.63844,57.69481 v 9.54256 c 0,55.86932 70.94272,173.81688 181.72025,302.12345 55.88803,64.73155 129.97789,139.25007 195.2985,196.42844 129.03192,112.94804 253.64348,189.30973 309.52662,189.67723 l 9.9673,0.0656 z"
           id="path22"
           transform="matrix(0.26458333,0,0,0.26458333,-40.657654,35.10334)" /><path
           style="opacity:0.5;fill:none;fill-opacity:1;stroke:#beb419;stroke-width:15.1181;stroke-linecap:round;stroke-linejoin:round;stroke-dasharray:none;stroke-opacity:1;paint-order:stroke markers fill"
           d="m 741.77419,505.82842 c -6.36618,-1.8475 -16.04256,-11.1235 -18.34248,-17.58348 -1.10468,-3.10281 -2.35919,-11.45032 -2.78783,-18.55003 -2.76285,-45.76227 -28.05666,-86.08574 -68.01692,-108.4328 -16.54424,-9.25206 -34.83856,-14.30091 -58.03815,-16.01731 -15.75783,-1.16583 -21.29044,-3.32006 -27.94624,-10.88146 -13.22184,-15.0208 -8.35176,-37.37856 10.12729,-46.49281 4.1608,-2.05219 7.74971,-2.49924 18.62478,-2.31994 34.84873,0.57456 70.79591,11.95701 101.09664,32.01163 17.48627,11.57333 41.20698,35.1511 52.56197,52.24525 20.51754,30.88774 31.87459,66.28527 32.33762,100.78958 0.15802,11.77587 -0.24867,14.68103 -2.79021,19.93115 -6.25708,12.92538 -22.194,19.54668 -36.82647,15.30022 z"
           id="path23"
           transform="matrix(0.26458333,0,0,0.26458333,-40.657654,35.10334)" /><path
           style="opacity:0.5;fill:none;fill-opacity:1;stroke:#beb419;stroke-width:15.1181;stroke-linecap:round;stroke-linejoin:round;stroke-dasharray:none;stroke-opacity:1;paint-order:stroke markers fill"
           d="m 866.98954,465.80906 c -7.75998,-1.43542 -15.964,-7.25841 -20.05028,-14.23111 -3.0668,-5.2331 -3.58017,-7.98475 -4.51294,-24.18906 -1.89313,-32.88785 -9.6014,-61.62226 -24.00758,-89.49396 -28.41876,-54.98183 -81.40892,-95.90722 -141.17408,-109.03161 -15.1406,-3.32486 -33.37073,-5.55032 -45.50846,-5.55547 -17.497,-0.007 -30.18567,-11.03992 -31.54464,-27.4273 -0.82904,-9.99714 2.33007,-17.7787 9.93553,-24.4733 8.85771,-7.79687 15.83133,-9.00706 40.29522,-6.99277 67.96668,5.59618 125.696,32.11788 172.88919,79.42782 31.93128,32.01027 52.62139,65.49828 66.47086,107.58643 7.22036,21.94254 10.89839,40.53064 12.91114,65.25082 1.90572,23.40557 0.6487,30.89967 -6.51253,38.82629 -8.05359,8.91436 -17.90408,12.39113 -29.19143,10.30322 z"
           id="path24"
           transform="matrix(0.26458333,0,0,0.26458333,-40.657654,35.10334)" /><path
           style="opacity:0.5;fill:none;fill-opacity:1;stroke:#beb419;stroke-width:15.1181;stroke-linecap:round;stroke-linejoin:round;stroke-dasharray:none;stroke-opacity:1;paint-order:stroke markers fill"
           d="m 981.6176,422.69645 c -12.72257,-5.92354 -17.74381,-16.82245 -17.74381,-38.51403 0,-22.94564 -5.85482,-54.88828 -15.17043,-82.76666 C 920.92773,218.29292 855.25995,150.63258 772.56551,119.9333 744.45673,109.49827 705.3012,102.04842 677.91123,101.92408 660.0982,101.84322 649.46726,96.870729 643.9387,86.033847 c -6.48173,-12.705243 -4.58479,-24.939792 5.41774,-34.942321 8.60262,-8.602617 13.11725,-9.629096 37.88691,-8.614246 88.69969,3.634158 170.33519,39.707395 234.05038,103.42259 63.61811,63.61811 99.40507,144.61921 103.40527,234.05038 0.9865,22.05483 -0.1774,27.78218 -7.2373,35.61263 -9.5311,10.57144 -22.79195,13.21056 -35.8441,7.13357 z"
           id="path25"
           transform="matrix(0.26458333,0,0,0.26458333,-40.657654,35.10334)" /></g></g></g></svg>
