<?xml version="1.0" encoding="UTF-8" standalone="no"?>
<!-- Created with Inkscape (http://www.inkscape.org/) -->

<svg
   width="210mm"
   height="297mm"
   viewBox="0 0 210 297"
   version="1.1"
   id="svg1"
   inkscape:version="1.3.2 (091e20e, 2023-11-25, custom)"
   sodipodi:docname="Rings.svg"
   xmlns:inkscape="http://www.inkscape.org/namespaces/inkscape"
   xmlns:sodipodi="http://sodipodi.sourceforge.net/DTD/sodipodi-0.dtd"
   xmlns="http://www.w3.org/2000/svg"
   xmlns:svg="http://www.w3.org/2000/svg">
  <sodipodi:namedview
     id="namedview1"
     pagecolor="#505050"
     bordercolor="#eeeeee"
     borderopacity="1"
     inkscape:showpageshadow="0"
     inkscape:pageopacity="0"
     inkscape:pagecheckerboard="0"
     inkscape:deskcolor="#505050"
     inkscape:document-units="mm"
     inkscape:zoom="0.7500982"
     inkscape:cx="396.61473"
     inkscape:cy="561.25984"
     inkscape:window-width="1920"
     inkscape:window-height="1051"
     inkscape:window-x="-9"
     inkscape:window-y="-9"
     inkscape:window-maximized="1"
     inkscape:current-layer="layer1" />
  <defs
     id="defs1" />
  <g
     inkscape:label="Layer 1"
     inkscape:groupmode="layer"
     id="layer1">
    <path
       id="Outer_Ring"
       style="opacity:1;fill:#ffdd55;stroke-width:3;stroke-linecap:round;stroke-linejoin:round;paint-order:stroke markers fill"
       d="M 112.5213 87.830298 A 73.368172 73.368172 0 0 0 69.069686 102.31158 L 76.019649 109.33131 A 63.491688 63.491688 0 0 1 112.5213 97.706698 A 63.491688 63.491688 0 0 1 118.76329 98.023474 L 121.32593 88.460234 A 73.368172 73.368172 0 0 0 112.5213 87.830298 z M 138.43341 92.757129 L 135.90695 102.18601 A 63.491688 63.491688 0 0 1 169.57673 133.41718 L 179.1224 130.8592 A 73.368172 73.368172 0 0 0 138.43341 92.757129 z M 56.173832 114.35374 A 73.368172 73.368172 0 0 0 39.153166 161.19843 A 73.368172 73.368172 0 0 0 39.677681 168.22384 L 49.359261 165.62968 A 63.491688 63.491688 0 0 1 49.029565 161.19843 A 63.491688 63.491688 0 0 1 63.21578 121.46649 L 56.173832 114.35374 z M 184.43939 147.69331 L 174.95728 150.23424 A 63.491688 63.491688 0 0 1 176.01303 161.19843 A 63.491688 63.491688 0 0 1 164.06182 198.26387 L 170.96786 205.23915 A 73.368172 73.368172 0 0 0 185.88943 161.19843 A 73.368172 73.368172 0 0 0 184.43939 147.69331 z M 53.085132 182.89013 L 43.500704 185.45845 A 73.368172 73.368172 0 0 0 83.779899 228.5845 L 86.37974 218.88173 A 63.491688 63.491688 0 0 1 53.085132 182.89013 z M 151.86463 211.01141 A 63.491688 63.491688 0 0 1 112.5213 224.69016 A 63.491688 63.491688 0 0 1 103.2769 223.96256 L 100.7153 233.52321 A 73.368172 73.368172 0 0 0 112.5213 234.56656 A 73.368172 73.368172 0 0 0 158.77274 217.98928 L 151.86463 211.01141 z " />
    <path
       id="Mid_ring"
       style="opacity:1;fill:#0000ff;stroke-width:3;stroke-linecap:round;stroke-linejoin:round;paint-order:stroke markers fill;stroke-dasharray:none;stroke:none"
       d="M 112.5213 112.87425 A 48.324215 48.324215 0 0 0 109.14166 113.11609 L 110.82166 119.51312 A 41.819033 41.819033 0 0 1 112.5213 119.37928 A 41.819033 41.819033 0 0 1 132.93142 124.71073 L 137.6748 120.0149 A 48.324215 48.324215 0 0 0 112.5213 112.87425 z M 92.047611 117.45898 A 48.324215 48.324215 0 0 0 70.506807 137.59005 L 77.014937 139.36927 A 41.819033 41.819033 0 0 1 93.727612 123.85756 L 92.047611 117.45898 z M 150.77323 131.86482 L 146.18901 136.40304 A 41.819033 41.819033 0 0 1 154.28412 160.49046 L 160.76951 162.26296 A 48.324215 48.324215 0 0 0 160.84548 161.19843 A 48.324215 48.324215 0 0 0 150.77323 131.86482 z M 64.705611 154.28826 A 48.324215 48.324215 0 0 0 64.197115 161.19843 A 48.324215 48.324215 0 0 0 71.10212 185.92147 L 75.878573 181.19307 A 41.819033 41.819033 0 0 1 70.702144 161.19843 A 41.819033 41.819033 0 0 1 71.111938 156.03905 L 64.705611 154.28826 z M 150.76496 177.81189 A 41.819033 41.819033 0 0 1 131.54494 198.43905 L 133.21926 204.81541 A 48.324215 48.324215 0 0 0 157.11392 179.5477 L 150.76496 177.81189 z M 87.418953 194.58502 L 82.79908 199.1589 A 48.324215 48.324215 0 0 0 112.5213 209.52261 A 48.324215 48.324215 0 0 0 116.1526 209.26268 L 114.49895 202.96591 A 41.819033 41.819033 0 0 1 112.5213 203.01758 A 41.819033 41.819033 0 0 1 87.418953 194.58502 z " />
    <path
       id="Inner-ring"
       style="opacity:1;fill:#ffffff;stroke-width:10;stroke-linecap:round;stroke-linejoin:round;paint-order:stroke markers fill;stroke-dasharray:none"
       d="m 100.69841,140.72425 a 23.64291,23.64291 0 0 0 -1.372807,0.92924 l 2.276727,2.29951 a 20.460211,20.460211 0 0 1 0.68743,-0.47246 20.460211,20.460211 0 0 1 9.95215,-2.73392 l 0.86108,-3.15002 a 23.64291,23.64291 0 0 0 -12.40455,3.1277 z m -7.553305,6.95103 a 23.64291,23.64291 0 0 0 -4.20239,13.79919 l 3.192791,-0.83821 a 20.460211,20.460211 0 0 1 3.286699,-10.66083 z m 28.406585,-8.26206 -0.8322,3.04431 a 20.460211,20.460211 0 0 1 9.32243,8.22574 l 3.18152,-0.83547 a 23.64291,23.64291 0 0 0 -0.22823,-0.46965 23.64291,23.64291 0 0 0 -11.44352,-9.96493 z m -30.982141,30.55554 a 23.64291,23.64291 0 0 0 1.474967,3.05229 23.64291,23.64291 0 0 0 8.973644,8.78619 l 0.86713,-3.17192 a 20.460211,20.460211 0 0 1 -7.08454,-7.20559 20.460211,20.460211 0 0 1 -1.088495,-2.28632 z m 42.218581,-11.08537 a 20.460211,20.460211 0 0 1 -3.09771,13.44164 l 2.26927,2.29214 a 23.64291,23.64291 0 0 0 3.94317,-16.55144 z m -22.73703,22.60311 -0.83859,3.06814 a 23.64291,23.64291 0 0 0 15.1288,-2.87969 23.64291,23.64291 0 0 0 1.47503,-0.99845 l -2.24104,-2.26347 a 20.460211,20.460211 0 0 1 -0.82533,0.50564 20.460211,20.460211 0 0 1 -12.6989,2.5678 z" />
  </g>
</svg>
