<?xml version="1.0" encoding="UTF-8" standalone="no"?>
<!-- Created with Inkscape (http://www.inkscape.org/) -->

<svg
   width="135.23117mm"
   height="133.82321mm"
   viewBox="0 0 135.23117 133.82321"
   version="1.1"
   id="svg1"
   inkscape:version="1.3.2 (091e20e, 2023-11-25, custom)"
   sodipodi:docname="Round Seal Logo Engraving.svg"
   xml:space="preserve"
   inkscape:export-filename="Gold_Seal.png"
   inkscape:export-xdpi="184.50873"
   inkscape:export-ydpi="184.50873"
   xmlns:inkscape="http://www.inkscape.org/namespaces/inkscape"
   xmlns:sodipodi="http://sodipodi.sourceforge.net/DTD/sodipodi-0.dtd"
   xmlns:xlink="http://www.w3.org/1999/xlink"
   xmlns="http://www.w3.org/2000/svg"
   xmlns:svg="http://www.w3.org/2000/svg"><sodipodi:namedview
     id="namedview1"
     pagecolor="#505050"
     bordercolor="#eeeeee"
     borderopacity="1"
     inkscape:showpageshadow="0"
     inkscape:pageopacity="0"
     inkscape:pagecheckerboard="0"
     inkscape:deskcolor="#505050"
     inkscape:document-units="mm"
     inkscape:zoom="1.5001965"
     inkscape:cx="237.96883"
     inkscape:cy="277.29701"
     inkscape:window-width="1920"
     inkscape:window-height="1051"
     inkscape:window-x="-9"
     inkscape:window-y="-9"
     inkscape:window-maximized="1"
     inkscape:current-layer="layer1" /><defs
     id="defs1"><linearGradient
       id="linearGradient1"
       inkscape:collect="always"><stop
         style="stop-color:#beb41e;stop-opacity:1;"
         offset="0"
         id="stop1" /><stop
         style="stop-color:#beb428;stop-opacity:1;"
         offset="0.38600451"
         id="stop4" /><stop
         style="stop-color:#beb45e;stop-opacity:1;"
         offset="0.5146727"
         id="stop3" /><stop
         style="stop-color:#beb428;stop-opacity:1;"
         offset="0.65237021"
         id="stop5" /><stop
         style="stop-color:#beb41e;stop-opacity:1;"
         offset="1"
         id="stop2" /></linearGradient><linearGradient
       inkscape:collect="always"
       xlink:href="#linearGradient1"
       id="linearGradient2"
       x1="32.804035"
       y1="145.85451"
       x2="193.47327"
       y2="226.10094"
       gradientUnits="userSpaceOnUse" /></defs><g
     inkscape:label="Layer 1"
     inkscape:groupmode="layer"
     id="layer1"
     transform="translate(-47.022168,-114.92152)"><ellipse
       id="path1"
       cx="114.63776"
       cy="181.83313"
       rx="66.643478"
       ry="65.939499"
       style="fill:none;stroke:#beb41e;stroke-width:1.94422;stroke-linejoin:round;stroke-dasharray:none;stroke-opacity:1" /><path
       id="path10"
       style="opacity:1;mix-blend-mode:normal;fill:url(#linearGradient2);fill-opacity:1;stroke:none;stroke-width:1.26024;stroke-linejoin:round;stroke-opacity:1"
       d="M 114.63796,119.37721 C 84.435327,119.4464 58.513655,140.67533 52.800911,170.0196 H 69.72391 c 5.399512,-20.1801 23.816076,-34.26298 44.91405,-34.34519 21.15899,0.009 39.66267,14.10697 45.07787,34.34519 h 16.89665 c -5.72264,-29.39447 -31.72009,-50.63829 -61.97452,-50.64239 z m 2.01073,3.5078 3.36001,0.36742 c 0.033,0.61071 0.0603,1.32906 0.0822,2.1549 l 0.0796,2.57917 1.10174,-4.59558 3.38429,0.37052 -1.09244,9.97975 -2.26859,-0.24805 0.73742,-6.73757 -1.64331,6.63835 -1.60869,-0.17621 -0.23512,-6.68797 -0.72037,6.58358 -2.2686,-0.24804 z m -11.29905,0.71933 3.26854,9.60975 -2.6293,0.47852 -0.45114,-1.75183 -0.92139,0.16744 0.17054,1.8035 -2.65979,0.48421 -0.49299,-10.11514 z m 25.04654,1.58285 3.59823,1.14722 -1.62523,10.01902 -2.54661,-0.81132 0.42426,-1.75906 -0.89245,-0.28422 -0.69557,1.67225 -2.57607,-0.82114 z m -33.215548,0.19069 0.677478,1.89187 -1.45986,0.52245 2.707329,7.56078 -2.458248,0.88005 -2.706812,-7.56078 -1.453658,0.52038 -0.677478,-1.89136 z m 6.820258,0.75396 c 0.0833,1.93451 0.172,3.34496 0.26613,4.23126 l 0.8785,-0.16019 c -0.33379,-1.0948 -0.71531,-2.45168 -1.14463,-4.07107 z m 27.61588,1.80092 c -0.83466,1.74726 -1.41835,3.03398 -1.75131,3.86075 l 0.85111,0.2713 c 0.21923,-1.12336 0.519,-2.50059 0.9002,-4.13205 z m 7.81296,0.56999 1.72651,0.91364 c 1.11451,0.58969 1.84027,1.03905 2.17713,1.34824 0.34051,0.31112 0.5511,0.63816 0.632,0.9803 0.0809,0.34213 0.0706,0.67076 -0.031,0.9865 -0.0996,0.3121 -0.3718,0.88864 -0.81649,1.7291 l -1.64434,3.10782 c -0.42148,0.7966 -0.74189,1.30964 -0.9617,1.53944 -0.21422,0.22808 -0.45539,0.36936 -0.72296,0.42426 -0.26563,0.0512 -0.55193,0.0359 -0.85886,-0.047 -0.30499,-0.0865 -0.73341,-0.27599 -1.28519,-0.56793 l -2.91042,-1.53996 z m -51.673329,0.61495 4.9413,8.73952 -2.272213,1.28519 -2.075842,-3.67109 -0.680062,0.38499 2.075326,3.67057 -2.272213,1.28468 -4.941301,-8.73952 2.272213,-1.28467 1.767334,3.12539 0.680062,-0.38448 -1.767334,-3.12539 z m 53.177629,2.12442 -3.0887,5.83737 c 0.33253,0.17594 0.57197,0.21854 0.71831,0.12764 0.14827,-0.0946 0.37925,-0.43794 0.69246,-1.02991 l 1.82418,-3.44734 c 0.21268,-0.40196 0.33612,-0.66642 0.37052,-0.79323 0.0343,-0.12681 0.0193,-0.24002 -0.045,-0.33951 -0.0623,-0.10315 -0.21965,-0.22162 -0.47181,-0.35502 z m 7.62073,2.5864 3.64215,2.77141 -1.21698,1.59887 -5.19555,3.6127 1.54926,1.17926 -1.21646,1.59886 -3.82974,-2.91403 0.88263,-1.15962 5.57951,-4.01422 -1.41129,-1.07436 z m -69.853621,1.74408 c 0.284321,0.037 0.54831,0.15001 0.792717,0.339 0.244924,0.18317 0.569281,0.51596 0.97255,0.99787 l 0.561206,0.67025 c 0.411237,0.49142 0.660322,0.89198 0.747242,1.20199 0.08691,0.31 0.0442,0.63941 -0.127641,0.98805 -0.168669,0.346 -0.471468,0.70202 -0.908989,1.06816 l -0.537435,0.4501 2.594674,3.10058 -2.001945,1.67535 -6.443534,-7.69927 2.016414,-1.68775 c 0.545316,-0.45634 0.999917,-0.76342 1.363224,-0.92191 0.366487,-0.16112 0.690375,-0.22202 0.971517,-0.18242 z m -0.633553,2.12287 c -0.14876,-0.0103 -0.352906,0.0935 -0.612882,0.31109 l 1.639693,1.95906 c 0.05972,-0.0446 0.110192,-0.0838 0.151412,-0.11834 0.183887,-0.15388 0.273217,-0.30451 0.268717,-0.45165 -0.004,-0.15296 -0.124998,-0.37199 -0.363802,-0.65733 l -0.529683,-0.63252 c -0.220211,-0.26314 -0.404695,-0.40001 -0.553455,-0.41031 z m 77.179784,1.64745 1.85467,1.83709 -7.0652,7.1329 -1.85467,-1.8371 z m -84.216047,2.34766 1.524455,1.30896 -1.135331,1.32188 1.444356,1.24024 1.062468,-1.23714 1.449523,1.24386 -1.062467,1.23765 1.674833,1.43815 1.247986,-1.45366 1.524455,1.30897 -2.949174,3.43441 -7.61659,-6.54068 z m 88.830757,2.42931 1.65571,2.19986 c -2.01844,1.9174 -3.74995,3.50502 -5.194,4.7625 1.62464,-1.0519 3.08172,-1.96986 4.37028,-2.75332 l 1.59938,-0.97823 1.65572,2.19986 -8.82014,4.97644 -2.3828,-3.16621 z m -94.354451,4.55579 5.659086,3.60495 c 0.847261,0.53976 1.38762,0.89626 1.620573,1.06918 0.229474,0.1707 0.396046,0.38946 0.500228,0.65681 0.1064,0.26386 0.120121,0.54216 0.04134,0.83509 -0.08004,0.28723 -0.275551,0.67511 -0.586527,1.16324 l -0.7028,1.10381 -1.480013,-0.9431 c 0.09487,-0.12583 0.161195,-0.2182 0.198955,-0.2775 0.09996,-0.1569 0.140393,-0.3055 0.121439,-0.44493 -0.01895,-0.13952 -0.07973,-0.25191 -0.182418,-0.33694 -0.10268,-0.085 -0.314329,-0.22972 -0.635103,-0.43408 l -5.957259,-3.7946 z m 100.915801,5.08289 1.71463,3.36466 -8.26616,5.89059 -1.21337,-2.38125 1.54823,-0.93586 -0.42478,-0.83406 -1.67845,0.6811 -1.22783,-2.40864 z m -1.09347,2.79828 c -1.82919,0.63535 -3.15456,1.1255 -3.9765,1.4702 l 0.40514,0.7953 c 0.95283,-0.63414 2.14339,-1.3892 3.57136,-2.2655 z M 52.116715,173.51137 c -0.06719,0.74279 -0.120955,1.4867 -0.16123,2.23139 h 16.507003 c 0.08688,-0.74623 0.192161,-1.49024 0.315743,-2.23139 z m 108.400105,0 c 0.12202,0.74118 0.22575,1.4852 0.31109,2.23139 h 16.50907 c -0.0382,-0.74465 -0.0899,-1.48857 -0.15503,-2.23139 z M 51.994242,188.46292 c 0.03859,0.69937 0.08907,1.39822 0.151412,2.09599 h 16.742131 c -0.122482,-0.69616 -0.228791,-1.39509 -0.318844,-2.09599 z m 108.712748,0 c -0.0901,0.7009 -0.19637,1.39983 -0.31885,2.09599 h 16.74162 c 0.0623,-0.69777 0.11282,-1.39662 0.15141,-2.09599 z m -107.762418,5.83736 c 5.977355,29.03228 31.748726,49.9141 61.693388,49.98868 29.94451,-0.0748 55.7156,-20.95659 61.69288,-49.98868 h -16.95556 c -5.62996,19.85851 -23.89226,33.61175 -44.73732,33.69149 -20.845016,-0.0797 -39.107322,-13.83298 -44.737317,-33.69149 z m 16.544727,10.45208 0.49816,0.94775 0.498678,0.94826 -2.286165,1.20148 c -1.257179,0.66084 -2.262773,1.2068 -2.235006,1.21336 0.02771,0.007 1.110564,-0.34079 2.406571,-0.77205 1.296011,-0.43126 2.397933,-0.79526 2.44843,-0.80873 0.09117,-0.0244 0.09461,-0.0191 0.444417,0.64647 0.287371,0.54667 0.342949,0.67496 0.30179,0.6966 -0.0278,0.0146 -0.13494,-0.0451 -0.238228,-0.13178 -0.253222,-0.21385 -0.733269,-0.45517 -1.082105,-0.54363 -0.355428,-0.0901 -0.679993,-0.10495 -1.04283,-0.0476 -0.272122,0.0431 -0.334303,0.073 -2.458248,1.16531 l -2.179712,1.12086 -0.380338,-0.36949 -0.380339,-0.36948 -0.173116,0.0904 -0.173633,0.0909 -0.392741,-0.74776 -0.39274,-0.74724 3.408577,-1.79162 z m 90.409471,0 3.40909,1.79214 3.40858,1.79162 -0.39326,0.74724 -0.39274,0.74776 -0.17312,-0.0909 -0.17363,-0.0904 -0.38034,0.36948 -0.38034,0.36949 -2.17919,-1.12086 c -2.12395,-1.09226 -2.18664,-1.12221 -2.45877,-1.16531 -0.36283,-0.0574 -0.68688,-0.0426 -1.04231,0.0476 -0.34883,0.0885 -0.8294,0.32978 -1.08262,0.54363 -0.10329,0.0867 -0.20991,0.14638 -0.23771,0.13178 -0.0412,-0.0216 0.0144,-0.14993 0.30179,-0.6966 0.34981,-0.66557 0.35325,-0.67087 0.44442,-0.64647 0.0505,0.0135 1.1519,0.37747 2.44791,0.80873 1.29601,0.43126 2.37938,0.77905 2.40709,0.77205 0.0278,-0.007 -0.97835,-0.55253 -2.23553,-1.21336 l -2.28564,-1.20148 0.49816,-0.94826 z m -90.211034,3.37344 c 0.73307,0.0127 1.440041,0.35622 2.020549,0.99735 0.260602,0.28779 0.612929,0.8256 0.72502,1.10743 v 5.2e-4 c 0.02988,0.0741 0.132479,0.3286 0.22841,0.56585 l 0.174666,0.43202 -0.524516,0.27543 -0.523999,0.27544 -0.09405,-0.17829 c -0.05162,-0.0981 -0.116741,-0.29956 -0.144694,-0.44751 -0.165918,-0.87624 -0.432565,-1.5917 -0.632003,-1.69447 -0.242991,-0.12523 -0.686363,0.0682 -3.259232,1.42058 -2.040547,1.07257 -2.192859,1.15796 -2.214852,1.2454 -0.01297,0.0516 0.03182,0.33161 0.09974,0.62219 l 0.123507,0.52865 -0.155546,0.0816 -0.155546,0.0817 -0.938961,-1.78594 -0.939477,-1.78646 0.158646,-0.0832 0.15813,-0.0832 0.280086,0.28318 c 0.153973,0.15578 0.333021,0.32355 0.397909,0.37259 l 0.117305,0.0894 2.032435,-1.06815 c 1.680177,-0.88323 2.083907,-1.08349 2.32854,-1.15342 0.246376,-0.0705 0.493582,-0.10294 0.737939,-0.0987 z m 90.013114,0 c 0.24435,-0.004 0.49156,0.0282 0.73794,0.0987 0.24463,0.0699 0.64784,0.27019 2.32802,1.15342 l 2.03243,1.06815 0.11783,-0.0894 c 0.0649,-0.049 0.24393,-0.21681 0.3979,-0.37259 l 0.28009,-0.28318 0.15813,0.0832 0.15813,0.0832 -0.93896,1.78646 -0.93896,1.78594 -0.15555,-0.0817 -0.15606,-0.0816 0.12351,-0.52865 c 0.0679,-0.29058 0.1127,-0.57059 0.0997,-0.62219 -0.022,-0.0874 -0.17382,-0.17283 -2.21433,-1.2454 -2.57288,-1.35235 -3.01624,-1.54581 -3.25924,-1.42058 -0.19943,0.10277 -0.4666,0.81823 -0.63252,1.69447 -0.028,0.14795 -0.0931,0.34941 -0.14469,0.44751 l -0.0935,0.17829 -0.52452,-0.27544 -0.524,-0.27543 0.17467,-0.43202 c 0.096,-0.23744 0.1981,-0.49247 0.22789,-0.56637 l 5.2e-4,5.2e-4 c 0.11192,-0.28172 0.46378,-0.82003 0.7245,-1.10795 0.58051,-0.64113 1.288,-0.98465 2.02107,-0.99735 z m -88.998189,1.35857 c 0.0062,6.5e-4 0.0086,0.003 0.0072,0.007 -0.0043,0.0136 -0.176997,0.15573 -0.383956,0.31574 -0.206958,0.16 -0.547425,0.42343 -0.756543,0.58549 -0.482493,0.37392 -0.54738,0.42383 -1.308964,1.00666 -0.346748,0.26536 -0.638367,0.5049 -0.648023,0.53278 -0.01028,0.0297 0.732989,-0.34363 1.794723,-0.90175 1.428907,-0.75115 1.816575,-0.9425 1.835547,-0.9064 0.01323,0.0252 0.08078,0.29866 0.149862,0.60771 0.06904,0.30908 0.180735,0.68418 0.248563,0.83406 l 0.123507,0.27285 0.567924,-0.29869 0.567924,-0.29869 0.07648,0.14624 0.077,0.14573 -3.408578,1.79162 -3.409094,1.79214 -0.420129,-0.80047 -0.420646,-0.79995 0.165881,-0.10128 c 0.151669,-0.0927 0.163699,-0.11221 0.136426,-0.22531 -0.0795,-0.32984 -0.225031,-1.0318 -0.222209,-1.07229 0.0044,-0.062 3.978308,-2.14883 4.520654,-2.37401 0.432358,-0.17947 0.662696,-0.26394 0.706417,-0.25942 z m 87.983259,0 c 0.0437,-0.005 0.27406,0.0799 0.70642,0.25942 0.54234,0.22518 4.51574,2.31201 4.52014,2.37401 0.003,0.0405 -0.1422,0.74245 -0.2217,1.07229 -0.0273,0.1131 -0.0158,0.13261 0.13591,0.22531 l 0.1664,0.10128 -0.42065,0.79995 -0.42064,0.80047 -3.40858,-1.79214 -3.40858,-1.79162 0.0765,-0.14573 0.077,-0.14624 0.56793,0.29869 0.56792,0.29869 0.12299,-0.27285 c 0.0678,-0.14988 0.18004,-0.52498 0.24908,-0.83406 0.0691,-0.30905 0.13612,-0.58251 0.14935,-0.60771 0.019,-0.0361 0.40715,0.15525 1.83606,0.9064 1.06173,0.55812 1.80449,0.93145 1.79421,0.90175 -0.01,-0.0279 -0.30128,-0.26742 -0.64803,-0.53278 -0.76158,-0.58283 -0.826,-0.63274 -1.30844,-1.00666 -0.20912,-0.16206 -0.54959,-0.42549 -0.75655,-0.58549 -0.20696,-0.16001 -0.37965,-0.30214 -0.38395,-0.31574 -0.001,-0.004 9.9e-4,-0.007 0.007,-0.007 z m -73.207417,11.70471 c 0.343907,0.0231 0.695096,0.16355 1.053683,0.42168 0.32154,0.23146 0.55496,0.4886 0.699699,0.77101 0.139929,0.28326 0.190954,0.58125 0.152962,0.89349 -0.04079,0.31023 -0.176212,0.62435 -0.40566,0.9431 l -0.235645,0.32762 -1.041796,-0.73742 0.235644,-0.32711 c 0.110699,-0.15378 0.155078,-0.30702 0.132809,-0.45889 -0.02428,-0.14907 -0.113388,-0.27894 -0.267168,-0.38964 -0.150978,-0.10868 -0.298355,-0.14871 -0.441833,-0.1204 -0.146274,0.0263 -0.27372,0.11515 -0.382406,0.26613 l -0.383439,0.53227 c -0.09057,0.12582 -0.128282,0.25813 -0.113171,0.39636 0.0103,0.139 0.05292,0.28617 0.127641,0.44183 0.07271,0.15846 0.155251,0.32406 0.24753,0.49661 0.08669,0.16852 0.169912,0.34759 0.250114,0.53692 0.07741,0.18731 0.131378,0.38331 0.162264,0.58808 0.02608,0.20554 0.01225,0.42264 -0.04186,0.65112 -0.0569,0.22646 -0.174853,0.46377 -0.353984,0.71262 l -0.226343,0.31471 c -0.338128,0.46972 -0.732357,0.73997 -1.182356,0.8108 -0.452802,0.0688 -0.91952,-0.0698 -1.400432,-0.416 -0.466925,-0.33612 -0.737173,-0.73033 -0.810803,-1.18235 -0.07363,-0.45202 0.06041,-0.91581 0.402559,-1.39113 l 0.247531,-0.34365 1.044897,0.73329 -0.250631,0.34778 c -0.112711,0.15658 -0.159766,0.30764 -0.141076,0.45269 0.01388,0.14582 0.09254,0.26993 0.235127,0.37258 0.150984,0.10869 0.297519,0.15248 0.439767,0.13178 0.13744,-0.0199 0.256449,-0.0995 0.357084,-0.23926 l 0.293005,-0.4067 c 0.102648,-0.14259 0.145102,-0.29022 0.127641,-0.44286 -0.02227,-0.15187 -0.07527,-0.3115 -0.159163,-0.47801 -0.0887,-0.16573 -0.179719,-0.34302 -0.272335,-0.53279 -0.08311,-0.1617 -0.1608,-0.32832 -0.233061,-0.49919 -0.07506,-0.17289 -0.125155,-0.35325 -0.150895,-0.54157 -0.02854,-0.19033 -0.01568,-0.39129 0.03876,-0.60255 0.05165,-0.21327 0.164932,-0.44146 0.340031,-0.68471 l 0.365353,-0.50746 c 0.342153,-0.47532 0.741556,-0.75034 1.198376,-0.82476 0.113005,-0.0184 0.226952,-0.0237 0.341581,-0.016 z m 3.681429,2.31562 1.783354,1.02423 5.17e-4,-5.2e-4 1.111043,0.63821 -3.740857,6.5164 -0.492993,-0.28319 -2.40192,-1.37924 0.622184,-1.08469 1.78387,1.02422 0.949296,-1.65364 -1.559594,-0.89555 0.620117,-1.08004 1.559594,0.89555 0.926559,-1.61334 -1.783871,-1.02422 z m 49.054888,1.53169 2.92178,5.56349 1.09761,-0.57671 0.57206,1.08882 -3.33055,1.74925 -0.57205,-1.08882 1.09812,-0.57671 -2.92179,-5.56297 z m -44.716651,0.8475 1.157035,0.55087 -3.22926,6.7846 -1.157035,-0.55087 z m 41.203691,0.90692 2.82618,6.96185 -1.18752,0.48214 -1.90583,0.77359 -0.47026,-1.1591 1.90583,-0.77359 -0.71727,-1.76682 -1.66656,0.67644 -0.46819,-1.15393 1.66605,-0.67645 -0.6997,-1.72341 -1.90531,0.7736 -0.47078,-1.1591 1.90583,-0.7736 0.19896,-0.0806 0.46198,-0.18759 z m -37.690727,0.709 c 0.243359,0.003 0.502717,0.0566 0.778247,0.16071 0.370596,0.14008 0.662305,0.32753 0.875399,0.56276 0.213088,0.23523 0.34252,0.50728 0.38809,0.81545 0.04113,0.31018 -0.0062,0.64573 -0.142627,1.00666 l -1.377694,3.64474 c -0.143727,0.38026 -0.334396,0.68015 -0.572058,0.89969 -0.240885,0.21832 -0.518919,0.34909 -0.833541,0.39222 -0.31584,0.0464 -0.655425,6.9e-4 -1.019576,-0.13694 -0.360928,-0.13642 -0.642701,-0.32228 -0.84491,-0.55708 -0.202202,-0.23473 -0.321097,-0.50986 -0.356567,-0.82527 -0.03669,-0.31218 0.01496,-0.65363 0.155029,-1.02422 l 0.204639,-0.54106 1.232483,0.46561 -0.204639,0.54157 c -0.06455,0.17079 -0.07114,0.32105 -0.02067,0.45062 0.05047,0.12956 0.147989,0.22165 0.293005,0.27646 0.161129,0.0609 0.309033,0.0541 0.443901,-0.0202 0.133643,-0.071 0.235463,-0.1982 0.304891,-0.38189 l 1.377176,-3.64474 c 0.05725,-0.15146 0.05482,-0.29077 -0.0078,-0.41754 -0.06579,-0.12799 -0.184221,-0.22432 -0.355017,-0.28887 -0.177242,-0.067 -0.333489,-0.0727 -0.468705,-0.0171 -0.136441,0.0589 -0.236386,0.17246 -0.299724,0.34003 l -0.363285,0.9617 0.589628,0.22324 -0.435115,1.15032 -1.764234,-0.66714 0.794784,-2.10272 c 0.140073,-0.37053 0.329475,-0.66145 0.567924,-0.87333 0.234002,-0.20987 0.508073,-0.33669 0.822688,-0.37982 0.07755,-0.0103 0.157109,-0.0149 0.238229,-0.0139 z m 31.986677,1.35495 c 0.16582,-0.01 0.32366,0.003 0.47336,0.0362 0.30035,0.0705 0.56,0.22263 0.77876,0.45682 0.21546,0.23514 0.37944,0.54674 0.49196,0.93379 l 1.07332,3.69177 c 0.11348,0.39035 0.14152,0.74091 0.0847,1.05161 -0.0591,0.31497 -0.19673,0.58114 -0.41341,0.7984 -0.21572,0.22057 -0.50582,0.38359 -0.86972,0.48938 -0.3672,0.10675 -0.70062,0.1248 -1.00097,0.0543 -0.29939,-0.0672 -0.55711,-0.21858 -0.77256,-0.45372 -0.21546,-0.23515 -0.38003,-0.54757 -0.49351,-0.93793 l -0.16847,-0.58084 1.24541,-0.36225 0.16898,0.58084 c 0.0356,0.1224 0.0838,0.22119 0.14521,0.29662 0.0624,0.0787 0.13707,0.13225 0.22427,0.16072 0.0872,0.0285 0.18405,0.0277 0.28991,-0.003 0.14886,-0.0433 0.25069,-0.13062 0.30592,-0.26149 0.0562,-0.12755 0.0575,-0.28396 0.004,-0.46922 l -1.07332,-3.69176 c -0.0539,-0.18526 -0.13842,-0.31675 -0.25425,-0.39429 -0.11582,-0.0776 -0.24852,-0.0944 -0.39739,-0.0512 -0.15879,0.0462 -0.2644,0.1323 -0.31729,0.25889 -0.0519,0.12991 -0.0513,0.28759 0.003,0.47284 l 0.16898,0.58033 -1.2454,0.36225 -0.16898,-0.58032 c -0.11348,-0.39036 -0.14211,-0.74278 -0.0863,-1.05679 0.0558,-0.314 0.19149,-0.58145 0.40721,-0.80202 0.21668,-0.21726 0.50871,-0.37901 0.87592,-0.48575 0.18194,-0.0529 0.35559,-0.0844 0.52141,-0.0941 z m -26.70483,0.32815 c 0.1754,0.01 0.36035,0.0396 0.55552,0.0899 0.39034,0.10053 0.7086,0.25377 0.95447,0.4594 0.24167,0.2081 0.40323,0.45795 0.48472,0.74931 0.0806,0.29469 0.0747,0.62206 -0.0181,0.98237 l -1.03146,4.00337 c -0.0937,0.36365 -0.24627,0.65345 -0.45837,0.8692 -0.21295,0.21908 -0.47524,0.35955 -0.78651,0.42168 -0.31461,0.0613 -0.66697,0.0416 -1.0573,-0.0589 -0.39034,-0.10054 -0.70676,-0.25309 -0.949298,-0.45786 -0.245871,-0.20562 -0.409263,-0.45564 -0.489893,-0.75034 -0.08149,-0.29136 -0.07557,-0.61924 0.01809,-0.98288 l 1.031461,-4.00338 c 0.0928,-0.36031 0.24541,-0.65011 0.45837,-0.86919 0.21209,-0.21575 0.47621,-0.35553 0.79168,-0.42013 0.15564,-0.0311 0.32121,-0.0422 0.49661,-0.0326 z m 23.00118,0.68006 1.31,7.39903 -1.26194,0.22325 -0.55966,-3.16002 -0.99735,0.17622 0.55965,3.16053 -1.26193,0.22324 -1.31,-7.39851 1.26194,-0.22376 0.54053,3.05304 0.99736,-0.17622 -0.54054,-3.05304 z m -19.37763,0.21704 2.67684,0.40825 0.5209,0.0796 -1.13326,7.42797 -1.26659,-0.19379 0.94774,-6.2115 -1.93115,-0.29508 z m -3.65455,0.40928 c -0.0813,0.008 -0.15529,0.0332 -0.22118,0.0749 -0.13511,0.0826 -0.22801,0.22409 -0.27957,0.42426 l -0.95136,3.69332 c -0.0507,0.19684 -0.0371,0.36419 0.0413,0.50178 0.0751,0.13673 0.20957,0.22973 0.40307,0.27957 0.19017,0.049 0.35272,0.0319 0.48783,-0.0507 0.13178,-0.0834 0.22319,-0.22329 0.27389,-0.42013 l 0.95084,-3.69331 c 0.0516,-0.20017 0.0399,-0.36866 -0.0351,-0.5054 -0.0784,-0.13759 -0.21239,-0.23059 -0.40256,-0.27956 -0.0968,-0.0249 -0.18585,-0.0332 -0.26716,-0.0248 z m 17.80718,0.21291 0.47749,7.4936 -1.00563,0.0641 -1.91823,-4.50361 0.29353,4.60696 -1.16531,0.0744 -0.47749,-7.4936 1.01596,-0.0646 1.88619,4.24883 -0.27698,-4.35115 z m -7.42901,0.0749 c 0.40259,0.0199 0.74458,0.10543 1.02681,0.25735 0.27863,0.15519 0.48733,0.36766 0.62581,0.63665 0.1383,0.27243 0.19819,0.59422 0.17983,0.96583 l -0.20412,4.12895 c -0.0185,0.37506 -0.10957,0.68959 -0.27389,0.94361 -0.16449,0.25747 -0.39335,0.44802 -0.68574,0.57154 -0.29584,0.12335 -0.6449,0.17544 -1.04749,0.15555 -0.40252,-0.0199 -0.74336,-0.10612 -1.02216,-0.25787 -0.28217,-0.15192 -0.49214,-0.3637 -0.63045,-0.63613 -0.13847,-0.26899 -0.19888,-0.5913 -0.18035,-0.96635 l 0.20412,-4.12895 c 0.0184,-0.37161 0.10991,-0.68615 0.27441,-0.94361 0.16432,-0.25403 0.39439,-0.44423 0.69039,-0.57103 0.2924,-0.12352 0.64025,-0.17544 1.04283,-0.15554 z m -0.0636,1.28002 c -0.19957,-0.01 -0.35539,0.039 -0.46767,0.14728 -0.11572,0.10811 -0.17893,0.26535 -0.18914,0.47181 l -0.1881,3.80907 c -0.01,0.20301 0.0371,0.36418 0.14159,0.48317 0.10106,0.11882 0.25157,0.18341 0.45114,0.19327 0.19613,0.01 0.35195,-0.0397 0.46767,-0.14779 0.11228,-0.10828 0.17342,-0.26415 0.18345,-0.46716 l 0.18862,-3.80907 c 0.0102,-0.20645 -0.0354,-0.369 -0.13642,-0.48782 -0.1045,-0.11899 -0.25501,-0.18306 -0.45114,-0.19276 z" /><ellipse
       id="ellipse4"
       cx="-190.19577"
       cy="-100.15324"
       rx="49.212566"
       ry="48.692715"
       style="fill:none;stroke:none;stroke-width:0.982526;stroke-linejoin:round;stroke-dasharray:none;stroke-opacity:1"
       transform="rotate(-150)" /><ellipse
       id="ellipse5"
       cx="214.79099"
       cy="-8.3626337"
       rx="49.212566"
       ry="48.692715"
       style="fill:none;stroke:none;stroke-width:0.982526;stroke-linejoin:round;stroke-dasharray:none;stroke-opacity:1"
       transform="rotate(60)" /><text
       xml:space="preserve"
       style="font-style:normal;font-weight:normal;font-size:9.1409px;line-height:1.25;font-family:sans-serif;letter-spacing:0px;word-spacing:0px;fill:#beb41e;fill-opacity:1;stroke:none;stroke-width:0.228523"
       x="53.989311"
       y="172.17227"
       id="text7"
       transform="scale(0.93011982,1.0751303)"><tspan
         sodipodi:role="line"
         id="tspan7"
         style="font-style:italic;font-variant:normal;font-weight:bold;font-stretch:normal;font-family:Consolas;-inkscape-font-specification:'Consolas Bold Italic';fill:#beb41e;fill-opacity:1;stroke-width:0.228523"
         x="53.989311"
         y="172.17227">ESTD</tspan></text><text
       xml:space="preserve"
       style="font-style:normal;font-weight:normal;font-size:9.1409px;line-height:1.25;font-family:sans-serif;letter-spacing:0px;word-spacing:0px;fill:#beb41e;fill-opacity:1;stroke:none;stroke-width:0.228523"
       x="171.90623"
       y="172.40427"
       id="text8"
       transform="scale(0.93011982,1.0751303)"><tspan
         sodipodi:role="line"
         id="tspan8"
         style="font-style:italic;font-variant:normal;font-weight:bold;font-stretch:normal;font-family:Consolas;-inkscape-font-specification:'Consolas Bold Italic';fill:#beb41e;fill-opacity:1;stroke-width:0.228523"
         x="171.90623"
         y="172.40427">2022</tspan></text><path
       style="fill:#beb41e;fill-opacity:1;stroke:none;stroke-width:1.88537;stroke-linejoin:round;stroke-dasharray:none;stroke-opacity:1"
       d="m 100.2664,203.24691 c -0.480136,-0.051 -2.135652,-0.21894 -3.678932,-0.37318 l -2.805962,-0.28043 v -3.58679 -3.5868 h 1.220822 c 0.671451,0 1.934136,0.21819 2.805961,0.48487 5.164521,1.57976 9.750921,2.16446 10.863761,1.38499 1.35594,-0.94973 1.56957,-3.87083 1.5704,-21.47294 5.3e-4,-13.96036 -0.0293,-15.01567 -0.43578,-15.37988 -0.24007,-0.21507 -1.86752,-0.76317 -3.61657,-1.21799 l -3.18009,-0.82695 v -1.06543 -1.06544 h 12.22152 12.22153 v 1.08307 1.08307 l -2.30713,0.7025 c -1.26892,0.38637 -2.6719,0.8738 -3.11774,1.08318 l -0.8106,0.38069 v 13.90496 c 0,11.49515 -0.0659,14.22117 -0.38025,15.72955 -1.26637,6.0767 -5.82626,10.51581 -12.58954,12.25608 -2.27803,0.58616 -6.1559,0.95681 -7.9814,0.76287 z"
       id="path11" /><path
       style="fill:#beb41e;fill-opacity:1;stroke:none;stroke-width:1.88537;stroke-linejoin:round;stroke-dasharray:none;stroke-opacity:1"
       d="m 110.24315,202.55711 c 0,-0.18984 0.61959,-0.59663 1.37686,-0.90398 1.85978,-0.75483 4.50547,-2.64961 5.96254,-4.27023 1.48462,-1.65124 2.47786,-3.34839 3.19255,-5.45506 0.53601,-1.57998 0.55339,-1.99875 0.68331,-16.46165 l 0.1333,-14.84042 3.05237,-0.99768 3.05238,-0.99767 0.003,-1.18474 0.003,-1.18474 h 5.11309 5.11309 v 23.32067 23.32066 h -6.48489 -6.4849 v -15.63856 c 0,-8.60121 -0.0929,-15.53194 -0.2065,-15.40162 -0.11358,0.13032 -1.30307,6.91514 -2.64331,15.07737 -1.34025,8.16224 -2.49411,15.09297 -2.56415,15.40162 -0.12638,0.55702 -0.16144,0.56119 -4.71454,0.56119 -3.74013,0 -4.58721,-0.0637 -4.58721,-0.34516 z"
       id="path12" /><path
       style="fill:#beb41e;fill-opacity:1;stroke:none;stroke-width:1.88537;stroke-linejoin:round;stroke-dasharray:none;stroke-opacity:1"
       d="m 91.536736,179.58161 v -23.32067 h 5.473549 5.473545 l 0.076,1.17664 c 0.0694,1.07413 0.1412,1.1931 0.82427,1.36561 1.99206,0.50309 6.16469,1.70175 6.37378,1.83098 0.3199,0.19772 0.30787,27.37784 -0.0137,30.91954 -0.29295,3.22654 -0.50557,4.69056 -0.65894,4.53719 -0.0609,-0.0609 -0.33528,-1.38723 -0.60981,-2.94748 -0.27452,-1.56024 -0.72777,-4.12754 -1.00723,-5.70512 -0.64482,-3.64002 -0.72927,-4.12732 -1.70749,-9.85205 -0.44537,-2.60642 -0.90977,-4.84558 -1.032,-4.9759 -0.13022,-0.13885 -0.22223,4.89517 -0.22223,12.15917 0,9.77605 -0.0661,12.39612 -0.31298,12.39612 -0.17213,0 -1.82765,-0.40973 -3.67893,-0.91051 -1.851269,-0.50078 -4.179676,-0.9586 -5.174234,-1.01738 l -1.808287,-0.10687 v 3.8857 3.88569 h -0.997675 -0.997675 z"
       id="path13" /><g
       id="g16" /><g
       id="g19"
       transform="matrix(-1,0,0,1,229.38837,0)" /></g></svg>
