<?xml version="1.0" encoding="UTF-8" standalone="no"?>
<!-- Created with Inkscape (http://www.inkscape.org/) -->

<svg
   width="682.41895mm"
   height="787.04633mm"
   viewBox="0 0 682.41895 787.04632"
   version="1.1"
   id="svg1"
   xml:space="preserve"
   xmlns:inkscape="http://www.inkscape.org/namespaces/inkscape"
   xmlns:sodipodi="http://sodipodi.sourceforge.net/DTD/sodipodi-0.dtd"
   xmlns="http://www.w3.org/2000/svg"
   xmlns:svg="http://www.w3.org/2000/svg"><sodipodi:namedview
     id="namedview1"
     pagecolor="#505050"
     bordercolor="#eeeeee"
     borderopacity="1"
     inkscape:showpageshadow="0"
     inkscape:pageopacity="0"
     inkscape:pagecheckerboard="0"
     inkscape:deskcolor="#505050"
     inkscape:document-units="mm" /><defs
     id="defs1"><filter
       inkscape:collect="always"
       style="color-interpolation-filters:sRGB"
       id="filter24"
       x="-0.007327071"
       y="-0.0062629275"
       width="1.0146577"
       height="1.012569"><feGaussianBlur
         inkscape:collect="always"
         stdDeviation="3.1455165"
         id="feGaussianBlur24" /></filter><filter
       inkscape:collect="always"
       style="color-interpolation-filters:sRGB"
       id="filter25"
       x="-0.017094255"
       y="-0.014607479"
       width="1.0341921"
       height="1.0292581"><feGaussianBlur
         inkscape:collect="always"
         stdDeviation="12.582066"
         id="feGaussianBlur25" /></filter><filter
       inkscape:collect="always"
       style="color-interpolation-filters:sRGB"
       id="filter26"
       x="-0.033372896"
       y="-0.028515066"
       width="1.0667494"
       height="1.0570733"><feGaussianBlur
         inkscape:collect="always"
         stdDeviation="28.309648"
         id="feGaussianBlur26" /></filter><filter
       inkscape:collect="always"
       style="color-interpolation-filters:sRGB"
       id="filter27"
       x="-0.056163014"
       y="-0.047985705"
       width="1.1123296"
       height="1.0960146"><feGaussianBlur
         inkscape:collect="always"
         stdDeviation="50.328287"
         id="feGaussianBlur27" /></filter></defs><g
     inkscape:label="Layer 1"
     inkscape:groupmode="layer"
     id="layer1"
     transform="translate(247.96266,243.9817)"><path
       id="path14"
       style="fill:none;stroke:#beb41e;stroke-width:18.8976;stroke-linejoin:round;stroke-dasharray:none;stroke-opacity:1;paint-order:stroke markers fill;filter:url(#filter27)"
       d="m 360.27344,-791.89649 -1.60156,913.21485 c -1.52412,869.78204 -2.07655,915.48894 -11.625,961.05664 -10.6556,50.8517 -24.46984,80.2077 -61.98828,131.7285 -96.07926,131.9375 -292.2774674,180.3694 -447.2129,110.3965 -18.7938,-8.4878 -35.22867,-14.3747 -36.52148,-13.082 -1.29282,1.2929 16.48434,21.4117 39.5039,44.709 47.03314,47.6004 94.278434,74.9594 158.53516124,91.8066 v 0 c 52.90078076,13.8696 137.85190876,13.8792 192.02734876,0.023 64.69704,-16.5467 111.1801,-43.8159 163.60742,-95.9844 51.62258,-51.3676 74.55145,-91.1127 87.76367,-152.1308 14.37683,-66.3966 18.18323,-294.55039 18.34961,-1099.857471 l 0.16211,-785.230479 h 170.38477 170.38477 l -2.85156,-46.66016 c -1.56833,-25.66328 -3.77648,-49.65998 -4.90625,-53.32617 -1.5991,-5.18909 -49.90068,-6.66601 -218.03321,-6.66601 z m 106.33203,111.98633 v 868.6543 c 0,868.63826 -1.15222,930.66486 -18.92187,1019.02936 -20.8252,103.5591 -120.76859,205.6763 -237.04493,242.2011 -151.43106,47.5677 -331.66576,-8.791 -407.67773,-127.4804 -5.63502,-8.7988 -16.40029,-20.732 -23.92188,-26.5176 -72.00767,-55.3884 -110.09607,-116.3189 -128.43164,-205.4531 -12.45304,-60.5378 -13.11302,-94.95924 -2.91797,-151.98052 9.07737,-50.77005 18.23393,-77.5842 41.57031,-121.74024 20.89614,-39.53873 80.5345,-100.5305 122.49024,-125.26953 65.60429,-38.68332 161.545295,-58.10045 253.57422,-51.31836 l 49.32813,3.63672 V 458.48438 273.11914 l -65.326178,3.79883 c -190.517582,11.07913 -338.568082,68.78916 -469.953132,183.1875 -101.40002,88.29012 -193.1252,227.49546 -234.43555,355.78712 -41.5383,128.99956 -43.51172,142.30716 -43.51172,293.29491 v 138.6485 l 16.89649,61.7812 c 24.82413,90.7665 49.1133,151.4191 87.5,218.4844 37.93799,66.2812 56.94642,86.0312 132.77148,137.9648 110.32927,75.5661 249.14687,125.4751 392.08204,140.9649 50.325574,5.4538 193.16153,-1.37 245.30078,-11.7188 312.61678,-62.0495 530.39225,-300.8946 601.16798,-659.332 11.32768,-57.3681 11.65225,-70.8004 13.45703,-556.05666 1.0605,-285.1476 3.87159,-497.267589 6.58985,-497.267589 2.60717,0 6.10063,2.20168 7.76367,4.892578 1.66309,2.690899 20.40224,17.912761 41.64258,33.826171 123.20737,92.30793 317.78803,158.36583 522.63083,177.42774 l 36.0703,3.35547 -1.4082,-171.74805 -1.4082,-171.748051 -45.3261,-11.964844 c -112.9343,-29.812973 -205.4606,-82.888635 -275.7442,-158.171875 -16.9853,-18.19353 -55.1984,-57.34011 -84.91795,-86.99219 -95.48286,-95.2662 -151.0127,-197.7077 -185.80859,-342.78321 l -9.27344,-38.66015 H 634.00977 Z m 385.87306,0 c -40.64342,0 -45.01844,0.95976 -42.53907,9.33203 1.51999,5.13265 7.77992,29.31323 13.91016,53.73633 27.70091,110.36142 80.28498,209.12675 154.68945,290.53711 15.43879,16.89249 29.06273,29.72054 30.27543,28.50781 1.2128,-1.21272 -4.6091,-13.89476 -12.93753,-28.18164 -50.5747,-86.75763 -81.85201,-193.19487 -94.9961,-323.26954 l -3.09961,-30.6621 z m 214.02347,438.4668 c -0.1927,0.009 -0.331,0.0537 -0.4102,0.13281 -3.5897,3.58973 67.5008,71.68003 96.7969,92.71289 51.4219,36.91801 152.4608,80.805257 228.9297,99.43555 5.8659,1.429124 11.2647,2.876569 11.998,3.216797 0.7332,0.340222 1.3321,-20.634024 1.3321,-46.609376 V -139.7832 l -38.0645,-3.53711 c -96.4171,-8.96103 -192.8918,-38.28797 -265.0156,-80.5586 -17.3627,-10.17597 -32.6766,-17.70624 -35.5664,-17.56445 z m 343.9804,200.292969 V 133.42578 308.00391 l -43.9941,-3.77344 C 1173.4821,287.67921 963.6652,216.36834 844.73439,126.89844 823.74793,111.11064 805.07402,99.6958 803.23634,101.5332 c -1.83773,1.83741 -4.8801,224.51183 -6.76172,494.83204 -3.7273,535.46476 -2.49849,513.89096 -36.03125,632.80666 -61.46538,217.9719 -187.29728,388.6964 -360.59766,489.248 -181.52661,105.3246 -437.885843,126.4735 -655.81251,54.1016 -64.61787,-21.4591 -155.50819,-65.8361 -210.16602,-102.6133 -24.66963,-16.5992 -45.70843,-29.3247 -46.75391,-28.2793 -2.84406,2.8441 55.11559,60.193 91.60938,90.6446 69.2476,57.7824 168.72883,112.8945 263.96485,146.2343 41.57197,14.5534 94.667057,26.4187 170.644531,38.1368 76.292707,11.7665 221.977479,4.0046 303.958989,-16.1954 75.91062,-18.7039 168.73845,-59.5557 230.25391,-101.33 46.39889,-31.5089 54.5794,-38.48 108.51953,-92.4766 128.77315,-128.9083 215.79084,-323.6406 236.84961,-530.0293 3.48834,-34.188 5.63477,-230.72054 5.63477,-515.93165 0,-253.38913 1.18667,-460.70704 2.63672,-460.70704 1.44999,0 21.52018,14.00144 44.60156,31.11524 120.84138,89.59837 283.20128,149.14575 475.02148,174.21875 33.5424,4.38435 67.7383,7.9707 75.9902,7.9707 h 15.004 V 192.66406 -27.951172 l -38.6622,-3.701172 c -21.2637,-2.036004 -44.061,-5.007698 -50.6601,-6.601563 z M -25.548828,162.74024 c -346.073262,0.50843 -624.709062,209.32684 -740.189462,554.71875 -34.32784,102.67163 -43.75512,173.70604 -40.66406,306.40621 2.21615,95.1403 4.62159,120.4189 15.99218,168.0528 32.31129,135.3585 101.44066,267.0207 186.79688,355.7676 11.92963,12.4036 22.44717,21.7951 23.3711,20.8711 0.92392,-0.9239 -10.2419,-21.5147 -24.81251,-45.7579 -42.60699,-70.8914 -75.83237,-165.1379 -96.93554,-274.9628 -9.22587,-48.0132 -9.31445,-232.9799 -0.13282,-277.29693 31.02877,-149.76642 63.35285,-237.04644 123.4668,-333.37891 C -437.00713,410.1678 -218.47753,281.58544 43.994141,270.79297 l 75.990239,-3.125 v -46.53125 -46.5293 L 79.771485,168.62696 C 57.654616,165.33747 10.259994,162.68764 -25.548828,162.74024 Z M 119.98438,273.09961 v 187.23633 187.23633 l -73.324223,-0.40429 c -103.991255,-0.57453 -169.798557,13.91228 -233.939457,51.49804 -39.85006,23.35165 -97.90482,85.38257 -120.94727,129.23243 -73.26596,139.42539 -53.23723,315.63915 48.08204,423.04295 34.14305,36.1934 49.04033,46.08 41.52929,27.5586 C -297.42918,1084.1528 -230.47322,878.43581 -61.326173,795.2461 13.1071,758.63841 111.32204,742.10456 187.97461,753.27735 l 33.33008,4.85743 V 522.29298 286.45313 l -12.45312,-3.12695 c -6.84923,-1.71905 -29.64638,-4.72276 -50.66016,-6.67579 z"
       transform="scale(0.26458333)" /><path
       id="path21"
       style="fill:none;stroke:#beb41e;stroke-width:18.8976;stroke-linejoin:round;stroke-dasharray:none;stroke-opacity:1;paint-order:stroke markers fill;filter:url(#filter26)"
       d="m 360.27344,-791.89649 -1.60156,913.21485 c -1.52412,869.78204 -2.07655,915.48894 -11.625,961.05664 -10.6556,50.8517 -24.46984,80.2077 -61.98828,131.7285 -96.07926,131.9375 -292.2774674,180.3694 -447.2129,110.3965 -18.7938,-8.4878 -35.22867,-14.3747 -36.52148,-13.082 -1.29282,1.2929 16.48434,21.4117 39.5039,44.709 47.03314,47.6004 94.278434,74.9594 158.53516124,91.8066 v 0 c 52.90078076,13.8696 137.85190876,13.8792 192.02734876,0.023 64.69704,-16.5467 111.1801,-43.8159 163.60742,-95.9844 51.62258,-51.3676 74.55145,-91.1127 87.76367,-152.1308 14.37683,-66.3966 18.18323,-294.55039 18.34961,-1099.857471 l 0.16211,-785.230479 h 170.38477 170.38477 l -2.85156,-46.66016 c -1.56833,-25.66328 -3.77648,-49.65998 -4.90625,-53.32617 -1.5991,-5.18909 -49.90068,-6.66601 -218.03321,-6.66601 z m 106.33203,111.98633 v 868.6543 c 0,868.63826 -1.15222,930.66486 -18.92187,1019.02936 -20.8252,103.5591 -120.76859,205.6763 -237.04493,242.2011 -151.43106,47.5677 -331.66576,-8.791 -407.67773,-127.4804 -5.63502,-8.7988 -16.40029,-20.732 -23.92188,-26.5176 -72.00767,-55.3884 -110.09607,-116.3189 -128.43164,-205.4531 -12.45304,-60.5378 -13.11302,-94.95924 -2.91797,-151.98052 9.07737,-50.77005 18.23393,-77.5842 41.57031,-121.74024 20.89614,-39.53873 80.5345,-100.5305 122.49024,-125.26953 65.60429,-38.68332 161.545295,-58.10045 253.57422,-51.31836 l 49.32813,3.63672 V 458.48438 273.11914 l -65.326178,3.79883 c -190.517582,11.07913 -338.568082,68.78916 -469.953132,183.1875 -101.40002,88.29012 -193.1252,227.49546 -234.43555,355.78712 -41.5383,128.99956 -43.51172,142.30716 -43.51172,293.29491 v 138.6485 l 16.89649,61.7812 c 24.82413,90.7665 49.1133,151.4191 87.5,218.4844 37.93799,66.2812 56.94642,86.0312 132.77148,137.9648 110.32927,75.5661 249.14687,125.4751 392.08204,140.9649 50.325574,5.4538 193.16153,-1.37 245.30078,-11.7188 312.61678,-62.0495 530.39225,-300.8946 601.16798,-659.332 11.32768,-57.3681 11.65225,-70.8004 13.45703,-556.05666 1.0605,-285.1476 3.87159,-497.267589 6.58985,-497.267589 2.60717,0 6.10063,2.20168 7.76367,4.892578 1.66309,2.690899 20.40224,17.912761 41.64258,33.826171 123.20737,92.30793 317.78803,158.36583 522.63083,177.42774 l 36.0703,3.35547 -1.4082,-171.74805 -1.4082,-171.748051 -45.3261,-11.964844 c -112.9343,-29.812973 -205.4606,-82.888635 -275.7442,-158.171875 -16.9853,-18.19353 -55.1984,-57.34011 -84.91795,-86.99219 -95.48286,-95.2662 -151.0127,-197.7077 -185.80859,-342.78321 l -9.27344,-38.66015 H 634.00977 Z m 385.87306,0 c -40.64342,0 -45.01844,0.95976 -42.53907,9.33203 1.51999,5.13265 7.77992,29.31323 13.91016,53.73633 27.70091,110.36142 80.28498,209.12675 154.68945,290.53711 15.43879,16.89249 29.06273,29.72054 30.27543,28.50781 1.2128,-1.21272 -4.6091,-13.89476 -12.93753,-28.18164 -50.5747,-86.75763 -81.85201,-193.19487 -94.9961,-323.26954 l -3.09961,-30.6621 z m 214.02347,438.4668 c -0.1927,0.009 -0.331,0.0537 -0.4102,0.13281 -3.5897,3.58973 67.5008,71.68003 96.7969,92.71289 51.4219,36.91801 152.4608,80.805257 228.9297,99.43555 5.8659,1.429124 11.2647,2.876569 11.998,3.216797 0.7332,0.340222 1.3321,-20.634024 1.3321,-46.609376 V -139.7832 l -38.0645,-3.53711 c -96.4171,-8.96103 -192.8918,-38.28797 -265.0156,-80.5586 -17.3627,-10.17597 -32.6766,-17.70624 -35.5664,-17.56445 z m 343.9804,200.292969 V 133.42578 308.00391 l -43.9941,-3.77344 C 1173.4821,287.67921 963.6652,216.36834 844.73439,126.89844 823.74793,111.11064 805.07402,99.6958 803.23634,101.5332 c -1.83773,1.83741 -4.8801,224.51183 -6.76172,494.83204 -3.7273,535.46476 -2.49849,513.89096 -36.03125,632.80666 -61.46538,217.9719 -187.29728,388.6964 -360.59766,489.248 -181.52661,105.3246 -437.885843,126.4735 -655.81251,54.1016 -64.61787,-21.4591 -155.50819,-65.8361 -210.16602,-102.6133 -24.66963,-16.5992 -45.70843,-29.3247 -46.75391,-28.2793 -2.84406,2.8441 55.11559,60.193 91.60938,90.6446 69.2476,57.7824 168.72883,112.8945 263.96485,146.2343 41.57197,14.5534 94.667057,26.4187 170.644531,38.1368 76.292707,11.7665 221.977479,4.0046 303.958989,-16.1954 75.91062,-18.7039 168.73845,-59.5557 230.25391,-101.33 46.39889,-31.5089 54.5794,-38.48 108.51953,-92.4766 128.77315,-128.9083 215.79084,-323.6406 236.84961,-530.0293 3.48834,-34.188 5.63477,-230.72054 5.63477,-515.93165 0,-253.38913 1.18667,-460.70704 2.63672,-460.70704 1.44999,0 21.52018,14.00144 44.60156,31.11524 120.84138,89.59837 283.20128,149.14575 475.02148,174.21875 33.5424,4.38435 67.7383,7.9707 75.9902,7.9707 h 15.004 V 192.66406 -27.951172 l -38.6622,-3.701172 c -21.2637,-2.036004 -44.061,-5.007698 -50.6601,-6.601563 z M -25.548828,162.74024 c -346.073262,0.50843 -624.709062,209.32684 -740.189462,554.71875 -34.32784,102.67163 -43.75512,173.70604 -40.66406,306.40621 2.21615,95.1403 4.62159,120.4189 15.99218,168.0528 32.31129,135.3585 101.44066,267.0207 186.79688,355.7676 11.92963,12.4036 22.44717,21.7951 23.3711,20.8711 0.92392,-0.9239 -10.2419,-21.5147 -24.81251,-45.7579 -42.60699,-70.8914 -75.83237,-165.1379 -96.93554,-274.9628 -9.22587,-48.0132 -9.31445,-232.9799 -0.13282,-277.29693 31.02877,-149.76642 63.35285,-237.04644 123.4668,-333.37891 C -437.00713,410.1678 -218.47753,281.58544 43.994141,270.79297 l 75.990239,-3.125 v -46.53125 -46.5293 L 79.771485,168.62696 C 57.654616,165.33747 10.259994,162.68764 -25.548828,162.74024 Z M 119.98438,273.09961 v 187.23633 187.23633 l -73.324223,-0.40429 c -103.991255,-0.57453 -169.798557,13.91228 -233.939457,51.49804 -39.85006,23.35165 -97.90482,85.38257 -120.94727,129.23243 -73.26596,139.42539 -53.23723,315.63915 48.08204,423.04295 34.14305,36.1934 49.04033,46.08 41.52929,27.5586 C -297.42918,1084.1528 -230.47322,878.43581 -61.326173,795.2461 13.1071,758.63841 111.32204,742.10456 187.97461,753.27735 l 33.33008,4.85743 V 522.29298 286.45313 l -12.45312,-3.12695 c -6.84923,-1.71905 -29.64638,-4.72276 -50.66016,-6.67579 z"
       transform="scale(0.26458333)" /><path
       id="path22"
       style="fill:none;stroke:#beb41e;stroke-width:18.8976;stroke-linejoin:round;stroke-dasharray:none;stroke-opacity:1;paint-order:stroke markers fill;filter:url(#filter25)"
       d="m 360.27344,-791.89649 -1.60156,913.21485 c -1.52412,869.78204 -2.07655,915.48894 -11.625,961.05664 -10.6556,50.8517 -24.46984,80.2077 -61.98828,131.7285 -96.07926,131.9375 -292.2774674,180.3694 -447.2129,110.3965 -18.7938,-8.4878 -35.22867,-14.3747 -36.52148,-13.082 -1.29282,1.2929 16.48434,21.4117 39.5039,44.709 47.03314,47.6004 94.278434,74.9594 158.53516124,91.8066 v 0 c 52.90078076,13.8696 137.85190876,13.8792 192.02734876,0.023 64.69704,-16.5467 111.1801,-43.8159 163.60742,-95.9844 51.62258,-51.3676 74.55145,-91.1127 87.76367,-152.1308 14.37683,-66.3966 18.18323,-294.55039 18.34961,-1099.857471 l 0.16211,-785.230479 h 170.38477 170.38477 l -2.85156,-46.66016 c -1.56833,-25.66328 -3.77648,-49.65998 -4.90625,-53.32617 -1.5991,-5.18909 -49.90068,-6.66601 -218.03321,-6.66601 z m 106.33203,111.98633 v 868.6543 c 0,868.63826 -1.15222,930.66486 -18.92187,1019.02936 -20.8252,103.5591 -120.76859,205.6763 -237.04493,242.2011 -151.43106,47.5677 -331.66576,-8.791 -407.67773,-127.4804 -5.63502,-8.7988 -16.40029,-20.732 -23.92188,-26.5176 -72.00767,-55.3884 -110.09607,-116.3189 -128.43164,-205.4531 -12.45304,-60.5378 -13.11302,-94.95924 -2.91797,-151.98052 9.07737,-50.77005 18.23393,-77.5842 41.57031,-121.74024 20.89614,-39.53873 80.5345,-100.5305 122.49024,-125.26953 65.60429,-38.68332 161.545295,-58.10045 253.57422,-51.31836 l 49.32813,3.63672 V 458.48438 273.11914 l -65.326178,3.79883 c -190.517582,11.07913 -338.568082,68.78916 -469.953132,183.1875 -101.40002,88.29012 -193.1252,227.49546 -234.43555,355.78712 -41.5383,128.99956 -43.51172,142.30716 -43.51172,293.29491 v 138.6485 l 16.89649,61.7812 c 24.82413,90.7665 49.1133,151.4191 87.5,218.4844 37.93799,66.2812 56.94642,86.0312 132.77148,137.9648 110.32927,75.5661 249.14687,125.4751 392.08204,140.9649 50.325574,5.4538 193.16153,-1.37 245.30078,-11.7188 312.61678,-62.0495 530.39225,-300.8946 601.16798,-659.332 11.32768,-57.3681 11.65225,-70.8004 13.45703,-556.05666 1.0605,-285.1476 3.87159,-497.267589 6.58985,-497.267589 2.60717,0 6.10063,2.20168 7.76367,4.892578 1.66309,2.690899 20.40224,17.912761 41.64258,33.826171 123.20737,92.30793 317.78803,158.36583 522.63083,177.42774 l 36.0703,3.35547 -1.4082,-171.74805 -1.4082,-171.748051 -45.3261,-11.964844 c -112.9343,-29.812973 -205.4606,-82.888635 -275.7442,-158.171875 -16.9853,-18.19353 -55.1984,-57.34011 -84.91795,-86.99219 -95.48286,-95.2662 -151.0127,-197.7077 -185.80859,-342.78321 l -9.27344,-38.66015 H 634.00977 Z m 385.87306,0 c -40.64342,0 -45.01844,0.95976 -42.53907,9.33203 1.51999,5.13265 7.77992,29.31323 13.91016,53.73633 27.70091,110.36142 80.28498,209.12675 154.68945,290.53711 15.43879,16.89249 29.06273,29.72054 30.27543,28.50781 1.2128,-1.21272 -4.6091,-13.89476 -12.93753,-28.18164 -50.5747,-86.75763 -81.85201,-193.19487 -94.9961,-323.26954 l -3.09961,-30.6621 z m 214.02347,438.4668 c -0.1927,0.009 -0.331,0.0537 -0.4102,0.13281 -3.5897,3.58973 67.5008,71.68003 96.7969,92.71289 51.4219,36.91801 152.4608,80.805257 228.9297,99.43555 5.8659,1.429124 11.2647,2.876569 11.998,3.216797 0.7332,0.340222 1.3321,-20.634024 1.3321,-46.609376 V -139.7832 l -38.0645,-3.53711 c -96.4171,-8.96103 -192.8918,-38.28797 -265.0156,-80.5586 -17.3627,-10.17597 -32.6766,-17.70624 -35.5664,-17.56445 z m 343.9804,200.292969 V 133.42578 308.00391 l -43.9941,-3.77344 C 1173.4821,287.67921 963.6652,216.36834 844.73439,126.89844 823.74793,111.11064 805.07402,99.6958 803.23634,101.5332 c -1.83773,1.83741 -4.8801,224.51183 -6.76172,494.83204 -3.7273,535.46476 -2.49849,513.89096 -36.03125,632.80666 -61.46538,217.9719 -187.29728,388.6964 -360.59766,489.248 -181.52661,105.3246 -437.885843,126.4735 -655.81251,54.1016 -64.61787,-21.4591 -155.50819,-65.8361 -210.16602,-102.6133 -24.66963,-16.5992 -45.70843,-29.3247 -46.75391,-28.2793 -2.84406,2.8441 55.11559,60.193 91.60938,90.6446 69.2476,57.7824 168.72883,112.8945 263.96485,146.2343 41.57197,14.5534 94.667057,26.4187 170.644531,38.1368 76.292707,11.7665 221.977479,4.0046 303.958989,-16.1954 75.91062,-18.7039 168.73845,-59.5557 230.25391,-101.33 46.39889,-31.5089 54.5794,-38.48 108.51953,-92.4766 128.77315,-128.9083 215.79084,-323.6406 236.84961,-530.0293 3.48834,-34.188 5.63477,-230.72054 5.63477,-515.93165 0,-253.38913 1.18667,-460.70704 2.63672,-460.70704 1.44999,0 21.52018,14.00144 44.60156,31.11524 120.84138,89.59837 283.20128,149.14575 475.02148,174.21875 33.5424,4.38435 67.7383,7.9707 75.9902,7.9707 h 15.004 V 192.66406 -27.951172 l -38.6622,-3.701172 c -21.2637,-2.036004 -44.061,-5.007698 -50.6601,-6.601563 z M -25.548828,162.74024 c -346.073262,0.50843 -624.709062,209.32684 -740.189462,554.71875 -34.32784,102.67163 -43.75512,173.70604 -40.66406,306.40621 2.21615,95.1403 4.62159,120.4189 15.99218,168.0528 32.31129,135.3585 101.44066,267.0207 186.79688,355.7676 11.92963,12.4036 22.44717,21.7951 23.3711,20.8711 0.92392,-0.9239 -10.2419,-21.5147 -24.81251,-45.7579 -42.60699,-70.8914 -75.83237,-165.1379 -96.93554,-274.9628 -9.22587,-48.0132 -9.31445,-232.9799 -0.13282,-277.29693 31.02877,-149.76642 63.35285,-237.04644 123.4668,-333.37891 C -437.00713,410.1678 -218.47753,281.58544 43.994141,270.79297 l 75.990239,-3.125 v -46.53125 -46.5293 L 79.771485,168.62696 C 57.654616,165.33747 10.259994,162.68764 -25.548828,162.74024 Z M 119.98438,273.09961 v 187.23633 187.23633 l -73.324223,-0.40429 c -103.991255,-0.57453 -169.798557,13.91228 -233.939457,51.49804 -39.85006,23.35165 -97.90482,85.38257 -120.94727,129.23243 -73.26596,139.42539 -53.23723,315.63915 48.08204,423.04295 34.14305,36.1934 49.04033,46.08 41.52929,27.5586 C -297.42918,1084.1528 -230.47322,878.43581 -61.326173,795.2461 13.1071,758.63841 111.32204,742.10456 187.97461,753.27735 l 33.33008,4.85743 V 522.29298 286.45313 l -12.45312,-3.12695 c -6.84923,-1.71905 -29.64638,-4.72276 -50.66016,-6.67579 z"
       transform="scale(0.26458333)" /><path
       id="path23"
       style="fill:none;stroke:#beb41e;stroke-width:18.8976;stroke-linejoin:round;stroke-dasharray:none;stroke-opacity:1;paint-order:stroke markers fill;filter:url(#filter24)"
       d="m 360.27344,-791.89649 -1.60156,913.21485 c -1.52412,869.78204 -2.07655,915.48894 -11.625,961.05664 -10.6556,50.8517 -24.46984,80.2077 -61.98828,131.7285 -96.07926,131.9375 -292.2774674,180.3694 -447.2129,110.3965 -18.7938,-8.4878 -35.22867,-14.3747 -36.52148,-13.082 -1.29282,1.2929 16.48434,21.4117 39.5039,44.709 47.03314,47.6004 94.278434,74.9594 158.53516124,91.8066 v 0 c 52.90078076,13.8696 137.85190876,13.8792 192.02734876,0.023 64.69704,-16.5467 111.1801,-43.8159 163.60742,-95.9844 51.62258,-51.3676 74.55145,-91.1127 87.76367,-152.1308 14.37683,-66.3966 18.18323,-294.55039 18.34961,-1099.857471 l 0.16211,-785.230479 h 170.38477 170.38477 l -2.85156,-46.66016 c -1.56833,-25.66328 -3.77648,-49.65998 -4.90625,-53.32617 -1.5991,-5.18909 -49.90068,-6.66601 -218.03321,-6.66601 z m 106.33203,111.98633 v 868.6543 c 0,868.63826 -1.15222,930.66486 -18.92187,1019.02936 -20.8252,103.5591 -120.76859,205.6763 -237.04493,242.2011 -151.43106,47.5677 -331.66576,-8.791 -407.67773,-127.4804 -5.63502,-8.7988 -16.40029,-20.732 -23.92188,-26.5176 -72.00767,-55.3884 -110.09607,-116.3189 -128.43164,-205.4531 -12.45304,-60.5378 -13.11302,-94.95924 -2.91797,-151.98052 9.07737,-50.77005 18.23393,-77.5842 41.57031,-121.74024 20.89614,-39.53873 80.5345,-100.5305 122.49024,-125.26953 65.60429,-38.68332 161.545295,-58.10045 253.57422,-51.31836 l 49.32813,3.63672 V 458.48438 273.11914 l -65.326178,3.79883 c -190.517582,11.07913 -338.568082,68.78916 -469.953132,183.1875 -101.40002,88.29012 -193.1252,227.49546 -234.43555,355.78712 -41.5383,128.99956 -43.51172,142.30716 -43.51172,293.29491 v 138.6485 l 16.89649,61.7812 c 24.82413,90.7665 49.1133,151.4191 87.5,218.4844 37.93799,66.2812 56.94642,86.0312 132.77148,137.9648 110.32927,75.5661 249.14687,125.4751 392.08204,140.9649 50.325574,5.4538 193.16153,-1.37 245.30078,-11.7188 312.61678,-62.0495 530.39225,-300.8946 601.16798,-659.332 11.32768,-57.3681 11.65225,-70.8004 13.45703,-556.05666 1.0605,-285.1476 3.87159,-497.267589 6.58985,-497.267589 2.60717,0 6.10063,2.20168 7.76367,4.892578 1.66309,2.690899 20.40224,17.912761 41.64258,33.826171 123.20737,92.30793 317.78803,158.36583 522.63083,177.42774 l 36.0703,3.35547 -1.4082,-171.74805 -1.4082,-171.748051 -45.3261,-11.964844 c -112.9343,-29.812973 -205.4606,-82.888635 -275.7442,-158.171875 -16.9853,-18.19353 -55.1984,-57.34011 -84.91795,-86.99219 -95.48286,-95.2662 -151.0127,-197.7077 -185.80859,-342.78321 l -9.27344,-38.66015 H 634.00977 Z m 385.87306,0 c -40.64342,0 -45.01844,0.95976 -42.53907,9.33203 1.51999,5.13265 7.77992,29.31323 13.91016,53.73633 27.70091,110.36142 80.28498,209.12675 154.68945,290.53711 15.43879,16.89249 29.06273,29.72054 30.27543,28.50781 1.2128,-1.21272 -4.6091,-13.89476 -12.93753,-28.18164 -50.5747,-86.75763 -81.85201,-193.19487 -94.9961,-323.26954 l -3.09961,-30.6621 z m 214.02347,438.4668 c -0.1927,0.009 -0.331,0.0537 -0.4102,0.13281 -3.5897,3.58973 67.5008,71.68003 96.7969,92.71289 51.4219,36.91801 152.4608,80.805257 228.9297,99.43555 5.8659,1.429124 11.2647,2.876569 11.998,3.216797 0.7332,0.340222 1.3321,-20.634024 1.3321,-46.609376 V -139.7832 l -38.0645,-3.53711 c -96.4171,-8.96103 -192.8918,-38.28797 -265.0156,-80.5586 -17.3627,-10.17597 -32.6766,-17.70624 -35.5664,-17.56445 z m 343.9804,200.292969 V 133.42578 308.00391 l -43.9941,-3.77344 C 1173.4821,287.67921 963.6652,216.36834 844.73439,126.89844 823.74793,111.11064 805.07402,99.6958 803.23634,101.5332 c -1.83773,1.83741 -4.8801,224.51183 -6.76172,494.83204 -3.7273,535.46476 -2.49849,513.89096 -36.03125,632.80666 -61.46538,217.9719 -187.29728,388.6964 -360.59766,489.248 -181.52661,105.3246 -437.885843,126.4735 -655.81251,54.1016 -64.61787,-21.4591 -155.50819,-65.8361 -210.16602,-102.6133 -24.66963,-16.5992 -45.70843,-29.3247 -46.75391,-28.2793 -2.84406,2.8441 55.11559,60.193 91.60938,90.6446 69.2476,57.7824 168.72883,112.8945 263.96485,146.2343 41.57197,14.5534 94.667057,26.4187 170.644531,38.1368 76.292707,11.7665 221.977479,4.0046 303.958989,-16.1954 75.91062,-18.7039 168.73845,-59.5557 230.25391,-101.33 46.39889,-31.5089 54.5794,-38.48 108.51953,-92.4766 128.77315,-128.9083 215.79084,-323.6406 236.84961,-530.0293 3.48834,-34.188 5.63477,-230.72054 5.63477,-515.93165 0,-253.38913 1.18667,-460.70704 2.63672,-460.70704 1.44999,0 21.52018,14.00144 44.60156,31.11524 120.84138,89.59837 283.20128,149.14575 475.02148,174.21875 33.5424,4.38435 67.7383,7.9707 75.9902,7.9707 h 15.004 V 192.66406 -27.951172 l -38.6622,-3.701172 c -21.2637,-2.036004 -44.061,-5.007698 -50.6601,-6.601563 z M -25.548828,162.74024 c -346.073262,0.50843 -624.709062,209.32684 -740.189462,554.71875 -34.32784,102.67163 -43.75512,173.70604 -40.66406,306.40621 2.21615,95.1403 4.62159,120.4189 15.99218,168.0528 32.31129,135.3585 101.44066,267.0207 186.79688,355.7676 11.92963,12.4036 22.44717,21.7951 23.3711,20.8711 0.92392,-0.9239 -10.2419,-21.5147 -24.81251,-45.7579 -42.60699,-70.8914 -75.83237,-165.1379 -96.93554,-274.9628 -9.22587,-48.0132 -9.31445,-232.9799 -0.13282,-277.29693 31.02877,-149.76642 63.35285,-237.04644 123.4668,-333.37891 C -437.00713,410.1678 -218.47753,281.58544 43.994141,270.79297 l 75.990239,-3.125 v -46.53125 -46.5293 L 79.771485,168.62696 C 57.654616,165.33747 10.259994,162.68764 -25.548828,162.74024 Z M 119.98438,273.09961 v 187.23633 187.23633 l -73.324223,-0.40429 c -103.991255,-0.57453 -169.798557,13.91228 -233.939457,51.49804 -39.85006,23.35165 -97.90482,85.38257 -120.94727,129.23243 -73.26596,139.42539 -53.23723,315.63915 48.08204,423.04295 34.14305,36.1934 49.04033,46.08 41.52929,27.5586 C -297.42918,1084.1528 -230.47322,878.43581 -61.326173,795.2461 13.1071,758.63841 111.32204,742.10456 187.97461,753.27735 l 33.33008,4.85743 V 522.29298 286.45313 l -12.45312,-3.12695 c -6.84923,-1.71905 -29.64638,-4.72276 -50.66016,-6.67579 z"
       transform="scale(0.26458333)" /><path
       id="path24"
       style="fill:none;stroke:#beb41e;stroke-width:18.8976;stroke-linejoin:round;stroke-dasharray:none;stroke-opacity:1;paint-order:stroke markers fill"
       d="m 360.27344,-791.89649 -1.60156,913.21485 c -1.52412,869.78204 -2.07655,915.48894 -11.625,961.05664 -10.6556,50.8517 -24.46984,80.2077 -61.98828,131.7285 -96.07926,131.9375 -292.2774674,180.3694 -447.2129,110.3965 -18.7938,-8.4878 -35.22867,-14.3747 -36.52148,-13.082 -1.29282,1.2929 16.48434,21.4117 39.5039,44.709 47.03314,47.6004 94.278434,74.9594 158.53516124,91.8066 v 0 c 52.90078076,13.8696 137.85190876,13.8792 192.02734876,0.023 64.69704,-16.5467 111.1801,-43.8159 163.60742,-95.9844 51.62258,-51.3676 74.55145,-91.1127 87.76367,-152.1308 14.37683,-66.3966 18.18323,-294.55039 18.34961,-1099.857471 l 0.16211,-785.230479 h 170.38477 170.38477 l -2.85156,-46.66016 c -1.56833,-25.66328 -3.77648,-49.65998 -4.90625,-53.32617 -1.5991,-5.18909 -49.90068,-6.66601 -218.03321,-6.66601 z m 106.33203,111.98633 v 868.6543 c 0,868.63826 -1.15222,930.66486 -18.92187,1019.02936 -20.8252,103.5591 -120.76859,205.6763 -237.04493,242.2011 -151.43106,47.5677 -331.66576,-8.791 -407.67773,-127.4804 -5.63502,-8.7988 -16.40029,-20.732 -23.92188,-26.5176 -72.00767,-55.3884 -110.09607,-116.3189 -128.43164,-205.4531 -12.45304,-60.5378 -13.11302,-94.95924 -2.91797,-151.98052 9.07737,-50.77005 18.23393,-77.5842 41.57031,-121.74024 20.89614,-39.53873 80.5345,-100.5305 122.49024,-125.26953 65.60429,-38.68332 161.545295,-58.10045 253.57422,-51.31836 l 49.32813,3.63672 V 458.48438 273.11914 l -65.326178,3.79883 c -190.517582,11.07913 -338.568082,68.78916 -469.953132,183.1875 -101.40002,88.29012 -193.1252,227.49546 -234.43555,355.78712 -41.5383,128.99956 -43.51172,142.30716 -43.51172,293.29491 v 138.6485 l 16.89649,61.7812 c 24.82413,90.7665 49.1133,151.4191 87.5,218.4844 37.93799,66.2812 56.94642,86.0312 132.77148,137.9648 110.32927,75.5661 249.14687,125.4751 392.08204,140.9649 50.325574,5.4538 193.16153,-1.37 245.30078,-11.7188 312.61678,-62.0495 530.39225,-300.8946 601.16798,-659.332 11.32768,-57.3681 11.65225,-70.8004 13.45703,-556.05666 1.0605,-285.1476 3.87159,-497.267589 6.58985,-497.267589 2.60717,0 6.10063,2.20168 7.76367,4.892578 1.66309,2.690899 20.40224,17.912761 41.64258,33.826171 123.20737,92.30793 317.78803,158.36583 522.63083,177.42774 l 36.0703,3.35547 -1.4082,-171.74805 -1.4082,-171.748051 -45.3261,-11.964844 c -112.9343,-29.812973 -205.4606,-82.888635 -275.7442,-158.171875 -16.9853,-18.19353 -55.1984,-57.34011 -84.91795,-86.99219 -95.48286,-95.2662 -151.0127,-197.7077 -185.80859,-342.78321 l -9.27344,-38.66015 H 634.00977 Z m 385.87306,0 c -40.64342,0 -45.01844,0.95976 -42.53907,9.33203 1.51999,5.13265 7.77992,29.31323 13.91016,53.73633 27.70091,110.36142 80.28498,209.12675 154.68945,290.53711 15.43879,16.89249 29.06273,29.72054 30.27543,28.50781 1.2128,-1.21272 -4.6091,-13.89476 -12.93753,-28.18164 -50.5747,-86.75763 -81.85201,-193.19487 -94.9961,-323.26954 l -3.09961,-30.6621 z m 214.02347,438.4668 c -0.1927,0.009 -0.331,0.0537 -0.4102,0.13281 -3.5897,3.58973 67.5008,71.68003 96.7969,92.71289 51.4219,36.91801 152.4608,80.805257 228.9297,99.43555 5.8659,1.429124 11.2647,2.876569 11.998,3.216797 0.7332,0.340222 1.3321,-20.634024 1.3321,-46.609376 V -139.7832 l -38.0645,-3.53711 c -96.4171,-8.96103 -192.8918,-38.28797 -265.0156,-80.5586 -17.3627,-10.17597 -32.6766,-17.70624 -35.5664,-17.56445 z m 343.9804,200.292969 V 133.42578 308.00391 l -43.9941,-3.77344 C 1173.4821,287.67921 963.6652,216.36834 844.73439,126.89844 823.74793,111.11064 805.07402,99.6958 803.23634,101.5332 c -1.83773,1.83741 -4.8801,224.51183 -6.76172,494.83204 -3.7273,535.46476 -2.49849,513.89096 -36.03125,632.80666 -61.46538,217.9719 -187.29728,388.6964 -360.59766,489.248 -181.52661,105.3246 -437.885843,126.4735 -655.81251,54.1016 -64.61787,-21.4591 -155.50819,-65.8361 -210.16602,-102.6133 -24.66963,-16.5992 -45.70843,-29.3247 -46.75391,-28.2793 -2.84406,2.8441 55.11559,60.193 91.60938,90.6446 69.2476,57.7824 168.72883,112.8945 263.96485,146.2343 41.57197,14.5534 94.667057,26.4187 170.644531,38.1368 76.292707,11.7665 221.977479,4.0046 303.958989,-16.1954 75.91062,-18.7039 168.73845,-59.5557 230.25391,-101.33 46.39889,-31.5089 54.5794,-38.48 108.51953,-92.4766 128.77315,-128.9083 215.79084,-323.6406 236.84961,-530.0293 3.48834,-34.188 5.63477,-230.72054 5.63477,-515.93165 0,-253.38913 1.18667,-460.70704 2.63672,-460.70704 1.44999,0 21.52018,14.00144 44.60156,31.11524 120.84138,89.59837 283.20128,149.14575 475.02148,174.21875 33.5424,4.38435 67.7383,7.9707 75.9902,7.9707 h 15.004 V 192.66406 -27.951172 l -38.6622,-3.701172 c -21.2637,-2.036004 -44.061,-5.007698 -50.6601,-6.601563 z M -25.548828,162.74024 c -346.073262,0.50843 -624.709062,209.32684 -740.189462,554.71875 -34.32784,102.67163 -43.75512,173.70604 -40.66406,306.40621 2.21615,95.1403 4.62159,120.4189 15.99218,168.0528 32.31129,135.3585 101.44066,267.0207 186.79688,355.7676 11.92963,12.4036 22.44717,21.7951 23.3711,20.8711 0.92392,-0.9239 -10.2419,-21.5147 -24.81251,-45.7579 -42.60699,-70.8914 -75.83237,-165.1379 -96.93554,-274.9628 -9.22587,-48.0132 -9.31445,-232.9799 -0.13282,-277.29693 31.02877,-149.76642 63.35285,-237.04644 123.4668,-333.37891 C -437.00713,410.1678 -218.47753,281.58544 43.994141,270.79297 l 75.990239,-3.125 v -46.53125 -46.5293 L 79.771485,168.62696 C 57.654616,165.33747 10.259994,162.68764 -25.548828,162.74024 Z M 119.98438,273.09961 v 187.23633 187.23633 l -73.324223,-0.40429 c -103.991255,-0.57453 -169.798557,13.91228 -233.939457,51.49804 -39.85006,23.35165 -97.90482,85.38257 -120.94727,129.23243 -73.26596,139.42539 -53.23723,315.63915 48.08204,423.04295 34.14305,36.1934 49.04033,46.08 41.52929,27.5586 C -297.42918,1084.1528 -230.47322,878.43581 -61.326173,795.2461 13.1071,758.63841 111.32204,742.10456 187.97461,753.27735 l 33.33008,4.85743 V 522.29298 286.45313 l -12.45312,-3.12695 c -6.84923,-1.71905 -29.64638,-4.72276 -50.66016,-6.67579 z"
       transform="scale(0.26458333)" /></g></svg>
