<?xml version="1.0" encoding="UTF-8" standalone="no"?>
<!-- Created with Inkscape (http://www.inkscape.org/) -->

<svg
   width="91.807785mm"
   height="91.813332mm"
   viewBox="0 0 91.807785 91.813332"
   version="1.1"
   id="svg1"
   xml:space="preserve"
   sodipodi:docname="Upwork_icon.svg"
   inkscape:version="1.3.2 (091e20e, 2023-11-25, custom)"
   xmlns:inkscape="http://www.inkscape.org/namespaces/inkscape"
   xmlns:sodipodi="http://sodipodi.sourceforge.net/DTD/sodipodi-0.dtd"
   xmlns="http://www.w3.org/2000/svg"
   xmlns:svg="http://www.w3.org/2000/svg"><sodipodi:namedview
     id="namedview1"
     pagecolor="#505050"
     bordercolor="#eeeeee"
     borderopacity="1"
     inkscape:showpageshadow="0"
     inkscape:pageopacity="0"
     inkscape:pagecheckerboard="0"
     inkscape:deskcolor="#505050"
     inkscape:document-units="mm"
     inkscape:zoom="1.9599212"
     inkscape:cx="173.73147"
     inkscape:cy="173.73147"
     inkscape:window-width="1920"
     inkscape:window-height="1051"
     inkscape:window-x="-9"
     inkscape:window-y="-9"
     inkscape:window-maximized="1"
     inkscape:current-layer="layer1" /><defs
     id="defs1" /><g
     inkscape:label="Layer 1"
     inkscape:groupmode="layer"
     id="layer1"
     transform="translate(-59.033888,-102.61399)"><path
       id="path5"
       style="fill:none;stroke:#ffff00;stroke-width:7.55906;stroke-linejoin:round;stroke-dasharray:none;stroke-opacity:1;paint-order:stroke markers fill"
       d="m 393.29493,391.64063 c -40.71617,0.74942 -81.24984,16.16213 -113.28321,46.48438 -34.97692,33.10857 -52.98866,74.64425 -53.11133,122.46875 -0.11624,45.3199 15.18397,84.13867 45.99414,116.6875 27.97269,29.55121 62.98972,47.27761 103.72266,52.50586 48.74066,6.25606 100.04802,-10.79344 136.59961,-45.39258 34.97692,-33.10858 52.99063,-74.64425 53.11329,-122.46875 0.11625,-45.31991 -15.18591,-84.13868 -45.9961,-116.6875 -34.5134,-36.46104 -80.89407,-54.447 -127.03906,-53.59766 z m 66.16992,109.39258 c 22.77597,-1.06759 44.7826,11.02458 55.45508,32.61719 4.95867,10.0325 5.01172,10.30947 5.01172,26.27344 0,15.9633 -0.0532,16.24166 -5.01172,26.27734 -15.62228,31.61835 -54.76816,42.31928 -84.01172,22.9668 -2.86507,-1.89602 -5.37707,-3.25191 -5.58399,-3.01368 -0.2069,0.23824 -1.97307,10.63069 -3.92382,23.09571 -1.95076,12.46502 -4.11242,24.01427 -4.80469,25.66406 -1.19208,2.84088 -2.00258,3 -15.28711,3 -13.66909,0 -14.02453,-0.0769 -13.98633,-3 0.0216,-1.64979 2.92579,-19.19675 6.45508,-38.99414 l 6.41797,-35.99609 -3.24024,-5.33204 c -2.73611,-4.50457 -10.34127,-20.03217 -15.99804,-32.66211 -1.21035,-2.70236 -1.51564,-0.30725 -1.61524,12.66407 -0.0675,8.79884 -0.73088,18.63005 -1.47265,21.84765 -3.59811,15.6075 -14.58769,30.43697 -27.09766,36.5625 -8.57678,4.19964 -23.46159,6.43809 -33.58399,5.04883 -16.19774,-2.22307 -31.23234,-13.853 -39.64257,-30.66406 l -4.91407,-9.82227 v -36.52929 -36.5293 l 13.66407,0.37891 13.66601,0.38085 1.04102,33.32813 c 1.01933,32.62217 1.11825,33.48294 4.66601,40.5332 5.18291,10.29966 9.09412,12.79297 20.05469,12.79297 10.95098,0 16.55411,-3.40427 20.63867,-12.54101 2.46962,-5.52427 2.79475,-9.47445 3.33399,-40.45118 l 0.59765,-34.33007 h 22.99805 c 16.82061,0 23.34477,0.44911 24.28906,1.66796 0.71008,0.91655 3.28329,8.11576 5.71875,15.99805 2.43548,7.88229 4.77797,14.33082 5.20508,14.33008 0.42712,-7.5e-4 2.54139,-3.14455 4.69922,-6.98633 5.28892,-9.41637 15.24596,-19.10607 23.62109,-22.98633 7.37163,-3.41532 15.04864,-5.23398 22.64063,-5.58984 z m 2.82031,26.17578 c -6.73393,0.0407 -13.38844,2.74522 -18.47461,8.375 -5.74759,6.3619 -7.74829,10.88344 -11.18945,25.29102 -2.51176,10.51637 -2.52126,11.07361 -0.23633,14.98633 2.84537,4.87243 13.58397,13.24278 19.38477,15.11132 6.37049,2.05205 16.3663,1.84789 21.85937,-0.44726 11.19905,-4.67927 16.50704,-13.64123 17.33008,-29.26563 0.51398,-9.75754 0.23272,-11.28711 -3.28906,-17.97461 -5.53195,-10.50456 -15.54287,-16.13567 -25.38477,-16.07617 z"
       transform="scale(0.26458333)"
       inkscape:export-filename="Upwork_icon.png"
       inkscape:export-xdpi="96"
       inkscape:export-ydpi="96" /></g></svg>
