<?xml version="1.0" encoding="UTF-8" standalone="no"?>
<!-- Created with Inkscape (http://www.inkscape.org/) -->

<svg
   width="315.75204mm"
   height="315.96054mm"
   viewBox="0 0 315.75205 315.96054"
   version="1.1"
   id="svg1"
   xml:space="preserve"
   sodipodi:docname="Web_icon.svg"
   inkscape:export-filename="Web_icon.png"
   inkscape:export-xdpi="96"
   inkscape:export-ydpi="96"
   inkscape:version="1.3.2 (091e20e, 2023-11-25, custom)"
   xmlns:inkscape="http://www.inkscape.org/namespaces/inkscape"
   xmlns:sodipodi="http://sodipodi.sourceforge.net/DTD/sodipodi-0.dtd"
   xmlns="http://www.w3.org/2000/svg"
   xmlns:svg="http://www.w3.org/2000/svg"><sodipodi:namedview
     id="namedview1"
     pagecolor="#505050"
     bordercolor="#eeeeee"
     borderopacity="1"
     inkscape:showpageshadow="0"
     inkscape:pageopacity="0"
     inkscape:pagecheckerboard="0"
     inkscape:deskcolor="#505050"
     inkscape:document-units="mm"
     inkscape:zoom="0.70471304"
     inkscape:cx="596.69678"
     inkscape:cy="597.40629"
     inkscape:window-width="1920"
     inkscape:window-height="1051"
     inkscape:window-x="-9"
     inkscape:window-y="-9"
     inkscape:window-maximized="1"
     inkscape:current-layer="svg1" /><defs
     id="defs1"><filter
       style="color-interpolation-filters:sRGB"
       id="filter31"
       x="-0.023247904"
       y="-0.023410795"
       width="1.04639"
       height="1.046676"><feGaussianBlur
         stdDeviation="5.0906349"
         id="feGaussianBlur31" /></filter><filter
       style="color-interpolation-filters:sRGB"
       id="filter32"
       x="-0.038251404"
       y="-0.038407299"
       width="1.076397"
       height="1.076669"><feGaussianBlur
         stdDeviation="11.453929"
         id="feGaussianBlur32" /></filter><filter
       style="color-interpolation-filters:sRGB"
       id="filter33"
       x="-0.0592563"
       y="-0.059402402"
       width="1.1184068"
       height="1.1186592"><feGaussianBlur
         stdDeviation="20.36254"
         id="feGaussianBlur33" /></filter><filter
       style="color-interpolation-filters:sRGB"
       id="filter34"
       x="-0.086262596"
       y="-0.086396106"
       width="1.1724194"
       height="1.1726466"><feGaussianBlur
         stdDeviation="31.816468"
         id="feGaussianBlur34" /></filter></defs><g
     id="layer1"
     transform="translate(-144.93219,-226.15344)"><g
       id="g34"><path
         style="fill:none;stroke:#beb41e;stroke-width:22.6772;stroke-linejoin:round;stroke-dasharray:none;stroke-opacity:1;paint-order:stroke markers fill;filter:url(#filter34)"
         d="m 1082.2031,1958.831 c -223.34224,-28.672 -403.84859,-201.4435 -440.86667,-421.9753 -7.67388,-45.7163 -7.67388,-124.5234 0,-170.2398 15.30289,-91.1655 58.89293,-182.6862 119.36147,-250.6087 78.25778,-87.9045 170.45507,-140.82399 289.4539,-166.14081 44.688,-9.50732 143.849,-9.50732 188.5371,0 71.947,15.30662 132.9955,40.35311 190.4225,78.12501 38.0318,25.0149 111.697,97.9873 136.5973,135.3126 58.8164,88.1648 87.7619,183.2951 87.7619,288.4318 0,59.2162 -7.3716,106.8711 -24.582,158.9152 -58.7797,177.7492 -205.8577,306.7752 -390.4784,342.5521 -38.1159,7.3863 -119.6325,10.3232 -156.2071,5.6279 z m -19.5839,-180.4052 c 3.7606,-3.7606 54.122,-130.4685 111.9143,-281.573 101.9538,-266.5698 105.0811,-275.544 105.2189,-301.9366 0.1138,-21.7961 -1.3838,-29.1407 -7.5368,-36.9631 -10.1912,-12.956 -32.7504,-13.5821 -46.0418,-1.2779 -6.6111,6.1201 -38.1549,84.6608 -113.203,281.863 -102.2553,268.6944 -104.0372,273.8553 -103.9894,301.1851 0.045,25.8227 0.8537,28.6112 11.3338,39.0912 9.4603,9.4603 13.24,10.894 23.3757,8.8669 6.65,-1.33 15.1677,-5.495 18.9283,-9.2556 z m -62.4621,-144.9564 c 6.7883,-6.1425 8.4801,-11.7922 8.5955,-28.7027 0.2455,-35.963 0.05,-38.4621 -3.502,-44.8095 -1.9015,-3.3977 -35.66722,-25.8567 -75.035,-49.9089 l -71.57779,-43.7312 64.49963,-39.342 c 86.93796,-53.0283 83.92586,-50.1496 86.66546,-82.8278 1.4114,-16.8347 0.6456,-30.2984 -2.0613,-36.2393 -4.5762,-10.0438 -20.61632,-20.2047 -31.87474,-20.1916 -3.73233,0 -48.35849,25.8811 -99.16925,57.5038 -108.56334,67.5659 -109.27383,68.3564 -108.97611,121.2483 0.30095,53.4649 -0.22173,52.8692 102.41205,116.7182 48.69713,30.2947 92.51537,56.5518 97.37385,58.3491 11.33226,4.1921 22.02103,1.5513 32.6497,-8.0664 z m 414.8066,-46.9805 c 53.2952,-33.0624 90.8578,-58.8701 95.8131,-65.8292 5.8864,-8.2666 8.8884,-19.8361 10.8059,-41.6452 3.6621,-41.6518 -1.0493,-60.1329 -19.5383,-76.6413 -11.7852,-10.5228 -164.7179,-105.6487 -177.9192,-110.6678 -12.4572,-4.7363 -33.6439,2.6303 -39.6062,13.7708 -6.7846,12.6772 -4.3989,56.5705 3.6295,66.7769 3.9237,4.9881 36.7873,27.1405 73.0303,49.2275 36.243,22.0869 66.6407,41.3626 67.5506,42.8347 0.9098,1.4722 -27.4113,20.4545 -62.9358,42.1829 -89.7875,54.9181 -85.2721,50.3087 -85.0327,86.8026 0.2655,40.4839 12.0485,55.3722 38.9989,49.2764 4.1479,-0.9381 46.9896,-26.1779 95.2039,-56.0883 z"
         id="path27"
         transform="scale(0.26458333)" /><path
         style="fill:none;stroke:#beb41e;stroke-width:22.6772;stroke-linejoin:round;stroke-dasharray:none;stroke-opacity:1;paint-order:stroke markers fill"
         d="m 1082.2031,1958.831 c -223.34224,-28.672 -403.84859,-201.4435 -440.86667,-421.9753 -7.67388,-45.7163 -7.67388,-124.5234 0,-170.2398 15.30289,-91.1655 58.89293,-182.6862 119.36147,-250.6087 78.25778,-87.9045 170.45507,-140.82399 289.4539,-166.14081 44.688,-9.50732 143.849,-9.50732 188.5371,0 71.947,15.30662 132.9955,40.35311 190.4225,78.12501 38.0318,25.0149 111.697,97.9873 136.5973,135.3126 58.8164,88.1648 87.7619,183.2951 87.7619,288.4318 0,59.2162 -7.3716,106.8711 -24.582,158.9152 -58.7797,177.7492 -205.8577,306.7752 -390.4784,342.5521 -38.1159,7.3863 -119.6325,10.3232 -156.2071,5.6279 z m -19.5839,-180.4052 c 3.7606,-3.7606 54.122,-130.4685 111.9143,-281.573 101.9538,-266.5698 105.0811,-275.544 105.2189,-301.9366 0.1138,-21.7961 -1.3838,-29.1407 -7.5368,-36.9631 -10.1912,-12.956 -32.7504,-13.5821 -46.0418,-1.2779 -6.6111,6.1201 -38.1549,84.6608 -113.203,281.863 -102.2553,268.6944 -104.0372,273.8553 -103.9894,301.1851 0.045,25.8227 0.8537,28.6112 11.3338,39.0912 9.4603,9.4603 13.24,10.894 23.3757,8.8669 6.65,-1.33 15.1677,-5.495 18.9283,-9.2556 z m -62.4621,-144.9564 c 6.7883,-6.1425 8.4801,-11.7922 8.5955,-28.7027 0.2455,-35.963 0.05,-38.4621 -3.502,-44.8095 -1.9015,-3.3977 -35.66722,-25.8567 -75.035,-49.9089 l -71.57779,-43.7312 64.49963,-39.342 c 86.93796,-53.0283 83.92586,-50.1496 86.66546,-82.8278 1.4114,-16.8347 0.6456,-30.2984 -2.0613,-36.2393 -4.5762,-10.0438 -20.61632,-20.2047 -31.87474,-20.1916 -3.73233,0 -48.35849,25.8811 -99.16925,57.5038 -108.56334,67.5659 -109.27383,68.3564 -108.97611,121.2483 0.30095,53.4649 -0.22173,52.8692 102.41205,116.7182 48.69713,30.2947 92.51537,56.5518 97.37385,58.3491 11.33226,4.1921 22.02103,1.5513 32.6497,-8.0664 z m 414.8066,-46.9805 c 53.2952,-33.0624 90.8578,-58.8701 95.8131,-65.8292 5.8864,-8.2666 8.8884,-19.8361 10.8059,-41.6452 3.6621,-41.6518 -1.0493,-60.1329 -19.5383,-76.6413 -11.7852,-10.5228 -164.7179,-105.6487 -177.9192,-110.6678 -12.4572,-4.7363 -33.6439,2.6303 -39.6062,13.7708 -6.7846,12.6772 -4.3989,56.5705 3.6295,66.7769 3.9237,4.9881 36.7873,27.1405 73.0303,49.2275 36.243,22.0869 66.6407,41.3626 67.5506,42.8347 0.9098,1.4722 -27.4113,20.4545 -62.9358,42.1829 -89.7875,54.9181 -85.2721,50.3087 -85.0327,86.8026 0.2655,40.4839 12.0485,55.3722 38.9989,49.2764 4.1479,-0.9381 46.9896,-26.1779 95.2039,-56.0883 z"
         id="path31"
         transform="scale(0.26458333)" /></g></g></svg>
