<?xml version="1.0" encoding="UTF-8" standalone="no"?>
<!-- Created with Inkscape (http://www.inkscape.org/) -->

<svg
   width="96.598633mm"
   height="97.284744mm"
   viewBox="0 0 96.598633 97.284744"
   version="1.1"
   id="svg1"
   xml:space="preserve"
   inkscape:export-filename="WhatsApp_White.svg"
   inkscape:export-xdpi="96"
   inkscape:export-ydpi="96"
   xmlns:inkscape="http://www.inkscape.org/namespaces/inkscape"
   xmlns:sodipodi="http://sodipodi.sourceforge.net/DTD/sodipodi-0.dtd"
   xmlns="http://www.w3.org/2000/svg"
   xmlns:svg="http://www.w3.org/2000/svg"><sodipodi:namedview
     id="namedview1"
     pagecolor="#505050"
     bordercolor="#eeeeee"
     borderopacity="1"
     inkscape:showpageshadow="0"
     inkscape:pageopacity="0"
     inkscape:pagecheckerboard="0"
     inkscape:deskcolor="#505050"
     inkscape:document-units="mm" /><defs
     id="defs1" /><g
     inkscape:label="Layer 1"
     inkscape:groupmode="layer"
     id="layer1"
     transform="translate(-56.43248,-100.13618)"><g
       id="g7"
       inkscape:groupmode="layer"><g
         id="g62"
         inkscape:groupmode="layer"
         inkscape:label="WhatsApp"><path
           style="opacity:0.5;fill:#ffffff;fill-opacity:1;stroke:none;stroke-width:15.1161;stroke-linecap:round;stroke-linejoin:round;paint-order:stroke markers fill"
           d="m 265.81845,668.24583 c 0.85542,-3.62935 0.79353,-3.66804 -6.16038,-3.85115 -11.06622,-0.29137 -16.22153,0.22103 -17.13766,1.70338 -1.83774,2.97351 -2.24821,-2.69838 -0.4466,-6.17098 2.93799,-5.66299 2.35214,-8.72889 -4.17998,-21.87469 -6.84808,-13.7817 -8.91994,-19.21061 -12.72244,-33.33677 -9.63003,-35.77523 -8.13264,-73.31582 4.31236,-108.11398 3.86581,-10.80938 12.06836,-27.99633 13.36138,-27.99633 0.61761,0 1.12293,-0.85703 1.12293,-1.90451 0,-1.04749 1.04986,-2.95438 2.33302,-4.23755 1.28317,-1.28316 2.33303,-2.9258 2.33303,-3.65031 0,-0.72451 0.83341,-1.59509 1.85202,-1.93463 1.12415,-0.37472 1.48619,-0.0254 0.92119,0.88877 -1.02916,1.66522 0.36821,1.78578 17.55746,1.5147 8.81549,-0.13902 10.99856,0.21152 10.99856,1.76609 0,1.06674 -0.89988,2.28485 -1.99974,2.70691 -1.09985,0.42205 -1.99973,1.6219 -1.99973,2.66632 0,1.04442 -0.89989,2.24426 -1.99974,2.66631 -1.09986,0.42206 -1.99974,1.68609 -1.99974,2.80895 0,1.12287 -0.63533,2.04158 -1.41184,2.04158 -0.77651,0 -1.09722,0.50907 -0.71268,1.13126 0.38454,0.6222 -0.50331,2.42196 -1.97299,3.99948 -1.46968,1.57752 -2.30797,2.86822 -1.86286,2.86822 0.44511,0 -0.39151,1.68637 -1.85916,3.7475 -1.46765,2.06112 -3.07334,5.36069 -3.5682,7.33237 -0.49486,1.97168 -1.43463,3.58487 -2.08838,3.58487 -0.65375,0 -1.05807,0.44994 -0.89849,0.99987 0.15958,0.54993 -0.52956,3.0996 -1.53142,5.66593 -2.23193,5.71719 -2.01857,5.03192 -3.3207,10.66527 -0.5932,2.56633 -1.52742,5.26597 -2.07604,5.99921 -0.54863,0.73324 -1.00225,2.23304 -1.00806,3.3329 -0.006,1.09985 -0.97584,7.69899 -2.15565,14.66474 -1.1798,6.96576 -2.08643,15.66462 -2.01474,19.33081 0.1064,5.44095 3.14605,29.47735 4.38339,34.66212 1.19756,5.01815 3.79191,13.9694 5.02306,17.33107 2.5677,7.01107 14.55097,30.56954 16.85453,33.13511 2.32167,2.58573 3.17382,8.85939 1.20337,8.85939 -0.62728,0 -0.83584,0.49296 -0.46347,1.09546 0.37237,0.6025 -0.19749,2.78109 -1.26634,4.84131 -1.06885,2.06021 -2.27128,5.61673 -2.67205,7.90336 -0.40078,2.28662 -1.37278,4.75743 -2.16,5.49067 -1.00757,0.93847 -1.1755,0.24777 -0.56722,-2.33303 z"
           id="path1"
           transform="scale(0.26458333)" /><path
           style="opacity:0.5;fill:#ffffff;fill-opacity:1;stroke:none;stroke-width:15.1161;stroke-linecap:round;stroke-linejoin:round;paint-order:stroke markers fill"
           d="m 213.28813,746.05075 c -0.01,-0.44825 5.83974,-18.31436 12.9983,-39.70248 l 13.01557,-38.88748 5.33672,-1.52166 c 2.9352,-0.83691 8.59402,-1.33519 12.57515,-1.10728 10.26388,0.58757 10.70892,3.12998 3.97155,22.68864 -2.85214,8.2798 -5.19318,15.20416 -5.20232,15.38747 -0.0499,1.00038 5.92822,0.0789 10.28839,-1.5858 2.76447,-1.0555 14.85958,-5.0465 26.87801,-8.86889 16.07154,-5.11146 22.41913,-6.59735 23.99686,-5.61736 25.08503,15.58141 52.59644,23.4267 82.13469,23.42195 48.85407,-0.008 93.00662,-22.46577 122.77349,-62.44794 4.3241,-5.80801 8.36634,-10.92706 8.98277,-11.37566 0.61642,-0.4486 0.91956,-1.17905 0.67361,-1.62323 -0.24594,-0.44417 0.45273,-1.8769 1.55259,-3.18384 1.09985,-1.30694 1.99974,-3.27613 1.99974,-4.37599 0,-1.09985 0.72831,-1.85695 1.61846,-1.68244 1.00799,0.19761 1.30502,-0.55669 0.78746,-1.99974 -0.45706,-1.27437 -0.33929,-1.87091 0.2617,-1.32564 0.60098,0.54526 1.95865,-0.24494 3.01705,-1.75601 1.05839,-1.51106 2.76198,-2.42596 3.78575,-2.0331 1.02379,0.39287 1.86143,0.1332 1.86143,-0.57702 0,-0.71023 0.89988,-1.29132 1.99973,-1.29132 1.09986,0 1.99974,0.5932 1.99974,1.31823 0,1.57556 6.99014,1.2838 8.12542,-0.33914 0.43617,-0.62354 2.23593,-0.77123 3.99947,-0.32819 2.21082,0.5554 3.26596,1.81852 3.39815,4.06796 0.10544,1.79435 -0.33763,2.9353 -0.98459,2.53545 -0.64699,-0.39985 -0.84873,0.12669 -0.44835,1.17009 0.4004,1.04339 -0.24464,2.86971 -1.43342,4.05849 -1.18877,1.18877 -1.85211,2.66186 -1.47408,3.27354 0.96804,1.56631 -11.00379,22.53927 -19.09987,33.46027 -14.61031,19.70821 -41.31203,42.07293 -63.40672,53.10794 -49.227,24.586 -110.30051,24.75094 -159.3191,0.43028 l -8.38378,-4.15963 -12.13599,3.90147 c -6.6748,2.1458 -24.73435,7.90753 -40.13233,12.80384 -15.39798,4.89631 -32.0458,10.26966 -36.99515,11.9408 -4.94936,1.67113 -9.0066,2.67167 -9.0161,2.22342 z"
           id="path2"
           transform="scale(0.26458333)" /><path
           style="opacity:0.5;fill:#ffffff;fill-opacity:1;stroke:none;stroke-width:15.1161;stroke-linecap:round;stroke-linejoin:round;paint-order:stroke markers fill"
           d="m 539.04739,618.25238 c 2.31357,-4.57772 7.60652,-19.87384 8.41903,-24.33015 0.33422,-1.83309 1.38079,-7.12233 2.32571,-11.75389 2.09032,-10.24573 1.83042,-40.40105 -0.44447,-51.57115 -0.89598,-4.39942 -1.66366,-8.89883 -1.70595,-9.99869 -0.0423,-1.09986 -0.52577,-2.59966 -1.07439,-3.3329 -0.54862,-0.73323 -1.41572,-3.28894 -1.92689,-5.67934 -0.51117,-2.3904 -1.83718,-6.16588 -2.9467,-8.38995 -1.10951,-2.22408 -2.17127,-4.7677 -2.35947,-5.65251 -0.97282,-4.57363 -9.75027,-20.16598 -15.64796,-27.79718 -2.06491,-2.67185 -3.75438,-5.25016 -3.75438,-5.72958 0,-0.47943 -1.39452,-2.19286 -3.09894,-3.80763 -1.70442,-1.61477 -3.48536,-3.98581 -3.95764,-5.26898 -0.47228,-1.28316 -1.47744,-2.33303 -2.23369,-2.33303 -0.75625,0 -1.37352,-0.44994 -1.37172,-0.99987 0.002,-0.54992 7.91085,-0.96964 17.57565,-0.9327 14.13134,0.054 17.69414,0.44561 18.19426,1.99974 0.34204,1.06291 0.98188,2.23253 1.42187,2.59915 1.77999,1.48319 6.79918,9.31649 6.79918,10.61129 0,0.76292 0.51291,1.38714 1.1398,1.38714 1.56141,0 11.63218,21.94151 15.47309,33.71168 5.68831,17.4314 7.61002,29.07578 8.32813,50.46333 0.86161,25.66138 -1.13022,39.39602 -9.88949,68.19273 -0.68565,2.25411 -0.82608,2.24476 -2.51552,-0.16726 -1.53905,-2.19728 -3.20376,-2.50434 -11.90119,-2.19514 -7.01005,0.24922 -10.83747,1.01618 -12.47739,2.50029 -3.52746,3.19232 -4.45398,2.59621 -2.37093,-1.5254 z"
           id="path3"
           transform="scale(0.26458333)" /><path
           style="opacity:0.5;fill:#ffffff;fill-opacity:1;stroke:none;stroke-width:15.1161;stroke-linecap:round;stroke-linejoin:round;paint-order:stroke markers fill"
           d="m 267.09073,459.56124 c -17.8165,-0.49813 -18.74674,-1.531 -10.71751,-11.89984 25.18477,-32.52328 62.27482,-56.04528 104.09787,-66.01743 16.50552,-3.93553 58.68025,-4.29342 74.13867,-0.62915 25.80157,6.11602 45.39624,14.40678 64.91721,27.46728 12.37022,8.2763 30.70496,25.07135 39.43825,36.12635 l 4.73928,5.99921 -17.88558,-0.21432 -17.88559,-0.21433 -8.03024,-7.04007 c -16.29624,-14.28682 -32.1659,-23.38428 -52.90106,-30.32615 -45.32706,-15.17492 -94.08448,-8.41018 -133.8885,18.57606 -9.11291,6.17836 -15.20182,11.34571 -25.78815,21.88513 l -6.69546,6.6658 z"
           id="path4"
           transform="scale(0.26458333)" /><path
           style="opacity:0.5;fill:#ffffff;fill-opacity:1;stroke:none;stroke-width:7.55807;stroke-linecap:round;stroke-linejoin:round;paint-order:stroke markers fill"
           d="m 440.27568,641.2047 c -6.16455,-1.47043 -20.20622,-5.81117 -24.33014,-7.52126 -0.91655,-0.38006 -4.51608,-1.78685 -7.99896,-3.12617 -8.46153,-3.25385 -12.40274,-5.17024 -20.33067,-9.88566 -11.78241,-7.00801 -26.00656,-18.88959 -35.28581,-29.47461 -2.54273,-2.90054 -4.95584,-5.57368 -5.36245,-5.9403 -2.27007,-2.04678 -9.01338,-11.79005 -8.61075,-12.44151 0.27244,-0.44083 0.1782,-0.58155 -0.2233,-0.33342 -0.62966,0.38915 -4.09576,-3.73543 -7.02998,-8.36551 -1.55638,-2.45591 -1.41127,-3.2273 0.23512,-1.24991 0.91103,1.09419 1.55487,1.38924 2.01892,0.92519 0.4012,-0.4012 2.58276,-0.54528 5.30602,-0.35043 4.38072,0.31344 4.6247,0.25584 4.6247,-1.09183 0,-0.82026 -0.4234,-1.42273 -0.99987,-1.42273 -0.54992,0 -0.99986,-0.46764 -0.99986,-1.03921 0,-0.57156 0.30264,-0.85216 0.67254,-0.62355 1.03602,0.6403 3.32693,-0.31118 3.32693,-1.38176 0,-0.52523 0.59992,-0.95495 1.33316,-0.95495 0.74064,0 1.33316,0.44438 1.33316,0.99987 0,0.54992 -0.44994,0.99986 -0.99987,0.99986 -0.54993,0 -0.99987,0.44995 -0.99987,0.99987 0,0.54993 0.29996,0.99987 0.66658,0.99987 0.36662,0 0.66658,0.59992 0.66658,1.33316 0,0.74065 0.44439,1.33316 0.99987,1.33316 0.54993,0 0.99987,-0.44994 0.99987,-0.99987 0,-0.54993 0.44994,-0.99987 0.99987,-0.99987 0.54993,0 0.99987,0.29996 0.99987,0.66658 0,0.36662 0.44994,0.66658 0.99987,0.66658 0.54992,0 0.99986,-0.44994 0.99986,-0.99987 0,-0.54993 -0.44994,-0.99987 -0.99986,-0.99987 -0.54993,0 -0.99987,-0.44994 -0.99987,-0.99987 0,-0.54992 -0.29996,-0.99987 -0.66658,-0.99987 -0.36662,0 -0.66658,-0.44994 -0.66658,-0.99986 0,-0.72213 0.74064,-0.99987 2.66632,-0.99987 2.51818,0 2.66631,0.11109 2.66631,1.99973 0,1.60651 0.29493,2.01495 1.49981,2.07707 1.12863,0.0582 1.21111,0.15276 0.33329,0.38216 -0.64159,0.16767 -1.16652,0.73279 -1.16652,1.25584 0,1.40456 3.167,1.21174 3.53999,-0.21552 0.29032,-1.11097 0.30852,-1.11097 0.38216,0 0.0612,0.92278 0.69104,1.16651 3.01453,1.16651 2.71611,0 2.90811,-0.11289 2.55072,-1.4998 -0.34621,-1.34354 -0.26869,-1.40319 0.74404,-0.57247 0.7171,0.58822 0.98716,1.44137 0.73851,2.33303 -0.26538,0.9516 -0.19717,1.12597 0.21114,0.53976 0.44935,-0.64511 1.26789,-0.0502 3.20992,2.33303 3.71947,4.56444 11.22301,12.02992 16.24287,16.1605 3.94954,3.24987 14.83244,10.70202 15.6289,10.70202 0.18651,0 1.77713,0.83884 3.53469,1.86408 4.65453,2.71512 16.03043,7.46803 17.87443,7.46803 2.41315,0 6.25088,-4.01795 18.46369,-19.3308 1.63859,-2.05451 3.56898,-3.76 4.39121,-3.87959 2.54329,-0.36991 9.98402,2.88231 35.12342,15.35186 8.10536,4.0204 8.07139,3.99315 8.53434,6.84594 0.44825,2.76222 -1.06252,12.86354 -2.5317,16.92753 -2.52915,6.99604 -8.10114,12.35003 -18.33436,17.61707 -7.18629,3.69877 -10.46356,4.5125 -19.3308,4.79974 -4.58274,0.14844 -8.93217,0.1268 -9.66541,-0.0481 z M 345.9547,562.25971 c 0,-0.74064 -0.44439,-1.33316 -0.99987,-1.33316 -0.55548,0 -0.99987,0.59252 -0.99987,1.33316 0,0.74065 0.44439,1.33316 0.99987,1.33316 0.55548,0 0.99987,-0.59251 0.99987,-1.33316 z"
           id="path5"
           transform="scale(0.26458333)" /><path
           style="opacity:0.5;fill:#ffffff;fill-opacity:1;stroke:none;stroke-width:7.55807;stroke-linecap:round;stroke-linejoin:round;paint-order:stroke markers fill"
           d="m 331.95653,562.80968 c 0,-0.32063 -0.70429,-0.85074 -1.5651,-1.17802 -2.42804,-0.92314 -10.15948,-13.56562 -12.82942,-20.97872 -0.53948,-1.49786 -1.4171,-3.95201 -1.95028,-5.45367 -4.74047,-13.35124 -3.534,-29.76556 3.04456,-41.42213 2.61357,-4.631 3.42907,-5.64184 9.18868,-11.38976 2.69065,-2.68519 5.27984,-4.73336 5.75376,-4.5515 0.47392,0.18186 1.15995,0.0324 1.52451,-0.33219 1.07709,-1.07709 12.90612,-1.53137 15.71726,-0.60361 2.22698,0.73497 4.28037,2.93616 3.92135,4.20359 -0.0779,0.27497 0.13813,0.49994 0.48004,0.49994 0.79245,0 1.68941,2.61936 1.45158,4.23898 -0.10245,0.69774 0.11206,1.05765 0.49085,0.82355 0.70985,-0.43872 1.8089,2.01874 1.53685,3.43635 -0.0879,0.45828 0.11682,0.83323 0.45503,0.83323 0.33821,0 0.98155,0.97487 1.42965,2.16638 0.4481,1.19151 1.06735,2.76631 1.37612,3.49954 0.30877,0.73324 2.1044,5.08267 3.99029,9.6654 1.88589,4.58274 3.85269,9.12843 4.37068,10.10154 2.59988,4.88431 0.55243,9.49473 -9.14817,20.59977 -5.90171,6.75615 -5.87146,8.09426 0.39821,17.61465 2.03089,3.08387 3.69252,6.18771 3.69252,6.89742 0,1.62295 -2.0695,2.20678 -4.10984,1.15946 -1.09041,-0.55973 -1.8961,-0.59407 -2.69228,-0.11476 -0.62491,0.37619 -1.37481,0.42931 -1.66645,0.11804 -0.29164,-0.31128 -0.17404,-0.69363 0.26131,-0.84965 0.52979,-0.18988 0.36445,-0.71082 -0.49993,-1.5752 -0.71032,-0.71032 -1.2915,-1.74144 -1.2915,-2.29136 0,-0.72213 -0.74064,-0.99987 -2.66631,-0.99987 -3.0987,0 -3.39656,0.8916 -1.2216,3.65662 l 1.44473,1.83667 -1.47671,-0.46869 c -0.83643,-0.26547 -1.87622,-0.13713 -2.39811,0.296 -1.22711,1.01841 -2.89078,-1.71109 -1.7427,-2.85917 0.40058,-0.40058 0.72833,-1.11828 0.72833,-1.59488 0,-1.2043 -2.62194,-1.09124 -3.09185,0.13332 -0.21102,0.54992 -1.10149,0.99986 -1.97881,0.99986 -1.70544,0 -2.0986,1.22964 -0.80635,2.52189 0.43383,0.43384 0.6588,0.90595 0.49994,1.04915 -0.62663,0.5648 -10.62084,0.85823 -10.62084,0.31183 z m 23.33028,-76.87331 c 0,-0.54993 -0.27612,-0.99987 -0.61361,-0.99987 -0.33749,0 -0.81417,-0.9131 -1.05929,-2.02913 -0.85148,-3.87674 -2.28041,-4.50259 -10.04041,-4.39751 -3.82335,0.0518 -6.9514,-0.13083 -6.95122,-0.4058 1.7e-4,-0.27496 -0.29024,-0.49993 -0.64535,-0.49993 -0.35511,0 -0.473,0.44994 -0.26197,0.99987 0.24744,0.64482 -0.0149,0.99987 -0.73878,0.99987 -1.74245,0 -5.01938,3.66555 -5.01938,5.61465 v 1.71772 h 12.665 c 10.8134,0 12.66501,-0.14618 12.66501,-0.99987 z"
           id="path6"
           transform="scale(0.26458333)" /><path
           style="opacity:0.5;fill:#ffffff;fill-opacity:1;stroke:none;stroke-width:7.55807;stroke-linecap:round;stroke-linejoin:round;paint-order:stroke markers fill"
           d="m 329.95929,486.10302 c 0.005,-1.54983 2.6504,-5.18846 4.32874,-5.95316 0.91739,-0.41799 1.66775,-0.93681 1.66746,-1.15292 -5.8e-4,-0.4438 12.20147,-0.18925 14.47608,0.30198 0.96255,0.20787 2.0184,1.44972 3.03032,3.56414 l 1.55305,3.2451 -3.96132,0.41404 c -7.3839,0.77177 -21.09708,0.49926 -21.09433,-0.41918 z"
           id="path7"
           transform="scale(0.26458333)" /><path
           style="opacity:0.5;fill:#ffffff;fill-opacity:1;stroke:none;stroke-width:15.1161;stroke-linecap:round;stroke-linejoin:round;paint-order:stroke markers fill"
           d="m 265.81845,668.24583 c 0.85542,-3.62935 0.79353,-3.66804 -6.16038,-3.85115 -11.06622,-0.29137 -16.22153,0.22103 -17.13766,1.70338 -1.83774,2.97351 -2.24821,-2.69838 -0.4466,-6.17098 2.93799,-5.66299 2.35214,-8.72889 -4.17998,-21.87469 -6.84808,-13.7817 -8.91994,-19.21061 -12.72244,-33.33677 -9.63003,-35.77523 -8.13264,-73.31582 4.31236,-108.11398 3.86581,-10.80938 12.06836,-27.99633 13.36138,-27.99633 0.61761,0 1.12293,-0.85703 1.12293,-1.90451 0,-1.04749 1.04986,-2.95438 2.33302,-4.23755 1.28317,-1.28316 2.33303,-2.9258 2.33303,-3.65031 0,-0.72451 0.83341,-1.59509 1.85202,-1.93463 1.12415,-0.37472 1.48619,-0.0254 0.92119,0.88877 -1.02916,1.66522 0.36821,1.78578 17.55746,1.5147 8.81549,-0.13902 10.99856,0.21152 10.99856,1.76609 0,1.06674 -0.89988,2.28485 -1.99974,2.70691 -1.09985,0.42205 -1.99973,1.6219 -1.99973,2.66632 0,1.04442 -0.89989,2.24426 -1.99974,2.66631 -1.09986,0.42206 -1.99974,1.68609 -1.99974,2.80895 0,1.12287 -0.63533,2.04158 -1.41184,2.04158 -0.77651,0 -1.09722,0.50907 -0.71268,1.13126 0.38454,0.6222 -0.50331,2.42196 -1.97299,3.99948 -1.46968,1.57752 -2.30797,2.86822 -1.86286,2.86822 0.44511,0 -0.39151,1.68637 -1.85916,3.7475 -1.46765,2.06112 -3.07334,5.36069 -3.5682,7.33237 -0.49486,1.97168 -1.43463,3.58487 -2.08838,3.58487 -0.65375,0 -1.05807,0.44994 -0.89849,0.99987 0.15958,0.54993 -0.52956,3.0996 -1.53142,5.66593 -2.23193,5.71719 -2.01857,5.03192 -3.3207,10.66527 -0.5932,2.56633 -1.52742,5.26597 -2.07604,5.99921 -0.54863,0.73324 -1.00225,2.23304 -1.00806,3.3329 -0.006,1.09985 -0.97584,7.69899 -2.15565,14.66474 -1.1798,6.96576 -2.08643,15.66462 -2.01474,19.33081 0.1064,5.44095 3.14605,29.47735 4.38339,34.66212 1.19756,5.01815 3.79191,13.9694 5.02306,17.33107 2.5677,7.01107 14.55097,30.56954 16.85453,33.13511 2.32167,2.58573 3.17382,8.85939 1.20337,8.85939 -0.62728,0 -0.83584,0.49296 -0.46347,1.09546 0.37237,0.6025 -0.19749,2.78109 -1.26634,4.84131 -1.06885,2.06021 -2.27128,5.61673 -2.67205,7.90336 -0.40078,2.28662 -1.37278,4.75743 -2.16,5.49067 -1.00757,0.93847 -1.1755,0.24777 -0.56722,-2.33303 z"
           id="path35"
           transform="scale(0.26458333)" /><path
           style="opacity:0.5;fill:#ffffff;fill-opacity:1;stroke:none;stroke-width:15.1161;stroke-linecap:round;stroke-linejoin:round;paint-order:stroke markers fill"
           d="m 213.28813,746.05075 c -0.01,-0.44825 5.83974,-18.31436 12.9983,-39.70248 l 13.01557,-38.88748 5.33672,-1.52166 c 2.9352,-0.83691 8.59402,-1.33519 12.57515,-1.10728 10.26388,0.58757 10.70892,3.12998 3.97155,22.68864 -2.85214,8.2798 -5.19318,15.20416 -5.20232,15.38747 -0.0499,1.00038 5.92822,0.0789 10.28839,-1.5858 2.76447,-1.0555 14.85958,-5.0465 26.87801,-8.86889 16.07154,-5.11146 22.41913,-6.59735 23.99686,-5.61736 25.08503,15.58141 52.59644,23.4267 82.13469,23.42195 48.85407,-0.008 93.00662,-22.46577 122.77349,-62.44794 4.3241,-5.80801 8.36634,-10.92706 8.98277,-11.37566 0.61642,-0.4486 0.91956,-1.17905 0.67361,-1.62323 -0.24594,-0.44417 0.45273,-1.8769 1.55259,-3.18384 1.09985,-1.30694 1.99974,-3.27613 1.99974,-4.37599 0,-1.09985 0.72831,-1.85695 1.61846,-1.68244 1.00799,0.19761 1.30502,-0.55669 0.78746,-1.99974 -0.45706,-1.27437 -0.33929,-1.87091 0.2617,-1.32564 0.60098,0.54526 1.95865,-0.24494 3.01705,-1.75601 1.05839,-1.51106 2.76198,-2.42596 3.78575,-2.0331 1.02379,0.39287 1.86143,0.1332 1.86143,-0.57702 0,-0.71023 0.89988,-1.29132 1.99973,-1.29132 1.09986,0 1.99974,0.5932 1.99974,1.31823 0,1.57556 6.99014,1.2838 8.12542,-0.33914 0.43617,-0.62354 2.23593,-0.77123 3.99947,-0.32819 2.21082,0.5554 3.26596,1.81852 3.39815,4.06796 0.10544,1.79435 -0.33763,2.9353 -0.98459,2.53545 -0.64699,-0.39985 -0.84873,0.12669 -0.44835,1.17009 0.4004,1.04339 -0.24464,2.86971 -1.43342,4.05849 -1.18877,1.18877 -1.85211,2.66186 -1.47408,3.27354 0.96804,1.56631 -11.00379,22.53927 -19.09987,33.46027 -14.61031,19.70821 -41.31203,42.07293 -63.40672,53.10794 -49.227,24.586 -110.30051,24.75094 -159.3191,0.43028 l -8.38378,-4.15963 -12.13599,3.90147 c -6.6748,2.1458 -24.73435,7.90753 -40.13233,12.80384 -15.39798,4.89631 -32.0458,10.26966 -36.99515,11.9408 -4.94936,1.67113 -9.0066,2.67167 -9.0161,2.22342 z"
           id="path36"
           transform="scale(0.26458333)" /><path
           style="opacity:0.5;fill:#ffffff;fill-opacity:1;stroke:none;stroke-width:15.1161;stroke-linecap:round;stroke-linejoin:round;paint-order:stroke markers fill"
           d="m 539.04739,618.25238 c 2.31357,-4.57772 7.60652,-19.87384 8.41903,-24.33015 0.33422,-1.83309 1.38079,-7.12233 2.32571,-11.75389 2.09032,-10.24573 1.83042,-40.40105 -0.44447,-51.57115 -0.89598,-4.39942 -1.66366,-8.89883 -1.70595,-9.99869 -0.0423,-1.09986 -0.52577,-2.59966 -1.07439,-3.3329 -0.54862,-0.73323 -1.41572,-3.28894 -1.92689,-5.67934 -0.51117,-2.3904 -1.83718,-6.16588 -2.9467,-8.38995 -1.10951,-2.22408 -2.17127,-4.7677 -2.35947,-5.65251 -0.97282,-4.57363 -9.75027,-20.16598 -15.64796,-27.79718 -2.06491,-2.67185 -3.75438,-5.25016 -3.75438,-5.72958 0,-0.47943 -1.39452,-2.19286 -3.09894,-3.80763 -1.70442,-1.61477 -3.48536,-3.98581 -3.95764,-5.26898 -0.47228,-1.28316 -1.47744,-2.33303 -2.23369,-2.33303 -0.75625,0 -1.37352,-0.44994 -1.37172,-0.99987 0.002,-0.54992 7.91085,-0.96964 17.57565,-0.9327 14.13134,0.054 17.69414,0.44561 18.19426,1.99974 0.34204,1.06291 0.98188,2.23253 1.42187,2.59915 1.77999,1.48319 6.79918,9.31649 6.79918,10.61129 0,0.76292 0.51291,1.38714 1.1398,1.38714 1.56141,0 11.63218,21.94151 15.47309,33.71168 5.68831,17.4314 7.61002,29.07578 8.32813,50.46333 0.86161,25.66138 -1.13022,39.39602 -9.88949,68.19273 -0.68565,2.25411 -0.82608,2.24476 -2.51552,-0.16726 -1.53905,-2.19728 -3.20376,-2.50434 -11.90119,-2.19514 -7.01005,0.24922 -10.83747,1.01618 -12.47739,2.50029 -3.52746,3.19232 -4.45398,2.59621 -2.37093,-1.5254 z"
           id="path37"
           transform="scale(0.26458333)" /><path
           style="opacity:0.5;fill:#ffffff;fill-opacity:1;stroke:none;stroke-width:15.1161;stroke-linecap:round;stroke-linejoin:round;paint-order:stroke markers fill"
           d="m 267.09073,459.56124 c -17.8165,-0.49813 -18.74674,-1.531 -10.71751,-11.89984 25.18477,-32.52328 62.27482,-56.04528 104.09787,-66.01743 16.50552,-3.93553 58.68025,-4.29342 74.13867,-0.62915 25.80157,6.11602 45.39624,14.40678 64.91721,27.46728 12.37022,8.2763 30.70496,25.07135 39.43825,36.12635 l 4.73928,5.99921 -17.88558,-0.21432 -17.88559,-0.21433 -8.03024,-7.04007 c -16.29624,-14.28682 -32.1659,-23.38428 -52.90106,-30.32615 -45.32706,-15.17492 -94.08448,-8.41018 -133.8885,18.57606 -9.11291,6.17836 -15.20182,11.34571 -25.78815,21.88513 l -6.69546,6.6658 z"
           id="path38"
           transform="scale(0.26458333)" /><path
           style="opacity:0.5;fill:#ffffff;fill-opacity:1;stroke:none;stroke-width:7.55807;stroke-linecap:round;stroke-linejoin:round;paint-order:stroke markers fill"
           d="m 440.27568,641.2047 c -6.16455,-1.47043 -20.20622,-5.81117 -24.33014,-7.52126 -0.91655,-0.38006 -4.51608,-1.78685 -7.99896,-3.12617 -8.46153,-3.25385 -12.40274,-5.17024 -20.33067,-9.88566 -11.78241,-7.00801 -26.00656,-18.88959 -35.28581,-29.47461 -2.54273,-2.90054 -4.95584,-5.57368 -5.36245,-5.9403 -2.27007,-2.04678 -9.01338,-11.79005 -8.61075,-12.44151 0.27244,-0.44083 0.1782,-0.58155 -0.2233,-0.33342 -0.62966,0.38915 -4.09576,-3.73543 -7.02998,-8.36551 -1.55638,-2.45591 -1.41127,-3.2273 0.23512,-1.24991 0.91103,1.09419 1.55487,1.38924 2.01892,0.92519 0.4012,-0.4012 2.58276,-0.54528 5.30602,-0.35043 4.38072,0.31344 4.6247,0.25584 4.6247,-1.09183 0,-0.82026 -0.4234,-1.42273 -0.99987,-1.42273 -0.54992,0 -0.99986,-0.46764 -0.99986,-1.03921 0,-0.57156 0.30264,-0.85216 0.67254,-0.62355 1.03602,0.6403 3.32693,-0.31118 3.32693,-1.38176 0,-0.52523 0.59992,-0.95495 1.33316,-0.95495 0.74064,0 1.33316,0.44438 1.33316,0.99987 0,0.54992 -0.44994,0.99986 -0.99987,0.99986 -0.54993,0 -0.99987,0.44995 -0.99987,0.99987 0,0.54993 0.29996,0.99987 0.66658,0.99987 0.36662,0 0.66658,0.59992 0.66658,1.33316 0,0.74065 0.44439,1.33316 0.99987,1.33316 0.54993,0 0.99987,-0.44994 0.99987,-0.99987 0,-0.54993 0.44994,-0.99987 0.99987,-0.99987 0.54993,0 0.99987,0.29996 0.99987,0.66658 0,0.36662 0.44994,0.66658 0.99987,0.66658 0.54992,0 0.99986,-0.44994 0.99986,-0.99987 0,-0.54993 -0.44994,-0.99987 -0.99986,-0.99987 -0.54993,0 -0.99987,-0.44994 -0.99987,-0.99987 0,-0.54992 -0.29996,-0.99987 -0.66658,-0.99987 -0.36662,0 -0.66658,-0.44994 -0.66658,-0.99986 0,-0.72213 0.74064,-0.99987 2.66632,-0.99987 2.51818,0 2.66631,0.11109 2.66631,1.99973 0,1.60651 0.29493,2.01495 1.49981,2.07707 1.12863,0.0582 1.21111,0.15276 0.33329,0.38216 -0.64159,0.16767 -1.16652,0.73279 -1.16652,1.25584 0,1.40456 3.167,1.21174 3.53999,-0.21552 0.29032,-1.11097 0.30852,-1.11097 0.38216,0 0.0612,0.92278 0.69104,1.16651 3.01453,1.16651 2.71611,0 2.90811,-0.11289 2.55072,-1.4998 -0.34621,-1.34354 -0.26869,-1.40319 0.74404,-0.57247 0.7171,0.58822 0.98716,1.44137 0.73851,2.33303 -0.26538,0.9516 -0.19717,1.12597 0.21114,0.53976 0.44935,-0.64511 1.26789,-0.0502 3.20992,2.33303 3.71947,4.56444 11.22301,12.02992 16.24287,16.1605 3.94954,3.24987 14.83244,10.70202 15.6289,10.70202 0.18651,0 1.77713,0.83884 3.53469,1.86408 4.65453,2.71512 16.03043,7.46803 17.87443,7.46803 2.41315,0 6.25088,-4.01795 18.46369,-19.3308 1.63859,-2.05451 3.56898,-3.76 4.39121,-3.87959 2.54329,-0.36991 9.98402,2.88231 35.12342,15.35186 8.10536,4.0204 8.07139,3.99315 8.53434,6.84594 0.44825,2.76222 -1.06252,12.86354 -2.5317,16.92753 -2.52915,6.99604 -8.10114,12.35003 -18.33436,17.61707 -7.18629,3.69877 -10.46356,4.5125 -19.3308,4.79974 -4.58274,0.14844 -8.93217,0.1268 -9.66541,-0.0481 z M 345.9547,562.25971 c 0,-0.74064 -0.44439,-1.33316 -0.99987,-1.33316 -0.55548,0 -0.99987,0.59252 -0.99987,1.33316 0,0.74065 0.44439,1.33316 0.99987,1.33316 0.55548,0 0.99987,-0.59251 0.99987,-1.33316 z"
           id="path39"
           transform="scale(0.26458333)" /><path
           style="opacity:0.5;fill:#ffffff;fill-opacity:1;stroke:none;stroke-width:7.55807;stroke-linecap:round;stroke-linejoin:round;paint-order:stroke markers fill"
           d="m 331.95653,562.80968 c 0,-0.32063 -0.70429,-0.85074 -1.5651,-1.17802 -2.42804,-0.92314 -10.15948,-13.56562 -12.82942,-20.97872 -0.53948,-1.49786 -1.4171,-3.95201 -1.95028,-5.45367 -4.74047,-13.35124 -3.534,-29.76556 3.04456,-41.42213 2.61357,-4.631 3.42907,-5.64184 9.18868,-11.38976 2.69065,-2.68519 5.27984,-4.73336 5.75376,-4.5515 0.47392,0.18186 1.15995,0.0324 1.52451,-0.33219 1.07709,-1.07709 12.90612,-1.53137 15.71726,-0.60361 2.22698,0.73497 4.28037,2.93616 3.92135,4.20359 -0.0779,0.27497 0.13813,0.49994 0.48004,0.49994 0.79245,0 1.68941,2.61936 1.45158,4.23898 -0.10245,0.69774 0.11206,1.05765 0.49085,0.82355 0.70985,-0.43872 1.8089,2.01874 1.53685,3.43635 -0.0879,0.45828 0.11682,0.83323 0.45503,0.83323 0.33821,0 0.98155,0.97487 1.42965,2.16638 0.4481,1.19151 1.06735,2.76631 1.37612,3.49954 0.30877,0.73324 2.1044,5.08267 3.99029,9.6654 1.88589,4.58274 3.85269,9.12843 4.37068,10.10154 2.59988,4.88431 0.55243,9.49473 -9.14817,20.59977 -5.90171,6.75615 -5.87146,8.09426 0.39821,17.61465 2.03089,3.08387 3.69252,6.18771 3.69252,6.89742 0,1.62295 -2.0695,2.20678 -4.10984,1.15946 -1.09041,-0.55973 -1.8961,-0.59407 -2.69228,-0.11476 -0.62491,0.37619 -1.37481,0.42931 -1.66645,0.11804 -0.29164,-0.31128 -0.17404,-0.69363 0.26131,-0.84965 0.52979,-0.18988 0.36445,-0.71082 -0.49993,-1.5752 -0.71032,-0.71032 -1.2915,-1.74144 -1.2915,-2.29136 0,-0.72213 -0.74064,-0.99987 -2.66631,-0.99987 -3.0987,0 -3.39656,0.8916 -1.2216,3.65662 l 1.44473,1.83667 -1.47671,-0.46869 c -0.83643,-0.26547 -1.87622,-0.13713 -2.39811,0.296 -1.22711,1.01841 -2.89078,-1.71109 -1.7427,-2.85917 0.40058,-0.40058 0.72833,-1.11828 0.72833,-1.59488 0,-1.2043 -2.62194,-1.09124 -3.09185,0.13332 -0.21102,0.54992 -1.10149,0.99986 -1.97881,0.99986 -1.70544,0 -2.0986,1.22964 -0.80635,2.52189 0.43383,0.43384 0.6588,0.90595 0.49994,1.04915 -0.62663,0.5648 -10.62084,0.85823 -10.62084,0.31183 z m 23.33028,-76.87331 c 0,-0.54993 -0.27612,-0.99987 -0.61361,-0.99987 -0.33749,0 -0.81417,-0.9131 -1.05929,-2.02913 -0.85148,-3.87674 -2.28041,-4.50259 -10.04041,-4.39751 -3.82335,0.0518 -6.9514,-0.13083 -6.95122,-0.4058 1.7e-4,-0.27496 -0.29024,-0.49993 -0.64535,-0.49993 -0.35511,0 -0.473,0.44994 -0.26197,0.99987 0.24744,0.64482 -0.0149,0.99987 -0.73878,0.99987 -1.74245,0 -5.01938,3.66555 -5.01938,5.61465 v 1.71772 h 12.665 c 10.8134,0 12.66501,-0.14618 12.66501,-0.99987 z"
           id="path40"
           transform="scale(0.26458333)" /><path
           style="opacity:0.5;fill:#ffffff;fill-opacity:1;stroke:none;stroke-width:7.55807;stroke-linecap:round;stroke-linejoin:round;paint-order:stroke markers fill"
           d="m 329.95929,486.10302 c 0.005,-1.54983 2.6504,-5.18846 4.32874,-5.95316 0.91739,-0.41799 1.66775,-0.93681 1.66746,-1.15292 -5.8e-4,-0.4438 12.20147,-0.18925 14.47608,0.30198 0.96255,0.20787 2.0184,1.44972 3.03032,3.56414 l 1.55305,3.2451 -3.96132,0.41404 c -7.3839,0.77177 -21.09708,0.49926 -21.09433,-0.41918 z"
           id="path41"
           transform="scale(0.26458333)" /><path
           style="opacity:0.5;fill:#ffffff;fill-opacity:1;stroke:none;stroke-width:15.1161;stroke-linecap:round;stroke-linejoin:round;paint-order:stroke markers fill"
           d="m 265.81845,668.24583 c 0.85542,-3.62935 0.79353,-3.66804 -6.16038,-3.85115 -11.06622,-0.29137 -16.22153,0.22103 -17.13766,1.70338 -1.83774,2.97351 -2.24821,-2.69838 -0.4466,-6.17098 2.93799,-5.66299 2.35214,-8.72889 -4.17998,-21.87469 -6.84808,-13.7817 -8.91994,-19.21061 -12.72244,-33.33677 -9.63003,-35.77523 -8.13264,-73.31582 4.31236,-108.11398 3.86581,-10.80938 12.06836,-27.99633 13.36138,-27.99633 0.61761,0 1.12293,-0.85703 1.12293,-1.90451 0,-1.04749 1.04986,-2.95438 2.33302,-4.23755 1.28317,-1.28316 2.33303,-2.9258 2.33303,-3.65031 0,-0.72451 0.83341,-1.59509 1.85202,-1.93463 1.12415,-0.37472 1.48619,-0.0254 0.92119,0.88877 -1.02916,1.66522 0.36821,1.78578 17.55746,1.5147 8.81549,-0.13902 10.99856,0.21152 10.99856,1.76609 0,1.06674 -0.89988,2.28485 -1.99974,2.70691 -1.09985,0.42205 -1.99973,1.6219 -1.99973,2.66632 0,1.04442 -0.89989,2.24426 -1.99974,2.66631 -1.09986,0.42206 -1.99974,1.68609 -1.99974,2.80895 0,1.12287 -0.63533,2.04158 -1.41184,2.04158 -0.77651,0 -1.09722,0.50907 -0.71268,1.13126 0.38454,0.6222 -0.50331,2.42196 -1.97299,3.99948 -1.46968,1.57752 -2.30797,2.86822 -1.86286,2.86822 0.44511,0 -0.39151,1.68637 -1.85916,3.7475 -1.46765,2.06112 -3.07334,5.36069 -3.5682,7.33237 -0.49486,1.97168 -1.43463,3.58487 -2.08838,3.58487 -0.65375,0 -1.05807,0.44994 -0.89849,0.99987 0.15958,0.54993 -0.52956,3.0996 -1.53142,5.66593 -2.23193,5.71719 -2.01857,5.03192 -3.3207,10.66527 -0.5932,2.56633 -1.52742,5.26597 -2.07604,5.99921 -0.54863,0.73324 -1.00225,2.23304 -1.00806,3.3329 -0.006,1.09985 -0.97584,7.69899 -2.15565,14.66474 -1.1798,6.96576 -2.08643,15.66462 -2.01474,19.33081 0.1064,5.44095 3.14605,29.47735 4.38339,34.66212 1.19756,5.01815 3.79191,13.9694 5.02306,17.33107 2.5677,7.01107 14.55097,30.56954 16.85453,33.13511 2.32167,2.58573 3.17382,8.85939 1.20337,8.85939 -0.62728,0 -0.83584,0.49296 -0.46347,1.09546 0.37237,0.6025 -0.19749,2.78109 -1.26634,4.84131 -1.06885,2.06021 -2.27128,5.61673 -2.67205,7.90336 -0.40078,2.28662 -1.37278,4.75743 -2.16,5.49067 -1.00757,0.93847 -1.1755,0.24777 -0.56722,-2.33303 z"
           id="path42"
           transform="scale(0.26458333)" /><path
           style="opacity:0.5;fill:#ffffff;fill-opacity:1;stroke:none;stroke-width:15.1161;stroke-linecap:round;stroke-linejoin:round;paint-order:stroke markers fill"
           d="m 213.28813,746.05075 c -0.01,-0.44825 5.83974,-18.31436 12.9983,-39.70248 l 13.01557,-38.88748 5.33672,-1.52166 c 2.9352,-0.83691 8.59402,-1.33519 12.57515,-1.10728 10.26388,0.58757 10.70892,3.12998 3.97155,22.68864 -2.85214,8.2798 -5.19318,15.20416 -5.20232,15.38747 -0.0499,1.00038 5.92822,0.0789 10.28839,-1.5858 2.76447,-1.0555 14.85958,-5.0465 26.87801,-8.86889 16.07154,-5.11146 22.41913,-6.59735 23.99686,-5.61736 25.08503,15.58141 52.59644,23.4267 82.13469,23.42195 48.85407,-0.008 93.00662,-22.46577 122.77349,-62.44794 4.3241,-5.80801 8.36634,-10.92706 8.98277,-11.37566 0.61642,-0.4486 0.91956,-1.17905 0.67361,-1.62323 -0.24594,-0.44417 0.45273,-1.8769 1.55259,-3.18384 1.09985,-1.30694 1.99974,-3.27613 1.99974,-4.37599 0,-1.09985 0.72831,-1.85695 1.61846,-1.68244 1.00799,0.19761 1.30502,-0.55669 0.78746,-1.99974 -0.45706,-1.27437 -0.33929,-1.87091 0.2617,-1.32564 0.60098,0.54526 1.95865,-0.24494 3.01705,-1.75601 1.05839,-1.51106 2.76198,-2.42596 3.78575,-2.0331 1.02379,0.39287 1.86143,0.1332 1.86143,-0.57702 0,-0.71023 0.89988,-1.29132 1.99973,-1.29132 1.09986,0 1.99974,0.5932 1.99974,1.31823 0,1.57556 6.99014,1.2838 8.12542,-0.33914 0.43617,-0.62354 2.23593,-0.77123 3.99947,-0.32819 2.21082,0.5554 3.26596,1.81852 3.39815,4.06796 0.10544,1.79435 -0.33763,2.9353 -0.98459,2.53545 -0.64699,-0.39985 -0.84873,0.12669 -0.44835,1.17009 0.4004,1.04339 -0.24464,2.86971 -1.43342,4.05849 -1.18877,1.18877 -1.85211,2.66186 -1.47408,3.27354 0.96804,1.56631 -11.00379,22.53927 -19.09987,33.46027 -14.61031,19.70821 -41.31203,42.07293 -63.40672,53.10794 -49.227,24.586 -110.30051,24.75094 -159.3191,0.43028 l -8.38378,-4.15963 -12.13599,3.90147 c -6.6748,2.1458 -24.73435,7.90753 -40.13233,12.80384 -15.39798,4.89631 -32.0458,10.26966 -36.99515,11.9408 -4.94936,1.67113 -9.0066,2.67167 -9.0161,2.22342 z"
           id="path43"
           transform="scale(0.26458333)" /><path
           style="opacity:0.5;fill:#ffffff;fill-opacity:1;stroke:none;stroke-width:15.1161;stroke-linecap:round;stroke-linejoin:round;paint-order:stroke markers fill"
           d="m 539.04739,618.25238 c 2.31357,-4.57772 7.60652,-19.87384 8.41903,-24.33015 0.33422,-1.83309 1.38079,-7.12233 2.32571,-11.75389 2.09032,-10.24573 1.83042,-40.40105 -0.44447,-51.57115 -0.89598,-4.39942 -1.66366,-8.89883 -1.70595,-9.99869 -0.0423,-1.09986 -0.52577,-2.59966 -1.07439,-3.3329 -0.54862,-0.73323 -1.41572,-3.28894 -1.92689,-5.67934 -0.51117,-2.3904 -1.83718,-6.16588 -2.9467,-8.38995 -1.10951,-2.22408 -2.17127,-4.7677 -2.35947,-5.65251 -0.97282,-4.57363 -9.75027,-20.16598 -15.64796,-27.79718 -2.06491,-2.67185 -3.75438,-5.25016 -3.75438,-5.72958 0,-0.47943 -1.39452,-2.19286 -3.09894,-3.80763 -1.70442,-1.61477 -3.48536,-3.98581 -3.95764,-5.26898 -0.47228,-1.28316 -1.47744,-2.33303 -2.23369,-2.33303 -0.75625,0 -1.37352,-0.44994 -1.37172,-0.99987 0.002,-0.54992 7.91085,-0.96964 17.57565,-0.9327 14.13134,0.054 17.69414,0.44561 18.19426,1.99974 0.34204,1.06291 0.98188,2.23253 1.42187,2.59915 1.77999,1.48319 6.79918,9.31649 6.79918,10.61129 0,0.76292 0.51291,1.38714 1.1398,1.38714 1.56141,0 11.63218,21.94151 15.47309,33.71168 5.68831,17.4314 7.61002,29.07578 8.32813,50.46333 0.86161,25.66138 -1.13022,39.39602 -9.88949,68.19273 -0.68565,2.25411 -0.82608,2.24476 -2.51552,-0.16726 -1.53905,-2.19728 -3.20376,-2.50434 -11.90119,-2.19514 -7.01005,0.24922 -10.83747,1.01618 -12.47739,2.50029 -3.52746,3.19232 -4.45398,2.59621 -2.37093,-1.5254 z"
           id="path44"
           transform="scale(0.26458333)" /><path
           style="opacity:0.5;fill:#ffffff;fill-opacity:1;stroke:none;stroke-width:15.1161;stroke-linecap:round;stroke-linejoin:round;paint-order:stroke markers fill"
           d="m 267.09073,459.56124 c -17.8165,-0.49813 -18.74674,-1.531 -10.71751,-11.89984 25.18477,-32.52328 62.27482,-56.04528 104.09787,-66.01743 16.50552,-3.93553 58.68025,-4.29342 74.13867,-0.62915 25.80157,6.11602 45.39624,14.40678 64.91721,27.46728 12.37022,8.2763 30.70496,25.07135 39.43825,36.12635 l 4.73928,5.99921 -17.88558,-0.21432 -17.88559,-0.21433 -8.03024,-7.04007 c -16.29624,-14.28682 -32.1659,-23.38428 -52.90106,-30.32615 -45.32706,-15.17492 -94.08448,-8.41018 -133.8885,18.57606 -9.11291,6.17836 -15.20182,11.34571 -25.78815,21.88513 l -6.69546,6.6658 z"
           id="path45"
           transform="scale(0.26458333)" /><path
           style="opacity:0.5;fill:#ffffff;fill-opacity:1;stroke:none;stroke-width:7.55807;stroke-linecap:round;stroke-linejoin:round;paint-order:stroke markers fill"
           d="m 440.27568,641.2047 c -6.16455,-1.47043 -20.20622,-5.81117 -24.33014,-7.52126 -0.91655,-0.38006 -4.51608,-1.78685 -7.99896,-3.12617 -8.46153,-3.25385 -12.40274,-5.17024 -20.33067,-9.88566 -11.78241,-7.00801 -26.00656,-18.88959 -35.28581,-29.47461 -2.54273,-2.90054 -4.95584,-5.57368 -5.36245,-5.9403 -2.27007,-2.04678 -9.01338,-11.79005 -8.61075,-12.44151 0.27244,-0.44083 0.1782,-0.58155 -0.2233,-0.33342 -0.62966,0.38915 -4.09576,-3.73543 -7.02998,-8.36551 -1.55638,-2.45591 -1.41127,-3.2273 0.23512,-1.24991 0.91103,1.09419 1.55487,1.38924 2.01892,0.92519 0.4012,-0.4012 2.58276,-0.54528 5.30602,-0.35043 4.38072,0.31344 4.6247,0.25584 4.6247,-1.09183 0,-0.82026 -0.4234,-1.42273 -0.99987,-1.42273 -0.54992,0 -0.99986,-0.46764 -0.99986,-1.03921 0,-0.57156 0.30264,-0.85216 0.67254,-0.62355 1.03602,0.6403 3.32693,-0.31118 3.32693,-1.38176 0,-0.52523 0.59992,-0.95495 1.33316,-0.95495 0.74064,0 1.33316,0.44438 1.33316,0.99987 0,0.54992 -0.44994,0.99986 -0.99987,0.99986 -0.54993,0 -0.99987,0.44995 -0.99987,0.99987 0,0.54993 0.29996,0.99987 0.66658,0.99987 0.36662,0 0.66658,0.59992 0.66658,1.33316 0,0.74065 0.44439,1.33316 0.99987,1.33316 0.54993,0 0.99987,-0.44994 0.99987,-0.99987 0,-0.54993 0.44994,-0.99987 0.99987,-0.99987 0.54993,0 0.99987,0.29996 0.99987,0.66658 0,0.36662 0.44994,0.66658 0.99987,0.66658 0.54992,0 0.99986,-0.44994 0.99986,-0.99987 0,-0.54993 -0.44994,-0.99987 -0.99986,-0.99987 -0.54993,0 -0.99987,-0.44994 -0.99987,-0.99987 0,-0.54992 -0.29996,-0.99987 -0.66658,-0.99987 -0.36662,0 -0.66658,-0.44994 -0.66658,-0.99986 0,-0.72213 0.74064,-0.99987 2.66632,-0.99987 2.51818,0 2.66631,0.11109 2.66631,1.99973 0,1.60651 0.29493,2.01495 1.49981,2.07707 1.12863,0.0582 1.21111,0.15276 0.33329,0.38216 -0.64159,0.16767 -1.16652,0.73279 -1.16652,1.25584 0,1.40456 3.167,1.21174 3.53999,-0.21552 0.29032,-1.11097 0.30852,-1.11097 0.38216,0 0.0612,0.92278 0.69104,1.16651 3.01453,1.16651 2.71611,0 2.90811,-0.11289 2.55072,-1.4998 -0.34621,-1.34354 -0.26869,-1.40319 0.74404,-0.57247 0.7171,0.58822 0.98716,1.44137 0.73851,2.33303 -0.26538,0.9516 -0.19717,1.12597 0.21114,0.53976 0.44935,-0.64511 1.26789,-0.0502 3.20992,2.33303 3.71947,4.56444 11.22301,12.02992 16.24287,16.1605 3.94954,3.24987 14.83244,10.70202 15.6289,10.70202 0.18651,0 1.77713,0.83884 3.53469,1.86408 4.65453,2.71512 16.03043,7.46803 17.87443,7.46803 2.41315,0 6.25088,-4.01795 18.46369,-19.3308 1.63859,-2.05451 3.56898,-3.76 4.39121,-3.87959 2.54329,-0.36991 9.98402,2.88231 35.12342,15.35186 8.10536,4.0204 8.07139,3.99315 8.53434,6.84594 0.44825,2.76222 -1.06252,12.86354 -2.5317,16.92753 -2.52915,6.99604 -8.10114,12.35003 -18.33436,17.61707 -7.18629,3.69877 -10.46356,4.5125 -19.3308,4.79974 -4.58274,0.14844 -8.93217,0.1268 -9.66541,-0.0481 z M 345.9547,562.25971 c 0,-0.74064 -0.44439,-1.33316 -0.99987,-1.33316 -0.55548,0 -0.99987,0.59252 -0.99987,1.33316 0,0.74065 0.44439,1.33316 0.99987,1.33316 0.55548,0 0.99987,-0.59251 0.99987,-1.33316 z"
           id="path46"
           transform="scale(0.26458333)" /><path
           style="opacity:0.5;fill:#ffffff;fill-opacity:1;stroke:none;stroke-width:7.55807;stroke-linecap:round;stroke-linejoin:round;paint-order:stroke markers fill"
           d="m 331.95653,562.80968 c 0,-0.32063 -0.70429,-0.85074 -1.5651,-1.17802 -2.42804,-0.92314 -10.15948,-13.56562 -12.82942,-20.97872 -0.53948,-1.49786 -1.4171,-3.95201 -1.95028,-5.45367 -4.74047,-13.35124 -3.534,-29.76556 3.04456,-41.42213 2.61357,-4.631 3.42907,-5.64184 9.18868,-11.38976 2.69065,-2.68519 5.27984,-4.73336 5.75376,-4.5515 0.47392,0.18186 1.15995,0.0324 1.52451,-0.33219 1.07709,-1.07709 12.90612,-1.53137 15.71726,-0.60361 2.22698,0.73497 4.28037,2.93616 3.92135,4.20359 -0.0779,0.27497 0.13813,0.49994 0.48004,0.49994 0.79245,0 1.68941,2.61936 1.45158,4.23898 -0.10245,0.69774 0.11206,1.05765 0.49085,0.82355 0.70985,-0.43872 1.8089,2.01874 1.53685,3.43635 -0.0879,0.45828 0.11682,0.83323 0.45503,0.83323 0.33821,0 0.98155,0.97487 1.42965,2.16638 0.4481,1.19151 1.06735,2.76631 1.37612,3.49954 0.30877,0.73324 2.1044,5.08267 3.99029,9.6654 1.88589,4.58274 3.85269,9.12843 4.37068,10.10154 2.59988,4.88431 0.55243,9.49473 -9.14817,20.59977 -5.90171,6.75615 -5.87146,8.09426 0.39821,17.61465 2.03089,3.08387 3.69252,6.18771 3.69252,6.89742 0,1.62295 -2.0695,2.20678 -4.10984,1.15946 -1.09041,-0.55973 -1.8961,-0.59407 -2.69228,-0.11476 -0.62491,0.37619 -1.37481,0.42931 -1.66645,0.11804 -0.29164,-0.31128 -0.17404,-0.69363 0.26131,-0.84965 0.52979,-0.18988 0.36445,-0.71082 -0.49993,-1.5752 -0.71032,-0.71032 -1.2915,-1.74144 -1.2915,-2.29136 0,-0.72213 -0.74064,-0.99987 -2.66631,-0.99987 -3.0987,0 -3.39656,0.8916 -1.2216,3.65662 l 1.44473,1.83667 -1.47671,-0.46869 c -0.83643,-0.26547 -1.87622,-0.13713 -2.39811,0.296 -1.22711,1.01841 -2.89078,-1.71109 -1.7427,-2.85917 0.40058,-0.40058 0.72833,-1.11828 0.72833,-1.59488 0,-1.2043 -2.62194,-1.09124 -3.09185,0.13332 -0.21102,0.54992 -1.10149,0.99986 -1.97881,0.99986 -1.70544,0 -2.0986,1.22964 -0.80635,2.52189 0.43383,0.43384 0.6588,0.90595 0.49994,1.04915 -0.62663,0.5648 -10.62084,0.85823 -10.62084,0.31183 z m 23.33028,-76.87331 c 0,-0.54993 -0.27612,-0.99987 -0.61361,-0.99987 -0.33749,0 -0.81417,-0.9131 -1.05929,-2.02913 -0.85148,-3.87674 -2.28041,-4.50259 -10.04041,-4.39751 -3.82335,0.0518 -6.9514,-0.13083 -6.95122,-0.4058 1.7e-4,-0.27496 -0.29024,-0.49993 -0.64535,-0.49993 -0.35511,0 -0.473,0.44994 -0.26197,0.99987 0.24744,0.64482 -0.0149,0.99987 -0.73878,0.99987 -1.74245,0 -5.01938,3.66555 -5.01938,5.61465 v 1.71772 h 12.665 c 10.8134,0 12.66501,-0.14618 12.66501,-0.99987 z"
           id="path47"
           transform="scale(0.26458333)" /><path
           style="opacity:0.5;fill:#ffffff;fill-opacity:1;stroke:none;stroke-width:7.55807;stroke-linecap:round;stroke-linejoin:round;paint-order:stroke markers fill"
           d="m 329.95929,486.10302 c 0.005,-1.54983 2.6504,-5.18846 4.32874,-5.95316 0.91739,-0.41799 1.66775,-0.93681 1.66746,-1.15292 -5.8e-4,-0.4438 12.20147,-0.18925 14.47608,0.30198 0.96255,0.20787 2.0184,1.44972 3.03032,3.56414 l 1.55305,3.2451 -3.96132,0.41404 c -7.3839,0.77177 -21.09708,0.49926 -21.09433,-0.41918 z"
           id="path48"
           transform="scale(0.26458333)" /><path
           style="opacity:0.5;fill:#ffffff;fill-opacity:1;stroke:none;stroke-width:15.1161;stroke-linecap:round;stroke-linejoin:round;paint-order:stroke markers fill"
           d="m 265.81845,668.24583 c 0.85542,-3.62935 0.79353,-3.66804 -6.16038,-3.85115 -11.06622,-0.29137 -16.22153,0.22103 -17.13766,1.70338 -1.83774,2.97351 -2.24821,-2.69838 -0.4466,-6.17098 2.93799,-5.66299 2.35214,-8.72889 -4.17998,-21.87469 -6.84808,-13.7817 -8.91994,-19.21061 -12.72244,-33.33677 -9.63003,-35.77523 -8.13264,-73.31582 4.31236,-108.11398 3.86581,-10.80938 12.06836,-27.99633 13.36138,-27.99633 0.61761,0 1.12293,-0.85703 1.12293,-1.90451 0,-1.04749 1.04986,-2.95438 2.33302,-4.23755 1.28317,-1.28316 2.33303,-2.9258 2.33303,-3.65031 0,-0.72451 0.83341,-1.59509 1.85202,-1.93463 1.12415,-0.37472 1.48619,-0.0254 0.92119,0.88877 -1.02916,1.66522 0.36821,1.78578 17.55746,1.5147 8.81549,-0.13902 10.99856,0.21152 10.99856,1.76609 0,1.06674 -0.89988,2.28485 -1.99974,2.70691 -1.09985,0.42205 -1.99973,1.6219 -1.99973,2.66632 0,1.04442 -0.89989,2.24426 -1.99974,2.66631 -1.09986,0.42206 -1.99974,1.68609 -1.99974,2.80895 0,1.12287 -0.63533,2.04158 -1.41184,2.04158 -0.77651,0 -1.09722,0.50907 -0.71268,1.13126 0.38454,0.6222 -0.50331,2.42196 -1.97299,3.99948 -1.46968,1.57752 -2.30797,2.86822 -1.86286,2.86822 0.44511,0 -0.39151,1.68637 -1.85916,3.7475 -1.46765,2.06112 -3.07334,5.36069 -3.5682,7.33237 -0.49486,1.97168 -1.43463,3.58487 -2.08838,3.58487 -0.65375,0 -1.05807,0.44994 -0.89849,0.99987 0.15958,0.54993 -0.52956,3.0996 -1.53142,5.66593 -2.23193,5.71719 -2.01857,5.03192 -3.3207,10.66527 -0.5932,2.56633 -1.52742,5.26597 -2.07604,5.99921 -0.54863,0.73324 -1.00225,2.23304 -1.00806,3.3329 -0.006,1.09985 -0.97584,7.69899 -2.15565,14.66474 -1.1798,6.96576 -2.08643,15.66462 -2.01474,19.33081 0.1064,5.44095 3.14605,29.47735 4.38339,34.66212 1.19756,5.01815 3.79191,13.9694 5.02306,17.33107 2.5677,7.01107 14.55097,30.56954 16.85453,33.13511 2.32167,2.58573 3.17382,8.85939 1.20337,8.85939 -0.62728,0 -0.83584,0.49296 -0.46347,1.09546 0.37237,0.6025 -0.19749,2.78109 -1.26634,4.84131 -1.06885,2.06021 -2.27128,5.61673 -2.67205,7.90336 -0.40078,2.28662 -1.37278,4.75743 -2.16,5.49067 -1.00757,0.93847 -1.1755,0.24777 -0.56722,-2.33303 z"
           id="path49"
           transform="scale(0.26458333)" /><path
           style="opacity:0.5;fill:#ffffff;fill-opacity:1;stroke:none;stroke-width:15.1161;stroke-linecap:round;stroke-linejoin:round;paint-order:stroke markers fill"
           d="m 213.28813,746.05075 c -0.01,-0.44825 5.83974,-18.31436 12.9983,-39.70248 l 13.01557,-38.88748 5.33672,-1.52166 c 2.9352,-0.83691 8.59402,-1.33519 12.57515,-1.10728 10.26388,0.58757 10.70892,3.12998 3.97155,22.68864 -2.85214,8.2798 -5.19318,15.20416 -5.20232,15.38747 -0.0499,1.00038 5.92822,0.0789 10.28839,-1.5858 2.76447,-1.0555 14.85958,-5.0465 26.87801,-8.86889 16.07154,-5.11146 22.41913,-6.59735 23.99686,-5.61736 25.08503,15.58141 52.59644,23.4267 82.13469,23.42195 48.85407,-0.008 93.00662,-22.46577 122.77349,-62.44794 4.3241,-5.80801 8.36634,-10.92706 8.98277,-11.37566 0.61642,-0.4486 0.91956,-1.17905 0.67361,-1.62323 -0.24594,-0.44417 0.45273,-1.8769 1.55259,-3.18384 1.09985,-1.30694 1.99974,-3.27613 1.99974,-4.37599 0,-1.09985 0.72831,-1.85695 1.61846,-1.68244 1.00799,0.19761 1.30502,-0.55669 0.78746,-1.99974 -0.45706,-1.27437 -0.33929,-1.87091 0.2617,-1.32564 0.60098,0.54526 1.95865,-0.24494 3.01705,-1.75601 1.05839,-1.51106 2.76198,-2.42596 3.78575,-2.0331 1.02379,0.39287 1.86143,0.1332 1.86143,-0.57702 0,-0.71023 0.89988,-1.29132 1.99973,-1.29132 1.09986,0 1.99974,0.5932 1.99974,1.31823 0,1.57556 6.99014,1.2838 8.12542,-0.33914 0.43617,-0.62354 2.23593,-0.77123 3.99947,-0.32819 2.21082,0.5554 3.26596,1.81852 3.39815,4.06796 0.10544,1.79435 -0.33763,2.9353 -0.98459,2.53545 -0.64699,-0.39985 -0.84873,0.12669 -0.44835,1.17009 0.4004,1.04339 -0.24464,2.86971 -1.43342,4.05849 -1.18877,1.18877 -1.85211,2.66186 -1.47408,3.27354 0.96804,1.56631 -11.00379,22.53927 -19.09987,33.46027 -14.61031,19.70821 -41.31203,42.07293 -63.40672,53.10794 -49.227,24.586 -110.30051,24.75094 -159.3191,0.43028 l -8.38378,-4.15963 -12.13599,3.90147 c -6.6748,2.1458 -24.73435,7.90753 -40.13233,12.80384 -15.39798,4.89631 -32.0458,10.26966 -36.99515,11.9408 -4.94936,1.67113 -9.0066,2.67167 -9.0161,2.22342 z"
           id="path50"
           transform="scale(0.26458333)" /><path
           style="opacity:0.5;fill:#ffffff;fill-opacity:1;stroke:none;stroke-width:15.1161;stroke-linecap:round;stroke-linejoin:round;paint-order:stroke markers fill"
           d="m 539.04739,618.25238 c 2.31357,-4.57772 7.60652,-19.87384 8.41903,-24.33015 0.33422,-1.83309 1.38079,-7.12233 2.32571,-11.75389 2.09032,-10.24573 1.83042,-40.40105 -0.44447,-51.57115 -0.89598,-4.39942 -1.66366,-8.89883 -1.70595,-9.99869 -0.0423,-1.09986 -0.52577,-2.59966 -1.07439,-3.3329 -0.54862,-0.73323 -1.41572,-3.28894 -1.92689,-5.67934 -0.51117,-2.3904 -1.83718,-6.16588 -2.9467,-8.38995 -1.10951,-2.22408 -2.17127,-4.7677 -2.35947,-5.65251 -0.97282,-4.57363 -9.75027,-20.16598 -15.64796,-27.79718 -2.06491,-2.67185 -3.75438,-5.25016 -3.75438,-5.72958 0,-0.47943 -1.39452,-2.19286 -3.09894,-3.80763 -1.70442,-1.61477 -3.48536,-3.98581 -3.95764,-5.26898 -0.47228,-1.28316 -1.47744,-2.33303 -2.23369,-2.33303 -0.75625,0 -1.37352,-0.44994 -1.37172,-0.99987 0.002,-0.54992 7.91085,-0.96964 17.57565,-0.9327 14.13134,0.054 17.69414,0.44561 18.19426,1.99974 0.34204,1.06291 0.98188,2.23253 1.42187,2.59915 1.77999,1.48319 6.79918,9.31649 6.79918,10.61129 0,0.76292 0.51291,1.38714 1.1398,1.38714 1.56141,0 11.63218,21.94151 15.47309,33.71168 5.68831,17.4314 7.61002,29.07578 8.32813,50.46333 0.86161,25.66138 -1.13022,39.39602 -9.88949,68.19273 -0.68565,2.25411 -0.82608,2.24476 -2.51552,-0.16726 -1.53905,-2.19728 -3.20376,-2.50434 -11.90119,-2.19514 -7.01005,0.24922 -10.83747,1.01618 -12.47739,2.50029 -3.52746,3.19232 -4.45398,2.59621 -2.37093,-1.5254 z"
           id="path51"
           transform="scale(0.26458333)" /><path
           style="opacity:0.5;fill:#ffffff;fill-opacity:1;stroke:none;stroke-width:15.1161;stroke-linecap:round;stroke-linejoin:round;paint-order:stroke markers fill"
           d="m 267.09073,459.56124 c -17.8165,-0.49813 -18.74674,-1.531 -10.71751,-11.89984 25.18477,-32.52328 62.27482,-56.04528 104.09787,-66.01743 16.50552,-3.93553 58.68025,-4.29342 74.13867,-0.62915 25.80157,6.11602 45.39624,14.40678 64.91721,27.46728 12.37022,8.2763 30.70496,25.07135 39.43825,36.12635 l 4.73928,5.99921 -17.88558,-0.21432 -17.88559,-0.21433 -8.03024,-7.04007 c -16.29624,-14.28682 -32.1659,-23.38428 -52.90106,-30.32615 -45.32706,-15.17492 -94.08448,-8.41018 -133.8885,18.57606 -9.11291,6.17836 -15.20182,11.34571 -25.78815,21.88513 l -6.69546,6.6658 z"
           id="path52"
           transform="scale(0.26458333)" /><path
           style="opacity:0.5;fill:#ffffff;fill-opacity:1;stroke:none;stroke-width:7.55807;stroke-linecap:round;stroke-linejoin:round;paint-order:stroke markers fill"
           d="m 440.27568,641.2047 c -6.16455,-1.47043 -20.20622,-5.81117 -24.33014,-7.52126 -0.91655,-0.38006 -4.51608,-1.78685 -7.99896,-3.12617 -8.46153,-3.25385 -12.40274,-5.17024 -20.33067,-9.88566 -11.78241,-7.00801 -26.00656,-18.88959 -35.28581,-29.47461 -2.54273,-2.90054 -4.95584,-5.57368 -5.36245,-5.9403 -2.27007,-2.04678 -9.01338,-11.79005 -8.61075,-12.44151 0.27244,-0.44083 0.1782,-0.58155 -0.2233,-0.33342 -0.62966,0.38915 -4.09576,-3.73543 -7.02998,-8.36551 -1.55638,-2.45591 -1.41127,-3.2273 0.23512,-1.24991 0.91103,1.09419 1.55487,1.38924 2.01892,0.92519 0.4012,-0.4012 2.58276,-0.54528 5.30602,-0.35043 4.38072,0.31344 4.6247,0.25584 4.6247,-1.09183 0,-0.82026 -0.4234,-1.42273 -0.99987,-1.42273 -0.54992,0 -0.99986,-0.46764 -0.99986,-1.03921 0,-0.57156 0.30264,-0.85216 0.67254,-0.62355 1.03602,0.6403 3.32693,-0.31118 3.32693,-1.38176 0,-0.52523 0.59992,-0.95495 1.33316,-0.95495 0.74064,0 1.33316,0.44438 1.33316,0.99987 0,0.54992 -0.44994,0.99986 -0.99987,0.99986 -0.54993,0 -0.99987,0.44995 -0.99987,0.99987 0,0.54993 0.29996,0.99987 0.66658,0.99987 0.36662,0 0.66658,0.59992 0.66658,1.33316 0,0.74065 0.44439,1.33316 0.99987,1.33316 0.54993,0 0.99987,-0.44994 0.99987,-0.99987 0,-0.54993 0.44994,-0.99987 0.99987,-0.99987 0.54993,0 0.99987,0.29996 0.99987,0.66658 0,0.36662 0.44994,0.66658 0.99987,0.66658 0.54992,0 0.99986,-0.44994 0.99986,-0.99987 0,-0.54993 -0.44994,-0.99987 -0.99986,-0.99987 -0.54993,0 -0.99987,-0.44994 -0.99987,-0.99987 0,-0.54992 -0.29996,-0.99987 -0.66658,-0.99987 -0.36662,0 -0.66658,-0.44994 -0.66658,-0.99986 0,-0.72213 0.74064,-0.99987 2.66632,-0.99987 2.51818,0 2.66631,0.11109 2.66631,1.99973 0,1.60651 0.29493,2.01495 1.49981,2.07707 1.12863,0.0582 1.21111,0.15276 0.33329,0.38216 -0.64159,0.16767 -1.16652,0.73279 -1.16652,1.25584 0,1.40456 3.167,1.21174 3.53999,-0.21552 0.29032,-1.11097 0.30852,-1.11097 0.38216,0 0.0612,0.92278 0.69104,1.16651 3.01453,1.16651 2.71611,0 2.90811,-0.11289 2.55072,-1.4998 -0.34621,-1.34354 -0.26869,-1.40319 0.74404,-0.57247 0.7171,0.58822 0.98716,1.44137 0.73851,2.33303 -0.26538,0.9516 -0.19717,1.12597 0.21114,0.53976 0.44935,-0.64511 1.26789,-0.0502 3.20992,2.33303 3.71947,4.56444 11.22301,12.02992 16.24287,16.1605 3.94954,3.24987 14.83244,10.70202 15.6289,10.70202 0.18651,0 1.77713,0.83884 3.53469,1.86408 4.65453,2.71512 16.03043,7.46803 17.87443,7.46803 2.41315,0 6.25088,-4.01795 18.46369,-19.3308 1.63859,-2.05451 3.56898,-3.76 4.39121,-3.87959 2.54329,-0.36991 9.98402,2.88231 35.12342,15.35186 8.10536,4.0204 8.07139,3.99315 8.53434,6.84594 0.44825,2.76222 -1.06252,12.86354 -2.5317,16.92753 -2.52915,6.99604 -8.10114,12.35003 -18.33436,17.61707 -7.18629,3.69877 -10.46356,4.5125 -19.3308,4.79974 -4.58274,0.14844 -8.93217,0.1268 -9.66541,-0.0481 z M 345.9547,562.25971 c 0,-0.74064 -0.44439,-1.33316 -0.99987,-1.33316 -0.55548,0 -0.99987,0.59252 -0.99987,1.33316 0,0.74065 0.44439,1.33316 0.99987,1.33316 0.55548,0 0.99987,-0.59251 0.99987,-1.33316 z"
           id="path53"
           transform="scale(0.26458333)" /><path
           style="opacity:0.5;fill:#ffffff;fill-opacity:1;stroke:none;stroke-width:7.55807;stroke-linecap:round;stroke-linejoin:round;paint-order:stroke markers fill"
           d="m 331.95653,562.80968 c 0,-0.32063 -0.70429,-0.85074 -1.5651,-1.17802 -2.42804,-0.92314 -10.15948,-13.56562 -12.82942,-20.97872 -0.53948,-1.49786 -1.4171,-3.95201 -1.95028,-5.45367 -4.74047,-13.35124 -3.534,-29.76556 3.04456,-41.42213 2.61357,-4.631 3.42907,-5.64184 9.18868,-11.38976 2.69065,-2.68519 5.27984,-4.73336 5.75376,-4.5515 0.47392,0.18186 1.15995,0.0324 1.52451,-0.33219 1.07709,-1.07709 12.90612,-1.53137 15.71726,-0.60361 2.22698,0.73497 4.28037,2.93616 3.92135,4.20359 -0.0779,0.27497 0.13813,0.49994 0.48004,0.49994 0.79245,0 1.68941,2.61936 1.45158,4.23898 -0.10245,0.69774 0.11206,1.05765 0.49085,0.82355 0.70985,-0.43872 1.8089,2.01874 1.53685,3.43635 -0.0879,0.45828 0.11682,0.83323 0.45503,0.83323 0.33821,0 0.98155,0.97487 1.42965,2.16638 0.4481,1.19151 1.06735,2.76631 1.37612,3.49954 0.30877,0.73324 2.1044,5.08267 3.99029,9.6654 1.88589,4.58274 3.85269,9.12843 4.37068,10.10154 2.59988,4.88431 0.55243,9.49473 -9.14817,20.59977 -5.90171,6.75615 -5.87146,8.09426 0.39821,17.61465 2.03089,3.08387 3.69252,6.18771 3.69252,6.89742 0,1.62295 -2.0695,2.20678 -4.10984,1.15946 -1.09041,-0.55973 -1.8961,-0.59407 -2.69228,-0.11476 -0.62491,0.37619 -1.37481,0.42931 -1.66645,0.11804 -0.29164,-0.31128 -0.17404,-0.69363 0.26131,-0.84965 0.52979,-0.18988 0.36445,-0.71082 -0.49993,-1.5752 -0.71032,-0.71032 -1.2915,-1.74144 -1.2915,-2.29136 0,-0.72213 -0.74064,-0.99987 -2.66631,-0.99987 -3.0987,0 -3.39656,0.8916 -1.2216,3.65662 l 1.44473,1.83667 -1.47671,-0.46869 c -0.83643,-0.26547 -1.87622,-0.13713 -2.39811,0.296 -1.22711,1.01841 -2.89078,-1.71109 -1.7427,-2.85917 0.40058,-0.40058 0.72833,-1.11828 0.72833,-1.59488 0,-1.2043 -2.62194,-1.09124 -3.09185,0.13332 -0.21102,0.54992 -1.10149,0.99986 -1.97881,0.99986 -1.70544,0 -2.0986,1.22964 -0.80635,2.52189 0.43383,0.43384 0.6588,0.90595 0.49994,1.04915 -0.62663,0.5648 -10.62084,0.85823 -10.62084,0.31183 z m 23.33028,-76.87331 c 0,-0.54993 -0.27612,-0.99987 -0.61361,-0.99987 -0.33749,0 -0.81417,-0.9131 -1.05929,-2.02913 -0.85148,-3.87674 -2.28041,-4.50259 -10.04041,-4.39751 -3.82335,0.0518 -6.9514,-0.13083 -6.95122,-0.4058 1.7e-4,-0.27496 -0.29024,-0.49993 -0.64535,-0.49993 -0.35511,0 -0.473,0.44994 -0.26197,0.99987 0.24744,0.64482 -0.0149,0.99987 -0.73878,0.99987 -1.74245,0 -5.01938,3.66555 -5.01938,5.61465 v 1.71772 h 12.665 c 10.8134,0 12.66501,-0.14618 12.66501,-0.99987 z"
           id="path54"
           transform="scale(0.26458333)" /><path
           style="opacity:0.5;fill:#ffffff;fill-opacity:1;stroke:none;stroke-width:7.55807;stroke-linecap:round;stroke-linejoin:round;paint-order:stroke markers fill"
           d="m 329.95929,486.10302 c 0.005,-1.54983 2.6504,-5.18846 4.32874,-5.95316 0.91739,-0.41799 1.66775,-0.93681 1.66746,-1.15292 -5.8e-4,-0.4438 12.20147,-0.18925 14.47608,0.30198 0.96255,0.20787 2.0184,1.44972 3.03032,3.56414 l 1.55305,3.2451 -3.96132,0.41404 c -7.3839,0.77177 -21.09708,0.49926 -21.09433,-0.41918 z"
           id="path55"
           transform="scale(0.26458333)" /><path
           style="opacity:0.5;fill:#ffffff;fill-opacity:1;stroke:none;stroke-width:15.1161;stroke-linecap:round;stroke-linejoin:round;paint-order:stroke markers fill"
           d="m 265.81845,668.24583 c 0.85542,-3.62935 0.79353,-3.66804 -6.16038,-3.85115 -11.06622,-0.29137 -16.22153,0.22103 -17.13766,1.70338 -1.83774,2.97351 -2.24821,-2.69838 -0.4466,-6.17098 2.93799,-5.66299 2.35214,-8.72889 -4.17998,-21.87469 -6.84808,-13.7817 -8.91994,-19.21061 -12.72244,-33.33677 -9.63003,-35.77523 -8.13264,-73.31582 4.31236,-108.11398 3.86581,-10.80938 12.06836,-27.99633 13.36138,-27.99633 0.61761,0 1.12293,-0.85703 1.12293,-1.90451 0,-1.04749 1.04986,-2.95438 2.33302,-4.23755 1.28317,-1.28316 2.33303,-2.9258 2.33303,-3.65031 0,-0.72451 0.83341,-1.59509 1.85202,-1.93463 1.12415,-0.37472 1.48619,-0.0254 0.92119,0.88877 -1.02916,1.66522 0.36821,1.78578 17.55746,1.5147 8.81549,-0.13902 10.99856,0.21152 10.99856,1.76609 0,1.06674 -0.89988,2.28485 -1.99974,2.70691 -1.09985,0.42205 -1.99973,1.6219 -1.99973,2.66632 0,1.04442 -0.89989,2.24426 -1.99974,2.66631 -1.09986,0.42206 -1.99974,1.68609 -1.99974,2.80895 0,1.12287 -0.63533,2.04158 -1.41184,2.04158 -0.77651,0 -1.09722,0.50907 -0.71268,1.13126 0.38454,0.6222 -0.50331,2.42196 -1.97299,3.99948 -1.46968,1.57752 -2.30797,2.86822 -1.86286,2.86822 0.44511,0 -0.39151,1.68637 -1.85916,3.7475 -1.46765,2.06112 -3.07334,5.36069 -3.5682,7.33237 -0.49486,1.97168 -1.43463,3.58487 -2.08838,3.58487 -0.65375,0 -1.05807,0.44994 -0.89849,0.99987 0.15958,0.54993 -0.52956,3.0996 -1.53142,5.66593 -2.23193,5.71719 -2.01857,5.03192 -3.3207,10.66527 -0.5932,2.56633 -1.52742,5.26597 -2.07604,5.99921 -0.54863,0.73324 -1.00225,2.23304 -1.00806,3.3329 -0.006,1.09985 -0.97584,7.69899 -2.15565,14.66474 -1.1798,6.96576 -2.08643,15.66462 -2.01474,19.33081 0.1064,5.44095 3.14605,29.47735 4.38339,34.66212 1.19756,5.01815 3.79191,13.9694 5.02306,17.33107 2.5677,7.01107 14.55097,30.56954 16.85453,33.13511 2.32167,2.58573 3.17382,8.85939 1.20337,8.85939 -0.62728,0 -0.83584,0.49296 -0.46347,1.09546 0.37237,0.6025 -0.19749,2.78109 -1.26634,4.84131 -1.06885,2.06021 -2.27128,5.61673 -2.67205,7.90336 -0.40078,2.28662 -1.37278,4.75743 -2.16,5.49067 -1.00757,0.93847 -1.1755,0.24777 -0.56722,-2.33303 z"
           id="path56"
           transform="scale(0.26458333)" /><path
           style="opacity:0.5;fill:#ffffff;fill-opacity:1;stroke:none;stroke-width:15.1161;stroke-linecap:round;stroke-linejoin:round;paint-order:stroke markers fill"
           d="m 213.28813,746.05075 c -0.01,-0.44825 5.83974,-18.31436 12.9983,-39.70248 l 13.01557,-38.88748 5.33672,-1.52166 c 2.9352,-0.83691 8.59402,-1.33519 12.57515,-1.10728 10.26388,0.58757 10.70892,3.12998 3.97155,22.68864 -2.85214,8.2798 -5.19318,15.20416 -5.20232,15.38747 -0.0499,1.00038 5.92822,0.0789 10.28839,-1.5858 2.76447,-1.0555 14.85958,-5.0465 26.87801,-8.86889 16.07154,-5.11146 22.41913,-6.59735 23.99686,-5.61736 25.08503,15.58141 52.59644,23.4267 82.13469,23.42195 48.85407,-0.008 93.00662,-22.46577 122.77349,-62.44794 4.3241,-5.80801 8.36634,-10.92706 8.98277,-11.37566 0.61642,-0.4486 0.91956,-1.17905 0.67361,-1.62323 -0.24594,-0.44417 0.45273,-1.8769 1.55259,-3.18384 1.09985,-1.30694 1.99974,-3.27613 1.99974,-4.37599 0,-1.09985 0.72831,-1.85695 1.61846,-1.68244 1.00799,0.19761 1.30502,-0.55669 0.78746,-1.99974 -0.45706,-1.27437 -0.33929,-1.87091 0.2617,-1.32564 0.60098,0.54526 1.95865,-0.24494 3.01705,-1.75601 1.05839,-1.51106 2.76198,-2.42596 3.78575,-2.0331 1.02379,0.39287 1.86143,0.1332 1.86143,-0.57702 0,-0.71023 0.89988,-1.29132 1.99973,-1.29132 1.09986,0 1.99974,0.5932 1.99974,1.31823 0,1.57556 6.99014,1.2838 8.12542,-0.33914 0.43617,-0.62354 2.23593,-0.77123 3.99947,-0.32819 2.21082,0.5554 3.26596,1.81852 3.39815,4.06796 0.10544,1.79435 -0.33763,2.9353 -0.98459,2.53545 -0.64699,-0.39985 -0.84873,0.12669 -0.44835,1.17009 0.4004,1.04339 -0.24464,2.86971 -1.43342,4.05849 -1.18877,1.18877 -1.85211,2.66186 -1.47408,3.27354 0.96804,1.56631 -11.00379,22.53927 -19.09987,33.46027 -14.61031,19.70821 -41.31203,42.07293 -63.40672,53.10794 -49.227,24.586 -110.30051,24.75094 -159.3191,0.43028 l -8.38378,-4.15963 -12.13599,3.90147 c -6.6748,2.1458 -24.73435,7.90753 -40.13233,12.80384 -15.39798,4.89631 -32.0458,10.26966 -36.99515,11.9408 -4.94936,1.67113 -9.0066,2.67167 -9.0161,2.22342 z"
           id="path57"
           transform="scale(0.26458333)" /><path
           style="opacity:0.5;fill:#ffffff;fill-opacity:1;stroke:none;stroke-width:15.1161;stroke-linecap:round;stroke-linejoin:round;paint-order:stroke markers fill"
           d="m 539.04739,618.25238 c 2.31357,-4.57772 7.60652,-19.87384 8.41903,-24.33015 0.33422,-1.83309 1.38079,-7.12233 2.32571,-11.75389 2.09032,-10.24573 1.83042,-40.40105 -0.44447,-51.57115 -0.89598,-4.39942 -1.66366,-8.89883 -1.70595,-9.99869 -0.0423,-1.09986 -0.52577,-2.59966 -1.07439,-3.3329 -0.54862,-0.73323 -1.41572,-3.28894 -1.92689,-5.67934 -0.51117,-2.3904 -1.83718,-6.16588 -2.9467,-8.38995 -1.10951,-2.22408 -2.17127,-4.7677 -2.35947,-5.65251 -0.97282,-4.57363 -9.75027,-20.16598 -15.64796,-27.79718 -2.06491,-2.67185 -3.75438,-5.25016 -3.75438,-5.72958 0,-0.47943 -1.39452,-2.19286 -3.09894,-3.80763 -1.70442,-1.61477 -3.48536,-3.98581 -3.95764,-5.26898 -0.47228,-1.28316 -1.47744,-2.33303 -2.23369,-2.33303 -0.75625,0 -1.37352,-0.44994 -1.37172,-0.99987 0.002,-0.54992 7.91085,-0.96964 17.57565,-0.9327 14.13134,0.054 17.69414,0.44561 18.19426,1.99974 0.34204,1.06291 0.98188,2.23253 1.42187,2.59915 1.77999,1.48319 6.79918,9.31649 6.79918,10.61129 0,0.76292 0.51291,1.38714 1.1398,1.38714 1.56141,0 11.63218,21.94151 15.47309,33.71168 5.68831,17.4314 7.61002,29.07578 8.32813,50.46333 0.86161,25.66138 -1.13022,39.39602 -9.88949,68.19273 -0.68565,2.25411 -0.82608,2.24476 -2.51552,-0.16726 -1.53905,-2.19728 -3.20376,-2.50434 -11.90119,-2.19514 -7.01005,0.24922 -10.83747,1.01618 -12.47739,2.50029 -3.52746,3.19232 -4.45398,2.59621 -2.37093,-1.5254 z"
           id="path58"
           transform="scale(0.26458333)" /><path
           style="opacity:0.5;fill:#ffffff;fill-opacity:1;stroke:none;stroke-width:15.1161;stroke-linecap:round;stroke-linejoin:round;paint-order:stroke markers fill"
           d="m 267.09073,459.56124 c -17.8165,-0.49813 -18.74674,-1.531 -10.71751,-11.89984 25.18477,-32.52328 62.27482,-56.04528 104.09787,-66.01743 16.50552,-3.93553 58.68025,-4.29342 74.13867,-0.62915 25.80157,6.11602 45.39624,14.40678 64.91721,27.46728 12.37022,8.2763 30.70496,25.07135 39.43825,36.12635 l 4.73928,5.99921 -17.88558,-0.21432 -17.88559,-0.21433 -8.03024,-7.04007 c -16.29624,-14.28682 -32.1659,-23.38428 -52.90106,-30.32615 -45.32706,-15.17492 -94.08448,-8.41018 -133.8885,18.57606 -9.11291,6.17836 -15.20182,11.34571 -25.78815,21.88513 l -6.69546,6.6658 z"
           id="path59"
           transform="scale(0.26458333)" /><path
           style="opacity:0.5;fill:#ffffff;fill-opacity:1;stroke:none;stroke-width:7.55807;stroke-linecap:round;stroke-linejoin:round;paint-order:stroke markers fill"
           d="m 440.27568,641.2047 c -6.16455,-1.47043 -20.20622,-5.81117 -24.33014,-7.52126 -0.91655,-0.38006 -4.51608,-1.78685 -7.99896,-3.12617 -8.46153,-3.25385 -12.40274,-5.17024 -20.33067,-9.88566 -11.78241,-7.00801 -26.00656,-18.88959 -35.28581,-29.47461 -2.54273,-2.90054 -4.95584,-5.57368 -5.36245,-5.9403 -2.27007,-2.04678 -9.01338,-11.79005 -8.61075,-12.44151 0.27244,-0.44083 0.1782,-0.58155 -0.2233,-0.33342 -0.62966,0.38915 -4.09576,-3.73543 -7.02998,-8.36551 -1.55638,-2.45591 -1.41127,-3.2273 0.23512,-1.24991 0.91103,1.09419 1.55487,1.38924 2.01892,0.92519 0.4012,-0.4012 2.58276,-0.54528 5.30602,-0.35043 4.38072,0.31344 4.6247,0.25584 4.6247,-1.09183 0,-0.82026 -0.4234,-1.42273 -0.99987,-1.42273 -0.54992,0 -0.99986,-0.46764 -0.99986,-1.03921 0,-0.57156 0.30264,-0.85216 0.67254,-0.62355 1.03602,0.6403 3.32693,-0.31118 3.32693,-1.38176 0,-0.52523 0.59992,-0.95495 1.33316,-0.95495 0.74064,0 1.33316,0.44438 1.33316,0.99987 0,0.54992 -0.44994,0.99986 -0.99987,0.99986 -0.54993,0 -0.99987,0.44995 -0.99987,0.99987 0,0.54993 0.29996,0.99987 0.66658,0.99987 0.36662,0 0.66658,0.59992 0.66658,1.33316 0,0.74065 0.44439,1.33316 0.99987,1.33316 0.54993,0 0.99987,-0.44994 0.99987,-0.99987 0,-0.54993 0.44994,-0.99987 0.99987,-0.99987 0.54993,0 0.99987,0.29996 0.99987,0.66658 0,0.36662 0.44994,0.66658 0.99987,0.66658 0.54992,0 0.99986,-0.44994 0.99986,-0.99987 0,-0.54993 -0.44994,-0.99987 -0.99986,-0.99987 -0.54993,0 -0.99987,-0.44994 -0.99987,-0.99987 0,-0.54992 -0.29996,-0.99987 -0.66658,-0.99987 -0.36662,0 -0.66658,-0.44994 -0.66658,-0.99986 0,-0.72213 0.74064,-0.99987 2.66632,-0.99987 2.51818,0 2.66631,0.11109 2.66631,1.99973 0,1.60651 0.29493,2.01495 1.49981,2.07707 1.12863,0.0582 1.21111,0.15276 0.33329,0.38216 -0.64159,0.16767 -1.16652,0.73279 -1.16652,1.25584 0,1.40456 3.167,1.21174 3.53999,-0.21552 0.29032,-1.11097 0.30852,-1.11097 0.38216,0 0.0612,0.92278 0.69104,1.16651 3.01453,1.16651 2.71611,0 2.90811,-0.11289 2.55072,-1.4998 -0.34621,-1.34354 -0.26869,-1.40319 0.74404,-0.57247 0.7171,0.58822 0.98716,1.44137 0.73851,2.33303 -0.26538,0.9516 -0.19717,1.12597 0.21114,0.53976 0.44935,-0.64511 1.26789,-0.0502 3.20992,2.33303 3.71947,4.56444 11.22301,12.02992 16.24287,16.1605 3.94954,3.24987 14.83244,10.70202 15.6289,10.70202 0.18651,0 1.77713,0.83884 3.53469,1.86408 4.65453,2.71512 16.03043,7.46803 17.87443,7.46803 2.41315,0 6.25088,-4.01795 18.46369,-19.3308 1.63859,-2.05451 3.56898,-3.76 4.39121,-3.87959 2.54329,-0.36991 9.98402,2.88231 35.12342,15.35186 8.10536,4.0204 8.07139,3.99315 8.53434,6.84594 0.44825,2.76222 -1.06252,12.86354 -2.5317,16.92753 -2.52915,6.99604 -8.10114,12.35003 -18.33436,17.61707 -7.18629,3.69877 -10.46356,4.5125 -19.3308,4.79974 -4.58274,0.14844 -8.93217,0.1268 -9.66541,-0.0481 z M 345.9547,562.25971 c 0,-0.74064 -0.44439,-1.33316 -0.99987,-1.33316 -0.55548,0 -0.99987,0.59252 -0.99987,1.33316 0,0.74065 0.44439,1.33316 0.99987,1.33316 0.55548,0 0.99987,-0.59251 0.99987,-1.33316 z"
           id="path60"
           transform="scale(0.26458333)" /><path
           style="opacity:0.5;fill:#ffffff;fill-opacity:1;stroke:none;stroke-width:7.55807;stroke-linecap:round;stroke-linejoin:round;paint-order:stroke markers fill"
           d="m 331.95653,562.80968 c 0,-0.32063 -0.70429,-0.85074 -1.5651,-1.17802 -2.42804,-0.92314 -10.15948,-13.56562 -12.82942,-20.97872 -0.53948,-1.49786 -1.4171,-3.95201 -1.95028,-5.45367 -4.74047,-13.35124 -3.534,-29.76556 3.04456,-41.42213 2.61357,-4.631 3.42907,-5.64184 9.18868,-11.38976 2.69065,-2.68519 5.27984,-4.73336 5.75376,-4.5515 0.47392,0.18186 1.15995,0.0324 1.52451,-0.33219 1.07709,-1.07709 12.90612,-1.53137 15.71726,-0.60361 2.22698,0.73497 4.28037,2.93616 3.92135,4.20359 -0.0779,0.27497 0.13813,0.49994 0.48004,0.49994 0.79245,0 1.68941,2.61936 1.45158,4.23898 -0.10245,0.69774 0.11206,1.05765 0.49085,0.82355 0.70985,-0.43872 1.8089,2.01874 1.53685,3.43635 -0.0879,0.45828 0.11682,0.83323 0.45503,0.83323 0.33821,0 0.98155,0.97487 1.42965,2.16638 0.4481,1.19151 1.06735,2.76631 1.37612,3.49954 0.30877,0.73324 2.1044,5.08267 3.99029,9.6654 1.88589,4.58274 3.85269,9.12843 4.37068,10.10154 2.59988,4.88431 0.55243,9.49473 -9.14817,20.59977 -5.90171,6.75615 -5.87146,8.09426 0.39821,17.61465 2.03089,3.08387 3.69252,6.18771 3.69252,6.89742 0,1.62295 -2.0695,2.20678 -4.10984,1.15946 -1.09041,-0.55973 -1.8961,-0.59407 -2.69228,-0.11476 -0.62491,0.37619 -1.37481,0.42931 -1.66645,0.11804 -0.29164,-0.31128 -0.17404,-0.69363 0.26131,-0.84965 0.52979,-0.18988 0.36445,-0.71082 -0.49993,-1.5752 -0.71032,-0.71032 -1.2915,-1.74144 -1.2915,-2.29136 0,-0.72213 -0.74064,-0.99987 -2.66631,-0.99987 -3.0987,0 -3.39656,0.8916 -1.2216,3.65662 l 1.44473,1.83667 -1.47671,-0.46869 c -0.83643,-0.26547 -1.87622,-0.13713 -2.39811,0.296 -1.22711,1.01841 -2.89078,-1.71109 -1.7427,-2.85917 0.40058,-0.40058 0.72833,-1.11828 0.72833,-1.59488 0,-1.2043 -2.62194,-1.09124 -3.09185,0.13332 -0.21102,0.54992 -1.10149,0.99986 -1.97881,0.99986 -1.70544,0 -2.0986,1.22964 -0.80635,2.52189 0.43383,0.43384 0.6588,0.90595 0.49994,1.04915 -0.62663,0.5648 -10.62084,0.85823 -10.62084,0.31183 z m 23.33028,-76.87331 c 0,-0.54993 -0.27612,-0.99987 -0.61361,-0.99987 -0.33749,0 -0.81417,-0.9131 -1.05929,-2.02913 -0.85148,-3.87674 -2.28041,-4.50259 -10.04041,-4.39751 -3.82335,0.0518 -6.9514,-0.13083 -6.95122,-0.4058 1.7e-4,-0.27496 -0.29024,-0.49993 -0.64535,-0.49993 -0.35511,0 -0.473,0.44994 -0.26197,0.99987 0.24744,0.64482 -0.0149,0.99987 -0.73878,0.99987 -1.74245,0 -5.01938,3.66555 -5.01938,5.61465 v 1.71772 h 12.665 c 10.8134,0 12.66501,-0.14618 12.66501,-0.99987 z"
           id="path61"
           transform="scale(0.26458333)" /><path
           style="opacity:0.5;fill:#ffffff;fill-opacity:1;stroke:none;stroke-width:7.55807;stroke-linecap:round;stroke-linejoin:round;paint-order:stroke markers fill"
           d="m 329.95929,486.10302 c 0.005,-1.54983 2.6504,-5.18846 4.32874,-5.95316 0.91739,-0.41799 1.66775,-0.93681 1.66746,-1.15292 -5.8e-4,-0.4438 12.20147,-0.18925 14.47608,0.30198 0.96255,0.20787 2.0184,1.44972 3.03032,3.56414 l 1.55305,3.2451 -3.96132,0.41404 c -7.3839,0.77177 -21.09708,0.49926 -21.09433,-0.41918 z"
           id="path62"
           transform="scale(0.26458333)" /></g></g></g></svg>
