<?xml version="1.0" encoding="UTF-8" standalone="no"?>
<!-- Created with Inkscape (http://www.inkscape.org/) -->

<svg
   width="246.6436mm"
   height="246.6436mm"
   viewBox="0 0 246.6436 246.6436"
   version="1.1"
   id="svg1"
   inkscape:version="1.3.2 (091e20e, 2023-11-25, custom)"
   sodipodi:docname="Garden_Logo_v2.svg"
   xml:space="preserve"
   inkscape:export-filename="Garden_Logo_v2.svg"
   inkscape:export-xdpi="96"
   inkscape:export-ydpi="96"
   xmlns:inkscape="http://www.inkscape.org/namespaces/inkscape"
   xmlns:sodipodi="http://sodipodi.sourceforge.net/DTD/sodipodi-0.dtd"
   xmlns="http://www.w3.org/2000/svg"
   xmlns:svg="http://www.w3.org/2000/svg"><sodipodi:namedview
     id="namedview1"
     pagecolor="#505050"
     bordercolor="#eeeeee"
     borderopacity="1"
     inkscape:showpageshadow="0"
     inkscape:pageopacity="0"
     inkscape:pagecheckerboard="0"
     inkscape:deskcolor="#505050"
     inkscape:document-units="mm"
     inkscape:zoom="0.77236953"
     inkscape:cx="258.29605"
     inkscape:cy="471.92437"
     inkscape:window-width="1920"
     inkscape:window-height="1051"
     inkscape:window-x="-9"
     inkscape:window-y="-9"
     inkscape:window-maximized="1"
     inkscape:current-layer="layer1" /><defs
     id="defs1"><rect
       x="-209.74416"
       y="493.2872"
       width="1196.3186"
       height="262.82755"
       id="rect39" /></defs><g
     inkscape:label="Layer 1"
     inkscape:groupmode="layer"
     id="layer1"
     transform="translate(22.951557,-39.394463)"><path
       id="path1"
       style="display:inline;fill:#00aa00;stroke:none;stroke-width:4.17552;stroke-linejoin:bevel;stroke-dashoffset:42.0005;paint-order:stroke fill markers"
       d="m 100.3302,51.011193 -5.080832,49.842437 a 59.605534,59.605534 0 0 1 5.080832,-0.36329 59.605534,59.605534 0 0 1 5.06687,0.22996 z m -78.999834,32.72255 31.567065,38.732517 a 59.605534,59.605534 0 0 1 3.420463,-3.74499 59.605534,59.605534 0 0 1 3.849378,-3.33623 z m 157.974854,0 -38.73252,31.567067 a 59.605534,59.605534 0 0 1 3.74551,3.42046 59.605534,59.605534 0 0 1 3.33571,3.84938 z M 98.336519,108.88724 A 53.782005,53.782005 0 0 0 53.848794,132.5814 h 0.601514 l 8.957076,60.17359 h -9.559623 a 53.782005,53.782005 0 0 0 44.488758,23.69675 53.782005,53.782005 0 0 0 50.815501,-36.51715 V 145.08762 A 53.782005,53.782005 0 0 0 98.336519,108.88724 Z m 50.815501,36.20038 a 53.782005,53.782005 0 0 1 2.96675,17.58135 53.782005,53.782005 0 0 1 -2.96675,17.26562 v 12.8204 h 27.1322 v -12.04216 h -11.48457 v -13.23071 h 9.77459 v -1.32809 l -13.71234,1.39837 a 59.605534,59.605534 0 0 0 0.22996,-5.06739 59.605534,59.605534 0 0 0 -0.36328,-5.08031 l 13.84566,1.41076 v -2.78122 h -9.77459 v -11.41068 h 10.4438 V 132.5814 h -26.09143 z m 25.42222,13.72784 v 7.33857 l 6.20686,-0.63252 v -6.07249 z m 6.20686,0.63356 29.78991,3.03599 -29.78991,3.0365 v 27.23348 h 13.08292 v -27.35492 l 8.13956,27.35492 H 215.7185 V 132.5814 h -13.08292 v 27.09551 L 193.86402,132.5814 H 180.7811 Z M 53.847761,192.75499 a 53.782005,53.782005 0 0 1 -8.539014,-21.48241 h -4.49895 c 0.396444,-5.3272 1.387676,-13.73925 2.973462,-25.23618 0.356975,4.50679 0.714277,8.58269 1.071252,12.44162 a 53.782005,53.782005 0 0 1 8.994283,-25.89662 h -22.03328 l -3.396692,25.69818 8.584489,-0.87488 a 59.605534,59.605534 0 0 0 -0.363285,5.08082 59.605534,59.605534 0 0 0 0.22996,5.06688 l -9.548255,-0.97359 -3.459737,26.17618 H 40.06669 l 0.929142,-10.81536 h 5.612061 l 0.78083,10.81536 z m -26.52603,-26.17618 1.097091,-8.29923 -21.3609704,2.17764 H 21.371707 v 5.51543 z m -5.950024,-0.60616 -18.3234299,-1.8681 v 5.49578 h 3.1589805 v 7.136 c 0,2.79992 -0.210261,4.68344 -0.6314862,5.64979 -0.396445,0.96634 -1.1649857,1.449 -2.3047689,1.449 -1.0406711,0 -1.73412,-0.42104 -2.0810099,-1.26349 -0.34689063,-0.86719 -0.52038173,-2.65083 -0.52038173,-5.35161 V 163.86218 L -12.839642,162.48501 0.66961087,161.10835 v -12.76718 c 0,-3.07248 0.1734911,-4.98086 0.52038173,-5.7242 0.3468899,-0.74334 1.003568,-1.11466 1.9699056,-1.11466 1.1150045,0 1.8208814,0.43297 2.1182169,1.30018 0.2973355,0.86725 0.4459676,3.02367 0.4459676,6.46782 v 5.46323 H 21.371707 v -2.60191 c 0,-4.93076 -0.458329,-8.68443 -1.37511,-11.26133 -0.91678,-2.60165 -2.886816,-4.84415 -5.909717,-6.72723 -3.022901,-1.88313 -6.8262534,-2.82464 -11.4101565,-2.82464 -4.6582403,0 -8.4621055,1.09017 -11.410673,3.2706 -2.9237895,2.15566 -4.6954745,4.53438 -5.3149215,7.136 -0.619445,2.60169 -0.929141,6.77682 -0.929141,12.52534 v 17.87746 c 0,4.13788 0.148636,7.24783 0.445967,9.32914 0.297336,2.05655 1.041017,4.02611 2.230355,5.9092 1.189338,1.8831 2.9237352,3.46892 5.2032996,4.75734 2.3043424,1.26369 4.7699931,1.896 7.39644777,1.896 2.20523103,0 4.11312123,-0.45883 5.72368123,-1.37562 1.635342,-0.94157 2.985467,-2.34142 4.0509164,-4.19975 l 1.449524,4.31137 h 9.849528 z m -20.70209613,-4.8643 v 2.75383 l 2.37866623,0.24237 v -3.23908 z m 2.37866623,-0.24288 4.0095745,-0.40876 H 3.0482771 Z m 42.2604699,10.40711 h 0.853178 c -0.435883,-3.74583 -0.871531,-8.08216 -1.307414,-12.79405 a 53.782005,53.782005 0 0 0 -0.299723,4.19044 53.782005,53.782005 0 0 0 0.753959,8.60361 z M 66.083706,132.5814 h 11.07581 c 1.499778,0 2.832658,0.0198 4.135148,0.0434 -1.132305,5.5903 -2.109787,11.27701 -2.257226,14.611 -0.122307,3.53479 0.599939,6.56317 2.693375,8.76845 v 0.2527 c 0.09438,0 0.148979,-0.0178 0.240296,-0.0191 0.931941,0.91107 2.106633,1.67615 3.581693,2.26136 l 1.044381,5.08031 0.733805,-0.0698 -1.178222,-5.20485 -0.04186,-0.13178 c 3.531947,-2.15938 6.018713,-5.07881 4.193025,-11.13472 -1.051091,-3.80339 -3.575833,-8.42567 -5.356779,-14.30042 3.192576,0.13821 5.658035,0.36344 7.190776,0.69919 2.626459,0.56989 4.757029,2.03135 6.392379,4.38526 1.660083,2.32914 2.490283,6.05792 2.490283,11.18691 0,4.68305 -0.58209,7.83071 -1.746663,9.44129 -1.16454,1.61052 -3.456711,2.57641 -6.876067,2.89853 3.097236,0.76812 5.178617,1.79615 6.244067,3.08456 1.06546,1.28846 1.722123,2.47855 1.969903,3.56878 0.27256,1.06546 0.40876,4.02572 0.40876,8.88214 v 15.87035 H 86.488146 v -19.99568 c 0,-3.22107 -0.259982,-5.21601 -0.780314,-5.98413 -0.495561,-0.76812 -1.821343,-1.15186 -3.977019,-1.15186 v 27.13167 H 66.083706 Z m 40.995434,0 h 11.70729 c 7.55728,0 12.66156,0.34754 15.31276,1.04128 2.67603,0.69378 4.70819,1.83368 6.09576,3.41943 1.38752,1.58577 2.2545,3.35746 2.60139,5.31493 0.3469,1.93261 0.52038,5.74796 0.52038,11.44684 v 21.07417 c 0,5.40154 -0.26002,9.01902 -0.78031,10.85257 -0.49556,1.80875 -1.37546,3.23347 -2.63912,4.27415 -1.26369,1.0159 -2.82459,1.73471 -4.68292,2.15594 -1.85836,0.39642 -4.65801,0.59428 -8.39949,0.59428 h -19.73574 z m 19.19262,17.33538 -0.001,0.002 c -0.18461,0.002 -0.36512,0.0373 -0.48782,0.10438 -0.10747,0.0588 -0.37447,0.31961 -0.42633,0.41652 -0.0209,0.0389 -0.0607,0.17265 -0.0884,0.29714 -0.0459,0.20567 -0.0462,0.24615 -0.007,0.4408 0.0238,0.11782 0.0552,0.22652 0.0698,0.24184 0.0145,0.0154 0.0267,0.0484 0.0269,0.0734 4.7e-4,0.062 0.22259,0.29801 0.36638,0.38913 0.24027,0.15223 0.21895,-0.0921 0.22066,2.51664 7.2e-4,1.40997 -0.003,1.99412 -0.0176,2.22622 h -2.13785 c -0.0143,-0.24127 -0.0183,-0.84946 -0.0181,-2.22519 5.9e-4,-2.63054 -0.0266,-2.35454 0.25115,-2.54041 0.247,-0.1653 0.36483,-0.35256 0.43511,-0.69143 0.0355,-0.17123 0.0344,-0.22079 -0.007,-0.41083 -0.0262,-0.11883 -0.0711,-0.25946 -0.0997,-0.31264 -0.0793,-0.14725 -0.31059,-0.36451 -0.47439,-0.44545 -0.12748,-0.063 -0.18707,-0.0727 -0.45527,-0.0734 -0.289,-6.8e-4 -0.32112,0.005 -0.50074,0.0935 -0.18136,0.0892 -0.4377,0.31791 -0.4377,0.39016 0,0.0182 -0.0159,0.0619 -0.0357,0.0971 -0.12788,0.22891 -0.14817,0.55423 -0.0501,0.81235 0.0336,0.0885 0.0691,0.18665 0.0785,0.21808 0.027,0.0902 0.15189,0.21539 0.34365,0.34416 0.0973,0.0653 0.19326,0.1399 0.21343,0.16537 0.0543,0.0686 0.0529,4.02336 0.004,4.57853 h -2.1978 v -1.47226 c -2.3e-4,-0.85818 -0.007,-1.58697 -0.0165,-1.61954 -0.009,-0.0326 -0.0591,-0.0891 -0.11163,-0.12506 l -0.0956,-0.0651 h -1.4118 -1.41128 l -0.061,-0.0853 c -0.0561,-0.0788 -0.0605,-0.12596 -0.0605,-0.63148 v -0.54674 l 0.0951,-0.0946 c 0.0525,-0.0519 0.14145,-0.11848 0.19792,-0.14831 0.15955,-0.0843 0.33997,-0.35275 0.3943,-0.58704 0.0585,-0.25237 0.058,-0.30838 -0.004,-0.57516 -0.0329,-0.14081 -0.0775,-0.2473 -0.12506,-0.29921 -0.0407,-0.0443 -0.10613,-0.12079 -0.14572,-0.17001 -0.0396,-0.0492 -0.0878,-0.0894 -0.10697,-0.0894 -0.0192,0 -0.0413,-0.0164 -0.0491,-0.0367 -0.008,-0.0203 -0.0849,-0.0634 -0.17156,-0.0956 -0.21745,-0.0806 -0.69172,-0.0807 -0.86196,0 -0.2435,0.11544 -0.37577,0.23208 -0.51522,0.45476 l -0.10077,0.16174 v 0.38551 c 0,0.3005 0.01,0.39788 0.0439,0.44028 0.0243,0.0299 0.0693,0.0988 0.0997,0.15348 0.0546,0.0985 0.14934,0.20877 0.17984,0.20877 0.0235,0 0.19283,0.1205 0.28525,0.20309 l 0.0806,0.0718 v 0.89917 c 0,0.89483 4.5e-4,0.89926 0.0661,0.95912 0.13814,0.12582 0.14184,0.12609 1.5844,0.12609 h 1.3901 l 0.063,0.0667 c 0.0622,0.0663 0.0629,0.0809 0.0656,1.33739 0.002,0.73328 -0.005,1.03231 -0.0207,1.17357 h -2.1947 c -0.21807,0 -0.39325,0.17569 -0.39325,0.39377 v 2.30012 l -0.006,0.009 h -1.27744 -1.27692 l -0.0553,-0.0661 c -0.0521,-0.0625 -0.0549,-0.14058 -0.0558,-1.46141 -7.2e-4,-1.04773 -0.01,-1.41433 -0.0372,-1.47226 -0.0744,-0.15771 -0.14917,-0.16899 -1.09296,-0.16899 h -0.86351 l -0.0744,-0.0806 c -0.041,-0.0442 -0.0749,-0.0909 -0.0749,-0.10387 0,-0.013 -0.0128,-0.0394 -0.0284,-0.0589 -0.16288,-0.20382 -0.2364,-0.26719 -0.40721,-0.34934 -0.1642,-0.0789 -0.23662,-0.0955 -0.45889,-0.10542 -0.21872,-0.01 -0.29099,-0.002 -0.42064,0.0501 -0.42454,0.16837 -0.67689,0.53673 -0.67903,0.99116 -7.3e-4,0.18172 0.0508,0.44596 0.0992,0.50746 0.019,0.0243 0.0535,0.0813 0.0765,0.12712 0.0434,0.0868 0.29375,0.31316 0.34623,0.31316 0.0166,0 0.0343,0.0128 0.0398,0.0289 0.0112,0.0335 0.37414,0.11602 0.51367,0.11679 0.17388,7.2e-4 0.46199,-0.0921 0.60254,-0.19482 0.13194,-0.0965 0.31626,-0.30014 0.31626,-0.34933 0,-0.0128 0.029,-0.0542 0.0641,-0.0915 0.0626,-0.0666 0.0743,-0.0677 0.65267,-0.0667 0.53228,7.1e-4 0.5956,0.006 0.65526,0.0558 l 0.0656,0.0553 v 1.39991 c 0,1.35153 0.002,1.40336 0.0594,1.49552 0.0325,0.0525 0.0884,0.10349 0.12454,0.11317 0.0361,0.01 0.75949,0.0179 1.60765,0.0181 1.39109,3.6e-4 1.52373,0.004 1.58595,0.0496 v 2.13372 c -0.0654,0.044 -0.2687,0.047 -2.32285,0.047 -1.51312,0 -2.3099,-0.0106 -2.34715,-0.0305 -0.0309,-0.0166 -0.10178,-0.0987 -0.15761,-0.18293 -0.18229,-0.27509 -0.25028,-0.32944 -0.56121,-0.44648 -0.30244,-0.11382 -0.54577,-0.0942 -0.90123,0.0729 -0.13213,0.0622 -0.37311,0.2955 -0.37311,0.36122 0,0.0167 -0.0183,0.051 -0.0403,0.0765 -0.0979,0.11373 -0.13499,0.5119 -0.0744,0.79427 0.0661,0.30837 0.37807,0.62893 0.68678,0.7059 0.0645,0.0161 0.14045,0.0421 0.16847,0.0579 0.0632,0.0355 0.30619,0.0379 0.32763,0.003 0.009,-0.0141 0.0657,-0.0332 0.1266,-0.0429 0.061,-0.01 0.16609,-0.0444 0.23358,-0.077 0.13195,-0.0637 0.42013,-0.3369 0.42013,-0.39842 0,-0.0205 0.0402,-0.0718 0.0899,-0.11369 l 0.0904,-0.076 h 2.30063 c 2.06403,0 2.26825,0.003 2.33371,0.047 v 2.11512 l -0.006,0.009 h -2.32492 -2.32544 l -0.0734,-0.0806 c -0.0401,-0.0444 -0.10825,-0.13338 -0.15141,-0.19792 -0.10152,-0.1519 -0.2427,-0.26256 -0.43719,-0.3421 -0.20428,-0.0835 -0.58719,-0.0919 -0.8077,-0.0176 -0.16525,0.0558 -0.44849,0.24926 -0.44855,0.30644 -1e-5,0.0194 -0.0165,0.046 -0.0367,0.0589 -0.0812,0.0519 -0.1733,0.30558 -0.18965,0.52193 -0.0181,0.23938 0.0323,0.5504 0.0982,0.60513 0.022,0.0183 0.0403,0.0498 0.0403,0.0698 0,0.0757 0.24737,0.31489 0.39326,0.38034 0.36742,0.16482 0.62113,0.17298 0.971,0.031 0.21763,-0.0883 0.30751,-0.1679 0.4718,-0.41754 0.0554,-0.0843 0.12661,-0.16685 0.15762,-0.18345 0.0373,-0.0199 0.83161,-0.03 2.34094,-0.03 2.10567,0 2.26429,0.003 2.32854,0.0507 v 2.13423 c -0.0626,0.0415 -0.23019,0.045 -1.6061,0.045 h -1.57355 l -0.0987,0.10439 -0.0987,0.1049 v 1.41904 1.41903 l -0.0853,0.0605 c -0.079,0.0562 -0.12645,0.0605 -0.64027,0.0605 h -0.55449 l -0.0744,-0.0806 c -0.0408,-0.0444 -0.10338,-0.13018 -0.13953,-0.19069 -0.0702,-0.11756 -0.25297,-0.27862 -0.40049,-0.35346 -0.21703,-0.11008 -0.75487,-0.10848 -0.96325,0.004 -0.16651,0.0892 -0.4284,0.33363 -0.4284,0.39946 0,0.0216 -0.0184,0.0543 -0.0408,0.0729 -0.11937,0.0991 -0.13201,0.72851 -0.0191,0.94516 0.0331,0.0634 0.0601,0.13174 0.0605,0.15141 2.4e-4,0.0197 0.0538,0.082 0.11885,0.13849 0.0649,0.0565 0.14257,0.12424 0.1726,0.1509 0.0301,0.0267 0.0855,0.0584 0.12351,0.0703 0.0379,0.0118 0.0779,0.0363 0.0894,0.0543 0.0136,0.0212 0.14919,0.0325 0.38395,0.0325 0.30486,0 0.38131,-0.009 0.47801,-0.0589 0.17403,-0.0888 0.35613,-0.24291 0.42737,-0.36225 0.035,-0.0588 0.0972,-0.14324 0.13797,-0.18758 l 0.0739,-0.0806 h 0.84181 c 0.46293,0 0.88008,-0.008 0.92707,-0.0171 0.0512,-0.0103 0.11148,-0.0553 0.15038,-0.11214 0.0648,-0.0945 0.0646,-0.0977 0.0646,-1.49913 0,-1.40173 4.4e-4,-1.4045 0.0641,-1.47227 l 0.0636,-0.0682 h 1.26969 1.26917 l 0.006,0.009 v 2.33939 c 0,0.21807 0.1757,0.39378 0.39378,0.39378 h 2.19883 c 0.0119,0.16241 0.0185,0.45407 0.0165,1.13533 -0.004,1.25368 -0.004,1.2705 -0.0661,1.33635 l -0.0625,0.0667 h -1.41593 -1.41542 l -0.1049,0.0987 -0.10491,0.0987 v 0.89607 0.89658 l -0.0858,0.0682 c -0.0473,0.0377 -0.15783,0.12148 -0.24598,0.18603 -0.11662,0.0854 -0.1872,0.16805 -0.2589,0.30283 -0.0957,0.17999 -0.0987,0.19475 -0.0987,0.5302 0,0.28731 0.0102,0.36473 0.0589,0.46043 0.0323,0.0633 0.0685,0.11917 0.0806,0.12454 0.0121,0.005 0.0217,0.0261 0.0217,0.046 0,0.0636 0.39578,0.36948 0.47801,0.36948 0.0215,0 0.0649,0.0197 0.0961,0.0434 0.0813,0.0614 0.55733,0.062 0.61856,5.2e-4 0.0242,-0.0243 0.068,-0.0439 0.0971,-0.0439 0.0291,0 0.0694,-0.0197 0.0894,-0.0439 0.0201,-0.0243 0.0541,-0.0444 0.0755,-0.0444 0.0347,0 0.22446,-0.17417 0.31885,-0.29301 0.0641,-0.0807 0.12812,-0.24749 0.16588,-0.4315 0.0306,-0.14886 0.0306,-0.21857 -0.002,-0.38137 -0.0616,-0.31711 -0.21459,-0.54623 -0.48473,-0.72554 -0.089,-0.0591 -0.17542,-0.13232 -0.19172,-0.16278 -0.0169,-0.0316 -0.03,-0.28834 -0.03,-0.59634 v -0.54054 l 0.0775,-0.0775 0.0775,-0.077 h 1.35651 c 0.7461,0 1.39762,-0.008 1.44797,-0.0186 0.0602,-0.012 0.11171,-0.0506 0.15038,-0.11318 0.0569,-0.0922 0.0589,-0.14519 0.0589,-1.66811 v -1.44281 h 2.21072 c 0.0153,0.22943 0.0191,0.79656 0.0191,2.20297 0,2.27591 -6.5e-4,2.29419 -0.061,2.37091 -0.0335,0.0426 -0.0733,0.077 -0.0889,0.077 -0.0712,0 -0.43718,0.32182 -0.43718,0.38447 0,0.0178 -0.0178,0.0738 -0.0398,0.12454 -0.0219,0.0508 -0.055,0.12954 -0.0734,0.17467 -0.0717,0.17596 -0.0331,0.54666 0.0775,0.74466 0.0197,0.0352 0.0357,0.0835 0.0357,0.10748 0,0.0574 0.28861,0.31289 0.43098,0.38138 0.0616,0.0296 0.14913,0.0723 0.19482,0.0951 0.11236,0.0561 0.48499,0.0537 0.56069,-0.004 0.0314,-0.0237 0.086,-0.0429 0.12144,-0.0429 0.0935,0 0.39413,-0.23199 0.49661,-0.38344 0.0484,-0.0714 0.0947,-0.13663 0.10336,-0.1447 0.0268,-0.025 0.0876,-0.36409 0.0868,-0.48576 -0.002,-0.36411 -0.17606,-0.69343 -0.46715,-0.88521 -0.0897,-0.0591 -0.18003,-0.13034 -0.20051,-0.15865 -0.0486,-0.0673 -0.0532,-4.02635 -0.0109,-4.55889 h 2.12959 c 0.0148,0.22042 0.0173,0.74171 0.0171,2.18177 -2.4e-4,1.28011 -0.008,2.33978 -0.0171,2.3549 -0.009,0.0152 -0.0924,0.0819 -0.18397,0.14831 -0.19282,0.13995 -0.38317,0.34142 -0.38499,0.40721 -7.1e-4,0.025 -0.0129,0.0586 -0.0269,0.0739 -0.0141,0.0153 -0.0469,0.1239 -0.0729,0.24133 -0.0443,0.20109 -0.0436,0.22669 0.008,0.44338 0.0302,0.12654 0.071,0.26129 0.0909,0.29972 0.041,0.0788 0.31352,0.35528 0.38086,0.38654 0.0243,0.0112 0.0635,0.0314 0.0879,0.045 0.18957,0.10589 0.25351,0.12248 0.46974,0.12248 0.13939,0 0.2623,-0.0162 0.31264,-0.0413 0.0457,-0.0227 0.13374,-0.0655 0.19534,-0.0951 0.13548,-0.0651 0.43046,-0.32232 0.43046,-0.37517 0,-0.0209 0.0254,-0.0957 0.0563,-0.1664 0.11254,-0.25723 0.10709,-0.59542 -0.0145,-0.86661 -0.0228,-0.0508 -0.0419,-0.10608 -0.0419,-0.12299 0,-0.0553 -0.3652,-0.38603 -0.42633,-0.38603 -0.0134,0 -0.0552,-0.0285 -0.0925,-0.0636 l -0.0677,-0.0641 v -2.32544 -2.19779 h 2.20297 c 0.008,0.11633 0.0195,0.6715 0.0269,1.47794 l 0.0145,1.60455 0.0677,0.0729 0.0677,0.0724 1.43299,0.008 1.43299,0.008 0.0765,0.077 0.0765,0.0765 v 0.54777 c 0,0.39319 -0.0103,0.56098 -0.0367,0.59532 -0.0202,0.0263 -0.12248,0.11041 -0.22738,0.18655 -0.10488,0.0762 -0.19555,0.14993 -0.20102,0.16381 -0.005,0.0139 -0.0254,0.0411 -0.0444,0.061 -0.11317,0.11881 -0.22428,0.45109 -0.22428,0.67024 0,0.16302 0.0967,0.48045 0.18397,0.60359 0.0891,0.12578 0.26026,0.27718 0.3514,0.31109 0.0283,0.0105 0.0517,0.0329 0.0517,0.0496 0,0.0167 0.0322,0.03 0.0713,0.03 0.0392,0 0.091,0.0201 0.11524,0.0444 0.0612,0.0612 0.53733,0.0603 0.61857,-0.001 0.0314,-0.0237 0.0757,-0.0429 0.0987,-0.0429 0.0788,0 0.47491,-0.31518 0.47491,-0.37776 0,-0.0183 0.0135,-0.0331 0.0294,-0.0331 0.0162,0 0.0295,-0.0221 0.0295,-0.0491 0,-0.0269 0.0229,-0.0742 0.0512,-0.10542 0.08,-0.0883 0.0745,-0.7284 -0.007,-0.88936 -0.0323,-0.0633 -0.0686,-0.11916 -0.0806,-0.12454 -0.0121,-0.005 -0.0217,-0.0263 -0.0217,-0.046 0,-0.0474 -0.15545,-0.19094 -0.33744,-0.31212 -0.0807,-0.0537 -0.1566,-0.11199 -0.16847,-0.12919 -0.0118,-0.0172 -0.0216,-0.42755 -0.0217,-0.91209 -4.8e-4,-0.96401 -4.4e-4,-0.96461 -0.17674,-1.05575 -0.0716,-0.037 -0.30034,-0.0441 -1.47278,-0.045 -1.30521,-7.2e-4 -1.39161,-0.004 -1.45262,-0.0548 l -0.0646,-0.0543 -0.004,-1.28157 c -0.002,-0.68956 0.005,-0.98368 0.017,-1.1467 h 2.23139 c 0.21808,0 0.39378,-0.1757 0.39378,-0.39378 v -2.34869 h 1.24281 1.26918 l 0.0636,0.0723 c 0.0625,0.0719 0.0632,0.0867 0.0713,1.51051 l 0.008,1.43712 0.0667,0.0672 c 0.0663,0.0663 0.0747,0.067 0.98237,0.0755 1.02625,0.01 0.96074,-0.005 1.09812,0.23926 0.0761,0.13529 0.24029,0.2803 0.44132,0.38964 0.15946,0.0867 0.72918,0.0932 0.90278,0.0103 0.12242,-0.0584 0.25783,-0.1476 0.33849,-0.22272 0.0668,-0.0623 0.22891,-0.33613 0.25114,-0.42478 0.0104,-0.0409 0.0305,-0.0815 0.045,-0.0904 0.0144,-0.009 0.0258,-0.11405 0.0258,-0.23357 0,-0.19948 -0.0359,-0.3409 -0.12196,-0.48318 -0.0146,-0.0243 -0.0339,-0.0673 -0.0434,-0.0956 -0.009,-0.0283 -0.0291,-0.0512 -0.0434,-0.0512 -0.0143,0 -0.0258,-0.0184 -0.0258,-0.0408 0,-0.0224 -0.0412,-0.0719 -0.091,-0.11008 -0.0498,-0.0381 -0.11119,-0.0889 -0.13643,-0.11265 -0.27244,-0.25638 -1.02601,-0.23633 -1.31,0.0346 -0.034,0.0325 -0.0914,0.079 -0.12764,0.10336 -0.0363,0.0243 -0.0661,0.0624 -0.0661,0.0848 0,0.0224 -0.0134,0.0408 -0.0295,0.0408 -0.0161,0 -0.0289,0.0184 -0.0289,0.0413 0,0.023 -0.0342,0.0827 -0.076,0.13229 l -0.076,0.0904 h -0.55758 c -0.51674,0 -0.56391,-0.004 -0.64286,-0.061 l -0.0853,-0.0605 v -1.41904 -1.41903 l -0.0987,-0.10439 -0.0992,-0.1049 h -1.57354 c -1.17876,0 -1.47265,-0.002 -1.57303,-0.0279 v -2.16937 c 0.11001,-0.0302 0.48197,-0.0326 2.2996,-0.0326 h 2.30012 l 0.0909,0.0853 c 0.0501,0.0468 0.0915,0.10597 0.0915,0.13177 0,0.0258 0.0128,0.047 0.0289,0.047 0.0161,0 0.0295,0.0141 0.0295,0.0315 0,0.086 0.2468,0.27032 0.4718,0.35243 0.30916,0.11283 0.4789,0.11163 0.80099,-0.005 0.19926,-0.0721 0.27356,-0.11608 0.36948,-0.22014 0.0659,-0.0716 0.13267,-0.15967 0.14832,-0.19585 0.0156,-0.0362 0.0392,-0.0853 0.0527,-0.10955 0.10462,-0.18821 0.12247,-0.25417 0.12247,-0.45476 0,-0.12674 -0.0169,-0.24978 -0.0413,-0.29869 -0.0228,-0.0457 -0.0659,-0.13488 -0.0956,-0.19843 -0.0296,-0.0636 -0.12774,-0.18879 -0.21808,-0.27854 -0.14084,-0.13992 -0.19677,-0.17358 -0.39222,-0.23358 -0.4186,-0.12851 -0.81785,-0.0395 -1.10846,0.2465 -0.0928,0.0913 -0.16898,0.18214 -0.16898,0.20205 0,0.0199 -0.0369,0.0713 -0.0822,0.11472 l -0.0822,0.0791 h -2.32183 -2.29598 v -2.13889 c 0.11004,-0.0302 0.48283,-0.032 2.30115,-0.032 h 2.30064 l 0.0904,0.076 c 0.0497,0.0418 0.0904,0.0926 0.0904,0.11317 0,0.0635 0.29193,0.33789 0.42065,0.39532 0.28994,0.12935 0.63477,0.1921 0.67748,0.12299 0.009,-0.0143 0.0607,-0.0345 0.11575,-0.045 0.21777,-0.0409 0.45584,-0.20366 0.59221,-0.40462 0.0472,-0.0694 0.0926,-0.13249 0.10077,-0.14056 0.0834,-0.083 0.16458,-0.73381 0.0915,-0.73381 -0.0166,0 -0.0386,-0.0454 -0.0491,-0.10128 -0.0105,-0.0559 -0.0375,-0.11722 -0.0599,-0.13591 -0.0225,-0.0186 -0.0413,-0.0509 -0.0413,-0.0718 0,-0.0472 -0.3078,-0.36587 -0.35346,-0.36587 -0.0185,0 -0.0753,-0.0182 -0.12609,-0.0408 -0.2929,-0.13024 -0.50986,-0.13906 -0.79427,-0.032 -0.30681,0.11543 -0.42583,0.2084 -0.56172,0.44028 -0.1392,0.23751 0.0691,0.21962 -2.51148,0.21962 h -2.28306 v -2.22983 l 1.54202,-5.2e-4 c 0.85398,-2.4e-4 1.57972,-0.007 1.61231,-0.016 0.0326,-0.009 0.0886,-0.0591 0.12454,-0.11162 l 0.0656,-0.0956 v -1.4118 -1.41232 l 0.0651,-0.046 c 0.0538,-0.0376 0.1684,-0.0455 0.6537,-0.0455 h 0.5886 l 0.11059,0.1478 c 0.0607,0.0812 0.11708,0.16546 0.12557,0.18758 0.009,0.0221 0.0911,0.0934 0.18345,0.15813 0.17754,0.12453 0.441,0.21084 0.64492,0.21084 0.1515,0 0.41547,-0.0683 0.52297,-0.13539 0.16244,-0.10129 0.33228,-0.25056 0.33228,-0.29197 0,-0.0231 0.0116,-0.0424 0.0258,-0.0424 0.0143,0 0.0338,-0.023 0.0434,-0.0512 0.009,-0.0283 0.0293,-0.0713 0.0439,-0.0956 0.0883,-0.14591 0.12144,-0.28324 0.12144,-0.49971 0,-0.12854 -0.0115,-0.23358 -0.0258,-0.23358 -0.0144,0 -0.0347,-0.0336 -0.045,-0.0749 -0.0103,-0.0413 -0.0663,-0.15054 -0.12402,-0.24236 -0.26169,-0.41646 -0.75894,-0.57719 -1.28416,-0.41496 -0.1591,0.0491 -0.22653,0.0917 -0.37,0.23203 -0.0965,0.0944 -0.17519,0.18934 -0.17519,0.21135 0,0.022 -0.0333,0.0762 -0.0744,0.12041 l -0.0749,0.0806 h -0.8754 c -0.94015,0 -0.99718,0.008 -1.07745,0.15245 -0.0287,0.0518 -0.038,0.39118 -0.0388,1.47381 -7.2e-4,1.40289 -0.002,1.40658 -0.0646,1.47433 l -0.0641,0.0682 h -1.28105 -1.23145 v -2.30942 c 0,-0.21807 -0.17571,-0.39377 -0.39378,-0.39377 h -2.24637 c -0.0107,-0.14521 -0.0115,-0.44276 -0.006,-1.16479 0.009,-1.25935 0.0101,-1.28146 0.0713,-1.34669 l 0.062,-0.0667 h 1.39061 c 1.44258,0 1.44624,-3.1e-4 1.5844,-0.12609 0.0657,-0.0599 0.0661,-0.064 0.0661,-0.96221 0,-1.01459 -0.0186,-0.92971 0.24081,-1.08934 0.13798,-0.0849 0.34623,-0.29857 0.34623,-0.35554 0,-0.016 0.0229,-0.0547 0.0512,-0.0858 0.0434,-0.048 0.0512,-0.11683 0.0512,-0.447 0,-0.30426 -0.01,-0.40193 -0.0439,-0.44442 -0.0244,-0.0299 -0.0685,-0.0975 -0.0977,-0.15038 -0.0873,-0.15795 -0.24877,-0.295 -0.47439,-0.40307 -0.0923,-0.0442 -0.18303,-0.0564 -0.4253,-0.0568 -0.26746,-5.3e-4 -0.32738,0.009 -0.45475,0.0708 -0.0806,0.0392 -0.1621,0.0854 -0.18087,0.10232 -0.0187,0.017 -0.0746,0.0622 -0.12454,0.10025 -0.0498,0.0382 -0.0909,0.0827 -0.0909,0.0992 0,0.0165 -0.03,0.0579 -0.0667,0.092 -0.0669,0.0624 -0.16926,0.41552 -0.16847,0.58085 7.2e-4,0.19585 0.12145,0.56831 0.20723,0.64027 0.01,0.008 0.0253,0.0364 0.0351,0.063 0.01,0.0266 0.0897,0.0959 0.17725,0.154 0.0875,0.0581 0.19404,0.1377 0.23667,0.17725 l 0.0775,0.0718 -5.2e-4,0.5519 c -5.9e-4,0.49821 -0.005,0.55851 -0.0568,0.62477 l -0.0563,0.0734 -1.44694,0.0145 -1.44642,0.015 -0.0734,0.0729 -0.0734,0.0734 -0.0145,1.60869 c -0.009,1.01556 -0.0148,1.36465 -0.032,1.51205 h -2.1978 v -2.23707 -2.32544 l 0.0734,-0.0636 c 0.0404,-0.0351 0.0808,-0.0641 0.0899,-0.0641 0.0619,0 0.42323,-0.33129 0.42323,-0.38809 0,-0.0157 0.0185,-0.0701 0.0413,-0.12092 0.12146,-0.27105 0.12714,-0.61238 0.0145,-0.86093 -0.0307,-0.0677 -0.0558,-0.13729 -0.0558,-0.15452 0,-0.0628 -0.3045,-0.33259 -0.45165,-0.39997 -0.13912,-0.0637 -0.32804,-0.0939 -0.51264,-0.0915 z m -8.90539,0.69712 c 0.0678,0.005 0.13284,0.0323 0.18655,0.0837 0.048,0.0459 0.10618,0.12891 0.12919,0.18397 0.0535,0.12812 0.0125,0.23757 -0.14004,0.37155 -0.0841,0.0739 -0.13479,0.0946 -0.22841,0.0946 -0.1028,0 -0.13896,-0.0186 -0.24857,-0.12816 -0.10097,-0.10097 -0.12779,-0.14921 -0.12764,-0.22737 4.5e-4,-0.23126 0.22565,-0.3966 0.42892,-0.37827 z m 6.04149,5.1e-4 c 0.14851,0 0.16082,0.005 0.26045,0.12764 0.15182,0.18528 0.14745,0.3213 -0.016,0.48473 -0.0989,0.099 -0.1401,0.12074 -0.22738,0.11885 -0.14341,-0.003 -0.17847,-0.0195 -0.2899,-0.1328 -0.0794,-0.0807 -0.0956,-0.11943 -0.0956,-0.23048 0,-0.11206 0.0173,-0.15197 0.10646,-0.25063 0.0985,-0.109 0.11722,-0.11731 0.262,-0.11731 z m 2.89801,0 c 0.12828,0 0.15648,0.0123 0.25787,0.11369 0.0978,0.0978 0.1142,0.13221 0.1142,0.24288 0,0.14889 -0.0482,0.22987 -0.18707,0.31574 -0.15009,0.0927 -0.28709,0.0804 -0.41134,-0.0367 -0.19766,-0.18641 -0.20452,-0.33277 -0.0248,-0.52245 0.0959,-0.10124 0.12205,-0.11317 0.25115,-0.11317 z m 6.0849,0 c 0.13712,0 0.15563,0.009 0.2682,0.13126 0.17159,0.18615 0.16923,0.29987 -0.0103,0.47439 -0.10839,0.10536 -0.15122,0.12764 -0.24288,0.12764 -0.11783,0 -0.21473,-0.0525 -0.32091,-0.17312 -0.12116,-0.13772 -0.10484,-0.28355 0.0496,-0.44596 0.0983,-0.10337 0.12303,-0.11421 0.25631,-0.11421 z m 5.53868,5.51594 c 0.0811,0 0.13271,0.0265 0.23513,0.12093 0.12094,0.11146 0.13126,0.13244 0.13126,0.26355 0,0.12232 -0.0139,0.15658 -0.0997,0.24494 -0.055,0.0566 -0.13487,0.11649 -0.17777,0.13281 -0.12316,0.0467 -0.18697,0.0233 -0.34571,-0.12867 -0.0977,-0.0935 -0.11007,-0.12159 -0.11007,-0.24857 0,-0.13182 0.0102,-0.15246 0.13126,-0.26406 0.10242,-0.0944 0.15455,-0.12093 0.23564,-0.12093 z m -26.14776,0.002 c 0.083,0.002 0.16685,0.049 0.26097,0.14314 0.0932,0.0932 0.11214,0.13184 0.11214,0.23151 0,0.14067 -0.12872,0.3105 -0.28474,0.37569 -0.0522,0.0218 -0.0983,0.0395 -0.10284,0.0393 -0.0342,-7e-4 -0.19917,-0.10557 -0.2651,-0.16846 -0.0674,-0.0643 -0.0806,-0.1016 -0.0806,-0.22635 0,-0.13204 0.0124,-0.16209 0.10645,-0.2589 0.089,-0.0916 0.17075,-0.13702 0.25373,-0.1359 z m -0.0155,6.1004 c 0.20163,3.5e-4 0.38825,0.18561 0.38861,0.3855 1.6e-4,0.0854 -0.0233,0.12974 -0.11731,0.22376 -0.17876,0.17876 -0.31846,0.18039 -0.51056,0.005 -0.0954,-0.0868 -0.10542,-0.11105 -0.10542,-0.2496 0,-0.14157 0.009,-0.16089 0.1173,-0.2589 0.0911,-0.0823 0.14211,-0.10609 0.22738,-0.10593 z m 26.16223,10e-4 c 0.19482,5.9e-4 0.36742,0.16845 0.36742,0.38034 0,0.12004 -0.0127,0.14911 -0.10439,0.23254 -0.18835,0.1714 -0.32673,0.17291 -0.5085,0.005 -0.108,-0.0997 -0.1204,-0.12569 -0.1204,-0.24856 0,-0.11873 0.0142,-0.15067 0.10542,-0.23926 0.0579,-0.0562 0.13721,-0.11011 0.17622,-0.11989 0.0284,-0.007 0.0563,-0.0104 0.0842,-0.0103 z m 0,2.88561 c 0.0762,5.8e-4 0.15445,0.0476 0.25786,0.14056 0.0977,0.0878 0.10956,0.11421 0.10956,0.2372 0,0.12126 -0.014,0.15359 -0.11369,0.25631 -0.1013,0.10439 -0.12919,0.11731 -0.2527,0.11731 -0.12351,0 -0.15139,-0.0128 -0.2527,-0.11731 -0.0984,-0.10136 -0.1142,-0.13565 -0.1142,-0.25063 0,-0.11756 0.014,-0.1463 0.11937,-0.24649 0.0962,-0.0915 0.17037,-0.13752 0.2465,-0.13695 z m -26.14414,0.006 c 0.0811,0.002 0.1619,0.0468 0.24856,0.13436 0.0972,0.0982 0.12211,0.14431 0.12196,0.22738 -2.1e-4,0.11141 -0.0616,0.22491 -0.17415,0.32246 -0.0471,0.0409 -0.11042,0.0605 -0.19689,0.0605 -0.10522,0 -0.14799,-0.0184 -0.24495,-0.10593 -0.10824,-0.0978 -0.1173,-0.11838 -0.1173,-0.25839 0,-0.13811 0.0101,-0.1617 0.11265,-0.2589 0.0877,-0.0831 0.16904,-0.12348 0.25012,-0.12144 z m -0.0496,6.08749 c 0.0335,-0.007 0.0657,-0.007 0.0971,0 0.0629,0.0133 0.12406,0.0543 0.19482,0.12506 0.11125,0.11125 0.12816,0.14466 0.12816,0.25321 0,0.10857 -0.0169,0.14197 -0.12816,0.25321 -0.14487,0.14487 -0.26632,0.16736 -0.40566,0.0754 -0.14901,-0.0983 -0.19947,-0.1816 -0.19947,-0.32918 0,-0.1552 0.0672,-0.26558 0.20619,-0.33744 0.0382,-0.0197 0.0735,-0.0335 0.10697,-0.0403 z m 26.19116,5.2e-4 c 0.18346,-0.002 0.36925,0.16139 0.37001,0.38137 4.7e-4,0.12331 -0.0119,0.14621 -0.13126,0.25631 -0.10243,0.0944 -0.15405,0.12144 -0.23513,0.12144 -0.0811,0 -0.13321,-0.0271 -0.23564,-0.12144 -0.1197,-0.11035 -0.13112,-0.13273 -0.13023,-0.25631 7.2e-4,-0.14259 0.0362,-0.20248 0.18655,-0.31936 0.0537,-0.0418 0.11455,-0.0612 0.1757,-0.062 z m -20.61217,5.54126 h 5.1e-4 c 0.1382,2.6e-4 0.28856,0.11117 0.36535,0.26975 0.0403,0.0831 0.0403,0.10613 0.004,0.19534 -0.0233,0.0557 -0.0811,0.13909 -0.12919,0.185 -0.0724,0.0692 -0.11286,0.0832 -0.23564,0.0832 -0.13563,0 -0.15823,-0.0101 -0.26459,-0.12196 -0.0953,-0.1002 -0.11575,-0.14321 -0.11575,-0.23874 0,-0.0984 0.0199,-0.13616 0.12816,-0.24443 0.10939,-0.10939 0.14521,-0.12808 0.24753,-0.12816 z m 6.088,0 c 0.11078,0 0.14361,0.0159 0.24959,0.12299 0.10274,0.10377 0.12203,0.14216 0.12196,0.24236 -6e-5,0.096 -0.0211,0.14226 -0.11007,0.24081 -0.17234,0.19123 -0.35091,0.19379 -0.51883,0.008 -0.0872,-0.0964 -0.10439,-0.13753 -0.10439,-0.24753 0,-0.11482 0.0152,-0.14695 0.11731,-0.24908 0.1009,-0.10089 0.13486,-0.1173 0.24443,-0.1173 z m 2.88767,0 c 0.19627,0 0.36269,0.15471 0.38189,0.3545 0.0125,0.12987 0.005,0.1471 -0.0997,0.25631 -0.17481,0.18045 -0.33769,0.18482 -0.51418,0.0145 -0.17923,-0.17304 -0.17486,-0.32123 0.0155,-0.51728 0.0846,-0.0871 0.12676,-0.108 0.21652,-0.108 z m 6.10609,0 c 0.11849,0 0.14405,0.0131 0.25838,0.13591 0.17308,0.18585 0.17355,0.28836 0.002,0.4656 -0.18198,0.18813 -0.37467,0.19204 -0.54105,0.0109 -0.156,-0.16988 -0.14425,-0.31026 0.0424,-0.50229 0.0921,-0.0948 0.12501,-0.11007 0.23823,-0.11007 z m 15.25902,26.11778 a 59.605534,59.605534 0 0 1 -3.33623,3.84938 59.605534,59.605534 0 0 1 -3.74499,3.42047 l 38.732,31.56654 z m -94.757009,0.10387 -31.567065,38.73252 38.836906,-31.65129 a 59.605534,59.605534 0 0 1 -3.849378,-3.33572 59.605534,59.605534 0 0 1 -3.420463,-3.74551 z m 42.351937,21.60282 5.080832,49.84244 5.06687,-49.70911 a 59.605534,59.605534 0 0 1 -5.06687,0.22996 59.605534,59.605534 0 0 1 -5.080832,-0.36329 z" /></g></svg>
