<?xml version="1.0" encoding="UTF-8" standalone="no"?>
<!-- Created with Inkscape (http://www.inkscape.org/) -->

<svg
   width="196.96153mm"
   height="39.271847mm"
   viewBox="0 0 196.96153 39.271847"
   version="1.1"
   id="svg1"
   sodipodi:docname="TAILOR_logo_v1.svg"
   inkscape:version="1.3.2 (091e20e, 2023-11-25, custom)"
   inkscape:export-filename="TAILOR_logo_v1.webp"
   inkscape:export-xdpi="96"
   inkscape:export-ydpi="96"
   xmlns:inkscape="http://www.inkscape.org/namespaces/inkscape"
   xmlns:sodipodi="http://sodipodi.sourceforge.net/DTD/sodipodi-0.dtd"
   xmlns="http://www.w3.org/2000/svg"
   xmlns:svg="http://www.w3.org/2000/svg">
  <sodipodi:namedview
     id="namedview1"
     pagecolor="#505050"
     bordercolor="#eeeeee"
     borderopacity="1"
     inkscape:showpageshadow="0"
     inkscape:pageopacity="0"
     inkscape:pagecheckerboard="0"
     inkscape:deskcolor="#505050"
     inkscape:document-units="mm"
     inkscape:zoom="1.0922955"
     inkscape:cx="339.19394"
     inkscape:cy="20.598822"
     inkscape:window-width="1920"
     inkscape:window-height="1051"
     inkscape:window-x="-9"
     inkscape:window-y="-9"
     inkscape:window-maximized="1"
     inkscape:current-layer="layer1" />
  <defs
     id="defs1" />
  <g
     inkscape:label="Layer 1"
     inkscape:groupmode="layer"
     id="layer1"
     transform="translate(-6.0828128,-122.75987)">
    <text
       style="font-weight:bold;font-size:52.7305px;line-height:1.25;font-family:'Bell MT';-inkscape-font-specification:'Bell MT Bold';letter-spacing:0px;word-spacing:0px;fill:#d4aa00;stroke-width:1.31826"
       x="7.7587094"
       y="159.62659"
       id="text7">T</text>
    <text
       style="font-weight:bold;font-size:52.7305px;line-height:1.25;font-family:'Bell MT';-inkscape-font-specification:'Bell MT Bold';letter-spacing:0px;word-spacing:0px;fill:#d4aa00;stroke-width:1.31826"
       x="40.534447"
       y="159.62659"
       id="text6">A</text>
    <text
       style="font-weight:bold;font-size:52.7305px;line-height:1.25;font-family:'Bell MT';-inkscape-font-specification:'Bell MT Bold';letter-spacing:0px;word-spacing:0px;fill:#d4aa00;stroke-width:1.31826"
       x="96.161522"
       y="159.62659"
       id="text4">L</text>
    <text
       style="font-weight:bold;font-size:52.7305px;line-height:1.25;font-family:'Bell MT';-inkscape-font-specification:'Bell MT Bold';letter-spacing:0px;word-spacing:0px;fill:#d4aa00;stroke-width:1.31826"
       x="164.06686"
       y="159.62659"
       id="text2">R</text>
    <path
       id="rect1"
       style="fill:#d4aa00;stroke-width:4.30385;stroke-linejoin:bevel;stroke-dashoffset:42.0005;paint-order:stroke fill markers"
       d="m 78.289301,125.07206 v 2.54575 h 1.337923 v 29.83744 h -1.337923 v 2.54523 h 1.337923 14.451902 1.337921 v -2.54523 h -1.337921 v -29.83744 h 1.337921 v -2.54575 z"
       sodipodi:nodetypes="ccccccccccccccc" />
    <path
       id="text9"
       style="font-weight:bold;font-size:52.893px;line-height:1.25;font-family:'Bell MT';-inkscape-font-specification:'Bell MT Bold';letter-spacing:0px;word-spacing:0px;fill:#d4aa00;stroke-width:1.32233"
       d="m 147.22926,124.74691 a 12.111344,17.440336 0 0 0 -1.76114,0.20102 c -4.27592,0.44648 -7.93528,2.17667 -10.97297,5.19968 -3.54686,3.54686 -5.32009,7.79968 -5.32009,12.7584 0,5.25141 1.71289,9.41803 5.13922,12.50001 3.44355,3.08198 7.58483,4.62297 12.42302,4.62297 5.32028,0 9.77948,-1.85943 13.37799,-5.57847 3.59851,-3.73625 5.3976,-8.01494 5.3976,-12.83591 0,-3.11641 -0.79204,-5.99203 -2.37608,-8.62635 -1.56681,-2.65153 -3.65848,-4.67475 -6.27558,-6.06939 -2.40953,-1.29253 -5.20112,-1.97811 -8.36487,-2.07274 a 12.111344,17.440336 0 0 0 -1.2671,-0.0992 z" />
    <path
       style="fill:#d4aa00;stroke:#ffffff;stroke-width:1;stroke-linecap:butt;stroke-linejoin:miter;stroke-dasharray:2, 1;stroke-dashoffset:1;stroke-opacity:1"
       d="m 148.24285,128.62248 -0.24222,28.58277 v 0"
       id="path10" />
    <path
       style="fill:none;stroke:#d4aa00;stroke-width:2;stroke-linecap:round;stroke-linejoin:miter;stroke-dasharray:none;stroke-opacity:1"
       d="M 82.114915,156.96302 C 45.250793,142.16352 144.46601,156.15193 147.7584,126.92689"
       id="path11"
       sodipodi:nodetypes="cc" />
  </g>
</svg>
